<svg xmlns="http://www.w3.org/2000/svg"><defs><font horiz-adv-x="570"><font-face ascent="755" bbox="-157 -293 1248 988" cap-height="724" descent="-245" panose-1="2 0 8 3 0 0 0 9 0 4" underline-position="-200" underline-thickness="50" unicode-range="U+0020-FB06" x-height="521"/><missing-glyph horiz-adv-x="500"/><glyph d="M508-212h-149l88 623q2 10-7 10h-162l-89-633h-149l89 623q2 10-7 10h-65l13 100h74l7 48q27 182 198 182 92 0 167-49 51 65 158 65 46 0 94.5-15.5t77.5-37.5l-55-93q-58 36-101 36-61 0-70-67l-8-59q-1-10 7-10h154l-14-100h-163zM293 531q-1-10 7-10h163l12 84q-52 36-106 36-59 0-69-67z" glyph-name="ff" horiz-adv-x="743" unicode="&#x66;&#x66;"/><glyph d="M604 0h-216l-3 5 24 135 37 261q3 19-10 20h-158l-89-633h-149l89 623q2 10-7 10h-65l13 100h74l9 64q26 182 218 182 65 0 125-19t94-44l-55-93q-77 46-145 46-79 0-89-73l-8-53q-1-10 7-10h311l-59-420q-2-12 0-15.5t13-4.5l48-7z" glyph-name="fi" horiz-adv-x="642" unicode="&#x66;&#x69;"/><glyph d="M604 0h-216l-3 5 26 147 66 475q-56 30-98 30-67 0-78-67l-8-59q-1-10 7-10h119l-14-100h-127l-89-633h-149l89 623q2 10-7 10h-65l13 100h74l9 64q26 182 211 182 89 0 166-44l76 32h38l-92-654q-2-12 0-15.5t13-4.5l48-7z" glyph-name="fl" horiz-adv-x="643" unicode="&#x66;&#x6c;"/><glyph d="M507-212h-149l89 623q2 10-7 10h-162l-89-633h-149l89 623q2 10-7 10h-65l13 100h74l7 48q27 182 198 182 96 0 168-50 55 66 172 66 65 0 125-19t94-44l-55-93q-77 46-145 46-79 0-89-73l-8-53q-1-10 7-10h311l-59-420q-2-12 0-15.5t13-4.5l48-7-9-74h-216l-3 5 24 135 37 261q3 20-13 20h-155zM293 531q-1-10 7-10h162l9 64q2 14 4 21-56 35-106 35-59 0-69-67z" glyph-name="ffi" horiz-adv-x="960" unicode="&#x66;&#x66;&#x69;"/><glyph d="M924 0h-216l-3 5 26 147 66 475q-56 30-98 30-69 0-78-67l-8-59q-1-10 7-10h119l-14-100h-127l-89-633h-149l89 623q2 9-5 10h-166l-89-633h-149l89 623q2 10-7 10h-65l13 100h74l7 48q27 182 198 182 96 0 168-50 53 66 167 66 89 0 166-44l76 32h38l-92-654q-2-12 0-15.5t13-4.5l48-7zM293 531q-1-10 7-10h164l12 84q-54 36-107 36-59 0-69-67z" glyph-name="ffl" horiz-adv-x="963" unicode="&#x66;&#x66;&#x6c;"/><glyph d="M906 0h-188l-3 2-33 110-53 144-63-60-14-95q-2-12 0-15.5t13-4.5l50-7-10-74h-273l9 75 46 6q10 2 13.5 5.5t4.5 14.5l73 525q-58 31-99 31-69 0-78-67l-8-59q-1-10 7-10h119l-14-100h-127l-89-633h-149l89 623q2 10-7 10h-65l13 100h74l9 64q26 182 211 182 94 0 172-47l63 35h45l-59-425 154 143q38 35 67.5 46.5t65.5 11.5q22 0 58-6l-11-87q-55 3-101-40l-60-56 87-244q6-15 28-18l44-7z" glyph-name="fk" horiz-adv-x="931" unicode="&#x66;&#x6b;"/><glyph d="M521 0h-145q26 90 34 146l68 481q-56 30-99 30-69 0-78-67l-8-59q-1-10 7-10h119l-14-100h-127l-89-633h-149l89 623q2 10-7 10h-65l13 100h74l9 64q26 182 211 182 94 0 170-46l65 34h40l-45-313 2-1q96 90 181 90 143 0 143-193 0-56-11.5-112.5t-37-112.5-74-90.5-114.5-34.5q-84 0-147 63l-3-1zM583 329l-27-185q50-40 96-40 38 0 64 33t36 77 10 92q0 98-52 98-43 0-127-75z" glyph-name="fb" horiz-adv-x="932" unicode="&#x66;&#x62;"/><glyph d="M906 0h-214l-2 4 19 108 30 221q6 31 1 49.5t-26 18.5q-46 0-131-71l-32-229q-2-12 .5-15.5t13.5-4.5l50-7-10-74h-273l10 75 44 6q10 2 13.5 5.5t4.5 14.5l74 526q-56 30-99 30-67 0-78-67l-8-59q-1-10 7-10h119l-14-100h-127l-89-633h-149l89 623q2 10-7 10h-65l13 100h74l9 64q26 182 211 182 91 0 167-44l64 32h41l-44-316 3-2q43 36 60 49.5t52 29 71 15.5q53 0 84.5-32t31.5-90q0-16-4-52l-36-256q-2-12 0-15.5t13-4.5l49-7z" glyph-name="fh" horiz-adv-x="942" unicode="&#x66;&#x68;"/><glyph d="M699 116l18-89q-82-39-167-39-75 0-108.5 27.5t-33.5 89.5q0 20 3 44l36 262q2 10-6 10h-163l-89-633h-149l89 623q2 10-7 10h-65l13 100h74l9 64q26 182 218 182 65 0 125-19t94-44l-55-93q-77 46-145 46-41 0-62.5-17.5t-26.5-55.5l-7-50q-1-8 1-10.5t10-2.5h452l-14-100h-146l-33-239q-3-20-3-32 0-27 13-38.5t45-11.5q37 0 80 16z" glyph-name="ft" horiz-adv-x="747" unicode="&#x66;&#x74;"/><glyph d="M386-28l61 431q3 18-12 18h-156l-61-421h-147l59 411q2 10-7 10h-65l13 100h74l9 64q26 182 218 182 65 0 125-19t94-44l-55-93q-77 46-145 46-79 0-89-73l-8-53q-1-10 7-10h309l-79-574q-12-89-60.5-129.5t-133.5-40.5q-53 0-96.5 17.5t-59.5 33.5l51 83q40-26 82-26 32 0 48.5 18t23.5 69z" glyph-name="fj" horiz-adv-x="639" unicode="&#x66;&#x6a;"/><glyph d="M703-28l61 431q3 18-12 18h-156l-61-421h-147l59 411q2 9-5 10h-164l-58-421h-149l58 411q2 10-7 10h-65l13 100h74l7 48q27 182 198 182 96 0 168-50 55 66 172 66 65 0 125-19t94-44l-55-93q-77 46-145 46-79 0-89-73l-8-53q-1-10 7-10h309l-79-574q-12-89-60.5-129.5t-133.5-40.5q-53 0-96.5 17.5t-59.5 33.5l51 83q40-26 82-26 32 0 48.5 18t23.5 69zM293 531q-1-10 7-10h162l9 64q2 14 4 21-56 35-106 35-59 0-69-67z" glyph-name="ffj" horiz-adv-x="956" unicode="&#x66;&#x66;&#x6a;"/><glyph d="M1224 0h-188l-3 2-33 110-53 144-63-60-14-95q-2-12 0-15.5t13-4.5l50-7-10-74h-273l9 75 46 6q10 2 13.5 5.5t4.5 14.5l73 525q-58 31-99 31-69 0-78-67l-8-59q-1-10 7-10h119l-14-100h-127l-89-633h-149l89 623q2 9-5 10h-164l-89-633h-149l89 623q2 10-7 10h-65l13 100h74l7 48q27 182 198 182 93 0 167-50 52 66 166 66 94 0 172-47l63 35h45l-59-425 154 143q38 35 67.5 46.5t65.5 11.5q22 0 58-6l-11-87q-55 3-101-40l-60-56 87-244q6-15 28-18l44-7zM293 531q-1-10 7-10h162l9 64q2 14 4 21-56 35-106 35-59 0-69-67z" glyph-name="ffk" horiz-adv-x="1248" unicode="&#x66;&#x66;&#x6b;"/><glyph d="M839 0h-145q26 90 34 146l68 481q-56 30-99 30-69 0-78-67l-8-59q-1-10 7-10h119l-14-100h-127l-89-633h-149l89 623q2 9-5 10h-164l-89-633h-149l89 623q2 10-7 10h-65l13 100h74l7 48q27 182 198 182 93 0 167-50 52 66 166 66 94 0 170-46l65 34h40l-45-313 2-1q96 90 181 90 143 0 143-193 0-56-11.5-112.5t-37-112.5-74-90.5-114.5-34.5q-84 0-147 63l-3-1zM901 329l-27-185q50-40 96-40 38 0 64 33t36 77 10 92q0 98-52 98-43 0-127-75zM293 531q-1-10 7-10h162l9 64q2 14 4 21-56 35-106 35-59 0-69-67z" glyph-name="ffb" horiz-adv-x="1251" unicode="&#x66;&#x66;&#x62;"/><glyph d="M1224 0h-214l-2 4 19 108 30 221q6 31 1 49.5t-26 18.5q-46 0-131-71l-32-229q-2-12 .5-15.5t13.5-4.5l50-7-10-74h-273l10 75 44 6q10 2 13.5 5.5t4.5 14.5l74 526q-56 30-99 30-67 0-78-67l-8-59q-1-10 7-10h119l-14-100h-127l-89-633h-149l89 623q2 10-7 10h-162l-89-633h-149l89 623q2 10-7 10h-65l13 100h74l7 48q27 182 198 182 93 0 167-50 52 66 166 66 91 0 167-44l64 32h41l-44-316 3-2q43 36 60 49.5t52 29 71 15.5q53 0 84.5-32t31.5-90q0-16-4-52l-36-256q-2-12 0-15.5t13-4.5l49-7zM293 531q-1-10 7-10h162l9 64q2 14 4 21-56 35-106 35-59 0-69-67z" glyph-name="ffh" horiz-adv-x="1262" unicode="&#x66;&#x66;&#x68;"/><glyph d="M1017 116l18-89q-82-39-167-39-75 0-108.5 27.5t-33.5 89.5q0 20 3 44l36 262q2 10-6 10h-163l-89-633h-149l89 623q2 9-5 10h-164l-89-633h-149l89 623q2 10-7 10h-65l13 100h74l7 48q27 182 198 182 96 0 168-50 55 66 172 66 65 0 125-19t94-44l-55-93q-77 46-145 46-41 0-62.5-17.5t-26.5-55.5l-7-50q-1-8 1-10.5t10-2.5h452l-14-100h-146l-33-239q-3-20-3-32 0-27 13-38.5t45-11.5q37 0 80 16zM293 531q-1-10 7-10h162l13 85q-56 35-106 35-59 0-69-67z" glyph-name="fft" horiz-adv-x="1065" unicode="&#x66;&#x66;&#x74;"/><glyph d="M189-212h-149l89 623q2 10-7 10h-65l13 100h74l9 64q26 182 199 182 79 0 137-40l-50-91q-35 21-68 21-59 0-70-67l-8-59q-1-10 40-10h278l-59-420q-2-12 0-15.5t13-4.5l48-7-9-74h-216l-3 5 24 135 2 11 35 250q3 20-14 20h-154zM711 703l-193-142-53 55 171 169z" glyph-name="f_iacute" horiz-adv-x="642" unicode="&#x66;&#x26;&#x23;&#x78;&#x65;&#x64;&#x3b;"/><glyph d="M698 116l17-88q-78-39-166-39-75 0-109 27.5t-34 88.5q0 13 4 45l36 261q2 10-7 10h-167l-33-239q-3-20-3-32 0-28 10.5-39t41.5-11q25 0 62 11l18-91q-60-32-143-32-75 0-108.5 27.5t-33.5 89.5q0 20 3 44l36 261q2 10-6 10h-69l13 93q64 7 99.5 43t54.5 117h93l-20-142q-1-10 7-10h108q55 0 86.5 39.5t48.5 112.5h94l-21-142q-1-10 7-10h138l-13-100h-146l-34-239q-3-18-3-32 0-27 13-38.5t45-11.5q33 0 81 16z" glyph-name="tt" horiz-adv-x="745" unicode="&#x74;&#x74;"/><glyph glyph-name=".notdef" horiz-adv-x="500"/><glyph glyph-name=".null" horiz-adv-x="0"/><glyph glyph-name="nonmarkingreturn" horiz-adv-x="333"/><glyph glyph-name="space" horiz-adv-x="202" unicode="&#x20;"/><glyph d="M215 192h-127l33 355 25 177h161l-25-177zM221 79q0-91-97-91-77 0-77 64 0 92 99 92 75 0 75-65z" glyph-name="exclam" horiz-adv-x="283" unicode="&#x21;"/><glyph d="M410 447h-135l37 259h135zM210 447h-135l37 259h135z" glyph-name="quotedbl" horiz-adv-x="415" unicode="&#x22;"/><glyph d="M522 121h-97l-34-121h-104l35 121h-87l-34-121h-104l34 121h-99l36 101h94l33 113h-100l35 102h94l31 106h104l-31-106h86l31 106h104l-31-106h101l-34-102h-96l-33-113h101zM352 222l33 113h-86l-34-113h87z" glyph-name="numbersign" horiz-adv-x="607" unicode="&#x23;"/><glyph d="M508 435l-106 9-3 69q0 15-12 19-17 6-60 6-49 0-77-18t-28-52q0-33 26-51t78-37q8-3 12-4 33-12 55-23.5t46.5-30.5 37-48 12.5-66q0-83-49.5-134t-134.5-67l-11-87h-124l11 82q-110 7-162 36l23 164 105-6 5-69q1-18 19-23 25-7 69-7 107 0 107 77 0 14-7 26.5t-14.5 20-27 16.5-28.5 12.5-35 12.5q-36 13-57.5 23.5t-47.5 30-39 49-13 69.5q0 86 52 135t139 62l12 76h125l-11-74q67-5 136-28z" glyph-name="dollar" horiz-adv-x="518" unicode="&#x24;"/><glyph d="M222 257q-77 0-112 39.5t-35 104.5q0 99 51 159t153 60q146 0 146-142 0-100-53-160.5t-150-60.5zM311-17h-139l466 638h138zM237 339q74 0 74 133 0 65-46 65-75 0-75-128 0-70 47-70zM674-12q-77 0-112 39.5t-35 104.5q0 99 51 159t153 60q147 0 147-142 0-100-53-160.5t-151-60.5zM690 70q73 0 73 133 0 65-45 65-75 0-75-128 0-70 47-70z" glyph-name="percent" horiz-adv-x="908" unicode="&#x25;"/><glyph d="M673 321l-42-5q-15-1-16-14l-34-260q-107-54-255-54-257 0-257 174 0 75 43.5 122.5t108.5 63.5v2q-37 13-65 47t-28 84q0 96 69.5 148.5t185.5 52.5q67 0 129.5-15.5t97.5-38.5l-25-155-108 9-4 64q-2 15-12 18-31 9-73 9-112 0-112-92 0-39 25-61t71-22h40l-14-106q-39 0-68-4.5t-55.5-15-41-33-14.5-54.5q0-87 117-87 57 0 84 8 13 4 17.5 8.5t6.5 18.5l37 256 18 12h185z" glyph-name="ampersand" horiz-adv-x="698" unicode="&#x26;"/><glyph d="M210 447h-135l37 259h135z" glyph-name="quotesingle" horiz-adv-x="215" unicode="&#x27;"/><glyph d="M294-108l-125-65q-46 74-75.5 174.5t-29.5 204.5q0 270 244 538l102-67q-100-124-143.5-236t-43.5-246q0-153 71-303z" glyph-name="parenleft" horiz-adv-x="362" unicode="&#x28;"/><glyph d="M90-173l-103 67q100 124 143.5 235.5t43.5 246.5q0 149-70 303l124 65q46-73 75.5-174t29.5-206q0-268-243-537z" glyph-name="parenright" horiz-adv-x="362" unicode="&#x29;"/><glyph d="M201 382l-78 64 51 56 95 55-104-4-64 22 48 100 64-22 70-65-22 97 10 70h105l-10-70-49-97h-34l-14-31 25-19-43-99zM437 445l-93-62-35 56-15 99 28 19-5 31 89 65 70 22 19-100-70-22-103 4 79-56z" glyph-name="asterisk" horiz-adv-x="477" unicode="&#x2a;"/><glyph d="M330 121h-120l21 144h-133l16 116h133l20 140h120l-20-140h134l-16-116h-134z" glyph-name="plus" unicode="&#x2b;"/><glyph d="M101-119l-65 20 43 107q4 9-4 12l-39 14 38 108q64-1 96.5-14t32.5-55q0-26-31-78z" glyph-name="comma" horiz-adv-x="258" unicode="&#x2c;"/><glyph d="M306 227h-271l18 127h271z" glyph-name="hyphen" horiz-adv-x="311" unicode="&#x2d;"/><glyph d="M216 76q0-88-97-88-76 0-76 67 0 89 98 89 75 0 75-68z" glyph-name="period" horiz-adv-x="276" unicode="&#x2e;"/><glyph d="M125-92h-145l388 823h145z" glyph-name="slash" horiz-adv-x="455" unicode="&#x2f;"/><glyph d="M567 289q-20-149-89.5-225t-209.5-76q-221 0-221 221 0 42 6 87 37 295 302 295 218 0 218-220 0-40-6-82zM283 94q55 0 84.5 44t42.5 149q8 68 8 86 0 109-78 109-56 0-86.5-43.5t-43.5-146.5q-6-51-6-86 0-112 79-112z" glyph-name="zero" horiz-adv-x="579" unicode="&#x30;"/><glyph d="M356 0h-341l10 75 85 6q9 1 12 4.5t5 15.5l50 359q3 17-10 21l-84 18 12 77h246l-66-475q-2-12 .5-15.5t13.5-4.5l78-7z" glyph-name="one" horiz-adv-x="402" unicode="&#x31;"/><glyph d="M470 0h-453l13 93 154 137q112 99 134 125 32 37 32 76 0 52-63 52-43 0-61.5-18.5t-25.5-71.5l-135 13q8 58 31 96.5t59 57 71.5 25.5 81.5 7q96 0 142-40.5t46-106.5q0-47-23.5-90.5t-45-64.5-78.5-70q-12-11-18-16l-125-107h146q12 0 15 11l25 80h104z" glyph-name="two" horiz-adv-x="516" unicode="&#x32;"/><glyph d="M372 269v-4q103-28 103-136 0-103-70-157.5t-187-54.5q-75 0-137 26.5t-94 68.5l88 85q65-67 142-67 111 0 111 98 0 79-90 79-35 0-70-6l13 100 47 5q60 7 93.5 37.5t33.5 81.5q0 58-65 58-43 0-62-18.5t-26-70.5l-138 13q22 184 244 184 194 0 194-155 0-64-36-106.5t-94-60.5z" glyph-name="three" horiz-adv-x="516" unicode="&#x33;"/><glyph d="M430-67h-135l17 129h-284l14 103 259 429 119-61-231-354h139l23 164 138 18-26-182h81l-16-117h-81z" glyph-name="four" horiz-adv-x="549" unicode="&#x34;"/><glyph d="M491 450h-254l-36-141q55 39 128 39 76 0 119.5-45.5t43.5-129.5q0-113-71.5-184.5t-199.5-71.5q-79 0-140 25.5t-96 68.5l89 87q61-67 143-67 55 0 90 30.5t35 90.5q0 45-23 64t-56 19q-54 0-100-43l-92 43 70 341h367z" glyph-name="five" horiz-adv-x="521" unicode="&#x35;"/><glyph d="M562 586l-76-85q-50 43-110 43-61 0-103-51.5t-52-127.5q76 41 149 41t118-42 45-123q0-124-72-188.5t-188-64.5q-112 0-162.5 68.5t-50.5 177.5q0 56 9.5 111.5t33 112 58.5 99.5 92 70.5 127 27.5q112 0 182-69zM211 265q-1-18-1-46 0-121 76-121 51 0 73 40t22 89q0 71-66 71-48 0-104-33z" glyph-name="six" horiz-adv-x="552" unicode="&#x36;"/><glyph d="M270-67h-157q57 305 275 517h-189q-11 0-15-13l-26-84-104-8 33 231h482l-18-113q-101-97-179-240t-102-290z" glyph-name="seven" horiz-adv-x="517" unicode="&#x37;"/><glyph d="M423 334q79-49 79-140 0-99-74.5-152.5t-195.5-53.5q-96 0-149.5 38t-53.5 111q0 119 122 201-60 49-60 126 0 90 66 140.5t175 50.5q88 0 137.5-38.5t49.5-104.5q0-97-96-178zM240 281q-84-63-84-124 0-32 23-50.5t67-18.5q49 0 75.5 23.5t26.5 60.5q0 23-16 43.5t-33 31.5-48 28q-3 1-4 2t-3 2zM324 385q69 59 69 111 0 60-71 60-39 0-63.5-20t-24.5-52q0-31 23-52.5t67-46.5z" glyph-name="eight" horiz-adv-x="517" unicode="&#x38;"/><glyph d="M26-5l73 88q62-54 127-54 67 0 100.5 44t46.5 125q-70-41-143-41-75 0-121.5 46t-46.5 129q0 120 71 189.5t191 69.5q212 0 212-249 0-43-4.5-85t-16-92.5-35-92.5-56.5-78-85.5-56-117.5-20q-55 0-109 21.5t-86 55.5zM383 303q3 29 3 54 2 125-75 125-46 0-71-39t-25-95q0-40 15-59.5t51-19.5q47 0 102 34z" glyph-name="nine" horiz-adv-x="552" unicode="&#x39;"/><glyph d="M274 456q0-88-97-88-76 0-76 67 0 89 98 89 75 0 75-68zM216 76q0-88-97-88-76 0-76 67 0 89 98 89 75 0 75-68z" glyph-name="colon" horiz-adv-x="276" unicode="&#x3a;"/><glyph d="M101-119l-65 20 43 107q4 9-4 12l-39 14 38 108q64-1 96.5-14t32.5-55q0-26-31-78zM270 456q0-88-97-88-76 0-76 67 0 89 98 89 75 0 75-68z" glyph-name="semicolon" horiz-adv-x="258" unicode="&#x3b;"/><glyph d="M477 84l-370 137 19 140 408 142 18-113-306-98 280-98z" glyph-name="less" unicode="&#x3c;"/><glyph d="M477 130h-386l16 117h386zM502 316h-385l16 117h386z" glyph-name="equal" unicode="&#x3d;"/><glyph d="M502 221l-410-137-14 116 308 98-278 98 46 107 367-142z" glyph-name="greater" unicode="&#x3e;"/><glyph d="M299 192h-151l25 186q40 3 76 12t72.5 26.5 58 48 21.5 71.5q0 32-20.5 48.5t-55.5 16.5q-42 0-68-7-15-4-19-20l-15-60-124-9 24 173q127 46 224 46 217 0 217-184 0-100-64-166.5t-189-85.5zM292 79q0-91-98-91-76 0-76 64 0 92 98 92 76 0 76-65z" glyph-name="question" horiz-adv-x="528" unicode="&#x3f;"/><glyph d="M571-70l12-82q-84-35-208-35-147 0-230.5 74.5t-83.5 217.5q0 202 128 332.5t322 130.5q143 0 223-72t80-201q0-153-66.5-230t-174.5-77q-85 0-100 69-80-69-132-69-96 0-96 122 0 112 75 199.5t184 87.5q73 0 135-32l-39-130q-13-39-26-93-7-25-7-39 0-33 36-33 48 0 79.5 66.5t31.5 145.5q0 196-219 196-81 0-146-31.5t-104.5-84-60.5-115-21-128.5q0-109 58-164.5t169-55.5q91 0 181 31zM474 128l55 184q-15 12-43 12-50 0-94-60.5t-44-143.5q0-45 33-45 38 0 93 53z" glyph-name="at" horiz-adv-x="841" unicode="&#x40;"/><glyph d="M726 0h-307l10 73 82 9-19 109h-246l-49-109 76-9-11-73h-274l11 73 45 11q20 5 27 20l299 620h174l128-623q2-12 22-17l43-11zM476 299l-51 273h-7l-127-273h185z" glyph-name="A" horiz-adv-x="744" unicode="&#x41;"/><glyph d="M340 0h-322l11 73 62 7q11 2 14.5 5.5t4.5 14.5l73 522q2 11-1 15t-13 5l-61 7 10 75h330q102 0 147.5-43t45.5-113q0-78-41.5-124t-104.5-65v-3q71-8 106.5-46.5t35.5-102.5q0-119-80-173t-217-54zM261 108h68q76 0 114.5 27t38.5 98q0 87-109 87h-83zM304 420h40q32 0 56.5 5t46.5 17 34 36.5 12 60.5q0 45-27.5 60.5t-80.5 15.5h-55z" glyph-name="B" horiz-adv-x="648" unicode="&#x42;"/><glyph d="M636 229l-26-186q-95-55-253-55-151 0-224.5 83t-73.5 229q0 197 108.5 317t309.5 120q62 0 123-15.5t96-41.5l-26-196-107 9-3 93q0 18-13 22-33 13-84 13-112 0-178.5-80.5t-66.5-229.5q0-103 42.5-156t123.5-53q70 0 103 13 11 6 15 19l29 95h105z" glyph-name="C" horiz-adv-x="670" unicode="&#x43;"/><glyph d="M320 0h-302l11 75 63 7q10 1 13 4.5t5 14.5l73 522q3 18-13 20l-62 7 10 74h318q157 0 232.5-77t75.5-217q0-193-107-311.5t-317-118.5zM262 107h56q130 0 200.5 90t70.5 229q0 100-48 145t-148 45h-61z" glyph-name="D" horiz-adv-x="739" unicode="&#x44;"/><glyph d="M561 0h-543l10 73 63 7q11 2 14.5 5.5t4.5 14.5l73 523q2 11-.5 15t-12.5 5l-62 7 10 74h521l-28-202-105 5-3 76q-1 13-16 13h-155l-27-197h230l-16-111h-230l-27-201h177q14 0 17 11l28 88h105z" glyph-name="E" horiz-adv-x="620" unicode="&#x45;"/><glyph d="M408 0h-389l10 73 62 7q11 2 14.5 5.5t4.5 14.5l73 523q2 11-.5 15t-12.5 5l-62 7 10 74h518l-28-202-106 5-3 76q-1 13-16 13h-151l-27-196h226l-15-111h-226l-29-207q-2-12 .5-15.5t12.5-4.5l143-8z" glyph-name="F" horiz-adv-x="595" unicode="&#x46;"/><glyph d="M721 269l-40-4q-17-1-18-14l-29-215q-107-48-262-48-163 0-238.5 85t-75.5 227q0 195 109 316t311 121q59 0 120-15t99-43l-25-189-108 8-3 89q0 18-12 21-41 13-89 13-111 0-176.5-84.5t-65.5-226.5q0-207 176-207 57 0 88 10 11 3 14 17l19 129h-110l26 90h301z" glyph-name="G" horiz-adv-x="717" unicode="&#x47;"/><glyph d="M749 0h-310l11 73 62 7q10 1 13 5t5 15l31 216h-269l-30-215q-2-12 0-15.5t12-4.5l65-8-10-73h-310l10 73 63 7q10 1 13 5t5 15l73 522q2 11-1 15t-13 5l-60 7 10 75h310l-10-75-67-8q-11-2-14-5t-4-14l-26-194h268l27 194q2 12-.5 15.5t-12.5 4.5l-61 7 10 75h310l-10-75-66-8q-11-1-13.5-4t-4.5-15l-73-521q-2-12 0-15.5t13-4.5l65-8z" glyph-name="H" horiz-adv-x="802" unicode="&#x48;"/><glyph d="M340 0h-329l8 73 73 7q10 1 13 4.5t5 15.5l74 522q2 11-1 15t-13 5l-70 7 10 75h330l-11-75-76-8q-11-1-13.5-4t-4.5-15l-73-521q-2-12 0-15.5t12-4.5l75-8z" glyph-name="I" horiz-adv-x="382" unicode="&#x49;"/><glyph d="M254 164l64 459q3 18-14 19l-87 7 10 75h337l-11-75-67-8q-7-1-10-2.5t-4.5-4.5-2.5-11l-65-460q-12-90-61-132.5t-147-42.5q-56 0-107.5 12t-71.5 27l25 178 106-8 1-71q0-12 7-14 16-6 42-6 27 0 39 13t17 45z" glyph-name="J" horiz-adv-x="500" unicode="&#x4a;"/><glyph d="M710 0h-204l-7 5-35 84-102 209-85-88-16-108q-2-12 0-15.5t12-4.5l66-8-10-74h-310l10 74 62 7q11 1 14.5 4.5t4.5 15.5l73 522q3 18-13 20l-60 7 9 74h310l-9-74-68-8q-11-2-14-5t-4-14l-36-254 269 272-59 8 10 75h257l-10-75-42-7q-20-3-32-17l-210-213 153-309q8-16 27-19l59-10z" glyph-name="K" horiz-adv-x="735" unicode="&#x4b;"/><glyph d="M562 0h-543l10 74 62 7q11 2 14.5 5.5t4.5 14.5l73 522q2 11-.5 15t-12.5 5l-60 7 8 74h327l-10-74-83-8q-10-1-13-4.5t-5-14.5l-72-516h176q14 0 18 11l29 100h107z" glyph-name="L" horiz-adv-x="607" unicode="&#x4c;"/><glyph d="M890 0h-323l10 73 82 7q9 1 12.5 5t5.5 15l53 376h-4l-187-332h-153l-99 331h-5l-52-374q-2-13 0-16t12-4l84-8-9-73h-298l9 73 63 7q11 2 14.5 5.5t4.5 15.5l73 522q3 18-13 20l-60 7 8 74h246l128-439h5l240 439h253l-9-73-66-8q-12-1-14.5-4.5t-4.5-16.5l-74-522q-3-17 13-19l65-8z" glyph-name="M" horiz-adv-x="942" unicode="&#x4d;"/><glyph d="M682 0h-160l-240 525-59-424q-2-12 .5-15.5t12.5-4.5l65-8-9-73h-273l9 73 63 7q11 2 14.5 5.5t4.5 14.5l73 523q2 12-.5 15.5t-12.5 4.5l-60 7 8 74h243l236-526 60 424q2 11-.5 15t-12.5 5l-61 7 9 75h272l-10-75-67-8q-7-1-10-2.5t-4.5-5-2.5-11.5z" glyph-name="N" horiz-adv-x="812" unicode="&#x4e;"/><glyph d="M352-12q-151 0-222 78.5t-71 219.5q0 198 106.5 324.5t302.5 126.5q148 0 219.5-80t71.5-212q0-214-107.5-335.5t-299.5-121.5zM375 111q95 0 155 72t69 227q0 39-2 56-17 148-147 148-74 0-128-46t-78-113-24-145q0-34 3-54 19-145 152-145z" glyph-name="O" horiz-adv-x="757" unicode="&#x4f;"/><glyph d="M402 0h-384l11 74 63 7q11 2 14.5 5.5t4.5 14.5l72 521q2 11-1 15t-13 5l-60 7 9 75h326q113 0 164.5-50.5t51.5-137.5q0-135-80.5-202t-224.5-67h-72l-22-165q-2-12 0-15.5t12-4.5l140-8zM298 374h48q32 0 56.5 5.5t48.5 20 37.5 45 13.5 76.5q0 53-30 73.5t-83 20.5h-58z" glyph-name="P" horiz-adv-x="635" unicode="&#x50;"/><glyph d="M681-52l-4-110q-45-6-81-6-57 0-107 14.5t-78.5 31.5-62.5 31.5-63 14.5q-50 0-115-43l-51 90q55 38 103 50v2q-163 79-163 263 0 198 106.5 324.5t302.5 126.5q148 0 219.5-80t71.5-212q0-201-93.5-312.5t-273.5-128.5v-2q125-60 215-60 33 0 74 6zM375 111q76 0 128.5 45.5t74 113.5 21.5 152q0 20-2 44-17 148-147 148-74 0-128-46t-78-113-24-145q0-34 3-54 19-145 152-145z" glyph-name="Q" horiz-adv-x="757" unicode="&#x51;"/><glyph d="M653 0h-206l-6 5-55 246q-5 24-15.5 34.5t-35.5 10.5h-47l-27-193q-2-12 0-15.5t12-4.5l59-8-9-75h-303l9 75 63 7q10 1 13 4.5t5 15.5l74 521q3 18-13 20l-60 7 8 74h328q108 0 158.5-49.5t50.5-127.5q0-151-158-215 19-10 29-28t17-52l33-148q4-18 25-21l61-8zM303 400h45q150 0 150 128 0 47-28 67t-89 20h-49z" glyph-name="R" horiz-adv-x="673" unicode="&#x52;"/><glyph d="M577 501l-109 9-2 86q0 18-13 21-17 5-58 5-55 0-93-24t-38-68q0-16 7.5-29.5t16-22 29-18.5 31.5-14 39-14q31-11 50.5-19.5t46-25 42-36 26.5-50 11-68.5q0-122-85-183.5t-219-61.5q-64 0-129.5 13t-94.5 28l27 195h109l7-94q1-17 18-22 32-8 77-8 137 0 137 104 0 39-27.5 59.5t-83.5 40.5q-88 31-120 53-68 49-68 142 0 116 83 177t212 61q102 0 198-41z" glyph-name="S" horiz-adv-x="588" unicode="&#x53;"/><glyph d="M523 0h-392l11 74 101 7q10 1 13 5t5 15l71 514h-102q-13 0-16-11l-28-87h-107l28 207h631l-28-207h-106l-4 87q-1 7-3.5 9t-10.5 2h-102l-71-514q-2-11 0-14.5t12-4.5l108-9z" glyph-name="T" horiz-adv-x="680" unicode="&#x54;"/><glyph d="M555 287l47 336q2 11-.5 15t-12.5 5l-61 7 10 74h290l-10-74-68-8q-11-1-13.5-4.5t-3.5-14.5l-51-364q-20-141-95.5-206t-209.5-65q-129 0-192.5 52.5t-63.5 160.5q0 25 5 62l49 360q3 19-12 20l-61 7 10 74h310l-10-74-67-8q-11-1-13.5-4t-4.5-15l-47-335q-6-39-6-70 0-56 27-81.5t88-25.5q78 0 115.5 40.5t50.5 135.5z" glyph-name="U" horiz-adv-x="774" unicode="&#x55;"/><glyph d="M448 0h-200l-112 623q-2 12-21 17l-43 11 11 73h306l-11-73-81-9 79-496h5l211 496-75 9 11 73h268l-11-73-43-11q-21-6-29-25z" glyph-name="V" horiz-adv-x="714" unicode="&#x56;"/><glyph d="M784 0h-199l-43 366h-3l-143-366h-195l-62 615q-1 14-4.5 18t-16.5 7l-47 11 11 73h299l-11-73-83-10 47-487h5l173 436h150l48-446h6l168 497-79 10 11 73h275l-11-73-48-11q-18-3-27-26z" glyph-name="W" horiz-adv-x="1011" unicode="&#x57;"/><glyph d="M719 0h-321l11 73 78 9-110 188-157-188 74-9-11-73h-278l10 73 59 11q16 4 28 19l219 253-159 267q-7 13-21 17l-49 11 12 73h314l-11-73-77-9 105-185 158 185-73 9 12 73h264l-10-73-50-11q-14-4-28-19l-217-249 166-271q10-15 25-18l47-10z" glyph-name="X" horiz-adv-x="757" unicode="&#x58;"/><glyph d="M516 0h-384l9 74 100 7q9 1 12 4.5t5 15.5l24 169-146 353q-4 11-22 17l-42 11 11 73h302l-11-73-78-9 87-240h6l152 240-74 9 11 73h261l-11-73-42-11q-21-7-28-20l-224-348-24-171q-2-11 0-14.5t13-4.5l103-8z" glyph-name="Y" horiz-adv-x="663" unicode="&#x59;"/><glyph d="M594 0h-568l14 97 434 519h-215q-14 0-17-11l-29-92-109-5 31 216h537l-13-101-431-516h241q14 0 18 11l33 107h104z" glyph-name="Z" horiz-adv-x="658" unicode="&#x5a;"/><glyph d="M252-143h-224l122 867h224l-8-71-66-11q-10-1-13.5-5.5t-5.5-14.5l-93-662q-3-19 13-21l63-11z" glyph-name="bracketleft" horiz-adv-x="311" unicode="&#x5b;"/><glyph d="M404-92h-138l-157 823h137z" glyph-name="backslash" horiz-adv-x="437" unicode="&#x5c;"/><glyph d="M206-143h-225l9 71 65 11q16 2 19 20l93 662q3 19-13 21l-63 10 12 72h225z" glyph-name="bracketright" horiz-adv-x="308" unicode="&#x5d;"/><glyph d="M602 299h-143l-100 240-163-240h-143l248 365h153z" glyph-name="asciicircum" horiz-adv-x="609" unicode="&#x5e;"/><glyph d="M475-181h-500l15 107h499z" glyph-name="underscore" horiz-adv-x="500" unicode="&#x5f;"/><glyph d="M458 611l-64-50-158 146 93 78z" glyph-name="grave" horiz-adv-x="500" unicode="&#x60;"/><glyph d="M563 0h-193l12 81-5 1q-49-48-90.5-71t-91.5-23q-152 0-152 200 0 61 13.5 118t41.5 109.5 79 84 118 31.5q80 0 137-57l19 47h128q-20-98-25-131l-40-290q-2-11 .5-14.5t12.5-4.5l47-7zM384 192l26 188q-41 37-88 37-35 0-60.5-23t-39-58.5-19.5-70-6-65.5q0-87 57-87 51 0 130 79z" glyph-name="a" horiz-adv-x="605" unicode="&#x61;"/><glyph d="M190 0h-145q26 90 34 146l70 495q1 16-10 21l-51 17 11 76h209l-45-313 2-1q96 90 181 90 143 0 143-193 0-56-11.5-112.5t-37-112.5-74-90.5-114.5-34.5q-84 0-147 63l-3-1zM252 329l-27-185q50-40 96-40 38 0 64 33t36 77 10 92q0 98-52 98-43 0-127-75z" glyph-name="b" horiz-adv-x="601" unicode="&#x62;"/><glyph d="M427 130l25-93q-86-49-193-49-110 0-164 58.5t-54 159.5q0 159 85.5 242t219.5 83q108 0 167-42l-22-157-102 5-3 68q0 11-7 14-17 7-49 7-56 0-95-50t-39-154q0-122 99-122 56 0 132 30z" glyph-name="c" horiz-adv-x="502" unicode="&#x63;"/><glyph d="M564 0h-194l12 80-5 2q-49-48-90-71t-91-23q-153 0-153 198 0 58 13 115t41 110.5 79 86.5 118 33q76 0 133-43l20 154q2 17-10 20l-50 17 12 76h206l-91-655q-2-11 .5-14.5t12.5-4.5l47-7zM384 193l27 190q-40 34-86 34-36 0-62.5-22.5t-40-59-19.5-71.5-6-70q0-81 57-81 52 0 130 80z" glyph-name="d" horiz-adv-x="608" unicode="&#x64;"/><glyph d="M439 136l22-98q-108-50-207-50-111 0-162 57.5t-51 155.5q0 153 85 241.5t212 88.5q81 0 122.5-34.5t41.5-97.5q0-51-25-89t-71-60-96-33.5-115-18.5q6-98 99-98 59 0 145 36zM201 295q165 23 165 90 0 38-48 38-42 0-74-34.5t-43-93.5z" glyph-name="e" horiz-adv-x="506" unicode="&#x65;"/><glyph d="M189-212h-149l89 623q2 10-7 10h-65l13 100h74l9 64q14 97 65 139.5t137 42.5q46 0 95-15.5t77-37.5l-55-93q-58 36-101 36-61 0-70-67l-8-59q-1-10 7-10h154l-14-100h-162z" glyph-name="f" horiz-adv-x="424" unicode="&#x66;"/><glyph d="M366-5l12 86-3 2q-51-44-90.5-66.5t-88.5-22.5q-153 0-153 194 0 60 13.5 117t41 109.5 78.5 84.5 118 32q83 0 138-57l19 47h129q-21-95-26-134l-56-403q-28-207-244-207-68 0-129.5 18t-88.5 37l47 93q18-13 64-28t92-15q59 0 89.5 26.5t37.5 86.5zM384 193l27 186q-40 38-89 38-46 0-76-41t-39.5-86.5-9.5-90.5q0-43 14-61.5t43-18.5q54 0 130 74z" glyph-name="g" horiz-adv-x="589" unicode="&#x67;"/><glyph d="M583 0h-214l-2 4 19 108 30 221q6 31 1 49.5t-26 18.5q-46 0-131-71l-32-229q-2-12 .5-15.5t13.5-4.5l50-7-10-74h-273l10 75 44 6q10 2 13.5 5.5t4.5 14.5l76 540q3 17-9 21l-50 17 11 76h204l-44-316 3-2q43 36 60 49.5t52 29 71 15.5q53 0 84.5-32t31.5-90q0-16-4-52l-36-256q-2-12 0-15.5t13-4.5l49-7z" glyph-name="h" horiz-adv-x="619" unicode="&#x68;"/><glyph d="M210 601q-37 0-57 20t-20 55q0 48 27 75.5t76 27.5q37 0 57.5-19t20.5-55q0-48-28-76t-76-28zM280 0h-216l-2 5 24 135 37 267q3 17-10 21l-49 17 10 76h213l-59-420q-2-12 .5-15.5t13.5-4.5l48-7z" glyph-name="i" horiz-adv-x="318" unicode="&#x69;"/><glyph d="M62-28l62 435q1 16-10 21l-51 17 10 76h213l-79-574q-12-89-60.5-129.5t-133.5-40.5q-53 0-96.5 17.5t-59.5 33.5l51 83q40-26 83-26 31 0 47.5 18.5t23.5 68.5zM210 601q-37 0-57.5 20t-20.5 55q0 48 27.5 75.5t75.5 27.5q38 0 58.5-19t20.5-55q0-47-28-75.5t-76-28.5z" glyph-name="j" horiz-adv-x="315" unicode="&#x6a;"/><glyph d="M583 0h-188l-3 2-33 110-53 144-63-60-14-95q-2-12 0-15.5t13-4.5l50-7-10-74h-273l9 75 46 6q10 2 13.5 5.5t4.5 14.5l75 540q3 16-10 21l-50 17 11 76h213l-59-425 154 143q38 35 67.5 46.5t65.5 11.5q22 0 58-6l-11-87q-55 3-101-40l-60-56 87-244q6-15 28-18l44-7z" glyph-name="k" horiz-adv-x="608" unicode="&#x6b;"/><glyph d="M279 0h-216l-3 5 24 135 71 501q3 17-10 21l-50 17 11 76h213l-92-654q-2-12 0-15.5t13-4.5l48-7z" glyph-name="l" horiz-adv-x="318" unicode="&#x6c;"/><glyph d="M843 0h-217l-2 3 21 118 31 212q6 33 1 49.5t-24 16.5q-32 0-110-69l-32-229q-2-12 0-15.5t12-4.5l50-7-10-74h-216l-2 4 22 127 29 202q6 29 2.5 46.5t-23.5 17.5q-39 0-114-67l-31-229q-2-12 0-15.5t13-4.5l50-7-10-74h-274l10 75 44 6q10 2 13.5 5.5t4.5 14.5l42 305q3 17-9 21l-49 18 11 76h198l-11-82 3-1q38 32 56 46t55 30.5 72 16.5q42 0 67.5-23.5t28.5-67.5l3-1q32 28 54 44.5t57 32 68 15.5q54 0 78.5-27t26.5-81q0-25-5-65l-36-257q-2-12 0-15.5t13-4.5l49-7z" glyph-name="m" horiz-adv-x="879" unicode="&#x6d;"/><glyph d="M584 0h-216l-2 3 22 122 29 208q6 31 .5 50t-26.5 19q-48 0-130-72l-31-229q-2-12 0-15.5t13-4.5l50-7-10-74h-274l10 75 44 6q10 2 13.5 5.5t4.5 14.5l42 305q3 17-9 21l-49 18 11 76h198l-11-82 3-1q36 31 58 47t57.5 31 72.5 15q114 0 118-119 0-30-4-55l-36-256q-2-12 0-15.5t12-4.5l50-7z" glyph-name="n" horiz-adv-x="620" unicode="&#x6e;"/><glyph d="M269-12q-114 0-171 57.5t-57 157.5q0 148 80 238t223 90q118 0 170.5-58t52.5-154q0-151-76.5-241t-221.5-90zM281 93q57 0 93 54t36 170q0 106-83 106-57 0-94.5-52.5t-37.5-167.5q0-110 86-110z" glyph-name="o" horiz-adv-x="578" unicode="&#x6f;"/><glyph d="M296-212h-267l-2 4 29 167 62 447q3 17-9 21l-49 18 11 76h200l-12-80 3-1q98 91 184 91 146 0 146-200 0-57-12-112.5t-37.5-109.5-75-87.5-115.5-33.5q-30 0-57.5 8.5t-42 17-38.5 25.5l-22-150q-1-9 2-12t12-4l101-10zM256 329l-27-186q46-39 95-39 38 0 64.5 33t36.5 77 10 92q0 98-52 98-43 0-127-75z" glyph-name="p" horiz-adv-x="604" unicode="&#x70;"/><glyph d="M536-212h-299l11 76 85 8q19 1 22 18l27 191-4 2q-35-30-56-46t-59-32.5-75-16.5q-144 0-144 200 0 59 13.5 117t41 110 77 84 113.5 32q81 0 144-57l19 47h128q-18-83-25-134l-69-497q-2-12 .5-15.5t12.5-4.5l47-6zM385 193l26 186q-40 38-88 38-46 0-76-41t-39.5-86.5-9.5-90.5q0-86 57-86 52 0 130 80z" glyph-name="q" horiz-adv-x="590" unicode="&#x71;"/><glyph d="M329 0h-320l10 75 46 6q10 1 13 5t5 15l42 305q2 17-10 21l-50 18 11 76h198l-13-90 3-2q71 102 159 102 46 0 77-9l-25-182-117 4-3 52q-1 12-11 12-28 0-78-52l-35-254q-2-12 .5-15.5t13.5-4.5l95-8z" glyph-name="r" horiz-adv-x="470" unicode="&#x72;"/><glyph d="M457 357l-104 6-2 52q0 13-12 16-20 5-56 5-75 0-75-48 0-22 18.5-33.5t60.5-25.5q32-11 45.5-16t41.5-19.5 40.5-28.5 24-39 11.5-55q0-92-67-137.5t-170-45.5q-64 0-120 12t-71 23l19 145 102-6 3-58q0-12 11-16 27-9 71-9 41 0 63.5 14.5t22.5 40.5q0 19-14 32t-28 18-52 16q-34 10-55 19t-46 26.5-37 45-12 64.5q0 87 65 131.5t165 44.5q108 0 177-29z" glyph-name="s" horiz-adv-x="478" unicode="&#x73;"/><glyph d="M374 116l18-89q-82-39-167-39-75 0-108.5 27.5t-33.5 89.5q0 20 3 44l36 262q2 10-6 10h-69l13 92q64 7 99.5 43t54.5 117h93l-20-142q-1-10 7-10h138l-14-100h-146l-33-239q-3-20-3-32 0-27 13-38.5t45-11.5q37 0 80 16z" glyph-name="t" horiz-adv-x="422" unicode="&#x74;"/><glyph d="M578 0h-198l10 80-3 1q-3-2-16.5-14t-19-16-19.5-15-22.5-15.5-23-12-26.5-11-28-6.5-31-3q-63 0-91 31t-28 94q0 30 4 57l33 242q2 13 0 16.5t-13 4.5l-39 7 12 81h195l7-7-44-318q-4-34-4-43 0-19 7-27.5t25-8.5q46 0 126 71l31 226q2 12 0 15t-13 5l-32 5 13 82h189l7-8-59-411q-3-19 11-21l50-7z" glyph-name="u" horiz-adv-x="623" unicode="&#x75;"/><glyph d="M363 0h-173l-90 421q-2 9-5.5 12t-12.5 5l-40 9 10 74h191l9-9 17-114 44-252h3l144 293-65 9 11 73h196l12-31z" glyph-name="v" horiz-adv-x="592" unicode="&#x76;"/><glyph d="M669 0h-166l-41 335h-3l-118-335h-179l-63 421q-2 14-17 17l-41 9 13 74h185l8-9 7-91 31-270h3l132 361h157l44-365h3l123 294-55 6 12 74h166l11-29z" glyph-name="w" horiz-adv-x="856" unicode="&#x77;"/><glyph d="M562 0h-172l-11 9-45 83-54 92-91-102 53-9-8-73h-234l8 72 44 8q15 2 28 17l147 161-101 162q-8 14-20 17l-39 9 12 75h159l10-8 47-90 44-74 87 91-49 7 13 74h227l-10-74-44-10q-12-2-28-19l-143-144 109-175q10-16 22-18l51-8z" glyph-name="x" horiz-adv-x="590" unicode="&#x78;"/><glyph d="M181-47l28 50-112 418q-4 13-18 17l-39 9 12 74h176l10-11 27-129 45-209h5l127 266-61 9 11 74h185l14-31-290-571q-40-75-85.5-108.5t-122.5-33.5q-49 0-89.5 16.5t-58.5 33.5l51 85q48-29 91-29 53 0 94 70z" glyph-name="y" horiz-adv-x="568" unicode="&#x79;"/><glyph d="M470 0h-449l12 84 304 343h-137q-10 0-15-12l-19-57-101-4 23 167h434l-12-86-299-342h144q11 0 15 13l22 69 103 4z" glyph-name="z" horiz-adv-x="514" unicode="&#x7a;"/><glyph d="M281-69l-21-80q-110 2-154 28t-44 92q0 37 21.5 111t21.5 104q0 35-14 48t-47 15l12 79q34 2 52 14.5t26 44.5q16 65 9 186-4 87 50 121t178 33l6-80q-52-7-66-21.5t-15-66.5q-1-31-.5-75.5t.5-52.5q-3-63-23-92.5t-61-50.5q50-28 50-88 0-38-21.5-111t-21.5-103q0-25 13-35.5t49-19.5z" glyph-name="braceleft" horiz-adv-x="330" unicode="&#x7b;"/><glyph d="M172-143h-137l122 867h137z" glyph-name="bar" horiz-adv-x="285" unicode="&#x7c;"/><glyph d="M101 647l21 80q110-2 154-28t44-92q0-37-21.5-111t-21.5-104q0-35 14-48t47-15l-12-79q-34-2-52-14.5t-26-44.5q-16-65-9-186 4-87-50-121t-178-33l-6 80q52 7 66 21.5t15 66.5q1 31 .5 75.5t-.5 52.5q3 63 23 92.5t61 50.5q-50 28-50 88 0 38 21.5 111t21.5 103q0 25-13 35.5t-49 19.5z" glyph-name="braceright" horiz-adv-x="340" unicode="&#x7d;"/><glyph d="M473 460l74-29q-23-73-54.5-107t-79.5-34q-38 0-112 23t-102 23q-25 0-41.5-10t-36.5-38l-68 36q23 59 61.5 96t85.5 37q39 0 109.5-23t100.5-23q24 0 36.5 10.5t26.5 38.5z" glyph-name="asciitilde" horiz-adv-x="524" unicode="&#x7e;"/><glyph d="M116 327h127l-33-355-25-177h-161l25 177zM110 440q0 91 97 91 77 0 77-64 0-92-99-92-75 0-75 65z" glyph-name="exclamdown" horiz-adv-x="283" unicode="&#xa1;"/><glyph d="M485 224l-20-150q-56-31-137-39l-13-102h-124l14 106q-149 31-149 199 0 122 57 198.5t160 95.5l16 105h125l-16-103q75-9 125-37l-22-150-100 5-2 63q0 10-9 13-23 7-51 7-58 0-91-48t-33-143q0-56 20.5-82t63.5-26q24 0 50 6 10 2 13 13l21 65z" glyph-name="cent" horiz-adv-x="519" unicode="&#xa2;"/><glyph d="M507 0h-473l-4 90q49 27 68.5 59.5t29.5 106.5l3 23h-72l14 110h69l8 53q15 101 68.5 157t172.5 56q118 0 186-65l-73-86q-49 41-110 41-48 0-69-26t-28-77l-8-53h143l-15-110h-140q-13-119-87-182h199q11 0 14 12l25 79h104z" glyph-name="sterling" horiz-adv-x="552" unicode="&#xa3;"/><glyph d="M577 78l-83-81-87 86q-52-30-117-30-73 0-122 29l-38-38-47-47-80 80 88 89q-24 47-24 113 0 59 26 105-6 6-40.5 41t-46.5 47l82 83 82-83q52 34 126 34 71 0 123-32l80 80 79-81-84-84q24-55 24-106 0-61-29-117zM294 161q47 0 73.5 33.5t26.5 84.5q0 55-26 85.5t-76 30.5q-49 0-74.5-32t-25.5-84 25.5-85 76.5-33z" glyph-name="currency" unicode="&#xa4;"/><glyph d="M509 215h-128l-15-111q-2-11 0-14.5t13-4.5l103-8-11-77h-385l10 77 98 8q12 1 15.5 5t5.5 15l14 110h-118l14 117h93l-107 201q-8 13-21 17l-40 11 11 75h284l-10-75-69-9 75-152h5l119 152-53 9 10 75h239l-11-75-43-9q-12-3-32-29l-152-191h101z" glyph-name="yen" horiz-adv-x="601" unicode="&#xa5;"/><glyph d="M172-143h-137l55 388h137zM247 389h-137l47 335h137z" glyph-name="brokenbar" horiz-adv-x="285" unicode="&#xa6;"/><glyph d="M149 25l2-57q0-16 16-20 23-7 68-7 89 0 89 60 0 28-25 41t-76 26q-9 2-13 3-31 8-51.5 16t-43.5 23-34.5 39.5-11.5 57.5q0 88 93 154-43 34-43 99 0 86 66.5 129.5t168.5 43.5q114 0 188-30l-21-145-103 6-2 54q0 14-14 18-22 6-59 6-40 0-62.5-16.5t-22.5-41.5q0-36 95-61 7-2 10-3 33-9 54-17t46-24.5 37.5-42 12.5-61.5q0-89-88-148 40-42 40-91 0-63-37-104.5t-90-57.5-120-16q-61 0-119.5 13t-72.5 24l19 136zM259 195l78-24q45 31 45 70 0 38-67 57l-73 20q-47-30-47-68 0-21 15.5-33t48.5-22z" glyph-name="section" horiz-adv-x="569" unicode="&#xa7;"/><glyph d="M311 674q0-35-23-56.5t-58-21.5q-29 0-46 17t-17 45q0 35 23.5 56t58.5 21q30 0 46-16.5t16-44.5zM519 674q0-35-22.5-56.5t-58.5-21.5q-29 0-46 17t-17 45q0 35 23.5 56t58.5 21q30 0 46-16.5t16-44.5z" glyph-name="dieresis" horiz-adv-x="500" unicode="&#xa8;"/><glyph d="M740 319q0-150-93-242.5t-243-92.5q-160 0-247.5 89.5t-87.5 231.5q0 153 96 243.5t241 90.5q155 0 244.5-86.5t89.5-233.5zM406 56q118 0 186.5 69t68.5 188q0 121-70.5 187.5t-184.5 66.5q-113 0-184.5-69.5t-71.5-191.5q0-117 68-183.5t188-66.5zM530 250v-106q-40-24-114-24-97 0-142.5 52.5t-45.5 142.5q0 88 49 141t142 53q59 0 112-20v-111h-54l-9 49q-1 9-8 11-19 7-46 7-96 0-96-132 0-130 102-130 24 0 37 4 8 2 11 13l13 50h49z" glyph-name="copyright" horiz-adv-x="770" unicode="&#xa9;"/><glyph d="M442 281h-143l7 50-4 2q-34-31-61.5-45.5t-61.5-14.5q-105 0-105 130 0 54 15.5 103t56.5 86.5 101 37.5q55 0 94-37l13 30h99q-15-72-17-88l-27-183q-2-7 0-9t9-3l32-5zM306 410l18 116q-26 20-52 20-28 0-47-25.5t-24.5-52.5-5.5-53q0-49 32-49 33 0 79 44z" glyph-name="ordfeminine" horiz-adv-x="451" unicode="&#xaa;"/><glyph d="M422 103h-121l-64 154 110 151h123l-100-140q-8-9-4-19zM234 103h-121l-64 154 110 151h123l-100-140q-8-9-4-19z" glyph-name="guillemotleft" horiz-adv-x="466" unicode="&#xab;"/><glyph d="M482 172h-111l14 94h-276l16 117h387z" glyph-name="logicalnot" unicode="&#xac;"/><glyph d="M459 480q0-83-52-134.5t-135-51.5q-88 0-136.5 50t-48.5 129q0 84 53.5 135.5t132.5 51.5q86 0 136-49t50-131zM411 477q0 66-38.5 102t-99.5 36q-59 0-98-38t-39-103q0-63 37-99t100-36q64 0 101 37t37 101zM369 384h-60l-23 57q-4 10-7.5 13.5t-11.5 3.5h-11v-40q0-6 5-7l20-2v-25h-90v25l14 3q5 1 5 7v122q0 5-5 6l-14 2v26h88q70 0 70-54 0-39-35-51 10-3 17-19l15-33q2-5 8-6l15-3v-25zM256 491h13q33 0 33 27 0 23-29 23h-17v-50z" glyph-name="registered" horiz-adv-x="453" unicode="&#xae;"/><glyph d="M495 599h-317l14 100h317z" glyph-name="macron" horiz-adv-x="500" unicode="&#xaf;"/><glyph d="M194 617q23 0 39 17t16 41q0 19-11 30.5t-30 11.5q-22 0-38-16.5t-16-41.5q0-19 10.5-30.5t29.5-11.5zM317 684q0-57-37.5-94t-94.5-37q-45 0-73 27.5t-28 71.5q0 59 38.5 94t94.5 35q45 0 72.5-26t27.5-71z" glyph-name="degree" horiz-adv-x="286" unicode="&#xb0;"/><glyph d="M463 0h-387l16 116h387zM500 265h-134l-18-129h-120l18 129h-133l16 116h133l20 140h120l-20-140h134z" glyph-name="plusminus" unicode="&#xb1;"/><glyph d="M393 350h-349l11 76 153 147q48 47 67.5 72.5t19.5 47.5q0 27-33 27-22 0-33-12.5t-16-42.5l-124 11q12 76 62.5 103.5t129.5 27.5q72 0 109.5-28.5t37.5-79.5q0-26-12.5-51.5t-25-40-41.5-44.5l-137-134h85q5 0 10 9l13 44h93z" glyph-name="twosuperior" horiz-adv-x="386" unicode="&#xb2;"/><glyph d="M341 587l-1-3q33-7 52.5-30t19.5-59q0-75-55.5-114t-141.5-39q-55 0-101.5 18t-71.5 48l74 71q41-43 99-43 30 0 48 15t18 41q0 47-50 47-21 0-50-5l12 82 32 3q77 8 77 67 0 32-33 32-24 0-33.5-11t-13.5-42l-127 10q15 132 186 132 151 0 151-102 0-48-27.5-78t-63.5-40z" glyph-name="threesuperior" horiz-adv-x="397" unicode="&#xb3;"/><glyph d="M458 697l-186-136-55 58 164 163z" glyph-name="acute" horiz-adv-x="500" unicode="&#xb4;"/><glyph d="M595 0h-193l9 60-4 2q-85-66-149-66-22 0-40 6l-14-178h-156l98 697h151l-47-331q-3-25-3-43t12-28.5 38-10.5q52 0 104 44l52 369h151l-59-420q-3-17 11-18l49-7z" glyph-name="mu" horiz-adv-x="645" unicode="&#xb5;"/><glyph d="M412 38l74 515h-64l-71-497h-40q-110 0-173 67t-63 184q0 157 93.5 247.5t258.5 90.5h273l-11-76-68-8q-11-1-14-4.5t-5-14.5l-73-518q-28-202-229-202-127 0-210 56l46 88q20-13 63.5-28t89.5-15q106 0 123 115z" glyph-name="paragraph" horiz-adv-x="657" unicode="&#xb6;"/><glyph d="M243 334q0-88-97-88-76 0-76 67 0 89 98 89 75 0 75-68z" glyph-name="periodcentered" horiz-adv-x="238" unicode="&#xb7;"/><glyph d="M118-248l16 69q12-4 35-4 27 0 46 11.5t19 36.5q0 38-61 40l34 125 70-8-18-67q70-20 70-87 0-58-44-91t-105-33q-46 0-62 8z" glyph-name="cedilla" horiz-adv-x="500" unicode="&#xb8;"/><glyph d="M320 350h-261l9 63 52 4q12 1 14 13l40 277q2 12-6 13l-55 13 11 64h199l-55-367q-2-8-.5-10t9.5-3l52-5z" glyph-name="onesuperior" horiz-adv-x="310" unicode="&#xb9;"/><glyph d="M228 273q-159 0-159 143 0 9 2 31 9 84 65 133.5t148 49.5q81 0 118.5-40t37.5-103q0-21-1-31-11-86-63.5-134.5t-147.5-48.5zM240 352q31 0 49.5 23t26.5 79q3 20 3 35 0 63-49 63-65 0-79-99-2-14-2-37 0-64 51-64z" glyph-name="ordmasculine" horiz-adv-x="415" unicode="&#xba;"/><glyph d="M343 103h-122l98 146q6 10 2 19l-60 140h122l67-152zM155 103h-122l98 146q6 10 2 19l-60 140h122l67-152z" glyph-name="guillemotright" horiz-adv-x="466" unicode="&#xbb;"/><glyph d="M341 281h-261l9 63 52 4q12 1 14 13l40 277q2 12-6 13l-55 13 11 64h199l-55-367q-2-8-.5-10t9.5-3l52-5zM344-17h-139l462 741h138zM849 0h-121l12 86h-201l12 82 223 278h140l-40-274h54l-13-85h-54zM752 172l22 150h-3l-118-150h99z" glyph-name="onequarter" horiz-adv-x="980" unicode="&#xbc;"/><glyph d="M339 281h-261l9 63 52 4q12 1 14 13l40 277q2 12-6 13l-55 13 11 64h199l-55-367q-2-8-.5-10t9.5-3l52-5zM326-17h-139l462 741h138zM910 0h-349l11 76 153 147q48 47 67.5 72.5t19.5 47.5q0 27-33 27-22 0-33-12.5t-16-42.5l-124 11q12 76 62.5 103.5t129.5 27.5q72 0 109.5-28.5t37.5-79.5q0-26-12.5-51.5t-25-40-41.5-44.5l-137-134h85q6 0 10 9l13 44h93z" glyph-name="onehalf" horiz-adv-x="980" unicode="&#xbd;"/><glyph d="M359 518l-1-3q33-7 52.5-30t19.5-59q0-75-55.5-114t-141.5-39q-55 0-101.5 18t-71.5 48l74 71q41-43 99-43 30 0 48 15t18 41q0 47-50 47-21 0-50-5l12 82 32 3q77 8 77 67 0 32-33 32-24 0-33.5-11t-13.5-42l-127 10q15 132 186 132 151 0 151-102 0-48-27.5-78t-63.5-40zM371-17h-139l462 741h138zM859 0h-121l12 86h-201l12 82 223 278h140l-40-274h54l-13-85h-54zM762 172l22 150h-3l-118-150h99z" glyph-name="threequarters" horiz-adv-x="980" unicode="&#xbe;"/><glyph d="M292 327h151l-25-186q-40-3-76-12t-72.5-26.5-58-48-21.5-71.5q0-32 20.5-48.5t55.5-16.5q42 0 68 7 15 4 19 20l15 60 124 9-24-173q-127-46-224-46-217 0-217 184 0 100 64 166.5t189 85.5zM299 440q0 91 98 91 76 0 76-64 0-92-98-92-76 0-76 65z" glyph-name="questiondown" horiz-adv-x="536" unicode="&#xbf;"/><glyph d="M726 0h-307l10 73 82 9-19 109h-246l-49-109 76-9-11-73h-274l11 73 45 11q20 5 27 20l299 620h174l128-623q2-12 22-17l43-11zM476 299l-51 273h-7l-127-273h185zM546 766l-210 90 65 99 190-122z" glyph-name="Agrave" horiz-adv-x="744" unicode="&#xc0;"/><glyph d="M726 0h-307l10 73 82 9-19 109h-246l-49-109 76-9-11-73h-274l11 73 45 11q20 5 27 20l299 620h174l128-623q2-12 22-17l43-11zM476 299l-51 273h-7l-127-273h185zM597 852l-225-85-32 71 212 117z" glyph-name="Aacute" horiz-adv-x="744" unicode="&#xc1;"/><glyph d="M726 0h-307l10 73 82 9-19 109h-246l-49-109 76-9-11-73h-274l11 73 45 11q20 5 27 20l299 620h174l128-623q2-12 22-17l43-11zM476 299l-51 273h-7l-127-273h185zM636 823l-61-56-107 81-129-81-49 56 137 112h104z" glyph-name="Acircumflex" horiz-adv-x="744" unicode="&#xc2;"/><glyph d="M726 0h-307l10 73 82 9-19 109h-246l-49-109 76-9-11-73h-274l11 73 45 11q20 5 27 20l299 620h174l128-623q2-12 22-17l43-11zM476 299l-51 273h-7l-127-273h185zM648 882l-28-41q-23-33-40-46.5t-39-13.5q-27 0-80 14l-75 20q-10 3-17-4l-35-32-58 39 36 52q31 47 75 47 32 0 97-17 52-14 61-14 10 0 15 6l27 29z" glyph-name="Atilde" horiz-adv-x="744" unicode="&#xc3;"/><glyph d="M726 0h-307l10 73 82 9-19 109h-246l-49-109 76-9-11-73h-274l11 73 45 11q20 5 27 20l299 620h174l128-623q2-12 22-17l43-11zM476 299l-51 273h-7l-127-273h185zM436 859q0-35-23-56.5t-58-21.5q-29 0-46 17t-17 45q0 35 23.5 56t58.5 21q30 0 46-16.5t16-44.5zM644 859q0-35-22.5-56.5t-58.5-21.5q-29 0-46 17t-17 45q0 35 23.5 56t58.5 21q30 0 46-16.5t16-44.5z" glyph-name="Adieresis" horiz-adv-x="744" unicode="&#xc4;"/><glyph d="M476 891q39 0 66.5-24t27.5-66q0-44-26-78l128-622q2-12 22-17l43-11-11-73h-307l10 73 82 9-19 109h-246l-49-109 76-9-11-73h-274l11 73 45 11q20 5 27 20l298 619q-14 22-14 53 0 51 33.5 83t87.5 32zM476 299l-51 273h-7l-127-273h185zM459 747q43 0 43 48 0 32-34 32-19 0-31.5-13.5t-12.5-34.5q0-32 35-32z" glyph-name="Aring" horiz-adv-x="744" unicode="&#xc5;"/><glyph d="M940 0h-544l10 73 66 8q9 1 12 4t4 13l29 204h-192l-134-220 76-9-10-73h-269l11 73 43 11q21 5 29 19l332 536-73 10 10 75h680l-29-202-107 5-3 76q0 13-16 13h-157l-28-203h233l-16-111h-232l-28-195h179q14 0 18 11l28 88h107zM533 413l28 203h-49l-126-203h147z" glyph-name="AE" horiz-adv-x="1000" unicode="&#xc6;"/><glyph d="M239-248l16 69q12-4 35-4 27 0 46 11.5t19 36.5q0 38-61 40l23 85q-131 11-194.5 92.5t-63.5 217.5q0 197 108.5 317t309.5 120q62 0 123-15.5t96-41.5l-26-196-107 9-3 93q0 18-13 22-33 13-84 13-112 0-178.5-80.5t-66.5-229.5q0-103 42.5-156t123.5-53q70 0 103 13 11 6 15 19l29 95h105l-26-186q-81-47-221-54l-9-34q70-20 70-87 0-58-44-91t-105-33q-46 0-62 8z" glyph-name="Ccedilla" horiz-adv-x="670" unicode="&#xc7;"/><glyph d="M561 0h-543l10 73 63 7q11 2 14.5 5.5t4.5 14.5l73 523q2 11-.5 15t-12.5 5l-62 7 10 74h521l-28-202-105 5-3 76q-1 13-16 13h-155l-27-197h230l-16-111h-230l-27-201h177q14 0 17 11l28 88h105zM486 766l-210 90 65 99 190-122z" glyph-name="Egrave" horiz-adv-x="620" unicode="&#xc8;"/><glyph d="M561 0h-543l10 73 63 7q11 2 14.5 5.5t4.5 14.5l73 523q2 11-.5 15t-12.5 5l-62 7 10 74h521l-28-202-105 5-3 76q-1 13-16 13h-155l-27-197h230l-16-111h-230l-27-201h177q14 0 17 11l28 88h105zM537 852l-225-85-32 71 212 117z" glyph-name="Eacute" horiz-adv-x="620" unicode="&#xc9;"/><glyph d="M561 0h-543l10 73 63 7q11 2 14.5 5.5t4.5 14.5l73 523q2 11-.5 15t-12.5 5l-62 7 10 74h521l-28-202-105 5-3 76q-1 13-16 13h-155l-27-197h230l-16-111h-230l-27-201h177q14 0 17 11l28 88h105zM576 823l-61-56-107 81-129-81-49 56 137 112h104z" glyph-name="Ecircumflex" horiz-adv-x="620" unicode="&#xca;"/><glyph d="M561 0h-543l10 73 63 7q11 2 14.5 5.5t4.5 14.5l73 523q2 11-.5 15t-12.5 5l-62 7 10 74h521l-28-202-105 5-3 76q-1 13-16 13h-155l-27-197h230l-16-111h-230l-27-201h177q14 0 17 11l28 88h105zM376 859q0-35-23-56.5t-58-21.5q-29 0-46 17t-17 45q0 35 23.5 56t58.5 21q30 0 46-16.5t16-44.5zM584 859q0-35-22.5-56.5t-58.5-21.5q-29 0-46 17t-17 45q0 35 23.5 56t58.5 21q30 0 46-16.5t16-44.5z" glyph-name="Edieresis" horiz-adv-x="620" unicode="&#xcb;"/><glyph d="M340 0h-329l8 73 73 7q10 1 13 4.5t5 15.5l74 522q2 11-1 15t-13 5l-70 7 10 75h330l-11-75-76-8q-11-1-13.5-4t-4.5-15l-73-521q-2-12 0-15.5t12-4.5l75-8zM358 766l-210 90 65 99 190-122z" glyph-name="Igrave" horiz-adv-x="382" unicode="&#xcc;"/><glyph d="M340 0h-329l8 73 73 7q10 1 13 4.5t5 15.5l74 522q2 11-1 15t-13 5l-70 7 10 75h330l-11-75-76-8q-11-1-13.5-4t-4.5-15l-73-521q-2-12 0-15.5t12-4.5l75-8zM417 852l-225-85-32 71 212 117z" glyph-name="Iacute" horiz-adv-x="382" unicode="&#xcd;"/><glyph d="M340 0h-329l8 73 73 7q10 1 13 4.5t5 15.5l74 522q2 11-1 15t-13 5l-70 7 10 75h330l-11-75-76-8q-11-1-13.5-4t-4.5-15l-73-521q-2-12 0-15.5t12-4.5l75-8zM456 823l-61-56-107 81-129-81-49 56 137 112h104z" glyph-name="Icircumflex" horiz-adv-x="382" unicode="&#xce;"/><glyph d="M340 0h-329l8 73 73 7q10 1 13 4.5t5 15.5l74 522q2 11-1 15t-13 5l-70 7 10 75h330l-11-75-76-8q-11-1-13.5-4t-4.5-15l-73-521q-2-12 0-15.5t12-4.5l75-8zM256 859q0-35-23-56.5t-58-21.5q-29 0-46 17t-17 45q0 35 23.5 56t58.5 21q30 0 46-16.5t16-44.5zM464 859q0-35-22.5-56.5t-58.5-21.5q-29 0-46 17t-17 45q0 35 23.5 56t58.5 21q30 0 46-16.5t16-44.5z" glyph-name="Idieresis" horiz-adv-x="382" unicode="&#xcf;"/><glyph d="M326 0h-302l11 75 63 7q10 1 13 4.5t5 14.5l29 209h-80l15 107h80l29 206q3 18-13 20l-62 7 10 74h318q157 0 232.5-77t75.5-217q0-193-107-311.5t-317-118.5zM268 107h56q130 0 200.5 90t70.5 229q0 100-48 145t-148 45h-61l-28-199h141l-14-107h-141z" glyph-name="Eth" horiz-adv-x="745" unicode="&#xd0;"/><glyph d="M682 0h-160l-240 525-59-424q-2-12 .5-15.5t12.5-4.5l65-8-9-73h-273l9 73 63 7q11 2 14.5 5.5t4.5 14.5l73 523q2 12-.5 15.5t-12.5 4.5l-60 7 8 74h243l236-526 60 424q2 11-.5 15t-12.5 5l-61 7 9 75h272l-10-75-67-8q-7-1-10-2.5t-4.5-5-2.5-11.5zM676 882l-28-41q-23-33-40-46.5t-39-13.5q-27 0-80 14l-75 20q-10 3-17-4l-35-32-58 39 36 52q31 47 75 47 32 0 97-17 52-14 61-14 10 0 15 6l27 29z" glyph-name="Ntilde" horiz-adv-x="812" unicode="&#xd1;"/><glyph d="M352-12q-151 0-222 78.5t-71 219.5q0 198 106.5 324.5t302.5 126.5q148 0 219.5-80t71.5-212q0-214-107.5-335.5t-299.5-121.5zM375 111q95 0 155 72t69 227q0 39-2 56-17 148-147 148-74 0-128-46t-78-113-24-145q0-34 3-54 19-145 152-145zM554 766l-210 90 65 99 190-122z" glyph-name="Ograve" horiz-adv-x="757" unicode="&#xd2;"/><glyph d="M352-12q-151 0-222 78.5t-71 219.5q0 198 106.5 324.5t302.5 126.5q148 0 219.5-80t71.5-212q0-214-107.5-335.5t-299.5-121.5zM375 111q95 0 155 72t69 227q0 39-2 56-17 148-147 148-74 0-128-46t-78-113-24-145q0-34 3-54 19-145 152-145zM605 852l-225-85-32 71 212 117z" glyph-name="Oacute" horiz-adv-x="757" unicode="&#xd3;"/><glyph d="M352-12q-151 0-222 78.5t-71 219.5q0 198 106.5 324.5t302.5 126.5q148 0 219.5-80t71.5-212q0-214-107.5-335.5t-299.5-121.5zM375 111q95 0 155 72t69 227q0 39-2 56-17 148-147 148-74 0-128-46t-78-113-24-145q0-34 3-54 19-145 152-145zM644 823l-61-56-107 81-129-81-49 56 137 112h104z" glyph-name="Ocircumflex" horiz-adv-x="757" unicode="&#xd4;"/><glyph d="M352-12q-151 0-222 78.5t-71 219.5q0 198 106.5 324.5t302.5 126.5q148 0 219.5-80t71.5-212q0-214-107.5-335.5t-299.5-121.5zM375 111q95 0 155 72t69 227q0 39-2 56-17 148-147 148-74 0-128-46t-78-113-24-145q0-34 3-54 19-145 152-145zM656 882l-28-41q-23-33-40-46.5t-39-13.5q-27 0-80 14l-75 20q-10 3-17-4l-35-32-58 39 36 52q31 47 75 47 32 0 97-17 52-14 61-14 10 0 15 6l27 29z" glyph-name="Otilde" horiz-adv-x="757" unicode="&#xd5;"/><glyph d="M352-12q-151 0-222 78.5t-71 219.5q0 198 106.5 324.5t302.5 126.5q148 0 219.5-80t71.5-212q0-214-107.5-335.5t-299.5-121.5zM375 111q95 0 155 72t69 227q0 39-2 56-17 148-147 148-74 0-128-46t-78-113-24-145q0-34 3-54 19-145 152-145zM444 859q0-35-23-56.5t-58-21.5q-29 0-46 17t-17 45q0 35 23.5 56t58.5 21q30 0 46-16.5t16-44.5zM652 859q0-35-22.5-56.5t-58.5-21.5q-29 0-46 17t-17 45q0 35 23.5 56t58.5 21q30 0 46-16.5t16-44.5z" glyph-name="Odieresis" horiz-adv-x="757" unicode="&#xd6;"/><glyph d="M493 413l-108-94 85-97-96-81-83 96-111-97-68 83 109 95-83 96 96 81 81-95 110 96z" glyph-name="multiply" unicode="&#xd7;"/><glyph d="M231-79h-136l66 118q-102 73-102 247 0 198 106.5 324.5t302.5 126.5q41 0 81-8l35 64h137l-62-112q100-75 100-236 0-214-107.5-335.5t-299.5-121.5q-38 0-80 7zM223 256q6-46 23-79l238 434q-15 3-34 3-74 0-128-46t-78-113-24-145q0-34 3-54zM375 111q95 0 155 72t69 227q0 39-2 56-4 40-18 70l-233-424q9-1 29-1z" glyph-name="Oslash" horiz-adv-x="757" unicode="&#xd8;"/><glyph d="M555 287l47 336q2 11-.5 15t-12.5 5l-61 7 10 74h290l-10-74-68-8q-11-1-13.5-4.5t-3.5-14.5l-51-364q-20-141-95.5-206t-209.5-65q-129 0-192.5 52.5t-63.5 160.5q0 25 5 62l49 360q3 19-12 20l-61 7 10 74h310l-10-74-67-8q-11-1-13.5-4t-4.5-15l-47-335q-6-39-6-70 0-56 27-81.5t88-25.5q78 0 115.5 40.5t50.5 135.5zM557 766l-210 90 65 99 190-122z" glyph-name="Ugrave" horiz-adv-x="774" unicode="&#xd9;"/><glyph d="M555 287l47 336q2 11-.5 15t-12.5 5l-61 7 10 74h290l-10-74-68-8q-11-1-13.5-4.5t-3.5-14.5l-51-364q-20-141-95.5-206t-209.5-65q-129 0-192.5 52.5t-63.5 160.5q0 25 5 62l49 360q3 19-12 20l-61 7 10 74h310l-10-74-67-8q-11-1-13.5-4t-4.5-15l-47-335q-6-39-6-70 0-56 27-81.5t88-25.5q78 0 115.5 40.5t50.5 135.5zM622 852l-225-85-32 71 212 117z" glyph-name="Uacute" horiz-adv-x="774" unicode="&#xda;"/><glyph d="M555 287l47 336q2 11-.5 15t-12.5 5l-61 7 10 74h290l-10-74-68-8q-11-1-13.5-4.5t-3.5-14.5l-51-364q-20-141-95.5-206t-209.5-65q-129 0-192.5 52.5t-63.5 160.5q0 25 5 62l49 360q3 19-12 20l-61 7 10 74h310l-10-74-67-8q-11-1-13.5-4t-4.5-15l-47-335q-6-39-6-70 0-56 27-81.5t88-25.5q78 0 115.5 40.5t50.5 135.5zM661 823l-61-56-107 81-129-81-49 56 137 112h104z" glyph-name="Ucircumflex" horiz-adv-x="774" unicode="&#xdb;"/><glyph d="M555 287l47 336q2 11-.5 15t-12.5 5l-61 7 10 74h290l-10-74-68-8q-11-1-13.5-4.5t-3.5-14.5l-51-364q-20-141-95.5-206t-209.5-65q-129 0-192.5 52.5t-63.5 160.5q0 25 5 62l49 360q3 19-12 20l-61 7 10 74h310l-10-74-67-8q-11-1-13.5-4t-4.5-15l-47-335q-6-39-6-70 0-56 27-81.5t88-25.5q78 0 115.5 40.5t50.5 135.5zM461 859q0-35-23-56.5t-58-21.5q-29 0-46 17t-17 45q0 35 23.5 56t58.5 21q30 0 46-16.5t16-44.5zM669 859q0-35-22.5-56.5t-58.5-21.5q-29 0-46 17t-17 45q0 35 23.5 56t58.5 21q30 0 46-16.5t16-44.5z" glyph-name="Udieresis" horiz-adv-x="774" unicode="&#xdc;"/><glyph d="M516 0h-384l9 74 100 7q9 1 12 4.5t5 15.5l24 169-146 353q-4 11-22 17l-42 11 11 73h302l-11-73-78-9 87-240h6l152 240-74 9 11 73h261l-11-73-42-11q-21-7-28-20l-224-348-24-171q-2-11 0-14.5t13-4.5l103-8zM574 852l-225-85-32 71 212 117z" glyph-name="Yacute" horiz-adv-x="663" unicode="&#xdd;"/><glyph d="M402 0h-384l10 74 63 7q11 2 14.5 5.5t4.5 14.5l73 521q2 11-1 15t-13 5l-60 7 9 75h312l-10-75-72-8q-15-2-16-16l-4-28h98q113 0 166-49.5t53-136.5q0-125-80.5-188.5t-224.5-63.5h-72l-7-57q-2-12 0-15.5t12-4.5l140-8zM283 265h47q32 0 56.5 5t49 18.5 38 42 13.5 71.5q0 86-114 86h-59z" glyph-name="Thorn" horiz-adv-x="640" unicode="&#xde;"/><glyph d="M173-212h-148l109 761q9 65 35.5 109.5t67 67.5 83 32 95.5 9q61 0 106.5-14.5t70-37.5 36-47 11.5-49q0-71-73-140-4-4-14-13.5t-14.5-13.5-11.5-12-10-13-5.5-11.5-2.5-12.5q0-10 3.5-19t13-18 16.5-14.5 23-17 23-16.5q37-28 58-60.5t21-81.5q0-85-58-136.5t-158-51.5q-60 0-111.5 12t-66.5 23l19 138 102-6 3-58q2-18 16-21 13-4 38-4 36 0 56.5 19t20.5 49q0 29-17.5 48.5t-51.5 40.5q-25 16-36 24t-29 25-25.5 37-7.5 46q0 14 2 26.5t8 25 10 20.5 14.5 20 14.5 17 16.5 18 15.5 16q47 49 47 89 0 28-22 46t-64 18q-54 0-84-29t-40-98z" glyph-name="germandbls" horiz-adv-x="686" unicode="&#xdf;"/><glyph d="M563 0h-193l12 81-5 1q-49-48-90.5-71t-91.5-23q-152 0-152 200 0 61 13.5 118t41.5 109.5 79 84 118 31.5q80 0 137-57l19 47h128q-20-98-25-131l-40-290q-2-11 .5-14.5t12.5-4.5l47-7zM384 192l26 188q-41 37-88 37-35 0-60.5-23t-39-58.5-19.5-70-6-65.5q0-87 57-87 51 0 130 79zM472 611l-64-50-158 146 93 78z" glyph-name="agrave" horiz-adv-x="605" unicode="&#xe0;"/><glyph d="M563 0h-193l12 81-5 1q-49-48-90.5-71t-91.5-23q-152 0-152 200 0 61 13.5 118t41.5 109.5 79 84 118 31.5q80 0 137-57l19 47h128q-20-98-25-131l-40-290q-2-11 .5-14.5t12.5-4.5l47-7zM384 192l26 188q-41 37-88 37-35 0-60.5-23t-39-58.5-19.5-70-6-65.5q0-87 57-87 51 0 130 79zM487 697l-186-136-55 58 164 163z" glyph-name="aacute" horiz-adv-x="605" unicode="&#xe1;"/><glyph d="M563 0h-193l12 81-5 1q-49-48-90.5-71t-91.5-23q-152 0-152 200 0 61 13.5 118t41.5 109.5 79 84 118 31.5q80 0 137-57l19 47h128q-20-98-25-131l-40-290q-2-11 .5-14.5t12.5-4.5l47-7zM384 192l26 188q-41 37-88 37-35 0-60.5-23t-39-58.5-19.5-70-6-65.5q0-87 57-87 51 0 130 79zM527 614l-65-52-101 93-129-93-54 52 140 129h104z" glyph-name="acircumflex" horiz-adv-x="605" unicode="&#xe2;"/><glyph d="M563 0h-193l12 81-5 1q-49-48-90.5-71t-91.5-23q-152 0-152 200 0 61 13.5 118t41.5 109.5 79 84 118 31.5q80 0 137-57l19 47h128q-20-98-25-131l-40-290q-2-11 .5-14.5t12.5-4.5l47-7zM384 192l26 188q-41 37-88 37-35 0-60.5-23t-39-58.5-19.5-70-6-65.5q0-87 57-87 51 0 130 79zM560 684l-29-41q-22-32-38.5-46t-37.5-14q-25 0-76 16-12 3-31.5 8.5t-33 9.5-20.5 5-17-7l-35-32-54 37 37 51q35 50 73 50 22 0 62-12 75-23 94-26 7 0 14 6l32 32z" glyph-name="atilde" horiz-adv-x="605" unicode="&#xe3;"/><glyph d="M563 0h-193l12 81-5 1q-49-48-90.5-71t-91.5-23q-152 0-152 200 0 61 13.5 118t41.5 109.5 79 84 118 31.5q80 0 137-57l19 47h128q-20-98-25-131l-40-290q-2-11 .5-14.5t12.5-4.5l47-7zM384 192l26 188q-41 37-88 37-35 0-60.5-23t-39-58.5-19.5-70-6-65.5q0-87 57-87 51 0 130 79zM330 674q0-35-23-56.5t-58-21.5q-29 0-46 17t-17 45q0 35 23.5 56t58.5 21q30 0 46-16.5t16-44.5zM538 674q0-35-22.5-56.5t-58.5-21.5q-29 0-46 17t-17 45q0 35 23.5 56t58.5 21q30 0 46-16.5t16-44.5z" glyph-name="adieresis" horiz-adv-x="605" unicode="&#xe4;"/><glyph d="M563 0h-193l12 81-5 1q-49-48-90.5-71t-91.5-23q-152 0-152 200 0 61 13.5 118t41.5 109.5 79 84 118 31.5q80 0 137-57l19 47h128q-20-98-25-131l-40-290q-2-11 .5-14.5t12.5-4.5l47-7zM384 192l26 188q-41 37-88 37-35 0-60.5-23t-39-58.5-19.5-70-6-65.5q0-87 57-87 51 0 130 79zM385 764q35 0 59.5-21.5t24.5-59.5q0-48-29.5-78.5t-78.5-30.5q-38 0-62.5 22.5t-24.5 61.5q0 48 30.5 77t80.5 29zM368 632q39 0 39 45 0 29-30 29-40 0-40-45 0-29 31-29z" glyph-name="aring" horiz-adv-x="605" unicode="&#xe5;"/><glyph d="M765 136l23-98q-108-50-207-50-140 0-189 98-57-52-102.5-75t-94.5-23q-152 0-152 200 0 61 13.5 118t41.5 109.5 79 84 118 31.5q99 0 174-76 86 76 204 76 73 0 114-34.5t41-96.5q0-173-307-202 4-47 25-72.5t73-25.5q61 0 146 36zM408 380q-44 37-86 37-35 0-60.5-23t-39-58.5-19.5-70-6-65.5q0-87 57-87 45 0 114 63-1 15-1 44 3 92 41 160zM527 295q23 3 45.5 8t52.5 15 48.5 27 18.5 38q0 40-48 40-42 0-74.5-35t-42.5-93z" glyph-name="ae" horiz-adv-x="836" unicode="&#xe6;"/><glyph d="M139-248l16 69q12-4 35-4 27 0 46 11.5t19 36.5q0 38-61 40l23 86q-89 10-132.5 67t-43.5 148q0 159 85.5 242t219.5 83q108 0 167-42l-22-157-102 5-3 68q0 11-7 14-17 7-49 7-56 0-95-50t-39-154q0-122 99-122 56 0 132 30l25-93q-69-39-163-47l-9-35q70-20 70-87 0-58-44-91t-105-33q-46 0-62 8z" glyph-name="ccedilla" horiz-adv-x="502" unicode="&#xe7;"/><glyph d="M439 136l22-98q-108-50-207-50-111 0-162 57.5t-51 155.5q0 153 85 241.5t212 88.5q81 0 122.5-34.5t41.5-97.5q0-51-25-89t-71-60-96-33.5-115-18.5q6-98 99-98 59 0 145 36zM201 295q165 23 165 90 0 38-48 38-42 0-74-34.5t-43-93.5zM451 611l-64-50-158 146 93 78z" glyph-name="egrave" horiz-adv-x="506" unicode="&#xe8;"/><glyph d="M439 136l22-98q-108-50-207-50-111 0-162 57.5t-51 155.5q0 153 85 241.5t212 88.5q81 0 122.5-34.5t41.5-97.5q0-51-25-89t-71-60-96-33.5-115-18.5q6-98 99-98 59 0 145 36zM201 295q165 23 165 90 0 38-48 38-42 0-74-34.5t-43-93.5zM466 697l-186-136-55 58 164 163z" glyph-name="eacute" horiz-adv-x="506" unicode="&#xe9;"/><glyph d="M439 136l22-98q-108-50-207-50-111 0-162 57.5t-51 155.5q0 153 85 241.5t212 88.5q81 0 122.5-34.5t41.5-97.5q0-51-25-89t-71-60-96-33.5-115-18.5q6-98 99-98 59 0 145 36zM201 295q165 23 165 90 0 38-48 38-42 0-74-34.5t-43-93.5zM506 614l-65-52-101 93-129-93-54 52 140 129h104z" glyph-name="ecircumflex" horiz-adv-x="506" unicode="&#xea;"/><glyph d="M439 136l22-98q-108-50-207-50-111 0-162 57.5t-51 155.5q0 153 85 241.5t212 88.5q81 0 122.5-34.5t41.5-97.5q0-51-25-89t-71-60-96-33.5-115-18.5q6-98 99-98 59 0 145 36zM201 295q165 23 165 90 0 38-48 38-42 0-74-34.5t-43-93.5zM309 674q0-35-23-56.5t-58-21.5q-29 0-46 17t-17 45q0 35 23.5 56t58.5 21q30 0 46-16.5t16-44.5zM517 674q0-35-22.5-56.5t-58.5-21.5q-29 0-46 17t-17 45q0 35 23.5 56t58.5 21q30 0 46-16.5t16-44.5z" glyph-name="edieresis" horiz-adv-x="506" unicode="&#xeb;"/><glyph d="M280 0h-216l-2 5 24 135 37 267q3 17-10 21l-49 17 10 76h213l-59-420q-2-12 .5-15.5t13.5-4.5l48-7zM304 609l-64-50-158 146 93 78z" glyph-name="igrave" horiz-adv-x="318" unicode="&#xec;"/><glyph d="M280 0h-216l-2 5 24 135 37 267q3 17-10 21l-49 17 10 76h213l-59-420q-2-12 .5-15.5t13.5-4.5l48-7zM319 694l-186-136-55 58 164 163z" glyph-name="iacute" horiz-adv-x="318" unicode="&#xed;"/><glyph d="M356 618l-65-52-91 93-119-93-54 52 130 129h104zM280 0h-216l-2 5 24 135 37 267q3 17-10 21l-49 17 10 76h213l-59-420q-2-12 .5-15.5t13.5-4.5l48-7z" glyph-name="icircumflex" horiz-adv-x="318" unicode="&#xee;"/><glyph d="M175 661q0-35-23-56.5t-58-21.5q-29 0-46 17t-17 45q0 35 23.5 56t58.5 21q30 0 46-16.5t16-44.5zM363 661q0-35-22.5-56.5t-58.5-21.5q-29 0-46 17t-17 45q0 35 23.5 56t58.5 21q30 0 46-16.5t16-44.5zM280 0h-216l-2 5 24 135 37 267q3 17-10 21l-49 17 10 76h213l-59-420q-2-12 .5-15.5t13.5-4.5l48-7z" glyph-name="idieresis" horiz-adv-x="318" unicode="&#xef;"/><glyph d="M612 673l-88-50q59-99 59-228 0-82-16-151t-51-128.5-99.5-93.5-152.5-34q-110 0-167 58.5t-57 159.5q0 126 71 213t197 87q67 0 133-39-13 83-62.5 131t-154.5 76l56 106q88-17 157-64l112 67zM427 366q-36 34-97 34-131 0-131-199 0-108 83-108 132 0 145 273z" glyph-name="eth" horiz-adv-x="587" unicode="&#xf0;"/><glyph d="M584 0h-216l-2 3 22 122 29 208q6 31 .5 50t-26.5 19q-48 0-130-72l-31-229q-2-12 0-15.5t13-4.5l50-7-10-74h-274l10 75 44 6q10 2 13.5 5.5t4.5 14.5l42 305q3 17-9 21l-49 18 11 76h198l-11-82 3-1q36 31 58 47t57.5 31 72.5 15q114 0 118-119 0-30-4-55l-36-256q-2-12 0-15.5t12-4.5l50-7zM565 684l-29-41q-22-32-38.5-46t-37.5-14q-25 0-76 16-12 3-31.5 8.5t-33 9.5-20.5 5-17-7l-35-32-54 37 37 51q35 50 73 50 21 0 62-12 75-23 94-26 7 0 14 6l32 32z" glyph-name="ntilde" horiz-adv-x="620" unicode="&#xf1;"/><glyph d="M269-12q-114 0-171 57.5t-57 157.5q0 148 80 238t223 90q118 0 170.5-58t52.5-154q0-151-76.5-241t-221.5-90zM281 93q57 0 93 54t36 170q0 106-83 106-57 0-94.5-52.5t-37.5-167.5q0-110 86-110zM466 611l-64-50-158 146 93 78z" glyph-name="ograve" horiz-adv-x="578" unicode="&#xf2;"/><glyph d="M269-12q-114 0-171 57.5t-57 157.5q0 148 80 238t223 90q118 0 170.5-58t52.5-154q0-151-76.5-241t-221.5-90zM281 93q57 0 93 54t36 170q0 106-83 106-57 0-94.5-52.5t-37.5-167.5q0-110 86-110zM489 697l-186-136-55 58 164 163z" glyph-name="oacute" horiz-adv-x="578" unicode="&#xf3;"/><glyph d="M269-12q-114 0-171 57.5t-57 157.5q0 148 80 238t223 90q118 0 170.5-58t52.5-154q0-151-76.5-241t-221.5-90zM281 93q57 0 93 54t36 170q0 106-83 106-57 0-94.5-52.5t-37.5-167.5q0-110 86-110zM521 614l-65-52-101 93-129-93-54 52 140 129h104z" glyph-name="ocircumflex" horiz-adv-x="578" unicode="&#xf4;"/><glyph d="M269-12q-114 0-171 57.5t-57 157.5q0 148 80 238t223 90q118 0 170.5-58t52.5-154q0-151-76.5-241t-221.5-90zM281 93q57 0 93 54t36 170q0 106-83 106-57 0-94.5-52.5t-37.5-167.5q0-110 86-110zM538 684l-29-41q-22-32-38.5-46t-37.5-14q-25 0-76 16-12 3-31.5 8.5t-33 9.5-20.5 5-17-7l-35-32-54 37 37 51q35 50 73 50 22 0 62-12 75-23 94-26 7 0 14 6l32 32z" glyph-name="otilde" horiz-adv-x="578" unicode="&#xf5;"/><glyph d="M269-12q-114 0-171 57.5t-57 157.5q0 148 80 238t223 90q118 0 170.5-58t52.5-154q0-151-76.5-241t-221.5-90zM281 93q57 0 93 54t36 170q0 106-83 106-57 0-94.5-52.5t-37.5-167.5q0-110 86-110zM324 674q0-35-23-56.5t-58-21.5q-29 0-46 17t-17 45q0 35 23.5 56t58.5 21q30 0 46-16.5t16-44.5zM532 674q0-35-22.5-56.5t-58.5-21.5q-29 0-46 17t-17 45q0 35 23.5 56t58.5 21q30 0 46-16.5t16-44.5z" glyph-name="odieresis" horiz-adv-x="578" unicode="&#xf6;"/><glyph d="M365 166q0-38-23-60.5t-66-22.5q-70 0-70 60 0 38 23.5 62t66.5 24q34 0 51.5-17t17.5-46zM496 263h-387l17 116h387zM411 497q0-39-22.5-61t-66.5-22q-70 0-70 60 0 38 23.5 61.5t66.5 23.5q34 0 51.5-16.5t17.5-45.5z" glyph-name="divide" unicode="&#xf7;"/><glyph d="M167-82h-123l67 116q-70 55-70 169 0 148 80 238t223 90q19 0 53-4l39 67h122l-62-106q71-54 71-169 0-151-76.5-241t-221.5-90q-29 0-59 5zM195 203q0-27 4-44l151 262q-14 2-23 2-57 0-94.5-52.5t-37.5-167.5zM281 93q57 0 93 54t36 170q0 24-4 39l-149-261q14-2 24-2z" glyph-name="oslash" horiz-adv-x="578" unicode="&#xf8;"/><glyph d="M578 0h-198l10 80-3 1q-3-2-16.5-14t-19-16-19.5-15-22.5-15.5-23-12-26.5-11-28-6.5-31-3q-63 0-91 31t-28 94q0 30 4 57l33 242q2 13 0 16.5t-13 4.5l-39 7 12 81h195l7-7-44-318q-4-34-4-43 0-19 7-27.5t25-8.5q46 0 126 71l31 226q2 12 0 15t-13 5l-32 5 13 82h189l7-8-59-411q-3-19 11-21l50-7zM457 611l-64-50-158 146 93 78z" glyph-name="ugrave" horiz-adv-x="623" unicode="&#xf9;"/><glyph d="M578 0h-198l10 80-3 1q-3-2-16.5-14t-19-16-19.5-15-22.5-15.5-23-12-26.5-11-28-6.5-31-3q-63 0-91 31t-28 94q0 30 4 57l33 242q2 13 0 16.5t-13 4.5l-39 7 12 81h195l7-7-44-318q-4-34-4-43 0-19 7-27.5t25-8.5q46 0 126 71l31 226q2 12 0 15t-13 5l-32 5 13 82h189l7-8-59-411q-3-19 11-21l50-7zM493 697l-186-136-55 58 164 163z" glyph-name="uacute" horiz-adv-x="623" unicode="&#xfa;"/><glyph d="M578 0h-198l10 80-3 1q-3-2-16.5-14t-19-16-19.5-15-22.5-15.5-23-12-26.5-11-28-6.5-31-3q-63 0-91 31t-28 94q0 30 4 57l33 242q2 13 0 16.5t-13 4.5l-39 7 12 81h195l7-7-44-318q-4-34-4-43 0-19 7-27.5t25-8.5q46 0 126 71l31 226q2 12 0 15t-13 5l-32 5 13 82h189l7-8-59-411q-3-19 11-21l50-7zM532 614l-65-52-101 93-129-93-54 52 140 129h104z" glyph-name="ucircumflex" horiz-adv-x="623" unicode="&#xfb;"/><glyph d="M578 0h-198l10 80-3 1q-3-2-16.5-14t-19-16-19.5-15-22.5-15.5-23-12-26.5-11-28-6.5-31-3q-63 0-91 31t-28 94q0 30 4 57l33 242q2 13 0 16.5t-13 4.5l-39 7 12 81h195l7-7-44-318q-4-34-4-43 0-19 7-27.5t25-8.5q46 0 126 71l31 226q2 12 0 15t-13 5l-32 5 13 82h189l7-8-59-411q-3-19 11-21l50-7zM331 674q0-35-23-56.5t-58-21.5q-29 0-46 17t-17 45q0 35 23.5 56t58.5 21q30 0 46-16.5t16-44.5zM539 674q0-35-22.5-56.5t-58.5-21.5q-29 0-46 17t-17 45q0 35 23.5 56t58.5 21q30 0 46-16.5t16-44.5z" glyph-name="udieresis" horiz-adv-x="623" unicode="&#xfc;"/><glyph d="M181-47l28 50-112 418q-4 13-18 17l-39 9 12 74h176l10-11 27-129 45-209h5l127 266-61 9 11 74h185l14-31-290-571q-40-75-85.5-108.5t-122.5-33.5q-49 0-89.5 16.5t-58.5 33.5l51 85q48-29 91-29 53 0 94 70zM470 697l-186-136-55 58 164 163z" glyph-name="yacute" horiz-adv-x="568" unicode="&#xfd;"/><glyph d="M292-212h-268l-2 4 30 172 96 677q3 15-10 21l-48 17 10 76h208l-45-313 3-2q96 91 178 91 144 0 144-200 0-158-63.5-250.5t-178.5-92.5q-81 0-131 50h-5l-22-149q-1-9 2-12t12-4l101-10zM252 329l-27-186q46-39 91-39 58 0 86.5 62t28.5 140q0 98-52 98-43 0-127-75z" glyph-name="thorn" horiz-adv-x="600" unicode="&#xfe;"/><glyph d="M181-47l28 50-112 418q-4 13-18 17l-39 9 12 74h176l10-11 27-129 45-209h5l127 266-61 9 11 74h185l14-31-290-571q-40-75-85.5-108.5t-122.5-33.5q-49 0-89.5 16.5t-58.5 33.5l51 85q48-29 91-29 53 0 94 70zM311 674q0-35-23-56.5t-58-21.5q-29 0-46 17t-17 45q0 35 23.5 56t58.5 21q30 0 46-16.5t16-44.5zM519 674q0-35-22.5-56.5t-58.5-21.5q-29 0-46 17t-17 45q0 35 23.5 56t58.5 21q30 0 46-16.5t16-44.5z" glyph-name="ydieresis" horiz-adv-x="568" unicode="&#xff;"/><glyph d="M726 0h-307l10 73 82 9-19 109h-246l-49-109 76-9-11-73h-274l11 73 45 11q20 5 27 20l299 620h174l128-623q2-12 22-17l43-11zM476 299l-51 273h-7l-127-273h185zM625 785h-317l13 100h317z" glyph-name="Amacron" horiz-adv-x="744" unicode="&#x100;"/><glyph d="M563 0h-193l12 81-5 1q-49-48-90.5-71t-91.5-23q-152 0-152 200 0 61 13.5 118t41.5 109.5 79 84 118 31.5q80 0 137-57l19 47h128q-20-98-25-131l-40-290q-2-11 .5-14.5t12.5-4.5l47-7zM384 192l26 188q-41 37-88 37-35 0-60.5-23t-39-58.5-19.5-70-6-65.5q0-87 57-87 51 0 130 79zM522 599h-317l14 100h317z" glyph-name="amacron" horiz-adv-x="605" unicode="&#x101;"/><glyph d="M726 0h-307l10 73 82 9-19 109h-246l-49-109 76-9-11-73h-274l11 73 45 11q20 5 27 20l299 620h174l128-623q2-12 22-17l43-11zM476 299l-51 273h-7l-127-273h185zM573 941l74-28q-51-131-182-131-139 0-153 131l78 27q15-68 82-68 65 0 101 69z" glyph-name="Abreve" horiz-adv-x="744" unicode="&#x102;"/><glyph d="M563 0h-193l12 81-5 1q-49-48-90.5-71t-91.5-23q-152 0-152 200 0 61 13.5 118t41.5 109.5 79 84 118 31.5q80 0 137-57l19 47h128q-20-98-25-131l-40-290q-2-11 .5-14.5t12.5-4.5l47-7zM384 192l26 188q-41 37-88 37-35 0-60.5-23t-39-58.5-19.5-70-6-65.5q0-87 57-87 51 0 130 79zM471 737l74-28q-53-137-189-137-141 0-155 137l78 28q16-75 86-75 66 0 106 75z" glyph-name="abreve" horiz-adv-x="605" unicode="&#x103;"/><glyph d="M630-133l17-74q-61-27-122-27-95 0-95 74 0 81 114 160h-125l10 73 82 9-19 109h-246l-49-109 76-9-11-73h-274l11 73 45 11q20 5 27 20l299 620h174l128-623q2-12 22-17l43-11-11-73h-83q-92-71-92-119 0-24 25-24 21 0 54 10zM476 299l-51 273h-7l-127-273h185z" glyph-name="Aogonek" horiz-adv-x="744" unicode="&#x104;"/><glyph d="M514-133l17-74q-61-27-122-27-95 0-95 74 0 81 115 160h-59l12 81-5 1q-49-48-90.5-71t-91.5-23q-152 0-152 200 0 61 13.5 118t41.5 109.5 79 84 118 31.5q80 0 137-57l19 47h128q-20-98-25-131l-40-290q-2-11 .5-14.5t12.5-4.5l47-7-11-74q-47-18-87.5-53.5t-40.5-65.5q0-24 25-24 21 0 54 10zM384 192l26 188q-41 37-88 37-35 0-60.5-23t-39-58.5-19.5-70-6-65.5q0-87 57-87 51 0 130 79z" glyph-name="aogonek" horiz-adv-x="605" unicode="&#x105;"/><glyph d="M636 229l-26-186q-95-55-253-55-151 0-224.5 83t-73.5 229q0 197 108.5 317t309.5 120q62 0 123-15.5t96-41.5l-26-196-107 9-3 93q0 18-13 22-33 13-84 13-112 0-178.5-80.5t-66.5-229.5q0-103 42.5-156t123.5-53q70 0 103 13 11 6 15 19l29 95h105zM606 852l-225-85-32 71 212 117z" glyph-name="Cacute" horiz-adv-x="670" unicode="&#x106;"/><glyph d="M427 130l25-93q-86-49-193-49-110 0-164 58.5t-54 159.5q0 159 85.5 242t219.5 83q108 0 167-42l-22-157-102 5-3 68q0 11-7 14-17 7-49 7-56 0-95-50t-39-154q0-122 99-122 56 0 132 30zM479 697l-186-136-55 58 164 163z" glyph-name="cacute" horiz-adv-x="502" unicode="&#x107;"/><glyph d="M636 229l-26-186q-95-55-253-55-151 0-224.5 83t-73.5 229q0 197 108.5 317t309.5 120q62 0 123-15.5t96-41.5l-26-196-107 9-3 93q0 18-13 22-33 13-84 13-112 0-178.5-80.5t-66.5-229.5q0-103 42.5-156t123.5-53q70 0 103 13 11 6 15 19l29 95h105zM645 823l-61-56-107 81-129-81-49 56 137 112h104z" glyph-name="Ccircumflex" horiz-adv-x="670" unicode="&#x108;"/><glyph d="M427 130l25-93q-86-49-193-49-110 0-164 58.5t-54 159.5q0 159 85.5 242t219.5 83q108 0 167-42l-22-157-102 5-3 68q0 11-7 14-17 7-49 7-56 0-95-50t-39-154q0-122 99-122 56 0 132 30zM519 614l-65-52-101 93-129-93-54 52 140 129h104z" glyph-name="ccircumflex" horiz-adv-x="502" unicode="&#x109;"/><glyph d="M636 229l-26-186q-95-55-253-55-151 0-224.5 83t-73.5 229q0 197 108.5 317t309.5 120q62 0 123-15.5t96-41.5l-26-196-107 9-3 93q0 18-13 22-33 13-84 13-112 0-178.5-80.5t-66.5-229.5q0-103 42.5-156t123.5-53q70 0 103 13 11 6 15 19l29 95h105zM578 885q0-47-28-75.5t-77-28.5q-38 0-59 20t-21 55q0 48 28 75.5t77 27.5q38 0 59-19t21-55z" glyph-name="Cdotaccent" horiz-adv-x="670" unicode="&#x10a;"/><glyph d="M427 130l25-93q-86-49-193-49-110 0-164 58.5t-54 159.5q0 159 85.5 242t219.5 83q108 0 167-42l-22-157-102 5-3 68q0 11-7 14-17 7-49 7-56 0-95-50t-39-154q0-122 99-122 56 0 132 30zM351 603q-37 0-57 20t-20 55q0 48 27 75.5t76 27.5q37 0 57.5-19t20.5-55q0-48-28-76t-76-28z" glyph-name="cdotaccent" horiz-adv-x="502" unicode="&#x10b;"/><glyph d="M636 229l-26-186q-95-55-253-55-151 0-224.5 83t-73.5 229q0 197 108.5 317t309.5 120q62 0 123-15.5t96-41.5l-26-196-107 9-3 93q0 18-13 22-33 13-84 13-112 0-178.5-80.5t-66.5-229.5q0-103 42.5-156t123.5-53q70 0 103 13 11 6 15 19l29 95h105zM656 890l-136-111h-104l-106 111 60 57 107-81 130 81z" glyph-name="Ccaron" horiz-adv-x="670" unicode="&#x10c;"/><glyph d="M427 130l25-93q-86-49-193-49-110 0-164 58.5t-54 159.5q0 159 85.5 242t219.5 83q108 0 167-42l-22-157-102 5-3 68q0 11-7 14-17 7-49 7-56 0-95-50t-39-154q0-122 99-122 56 0 132 30zM541 711l-141-129h-104l-104 129 64 52 102-93 128 93z" glyph-name="ccaron" horiz-adv-x="502" unicode="&#x10d;"/><glyph d="M320 0h-302l11 75 63 7q10 1 13 4.5t5 14.5l73 522q3 18-13 20l-62 7 10 74h318q157 0 232.5-77t75.5-217q0-193-107-311.5t-317-118.5zM262 107h56q130 0 200.5 90t70.5 229q0 100-48 145t-148 45h-61zM604 890l-136-111h-104l-106 111 60 57 107-81 130 81z" glyph-name="Dcaron" horiz-adv-x="739" unicode="&#x10e;"/><glyph d="M564 0h-194l12 80-5 2q-49-48-90-71t-91-23q-153 0-153 198 0 58 13 115t41 110.5 79 86.5 118 33q76 0 133-43l20 154q2 17-10 20l-50 17 12 76h206l-91-655q-2-11 .5-14.5t12.5-4.5l47-7zM384 193l27 190q-40 34-86 34-36 0-62.5-22.5t-40-59-19.5-71.5-6-70q0-81 57-81 52 0 130 80zM686 531l-69 29q38 84 38 134 0 17-9 47l98 34q28-30 28-54 0-27-14-59-14-35-72-131z" glyph-name="dcaron" horiz-adv-x="712" unicode="&#x10f;"/><glyph d="M326 0h-302l11 75 63 7q10 1 13 4.5t5 14.5l29 209h-80l15 107h80l29 206q3 18-13 20l-62 7 10 74h318q157 0 232.5-77t75.5-217q0-193-107-311.5t-317-118.5zM268 107h56q130 0 200.5 90t70.5 229q0 100-48 145t-148 45h-61l-28-199h141l-14-107h-141z" glyph-name="Dcroat" horiz-adv-x="745" unicode="&#x110;"/><glyph d="M564 0h-194l12 80-5 2q-49-48-90-71t-91-23q-74 0-113.5 48.5t-39.5 144.5q0 59 14 113t42 100.5 77 74.5 113 28q76 0 133-43l11 82h-153l12 84h152l3 22q3 16-10 20l-50 17 12 76h206l-19-135h72l-12-84h-72l-60-436q-2-11 .5-14.5t12.5-4.5l47-7zM384 193l22 156q-40 34-86 34t-75-31.5-38.5-71-9.5-86.5q0-81 57-81 52 0 130 80z" glyph-name="dcroat" horiz-adv-x="608" unicode="&#x111;"/><glyph d="M561 0h-543l10 73 63 7q11 2 14.5 5.5t4.5 14.5l73 523q2 11-.5 15t-12.5 5l-62 7 10 74h521l-28-202-105 5-3 76q-1 13-16 13h-155l-27-197h230l-16-111h-230l-27-201h177q14 0 17 11l28 88h105zM565 785h-317l13 100h317z" glyph-name="Emacron" horiz-adv-x="620" unicode="&#x112;"/><glyph d="M439 136l22-98q-108-50-207-50-111 0-162 57.5t-51 155.5q0 153 85 241.5t212 88.5q81 0 122.5-34.5t41.5-97.5q0-51-25-89t-71-60-96-33.5-115-18.5q6-98 99-98 59 0 145 36zM201 295q165 23 165 90 0 38-48 38-42 0-74-34.5t-43-93.5zM501 599h-317l14 100h317z" glyph-name="emacron" horiz-adv-x="506" unicode="&#x113;"/><glyph d="M561 0h-543l10 73 63 7q11 2 14.5 5.5t4.5 14.5l73 523q2 11-.5 15t-12.5 5l-62 7 10 74h521l-28-202-105 5-3 76q-1 13-16 13h-155l-27-197h230l-16-111h-230l-27-201h177q14 0 17 11l28 88h105zM513 941l74-28q-51-131-182-131-139 0-153 131l78 27q15-68 82-68 65 0 101 69z" glyph-name="Ebreve" horiz-adv-x="620" unicode="&#x114;"/><glyph d="M439 136l22-98q-108-50-207-50-111 0-162 57.5t-51 155.5q0 153 85 241.5t212 88.5q81 0 122.5-34.5t41.5-97.5q0-51-25-89t-71-60-96-33.5-115-18.5q6-98 99-98 59 0 145 36zM201 295q165 23 165 90 0 38-48 38-42 0-74-34.5t-43-93.5zM450 737l74-28q-53-137-189-137-141 0-155 137l78 28q16-75 86-75 66 0 106 75z" glyph-name="ebreve" horiz-adv-x="506" unicode="&#x115;"/><glyph d="M561 0h-543l10 73 63 7q11 2 14.5 5.5t4.5 14.5l73 523q2 11-.5 15t-12.5 5l-62 7 10 74h521l-28-202-105 5-3 76q-1 13-16 13h-155l-27-197h230l-16-111h-230l-27-201h177q14 0 17 11l28 88h105zM509 885q0-47-28.5-75.5t-76.5-28.5q-38 0-59 20t-21 55q0 48 28 75.5t77 27.5q38 0 59-19t21-55z" glyph-name="Edotaccent" horiz-adv-x="620" unicode="&#x116;"/><glyph d="M439 136l22-98q-108-50-207-50-111 0-162 57.5t-51 155.5q0 153 85 241.5t212 88.5q81 0 122.5-34.5t41.5-97.5q0-51-25-89t-71-60-96-33.5-115-18.5q6-98 99-98 59 0 145 36zM201 295q165 23 165 90 0 38-48 38-42 0-74-34.5t-43-93.5zM338 603q-37 0-57 20t-20 55q0 48 27 75.5t76 27.5q37 0 57.5-19t20.5-55q0-48-28-76t-76-28z" glyph-name="edotaccent" horiz-adv-x="506" unicode="&#x117;"/><glyph d="M516-133l17-74q-61-27-122-27-95 0-95 74 0 81 114 160h-412l10 73 63 7q11 2 14.5 5.5t4.5 14.5l73 523q2 11-.5 15t-12.5 5l-62 7 10 74h521l-28-202-105 5-3 76q-1 13-16 13h-155l-27-197h230l-16-111h-230l-27-201h177q14 0 17 11l28 88h105l-28-206q-46-19-85-54t-39-65q0-24 25-24 21 0 54 10z" glyph-name="Eogonek" horiz-adv-x="620" unicode="&#x118;"/><glyph d="M374-133l17-74q-61-27-122-27-95 0-95 74 0 75 98 149-6-1-18-1-111 0-162 57.5t-51 155.5q0 153 85 241.5t212 88.5q81 0 122.5-34.5t41.5-97.5q0-51-25-89t-71-60-96-33.5-115-18.5q6-98 99-98 59 0 145 36l22-98q-29-14-55-30-43-27-77-62t-34-65q0-24 25-24 21 0 54 10zM201 295q165 23 165 90 0 38-48 38-42 0-74-34.5t-43-93.5z" glyph-name="eogonek" horiz-adv-x="506" unicode="&#x119;"/><glyph d="M561 0h-543l10 73 63 7q11 2 14.5 5.5t4.5 14.5l73 523q2 11-.5 15t-12.5 5l-62 7 10 74h521l-28-202-105 5-3 76q-1 13-16 13h-155l-27-197h230l-16-111h-230l-27-201h177q14 0 17 11l28 88h105zM587 890l-136-111h-104l-106 111 60 57 107-81 130 81z" glyph-name="Ecaron" horiz-adv-x="620" unicode="&#x11a;"/><glyph d="M439 136l22-98q-108-50-207-50-111 0-162 57.5t-51 155.5q0 153 85 241.5t212 88.5q81 0 122.5-34.5t41.5-97.5q0-51-25-89t-71-60-96-33.5-115-18.5q6-98 99-98 59 0 145 36zM201 295q165 23 165 90 0 38-48 38-42 0-74-34.5t-43-93.5zM528 711l-141-129h-104l-104 129 64 52 102-93 128 93z" glyph-name="ecaron" horiz-adv-x="506" unicode="&#x11b;"/><glyph d="M721 269l-40-4q-17-1-18-14l-29-215q-107-48-262-48-163 0-238.5 85t-75.5 227q0 195 109 316t311 121q59 0 120-15t99-43l-25-189-108 8-3 89q0 18-12 21-41 13-89 13-111 0-176.5-84.5t-65.5-226.5q0-207 176-207 57 0 88 10 11 3 14 17l19 129h-110l26 90h301zM639 823l-61-56-107 81-129-81-49 56 137 112h104z" glyph-name="Gcircumflex" horiz-adv-x="717" unicode="&#x11c;"/><glyph d="M366-5l12 86-3 2q-51-44-90.5-66.5t-88.5-22.5q-153 0-153 194 0 60 13.5 117t41 109.5 78.5 84.5 118 32q83 0 138-57l19 47h129q-21-95-26-134l-56-403q-28-207-244-207-68 0-129.5 18t-88.5 37l47 93q18-13 64-28t92-15q59 0 89.5 26.5t37.5 86.5zM384 193l27 186q-40 38-89 38-46 0-76-41t-39.5-86.5-9.5-90.5q0-43 14-61.5t43-18.5q54 0 130 74zM525 614l-65-52-101 93-129-93-54 52 140 129h104z" glyph-name="gcircumflex" horiz-adv-x="589" unicode="&#x11d;"/><glyph d="M721 269l-40-4q-17-1-18-14l-29-215q-107-48-262-48-163 0-238.5 85t-75.5 227q0 195 109 316t311 121q59 0 120-15t99-43l-25-189-108 8-3 89q0 18-12 21-41 13-89 13-111 0-176.5-84.5t-65.5-226.5q0-207 176-207 57 0 88 10 11 3 14 17l19 129h-110l26 90h301zM575 941l74-28q-51-131-182-131-139 0-153 131l78 27q15-68 82-68 65 0 101 69z" glyph-name="Gbreve" horiz-adv-x="717" unicode="&#x11e;"/><glyph d="M366-5l12 86-3 2q-51-44-90.5-66.5t-88.5-22.5q-153 0-153 194 0 60 13.5 117t41 109.5 78.5 84.5 118 32q83 0 138-57l19 47h129q-21-95-26-134l-56-403q-28-207-244-207-68 0-129.5 18t-88.5 37l47 93q18-13 64-28t92-15q59 0 89.5 26.5t37.5 86.5zM384 193l27 186q-40 38-89 38-46 0-76-41t-39.5-86.5-9.5-90.5q0-43 14-61.5t43-18.5q54 0 130 74zM458 737l74-28q-53-137-189-137-141 0-155 137l78 28q16-75 86-75 66 0 106 75z" glyph-name="gbreve" horiz-adv-x="589" unicode="&#x11f;"/><glyph d="M721 269l-40-4q-17-1-18-14l-29-215q-107-48-262-48-163 0-238.5 85t-75.5 227q0 195 109 316t311 121q59 0 120-15t99-43l-25-189-108 8-3 89q0 18-12 21-41 13-89 13-111 0-176.5-84.5t-65.5-226.5q0-207 176-207 57 0 88 10 11 3 14 17l19 129h-110l26 90h301zM570 885q0-47-28-75.5t-77-28.5q-38 0-59 20t-21 55q0 48 28 75.5t77 27.5q38 0 59-19t21-55z" glyph-name="Gdotaccent" horiz-adv-x="717" unicode="&#x120;"/><glyph d="M366-5l12 86-3 2q-51-44-90.5-66.5t-88.5-22.5q-153 0-153 194 0 60 13.5 117t41 109.5 78.5 84.5 118 32q83 0 138-57l19 47h129q-21-95-26-134l-56-403q-28-207-244-207-68 0-129.5 18t-88.5 37l47 93q18-13 64-28t92-15q59 0 89.5 26.5t37.5 86.5zM384 193l27 186q-40 38-89 38-46 0-76-41t-39.5-86.5-9.5-90.5q0-43 14-61.5t43-18.5q54 0 130 74zM344 603q-37 0-57 20t-20 55q0 48 27 75.5t76 27.5q37 0 57.5-19t20.5-55q0-48-28-76t-76-28z" glyph-name="gdotaccent" horiz-adv-x="589" unicode="&#x121;"/><glyph d="M721 269l-40-4q-17-1-18-14l-29-215q-107-48-262-48-163 0-238.5 85t-75.5 227q0 195 109 316t311 121q59 0 120-15t99-43l-25-189-108 8-3 89q0 18-12 21-41 13-89 13-111 0-176.5-84.5t-65.5-226.5q0-207 176-207 57 0 88 10 11 3 14 17l19 129h-110l26 90h301zM332-293l-61 19 34 96q3 10-4 12l-36 13 34 98q61-1 92.5-13.5t31.5-50.5q0-29-30-77z" glyph-name="Gcommaaccent" horiz-adv-x="717" unicode="&#x122;"/><glyph d="M366-5l12 86-3 2q-51-44-90.5-66.5t-88.5-22.5q-153 0-153 194 0 60 13.5 117t41 109.5 78.5 84.5 118 32q83 0 138-57l19 47h129q-21-95-26-134l-56-403q-28-207-244-207-68 0-129.5 18t-88.5 37l47 93q18-13 64-28t92-15q59 0 89.5 26.5t37.5 86.5zM384 193l27 186q-40 38-89 38-46 0-76-41t-39.5-86.5-9.5-90.5q0-43 14-61.5t43-18.5q54 0 130 74zM417 659l-34-98q-61 1-92 13.5t-31 50.5q0 29 30 77l60 97 61-19-34-96q-3-10 3-12z" glyph-name="gcommaaccent" horiz-adv-x="589" unicode="&#x123;"/><glyph d="M749 0h-310l11 73 62 7q10 1 13 5t5 15l31 216h-269l-30-215q-2-12 0-15.5t12-4.5l65-8-10-73h-310l10 73 63 7q10 1 13 5t5 15l73 522q2 11-1 15t-13 5l-60 7 10 75h310l-10-75-67-8q-11-2-14-5t-4-14l-26-194h268l27 194q2 12-.5 15.5t-12.5 4.5l-61 7 10 75h310l-10-75-66-8q-11-1-13.5-4t-4.5-15l-73-521q-2-12 0-15.5t13-4.5l65-8zM666 823l-61-56-107 81-129-81-49 56 137 112h104z" glyph-name="Hcircumflex" horiz-adv-x="802" unicode="&#x124;"/><glyph d="M583 0h-214l-2 4 19 108 30 221q6 31 1 49.5t-26 18.5q-46 0-131-71l-32-229q-2-12 .5-15.5t13.5-4.5l50-7-10-74h-273l10 75 44 6q10 2 13.5 5.5t4.5 14.5l76 540q3 17-9 21l-50 17 11 76h204l-44-316 3-2q43 36 60 49.5t52 29 71 15.5q53 0 84.5-32t31.5-90q0-16-4-52l-36-256q-2-12 0-15.5t13-4.5l49-7zM400 823l-61-56-107 81-129-81-49 56 137 112h104z" glyph-name="hcircumflex" horiz-adv-x="620" unicode="&#x125;"/><glyph d="M754 0h-310l11 73 62 7q10 1 13 5t5 15l31 216h-269l-30-215q-2-12 0-15.5t12-4.5l65-8-10-73h-310l10 73 63 7q10 1 13 5t5 15l53 379h-65l14 102h65l6 41q2 11-1 15t-13 5l-60 7 10 75h310l-10-75-67-8q-11-2-14-5t-4-14l-6-46h268l7 46q2 12-.5 15.5t-12.5 4.5l-61 7 10 75h310l-10-75-66-8q-11-1-13.5-4t-4.5-15l-6-41h68l-14-102h-68l-53-378q-2-12 0-15.5t13-4.5l65-8zM313 428h268l9 70h-268z" glyph-name="Hbar" horiz-adv-x="812" unicode="&#x126;"/><glyph d="M257 296l-29-195q-2-12 0-15t13-5l48-7-10-74h-270l10 75 44 6q10 2 13.5 5.5t4.5 14.5l61 436h-61l12 83h61l3 21q3 17-9 21l-50 17 11 76h204l-19-135h165l-12-83h-164l-18-132 3-2q41 35 60 49.5t53.5 29.5 69.5 15q116 0 116-132 0-21-3-42l-33-222q-2-12 0-15.5t13-4.5l49-7-10-74h-214l-2 6 46 293q7 23 1 46t-30 22q-51-1-127-71z" glyph-name="hbar" horiz-adv-x="621" unicode="&#x127;"/><glyph d="M340 0h-329l8 73 73 7q10 1 13 4.5t5 15.5l74 522q2 11-1 15t-13 5l-70 7 10 75h330l-11-75-76-8q-11-1-13.5-4t-4.5-15l-73-521q-2-12 0-15.5t12-4.5l75-8zM468 882l-28-41q-23-33-40-46.5t-39-13.5q-27 0-80 14l-75 20q-10 3-17-4l-35-32-58 39 36 52q31 47 75 47 32 0 97-17 52-14 61-14 10 0 15 6l27 29z" glyph-name="Itilde" horiz-adv-x="382" unicode="&#x128;"/><glyph d="M372 677l-29-41q-22-32-38.5-46t-37.5-14-66 16q-10 3-27.5 8.5t-29.5 9.5-18 5q-8 2-17-7l-35-32-54 37 37 51q35 50 73 50 18 0 52-12 68-24 84-26 6 0 14 6l32 32zM280 0h-216l-2 5 24 135 37 267q3 17-10 21l-49 17 10 76h213l-59-420q-2-12 .5-15.5t13.5-4.5l48-7z" glyph-name="itilde" horiz-adv-x="318" unicode="&#x129;"/><glyph d="M340 0h-329l8 73 73 7q10 1 13 4.5t5 15.5l74 522q2 11-1 15t-13 5l-70 7 10 75h330l-11-75-76-8q-11-1-13.5-4t-4.5-15l-73-521q-2-12 0-15.5t12-4.5l75-8zM445 785h-317l13 100h317z" glyph-name="Imacron" horiz-adv-x="382" unicode="&#x12a;"/><glyph d="M343 596h-291l14 100h291zM280 0h-216l-2 5 24 135 37 267q3 17-10 21l-49 17 10 76h213l-59-420q-2-12 .5-15.5t13.5-4.5l48-7z" glyph-name="imacron" horiz-adv-x="318" unicode="&#x12b;"/><glyph d="M340 0h-329l8 73 73 7q10 1 13 4.5t5 15.5l74 522q2 11-1 15t-13 5l-70 7 10 75h330l-11-75-76-8q-11-1-13.5-4t-4.5-15l-73-521q-2-12 0-15.5t12-4.5l75-8zM393 941l74-28q-51-131-182-131-139 0-153 131l78 27q15-68 82-68 65 0 101 69z" glyph-name="Ibreve" horiz-adv-x="382" unicode="&#x12c;"/><glyph d="M303 734l74-28q-50-137-179-137-132 0-145 137l78 28q14-75 76-75 60 0 96 75zM280 0h-216l-2 5 24 135 37 267q3 17-10 21l-49 17 10 76h213l-59-420q-2-12 .5-15.5t13.5-4.5l48-7z" glyph-name="ibreve" horiz-adv-x="318" unicode="&#x12d;"/><glyph d="M235-133l17-74q-61-27-122-27-95 0-95 74 0 81 114 160h-138l8 73 73 7q10 1 13 4.5t5 15.5l74 522q2 11-1 15t-13 5l-70 7 10 75h330l-11-75-76-8q-11-1-13.5-4t-4.5-15l-73-521q-2-12 0-15.5t12-4.5l75-8-9-73h-92q-92-71-92-119 0-24 25-24 21 0 54 10z" glyph-name="Iogonek" horiz-adv-x="382" unicode="&#x12e;"/><glyph d="M240-133l17-74q-61-27-122-27-95 0-95 74 0 81 114 160h-90l-2 5 24 135 37 267q3 17-10 21l-49 17 10 76h213l-59-420q-2-12 .5-15.5t13.5-4.5l48-7-10-74q-45-24-82-58t-37-61q0-24 25-24 21 0 54 10zM210 601q-37 0-57 20t-20 55q0 48 27 75.5t76 27.5q37 0 57.5-19t20.5-55q0-48-28-76t-76-28z" glyph-name="iogonek" horiz-adv-x="318" unicode="&#x12f;"/><glyph d="M340 0h-329l8 73 73 7q10 1 13 4.5t5 15.5l74 522q2 11-1 15t-13 5l-70 7 10 75h330l-11-75-76-8q-11-1-13.5-4t-4.5-15l-73-521q-2-12 0-15.5t12-4.5l75-8zM389 885q0-47-28.5-75.5t-76.5-28.5q-38 0-59 20t-21 55q0 48 28 75.5t77 27.5q38 0 59-19t21-55z" glyph-name="Idotaccent" horiz-adv-x="382" unicode="&#x130;"/><glyph d="M280 0h-216l-2 5 24 135 37 267q3 17-10 21l-49 17 10 76h213l-59-420q-2-12 .5-15.5t13.5-4.5l48-7z" glyph-name="dotlessi" horiz-adv-x="318" unicode="&#x131;"/><glyph d="M340 0h-329l8 73 73 7q10 1 13 4.5t5 15.5l74 522q2 11-1 15t-13 5l-70 7 10 75h330l-11-75-76-8q-11-1-13.5-4t-4.5-15l-73-521q-2-12 0-15.5t12-4.5l75-8zM636 164l64 459q3 18-14 19l-87 7 10 75h337l-11-75-67-8q-7-1-10-2.5t-4.5-4.5-2.5-11l-65-460q-12-90-61-132.5t-147-42.5q-56 0-107.5 12t-71.5 27l25 178 106-8 1-71q0-12 7-14 16-6 42-6 27 0 39 13t17 45z" glyph-name="IJ" horiz-adv-x="882" unicode="&#x132;"/><glyph d="M210 601q-37 0-57 20t-20 55q0 48 27 75.5t76 27.5q37 0 57.5-19t20.5-55q0-48-28-76t-76-28zM280 0h-216l-2 5 24 135 37 267q3 17-10 21l-49 17 10 76h213l-59-420q-2-12 .5-15.5t13.5-4.5l48-7zM380-28l62 435q1 16-10 21l-51 17 10 76h213l-79-574q-12-89-60.5-129.5t-133.5-40.5q-53 0-96.5 17.5t-59.5 33.5l51 83q40-26 83-26 31 0 47.5 18.5t23.5 68.5zM528 601q-37 0-57.5 20t-20.5 55q0 48 27.5 75.5t75.5 27.5q38 0 58.5-19t20.5-55q0-47-28-75.5t-76-28.5z" glyph-name="ij" horiz-adv-x="633" unicode="&#x133;"/><glyph d="M254 164l64 459q3 18-14 19l-87 7 10 75h337l-11-75-67-8q-7-1-10-2.5t-4.5-4.5-2.5-11l-65-460q-12-90-61-132.5t-147-42.5q-56 0-107.5 12t-71.5 27l25 178 106-8 1-71q0-12 7-14 16-6 42-6 27 0 39 13t17 45zM587 823l-61-56-107 81-129-81-49 56 137 112h104z" glyph-name="Jcircumflex" horiz-adv-x="500" unicode="&#x134;"/><glyph d="M72-28l62 435q1 16-10 21l-52 17 11 76h213l-79-574q-12-89-60.5-129.5t-133.5-40.5q-53 0-96.5 17.5t-59.5 33.5l51 83q40-26 83-26 31 0 47.5 18.5t23.5 68.5zM374 618l-65-52-101 93-129-93-54 52 140 129h104z" glyph-name="jcircumflex" horiz-adv-x="315" unicode="&#x135;"/><glyph d="M710 0h-204l-7 5-35 84-102 209-85-88-16-108q-2-12 0-15.5t12-4.5l66-8-10-74h-310l10 74 62 7q11 1 14.5 4.5t4.5 15.5l73 522q3 18-13 20l-60 7 9 74h310l-9-74-68-8q-11-2-14-5t-4-14l-36-254 269 272-59 8 10 75h257l-10-75-42-7q-20-3-32-17l-210-213 153-309q8-16 27-19l59-10zM333-293l-61 19 34 96q3 10-4 12l-36 13 34 98q61-1 92.5-13.5t31.5-50.5q0-29-30-77z" glyph-name="Kcommaaccent" horiz-adv-x="735" unicode="&#x136;"/><glyph d="M583 0h-188l-3 2-33 110-53 144-63-60-14-95q-2-12 0-15.5t13-4.5l50-7-10-74h-273l9 75 46 6q10 2 13.5 5.5t4.5 14.5l75 540q3 16-10 21l-50 17 11 76h213l-59-425 154 143q38 35 67.5 46.5t65.5 11.5q22 0 58-6l-11-87q-55 3-101-40l-60-56 87-244q6-15 28-18l44-7zM274-293l-61 19 34 96q3 10-4 12l-36 13 34 98q61-1 92.5-13.5t31.5-50.5q0-29-30-77z" glyph-name="kcommaaccent" horiz-adv-x="608" unicode="&#x137;"/><glyph d="M583 0h-188l-3 2-33 110-53 144-63-60-14-95q-2-12 0-15.5t13-4.5l50-7-10-74h-273l9 75 46 6q10 2 13.5 5.5t4.5 14.5l43 306q3 16-10 21l-50 17 11 76h213l-27-191 154 143q38 35 67.5 46.5t65.5 11.5q22 0 58-6l-11-87q-55 3-101-40l-60-56 87-244q6-15 28-18l44-7z" glyph-name="kgreenlandic" horiz-adv-x="608" unicode="&#x138;"/><glyph d="M562 0h-543l10 74 62 7q11 2 14.5 5.5t4.5 14.5l73 522q2 11-.5 15t-12.5 5l-60 7 8 74h327l-10-74-83-8q-10-1-13-4.5t-5-14.5l-72-516h176q14 0 18 11l29 100h107zM418 852l-225-85-32 71 212 117z" glyph-name="Lacute" horiz-adv-x="607" unicode="&#x139;"/><glyph d="M279 0h-216l-3 5 24 135 71 501q3 17-10 21l-50 17 11 76h213l-92-654q-2-12 0-15.5t13-4.5l48-7zM364 872l-225-85-32 71 212 117z" glyph-name="lacute" horiz-adv-x="318" unicode="&#x13a;"/><glyph d="M562 0h-543l10 74 62 7q11 2 14.5 5.5t4.5 14.5l73 522q2 11-.5 15t-12.5 5l-60 7 8 74h327l-10-74-83-8q-10-1-13-4.5t-5-14.5l-72-516h176q14 0 18 11l29 100h107zM259-293l-61 19 34 96q3 10-4 12l-36 13 34 98q61-1 92.5-13.5t31.5-50.5q0-29-30-77z" glyph-name="Lcommaaccent" horiz-adv-x="607" unicode="&#x13b;"/><glyph d="M279 0h-216l-3 5 24 135 71 501q3 17-10 21l-50 17 11 76h213l-92-654q-2-12 0-15.5t13-4.5l48-7zM136-293l-61 19 34 96q3 10-4 12l-36 13 34 98q61-1 92.5-13.5t31.5-50.5q0-29-30-77z" glyph-name="lcommaaccent" horiz-adv-x="318" unicode="&#x13c;"/><glyph d="M562 0h-543l10 74 62 7q11 2 14.5 5.5t4.5 14.5l73 522q2 11-.5 15t-12.5 5l-60 7 8 74h327l-10-74-83-8q-10-1-13-4.5t-5-14.5l-72-516h176q14 0 18 11l29 100h107zM542 500l-69 29q38 84 38 134 0 17-9 47l98 34q28-30 28-54 0-27-14-59-14-35-72-131z" glyph-name="Lcaron" horiz-adv-x="607" unicode="&#x13d;"/><glyph d="M279 0h-216l-3 5 24 135 71 501q3 17-10 21l-50 17 11 76h213l-92-654q-2-12 0-15.5t13-4.5l48-7zM399 527l-69 29q38 84 38 134 0 17-9 47l98 34q28-30 28-54 0-27-14-59-14-35-72-131z" glyph-name="lcaron" horiz-adv-x="428" unicode="&#x13e;"/><glyph d="M562 0h-543l10 74 62 7q11 2 14.5 5.5t4.5 14.5l73 522q2 11-.5 15t-12.5 5l-60 7 8 74h327l-10-74-83-8q-10-1-13-4.5t-5-14.5l-72-516h176q14 0 18 11l29 100h107zM615 417q0-45-27-72t-74-27q-36 0-56 19t-20 53q0 46 26.5 72t73.5 26q37 0 57-18.5t20-52.5z" glyph-name="Ldot" horiz-adv-x="607" unicode="&#x13f;"/><glyph d="M279 0h-216l-3 5 24 135 71 501q3 17-10 21l-50 17 11 76h213l-92-654q-2-12 0-15.5t13-4.5l48-7zM391 312q-35 0-54 18.5t-19 52.5q0 45 26 71.5t72 26.5q35 0 54.5-18.5t19.5-52.5q0-45-26.5-71.5t-72.5-26.5z" glyph-name="ldot" horiz-adv-x="425" unicode="&#x140;"/><glyph d="M562 0h-543l10 74 62 7q11 2 14.5 5.5t4.5 14.5l24 175-95-36 16 111 95 37 33 235q2 11-.5 15t-12.5 5l-60 7 8 74h327l-10-74-83-8q-10-1-13-4.5t-5-14.5l-27-189 193 75-16-113-192-74-30-215h176q14 0 18 11l29 100h107z" glyph-name="Lslash" horiz-adv-x="597" unicode="&#x141;"/><glyph d="M279 0h-216l-3 5 24 135 25 176-72-30 15 112 73 30 30 213q3 17-10 21l-50 17 11 76h213l-40-284 77 32-16-112-77-32-36-258q-2-12 0-15.5t13-4.5l48-7z" glyph-name="lslash" horiz-adv-x="324" unicode="&#x142;"/><glyph d="M682 0h-160l-240 525-59-424q-2-12 .5-15.5t12.5-4.5l65-8-9-73h-273l9 73 63 7q11 2 14.5 5.5t4.5 14.5l73 523q2 12-.5 15.5t-12.5 4.5l-60 7 8 74h243l236-526 60 424q2 11-.5 15t-12.5 5l-61 7 9 75h272l-10-75-67-8q-7-1-10-2.5t-4.5-5-2.5-11.5zM645 852l-225-85-32 71 212 117z" glyph-name="Nacute" horiz-adv-x="812" unicode="&#x143;"/><glyph d="M584 0h-216l-2 3 22 122 29 208q6 31 .5 50t-26.5 19q-48 0-130-72l-31-229q-2-12 0-15.5t13-4.5l50-7-10-74h-274l10 75 44 6q10 2 13.5 5.5t4.5 14.5l42 305q3 17-9 21l-49 18 11 76h198l-11-82 3-1q36 31 58 47t57.5 31 72.5 15q114 0 118-119 0-30-4-55l-36-256q-2-12 0-15.5t12-4.5l50-7zM501 697l-186-136-55 58 164 163z" glyph-name="nacute" horiz-adv-x="620" unicode="&#x144;"/><glyph d="M682 0h-160l-240 525-59-424q-2-12 .5-15.5t12.5-4.5l65-8-9-73h-273l9 73 63 7q11 2 14.5 5.5t4.5 14.5l73 523q2 12-.5 15.5t-12.5 4.5l-60 7 8 74h243l236-526 60 424q2 11-.5 15t-12.5 5l-61 7 9 75h272l-10-75-67-8q-7-1-10-2.5t-4.5-5-2.5-11.5zM360-293l-61 19 34 96q5 9-3 12l-37 13 34 98q61-1 92.5-13.5t31.5-50.5q0-29-30-77z" glyph-name="Ncommaaccent" horiz-adv-x="812" unicode="&#x145;"/><glyph d="M584 0h-216l-2 3 22 122 29 208q6 31 .5 50t-26.5 19q-48 0-130-72l-31-229q-2-12 0-15.5t13-4.5l50-7-10-74h-274l10 75 44 6q10 2 13.5 5.5t4.5 14.5l42 305q3 17-9 21l-49 18 11 76h198l-11-82 3-1q36 31 58 47t57.5 31 72.5 15q114 0 118-119 0-30-4-55l-36-256q-2-12 0-15.5t12-4.5l50-7zM274-293l-61 19 34 96q3 10-4 12l-36 13 34 98q61-1 92.5-13.5t31.5-50.5q0-29-30-77z" glyph-name="ncommaaccent" horiz-adv-x="620" unicode="&#x146;"/><glyph d="M682 0h-160l-240 525-59-424q-2-12 .5-15.5t12.5-4.5l65-8-9-73h-273l9 73 63 7q11 2 14.5 5.5t4.5 14.5l73 523q2 12-.5 15.5t-12.5 4.5l-60 7 8 74h243l236-526 60 424q2 11-.5 15t-12.5 5l-61 7 9 75h272l-10-75-67-8q-7-1-10-2.5t-4.5-5-2.5-11.5zM675 890l-136-111h-104l-106 111 60 57 107-81 130 81z" glyph-name="Ncaron" horiz-adv-x="812" unicode="&#x147;"/><glyph d="M584 0h-216l-2 3 22 122 29 208q6 31 .5 50t-26.5 19q-48 0-130-72l-31-229q-2-12 0-15.5t13-4.5l50-7-10-74h-274l10 75 44 6q10 2 13.5 5.5t4.5 14.5l42 305q3 17-9 21l-49 18 11 76h198l-11-82 3-1q36 31 58 47t57.5 31 72.5 15q114 0 118-119 0-30-4-55l-36-256q-2-12 0-15.5t12-4.5l50-7zM554 711l-141-129h-104l-104 129 64 52 102-93 128 93z" glyph-name="ncaron" horiz-adv-x="620" unicode="&#x148;"/><glyph d="M602 0h-216l-2 3 22 122 29 208q6 31 .5 50t-26.5 19q-48 0-130-72l-31-229q-2-12 0-15.5t13-4.5l50-7-10-74h-274l10 75 44 6q10 2 13.5 5.5t4.5 14.5l42 305q3 17-9 21l-49 18 11 76h198l-11-82 3-1q36 31 58 47t57.5 31 72.5 15q114 0 118-119 0-30-4-55l-36-256q-2-12 0-15.5t12-4.5l50-7zM46 498l-49 19 30 76q3 8-3 10l-30 10 27 77q47 0 72.5-10t25.5-40q0-26-22-60z" glyph-name="napostrophe" horiz-adv-x="638" unicode="&#x149;"/><glyph d="M679-21q-5-33-10-52-15-77-69.5-113.5t-135.5-36.5q-55 0-104.5 18.5t-64.5 33.5l51 83q13-9 41.5-18t53.5-9q77 0 89 87l4 28-252 525-59-424q-2-12 .5-15.5t12.5-4.5l65-8-9-73h-273l9 73 63 7q16 1 19 22l73 521q2 12-.5 15.5t-12.5 4.5l-60 7 8 74h243l238-513 58 411q1 11-1 14.5t-12 5.5l-61 7 9 75h272l-10-75-67-8q-15-1-18-20z" glyph-name="Eng" horiz-adv-x="812" unicode="&#x14a;"/><glyph d="M366-28l50 361q3 18 3 32 0 37-30 37-46 0-129-72l-31-229q-2-8-.5-12t4-5 10.5-3l47-7-10-74h-271l10 75 44 6q10 2 13.5 5.5t4.5 14.5l42 305q3 18-9 21l-49 18 11 76h198l-11-82 3-1q36 31 58 47t57.5 31 72.5 15q114 0 118-119 0-30-4-55l-57-410q-13-81-52-121.5t-109-46.5q-24-1-49 0-49 2-88 18.5t-52 30.5l51 83q40-26 82-26 32 0 48.5 18t23.5 69z" glyph-name="eng" horiz-adv-x="619" unicode="&#x14b;"/><glyph d="M352-12q-151 0-222 78.5t-71 219.5q0 198 106.5 324.5t302.5 126.5q148 0 219.5-80t71.5-212q0-214-107.5-335.5t-299.5-121.5zM375 111q95 0 155 72t69 227q0 39-2 56-17 148-147 148-74 0-128-46t-78-113-24-145q0-34 3-54 19-145 152-145zM633 785h-317l13 100h317z" glyph-name="Omacron" horiz-adv-x="757" unicode="&#x14c;"/><glyph d="M269-12q-114 0-171 57.5t-57 157.5q0 148 80 238t223 90q118 0 170.5-58t52.5-154q0-151-76.5-241t-221.5-90zM281 93q57 0 93 54t36 170q0 106-83 106-57 0-94.5-52.5t-37.5-167.5q0-110 86-110zM516 599h-317l14 100h317z" glyph-name="omacron" horiz-adv-x="578" unicode="&#x14d;"/><glyph d="M352-12q-151 0-222 78.5t-71 219.5q0 198 106.5 324.5t302.5 126.5q148 0 219.5-80t71.5-212q0-214-107.5-335.5t-299.5-121.5zM375 111q95 0 155 72t69 227q0 39-2 56-17 148-147 148-74 0-128-46t-78-113-24-145q0-34 3-54 19-145 152-145zM581 941l74-28q-51-131-182-131-139 0-153 131l78 27q15-68 82-68 65 0 101 69z" glyph-name="Obreve" horiz-adv-x="757" unicode="&#x14e;"/><glyph d="M269-12q-114 0-171 57.5t-57 157.5q0 148 80 238t223 90q118 0 170.5-58t52.5-154q0-151-76.5-241t-221.5-90zM281 93q57 0 93 54t36 170q0 106-83 106-57 0-94.5-52.5t-37.5-167.5q0-110 86-110zM465 737l74-28q-53-137-189-137-141 0-155 137l78 28q16-75 86-75 66 0 106 75z" glyph-name="obreve" horiz-adv-x="578" unicode="&#x14f;"/><glyph d="M352-12q-151 0-222 78.5t-71 219.5q0 198 106.5 324.5t302.5 126.5q148 0 219.5-80t71.5-212q0-214-107.5-335.5t-299.5-121.5zM375 111q95 0 155 72t69 227q0 39-2 56-17 148-147 148-74 0-128-46t-78-113-24-145q0-34 3-54 19-145 152-145zM544 913l-176-152-57 53 157 174zM737 899l-189-137-47 51 165 164z" glyph-name="Ohungarumlaut" horiz-adv-x="757" unicode="&#x150;"/><glyph d="M269-12q-114 0-171 57.5t-57 157.5q0 148 80 238t223 90q118 0 170.5-58t52.5-154q0-151-76.5-241t-221.5-90zM281 93q57 0 93 54t36 170q0 106-83 106-57 0-94.5-52.5t-37.5-167.5q0-110 86-110zM419 710l-179-150-55 51 153 174zM612 710l-178-150-56 51 155 173z" glyph-name="ohungarumlaut" horiz-adv-x="578" unicode="&#x151;"/><glyph d="M944 0h-505q-47-12-100-12-140 0-211.5 85t-71.5 226q0 192 99.5 315t274.5 123q58 0 103-13h489l-28-202-106 5-3 76q0 13-16 13h-215q47-72 47-197h216l-15-111h-207q-20-124-89-201h215q14 0 18 11l27 88h106zM360 111q94 0 145.5 75.5t51.5 233.5q0 194-142 194-91 0-146.5-77.5t-55.5-231.5q0-194 147-194z" glyph-name="OE" horiz-adv-x="1002" unicode="&#x152;"/><glyph d="M793 136l22-98q-85-40-163-47-27-3-59-1-51 4-87.5 27t-53.5 56q-71-85-198-85-107 0-160.5 59t-53.5 162q0 144 75.5 233t210.5 89q128 0 179-89 77 89 192 89 79 0 119.5-34.5t40.5-97.5q0-51-28-90t-75.5-61-97.5-33.5-107-16.5q3-47 25-72.5t74-25.5q58 0 145 36zM279 93q61 0 96 53.5t35 164.5q0 112-84 112-132 0-132-213 0-117 85-117zM555 295q165 23 165 88 0 40-48 40-42 0-74-34.5t-43-93.5z" glyph-name="oe" horiz-adv-x="867" unicode="&#x153;"/><glyph d="M653 0h-206l-6 5-55 246q-5 24-15.5 34.5t-35.5 10.5h-47l-27-193q-2-12 0-15.5t12-4.5l59-8-9-75h-303l9 75 63 7q10 1 13 4.5t5 15.5l74 521q3 18-13 20l-60 7 8 74h328q108 0 158.5-49.5t50.5-127.5q0-151-158-215 19-10 29-28t17-52l33-148q4-18 25-21l61-8zM303 400h45q150 0 150 128 0 47-28 67t-89 20h-49zM543 852l-225-85-32 71 212 117z" glyph-name="Racute" horiz-adv-x="673" unicode="&#x154;"/><glyph d="M329 0h-320l10 75 46 6q10 1 13 5t5 15l42 305q2 17-10 21l-50 18 11 76h198l-13-90 3-2q71 102 159 102 46 0 77-9l-25-182-117 4-3 52q-1 12-11 12-28 0-78-52l-35-254q-2-12 .5-15.5t13.5-4.5l95-8zM453 697l-186-136-55 58 164 163z" glyph-name="racute" horiz-adv-x="470" unicode="&#x155;"/><glyph d="M653 0h-206l-6 5-55 246q-5 24-15.5 34.5t-35.5 10.5h-47l-27-193q-2-12 0-15.5t12-4.5l59-8-9-75h-303l9 75 63 7q10 1 13 4.5t5 15.5l74 521q3 18-13 20l-60 7 8 74h328q108 0 158.5-49.5t50.5-127.5q0-151-158-215 19-10 29-28t17-52l33-148q4-18 25-21l61-8zM303 400h45q150 0 150 128 0 47-28 67t-89 20h-49zM319-293l-61 19 34 96q5 9-3 12l-37 13 34 98q61-1 92.5-13.5t31.5-50.5q0-29-30-77z" glyph-name="Rcommaaccent" horiz-adv-x="673" unicode="&#x156;"/><glyph d="M329 0h-320l10 75 46 6q10 1 13 5t5 15l42 305q2 17-10 21l-50 18 11 76h198l-13-90 3-2q71 102 159 102 46 0 77-9l-25-182-117 4-3 52q-1 12-11 12-28 0-78-52l-35-254q-2-12 .5-15.5t13.5-4.5l95-8zM130-293l-61 19 34 96q3 10-4 12l-36 13 34 98q61-1 92.5-13.5t31.5-50.5q0-29-30-77z" glyph-name="rcommaaccent" horiz-adv-x="470" unicode="&#x157;"/><glyph d="M653 0h-206l-6 5-55 246q-5 24-15.5 34.5t-35.5 10.5h-47l-27-193q-2-12 0-15.5t12-4.5l59-8-9-75h-303l9 75 63 7q10 1 13 4.5t5 15.5l74 521q3 18-13 20l-60 7 8 74h328q108 0 158.5-49.5t50.5-127.5q0-151-158-215 19-10 29-28t17-52l33-148q4-18 25-21l61-8zM303 400h45q150 0 150 128 0 47-28 67t-89 20h-49zM579 890l-136-111h-104l-106 111 60 57 107-81 130 81z" glyph-name="Rcaron" horiz-adv-x="673" unicode="&#x158;"/><glyph d="M329 0h-320l10 75 46 6q10 1 13 5t5 15l42 305q2 17-10 21l-50 18 11 76h198l-13-90 3-2q71 102 159 102 46 0 77-9l-25-182-117 4-3 52q-1 12-11 12-28 0-78-52l-35-254q-2-12 .5-15.5t13.5-4.5l95-8zM490 711l-141-129h-104l-104 129 64 52 102-93 128 93z" glyph-name="rcaron" horiz-adv-x="470" unicode="&#x159;"/><glyph d="M577 501l-109 9-2 86q0 18-13 21-17 5-58 5-55 0-93-24t-38-68q0-16 7.5-29.5t16-22 29-18.5 31.5-14 39-14q31-11 50.5-19.5t46-25 42-36 26.5-50 11-68.5q0-122-85-183.5t-219-61.5q-64 0-129.5 13t-94.5 28l27 195h109l7-94q1-17 18-22 32-8 77-8 137 0 137 104 0 39-27.5 59.5t-83.5 40.5q-88 31-120 53-68 49-68 142 0 116 83 177t212 61q102 0 198-41zM540 852l-225-85-32 71 212 117z" glyph-name="Sacute" horiz-adv-x="588" unicode="&#x15a;"/><glyph d="M457 357l-104 6-2 52q0 13-12 16-20 5-56 5-75 0-75-48 0-22 18.5-33.5t60.5-25.5q32-11 45.5-16t41.5-19.5 40.5-28.5 24-39 11.5-55q0-92-67-137.5t-170-45.5q-64 0-120 12t-71 23l19 145 102-6 3-58q0-12 11-16 27-9 71-9 41 0 63.5 14.5t22.5 40.5q0 19-14 32t-28 18-52 16q-34 10-55 19t-46 26.5-37 45-12 64.5q0 87 65 131.5t165 44.5q108 0 177-29zM440 697l-186-136-55 58 164 163z" glyph-name="sacute" horiz-adv-x="478" unicode="&#x15b;"/><glyph d="M577 501l-109 9-2 86q0 18-13 21-17 5-58 5-55 0-93-24t-38-68q0-16 7.5-29.5t16-22 29-18.5 31.5-14 39-14q31-11 50.5-19.5t46-25 42-36 26.5-50 11-68.5q0-122-85-183.5t-219-61.5q-64 0-129.5 13t-94.5 28l27 195h109l7-94q1-17 18-22 32-8 77-8 137 0 137 104 0 39-27.5 59.5t-83.5 40.5q-88 31-120 53-68 49-68 142 0 116 83 177t212 61q102 0 198-41zM579 823l-61-56-107 81-129-81-49 56 137 112h104z" glyph-name="Scircumflex" horiz-adv-x="588" unicode="&#x15c;"/><glyph d="M457 357l-104 6-2 52q0 13-12 16-20 5-56 5-75 0-75-48 0-22 18.5-33.5t60.5-25.5q32-11 45.5-16t41.5-19.5 40.5-28.5 24-39 11.5-55q0-92-67-137.5t-170-45.5q-64 0-120 12t-71 23l19 145 102-6 3-58q0-12 11-16 27-9 71-9 41 0 63.5 14.5t22.5 40.5q0 19-14 32t-28 18-52 16q-34 10-55 19t-46 26.5-37 45-12 64.5q0 87 65 131.5t165 44.5q108 0 177-29zM480 614l-65-52-101 93-129-93-54 52 140 129h104z" glyph-name="scircumflex" horiz-adv-x="478" unicode="&#x15d;"/><glyph d="M162-248l16 69q12-4 35-4 27 0 46 11.5t19 36.5q0 38-61 40l22 83q-61 2-119.5 14.5t-84.5 26.5l27 195h109l7-94q1-17 18-22 32-8 77-8 137 0 137 104 0 39-27.5 59.5t-83.5 40.5q-88 31-120 53-68 49-68 142 0 116 83 177t212 61q102 0 198-41l-27-195-109 9-2 86q0 18-13 21-17 5-58 5-55 0-93-24t-38-68q0-16 7.5-29.5t16-22 29-18.5 31.5-14 39-14q31-11 50.5-19.5t46-25 42-36 26.5-50 11-68.5q0-110-68.5-170.5t-182.5-71.5l-9-36q70-20 70-87 0-58-44-91t-105-33q-46 0-62 8z" glyph-name="Scedilla" horiz-adv-x="588" unicode="&#x15e;"/><glyph d="M102-248l16 69q12-4 35-4 27 0 46 11.5t19 36.5q0 38-61 40l23 84q-56 3-101 14t-57 20l19 145 102-6 3-58q0-12 11-16 27-9 71-9 41 0 63.5 14.5t22.5 40.5q0 19-14 32t-28 18-52 16q-34 10-55 19t-46 26.5-37 45-12 64.5q0 87 65 131.5t165 44.5q108 0 177-29l-20-145-104 6-2 52q0 13-12 16-20 5-56 5-75 0-75-48 0-22 18.5-33.5t60.5-25.5q32-11 45.5-16t41.5-19.5 40.5-28.5 24-39 11.5-55q0-83-54.5-128t-143.5-53l-9-35q70-20 70-87 0-58-44-91t-105-33q-46 0-62 8z" glyph-name="scedilla" horiz-adv-x="478" unicode="&#x15f;"/><glyph d="M577 501l-109 9-2 86q0 18-13 21-17 5-58 5-55 0-93-24t-38-68q0-16 7.5-29.5t16-22 29-18.5 31.5-14 39-14q31-11 50.5-19.5t46-25 42-36 26.5-50 11-68.5q0-122-85-183.5t-219-61.5q-64 0-129.5 13t-94.5 28l27 195h109l7-94q1-17 18-22 32-8 77-8 137 0 137 104 0 39-27.5 59.5t-83.5 40.5q-88 31-120 53-68 49-68 142 0 116 83 177t212 61q102 0 198-41zM590 890l-136-111h-104l-106 111 60 57 107-81 130 81z" glyph-name="Scaron" horiz-adv-x="588" unicode="&#x160;"/><glyph d="M457 357l-104 6-2 52q0 13-12 16-20 5-56 5-75 0-75-48 0-22 18.5-33.5t60.5-25.5q32-11 45.5-16t41.5-19.5 40.5-28.5 24-39 11.5-55q0-92-67-137.5t-170-45.5q-64 0-120 12t-71 23l19 145 102-6 3-58q0-12 11-16 27-9 71-9 41 0 63.5 14.5t22.5 40.5q0 19-14 32t-28 18-52 16q-34 10-55 19t-46 26.5-37 45-12 64.5q0 87 65 131.5t165 44.5q108 0 177-29zM502 711l-141-129h-104l-104 129 64 52 102-93 128 93z" glyph-name="scaron" horiz-adv-x="478" unicode="&#x161;"/><glyph d="M205-248l16 69q12-4 35-4 27 0 46 11.5t19 36.5q0 38-61 40l26 95h-155l11 74 101 7q10 1 13 5t5 15l71 514h-102q-13 0-16-11l-28-87h-107l28 207h631l-28-207h-106l-4 87q-1 7-3.5 9t-10.5 2h-102l-71-514q-2-11 0-14.5t12-4.5l108-9-10-73h-165l-12-45q70-20 70-87 0-58-44-91t-105-33q-46 0-62 8z" glyph-name="uni0162" horiz-adv-x="680" unicode="&#x162;"/><glyph d="M99-248l16 69q12-4 35-4 27 0 46 11.5t19 36.5q0 38-61 40l23 87q-49 7-71.5 34.5t-22.5 78.5q0 20 3 44l36 262q2 10-6 10h-69l13 92q64 7 99.5 43t54.5 117h93l-20-142q-1-10 7-10h138l-14-100h-146l-33-239q-3-20-3-32 0-27 13-38.5t45-11.5q37 0 80 16l18-89q-67-32-143-38l-9-34q70-20 70-87 0-58-44-91t-105-33q-46 0-62 8z" glyph-name="uni0163" horiz-adv-x="425" unicode="&#x163;"/><glyph d="M523 0h-392l11 74 101 7q10 1 13 5t5 15l71 514h-102q-13 0-16-11l-28-87h-107l28 207h631l-28-207h-106l-4 87q-1 7-3.5 9t-10.5 2h-102l-71-514q-2-11 0-14.5t12-4.5l108-9zM613 890l-136-111h-104l-106 111 60 57 107-81 130 81z" glyph-name="Tcaron" horiz-adv-x="680" unicode="&#x164;"/><glyph d="M374 116l18-89q-82-39-167-39-75 0-108.5 27.5t-33.5 89.5q0 20 3 44l36 262q2 10-6 10h-69l13 92q64 7 99.5 43t54.5 117h93l-20-142q-1-10 7-10h138l-14-100h-146l-33-239q-3-20-3-32 0-27 13-38.5t45-11.5q37 0 80 16zM414 553l-67 28q37 84 37 131 0 16-9 46l96 33q28-30 28-53 0-26-14-57-18-42-71-128z" glyph-name="tcaron" horiz-adv-x="425" unicode="&#x165;"/><glyph d="M523 0h-392l11 74 101 7q10 1 13 5t5 15l26 191h-112l15 101h111l31 222h-102q-13 0-16-11l-28-87h-107l28 207h631l-28-207h-106l-4 87q-1 7-3.5 9t-10.5 2h-102l-31-222h116l-15-101h-115l-26-191q-2-11 0-14.5t12-4.5l108-9z" glyph-name="Tbar" horiz-adv-x="680" unicode="&#x166;"/><glyph d="M374 116l18-89q-82-39-167-39-75 0-108.5 27.5t-33.5 89.5q0 20 3 44l10 74h-72l13 99h72l13 89q2 10-6 10h-69l13 92q64 7 99.5 43t54.5 117h93l-20-142q-1-10 7-10h138l-14-100h-146l-14-99h146l-14-99h-146l-5-41q-3-20-3-32 0-27 13-38.5t45-11.5q37 0 80 16z" glyph-name="tbar" horiz-adv-x="425" unicode="&#x167;"/><glyph d="M555 287l47 336q2 11-.5 15t-12.5 5l-61 7 10 74h290l-10-74-68-8q-11-1-13.5-4.5t-3.5-14.5l-51-364q-20-141-95.5-206t-209.5-65q-129 0-192.5 52.5t-63.5 160.5q0 25 5 62l49 360q3 19-12 20l-61 7 10 74h310l-10-74-67-8q-11-1-13.5-4t-4.5-15l-47-335q-6-39-6-70 0-56 27-81.5t88-25.5q78 0 115.5 40.5t50.5 135.5zM666 882l-28-41q-23-33-40-46.5t-39-13.5q-27 0-80 14l-75 20q-10 3-17-4l-35-32-58 39 36 52q31 47 75 47 32 0 97-17 52-14 61-14 10 0 15 6l27 29z" glyph-name="Utilde" horiz-adv-x="774" unicode="&#x168;"/></font>
</defs>
</svg>
