<?xml version="1.0" standalone="no"?>
<!DOCTYPE svg PUBLIC "-//W3C//DTD SVG 1.1//EN" "http://www.w3.org/Graphics/SVG/1.1/DTD/svg11.dtd" >
<svg xmlns="http://www.w3.org/2000/svg" xmlns:xlink="http://www.w3.org/1999/xlink" version="1.1">
<metadata>
Created by FontForge 20170731 at Mon May 11 18:17:53 2009
 By Aleksey,,,
Copyright (c) 2009 by TypeTogether. All rights reserved.
</metadata>
<defs>
<font id="Adelle-SemiBold" horiz-adv-x="570" >
  <font-face 
    font-family="Adelle SB"
    font-weight="600"
    font-stretch="normal"
    units-per-em="1000"
    panose-1="2 0 5 3 0 0 0 2 0 4"
    ascent="755"
    descent="-245"
    x-height="517"
    cap-height="724"
    bbox="-150 -292 1275 980"
    underline-thickness="50"
    underline-position="-200"
    unicode-range="U+0020-FB06"
  />
<missing-glyph horiz-adv-x="500" 
 />
    <glyph glyph-name="ff" unicode="ff" horiz-adv-x="746" 
d="M689 0h-327v65l61 6q10 1 13 4.5t3 15.5v334q0 10 -8 10h-204v-341q0 -12 2.5 -15.5t13.5 -4.5l79 -10v-64h-287v65l61 6q10 1 13 4.5t3 15.5v334q0 10 -8 10h-70v82h78v52q0 182 204 182q111 0 156 -46q48 61 162 61q75 0 118 -27.5t44 -101.5l-107 -13q0 37 -13.5 49.5
t-46.5 12.5q-45 0 -60 -22.5t-15 -69.5v-67q0 -10 8 -10h161v-82h-169v-341q0 -12 2.5 -15.5t13.5 -4.5l119 -10v-64zM227 527q0 -10 8 -10h204v58q0 51 -28 73.5t-85 22.5q-61 0 -80 -22t-19 -70v-52z" />
    <glyph glyph-name="fi" unicode="fi" horiz-adv-x="645" 
d="M629 0h-266v63l63 8q9 1 11 5t2 14v331q0 9 -2 11.5t-11 2.5h-199v-343q0 -11 2.5 -14.5t13.5 -4.5l76 -9v-64h-284v64l61 7q11 1 13.5 5t2.5 14v335q0 10 -8 10h-70v82h78v65q0 100 55 142t181 42q49 0 79 -4t59 -17t43 -41.5t15 -74.5l-109 -13q-1 45 -18 57.5
t-74 12.5q-68 0 -92 -20.5t-24 -72.5v-65q0 -5 0.5 -7t2.5 -3t7 -1h317v-426q0 -12 2.5 -15.5t13.5 -4.5l59 -7v-64z" />
    <glyph glyph-name="fl" unicode="fl" horiz-adv-x="645" 
d="M626 0h-260v63l57 8q10 1 13 5t3 15v536q0 37 -17.5 48t-75.5 11q-73 0 -96 -22.5t-23 -76.5v-60q0 -10 8 -10h151v-82h-159v-341q0 -12 2.5 -15.5t13.5 -4.5l79 -10v-64h-287v65l61 6q10 1 13 4.5t3 15.5v334q0 10 -8 10h-70v82h78v61q0 103 53.5 145.5t189.5 42.5
q45 0 69 -1.5t53.5 -9.5t43 -24t23.5 -45t10 -73v-522q0 -12 2.5 -15.5t13.5 -4.5l56 -7v-64z" />
    <glyph glyph-name="ffi" unicode="ffi" horiz-adv-x="973" 
d="M956 0h-266v63l63 8q9 1 11 5t2 14v331q0 9 -2 11.5t-11 2.5h-199v-343q0 -11 2.5 -14.5t13.5 -4.5l76 -9v-64h-284v64l61 7q11 1 13.5 5t2.5 14v335q0 10 -8 10h-204v-341q0 -12 2.5 -15.5t13.5 -4.5l79 -10v-64h-287v65l61 6q10 1 13 4.5t3 15.5v334q0 10 -8 10h-70v82
h78v52q0 182 204 182q114 0 158 -47q52 62 201 62q49 0 79 -4t59 -17t43 -41.5t15 -74.5l-109 -13q-1 45 -18 57.5t-74 12.5q-68 0 -92 -20.5t-24 -72.5v-65q0 -5 0.5 -7t2.5 -3t7 -1h317v-426q0 -12 2.5 -15.5t13.5 -4.5l59 -7v-64zM227 527q0 -10 8 -10h204v58
q0 51 -28 73.5t-85 22.5q-61 0 -80 -22t-19 -70v-52z" />
    <glyph glyph-name="ffl" unicode="ffl" horiz-adv-x="973" 
d="M953 0h-260v63l57 8q10 1 13 5t3 15v536q0 37 -17.5 48t-75.5 11q-73 0 -96 -22.5t-23 -76.5v-60q0 -10 8 -10h151v-82h-159v-341q0 -12 2.5 -15.5t13.5 -4.5l79 -10v-64h-287v65l61 6q10 1 13 4.5t3 15.5v334q0 10 -8 10h-204v-341q0 -12 2.5 -15.5t13.5 -4.5l79 -10
v-64h-287v65l61 6q10 1 13 4.5t3 15.5v334q0 10 -8 10h-70v82h78v52q0 182 204 182q113 0 157 -47q50 62 209 62q45 0 69 -1.5t53.5 -9.5t43 -24t23.5 -45t10 -73v-522q0 -12 2.5 -15.5t13.5 -4.5l56 -7v-64zM227 527q0 -10 8 -10h204v58q0 51 -28 73.5t-85 22.5
q-61 0 -80 -22t-19 -70v-52z" />
    <glyph glyph-name="fk" unicode="fk" horiz-adv-x="942" 
d="M554 613v-317l201 221h122v-64l-55 -11q-13 -2 -25 -15l-83 -91l142 -247q9 -15 30 -17l48 -9v-63h-256v63l57 9l-109 191l-72 -80v-92q0 -12 2.5 -15.5t13.5 -4.5l56 -7v-64h-260v63l57 8q10 1 13 5t3 15v536q0 37 -17.5 48t-75.5 11q-73 0 -96 -22.5t-23 -76.5v-60
q0 -10 8 -10h151v-82h-159v-341q0 -12 2.5 -15.5t13.5 -4.5l79 -10v-64h-287v65l61 6q10 1 13 4.5t3 15.5v334q0 10 -8 10h-70v82h78v61q0 103 53.5 145.5t189.5 42.5q45 0 69 -1.5t53.5 -9.5t43 -24t23.5 -45t10 -73z" />
    <glyph glyph-name="fb" unicode="fb" horiz-adv-x="948" 
d="M554 613v-142q89 56 164 56q88 0 139.5 -61.5t51.5 -190.5q0 -148 -56.5 -217.5t-156.5 -69.5q-90 0 -149 59h-4l-6 -47h-111q13 74 13 144v483q0 37 -17.5 48t-75.5 11q-73 0 -96 -22.5t-23 -76.5v-60q0 -10 8 -10h151v-82h-159v-341q0 -12 2.5 -15.5t13.5 -4.5l79 -10
v-64h-287v65l61 6q10 1 13 4.5t3 15.5v334q0 10 -8 10h-70v82h78v61q0 103 53.5 145.5t189.5 42.5q45 0 69 -1.5t53.5 -9.5t43 -24t23.5 -45t10 -73zM554 387v-249q61 -57 124 -57q112 0 112 187q0 81 -28 123t-80 42q-62 0 -128 -46z" />
    <glyph glyph-name="fh" unicode="fh" horiz-adv-x="968" 
d="M554 613v-150q94 64 172 64q151 0 151 -181v-255q0 -12 2.5 -15.5t13.5 -4.5l55 -7v-64h-250v63l47 7q11 1 14 5.5t3 15.5v232q0 22 -2 38t-8.5 34t-22 28t-38.5 10q-60 0 -137 -54v-288q0 -12 2.5 -15.5t13.5 -4.5l53 -7v-64h-248v63l48 8q10 1 13 5t3 15v536
q0 37 -17.5 48t-75.5 11q-73 0 -96 -22.5t-23 -76.5v-60q0 -10 8 -10h151v-82h-159v-341q0 -12 2.5 -15.5t13.5 -4.5l79 -10v-64h-287v65l61 6q10 1 13 4.5t3 15.5v334q0 10 -8 10h-70v82h78v61q0 103 53.5 145.5t189.5 42.5q45 0 69 -1.5t53.5 -9.5t43 -24t23.5 -45t10 -73
z" />
    <glyph glyph-name="ft" unicode="ft" horiz-adv-x="762" 
d="M713 95l23 -72q-76 -35 -148 -35q-78 0 -113.5 35t-35.5 110v292q0 10 -8 10h-204v-343q0 -11 2.5 -14.5t13.5 -4.5l76 -9v-64h-284v64l61 7q11 1 13.5 5t2.5 14v335q0 10 -8 10h-70v82h78v65q0 100 55 142t181 42q49 0 79 -4t59 -17t43 -41.5t15 -74.5l-109 -13
q-1 45 -18 57.5t-74 12.5q-68 0 -92 -20.5t-24 -72.5v-65q0 -5 0.5 -7t2.5 -3t7 -1h202v58h115v-48q0 -10 8 -10h145v-82h-153v-272q0 -47 15.5 -66t56.5 -19q38 0 87 17z" />
    <glyph glyph-name="fj" unicode="fj" horiz-adv-x="638" 
d="M439 -39v461q0 13 -12 13h-200v-341q0 -12 2.5 -16t13.5 -5l96 -9v-64h-304v65l61 6q10 1 13 4.5t3 15.5v334q0 10 -8 10h-70v82h78v65q0 100 55 142t179 42q50 0 80 -4t59.5 -17t43.5 -41.5t15 -74.5l-109 -13q-1 45 -18 57.5t-74 12.5q-69 0 -92.5 -20t-23.5 -72v-67
q0 -10 8 -10h319v-577q0 -85 -38.5 -124t-118.5 -39q-44 0 -86.5 16t-62.5 33l38 64q42 -29 89 -29q37 0 50.5 22t13.5 78z" />
    <glyph glyph-name="ffj" unicode="ffj" horiz-adv-x="966" 
d="M767 -39v461q0 13 -12 13h-200v-341q0 -12 2.5 -16t13.5 -5l96 -9v-64h-304v65l61 6q10 1 13 4.5t3 15.5v334q0 10 -8 10h-205v-341q0 -12 2.5 -15.5t13.5 -4.5l79 -10v-64h-287v65l61 6q10 1 13 4.5t3 15.5v334q0 10 -8 10h-70v82h78v52q0 182 204 182q114 0 158 -48
q50 63 200 63q50 0 80 -4t59.5 -17t43.5 -41.5t15 -74.5l-109 -13q-1 45 -18 57.5t-74 12.5q-69 0 -92.5 -20t-23.5 -72v-67q0 -10 8 -10h319v-577q0 -85 -38.5 -124t-118.5 -39q-44 0 -86.5 16t-62.5 33l38 64q42 -29 89 -29q37 0 50.5 22t13.5 78zM235 517h205v59l-1 -1
q0 51 -28 73.5t-85 22.5q-61 0 -80 -22t-19 -70v-52q0 -10 8 -10z" />
    <glyph glyph-name="ffk" unicode="ffk" horiz-adv-x="1269" 
d="M1261 0h-256v63l57 9l-109 191l-72 -80v-92q0 -12 2.5 -15.5t13.5 -4.5l56 -7v-64h-260v63l57 8q10 1 13 5t3 15v536q0 37 -17.5 48t-75.5 11q-73 0 -96 -22.5t-23 -76.5v-60q0 -10 8 -10h151v-82h-159v-341q0 -12 2.5 -15.5t13.5 -4.5l79 -10v-64h-287v65l61 6
q10 1 13 4.5t3 15.5v334q0 10 -8 10h-204v-341q0 -12 2.5 -15.5t13.5 -4.5l79 -10v-64h-287v65l61 6q10 1 13 4.5t3 15.5v334q0 10 -8 10h-70v82h78v52q0 182 204 182q113 0 157 -47q50 62 209 62q45 0 69 -1.5t53.5 -9.5t43 -24t23.5 -45t10 -73v-317l201 221h122v-64
l-55 -11q-13 -2 -25 -15l-83 -91l142 -247q9 -15 30 -17l48 -9v-63zM227 527q0 -10 8 -10h204v63q0 91 -113 91q-61 0 -80 -22t-19 -70v-52z" />
    <glyph glyph-name="ffb" unicode="ffb" horiz-adv-x="1275" 
d="M864 0h-111q13 74 13 144v483q0 37 -17.5 48t-75.5 11q-73 0 -96 -22.5t-23 -76.5v-60q0 -10 8 -10h151v-82h-159v-341q0 -12 2.5 -15.5t13.5 -4.5l79 -10v-64h-287v65l61 6q10 1 13 4.5t3 15.5v334q0 10 -8 10h-204v-341q0 -12 2.5 -15.5t13.5 -4.5l79 -10v-64h-287v65
l61 6q10 1 13 4.5t3 15.5v334q0 10 -8 10h-70v82h78v52q0 182 204 182q113 0 157 -47q50 62 209 62q45 0 69 -1.5t53.5 -9.5t43 -24t23.5 -45t10 -73v-142q89 56 164 56q88 0 139.5 -61.5t51.5 -190.5q0 -148 -56.5 -217.5t-156.5 -69.5q-90 0 -149 59h-4zM881 387v-249
q61 -57 124 -57q112 0 112 187q0 81 -28 123t-80 42q-62 0 -128 -46zM227 527q0 -10 8 -10h204v63q0 91 -113 91q-61 0 -80 -22t-19 -70v-52z" />
    <glyph glyph-name="ffh" unicode="ffh" horiz-adv-x="1295" 
d="M1275 0h-250v63l47 7q11 1 14 5.5t3 15.5v232q0 22 -2 38t-8.5 34t-22 28t-38.5 10q-60 0 -137 -54v-288q0 -12 2.5 -15.5t13.5 -4.5l53 -7v-64h-248v63l48 8q10 1 13 5t3 15v536q0 37 -17.5 48t-75.5 11q-73 0 -96 -22.5t-23 -76.5v-60q0 -10 8 -10h151v-82h-159v-341
q0 -12 2.5 -15.5t13.5 -4.5l79 -10v-64h-287v65l61 6q10 1 13 4.5t3 15.5v334q0 10 -8 10h-204v-341q0 -12 2.5 -15.5t13.5 -4.5l79 -10v-64h-287v65l61 6q10 1 13 4.5t3 15.5v334q0 10 -8 10h-70v82h78v52q0 182 204 182q113 0 157 -47q50 62 209 62q45 0 69 -1.5
t53.5 -9.5t43 -24t23.5 -45t10 -73v-150q94 64 172 64q151 0 151 -181v-255q0 -12 2.5 -15.5t13.5 -4.5l55 -7v-64zM227 527q0 -10 8 -10h204v63q0 91 -113 91q-61 0 -80 -22t-19 -70v-52z" />
    <glyph glyph-name="fft" unicode="fft" horiz-adv-x="1089" 
d="M1040 95l23 -72q-76 -35 -148 -35q-78 0 -113.5 35t-35.5 110v292q0 10 -8 10h-204v-343q0 -11 2.5 -14.5t13.5 -4.5l76 -9v-64h-284v64l61 7q11 1 13.5 5t2.5 14v335q0 10 -8 10h-204v-341q0 -12 2.5 -15.5t13.5 -4.5l79 -10v-64h-287v65l61 6q10 1 13 4.5t3 15.5v334
q0 10 -8 10h-70v82h78v52q0 182 204 182q114 0 158 -47q52 62 201 62q49 0 79 -4t59 -17t43 -41.5t15 -74.5l-109 -13q-1 45 -18 57.5t-74 12.5q-68 0 -92 -20.5t-24 -72.5v-65q0 -5 0.5 -7t2.5 -3t7 -1h202v58h115v-48q0 -10 8 -10h145v-82h-153v-272q0 -47 15.5 -66
t56.5 -19q38 0 87 17zM235 517h204v58q0 51 -28 73.5t-85 22.5q-61 0 -80 -22t-19 -70v-52q0 -10 8 -10z" />
    <glyph glyph-name="f_iacute" unicode="f&#xed;" horiz-adv-x="638" 
d="M629 0h-266v63l60 8q10 1 13 5t3 15v325q0 11 -3 15t-13 4h-196v-341q0 -12 2.5 -15.5t13.5 -4.5l79 -10v-64h-287v65l61 6q10 1 13 4.5t3 15.5v334q0 10 -8 10h-70v82h78v67q0 182 190 182q69 0 110 -27l-35 -74q-36 21 -75 21q-45 0 -60 -22.5t-15 -69.5v-67
q0 -10 8 -10h319v-426q0 -12 2.5 -15.5t13.5 -4.5l59 -7v-64zM640 708l-177 -144l-46 43l154 168z" />
    <glyph glyph-name="tt" unicode="tt" horiz-adv-x="751" 
d="M702 95l23 -72q-76 -35 -148 -35q-78 0 -113.5 35t-35.5 110v292q0 10 -8 10h-204v-272q0 -47 15.5 -66t56.5 -19q38 0 87 17l23 -72q-76 -35 -148 -35q-78 0 -113.5 35t-35.5 110v292q0 10 -8 10h-72v71q61 7 86.5 39.5t35.5 111.5h73v-130q0 -10 8 -10h146
q83 0 100 140h73v-130q0 -10 8 -10h145v-82h-153v-272q0 -47 15.5 -66t56.5 -19q38 0 87 17z" />
    <glyph glyph-name=".notdef" horiz-adv-x="500" 
 />
    <glyph glyph-name=".null" horiz-adv-x="0" 
 />
    <glyph glyph-name="nonmarkingreturn" horiz-adv-x="333" 
 />
    <glyph glyph-name="space" unicode=" " horiz-adv-x="214" 
 />
    <glyph glyph-name="exclam" unicode="!" horiz-adv-x="270" 
d="M182 191h-95l-16 363v170h125v-170zM209 57q0 -69 -74 -69t-74 69t74 69t74 -69z" />
    <glyph glyph-name="quotedbl" unicode="&#x22;" horiz-adv-x="378" 
d="M159 447h-108v259h108v-259zM327 447h-108v259h108v-259z" />
    <glyph glyph-name="numbersign" unicode="#" horiz-adv-x="607" 
d="M399 0h-85l20 132h-107l-20 -132h-85l19 132h-108l18 80h103l21 134h-109l17 81h104l17 116h86l-18 -116h106l17 116h85l-18 -116h110l-16 -81h-106l-19 -134h109l-17 -80h-104zM346 212l20 134h-106l-21 -134h107z" />
    <glyph glyph-name="dollar" unicode="$" horiz-adv-x="525" 
d="M477 183q0 -78 -45.5 -122.5t-126.5 -56.5v-84h-81v80q-114 5 -184 37v152h76l16 -75q2 -11 6 -15.5t14 -8.5q20 -8 72 -11v193q-39 11 -63.5 21.5t-52.5 30t-41.5 50t-13.5 73.5q0 81 48 126t128 56v74h81v-72q69 -3 158 -31v-161l-85 10l-15 74q-3 17 -20 22
q-21 6 -38 7v-193q38 -12 62 -23t51 -30.5t40.5 -50.5t13.5 -72zM159 468q0 -54 70 -83v162q-70 -16 -70 -79zM371 163q0 54 -66 82v-160q66 16 66 78z" />
    <glyph glyph-name="percent" unicode="%" horiz-adv-x="874" 
d="M203 257q-86 0 -124.5 49t-38.5 127q0 86 43.5 136.5t127.5 50.5q162 0 162 -174q0 -87 -44 -138t-126 -51zM300 -17h-108l377 638h107zM207 326q73 0 73 116q0 53 -16 80.5t-56 27.5q-75 0 -75 -111q0 -113 74 -113zM665 -12q-86 0 -124.5 49t-38.5 127q0 86 43.5 136.5
t127.5 50.5q161 0 161 -174q0 -87 -43.5 -138t-125.5 -51zM668 57q40 0 57 29.5t17 86.5q0 53 -16 80.5t-56 27.5q-75 0 -75 -111q0 -113 73 -113z" />
    <glyph glyph-name="ampersand" unicode="&#x26;" horiz-adv-x="716" 
d="M684 0h-142l-68 81q-83 -93 -213 -93q-100 0 -160.5 53.5t-60.5 149.5q0 155 163 208q-46 66 -46 127q0 70 48.5 110t128.5 40q46 0 92.5 -12.5t71.5 -26.5v-144l-83 4l-13 68q-3 14 -14 17q-20 6 -48 6q-37 0 -55.5 -17t-18.5 -46q0 -30 15 -56.5t57 -74.5l125 -147
q27 89 30 140h147v-63l-46 -9q-9 -1 -12 -4t-5 -13q-11 -69 -40 -132l67 -80q9 -11 24 -13l56 -9v-64zM409 153l-151 174q-106 -27 -106 -130q0 -49 29.5 -83t89.5 -34q85 0 138 73z" />
    <glyph glyph-name="quotesingle" unicode="'" horiz-adv-x="210" 
d="M159 447h-108v259h108v-259z" />
    <glyph glyph-name="parenleft" unicode="(" horiz-adv-x="324" 
d="M293 -114l-89 -50q-154 216 -154 444q0 231 163 455l87 -52q-66 -103 -97.5 -197.5t-31.5 -204.5q0 -117 30.5 -204.5t91.5 -190.5z" />
    <glyph glyph-name="parenright" unicode=")" horiz-adv-x="323" 
d="M116 -164l-88 50q62 99 93.5 190.5t31.5 208.5q0 110 -31 200.5t-95 197.5l87 52q159 -216 159 -451q0 -226 -157 -448z" />
    <glyph glyph-name="asterisk" unicode="*" horiz-adv-x="473" 
d="M154 389l-69 54l42 52l84 63l-104 6l-64 22l28 82l64 -22l85 -58l-27 100v67h87v-67l-27 -100h-33l-9 -30l26 -21l-41 -95zM388 443l-69 -54l-42 53l-40 95l26 20l-10 31l86 58l63 22l28 -82l-64 -22l-103 -7l83 -62z" />
    <glyph glyph-name="plus" unicode="+" 
d="M333 125h-98v150h-141v95h141v146h98v-146h142v-95h-142v-150z" />
    <glyph glyph-name="comma" unicode="," horiz-adv-x="208" 
d="M108 -118l-55 18l29 106q3 8 -5 11l-37 13l22 94q60 -2 90.5 -15.5t30.5 -54.5q0 -23 -18 -59z" />
    <glyph glyph-name="hyphen" unicode="-" horiz-adv-x="317" 
d="M294 239h-271v104h271v-104z" />
    <glyph glyph-name="period" unicode="." horiz-adv-x="247" 
d="M197 57q0 -69 -73 -69q-74 0 -74 69t74 69q73 0 73 -69z" />
    <glyph glyph-name="slash" unicode="/" horiz-adv-x="401" 
d="M113 -92h-105l281 847h104z" />
    <glyph glyph-name="zero" unicode="0" horiz-adv-x="585" 
d="M289 -12q-72 0 -122 21.5t-76.5 62.5t-38 92t-11.5 119q0 304 259 304q70 0 119.5 -21.5t76 -62.5t37.5 -90.5t11 -115.5q0 -309 -255 -309zM293 76q71 0 100.5 53t29.5 162q0 108 -27.5 158t-98.5 50q-73 0 -104 -52.5t-31 -163.5q0 -105 29.5 -156t101.5 -51z" />
    <glyph glyph-name="one" unicode="1" horiz-adv-x="387" 
d="M362 0h-327v65l95 6q10 1 13 4.5t3 15.5v375q0 17 -14 21l-92 18l8 67h213v-481q0 -12 2.5 -15.5t13.5 -4.5l85 -7v-64z" />
    <glyph glyph-name="two" unicode="2" horiz-adv-x="497" 
d="M467 0h-437v75l134 131q13 13 38.5 38t35.5 35t28 29t24.5 29t15.5 25t12 28.5t3 27.5q0 83 -95 83q-53 0 -75.5 -20.5t-22.5 -78.5l-105 11q0 54 18 90t51 53.5t66.5 24t75.5 6.5q204 0 204 -159q0 -21 -3.5 -40t-15 -40t-18 -33t-27 -35t-26.5 -29.5t-33.5 -33
t-31.5 -30.5l-113 -108h187q12 0 14 12l14 82h82v-173z" />
    <glyph glyph-name="three" unicode="3" horiz-adv-x="501" 
d="M329 267v-4q131 -21 131 -154q0 -92 -61 -142t-168 -50q-71 0 -131 23.5t-96 64.5l65 71q66 -68 156 -68q119 0 119 106q0 103 -122 103q-33 0 -72 -7v82l55 5q61 6 93 37t32 80q0 87 -94 87q-53 0 -76.5 -21t-23.5 -78l-106 11q0 174 212 174q202 0 202 -162
q0 -59 -31 -99.5t-84 -58.5z" />
    <glyph glyph-name="four" unicode="4" horiz-adv-x="524" 
d="M424 -67h-106v141h-292v79l220 431l93 -46l-196 -375h175v188l107 10v-198h87v-89h-88v-141z" />
    <glyph glyph-name="five" unicode="5" horiz-adv-x="523" 
d="M445 476h-268l-14 -171q56 37 125 37q90 0 142 -53t52 -151q0 -96 -62 -158.5t-173 -62.5q-154 0 -237 88l66 72q66 -68 164 -68q53 0 89.5 32t36.5 93q0 64 -33 91t-78 27q-61 0 -112 -45l-80 35l22 330h263q11 0 14 11l14 55l69 5v-167z" />
    <glyph glyph-name="six" unicode="6" horiz-adv-x="546" 
d="M497 495l-108 -13q0 48 -19 66t-64 18q-40 0 -69 -19.5t-43.5 -52.5t-21 -68t-7.5 -76q76 49 156 49q89 0 138.5 -50.5t49.5 -140.5q0 -106 -62.5 -163t-168.5 -57q-54 0 -95 17.5t-66 46.5t-40.5 72.5t-21 89.5t-5.5 103q0 45 6.5 87.5t24 88.5t45.5 80t75.5 56
t108.5 22q187 0 187 -156zM168 264q5 -189 119 -189q52 0 78 34t26 93q0 58 -21.5 85t-71.5 27q-66 0 -130 -50z" />
    <glyph glyph-name="seven" unicode="7" horiz-adv-x="505" 
d="M272 -67h-122q11 126 52.5 242t83 181.5t88.5 119.5h-223q-11 0 -14 -11l-17 -88l-80 -6v201h459v-84q-90 -93 -156.5 -250t-70.5 -305z" />
    <glyph glyph-name="eight" unicode="8" horiz-adv-x="514" 
d="M373 337q112 -65 112 -166q0 -89 -64.5 -136t-168.5 -47t-160.5 42.5t-56.5 121.5q0 59 28 101.5t78 83.5q-82 53 -82 142q0 82 58.5 127t148.5 45q96 0 146 -41.5t50 -111.5q0 -83 -89 -161zM223 294q-81 -71 -81 -133q0 -43 29.5 -67t85.5 -24q51 0 79 25.5t28 66.5
q0 10 -2.5 20t-5 17.5t-10 15.5t-12 13.5t-15.5 13t-16 11t-19 11t-19 10t-21.5 10.5t-20.5 10zM288 377q68 61 68 119q0 73 -93 73q-42 0 -65.5 -20t-23.5 -55q0 -22 8 -39t26 -31t34 -23.5t46 -23.5z" />
    <glyph glyph-name="nine" unicode="9" horiz-adv-x="560" 
d="M61 -15l52 76q68 -54 142 -54q42 0 70.5 18t42 51t18.5 64.5t6 72.5q-69 -53 -156 -53q-88 0 -138 53t-50 150q0 105 59.5 164.5t166.5 59.5q55 0 97 -17.5t67.5 -46t41.5 -71.5t22 -88.5t6 -101.5q0 -345 -250 -345q-56 0 -109.5 17.5t-87.5 50.5zM390 301
q-1 32 -3.5 55t-10 52.5t-20 48t-34.5 31.5t-52 13q-53 0 -78.5 -34.5t-25.5 -92.5q0 -63 23 -93.5t74 -30.5q62 0 127 51z" />
    <glyph glyph-name="colon" unicode=":" horiz-adv-x="247" 
d="M197 57q0 -69 -73 -69q-74 0 -74 69t74 69q73 0 73 -69zM197 451q0 -69 -73 -69q-74 0 -74 69t74 69q73 0 73 -69z" />
    <glyph glyph-name="semicolon" unicode=";" horiz-adv-x="208" 
d="M108 -118l-55 18l29 106q3 8 -5 11l-37 13l22 94q60 -2 90.5 -15.5t30.5 -54.5q0 -23 -18 -59zM193 451q0 -69 -73 -69q-74 0 -74 69t74 69q73 0 73 -69z" />
    <glyph glyph-name="less" unicode="&#x3c;" 
d="M460 90l-382 142v116l378 149l29 -92l-306 -114l309 -112z" />
    <glyph glyph-name="equal" unicode="=" 
d="M474 147h-378v97h378v-97zM474 319h-378v97h378v-97z" />
    <glyph glyph-name="greater" unicode="&#x3e;" 
d="M488 232l-383 -142l-28 89l309 112l-306 114l30 92l378 -149v-116z" />
    <glyph glyph-name="question" unicode="?" horiz-adv-x="493" 
d="M252 190h-115v179q201 16 201 158q0 48 -29 75t-76 27q-52 0 -78 -14q-10 -5 -12 -21l-10 -60l-91 -7v157q104 40 196 40q230 0 230 -198q0 -97 -58.5 -155.5t-157.5 -73.5v-107zM269 57q0 -69 -74 -69t-74 69t74 69t74 -69z" />
    <glyph glyph-name="at" unicode="@" horiz-adv-x="834" 
d="M593 -77l20 -69q-74 -35 -200 -35q-165 0 -262 90.5t-97 263.5q0 177 107.5 286t280.5 109q155 0 248.5 -84t93.5 -233q0 -135 -53.5 -199t-144.5 -64q-88 0 -106 72q-36 -35 -66 -53.5t-64 -18.5q-52 0 -81 35.5t-29 103.5q0 113 59 191.5t158 78.5q70 0 136 -32
l-26 -160q-10 -51 -11 -85q-1 -13 -1 -24t5 -19.5t16 -10.5q15 -8 41 -2q35 8 58.5 53.5t23.5 122.5q0 122 -65 187t-196 65q-140 0 -219 -91t-79 -226q0 -140 75 -211.5t208 -71.5q85 0 170 31zM474 129l30 189q-22 14 -55 14q-50 0 -86.5 -55t-36.5 -136q0 -76 44 -76
q48 0 104 64z" />
    <glyph glyph-name="A" unicode="A" horiz-adv-x="732" 
d="M726 0h-273v64l82 9l-46 135h-267l-46 -135l80 -9v-64h-250v63l43 11q20 5 25 19l220 631h141l221 -633q4 -12 24 -17l46 -11v-63zM464 296l-106 317h-3l-107 -317h216z" />
    <glyph glyph-name="B" unicode="B" horiz-adv-x="671" 
d="M360 0h-308v64l63 7q10 1 13 5t3 15v541q0 12 -3 15.5t-13 4.5l-63 7v65h313q219 0 219 -177q0 -66 -35 -108.5t-87 -59.5v-3q168 -19 168 -176q0 -200 -270 -200zM247 87h96q81 0 123.5 25t42.5 95q0 120 -148 120h-114v-240zM247 413h69q154 0 154 117q0 62 -34 84.5
t-105 22.5h-84v-224z" />
    <glyph glyph-name="C" unicode="C" horiz-adv-x="681" 
d="M631 207v-165q-84 -54 -244 -54q-178 0 -262 100t-84 278q0 166 94 268.5t271 102.5q139 0 223 -55v-175l-85 6l-17 97q-1 13 -14 17q-56 18 -112 18q-111 0 -174.5 -72t-63.5 -207q0 -141 61 -214t170 -73q81 0 124 17q14 4 16 19l16 92h81z" />
    <glyph glyph-name="D" unicode="D" horiz-adv-x="761" 
d="M344 0h-292v64l63 7q10 1 13 5t3 15v541q0 12 -3 15.5t-13 4.5l-63 7v65h309q183 0 271 -91.5t88 -259.5q0 -173 -94 -273t-282 -100zM248 87h89q135 0 199 72t64 203q0 150 -62.5 212.5t-194.5 62.5h-95v-550z" />
    <glyph glyph-name="E" unicode="E" horiz-adv-x="633" 
d="M588 0h-536v64l63 7q10 1 13 5t3 15v541q0 12 -3 15.5t-13 4.5l-63 7v65h514v-180l-85 4l-14 77q-3 13 -17 13h-202v-230h254v-87h-254v-236h224q14 0 16 11l16 88h84v-184z" />
    <glyph glyph-name="F" unicode="F" horiz-adv-x="605" 
d="M411 0h-359v64l63 7q10 1 13 5t3 15v541q0 12 -3 15.5t-13 4.5l-63 7v65h510v-180l-85 4l-14 77q-3 13 -17 13h-198v-228h250v-87h-250v-231q0 -12 2.5 -15.5t13.5 -4.5l147 -8v-64z" />
    <glyph glyph-name="G" unicode="G" horiz-adv-x="732" 
d="M715 277l-42 -4q-16 -1 -16 -14v-227q-91 -44 -247 -44q-193 0 -281 101.5t-88 276.5q0 166 94 268.5t272 102.5q139 0 224 -56v-171l-86 7l-16 91q-3 16 -14 19q-56 18 -115 18q-110 0 -173.5 -73.5t-63.5 -204.5q0 -138 65 -213t188 -75q61 0 111 12q14 3 14 17v159
h-126l13 75h287v-65z" />
    <glyph glyph-name="H" unicode="H" horiz-adv-x="812" 
d="M760 0h-275v64l63 7q10 1 13 5t3 15v238h-316v-237q0 -12 2.5 -15.5t13.5 -4.5l67 -8v-64h-279v64l63 7q10 1 13 5t3 15v542q0 12 -3 15.5t-13 4.5l-63 7v64h279v-64l-67 -8q-11 -1 -13.5 -4.5t-2.5 -14.5v-216h316v216q0 12 -3 15.5t-13 4.5l-63 7v64h275v-64l-63 -8
q-11 -1 -13.5 -4.5t-2.5 -14.5v-541q0 -12 2.5 -15.5t13.5 -4.5l63 -8v-64z" />
    <glyph glyph-name="I" unicode="I" horiz-adv-x="397" 
d="M350 0h-299v64l73 7q10 1 13 4.5t3 15.5v542q0 12 -3 15.5t-13 4.5l-73 7v64h299v-64l-77 -8q-11 -1 -13.5 -4.5t-2.5 -14.5v-541q0 -12 2.5 -15.5t13.5 -4.5l77 -8v-64z" />
    <glyph glyph-name="J" unicode="J" horiz-adv-x="509" 
d="M277 157v477q0 17 -16 18l-87 8v64h303v-64l-67 -8q-11 -1 -13.5 -4.5t-2.5 -14.5v-480q0 -85 -41.5 -125t-132.5 -40q-54 0 -104 11.5t-70 24.5v155l85 -6l11 -70q1 -10 11 -14q24 -9 57 -9q39 0 53 17.5t14 59.5z" />
    <glyph glyph-name="K" unicode="K" horiz-adv-x="742" 
d="M724 0h-286v64l62 10l-178 247l-74 -83v-146q0 -12 2.5 -15.5t13.5 -4.5l67 -8v-64h-279v64l63 7q10 1 13 5t3 15v542q0 12 -3 15.5t-13 4.5l-63 7v64h279v-64l-67 -8q-11 -1 -13.5 -4.5t-2.5 -14.5v-271l261 289l-62 8v65h240v-64l-47 -9q-20 -3 -31 -16l-203 -224
l227 -317q10 -16 30 -20l61 -10v-64z" />
    <glyph glyph-name="L" unicode="L" horiz-adv-x="621" 
d="M588 0h-536v64l63 7q10 1 13 5t3 15v541q0 12 -3 15.5t-13 4.5l-63 7v65h295v-65l-83 -8q-11 -1 -13.5 -4.5t-2.5 -14.5v-547h224q14 0 16 11l16 95h84v-191z" />
    <glyph glyph-name="M" unicode="M" horiz-adv-x="956" 
d="M908 0h-291v64l83 7q10 1 13 4.5t3 15.5v455h-3l-174 -386h-130l-175 391h-2v-459q0 -12 2.5 -15.5t13.5 -4.5l86 -8v-64h-282v64l63 7q10 1 13 4.5t3 15.5v541q0 12 -3 15.5t-13 4.5l-63 7v65h225l205 -468h3l208 468h215v-64l-67 -8q-11 -1 -13.5 -4.5t-2.5 -14.5v-542
q0 -18 16 -19l67 -8v-64z" />
    <glyph glyph-name="N" unicode="N" horiz-adv-x="829" 
d="M703 0h-130l-347 572v-480q0 -12 2.5 -15.5t13.5 -4.5l67 -8v-64h-257v64l63 7q10 1 13 5t3 15v542q0 12 -3 15.5t-13 4.5l-63 7v65h217l339 -570v478q0 12 -3 15.5t-13 4.5l-63 7v64h257v-64l-67 -8q-11 -1 -13.5 -4.5t-2.5 -14.5v-633z" />
    <glyph glyph-name="O" unicode="O" horiz-adv-x="768" 
d="M380 -12q-170 0 -254 101.5t-84 274.5q0 165 92 269t260 104q112 0 188.5 -49.5t110.5 -129t34 -183.5q0 -181 -88 -284t-259 -103zM384 85q104 0 163.5 69t59.5 212q0 135 -56.5 204.5t-157.5 69.5q-105 0 -167.5 -70.5t-62.5 -204.5q0 -141 58.5 -210.5t162.5 -69.5z
" />
    <glyph glyph-name="P" unicode="P" horiz-adv-x="654" 
d="M406 0h-354v64l63 7q10 1 13 5t3 15v541q0 12 -3 15.5t-13 4.5l-63 7v65h321q129 0 185 -58.5t56 -154.5q0 -240 -274 -240h-93v-179q0 -12 2.5 -15.5t13.5 -4.5l143 -8v-64zM247 357h79q37 0 63.5 5.5t52 20t38.5 45.5t13 77q0 73 -39 102.5t-117 29.5h-90v-280z" />
    <glyph glyph-name="Q" unicode="Q" horiz-adv-x="768" 
d="M568 -95l23 -72q-54 -29 -117 -29q-78 0 -111.5 35t-33.5 101q0 20 4 52q-147 13 -220 112t-73 260q0 165 92 269t260 104q165 0 249 -101t84 -261q0 -163 -73 -263.5t-212 -118.5q-3 -20 -3 -39q0 -32 14 -47.5t48 -15.5t69 14zM383 84q103 0 162 69.5t59 212.5
q0 135 -56.5 204.5t-157.5 69.5q-104 0 -166.5 -70.5t-62.5 -204.5q0 -141 59 -211t163 -70z" />
    <glyph glyph-name="R" unicode="R" horiz-adv-x="679" 
d="M676 0h-273v63l66 9l-75 189q-9 23 -23 33t-39 10h-85v-212q0 -12 2.5 -15.5t13.5 -4.5l64 -8v-64h-275v64l63 7q10 1 13 5t3 15v541q0 12 -3 15.5t-13 4.5l-63 7v65h320q65 0 111 -16.5t70.5 -45.5t35.5 -62.5t11 -73.5q0 -140 -135 -193q21 -10 32.5 -28t27.5 -59
l60 -153q9 -16 30 -19l61 -10v-64zM247 389h74q73 0 115.5 28.5t42.5 103.5q0 66 -39.5 91t-125.5 25h-67v-248z" />
    <glyph glyph-name="S" unicode="S" horiz-adv-x="588" 
d="M518 520l-86 8l-14 83q-3 15 -10 19q-27 16 -88 16q-67 0 -102 -27.5t-35 -76.5q0 -22 9 -40t20 -29t34 -22t39 -16.5t46 -14.5q40 -12 60.5 -19.5t54 -25.5t50.5 -38t30.5 -54t13.5 -77q0 -112 -75.5 -165t-195.5 -53q-63 0 -125.5 12.5t-92.5 26.5v176h85l20 -90
q2 -10 5 -13.5t12 -6.5q52 -15 102 -15q149 0 149 113q0 29 -11 50t-34.5 35t-44 22t-56.5 18q-98 29 -134 52q-77 51 -77 157q0 105 71.5 158.5t186.5 53.5q99 0 193 -37v-180z" />
    <glyph glyph-name="T" unicode="T" horiz-adv-x="667" 
d="M518 0h-362v65l103 7q10 1 13 4.5t3 15.5v546h-134q-14 0 -16 -11l-16 -87h-84v184h617v-184h-83l-16 87q-2 11 -16 11h-135v-546q0 -11 2.5 -14.5t13.5 -4.5l110 -8v-65z" />
    <glyph glyph-name="U" unicode="U" horiz-adv-x="787" 
d="M560 266v367q0 12 -3 15.5t-13 4.5l-63 7v64h267v-64l-67 -8q-11 -1 -13.5 -4.5t-2.5 -14.5v-384q0 -261 -274 -261q-141 0 -205 65t-64 199v381q0 12 -3 15.5t-13 4.5l-63 7v64h279v-64l-67 -8q-11 -1 -13.5 -4.5t-2.5 -14.5v-364q0 -96 36.5 -140t121.5 -44
q86 0 124.5 41t38.5 140z" />
    <glyph glyph-name="V" unicode="V" horiz-adv-x="710" 
d="M441 0h-157l-210 632q-4 12 -24 17l-45 11l10 64h261v-64l-82 -9l171 -550h4l168 550l-80 9l10 64h235v-64l-42 -11q-20 -5 -25 -19z" />
    <glyph glyph-name="W" unicode="W" horiz-adv-x="1013" 
d="M779 0h-154l-116 421h-3l-114 -421h-148l-159 632q-5 15 -22 18l-55 10l10 64h273v-64l-87 -9l122 -533h4l125 465h123l128 -471h5l123 539l-88 9l10 64h249v-64l-50 -9q-19 -4 -23 -19z" />
    <glyph glyph-name="X" unicode="X" horiz-adv-x="728" 
d="M710 0h-279v64l76 9l-155 222l-152 -222l75 -9v-64h-251v62l55 11q15 4 26 19l190 268l-192 272q-8 13 -24 17l-49 11l10 64h263v-64l-77 -9l145 -213l150 213l-75 9l10 64h229v-64l-46 -11q-14 -3 -25 -19l-185 -256l205 -282q8 -13 24 -17l52 -11v-64z" />
    <glyph glyph-name="Y" unicode="Y" horiz-adv-x="642" 
d="M506 0h-349v64l97 7q10 1 13 4.5t3 15.5v185l-199 356q-7 13 -24 17l-45 11l10 64h253v-64l-76 -9l142 -273h5l143 273l-75 9l10 64h226v-64l-42 -11q-19 -5 -25 -19l-186 -352v-186q0 -12 2.5 -15.5t13.5 -4.5l103 -8v-64z" />
    <glyph glyph-name="Z" unicode="Z" horiz-adv-x="655" 
d="M604 0h-554v75l400 563h-269q-14 0 -16 -11l-19 -93l-84 -3v193h528v-78l-395 -561h290q14 0 16 11l19 107h84v-203z" />
    <glyph glyph-name="bracketleft" unicode="[" horiz-adv-x="280" 
d="M247 -143h-190v867h190v-62l-64 -10q-10 -1 -13 -5t-3 -15v-682q0 -11 3 -15t13 -5l64 -10v-63z" />
    <glyph glyph-name="backslash" unicode="\" horiz-adv-x="401" 
d="M393 -92h-105l-280 847h104z" />
    <glyph glyph-name="bracketright" unicode="]" horiz-adv-x="280" 
d="M223 -143h-190v63l64 10q10 1 13 5t3 15v682q0 11 -3 15t-13 5l-64 10v62h190v-867z" />
    <glyph glyph-name="asciicircum" unicode="^" horiz-adv-x="574" 
d="M544 299h-112l-148 267l-145 -267h-109l197 365h117z" />
    <glyph glyph-name="underscore" unicode="_" horiz-adv-x="500" 
d="M500 -181h-500v83h500v-83z" />
    <glyph glyph-name="grave" unicode="`" horiz-adv-x="500" 
d="M354 607l-46 -43l-177 144l69 67z" />
    <glyph glyph-name="a" unicode="a" horiz-adv-x="547" 
d="M530 0h-157l-10 59l-3 1q-75 -72 -176 -72q-143 0 -143 142q0 74 45.5 112t138.5 46l127 10v51q0 52 -17 74.5t-71 22.5q-24 0 -38 -2t-28 -8.5t-20 -22t-6 -40.5l-108 10q0 144 202 144q110 0 154.5 -38.5t44.5 -140.5v-257q0 -12 2.5 -15.5t13.5 -4.5l49 -7v-64z
M352 137v88l-95 -8q-55 -5 -76.5 -22t-21.5 -54q0 -35 16 -49.5t48 -14.5q69 0 129 60z" />
    <glyph glyph-name="b" unicode="b" horiz-adv-x="602" 
d="M186 0h-111q13 74 13 144v507q0 17 -13 21l-57 19l10 64h174v-282q86 54 165 54q88 0 139.5 -61.5t51.5 -190.5q0 -148 -56.5 -217.5t-156.5 -69.5q-90 0 -149 59h-4zM203 384v-246q61 -57 124 -57q112 0 112 187q0 80 -27.5 122.5t-77.5 42.5q-61 0 -131 -49z" />
    <glyph glyph-name="c" unicode="c" horiz-adv-x="495" 
d="M432 111l33 -78q-73 -45 -179 -45q-126 0 -188.5 71.5t-62.5 192.5q0 136 72.5 205.5t193.5 69.5q101 0 163 -36v-142l-83 4l-12 66q-1 10 -11 14q-23 9 -62 9q-63 0 -102 -43.5t-39 -137.5q0 -181 150 -181q69 0 127 31z" />
    <glyph glyph-name="d" unicode="d" horiz-adv-x="604" 
d="M579 0h-159l-9 59l-6 1q-72 -72 -170 -72q-191 0 -191 261q0 141 58 209.5t152 68.5q87 0 148 -45v170q0 16 -13 20l-57 19l10 64h172v-664q0 -12 2.5 -15.5t13.5 -4.5l49 -7v-64zM399 149v238q-58 48 -116 48q-120 0 -120 -183q0 -90 26 -130t78 -40q69 0 132 67z" />
    <glyph glyph-name="e" unicode="e" horiz-adv-x="518" 
d="M442 115l32 -80q-92 -47 -192 -47q-247 0 -247 273q0 130 66 198t170 68q212 0 212 -241q0 -30 -3 -58h-323q4 -73 36 -110.5t102 -37.5q63 0 147 35zM158 311h210q0 129 -99 129q-46 0 -76.5 -32t-34.5 -97z" />
    <glyph glyph-name="f" unicode="f" horiz-adv-x="419" 
d="M362 0h-327v65l61 6q10 1 13 4.5t3 15.5v334q0 10 -8 10h-70v82h78v67q0 93 48.5 137.5t146.5 44.5q75 0 118 -27.5t44 -101.5l-107 -13q0 37 -13.5 49.5t-46.5 12.5q-45 0 -60 -22.5t-15 -69.5v-67q0 -10 8 -10h161v-82h-169v-341q0 -12 2.5 -15.5t13.5 -4.5l119 -10
v-64z" />
    <glyph glyph-name="g" unicode="g" horiz-adv-x="554" 
d="M543 444l-94 -6q38 -49 38 -103q0 -84 -59 -132t-150 -48q-56 0 -84 9l-46 -76l123 -6q53 -3 82.5 -5t64 -8t52.5 -14.5t34.5 -23.5t23 -36.5t6.5 -51.5q0 -80 -68.5 -124t-197.5 -44q-239 0 -239 123q0 33 15 56.5t46 52.5q-46 20 -46 62q0 29 25 57q5 6 16.5 19t21 24
t17.5 19q-36 19 -57 57.5t-21 89.5q0 86 58 139t163 53q59 0 94 -10h182v-73zM385 339q0 51 -29.5 79t-82.5 28t-84.5 -27.5t-31.5 -81.5q0 -46 27.5 -73t85.5 -27q52 0 83.5 28t31.5 74zM323 -23l-154 9q-38 -40 -38 -70q0 -61 140 -61q148 0 148 72q0 21 -14 32t-29.5 13
t-52.5 5z" />
    <glyph glyph-name="h" unicode="h" horiz-adv-x="628" 
d="M608 0h-250v63l47 7q11 1 14 5.5t3 15.5v232q0 22 -2 38t-8.5 34t-22 28t-38.5 10q-60 0 -137 -54v-288q0 -12 2.5 -15.5t13.5 -4.5l53 -7v-64h-248v63l48 8q10 1 13 5t3 15v560q0 17 -13 21l-57 19l10 64h174v-292q94 64 173 64q151 0 151 -181v-255q0 -12 2.5 -15.5
t13.5 -4.5l55 -7v-64z" />
    <glyph glyph-name="i" unicode="i" horiz-adv-x="305" 
d="M219 690q0 -36 -20 -55.5t-55 -19.5q-36 0 -55.5 19.5t-19.5 55.5q0 35 19.5 54t55.5 19q35 0 55 -19t20 -54zM289 0h-266v63l60 8q10 1 13 5t3 15v322q0 17 -13 21l-55 19l10 64h173v-426q0 -12 2.5 -15.5t13.5 -4.5l59 -7v-64z" />
    <glyph glyph-name="j" unicode="j" horiz-adv-x="296" 
d="M97 -39v452q0 16 -12 21l-62 19l10 64h179v-577q0 -84 -38.5 -123.5t-117.5 -39.5q-47 0 -88.5 14.5t-61.5 31.5l38 68q40 -28 89 -28q36 0 50 22t14 76zM218 690q0 -36 -20 -55.5t-55 -19.5t-55 19.5t-20 55.5q0 35 20 54t55 19t55 -19t20 -54z" />
    <glyph glyph-name="k" unicode="k" horiz-adv-x="602" 
d="M594 0h-256v63l57 9l-109 191l-72 -80v-92q0 -12 2.5 -15.5t13.5 -4.5l56 -7v-64h-260v63l57 8q10 1 13 5t3 15v560q0 17 -13 21l-57 19l10 64h175v-459l201 221h122v-64l-55 -11q-13 -2 -25 -15l-83 -91l142 -247q9 -15 30 -17l48 -9v-63z" />
    <glyph glyph-name="l" unicode="l" horiz-adv-x="305" 
d="M286 0h-260v63l57 8q10 1 13 5t3 15v560q0 17 -13 21l-57 19l10 64h175v-664q0 -12 2.5 -15.5t13.5 -4.5l56 -7v-64z" />
    <glyph glyph-name="m" unicode="m" horiz-adv-x="903" 
d="M883 0h-254v63l52 7q16 2 16 20v235q0 51 -12.5 78t-50.5 27q-61 0 -123 -40q4 -23 4 -56v-243q0 -12 2.5 -15.5t13.5 -4.5l46 -7v-64h-246v63l53 7q10 1 13 5.5t3 14.5v230q0 27 -1.5 43t-7 33.5t-19 26t-34.5 8.5q-59 0 -124 -51v-289q0 -12 2.5 -15.5t13.5 -4.5l49 -7
v-64h-244v63l48 8q10 1 13 5t3 15v322q0 17 -13 21l-55 19l10 64h148l8 -56l4 -1q88 67 171 67q85 0 119 -60q93 60 174 60q79 0 113 -44t34 -127v-265q0 -12 2.5 -15.5t13.5 -4.5l55 -7v-64z" />
    <glyph glyph-name="n" unicode="n" horiz-adv-x="628" 
d="M608 0h-252v63l50 6q16 2 16 20v232q0 54 -13.5 82t-57.5 28q-65 0 -137 -52v-288q0 -12 2.5 -15.5t13.5 -4.5l53 -7v-64h-248v65l48 6q10 1 13 5t3 15v322q0 17 -13 21l-55 19l10 64h148l8 -55l4 -1q97 66 187 66q149 0 149 -183v-253q0 -12 2.5 -15.5t13.5 -4.5l55 -7
v-64z" />
    <glyph glyph-name="o" unicode="o" horiz-adv-x="573" 
d="M284 -12q-130 0 -189.5 71t-59.5 194q0 128 65 201t194 73q126 0 185 -70t59 -191q0 -131 -63 -204.5t-191 -73.5zM287 73q132 0 132 187q0 94 -31.5 137t-96.5 43q-136 0 -136 -181q0 -186 132 -186z" />
    <glyph glyph-name="p" unicode="p" horiz-adv-x="610" 
d="M325 -212h-286v65l41 6q11 2 14 5.5t3 15.5v533q0 16 -13 21l-55 19l10 64h149l9 -56l3 -1q85 67 176 67q89 0 139.5 -61t50.5 -191q0 -53 -9.5 -100t-31 -91t-64 -70t-101.5 -26q-82 0 -150 52v-160q0 -12 3 -15.5t14 -4.5l98 -8v-64zM212 380v-247q59 -53 123 -53
q113 0 113 188q0 165 -105 165q-65 0 -131 -53z" />
    <glyph glyph-name="q" unicode="q" horiz-adv-x="590" 
d="M579 -212h-269v64l80 8q11 1 14.5 4.5t3.5 14.5v178q-78 -69 -169 -69q-195 0 -195 261q0 141 59 209.5t152 68.5q82 0 151 -55l13 45h104q-10 -90 -10 -149v-489q0 -11 3 -15t13 -5l50 -6v-65zM399 149v239q-57 47 -117 47q-61 0 -90 -49t-29 -134q0 -171 106 -171
q58 0 130 68z" />
    <glyph glyph-name="r" unicode="r" horiz-adv-x="449" 
d="M325 0h-290v65l48 6q10 1 13 5t3 15v322q0 16 -13 21l-55 19l10 64h149l11 -73l3 -1q64 84 147 84q46 0 78 -9v-164l-90 4l-12 62q-1 11 -12 11q-46 0 -101 -52v-287q0 -12 3 -15.5t14 -4.5l94 -8v-64z" />
    <glyph glyph-name="s" unicode="s" horiz-adv-x="471" 
d="M423 363l-83 5l-11 58q-1 10 -11 14q-33 10 -72 10q-95 0 -95 -63q0 -13 3.5 -23t14 -18t18 -13t25.5 -10.5t26.5 -8t31.5 -7.5q30 -7 48.5 -12.5t44 -18t40 -27.5t25 -40.5t10.5 -58.5q0 -83 -59.5 -122.5t-152.5 -39.5q-59 0 -115.5 12t-72.5 23v136l83 -5l10 -61
q3 -11 12 -14q45 -14 90 -14q100 0 100 69q0 24 -19.5 40.5t-35.5 21t-60 14.5q-11 3 -16 4q-28 6 -46 11.5t-41 17t-36.5 26t-23 38t-9.5 54.5q0 85 59.5 125.5t149.5 40.5q98 0 168 -29v-135z" />
    <glyph glyph-name="t" unicode="t" horiz-adv-x="424" 
d="M375 95l23 -72q-76 -35 -148 -35q-78 0 -113.5 35t-35.5 110v292q0 10 -8 10h-72v71q56 7 84 44t38 107h73v-130q0 -10 8 -10h145v-82h-153v-272q0 -47 15.5 -66t56.5 -19q38 0 87 17z" />
    <glyph glyph-name="u" unicode="u" horiz-adv-x="626" 
d="M599 0h-158l-9 61l-3 1q-93 -74 -187 -74q-79 0 -111.5 40.5t-32.5 129.5v260q0 12 -2.5 16t-13.5 6l-51 12l9 65h173v-334q0 -54 13.5 -78.5t53.5 -24.5q71 0 139 70v268q0 12 -2.5 16t-13.5 6l-48 12l9 65h170v-426q0 -18 13 -20l52 -7v-64z" />
    <glyph glyph-name="v" unicode="v" horiz-adv-x="596" 
d="M367 0h-133l-165 425q-4 13 -21 17l-42 9l13 66h236v-66l-67 -8l123 -333h4l124 333l-66 8l11 66h206v-66l-34 -6q-20 -3 -25 -17z" />
    <glyph glyph-name="w" unicode="w" horiz-adv-x="856" 
d="M659 0h-125l-95 372h-3l-91 -372h-140l-136 425q-4 13 -21 17l-42 9l13 66h225v-66l-60 -8l96 -328h4l101 388h124l96 -386h4l94 326l-61 8l11 66h197v-66l-36 -6q-20 -4 -25 -20z" />
    <glyph glyph-name="x" unicode="x" horiz-adv-x="586" 
d="M576 0h-256v64l56 9l-97 127l-103 -127l61 -9v-64h-225v63l46 9q17 3 30 18l137 164l-137 170q-11 13 -24 17l-42 11l10 65h231v-65l-56 -8l93 -119l101 119l-61 8l10 65h205v-65l-44 -10q-14 -5 -27 -19l-129 -152l144 -180q14 -16 27 -18l50 -9v-64z" />
    <glyph glyph-name="y" unicode="y" horiz-adv-x="597" 
d="M399 -212h-296v66l71 8q12 1 16.5 5.5t10.5 16.5l51 117l-184 424q-5 13 -21 17l-41 9l13 66h233v-66l-65 -8l125 -309h4l124 309l-66 8l11 66h206v-66l-33 -5q-19 -3 -25 -17l-234 -566l100 -10v-65z" />
    <glyph glyph-name="z" unicode="z" horiz-adv-x="500" 
d="M469 0h-432v66l287 373h-175q-9 0 -11 -13l-12 -60l-83 -5v156h415v-68l-283 -372h186q9 0 11 13l12 72l85 4v-166z" />
    <glyph glyph-name="braceleft" unicode="{" horiz-adv-x="307" 
d="M276 -81l-10 -67q-103 5 -145 33t-42 98q0 27 7 91t7 99q0 46 -20 63t-59 19v67q39 2 59 19t20 63q0 35 -7 100t-7 92q0 70 42 98t145 33l10 -67q-48 -11 -64 -23.5t-16 -48.5q0 -25 7 -88t7 -96q0 -89 -66 -116q32 -13 49 -38.5t17 -76.5q0 -33 -7 -95t-7 -87
q0 -36 16 -49t64 -23z" />
    <glyph glyph-name="bar" unicode="|" horiz-adv-x="280" 
d="M192 -143h-104v898h104v-898z" />
    <glyph glyph-name="braceright" unicode="}" horiz-adv-x="307" 
d="M41 -148l-10 67q48 10 64 23t16 49q0 25 -7 87t-7 95q0 51 17 76.5t49 38.5q-66 27 -66 116q0 33 7 96t7 88q0 36 -16 48.5t-64 23.5l10 67q103 -5 145 -33t42 -98q0 -27 -7 -92t-7 -100q0 -46 20 -63t59 -19v-67q-39 -2 -59 -19t-20 -63q0 -35 7 -99t7 -91
q0 -70 -42 -98t-145 -33z" />
    <glyph glyph-name="asciitilde" unicode="~" horiz-adv-x="499" 
d="M417 439l63 -23q-12 -62 -35.5 -92.5t-68.5 -30.5q-38 0 -117 23t-107 23q-24 0 -39 -11t-32 -40l-61 28q41 117 122 117q40 0 115 -23t105 -23q23 0 34 11t21 41z" />
    <glyph glyph-name="exclamdown" unicode="&#xa1;" horiz-adv-x="270" 
d="M87 318h95l14 -363v-170h-125v170zM209 452q0 -69 -74 -69t-74 69t74 69t74 -69z" />
    <glyph glyph-name="cent" unicode="&#xa2;" horiz-adv-x="506" 
d="M329 117q26 2 39 7q8 2 11 15l11 63l80 4v-138q-52 -30 -141 -36v-99h-81v102q-198 26 -198 246q0 108 52.5 171.5t145.5 78.5v104h81v-101q81 -4 139 -35v-138l-79 4l-11 62q-3 12 -12 15q-15 5 -37 8v-333zM172 287q0 -131 76 -161v314q-76 -31 -76 -153z" />
    <glyph glyph-name="sterling" unicode="&#xa3;" horiz-adv-x="557" 
d="M525 0h-467l-14 72q50 35 62.5 73.5t12.5 132.5v12h-76v87h76v54q0 220 223 220q39 0 69 -6.5t57.5 -22t42.5 -47.5t15 -79l-105 -14q-1 44 -16.5 64t-62.5 20q-57 0 -82.5 -33t-25.5 -100v-56h166v-87h-166q0 -80 -11.5 -125.5t-51.5 -85.5h242q11 0 14 12l16 82h82
v-173z" />
    <glyph glyph-name="currency" unicode="&#xa4;" 
d="M568 71l-72 -70l-88 87q-52 -33 -124 -33q-80 0 -128 33l-44.5 -44.5l-42.5 -42.5l-69 69l91 91q-26 47 -26 119q0 62 28 111l-90 89l72 72l84 -85q53 38 131 38t129 -36l82 82l68 -70l-86 -86q26 -49 26 -111q0 -67 -31 -124zM288 147q54 0 84 37.5t30 95.5
q0 62 -29.5 96t-86.5 34q-55 0 -84.5 -36t-29.5 -94q0 -59 29 -96t87 -37z" />
    <glyph glyph-name="yen" unicode="&#xa5;" horiz-adv-x="564" 
d="M477 289h-132v-54h132v-69h-132v-74q0 -12 2.5 -15.5t13.5 -4.5l102 -8v-64h-348v64l97 7q10 1 13 4.5t3 15.5v75h-128v69h128v54h-128v69h85l-123 182q-8 13 -24 17l-45 11l10 64h246v-64l-68 -9l113 -178h4l115 178l-67 9l10 64h216v-64l-42 -11q-15 -4 -25 -19
l-120 -180h92v-69z" />
    <glyph glyph-name="brokenbar" unicode="&#xa6;" horiz-adv-x="280" 
d="M192 -143h-104v388h104v-388zM192 407h-104v348h104v-348z" />
    <glyph glyph-name="section" unicode="&#xa7;" horiz-adv-x="556" 
d="M75 -107v134l80 -5l11 -62q2 -10 12 -13q39 -15 85 -15q95 0 95 69q0 32 -29.5 49.5t-71.5 27t-84 22.5t-71.5 46.5t-29.5 88.5q0 79 73 133q-49 39 -49 106q0 77 56.5 116.5t142.5 39.5q98 0 168 -29v-135l-83 6l-10 59q-2 10 -11 13q-28 10 -71 10q-45 0 -67.5 -18.5
t-22.5 -49.5q0 -25 21 -41.5t53 -24t69 -19t69 -25.5t53 -45.5t21 -76.5q0 -82 -71 -133q48 -36 48 -98q0 -86 -55.5 -125.5t-145.5 -39.5q-55 0 -112 12.5t-73 22.5zM278 316l-62 17q-47 -27 -47 -77q0 -32 25 -48.5t75 -31.5l69 -20q47 29 47 82q0 23 -17 38.5t-35 22.5
t-55 17z" />
    <glyph glyph-name="dieresis" unicode="&#xa8;" horiz-adv-x="500" 
d="M209 663q0 -28 -17 -44.5t-45 -16.5t-45.5 16.5t-17.5 44.5q0 27 17.5 43.5t45.5 16.5t45 -16t17 -44zM413 663q0 -28 -17 -44.5t-45 -16.5t-45 16.5t-17 44.5t17 44t45 16t45 -16t17 -44z" />
    <glyph glyph-name="copyright" unicode="&#xa9;" horiz-adv-x="765" 
d="M716 319q0 -150 -92.5 -241.5t-241.5 -91.5q-160 0 -246.5 89t-86.5 230q0 152 96 242t239 90q154 0 243 -86t89 -232zM384 45q124 0 195 71.5t71 196.5q0 126 -73 195.5t-193 69.5q-117 0 -191.5 -73t-74.5 -199q0 -122 71 -191.5t195 -69.5zM508 247v-102
q-42 -25 -114 -25q-97 0 -142.5 50.5t-45.5 138.5q0 91 49 145.5t142 54.5q59 0 112 -20v-108l-48 4l-8 45q-2 11 -11 15q-20 8 -51 8q-49 0 -78 -34.5t-29 -107.5q0 -136 113 -136q32 0 46 7q7 4 10 14l12 51h43z" />
    <glyph glyph-name="ordfeminine" unicode="&#xaa;" horiz-adv-x="415" 
d="M380 281h-117l-7 36h-3q-51 -44 -115 -44q-98 0 -98 93q0 49 31 73.5t94 29.5l81 6v33q0 30 -10 43t-42 13q-28 0 -40.5 -8t-13.5 -36l-86 7q0 97 142 97q77 0 108.5 -25.5t31.5 -91.5v-160q0 -8 2 -10t9 -3l33 -5v-48zM246 367v58l-54 -5q-33 -3 -45.5 -13.5
t-12.5 -33.5q0 -35 36 -35q40 0 76 29z" />
    <glyph glyph-name="guillemotleft" unicode="&#xab;" horiz-adv-x="450" 
d="M234 103h-97l-87 155l89 150h98l-77 -138q-6 -9 -1 -19zM405 103h-97l-87 155l89 150h98l-77 -138q-6 -9 -1 -19z" />
    <glyph glyph-name="logicalnot" unicode="&#xac;" 
d="M472 183h-93v95h-288v95h381v-190z" />
    <glyph glyph-name="uni00AD" unicode="&#xad;" horiz-adv-x="311" 
d="M294 239h-271v104h271v-104z" />
    <glyph glyph-name="registered" unicode="&#xae;" horiz-adv-x="450" 
d="M410 480q0 -82 -51.5 -133.5t-133.5 -51.5q-89 0 -137 49.5t-48 128.5q0 84 53.5 135t132.5 51q84 0 134 -49t50 -130zM366 477q0 67 -39 103.5t-101 36.5q-61 0 -101 -38.5t-40 -104.5q0 -64 37.5 -100.5t103.5 -36.5q65 0 102.5 37.5t37.5 102.5zM322 384h-84v21l19 3
l-20 39q-7 12 -18 12h-14v-46q0 -5 5 -6l16 -2v-21h-82v21l15 2q5 1 5 7v129q0 7 -6 8l-14 2v22h88q67 0 67 -54q0 -39 -37 -52q10 -3 17 -18l18 -36q2 -5 8 -6l17 -4v-21zM205 488h14q37 0 37 31q0 25 -32 25h-19v-56z" />
    <glyph glyph-name="macron" unicode="&#xaf;" horiz-adv-x="500" 
d="M405 606h-311v82h311v-82z" />
    <glyph glyph-name="degree" unicode="&#xb0;" horiz-adv-x="301" 
d="M151 614q23 0 36 14.5t13 38.5t-13 38t-36 14q-22 0 -36 -14.5t-14 -40.5q0 -23 13.5 -36.5t36.5 -13.5zM259 667q0 -49 -29.5 -78.5t-78.5 -29.5t-79 28.5t-30 76.5q0 51 31 80.5t78 29.5t77.5 -28.5t30.5 -78.5z" />
    <glyph glyph-name="plusminus" unicode="&#xb1;" 
d="M475 0h-381v95h381v-95zM333 134h-98v141h-141v95h141v146h98v-146h142v-95h-142v-141z" />
    <glyph glyph-name="twosuperior" unicode="&#xb2;" horiz-adv-x="374" 
d="M349 350h-322v59l130 152q44 52 59 76t15 49q0 46 -56 46q-29 0 -42 -13.5t-13 -47.5l-91 9q0 123 154 123q148 0 148 -110q0 -38 -18 -71t-54 -75l-114 -134h116q5 0 9 8l9 51h70v-122z" />
    <glyph glyph-name="threesuperior" unicode="&#xb3;" horiz-adv-x="379" 
d="M260 586v-3q88 -19 88 -107q0 -63 -47 -98.5t-123 -35.5q-106 0 -163 59l52 61q47 -45 104 -45q74 0 74 65q0 62 -74 62q-17 0 -47 -5v68l34 3q38 4 58.5 20t20.5 51q0 50 -55 50q-30 0 -43.5 -13.5t-13.5 -44.5l-91 10q0 120 154 120q150 0 150 -112q0 -40 -21.5 -67.5
t-56.5 -37.5z" />
    <glyph glyph-name="acute" unicode="&#xb4;" horiz-adv-x="500" 
d="M364 708l-177 -144l-46 43l154 168z" />
    <glyph glyph-name="mu" unicode="&#xb5;" horiz-adv-x="629" 
d="M595 0h-160l-8 59h-5q-66 -71 -139 -71q-52 0 -83 29l-2 -2l13 -191h-118v693h115v-339q0 -51 15 -75.5t60 -24.5q68 0 131 73v366h115v-426q0 -18 13 -20l53 -7v-64z" />
    <glyph glyph-name="paragraph" unicode="&#xb6;" horiz-adv-x="586" 
d="M554 -133h-166v702h-70v-702h-164v64l66 8q14 1 14 17v212q-102 7 -157 68t-55 162q0 128 77 187.5t202 59.5h253v-64l-67 -8q-11 -1 -13.5 -4.5t-2.5 -14.5v-598q0 -7 1.5 -10.5t4.5 -4.5t10 -2l67 -8v-64z" />
    <glyph glyph-name="periodcentered" unicode="&#xb7;" horiz-adv-x="228" 
d="M188 314q0 -69 -74 -69t-74 69t74 69t74 -69z" />
    <glyph glyph-name="cedilla" unicode="&#xb8;" horiz-adv-x="500" 
d="M139 -240l7 58q14 -2 28 -2q71 0 71 52q0 43 -68 44l16 118l63 -8l-9 -67q76 -16 76 -85q0 -47 -35 -80.5t-106 -33.5q-32 0 -43 4z" />
    <glyph glyph-name="onesuperior" unicode="&#xb9;" horiz-adv-x="271" 
d="M259 350h-242v52l61 7q10 1 10 14v289q0 11 -9 14l-58 12l7 55h164v-371q0 -8 1.5 -10t9.5 -4l56 -5v-53z" />
    <glyph glyph-name="ordmasculine" unicode="&#xba;" horiz-adv-x="421" 
d="M209 273q-89 0 -131 46t-42 128q0 83 46 130t135 47q87 0 127.5 -45.5t40.5 -123.5q0 -86 -43.5 -134t-132.5 -48zM210 339q79 0 79 111q0 110 -75 110q-82 0 -82 -110q0 -59 19 -85t59 -26z" />
    <glyph glyph-name="guillemotright" unicode="&#xbb;" horiz-adv-x="449" 
d="M149 103h-98l75 143q6 10 1 19l-77 143h98l88 -153zM320 103h-98l75 143q6 10 1 19l-77 143h98l88 -153z" />
    <glyph glyph-name="onequarter" unicode="&#xbc;" horiz-adv-x="925" 
d="M309 281h-242v52l61 7q10 1 10 14v289q0 11 -9 14l-58 12l7 55h164v-371q0 -8 1.5 -10t9.5 -4l56 -5v-53zM335 -17h-106l358 741h105zM802 0h-96v82h-198v70l173 289h121v-281h55v-78h-55v-82zM706 160v183l-109 -183h109z" />
    <glyph glyph-name="onehalf" unicode="&#xbd;" horiz-adv-x="925" 
d="M305 281h-242v52l61 7q10 1 10 14v289q0 11 -9 14l-58 12l7 55h164v-371q0 -8 1.5 -10t9.5 -4l56 -5v-53zM303 -17h-106l358 741h105zM861 0h-322v59l130 152q44 52 59 76t15 49q0 46 -56 46q-29 0 -42 -13.5t-13 -47.5l-91 9q0 123 154 123q148 0 148 -110
q0 -38 -18 -71t-54 -75l-114 -134h116q5 0 9 8l9 51h70v-122z" />
    <glyph glyph-name="threequarters" unicode="&#xbe;" horiz-adv-x="925" 
d="M299 517v-3q88 -19 88 -107q0 -63 -47 -98.5t-123 -35.5q-106 0 -163 59l52 61q47 -45 104 -45q74 0 74 65q0 62 -74 62q-17 0 -47 -5v68l34 3q38 4 58.5 20t20.5 51q0 50 -55 50q-30 0 -43.5 -13.5t-13.5 -44.5l-91 10q0 120 154 120q150 0 150 -112q0 -40 -21.5 -67.5
t-56.5 -37.5zM367 -17h-106l358 741h105zM816 0h-96v82h-198v70l173 289h121v-281h55v-78h-55v-82zM720 160v183l-109 -183h109z" />
    <glyph glyph-name="questiondown" unicode="&#xbf;" horiz-adv-x="493" 
d="M258 319h115v-179q-201 -16 -201 -158q0 -48 29 -75t76 -27q52 0 78 14q10 5 12 21l10 60l91 7v-157q-104 -40 -196 -40q-230 0 -230 198q0 97 58.5 155.5t157.5 73.5v107zM241 452q0 69 74 69t74 -69t-74 -69t-74 69z" />
    <glyph glyph-name="Agrave" unicode="&#xc0;" horiz-adv-x="732" 
d="M726 0h-273v64l82 9l-46 135h-267l-46 -135l80 -9v-64h-250v63l43 11q20 5 25 19l220 631h141l221 -633q4 -12 24 -17l46 -11v-63zM464 296l-106 317h-3l-107 -317h216zM443 766l-211 96l46 84l196 -126z" />
    <glyph glyph-name="Aacute" unicode="&#xc1;" horiz-adv-x="732" 
d="M726 0h-273v64l82 9l-46 135h-267l-46 -135l80 -9v-64h-250v63l43 11q20 5 25 19l220 631h141l221 -633q4 -12 24 -17l46 -11v-63zM464 296l-106 317h-3l-107 -317h216zM502 863l-211 -97l-31 55l196 126z" />
    <glyph glyph-name="Acircumflex" unicode="&#xc2;" horiz-adv-x="732" 
d="M726 0h-273v64l82 9l-46 135h-267l-46 -135l80 -9v-64h-250v63l43 11q20 5 25 19l220 631h141l221 -633q4 -12 24 -17l46 -11v-63zM464 296l-106 317h-3l-107 -317h216zM483 766l-119 83l-119 -83l-46 47l119 106h92l119 -106z" />
    <glyph glyph-name="Atilde" unicode="&#xc3;" horiz-adv-x="732" 
d="M726 0h-273v64l82 9l-46 135h-267l-46 -135l80 -9v-64h-250v63l43 11q20 5 25 19l220 631h141l221 -633q4 -12 24 -17l46 -11v-63zM464 296l-106 317h-3l-107 -317h216zM543 872l-23 -37q-18 -29 -32.5 -41.5t-33.5 -12.5q-17 0 -57 10q-101 28 -109 29q-9 2 -16 -5
l-35 -36l-49 33l29 47q28 45 63 45q12 0 50 -9q90 -26 114 -30q8 -1 14 5l32 35z" />
    <glyph glyph-name="Adieresis" unicode="&#xc4;" horiz-adv-x="732" 
d="M726 0h-273v64l82 9l-46 135h-267l-46 -135l80 -9v-64h-250v63l43 11q20 5 25 19l220 631h141l221 -633q4 -12 24 -17l46 -11v-63zM464 296l-106 317h-3l-107 -317h216zM324 842q0 -28 -17 -44.5t-45 -16.5t-45.5 16.5t-17.5 44.5t17.5 44.5t45.5 16.5t45 -16.5t17 -44.5
zM528 842q0 -28 -17 -44.5t-45 -16.5t-45 16.5t-17 44.5t17 44.5t45 16.5t45 -16.5t17 -44.5z" />
    <glyph glyph-name="Aring" unicode="&#xc5;" horiz-adv-x="732" 
d="M461 790q0 -40 -26 -68l221 -631q4 -12 24 -17l46 -11v-63h-273v64l82 9l-46 135h-267l-46 -135l80 -9v-64h-250v63l43 11q20 5 25 19l219 629q-25 25 -25 65q0 44 28 70t69 26t68.5 -25t27.5 -68zM464 296l-106 317h-3l-107 -317h216zM365 750q36 0 36 40q0 38 -36 38
q-38 0 -38 -39t38 -39z" />
    <glyph glyph-name="AE" unicode="&#xc6;" horiz-adv-x="995" 
d="M956 0h-532v64l63 7q16 1 16 18v224h-209l-125 -240l74 -9v-64h-237v64l38 9q23 5 38 33l285 545l-77 8v65h644v-180l-85 4l-13 74q-1 10 -5 13t-14 3h-201v-237h254v-88h-254v-228h224q14 0 16 11l16 88h84v-184zM503 401v237h-46l-123 -237h169z" />
    <glyph glyph-name="Ccedilla" unicode="&#xc7;" horiz-adv-x="681" 
d="M294 -240l7 58q14 -2 28 -2q71 0 71 52q0 43 -68 44l10 78q-154 12 -227.5 110.5t-73.5 265.5q0 166 94 268.5t271 102.5q139 0 223 -55v-175l-85 6l-17 97q-1 13 -14 17q-56 18 -112 18q-111 0 -174.5 -72t-63.5 -207q0 -141 61 -214t170 -73q81 0 124 17q14 4 16 19
l16 92h81v-165q-74 -49 -225 -54l-4 -33q76 -16 76 -85q0 -47 -35 -80.5t-106 -33.5q-32 0 -43 4z" />
    <glyph glyph-name="Egrave" unicode="&#xc8;" horiz-adv-x="633" 
d="M588 0h-536v64l63 7q10 1 13 5t3 15v541q0 12 -3 15.5t-13 4.5l-63 7v65h514v-180l-85 4l-14 77q-3 13 -17 13h-202v-230h254v-87h-254v-236h224q14 0 16 11l16 88h84v-184zM398 766l-211 96l46 84l196 -126z" />
    <glyph glyph-name="Eacute" unicode="&#xc9;" horiz-adv-x="633" 
d="M588 0h-536v64l63 7q10 1 13 5t3 15v541q0 12 -3 15.5t-13 4.5l-63 7v65h514v-180l-85 4l-14 77q-3 13 -17 13h-202v-230h254v-87h-254v-236h224q14 0 16 11l16 88h84v-184zM457 863l-211 -97l-31 55l196 126z" />
    <glyph glyph-name="Ecircumflex" unicode="&#xca;" horiz-adv-x="633" 
d="M588 0h-536v64l63 7q10 1 13 5t3 15v541q0 12 -3 15.5t-13 4.5l-63 7v65h514v-180l-85 4l-14 77q-3 13 -17 13h-202v-230h254v-87h-254v-236h224q14 0 16 11l16 88h84v-184zM438 766l-119 83l-119 -83l-46 47l119 106h92l119 -106z" />
    <glyph glyph-name="Edieresis" unicode="&#xcb;" horiz-adv-x="633" 
d="M588 0h-536v64l63 7q10 1 13 5t3 15v541q0 12 -3 15.5t-13 4.5l-63 7v65h514v-180l-85 4l-14 77q-3 13 -17 13h-202v-230h254v-87h-254v-236h224q14 0 16 11l16 88h84v-184zM279 842q0 -28 -17 -44.5t-45 -16.5t-45.5 16.5t-17.5 44.5t17.5 44.5t45.5 16.5t45 -16.5
t17 -44.5zM483 842q0 -28 -17 -44.5t-45 -16.5t-45 16.5t-17 44.5t17 44.5t45 16.5t45 -16.5t17 -44.5z" />
    <glyph glyph-name="Igrave" unicode="&#xcc;" horiz-adv-x="397" 
d="M350 0h-299v64l73 7q10 1 13 4.5t3 15.5v542q0 12 -3 15.5t-13 4.5l-73 7v64h299v-64l-77 -8q-11 -1 -13.5 -4.5t-2.5 -14.5v-541q0 -12 2.5 -15.5t13.5 -4.5l77 -8v-64zM279 766l-211 96l46 84l196 -126z" />
    <glyph glyph-name="Iacute" unicode="&#xcd;" horiz-adv-x="397" 
d="M350 0h-299v64l73 7q10 1 13 4.5t3 15.5v542q0 12 -3 15.5t-13 4.5l-73 7v64h299v-64l-77 -8q-11 -1 -13.5 -4.5t-2.5 -14.5v-541q0 -12 2.5 -15.5t13.5 -4.5l77 -8v-64zM338 863l-211 -97l-31 55l196 126z" />
    <glyph glyph-name="Icircumflex" unicode="&#xce;" horiz-adv-x="397" 
d="M350 0h-299v64l73 7q10 1 13 4.5t3 15.5v542q0 12 -3 15.5t-13 4.5l-73 7v64h299v-64l-77 -8q-11 -1 -13.5 -4.5t-2.5 -14.5v-541q0 -12 2.5 -15.5t13.5 -4.5l77 -8v-64zM319 766l-119 83l-119 -83l-46 47l119 106h92l119 -106z" />
    <glyph glyph-name="Idieresis" unicode="&#xcf;" horiz-adv-x="397" 
d="M350 0h-299v64l73 7q10 1 13 4.5t3 15.5v542q0 12 -3 15.5t-13 4.5l-73 7v64h299v-64l-77 -8q-11 -1 -13.5 -4.5t-2.5 -14.5v-541q0 -12 2.5 -15.5t13.5 -4.5l77 -8v-64zM160 842q0 -28 -17 -44.5t-45 -16.5t-45.5 16.5t-17.5 44.5t17.5 44.5t45.5 16.5t45 -16.5
t17 -44.5zM364 842q0 -28 -17 -44.5t-45 -16.5t-45 16.5t-17 44.5t17 44.5t45 16.5t45 -16.5t17 -44.5z" />
    <glyph glyph-name="Eth" unicode="&#xd0;" horiz-adv-x="770" 
d="M353 0h-292v64l63 7q10 1 13 5t3 15v220h-63v91h63v230q0 12 -3 15.5t-13 4.5l-63 7v65h309q183 0 271 -91.5t88 -259.5q0 -173 -94 -273t-282 -100zM257 87h89q135 0 199 72t64 203q0 150 -62.5 212.5t-194.5 62.5h-95v-235h171v-91h-171v-224z" />
    <glyph glyph-name="Ntilde" unicode="&#xd1;" horiz-adv-x="829" 
d="M703 0h-130l-347 572v-480q0 -12 2.5 -15.5t13.5 -4.5l67 -8v-64h-257v64l63 7q10 1 13 5t3 15v542q0 12 -3 15.5t-13 4.5l-63 7v65h217l339 -570v478q0 12 -3 15.5t-13 4.5l-63 7v64h257v-64l-67 -8q-11 -1 -13.5 -4.5t-2.5 -14.5v-633zM585 872l-23 -37
q-18 -29 -32.5 -41.5t-33.5 -12.5q-17 0 -57 10q-101 28 -109 29q-9 2 -16 -5l-35 -36l-49 33l29 47q28 45 63 45q12 0 50 -9q90 -26 114 -30q8 -1 14 5l32 35z" />
    <glyph glyph-name="Ograve" unicode="&#xd2;" horiz-adv-x="768" 
d="M380 -12q-170 0 -254 101.5t-84 274.5q0 165 92 269t260 104q112 0 188.5 -49.5t110.5 -129t34 -183.5q0 -181 -88 -284t-259 -103zM384 85q104 0 163.5 69t59.5 212q0 135 -56.5 204.5t-157.5 69.5q-105 0 -167.5 -70.5t-62.5 -204.5q0 -141 58.5 -210.5t162.5 -69.5z
M472 768l-211 96l46 84l196 -126z" />
    <glyph glyph-name="Oacute" unicode="&#xd3;" horiz-adv-x="768" 
d="M380 -12q-170 0 -254 101.5t-84 274.5q0 165 92 269t260 104q112 0 188.5 -49.5t110.5 -129t34 -183.5q0 -181 -88 -284t-259 -103zM384 85q104 0 163.5 69t59.5 212q0 135 -56.5 204.5t-157.5 69.5q-105 0 -167.5 -70.5t-62.5 -204.5q0 -141 58.5 -210.5t162.5 -69.5z
M531 865l-211 -97l-31 55l196 126z" />
    <glyph glyph-name="Ocircumflex" unicode="&#xd4;" horiz-adv-x="768" 
d="M380 -12q-170 0 -254 101.5t-84 274.5q0 165 92 269t260 104q112 0 188.5 -49.5t110.5 -129t34 -183.5q0 -181 -88 -284t-259 -103zM384 85q104 0 163.5 69t59.5 212q0 135 -56.5 204.5t-157.5 69.5q-105 0 -167.5 -70.5t-62.5 -204.5q0 -141 58.5 -210.5t162.5 -69.5z
M512 768l-119 83l-119 -83l-46 47l119 106h92l119 -106z" />
    <glyph glyph-name="Otilde" unicode="&#xd5;" horiz-adv-x="768" 
d="M380 -12q-170 0 -254 101.5t-84 274.5q0 165 92 269t260 104q112 0 188.5 -49.5t110.5 -129t34 -183.5q0 -181 -88 -284t-259 -103zM384 85q104 0 163.5 69t59.5 212q0 135 -56.5 204.5t-157.5 69.5q-105 0 -167.5 -70.5t-62.5 -204.5q0 -141 58.5 -210.5t162.5 -69.5z
M572 874l-23 -37q-18 -29 -32.5 -41.5t-33.5 -12.5q-17 0 -57 10q-101 28 -109 29q-9 2 -16 -5l-35 -36l-49 33l29 47q28 45 63 45q12 0 50 -9q90 -26 114 -30q8 -1 14 5l32 35z" />
    <glyph glyph-name="Odieresis" unicode="&#xd6;" horiz-adv-x="768" 
d="M380 -12q-170 0 -254 101.5t-84 274.5q0 165 92 269t260 104q112 0 188.5 -49.5t110.5 -129t34 -183.5q0 -181 -88 -284t-259 -103zM384 85q104 0 163.5 69t59.5 212q0 135 -56.5 204.5t-157.5 69.5q-105 0 -167.5 -70.5t-62.5 -204.5q0 -141 58.5 -210.5t162.5 -69.5z
M353 844q0 -28 -17 -44.5t-45 -16.5t-45.5 16.5t-17.5 44.5t17.5 44.5t45.5 16.5t45 -16.5t17 -44.5zM557 844q0 -28 -17 -44.5t-45 -16.5t-45 16.5t-17 44.5t17 44.5t45 16.5t45 -16.5t17 -44.5z" />
    <glyph glyph-name="multiply" unicode="&#xd7;" 
d="M387 149l-103 103l-102 -103l-69 68l103 104l-103 104l69 69l102 -104l103 104l69 -69l-103 -104l103 -104z" />
    <glyph glyph-name="Oslash" unicode="&#xd8;" horiz-adv-x="768" 
d="M260 -78h-108l45 109q-155 88 -155 333q0 165 92 269t260 104q49 0 95 -11l26 63h107l-42 -100q74 -45 110.5 -127t36.5 -187q0 -181 -88 -284t-259 -103q-48 0 -89 9zM163 365q0 -160 77 -231l210 499q-32 7 -57 7q-105 0 -167.5 -70.5t-62.5 -204.5zM384 85
q104 0 163.5 69t59.5 212q0 150 -70 220l-207 -496q28 -5 54 -5z" />
    <glyph glyph-name="Ugrave" unicode="&#xd9;" horiz-adv-x="787" 
d="M560 266v367q0 12 -3 15.5t-13 4.5l-63 7v64h267v-64l-67 -8q-11 -1 -13.5 -4.5t-2.5 -14.5v-384q0 -261 -274 -261q-141 0 -205 65t-64 199v381q0 12 -3 15.5t-13 4.5l-63 7v64h279v-64l-67 -8q-11 -1 -13.5 -4.5t-2.5 -14.5v-364q0 -96 36.5 -140t121.5 -44
q86 0 124.5 41t38.5 140zM482 766l-211 96l46 84l196 -126z" />
    <glyph glyph-name="Uacute" unicode="&#xda;" horiz-adv-x="787" 
d="M560 266v367q0 12 -3 15.5t-13 4.5l-63 7v64h267v-64l-67 -8q-11 -1 -13.5 -4.5t-2.5 -14.5v-384q0 -261 -274 -261q-141 0 -205 65t-64 199v381q0 12 -3 15.5t-13 4.5l-63 7v64h279v-64l-67 -8q-11 -1 -13.5 -4.5t-2.5 -14.5v-364q0 -96 36.5 -140t121.5 -44
q86 0 124.5 41t38.5 140zM541 863l-211 -97l-31 55l196 126z" />
    <glyph glyph-name="Ucircumflex" unicode="&#xdb;" horiz-adv-x="787" 
d="M560 266v367q0 12 -3 15.5t-13 4.5l-63 7v64h267v-64l-67 -8q-11 -1 -13.5 -4.5t-2.5 -14.5v-384q0 -261 -274 -261q-141 0 -205 65t-64 199v381q0 12 -3 15.5t-13 4.5l-63 7v64h279v-64l-67 -8q-11 -1 -13.5 -4.5t-2.5 -14.5v-364q0 -96 36.5 -140t121.5 -44
q86 0 124.5 41t38.5 140zM522 766l-119 83l-119 -83l-46 47l119 106h92l119 -106z" />
    <glyph glyph-name="Udieresis" unicode="&#xdc;" horiz-adv-x="787" 
d="M560 266v367q0 12 -3 15.5t-13 4.5l-63 7v64h267v-64l-67 -8q-11 -1 -13.5 -4.5t-2.5 -14.5v-384q0 -261 -274 -261q-141 0 -205 65t-64 199v381q0 12 -3 15.5t-13 4.5l-63 7v64h279v-64l-67 -8q-11 -1 -13.5 -4.5t-2.5 -14.5v-364q0 -96 36.5 -140t121.5 -44
q86 0 124.5 41t38.5 140zM363 842q0 -28 -17 -44.5t-45 -16.5t-45.5 16.5t-17.5 44.5t17.5 44.5t45.5 16.5t45 -16.5t17 -44.5zM567 842q0 -28 -17 -44.5t-45 -16.5t-45 16.5t-17 44.5t17 44.5t45 16.5t45 -16.5t17 -44.5z" />
    <glyph glyph-name="Yacute" unicode="&#xdd;" horiz-adv-x="642" 
d="M506 0h-349v64l97 7q10 1 13 4.5t3 15.5v185l-199 356q-7 13 -24 17l-45 11l10 64h253v-64l-76 -9l142 -273h5l143 273l-75 9l10 64h226v-64l-42 -11q-19 -5 -25 -19l-186 -352v-186q0 -12 2.5 -15.5t13.5 -4.5l103 -8v-64zM471 863l-211 -97l-31 55l196 126z" />
    <glyph glyph-name="Thorn" unicode="&#xde;" horiz-adv-x="655" 
d="M406 0h-354v64l63 7q10 1 13 5t3 15v541q0 12 -3 15.5t-13 4.5l-63 7v65h284v-64l-73 -8q-16 -2 -16 -20v-37h126q241 0 241 -205q0 -226 -274 -226h-93v-72q0 -12 2.5 -15.5t13.5 -4.5l143 -8v-64zM247 251h79q37 0 63.5 5t52 18t38.5 40.5t13 69.5q0 69 -39 96.5
t-117 27.5h-90v-257z" />
    <glyph glyph-name="germandbls" unicode="&#xdf;" horiz-adv-x="645" 
d="M212 0h-188v65l57 6q10 1 13 4.5t3 15.5v455q0 117 61 169t183 52q225 0 225 -185q0 -127 -110 -170v-3q73 -15 112.5 -60.5t39.5 -142.5q0 -95 -54 -156.5t-149 -61.5q-85 0 -145 34l29 77q58 -27 104 -27q48 0 72 37.5t24 101.5q0 71 -34 108.5t-112 37.5q-13 0 -49 -2
v83l50 6q104 12 104 128q0 112 -113 112q-64 0 -93.5 -28t-29.5 -104v-552z" />
    <glyph glyph-name="agrave" unicode="&#xe0;" horiz-adv-x="547" 
d="M530 0h-157l-10 59l-3 1q-75 -72 -176 -72q-143 0 -143 142q0 74 45.5 112t138.5 46l127 10v51q0 52 -17 74.5t-71 22.5q-24 0 -38 -2t-28 -8.5t-20 -22t-6 -40.5l-108 10q0 144 202 144q110 0 154.5 -38.5t44.5 -140.5v-257q0 -12 2.5 -15.5t13.5 -4.5l49 -7v-64z
M352 137v88l-95 -8q-55 -5 -76.5 -22t-21.5 -54q0 -35 16 -49.5t48 -14.5q69 0 129 60zM363 607l-46 -43l-177 144l69 67z" />
    <glyph glyph-name="aacute" unicode="&#xe1;" horiz-adv-x="547" 
d="M530 0h-157l-10 59l-3 1q-75 -72 -176 -72q-143 0 -143 142q0 74 45.5 112t138.5 46l127 10v51q0 52 -17 74.5t-71 22.5q-24 0 -38 -2t-28 -8.5t-20 -22t-6 -40.5l-108 10q0 144 202 144q110 0 154.5 -38.5t44.5 -140.5v-257q0 -12 2.5 -15.5t13.5 -4.5l49 -7v-64z
M352 137v88l-95 -8q-55 -5 -76.5 -22t-21.5 -54q0 -35 16 -49.5t48 -14.5q69 0 129 60zM385 708l-177 -144l-46 43l154 168z" />
    <glyph glyph-name="acircumflex" unicode="&#xe2;" horiz-adv-x="547" 
d="M530 0h-157l-10 59l-3 1q-75 -72 -176 -72q-143 0 -143 142q0 74 45.5 112t138.5 46l127 10v51q0 52 -17 74.5t-71 22.5q-24 0 -38 -2t-28 -8.5t-20 -22t-6 -40.5l-108 10q0 144 202 144q110 0 154.5 -38.5t44.5 -140.5v-257q0 -12 2.5 -15.5t13.5 -4.5l49 -7v-64z
M352 137v88l-95 -8q-55 -5 -76.5 -22t-21.5 -54q0 -35 16 -49.5t48 -14.5q69 0 129 60zM436 612l-50 -44l-121 98l-121 -98l-50 44l125 125h92z" />
    <glyph glyph-name="atilde" unicode="&#xe3;" horiz-adv-x="547" 
d="M530 0h-157l-10 59l-3 1q-75 -72 -176 -72q-143 0 -143 142q0 74 45.5 112t138.5 46l127 10v51q0 52 -17 74.5t-71 22.5q-24 0 -38 -2t-28 -8.5t-20 -22t-6 -40.5l-108 10q0 144 202 144q110 0 154.5 -38.5t44.5 -140.5v-257q0 -12 2.5 -15.5t13.5 -4.5l49 -7v-64z
M352 137v88l-95 -8q-55 -5 -76.5 -22t-21.5 -54q0 -35 16 -49.5t48 -14.5q69 0 129 60zM444 676l-23 -37q-18 -29 -32.5 -41.5t-33.5 -12.5q-17 0 -57 10q-101 28 -109 29q-9 2 -16 -5l-35 -36l-49 33l29 47q28 45 63 45q12 0 50 -9q90 -26 114 -30q7 -1 14 5l32 35z" />
    <glyph glyph-name="adieresis" unicode="&#xe4;" horiz-adv-x="547" 
d="M530 0h-157l-10 59l-3 1q-75 -72 -176 -72q-143 0 -143 142q0 74 45.5 112t138.5 46l127 10v51q0 52 -17 74.5t-71 22.5q-24 0 -38 -2t-28 -8.5t-20 -22t-6 -40.5l-108 10q0 144 202 144q110 0 154.5 -38.5t44.5 -140.5v-257q0 -12 2.5 -15.5t13.5 -4.5l49 -7v-64z
M352 137v88l-95 -8q-55 -5 -76.5 -22t-21.5 -54q0 -35 16 -49.5t48 -14.5q69 0 129 60zM225 663q0 -28 -17 -44.5t-45 -16.5t-45.5 16.5t-17.5 44.5q0 27 17.5 43.5t45.5 16.5t45 -16t17 -44zM429 663q0 -28 -17 -44.5t-45 -16.5t-45 16.5t-17 44.5t17 44t45 16t45 -16
t17 -44z" />
    <glyph glyph-name="aring" unicode="&#xe5;" horiz-adv-x="547" 
d="M530 0h-157l-10 59l-3 1q-75 -72 -176 -72q-143 0 -143 142q0 74 45.5 112t138.5 46l127 10v51q0 52 -17 74.5t-71 22.5q-24 0 -38 -2t-28 -8.5t-20 -22t-6 -40.5l-108 10q0 144 202 144q110 0 154.5 -38.5t44.5 -140.5v-257q0 -12 2.5 -15.5t13.5 -4.5l49 -7v-64z
M352 137v88l-95 -8q-55 -5 -76.5 -22t-21.5 -54q0 -35 16 -49.5t48 -14.5q69 0 129 60zM353 658q0 -39 -24.5 -63t-63.5 -24q-40 0 -64.5 23t-24.5 62q0 41 25.5 65t63.5 24t63 -23.5t25 -63.5zM265 621q34 0 34 37t-34 37q-35 0 -35 -38q0 -36 35 -36z" />
    <glyph glyph-name="ae" unicode="&#xe6;" horiz-adv-x="826" 
d="M750 116l32 -81q-92 -47 -191 -47q-124 0 -184 79q-103 -79 -210 -79q-156 0 -156 141q0 75 45.5 113.5t138.5 45.5l127 10v51q0 52 -17 74.5t-71 22.5q-24 0 -38 -2t-28 -8.5t-20 -22t-6 -40.5l-108 10q0 144 196 144q67 0 106.5 -17t59.5 -56q57 73 163 73
q202 0 202 -237q0 -23 -2 -59h-324q5 -77 37 -113.5t102 -36.5q67 0 146 35zM352 225l-95 -8q-56 -4 -77 -21.5t-21 -55.5q0 -65 66 -65q35 0 77 17.5t67 44.5q-12 37 -17 88zM465 311h212q-1 129 -99 129q-47 0 -78 -31.5t-35 -97.5z" />
    <glyph glyph-name="ccedilla" unicode="&#xe7;" horiz-adv-x="495" 
d="M187 -240l7 58q14 -2 28 -2q71 0 71 52q0 43 -68 44l11 80q-101 14 -151 83t-50 177q0 136 72.5 205.5t193.5 69.5q101 0 163 -36v-142l-83 4l-12 66q-1 10 -11 14q-23 9 -62 9q-63 0 -102 -43.5t-39 -137.5q0 -181 150 -181q69 0 127 31l33 -78q-65 -40 -166 -45l-4 -33
q76 -16 76 -85q0 -47 -35 -80.5t-106 -33.5q-32 0 -43 4z" />
    <glyph glyph-name="egrave" unicode="&#xe8;" horiz-adv-x="518" 
d="M442 115l32 -80q-92 -47 -192 -47q-247 0 -247 273q0 130 66 198t170 68q212 0 212 -241q0 -30 -3 -58h-323q4 -73 36 -110.5t102 -37.5q63 0 147 35zM158 311h210q0 129 -99 129q-46 0 -76.5 -32t-34.5 -97zM366 607l-46 -43l-177 144l69 67z" />
    <glyph glyph-name="eacute" unicode="&#xe9;" horiz-adv-x="518" 
d="M442 115l32 -80q-92 -47 -192 -47q-247 0 -247 273q0 130 66 198t170 68q212 0 212 -241q0 -30 -3 -58h-323q4 -73 36 -110.5t102 -37.5q63 0 147 35zM158 311h210q0 129 -99 129q-46 0 -76.5 -32t-34.5 -97zM388 708l-177 -144l-46 43l154 168z" />
    <glyph glyph-name="ecircumflex" unicode="&#xea;" horiz-adv-x="518" 
d="M442 115l32 -80q-92 -47 -192 -47q-247 0 -247 273q0 130 66 198t170 68q212 0 212 -241q0 -30 -3 -58h-323q4 -73 36 -110.5t102 -37.5q63 0 147 35zM158 311h210q0 129 -99 129q-46 0 -76.5 -32t-34.5 -97zM439 612l-50 -44l-121 98l-121 -98l-50 44l125 125h92z" />
    <glyph glyph-name="edieresis" unicode="&#xeb;" horiz-adv-x="518" 
d="M442 115l32 -80q-92 -47 -192 -47q-247 0 -247 273q0 130 66 198t170 68q212 0 212 -241q0 -30 -3 -58h-323q4 -73 36 -110.5t102 -37.5q63 0 147 35zM158 311h210q0 129 -99 129q-46 0 -76.5 -32t-34.5 -97zM228 663q0 -28 -17 -44.5t-45 -16.5t-45.5 16.5t-17.5 44.5
q0 27 17.5 43.5t45.5 16.5t45 -16t17 -44zM432 663q0 -28 -17 -44.5t-45 -16.5t-45 16.5t-17 44.5t17 44t45 16t45 -16t17 -44z" />
    <glyph glyph-name="igrave" unicode="&#xec;" horiz-adv-x="305" 
d="M289 0h-266v63l60 8q10 1 13 5t3 15v322q0 17 -13 21l-55 19l10 64h173v-426q0 -12 2.5 -15.5t13.5 -4.5l59 -7v-64zM244 602l-46 -43l-177 144l69 67z" />
    <glyph glyph-name="iacute" unicode="&#xed;" horiz-adv-x="305" 
d="M289 0h-266v63l60 8q10 1 13 5t3 15v322q0 17 -13 21l-55 19l10 64h173v-426q0 -12 2.5 -15.5t13.5 -4.5l59 -7v-64zM256 703l-177 -144l-46 43l154 168z" />
    <glyph glyph-name="icircumflex" unicode="&#xee;" horiz-adv-x="305" 
d="M295 610l-50 -44l-109 98l-109 -98l-50 44l113 125h92zM289 0h-266v63l60 8q10 1 13 5t3 15v322q0 17 -13 21l-55 19l10 64h173v-426q0 -12 2.5 -15.5t13.5 -4.5l59 -7v-64z" />
    <glyph glyph-name="idieresis" unicode="&#xef;" horiz-adv-x="305" 
d="M289 0h-266v63l60 8q10 1 13 5t3 15v322q0 17 -13 21l-55 19l10 64h173v-426q0 -12 2.5 -15.5t13.5 -4.5l59 -7v-64zM96 644q0 -28 -17 -44.5t-45 -16.5t-45.5 16.5t-17.5 44.5q0 27 17.5 43.5t45.5 16.5t45 -16t17 -44zM300 644q0 -28 -17 -44.5t-45 -16.5t-45 16.5
t-17 44.5t17 44t45 16t45 -16t17 -44z" />
    <glyph glyph-name="eth" unicode="&#xf0;" horiz-adv-x="568" 
d="M228 542l-45 71l72 39q-51 28 -111 42l34 84q109 -19 183 -68l102 55l39 -73l-74 -41q103 -116 103 -334q0 -68 -13 -124t-41 -103.5t-79.5 -74.5t-121.5 -27q-239 0 -239 265q0 108 60.5 179.5t176.5 71.5q71 0 125 -33q-17 69 -72 125zM156 253q0 -180 127 -180
q134 0 134 234q0 19 -4 63q-19 19 -55 33.5t-73 14.5q-129 0 -129 -165z" />
    <glyph glyph-name="ntilde" unicode="&#xf1;" horiz-adv-x="628" 
d="M608 0h-252v63l50 6q16 2 16 20v232q0 54 -13.5 82t-57.5 28q-65 0 -137 -52v-288q0 -12 2.5 -15.5t13.5 -4.5l53 -7v-64h-248v65l48 6q10 1 13 5t3 15v322q0 17 -13 21l-55 19l10 64h148l8 -55l4 -1q97 66 187 66q149 0 149 -183v-253q0 -12 2.5 -15.5t13.5 -4.5l55 -7
v-64zM483 676l-23 -37q-18 -29 -32.5 -41.5t-33.5 -12.5q-17 0 -57 10q-101 28 -109 29q-9 2 -16 -5l-35 -36l-49 33l29 47q28 45 63 45q12 0 50 -9q90 -26 114 -30q8 -1 14 5l32 35z" />
    <glyph glyph-name="ograve" unicode="&#xf2;" horiz-adv-x="573" 
d="M284 -12q-130 0 -189.5 71t-59.5 194q0 128 65 201t194 73q126 0 185 -70t59 -191q0 -131 -63 -204.5t-191 -73.5zM287 73q132 0 132 187q0 94 -31.5 137t-96.5 43q-136 0 -136 -181q0 -186 132 -186zM392 607l-46 -43l-177 144l69 67z" />
    <glyph glyph-name="oacute" unicode="&#xf3;" horiz-adv-x="573" 
d="M284 -12q-130 0 -189.5 71t-59.5 194q0 128 65 201t194 73q126 0 185 -70t59 -191q0 -131 -63 -204.5t-191 -73.5zM287 73q132 0 132 187q0 94 -31.5 137t-96.5 43q-136 0 -136 -181q0 -186 132 -186zM414 708l-177 -144l-46 43l154 168z" />
    <glyph glyph-name="ocircumflex" unicode="&#xf4;" horiz-adv-x="573" 
d="M284 -12q-130 0 -189.5 71t-59.5 194q0 128 65 201t194 73q126 0 185 -70t59 -191q0 -131 -63 -204.5t-191 -73.5zM287 73q132 0 132 187q0 94 -31.5 137t-96.5 43q-136 0 -136 -181q0 -186 132 -186zM465 612l-50 -44l-121 98l-121 -98l-50 44l125 125h92z" />
    <glyph glyph-name="otilde" unicode="&#xf5;" horiz-adv-x="573" 
d="M284 -12q-130 0 -189.5 71t-59.5 194q0 128 65 201t194 73q126 0 185 -70t59 -191q0 -131 -63 -204.5t-191 -73.5zM287 73q132 0 132 187q0 94 -31.5 137t-96.5 43q-136 0 -136 -181q0 -186 132 -186zM473 676l-23 -37q-18 -29 -32.5 -41.5t-33.5 -12.5q-17 0 -57 10
q-101 28 -109 29q-9 2 -16 -5l-35 -36l-49 33l29 47q28 45 63 45q12 0 50 -9q90 -26 114 -30q8 -1 14 5l32 35z" />
    <glyph glyph-name="odieresis" unicode="&#xf6;" horiz-adv-x="573" 
d="M284 -12q-130 0 -189.5 71t-59.5 194q0 128 65 201t194 73q126 0 185 -70t59 -191q0 -131 -63 -204.5t-191 -73.5zM287 73q132 0 132 187q0 94 -31.5 137t-96.5 43q-136 0 -136 -181q0 -186 132 -186zM254 663q0 -28 -17 -44.5t-45 -16.5t-45.5 16.5t-17.5 44.5
q0 27 17.5 43.5t45.5 16.5t45 -16t17 -44zM458 663q0 -28 -17 -44.5t-45 -16.5t-45 16.5t-17 44.5t17 44t45 16t45 -16t17 -44z" />
    <glyph glyph-name="divide" unicode="&#xf7;" 
d="M350 162q0 -66 -70 -66t-70 66q0 31 18 48.5t52 17.5t52 -17.5t18 -48.5zM475 274h-381v94h381v-94zM350 481q0 -66 -70 -66t-70 66q0 31 18 48.5t52 17.5t52 -17.5t18 -48.5z" />
    <glyph glyph-name="oslash" unicode="&#xf8;" horiz-adv-x="573" 
d="M184 -85h-97l48 109q-100 62 -100 229q0 128 65 201t194 73q30 0 62 -5l31 69h96l-44 -100q99 -62 99 -225q0 -131 -63 -204.5t-191 -73.5q-36 0 -66 6zM287 73q132 0 132 187q0 84 -26 128l-138 -312q15 -3 32 -3zM155 259q0 -85 27 -131l137 310q-18 2 -28 2
q-136 0 -136 -181z" />
    <glyph glyph-name="ugrave" unicode="&#xf9;" horiz-adv-x="626" 
d="M599 0h-158l-9 61l-3 1q-93 -74 -187 -74q-79 0 -111.5 40.5t-32.5 129.5v260q0 12 -2.5 16t-13.5 6l-51 12l9 65h173v-334q0 -54 13.5 -78.5t53.5 -24.5q71 0 139 70v268q0 12 -2.5 16t-13.5 6l-48 12l9 65h170v-426q0 -18 13 -20l52 -7v-64zM400 607l-46 -43l-177 144
l69 67z" />
    <glyph glyph-name="uacute" unicode="&#xfa;" horiz-adv-x="626" 
d="M599 0h-158l-9 61l-3 1q-93 -74 -187 -74q-79 0 -111.5 40.5t-32.5 129.5v260q0 12 -2.5 16t-13.5 6l-51 12l9 65h173v-334q0 -54 13.5 -78.5t53.5 -24.5q71 0 139 70v268q0 12 -2.5 16t-13.5 6l-48 12l9 65h170v-426q0 -18 13 -20l52 -7v-64zM422 708l-177 -144l-46 43
l154 168z" />
    <glyph glyph-name="ucircumflex" unicode="&#xfb;" horiz-adv-x="626" 
d="M599 0h-158l-9 61l-3 1q-93 -74 -187 -74q-79 0 -111.5 40.5t-32.5 129.5v260q0 12 -2.5 16t-13.5 6l-51 12l9 65h173v-334q0 -54 13.5 -78.5t53.5 -24.5q71 0 139 70v268q0 12 -2.5 16t-13.5 6l-48 12l9 65h170v-426q0 -18 13 -20l52 -7v-64zM473 612l-50 -44l-121 98
l-121 -98l-50 44l125 125h92z" />
    <glyph glyph-name="udieresis" unicode="&#xfc;" horiz-adv-x="626" 
d="M599 0h-158l-9 61l-3 1q-93 -74 -187 -74q-79 0 -111.5 40.5t-32.5 129.5v260q0 12 -2.5 16t-13.5 6l-51 12l9 65h173v-334q0 -54 13.5 -78.5t53.5 -24.5q71 0 139 70v268q0 12 -2.5 16t-13.5 6l-48 12l9 65h170v-426q0 -18 13 -20l52 -7v-64zM262 663q0 -28 -17 -44.5
t-45 -16.5t-45.5 16.5t-17.5 44.5q0 27 17.5 43.5t45.5 16.5t45 -16t17 -44zM466 663q0 -28 -17 -44.5t-45 -16.5t-45 16.5t-17 44.5t17 44t45 16t45 -16t17 -44z" />
    <glyph glyph-name="yacute" unicode="&#xfd;" horiz-adv-x="597" 
d="M399 -212h-296v66l71 8q12 1 16.5 5.5t10.5 16.5l51 117l-184 424q-5 13 -21 17l-41 9l13 66h233v-66l-65 -8l125 -309h4l124 309l-66 8l11 66h206v-66l-33 -5q-19 -3 -25 -17l-234 -566l100 -10v-65zM424 708l-177 -144l-46 43l154 168z" />
    <glyph glyph-name="thorn" unicode="&#xfe;" horiz-adv-x="594" 
d="M314 -212h-285v65l41 6q10 1 13.5 5.5t3.5 15.5v771q0 17 -13 21l-56 19l10 64h173v-291q89 63 167 63q188 0 188 -252q0 -53 -9.5 -100t-31 -91t-64 -70t-101.5 -26q-89 0 -150 53v-161q0 -12 2.5 -15.5t13.5 -4.5l98 -8v-64zM202 381v-251q54 -50 113 -50
q123 0 123 188q0 165 -109 165q-62 0 -127 -52z" />
    <glyph glyph-name="ydieresis" unicode="&#xff;" horiz-adv-x="597" 
d="M399 -212h-296v66l71 8q12 1 16.5 5.5t10.5 16.5l51 117l-184 424q-5 13 -21 17l-41 9l13 66h233v-66l-65 -8l125 -309h4l124 309l-66 8l11 66h206v-66l-33 -5q-19 -3 -25 -17l-234 -566l100 -10v-65zM264 663q0 -28 -17 -44.5t-45 -16.5t-45.5 16.5t-17.5 44.5
q0 27 17.5 43.5t45.5 16.5t45 -16t17 -44zM468 663q0 -28 -17 -44.5t-45 -16.5t-45 16.5t-17 44.5t17 44t45 16t45 -16t17 -44z" />
    <glyph glyph-name="Amacron" unicode="&#x100;" horiz-adv-x="732" 
d="M726 0h-273v64l82 9l-46 135h-267l-46 -135l80 -9v-64h-250v63l43 11q20 5 25 19l220 631h141l221 -633q4 -12 24 -17l46 -11v-63zM464 296l-106 317h-3l-107 -317h216zM520 790h-311v82h311v-82z" />
    <glyph glyph-name="amacron" unicode="&#x101;" horiz-adv-x="547" 
d="M530 0h-157l-10 59l-3 1q-75 -72 -176 -72q-143 0 -143 142q0 74 45.5 112t138.5 46l127 10v51q0 52 -17 74.5t-71 22.5q-24 0 -38 -2t-28 -8.5t-20 -22t-6 -40.5l-108 10q0 144 202 144q110 0 154.5 -38.5t44.5 -140.5v-257q0 -12 2.5 -15.5t13.5 -4.5l49 -7v-64z
M352 137v88l-95 -8q-55 -5 -76.5 -22t-21.5 -54q0 -35 16 -49.5t48 -14.5q69 0 129 60zM421 606h-311v82h311v-82z" />
    <glyph glyph-name="Abreve" unicode="&#x102;" horiz-adv-x="732" 
d="M726 0h-273v64l82 9l-46 135h-267l-46 -135l80 -9v-64h-250v63l43 11q20 5 25 19l220 631h141l221 -633q4 -12 24 -17l46 -11v-63zM464 296l-106 317h-3l-107 -317h216zM461 928l63 -23q-34 -123 -162 -123q-126 0 -158 123l65 24q25 -72 95 -72t97 71z" />
    <glyph glyph-name="abreve" unicode="&#x103;" horiz-adv-x="547" 
d="M530 0h-157l-10 59l-3 1q-75 -72 -176 -72q-143 0 -143 142q0 74 45.5 112t138.5 46l127 10v51q0 52 -17 74.5t-71 22.5q-24 0 -38 -2t-28 -8.5t-20 -22t-6 -40.5l-108 10q0 144 202 144q110 0 154.5 -38.5t44.5 -140.5v-257q0 -12 2.5 -15.5t13.5 -4.5l49 -7v-64z
M352 137v88l-95 -8q-55 -5 -76.5 -22t-21.5 -54q0 -35 16 -49.5t48 -14.5q69 0 129 60zM370 731l64 -24q-37 -135 -171 -135q-132 0 -167 135l70 24q15 -44 38 -64t61 -20q75 0 105 84z" />
    <glyph glyph-name="Aogonek" unicode="&#x104;" horiz-adv-x="732" 
d="M635 -137l23 -63q-51 -24 -103 -24q-46 0 -71.5 21.5t-25.5 61.5q0 69 89 141h-94v64l82 9l-46 135h-267l-46 -135l80 -9v-64h-250v63l43 11q20 5 25 19l220 631h141l221 -633q4 -12 24 -17l46 -11v-63h-91q-80 -68 -80 -117q0 -31 30 -31q22 0 50 11zM464 296l-106 317
h-3l-107 -317h216z" />
    <glyph glyph-name="aogonek" unicode="&#x105;" horiz-adv-x="547" 
d="M530 0q-100 -58 -100 -117q0 -31 30 -31q22 0 50 11l23 -63q-51 -24 -103 -24q-46 0 -71.5 21.5t-25.5 61.5q0 78 104 141h-64l-10 59l-3 1q-75 -72 -176 -72q-143 0 -143 142q0 74 45.5 112t138.5 46l127 10v51q0 52 -17 74.5t-71 22.5q-24 0 -38 -2t-28 -8.5t-20 -22
t-6 -40.5l-108 10q0 144 202 144q110 0 154.5 -38.5t44.5 -140.5v-257q0 -12 2.5 -15.5t13.5 -4.5l49 -7v-64zM352 137v88l-95 -8q-55 -5 -76.5 -22t-21.5 -54q0 -35 16 -49.5t48 -14.5q69 0 129 60z" />
    <glyph glyph-name="Cacute" unicode="&#x106;" horiz-adv-x="681" 
d="M631 207v-165q-84 -54 -244 -54q-178 0 -262 100t-84 278q0 166 94 268.5t271 102.5q139 0 223 -55v-175l-85 6l-17 97q-1 13 -14 17q-56 18 -112 18q-111 0 -174.5 -72t-63.5 -207q0 -141 61 -214t170 -73q81 0 124 17q14 4 16 19l16 92h81zM530 863l-211 -97l-31 55
l196 126z" />
    <glyph glyph-name="cacute" unicode="&#x107;" horiz-adv-x="495" 
d="M432 111l33 -78q-73 -45 -179 -45q-126 0 -188.5 71.5t-62.5 192.5q0 136 72.5 205.5t193.5 69.5q101 0 163 -36v-142l-83 4l-12 66q-1 10 -11 14q-23 9 -62 9q-63 0 -102 -43.5t-39 -137.5q0 -181 150 -181q69 0 127 31zM407 708l-177 -144l-46 43l154 168z" />
    <glyph glyph-name="Ccircumflex" unicode="&#x108;" horiz-adv-x="681" 
d="M631 207v-165q-84 -54 -244 -54q-178 0 -262 100t-84 278q0 166 94 268.5t271 102.5q139 0 223 -55v-175l-85 6l-17 97q-1 13 -14 17q-56 18 -112 18q-111 0 -174.5 -72t-63.5 -207q0 -141 61 -214t170 -73q81 0 124 17q14 4 16 19l16 92h81zM511 766l-119 83l-119 -83
l-46 47l119 106h92l119 -106z" />
    <glyph glyph-name="ccircumflex" unicode="&#x109;" horiz-adv-x="495" 
d="M432 111l33 -78q-73 -45 -179 -45q-126 0 -188.5 71.5t-62.5 192.5q0 136 72.5 205.5t193.5 69.5q101 0 163 -36v-142l-83 4l-12 66q-1 10 -11 14q-23 9 -62 9q-63 0 -102 -43.5t-39 -137.5q0 -181 150 -181q69 0 127 31zM458 612l-50 -44l-121 98l-121 -98l-50 44
l125 125h92z" />
    <glyph glyph-name="Cdotaccent" unicode="&#x10a;" horiz-adv-x="681" 
d="M631 207v-165q-84 -54 -244 -54q-178 0 -262 100t-84 278q0 166 94 268.5t271 102.5q139 0 223 -55v-175l-85 6l-17 97q-1 13 -14 17q-56 18 -112 18q-111 0 -174.5 -72t-63.5 -207q0 -141 61 -214t170 -73q81 0 124 17q14 4 16 19l16 92h81zM467 855q0 -35 -19.5 -54.5
t-55.5 -19.5q-35 0 -55 19.5t-20 54.5q0 36 19.5 55t55.5 19q75 0 75 -74z" />
    <glyph glyph-name="cdotaccent" unicode="&#x10b;" horiz-adv-x="495" 
d="M432 111l33 -78q-73 -45 -179 -45q-126 0 -188.5 71.5t-62.5 192.5q0 136 72.5 205.5t193.5 69.5q101 0 163 -36v-142l-83 4l-12 66q-1 10 -11 14q-23 9 -62 9q-63 0 -102 -43.5t-39 -137.5q0 -181 150 -181q69 0 127 31zM362 691q0 -35 -19.5 -54.5t-55.5 -19.5
q-35 0 -55 19.5t-20 54.5t20 54.5t55 19.5q36 0 55.5 -19.5t19.5 -54.5z" />
    <glyph glyph-name="Ccaron" unicode="&#x10c;" horiz-adv-x="681" 
d="M631 207v-165q-84 -54 -244 -54q-178 0 -262 100t-84 278q0 166 94 268.5t271 102.5q139 0 223 -55v-175l-85 6l-17 97q-1 13 -14 17q-56 18 -112 18q-111 0 -174.5 -72t-63.5 -207q0 -141 61 -214t170 -73q81 0 124 17q14 4 16 19l16 92h81zM557 884l-119 -106h-92
l-118 106l48 47l118 -83l119 83z" />
    <glyph glyph-name="ccaron" unicode="&#x10d;" horiz-adv-x="495" 
d="M432 111l33 -78q-73 -45 -179 -45q-126 0 -188.5 71.5t-62.5 192.5q0 136 72.5 205.5t193.5 69.5q101 0 163 -36v-142l-83 4l-12 66q-1 10 -11 14q-23 9 -62 9q-63 0 -102 -43.5t-39 -137.5q0 -181 150 -181q69 0 127 31zM333 579h-92l-123 125l52 44l120 -97l122 97
l48 -44z" />
    <glyph glyph-name="Dcaron" unicode="&#x10e;" horiz-adv-x="761" 
d="M344 0h-292v64l63 7q10 1 13 5t3 15v541q0 12 -3 15.5t-13 4.5l-63 7v65h309q183 0 271 -91.5t88 -259.5q0 -173 -94 -273t-282 -100zM248 87h89q135 0 199 72t64 203q0 150 -62.5 212.5t-194.5 62.5h-95v-550zM509 884l-119 -106h-92l-118 106l48 47l118 -83l119 83z
" />
    <glyph glyph-name="dcaron" unicode="&#x10f;" horiz-adv-x="678" 
d="M579 0h-159l-9 59l-6 1q-72 -72 -170 -72q-191 0 -191 261q0 141 58 209.5t152 68.5q87 0 148 -45v170q0 16 -13 20l-57 19l10 64h172v-664q0 -12 2.5 -15.5t13.5 -4.5l49 -7v-64zM399 149v238q-58 48 -116 48q-120 0 -120 -183q0 -90 26 -130t78 -40q69 0 132 67z
M629 549l-63 18q21 69 21 109q0 35 -14 63l87 36q23 -26 23 -62q0 -24 -7 -45q-17 -55 -47 -119z" />
    <glyph glyph-name="Dcroat" unicode="&#x110;" horiz-adv-x="770" 
d="M353 0h-292v64l63 7q10 1 13 5t3 15v220h-63v91h63v230q0 12 -3 15.5t-13 4.5l-63 7v65h309q183 0 271 -91.5t88 -259.5q0 -173 -94 -273t-282 -100zM257 87h89q135 0 199 72t64 203q0 150 -62.5 212.5t-194.5 62.5h-95v-235h171v-91h-171v-224z" />
    <glyph glyph-name="dcroat" unicode="&#x111;" horiz-adv-x="604" 
d="M579 0h-159l-9 59l-6 1q-72 -72 -170 -72q-90 0 -140.5 61t-50.5 190q0 140 57.5 204t152.5 64q84 0 148 -47v96h-177v76h177v20q0 16 -13 20l-57 19l10 64h172v-123h62v-76h-62v-465q0 -12 2.5 -15.5t13.5 -4.5l49 -7v-64zM399 147v220q-58 48 -116 48q-120 0 -120 -173
q0 -85 27 -122.5t79 -37.5q69 0 130 65z" />
    <glyph glyph-name="Emacron" unicode="&#x112;" horiz-adv-x="633" 
d="M588 0h-536v64l63 7q10 1 13 5t3 15v541q0 12 -3 15.5t-13 4.5l-63 7v65h514v-180l-85 4l-14 77q-3 13 -17 13h-202v-230h254v-87h-254v-236h224q14 0 16 11l16 88h84v-184zM475 790h-311v82h311v-82z" />
    <glyph glyph-name="emacron" unicode="&#x113;" horiz-adv-x="518" 
d="M442 115l32 -80q-92 -47 -192 -47q-247 0 -247 273q0 130 66 198t170 68q212 0 212 -241q0 -30 -3 -58h-323q4 -73 36 -110.5t102 -37.5q63 0 147 35zM158 311h210q0 129 -99 129q-46 0 -76.5 -32t-34.5 -97zM424 606h-311v82h311v-82z" />
    <glyph glyph-name="Ebreve" unicode="&#x114;" horiz-adv-x="633" 
d="M588 0h-536v64l63 7q10 1 13 5t3 15v541q0 12 -3 15.5t-13 4.5l-63 7v65h514v-180l-85 4l-14 77q-3 13 -17 13h-202v-230h254v-87h-254v-236h224q14 0 16 11l16 88h84v-184zM416 928l63 -23q-34 -123 -162 -123q-126 0 -158 123l65 24q25 -72 95 -72t97 71z" />
    <glyph glyph-name="ebreve" unicode="&#x115;" horiz-adv-x="518" 
d="M442 115l32 -80q-92 -47 -192 -47q-247 0 -247 273q0 130 66 198t170 68q212 0 212 -241q0 -30 -3 -58h-323q4 -73 36 -110.5t102 -37.5q63 0 147 35zM158 311h210q0 129 -99 129q-46 0 -76.5 -32t-34.5 -97zM373 731l64 -24q-37 -135 -171 -135q-132 0 -167 135l70 24
q15 -44 38 -64t61 -20q75 0 105 84z" />
    <glyph glyph-name="Edotaccent" unicode="&#x116;" horiz-adv-x="633" 
d="M588 0h-536v64l63 7q10 1 13 5t3 15v541q0 12 -3 15.5t-13 4.5l-63 7v65h514v-180l-85 4l-14 77q-3 13 -17 13h-202v-230h254v-87h-254v-236h224q14 0 16 11l16 88h84v-184zM394 855q0 -35 -19.5 -54.5t-55.5 -19.5q-35 0 -55 19.5t-20 54.5q0 36 19.5 55t55.5 19
q75 0 75 -74z" />
    <glyph glyph-name="edotaccent" unicode="&#x117;" horiz-adv-x="518" 
d="M442 115l32 -80q-92 -47 -192 -47q-247 0 -247 273q0 130 66 198t170 68q212 0 212 -241q0 -30 -3 -58h-323q4 -73 36 -110.5t102 -37.5q63 0 147 35zM158 311h210q0 129 -99 129q-46 0 -76.5 -32t-34.5 -97zM343 691q0 -35 -19.5 -54.5t-55.5 -19.5q-35 0 -55 19.5
t-20 54.5t20 54.5t55 19.5q36 0 55.5 -19.5t19.5 -54.5z" />
    <glyph glyph-name="Eogonek" unicode="&#x118;" horiz-adv-x="627" 
d="M588 0q-110 -64 -110 -117q0 -31 30 -31q22 0 50 11l23 -63q-51 -24 -103 -24q-46 0 -71.5 21.5t-25.5 61.5q0 78 104 141h-433v64l63 7q10 1 13 5t3 15v541q0 12 -3 15.5t-13 4.5l-63 7v65h514v-180l-85 4l-14 77q-3 13 -17 13h-202v-230h254v-87h-254v-236h224
q14 0 16 11l16 88h84v-184z" />
    <glyph glyph-name="eogonek" unicode="&#x119;" horiz-adv-x="518" 
d="M396 -137l23 -63q-51 -24 -103 -24q-46 0 -71.5 21.5t-25.5 61.5q0 65 76 129h-13q-247 0 -247 273q0 130 66 198t170 68q212 0 212 -241q0 -26 -3 -55h-323q3 -74 35.5 -112.5t102.5 -38.5q63 0 147 35l32 -80l-66 -34q-36 -19 -64 -52.5t-28 -65.5q0 -31 30 -31
q22 0 50 11zM158 311h210q0 129 -99 129q-46 0 -76.5 -32t-34.5 -97z" />
    <glyph glyph-name="Ecaron" unicode="&#x11a;" horiz-adv-x="633" 
d="M588 0h-536v64l63 7q10 1 13 5t3 15v541q0 12 -3 15.5t-13 4.5l-63 7v65h514v-180l-85 4l-14 77q-3 13 -17 13h-202v-230h254v-87h-254v-236h224q14 0 16 11l16 88h84v-184zM484 884l-119 -106h-92l-118 106l48 47l118 -83l119 83z" />
    <glyph glyph-name="ecaron" unicode="&#x11b;" horiz-adv-x="518" 
d="M442 115l32 -80q-92 -47 -192 -47q-247 0 -247 273q0 130 66 198t170 68q212 0 212 -241q0 -30 -3 -58h-323q4 -73 36 -110.5t102 -37.5q63 0 147 35zM158 311h210q0 129 -99 129q-46 0 -76.5 -32t-34.5 -97zM314 579h-92l-123 125l52 44l120 -97l122 97l48 -44z" />
    <glyph glyph-name="Gcircumflex" unicode="&#x11c;" horiz-adv-x="732" 
d="M715 277l-42 -4q-16 -1 -16 -14v-227q-91 -44 -247 -44q-193 0 -281 101.5t-88 276.5q0 166 94 268.5t272 102.5q139 0 224 -56v-171l-86 7l-16 91q-3 16 -14 19q-56 18 -115 18q-110 0 -173.5 -73.5t-63.5 -204.5q0 -138 65 -213t188 -75q61 0 111 12q14 3 14 17v159
h-126l13 75h287v-65zM503 766l-119 83l-119 -83l-46 47l119 106h92l119 -106z" />
    <glyph glyph-name="gcircumflex" unicode="&#x11d;" horiz-adv-x="554" 
d="M543 444l-94 -6q38 -49 38 -103q0 -84 -59 -132t-150 -48q-56 0 -84 9l-46 -76l123 -6q53 -3 82.5 -5t64 -8t52.5 -14.5t34.5 -23.5t23 -36.5t6.5 -51.5q0 -80 -68.5 -124t-197.5 -44q-239 0 -239 123q0 33 15 56.5t46 52.5q-46 20 -46 62q0 29 25 57q5 6 16.5 19t21 24
t17.5 19q-36 19 -57 57.5t-21 89.5q0 86 58 139t163 53q59 0 94 -10h182v-73zM385 339q0 51 -29.5 79t-82.5 28t-84.5 -27.5t-31.5 -81.5q0 -46 27.5 -73t85.5 -27q52 0 83.5 28t31.5 74zM323 -23l-154 9q-38 -40 -38 -70q0 -61 140 -61q148 0 148 72q0 21 -14 32t-29.5 13
t-52.5 5zM444 612l-50 -44l-121 98l-121 -98l-50 44l125 125h92z" />
    <glyph glyph-name="Gbreve" unicode="&#x11e;" horiz-adv-x="732" 
d="M715 277l-42 -4q-16 -1 -16 -14v-227q-91 -44 -247 -44q-193 0 -281 101.5t-88 276.5q0 166 94 268.5t272 102.5q139 0 224 -56v-171l-86 7l-16 91q-3 16 -14 19q-56 18 -115 18q-110 0 -173.5 -73.5t-63.5 -204.5q0 -138 65 -213t188 -75q61 0 111 12q14 3 14 17v159
h-126l13 75h287v-65zM481 928l63 -23q-34 -123 -162 -123q-126 0 -158 123l65 24q25 -72 95 -72t97 71z" />
    <glyph glyph-name="gbreve" unicode="&#x11f;" horiz-adv-x="554" 
d="M543 444l-94 -6q38 -49 38 -103q0 -84 -59 -132t-150 -48q-56 0 -84 9l-46 -76l123 -6q53 -3 82.5 -5t64 -8t52.5 -14.5t34.5 -23.5t23 -36.5t6.5 -51.5q0 -80 -68.5 -124t-197.5 -44q-239 0 -239 123q0 33 15 56.5t46 52.5q-46 20 -46 62q0 29 25 57q5 6 16.5 19t21 24
t17.5 19q-36 19 -57 57.5t-21 89.5q0 86 58 139t163 53q59 0 94 -10h182v-73zM385 339q0 51 -29.5 79t-82.5 28t-84.5 -27.5t-31.5 -81.5q0 -46 27.5 -73t85.5 -27q52 0 83.5 28t31.5 74zM323 -23l-154 9q-38 -40 -38 -70q0 -61 140 -61q148 0 148 72q0 21 -14 32t-29.5 13
t-52.5 5zM378 731l64 -24q-37 -135 -171 -135q-132 0 -167 135l70 24q15 -44 38 -64t61 -20q75 0 105 84z" />
    <glyph glyph-name="Gdotaccent" unicode="&#x120;" horiz-adv-x="732" 
d="M715 277l-42 -4q-16 -1 -16 -14v-227q-91 -44 -247 -44q-193 0 -281 101.5t-88 276.5q0 166 94 268.5t272 102.5q139 0 224 -56v-171l-86 7l-16 91q-3 16 -14 19q-56 18 -115 18q-110 0 -173.5 -73.5t-63.5 -204.5q0 -138 65 -213t188 -75q61 0 111 12q14 3 14 17v159
h-126l13 75h287v-65zM459 855q0 -35 -19.5 -54.5t-55.5 -19.5q-35 0 -55 19.5t-20 54.5q0 36 19.5 55t55.5 19q75 0 75 -74z" />
    <glyph glyph-name="gdotaccent" unicode="&#x121;" horiz-adv-x="554" 
d="M543 444l-94 -6q38 -49 38 -103q0 -84 -59 -132t-150 -48q-56 0 -84 9l-46 -76l123 -6q53 -3 82.5 -5t64 -8t52.5 -14.5t34.5 -23.5t23 -36.5t6.5 -51.5q0 -80 -68.5 -124t-197.5 -44q-239 0 -239 123q0 33 15 56.5t46 52.5q-46 20 -46 62q0 29 25 57q5 6 16.5 19t21 24
t17.5 19q-36 19 -57 57.5t-21 89.5q0 86 58 139t163 53q59 0 94 -10h182v-73zM385 339q0 51 -29.5 79t-82.5 28t-84.5 -27.5t-31.5 -81.5q0 -46 27.5 -73t85.5 -27q52 0 83.5 28t31.5 74zM323 -23l-154 9q-38 -40 -38 -70q0 -61 140 -61q148 0 148 72q0 21 -14 32t-29.5 13
t-52.5 5zM348 691q0 -35 -19.5 -54.5t-55.5 -19.5q-35 0 -55 19.5t-20 54.5t20 54.5t55 19.5q36 0 55.5 -19.5t19.5 -54.5z" />
    <glyph glyph-name="Gcommaaccent" unicode="&#x122;" horiz-adv-x="732" 
d="M715 277l-42 -4q-16 -1 -16 -14v-227q-91 -44 -247 -44q-193 0 -281 101.5t-88 276.5q0 166 94 268.5t272 102.5q139 0 224 -56v-171l-86 7l-16 91q-3 16 -14 19q-56 18 -115 18q-110 0 -173.5 -73.5t-63.5 -204.5q0 -138 65 -213t188 -75q61 0 111 12q14 3 14 17v159
h-126l13 75h287v-65zM393 -278l-53 17l22 91q1 8 -5 11l-36 14l21 87q58 -2 87 -15t29 -53q0 -26 -18 -60z" />
    <glyph glyph-name="gcommaaccent" unicode="&#x123;" horiz-adv-x="554" 
d="M543 444l-94 -6q38 -49 38 -103q0 -84 -59 -132t-150 -48q-56 0 -84 9l-46 -76l123 -6q53 -3 82.5 -5t64 -8t52.5 -14.5t34.5 -23.5t23 -36.5t6.5 -51.5q0 -80 -68.5 -124t-197.5 -44q-239 0 -239 123q0 33 15 56.5t46 52.5q-46 20 -46 62q0 29 25 57q5 6 16.5 19t21 24
t17.5 19q-36 19 -57 57.5t-21 89.5q0 86 58 139t163 53q59 0 94 -10h182v-73zM385 339q0 51 -29.5 79t-82.5 28t-84.5 -27.5t-31.5 -81.5q0 -46 27.5 -73t85.5 -27q52 0 83.5 28t31.5 74zM323 -23l-154 9q-38 -40 -38 -70q0 -61 140 -61q148 0 148 72q0 21 -14 32t-29.5 13
t-52.5 5zM343 649l-20 -85q-60 2 -88 15t-28 52q0 23 24 71l41 81l53 -16l-21 -83q-2 -7 -4 -19q8 -4 14 -5z" />
    <glyph glyph-name="Hcircumflex" unicode="&#x124;" horiz-adv-x="812" 
d="M760 0h-275v64l63 7q10 1 13 5t3 15v238h-316v-237q0 -12 2.5 -15.5t13.5 -4.5l67 -8v-64h-279v64l63 7q10 1 13 5t3 15v542q0 12 -3 15.5t-13 4.5l-63 7v64h279v-64l-67 -8q-11 -1 -13.5 -4.5t-2.5 -14.5v-216h316v216q0 12 -3 15.5t-13 4.5l-63 7v64h275v-64l-63 -8
q-11 -1 -13.5 -4.5t-2.5 -14.5v-541q0 -12 2.5 -15.5t13.5 -4.5l63 -8v-64zM530 766l-119 83l-119 -83l-46 47l119 106h92l119 -106z" />
    <glyph glyph-name="hcircumflex" unicode="&#x125;" horiz-adv-x="628" 
d="M235 786l-107 83l-107 -83l-46 47l107 106h92l107 -106zM608 0h-250v63l47 7q11 1 14 5.5t3 15.5v232q0 22 -2 38t-8.5 34t-22 28t-38.5 10q-60 0 -137 -54v-288q0 -12 2.5 -15.5t13.5 -4.5l53 -7v-64h-248v63l48 8q10 1 13 5t3 15v560q0 17 -13 21l-57 19l10 64h174
v-292q94 64 173 64q151 0 151 -181v-255q0 -12 2.5 -15.5t13.5 -4.5l55 -7v-64z" />
    <glyph glyph-name="Hbar" unicode="&#x126;" horiz-adv-x="812" 
d="M760 0h-275v64l63 7q10 1 13 5t3 15v238h-316v-237q0 -12 2.5 -15.5t13.5 -4.5l67 -8v-64h-279v64l63 7q10 1 13 5t3 15v410h-61v79h61v53q0 12 -3 15.5t-13 4.5l-63 7v64h279v-64l-67 -8q-11 -1 -13.5 -4.5t-2.5 -14.5v-53h316v53q0 12 -3 15.5t-13 4.5l-63 7v64h275
v-64l-63 -8q-11 -1 -13.5 -4.5t-2.5 -14.5v-53h57v-79h-57v-409q0 -12 2.5 -15.5t13.5 -4.5l63 -8v-64zM248 417h316v84h-316v-84z" />
    <glyph glyph-name="hbar" unicode="&#x127;" horiz-adv-x="628" 
d="M608 0h-250v63l47 7q11 1 14 5.5t3 15.5v212q0 22 -2 38t-8.5 34t-22 28t-38.5 10q-60 0 -137 -54v-268q0 -12 2.5 -15.5t13.5 -4.5l53 -7v-64h-248v63l48 8q10 1 13 5t3 15v465h-62v76h62v19q0 17 -13 21l-57 19l10 64h174v-123h175v-76h-175v-113q94 64 173 64
q151 0 151 -181v-235q0 -12 2.5 -15.5t13.5 -4.5l55 -7v-64z" />
    <glyph glyph-name="Itilde" unicode="&#x128;" horiz-adv-x="397" 
d="M350 0h-299v64l73 7q10 1 13 4.5t3 15.5v542q0 12 -3 15.5t-13 4.5l-73 7v64h299v-64l-77 -8q-11 -1 -13.5 -4.5t-2.5 -14.5v-541q0 -12 2.5 -15.5t13.5 -4.5l77 -8v-64zM379 872l-23 -37q-18 -29 -32.5 -41.5t-33.5 -12.5q-17 0 -57 10q-101 28 -109 29q-9 2 -16 -5
l-35 -36l-49 33l29 47q28 45 63 45q12 0 50 -9q90 -26 114 -30q8 -1 14 5l32 35z" />
    <glyph glyph-name="itilde" unicode="&#x129;" horiz-adv-x="305" 
d="M304 666l-21 -37q-18 -30 -31 -42t-31 -12q-16 0 -54 10q-92 27 -102 29t-15 -5l-33 -36l-46 33l27 47q26 45 59 45q11 0 47 -9q86 -26 107 -30q8 -2 13 5l31 35zM289 0h-266v63l60 8q10 1 13 5t3 15v322q0 17 -13 21l-55 19l10 64h173v-426q0 -12 2.5 -15.5t13.5 -4.5
l59 -7v-64z" />
    <glyph glyph-name="Imacron" unicode="&#x12a;" horiz-adv-x="397" 
d="M350 0h-299v64l73 7q10 1 13 4.5t3 15.5v542q0 12 -3 15.5t-13 4.5l-73 7v64h299v-64l-77 -8q-11 -1 -13.5 -4.5t-2.5 -14.5v-541q0 -12 2.5 -15.5t13.5 -4.5l77 -8v-64zM356 790h-311v82h311v-82z" />
    <glyph glyph-name="imacron" unicode="&#x12b;" horiz-adv-x="305" 
d="M263 596h-257v82h257v-82zM289 0h-266v63l60 8q10 1 13 5t3 15v322q0 17 -13 21l-55 19l10 64h173v-426q0 -12 2.5 -15.5t13.5 -4.5l59 -7v-64z" />
    <glyph glyph-name="Ibreve" unicode="&#x12c;" horiz-adv-x="397" 
d="M350 0h-299v64l73 7q10 1 13 4.5t3 15.5v542q0 12 -3 15.5t-13 4.5l-73 7v64h299v-64l-77 -8q-11 -1 -13.5 -4.5t-2.5 -14.5v-541q0 -12 2.5 -15.5t13.5 -4.5l77 -8v-64zM297 928l63 -23q-34 -123 -162 -123q-126 0 -158 123l65 24q25 -72 95 -72t97 71z" />
    <glyph glyph-name="ibreve" unicode="&#x12d;" horiz-adv-x="305" 
d="M231 727l64 -24q-35 -135 -161 -135q-123 0 -157 135l70 24q14 -44 34 -64t55 -20q67 0 95 84zM289 0h-266v63l60 8q10 1 13 5t3 15v322q0 17 -13 21l-55 19l10 64h173v-426q0 -12 2.5 -15.5t13.5 -4.5l59 -7v-64z" />
    <glyph glyph-name="Iogonek" unicode="&#x12e;" horiz-adv-x="397" 
d="M248 -137l23 -63q-51 -24 -103 -24q-46 0 -71.5 21.5t-25.5 61.5q0 69 89 141h-109v64l73 7q10 1 13 4.5t3 15.5v542q0 12 -3 15.5t-13 4.5l-73 7v64h299v-64l-77 -8q-11 -1 -13.5 -4.5t-2.5 -14.5v-541q0 -12 2.5 -15.5t13.5 -4.5l77 -8v-64h-102q-80 -68 -80 -117
q0 -31 30 -31q22 0 50 11z" />
    <glyph glyph-name="iogonek" unicode="&#x12f;" horiz-adv-x="305" 
d="M206 -137l23 -63q-51 -24 -103 -24q-46 0 -71.5 21.5t-25.5 61.5q0 69 89 141h-95v63l60 8q10 1 13 5t3 15v322q0 17 -13 21l-55 19l10 64h173v-426q0 -12 2.5 -15.5t13.5 -4.5l59 -7v-64h-83q-80 -68 -80 -117q0 -31 30 -31q22 0 50 11zM219 690q0 -36 -20 -55.5
t-55 -19.5q-36 0 -55.5 19.5t-19.5 55.5q0 35 19.5 54t55.5 19q35 0 55 -19t20 -54z" />
    <glyph glyph-name="Idotaccent" unicode="&#x130;" horiz-adv-x="397" 
d="M350 0h-299v64l73 7q10 1 13 4.5t3 15.5v542q0 12 -3 15.5t-13 4.5l-73 7v64h299v-64l-77 -8q-11 -1 -13.5 -4.5t-2.5 -14.5v-541q0 -12 2.5 -15.5t13.5 -4.5l77 -8v-64zM275 855q0 -35 -19.5 -54.5t-55.5 -19.5q-35 0 -55 19.5t-20 54.5q0 36 19.5 55t55.5 19
q75 0 75 -74z" />
    <glyph glyph-name="dotlessi" unicode="&#x131;" horiz-adv-x="305" 
d="M289 0h-266v63l60 8q10 1 13 5t3 15v322q0 17 -13 21l-55 19l10 64h173v-426q0 -12 2.5 -15.5t13.5 -4.5l59 -7v-64z" />
    <glyph glyph-name="IJ" unicode="&#x132;" horiz-adv-x="906" 
d="M350 0h-299v64l73 7q10 1 13 4.5t3 15.5v542q0 12 -3 15.5t-13 4.5l-73 7v64h299v-64l-77 -8q-11 -1 -13.5 -4.5t-2.5 -14.5v-541q0 -12 2.5 -15.5t13.5 -4.5l77 -8v-64zM674 157v477q0 17 -16 18l-87 8v64h303v-64l-67 -8q-11 -1 -13.5 -4.5t-2.5 -14.5v-480
q0 -85 -41.5 -125t-132.5 -40q-54 0 -104 11.5t-70 24.5v155l85 -6l11 -70q1 -10 11 -14q24 -9 57 -9q39 0 53 17.5t14 59.5z" />
    <glyph glyph-name="ij" unicode="&#x133;" horiz-adv-x="601" 
d="M219 690q0 -36 -20 -55.5t-55 -19.5q-36 0 -55.5 19.5t-19.5 55.5q0 35 19.5 54t55.5 19q35 0 55 -19t20 -54zM289 0h-266v63l60 8q10 1 13 5t3 15v322q0 17 -13 21l-55 19l10 64h173v-426q0 -12 2.5 -15.5t13.5 -4.5l59 -7v-64zM402 -39v452q0 16 -12 21l-62 19l10 64
h179v-577q0 -84 -38.5 -123.5t-117.5 -39.5q-47 0 -88.5 14.5t-61.5 31.5l38 68q40 -28 89 -28q36 0 50 22t14 76zM523 690q0 -36 -20 -55.5t-55 -19.5t-55 19.5t-20 55.5q0 35 20 54t55 19t55 -19t20 -54z" />
    <glyph glyph-name="Jcircumflex" unicode="&#x134;" horiz-adv-x="509" 
d="M277 157v477q0 17 -16 18l-87 8v64h303v-64l-67 -8q-11 -1 -13.5 -4.5t-2.5 -14.5v-480q0 -85 -41.5 -125t-132.5 -40q-54 0 -104 11.5t-70 24.5v155l85 -6l11 -70q1 -10 11 -14q24 -9 57 -9q39 0 53 17.5t14 59.5zM455 766l-119 83l-119 -83l-46 47l119 106h92l119 -106
z" />
    <glyph glyph-name="jcircumflex" unicode="&#x135;" horiz-adv-x="296" 
d="M97 -39v452q0 16 -12 21l-62 19l10 64h179v-577q0 -85 -39 -124t-119 -39q-46 0 -87 14.5t-61 31.5l38 68q43 -28 87 -28q38 0 52 22t14 76zM299 610l-50 -44l-121 98l-121 -98l-50 44l125 125h92z" />
    <glyph glyph-name="Kcommaaccent" unicode="&#x136;" horiz-adv-x="742" 
d="M724 0h-286v64l62 10l-178 247l-74 -83v-146q0 -12 2.5 -15.5t13.5 -4.5l67 -8v-64h-279v64l63 7q10 1 13 5t3 15v542q0 12 -3 15.5t-13 4.5l-63 7v64h279v-64l-67 -8q-11 -1 -13.5 -4.5t-2.5 -14.5v-271l261 289l-62 8v65h240v-64l-47 -9q-20 -3 -31 -16l-203 -224
l227 -317q10 -16 30 -20l61 -10v-64zM378 -278l-53 17l22 91q1 8 -5 11l-36 14l21 87q58 -2 87 -15t29 -53q0 -26 -18 -60z" />
    <glyph glyph-name="kcommaaccent" unicode="&#x137;" horiz-adv-x="602" 
d="M594 0h-256v63l57 9l-109 191l-72 -80v-92q0 -12 2.5 -15.5t13.5 -4.5l56 -7v-64h-260v63l57 8q10 1 13 5t3 15v560q0 17 -13 21l-57 19l10 64h175v-459l201 221h122v-64l-55 -11q-13 -2 -25 -15l-83 -91l142 -247q9 -15 30 -17l48 -9v-63zM304 -278l-53 17l22 91
q1 8 -5 11l-36 14l21 87q58 -2 87 -15t29 -53q0 -26 -18 -60z" />
    <glyph glyph-name="kgreenlandic" unicode="&#x138;" horiz-adv-x="602" 
d="M594 0h-256v63l57 9l-109 191l-72 -80v-92q0 -12 2.5 -15.5t13.5 -4.5l56 -7v-64h-260v63l57 8q10 1 13 5t3 15v322q0 17 -13 21l-57 19l10 64h175v-221l201 221h122v-64l-55 -11q-13 -2 -25 -15l-83 -91l142 -247q9 -15 30 -17l48 -9v-63z" />
    <glyph glyph-name="Lacute" unicode="&#x139;" horiz-adv-x="621" 
d="M588 0h-536v64l63 7q10 1 13 5t3 15v541q0 12 -3 15.5t-13 4.5l-63 7v65h295v-65l-83 -8q-11 -1 -13.5 -4.5t-2.5 -14.5v-547h224q14 0 16 11l16 95h84v-191zM327 863l-211 -97l-31 55l196 126z" />
    <glyph glyph-name="lacute" unicode="&#x13a;" horiz-adv-x="305" 
d="M286 0h-260v63l57 8q10 1 13 5t3 15v560q0 17 -13 21l-57 19l10 64h175v-664q0 -12 2.5 -15.5t13.5 -4.5l56 -7v-64zM251 883l-211 -97l-31 55l196 126z" />
    <glyph glyph-name="Lcommaaccent" unicode="&#x13b;" horiz-adv-x="621" 
d="M588 0h-536v64l63 7q10 1 13 5t3 15v541q0 12 -3 15.5t-13 4.5l-63 7v65h295v-65l-83 -8q-11 -1 -13.5 -4.5t-2.5 -14.5v-547h224q14 0 16 11l16 95h84v-191zM338 -278l-53 17l22 91q1 8 -5 11l-36 14l21 87q58 -2 87 -15t29 -53q0 -26 -18 -60z" />
    <glyph glyph-name="lcommaaccent" unicode="&#x13c;" horiz-adv-x="305" 
d="M286 0h-260v63l57 8q10 1 13 5t3 15v560q0 17 -13 21l-57 19l10 64h175v-664q0 -12 2.5 -15.5t13.5 -4.5l56 -7v-64zM156 -278l-53 17l22 91q1 8 -5 11l-36 14l21 87q58 -2 87 -15t29 -53q0 -26 -18 -60z" />
    <glyph glyph-name="Lcaron" unicode="&#x13d;" horiz-adv-x="621" 
d="M588 0h-536v64l63 7q10 1 13 5t3 15v541q0 12 -3 15.5t-13 4.5l-63 7v65h295v-65l-83 -8q-11 -1 -13.5 -4.5t-2.5 -14.5v-547h224q14 0 16 11l16 95h84v-191zM475 527l-63 18q21 69 21 109q0 35 -14 63l87 36q23 -26 23 -62q0 -24 -7 -45q-17 -55 -47 -119z" />
    <glyph glyph-name="lcaron" unicode="&#x13e;" horiz-adv-x="391" 
d="M286 0h-260v63l57 8q10 1 13 5t3 15v560q0 17 -13 21l-57 19l10 64h175v-664q0 -12 2.5 -15.5t13.5 -4.5l56 -7v-64zM331 551l-63 18q21 69 21 109q0 35 -14 63l87 36q23 -26 23 -62q0 -24 -7 -45q-17 -55 -47 -119z" />
    <glyph glyph-name="Ldot" unicode="&#x13f;" horiz-adv-x="621" 
d="M588 0h-536v64l63 7q10 1 13 5t3 15v541q0 12 -3 15.5t-13 4.5l-63 7v65h295v-65l-83 -8q-11 -1 -13.5 -4.5t-2.5 -14.5v-547h224q14 0 16 11l16 95h84v-191zM566 392q0 -35 -19.5 -54.5t-55.5 -19.5q-35 0 -55 19.5t-20 54.5q0 36 19.5 55t55.5 19q75 0 75 -74z" />
    <glyph glyph-name="ldot" unicode="&#x140;" horiz-adv-x="413" 
d="M286 0h-260v63l57 8q10 1 13 5t3 15v560q0 17 -13 21l-57 19l10 64h175v-664q0 -12 2.5 -15.5t13.5 -4.5l56 -7v-64zM433 385q0 -35 -19.5 -54.5t-55.5 -19.5q-35 0 -55 19.5t-20 54.5t20 54.5t55 19.5q36 0 55.5 -19.5t19.5 -54.5z" />
    <glyph glyph-name="Lslash" unicode="&#x141;" horiz-adv-x="621" 
d="M588 0h-536v64l63 7q10 1 13 5t3 15v205l-76 -31v88l76 31v248q0 12 -3 15.5t-13 4.5l-63 7v65h295v-65l-83 -8q-11 -1 -13.5 -4.5t-2.5 -14.5v-209l219 92v-90l-219 -91v-249h224q14 0 16 11l16 95h84v-191z" />
    <glyph glyph-name="lslash" unicode="&#x142;" horiz-adv-x="311" 
d="M286 0h-260v63l57 8q10 1 13 5t3 15v246l-84 -37v92l84 37v222q0 17 -13 21l-57 19l10 64h175v-288l85 38v-92l-85 -38v-284q0 -12 2.5 -15.5t13.5 -4.5l56 -7v-64z" />
    <glyph glyph-name="Nacute" unicode="&#x143;" horiz-adv-x="829" 
d="M703 0h-130l-347 572v-480q0 -12 2.5 -15.5t13.5 -4.5l67 -8v-64h-257v64l63 7q10 1 13 5t3 15v542q0 12 -3 15.5t-13 4.5l-63 7v65h217l339 -570v478q0 12 -3 15.5t-13 4.5l-63 7v64h257v-64l-67 -8q-11 -1 -13.5 -4.5t-2.5 -14.5v-633zM544 863l-211 -97l-31 55
l196 126z" />
    <glyph glyph-name="nacute" unicode="&#x144;" horiz-adv-x="628" 
d="M608 0h-252v63l50 6q16 2 16 20v232q0 54 -13.5 82t-57.5 28q-65 0 -137 -52v-288q0 -12 2.5 -15.5t13.5 -4.5l53 -7v-64h-248v65l48 6q10 1 13 5t3 15v322q0 17 -13 21l-55 19l10 64h148l8 -55l4 -1q97 66 187 66q149 0 149 -183v-253q0 -12 2.5 -15.5t13.5 -4.5l55 -7
v-64zM424 708l-177 -144l-46 43l154 168z" />
    <glyph glyph-name="Ncommaaccent" unicode="&#x145;" horiz-adv-x="829" 
d="M703 0h-130l-347 572v-480q0 -12 2.5 -15.5t13.5 -4.5l67 -8v-64h-257v64l63 7q10 1 13 5t3 15v542q0 12 -3 15.5t-13 4.5l-63 7v65h217l339 -570v478q0 12 -3 15.5t-13 4.5l-63 7v64h257v-64l-67 -8q-11 -1 -13.5 -4.5t-2.5 -14.5v-633zM412 -278l-53 17l22 91
q1 8 -5 11l-36 14l21 87q58 -2 87 -15t29 -53q0 -26 -18 -60z" />
    <glyph glyph-name="ncommaaccent" unicode="&#x146;" horiz-adv-x="628" 
d="M608 0h-252v63l50 6q16 2 16 20v232q0 54 -13.5 82t-57.5 28q-65 0 -137 -52v-288q0 -12 2.5 -15.5t13.5 -4.5l53 -7v-64h-248v65l48 6q10 1 13 5t3 15v322q0 17 -13 21l-55 19l10 64h148l8 -55l4 -1q97 66 187 66q149 0 149 -183v-253q0 -12 2.5 -15.5t13.5 -4.5l55 -7
v-64zM317 -278l-53 17l22 91q1 8 -5 11l-36 14l21 87q58 -2 87 -15t29 -53q0 -26 -18 -60z" />
    <glyph glyph-name="Ncaron" unicode="&#x147;" horiz-adv-x="829" 
d="M703 0h-130l-347 572v-480q0 -12 2.5 -15.5t13.5 -4.5l67 -8v-64h-257v64l63 7q10 1 13 5t3 15v542q0 12 -3 15.5t-13 4.5l-63 7v65h217l339 -570v478q0 12 -3 15.5t-13 4.5l-63 7v64h257v-64l-67 -8q-11 -1 -13.5 -4.5t-2.5 -14.5v-633zM571 884l-119 -106h-92l-118 106
l48 47l118 -83l119 83z" />
    <glyph glyph-name="ncaron" unicode="&#x148;" horiz-adv-x="628" 
d="M608 0h-252v63l50 6q16 2 16 20v232q0 54 -13.5 82t-57.5 28q-65 0 -137 -52v-288q0 -12 2.5 -15.5t13.5 -4.5l53 -7v-64h-248v65l48 6q10 1 13 5t3 15v322q0 17 -13 21l-55 19l10 64h148l8 -55l4 -1q97 66 187 66q149 0 149 -183v-253q0 -12 2.5 -15.5t13.5 -4.5l55 -7
v-64zM350 579h-92l-123 125l52 44l120 -97l122 97l48 -44z" />
    <glyph glyph-name="napostrophe" unicode="&#x149;" horiz-adv-x="628" 
d="M608 0h-252v63l50 6q16 2 16 20v232q0 54 -13.5 82t-57.5 28q-65 0 -137 -52v-288q0 -12 2.5 -15.5t13.5 -4.5l53 -7v-64h-248v65l48 6q10 1 13 5t3 15v322q0 17 -13 21l-55 19l10 64h148l8 -55l4 -1q97 66 187 66q149 0 149 -183v-253q0 -12 2.5 -15.5t13.5 -4.5l55 -7
v-64zM8 507l-44 15l22 78q2 7 -4 10l-30 11l18 73q47 -1 72 -12.5t25 -45.5q0 -19 -14 -45z" />
    <glyph glyph-name="Eng" unicode="&#x14a;" horiz-adv-x="828" 
d="M514 -137q73 0 73 98v39l-361 572v-480q0 -12 2.5 -15.5t13.5 -4.5l67 -8v-64h-257v64l63 7q10 1 13 5t3 15v542q0 12 -3 15.5t-13 4.5l-63 7v65h217l339 -555v463q0 12 -3 15.5t-13 4.5l-63 7v64h256v-64l-67 -8q-11 -1 -13.5 -4.5t-2.5 -14.5v-693q0 -82 -43 -122.5
t-117 -40.5q-59 0 -106.5 17t-69.5 36l38 68q54 -35 110 -35z" />
    <glyph glyph-name="eng" unicode="&#x14b;" horiz-adv-x="628" 
d="M422 -39v360q0 54 -13.5 82t-57.5 28q-65 0 -137 -52v-288q0 -12 2.5 -15.5t13.5 -4.5l53 -7v-64h-248v65l48 6q10 1 13 5t3 15v322q0 17 -13 21l-55 19l10 64h148l8 -55l4 -1q97 66 187 66q149 0 149 -183v-404q0 -85 -39 -124t-119 -39q-46 0 -87 14.5t-61 31.5l38 68
q43 -28 87 -28q38 0 52 22t14 76z" />
    <glyph glyph-name="Omacron" unicode="&#x14c;" horiz-adv-x="768" 
d="M380 -12q-170 0 -254 101.5t-84 274.5q0 165 92 269t260 104q112 0 188.5 -49.5t110.5 -129t34 -183.5q0 -181 -88 -284t-259 -103zM384 85q104 0 163.5 69t59.5 212q0 135 -56.5 204.5t-157.5 69.5q-105 0 -167.5 -70.5t-62.5 -204.5q0 -141 58.5 -210.5t162.5 -69.5z
M549 792h-311v82h311v-82z" />
    <glyph glyph-name="omacron" unicode="&#x14d;" horiz-adv-x="573" 
d="M284 -12q-130 0 -189.5 71t-59.5 194q0 128 65 201t194 73q126 0 185 -70t59 -191q0 -131 -63 -204.5t-191 -73.5zM287 73q132 0 132 187q0 94 -31.5 137t-96.5 43q-136 0 -136 -181q0 -186 132 -186zM450 606h-311v82h311v-82z" />
    <glyph glyph-name="Obreve" unicode="&#x14e;" horiz-adv-x="768" 
d="M380 -12q-170 0 -254 101.5t-84 274.5q0 165 92 269t260 104q112 0 188.5 -49.5t110.5 -129t34 -183.5q0 -181 -88 -284t-259 -103zM384 85q104 0 163.5 69t59.5 212q0 135 -56.5 204.5t-157.5 69.5q-105 0 -167.5 -70.5t-62.5 -204.5q0 -141 58.5 -210.5t162.5 -69.5z
M490 930l63 -23q-34 -123 -162 -123q-126 0 -158 123l65 24q25 -72 95 -72t97 71z" />
    <glyph glyph-name="obreve" unicode="&#x14f;" horiz-adv-x="573" 
d="M284 -12q-130 0 -189.5 71t-59.5 194q0 128 65 201t194 73q126 0 185 -70t59 -191q0 -131 -63 -204.5t-191 -73.5zM287 73q132 0 132 187q0 94 -31.5 137t-96.5 43q-136 0 -136 -181q0 -186 132 -186zM399 731l64 -24q-37 -135 -171 -135q-132 0 -167 135l70 24
q15 -44 38 -64t61 -20q75 0 105 84z" />
    <glyph glyph-name="Ohungarumlaut" unicode="&#x150;" horiz-adv-x="768" 
d="M380 -12q-170 0 -254 101.5t-84 274.5q0 165 92 269t260 104q112 0 188.5 -49.5t110.5 -129t34 -183.5q0 -181 -88 -284t-259 -103zM384 85q104 0 163.5 69t59.5 212q0 135 -56.5 204.5t-157.5 69.5q-105 0 -167.5 -70.5t-62.5 -204.5q0 -141 58.5 -210.5t162.5 -69.5z
M460 913l-173 -145l-43 43l151 169zM644 898l-185 -131l-37 43l163 157z" />
    <glyph glyph-name="ohungarumlaut" unicode="&#x151;" horiz-adv-x="573" 
d="M284 -12q-130 0 -189.5 71t-59.5 194q0 128 65 201t194 73q126 0 185 -70t59 -191q0 -131 -63 -204.5t-191 -73.5zM287 73q132 0 132 187q0 94 -31.5 137t-96.5 43q-136 0 -136 -181q0 -186 132 -186zM346 723l-163 -158l-48 39l137 182zM526 723l-163 -158l-49 39
l138 181z" />
    <glyph glyph-name="OE" unicode="&#x152;" horiz-adv-x="991" 
d="M952 0h-505q-47 -12 -101 -12q-164 0 -234 98.5t-70 277.5q0 169 79 271t239 102q52 0 101 -13h469v-180l-85 4l-14 77q-3 13 -17 13h-232q69 -79 74 -230h216v-87h-217q-10 -158 -80 -236h261q14 0 16 11l16 88h84v-184zM351 89q95 0 140 67.5t45 209.5q0 270 -178 270
q-92 0 -141.5 -70t-49.5 -201q0 -140 44.5 -208t139.5 -68z" />
    <glyph glyph-name="oe" unicode="&#x153;" horiz-adv-x="895" 
d="M819 115l32 -80q-92 -47 -185 -47q-140 0 -193 95q-62 -95 -197 -95q-123 0 -182 71t-59 197t64 198.5t187 72.5q136 0 192 -92q57 92 179 92q94 0 148.5 -58.5t54.5 -182.5q0 -17 -2 -55h-324q6 -75 37.5 -113t101.5 -38q62 0 146 35zM282 73q135 0 135 187
q0 92 -31 135t-95 43q-135 0 -135 -179q0 -186 126 -186zM535 311h210q0 129 -99 129q-102 0 -111 -129z" />
    <glyph glyph-name="Racute" unicode="&#x154;" horiz-adv-x="679" 
d="M676 0h-273v63l66 9l-75 189q-9 23 -23 33t-39 10h-85v-212q0 -12 2.5 -15.5t13.5 -4.5l64 -8v-64h-275v64l63 7q10 1 13 5t3 15v541q0 12 -3 15.5t-13 4.5l-63 7v65h320q65 0 111 -16.5t70.5 -45.5t35.5 -62.5t11 -73.5q0 -140 -135 -193q21 -10 32.5 -28t27.5 -59
l60 -153q9 -16 30 -19l61 -10v-64zM247 389h74q73 0 115.5 28.5t42.5 103.5q0 66 -39.5 91t-125.5 25h-67v-248zM467 863l-211 -97l-31 55l196 126z" />
    <glyph glyph-name="racute" unicode="&#x155;" horiz-adv-x="449" 
d="M325 0h-290v65l48 6q10 1 13 5t3 15v322q0 16 -13 21l-55 19l10 64h149l11 -73l3 -1q64 84 147 84q46 0 78 -9v-164l-90 4l-12 62q-1 11 -12 11q-46 0 -101 -52v-287q0 -12 3 -15.5t14 -4.5l94 -8v-64zM347 708l-177 -144l-46 43l154 168z" />
    <glyph glyph-name="Rcommaaccent" unicode="&#x156;" horiz-adv-x="679" 
d="M676 0h-273v63l66 9l-75 189q-9 23 -23 33t-39 10h-85v-212q0 -12 2.5 -15.5t13.5 -4.5l64 -8v-64h-275v64l63 7q10 1 13 5t3 15v541q0 12 -3 15.5t-13 4.5l-63 7v65h320q65 0 111 -16.5t70.5 -45.5t35.5 -62.5t11 -73.5q0 -140 -135 -193q21 -10 32.5 -28t27.5 -59
l60 -153q9 -16 30 -19l61 -10v-64zM247 389h74q73 0 115.5 28.5t42.5 103.5q0 66 -39.5 91t-125.5 25h-67v-248zM357 -278l-53 17l22 91q1 8 -5 11l-36 14l21 87q58 -2 87 -15t29 -53q0 -26 -18 -60z" />
    <glyph glyph-name="rcommaaccent" unicode="&#x157;" horiz-adv-x="449" 
d="M325 0h-290v65l48 6q10 1 13 5t3 15v322q0 16 -13 21l-55 19l10 64h149l11 -73l3 -1q64 84 147 84q46 0 78 -9v-164l-90 4l-12 62q-1 11 -12 11q-46 0 -101 -52v-287q0 -12 3 -15.5t14 -4.5l94 -8v-64zM171 -278l-53 17l22 91q1 8 -5 11l-36 14l21 87q58 -2 87 -15
t29 -53q0 -26 -18 -60z" />
    <glyph glyph-name="Rcaron" unicode="&#x158;" horiz-adv-x="679" 
d="M676 0h-273v63l66 9l-75 189q-9 23 -23 33t-39 10h-85v-212q0 -12 2.5 -15.5t13.5 -4.5l64 -8v-64h-275v64l63 7q10 1 13 5t3 15v541q0 12 -3 15.5t-13 4.5l-63 7v65h320q65 0 111 -16.5t70.5 -45.5t35.5 -62.5t11 -73.5q0 -140 -135 -193q21 -10 32.5 -28t27.5 -59
l60 -153q9 -16 30 -19l61 -10v-64zM247 389h74q73 0 115.5 28.5t42.5 103.5q0 66 -39.5 91t-125.5 25h-67v-248zM494 884l-119 -106h-92l-118 106l48 47l118 -83l119 83z" />
    <glyph glyph-name="rcaron" unicode="&#x159;" horiz-adv-x="449" 
d="M325 0h-290v65l48 6q10 1 13 5t3 15v322q0 16 -13 21l-55 19l10 64h149l11 -73l3 -1q64 84 147 84q46 0 78 -9v-164l-90 4l-12 62q-1 11 -12 11q-46 0 -101 -52v-287q0 -12 3 -15.5t14 -4.5l94 -8v-64zM273 579h-92l-123 125l52 44l120 -97l122 97l48 -44z" />
    <glyph glyph-name="Sacute" unicode="&#x15a;" horiz-adv-x="588" 
d="M518 520l-86 8l-14 83q-3 15 -10 19q-27 16 -88 16q-67 0 -102 -27.5t-35 -76.5q0 -22 9 -40t20 -29t34 -22t39 -16.5t46 -14.5q40 -12 60.5 -19.5t54 -25.5t50.5 -38t30.5 -54t13.5 -77q0 -112 -75.5 -165t-195.5 -53q-63 0 -125.5 12.5t-92.5 26.5v176h85l20 -90
q2 -10 5 -13.5t12 -6.5q52 -15 102 -15q149 0 149 113q0 29 -11 50t-34.5 35t-44 22t-56.5 18q-98 29 -134 52q-77 51 -77 157q0 105 71.5 158.5t186.5 53.5q99 0 193 -37v-180zM447 863l-211 -97l-31 55l196 126z" />
    <glyph glyph-name="sacute" unicode="&#x15b;" horiz-adv-x="471" 
d="M423 363l-83 5l-11 58q-1 10 -11 14q-33 10 -72 10q-95 0 -95 -63q0 -13 3.5 -23t14 -18t18 -13t25.5 -10.5t26.5 -8t31.5 -7.5q30 -7 48.5 -12.5t44 -18t40 -27.5t25 -40.5t10.5 -58.5q0 -83 -59.5 -122.5t-152.5 -39.5q-59 0 -115.5 12t-72.5 23v136l83 -5l10 -61
q3 -11 12 -14q45 -14 90 -14q100 0 100 69q0 24 -19.5 40.5t-35.5 21t-60 14.5q-11 3 -16 4q-28 6 -46 11.5t-41 17t-36.5 26t-23 38t-9.5 54.5q0 85 59.5 125.5t149.5 40.5q98 0 168 -29v-135zM363 708l-177 -144l-46 43l154 168z" />
    <glyph glyph-name="Scircumflex" unicode="&#x15c;" horiz-adv-x="588" 
d="M518 520l-86 8l-14 83q-3 15 -10 19q-27 16 -88 16q-67 0 -102 -27.5t-35 -76.5q0 -22 9 -40t20 -29t34 -22t39 -16.5t46 -14.5q40 -12 60.5 -19.5t54 -25.5t50.5 -38t30.5 -54t13.5 -77q0 -112 -75.5 -165t-195.5 -53q-63 0 -125.5 12.5t-92.5 26.5v176h85l20 -90
q2 -10 5 -13.5t12 -6.5q52 -15 102 -15q149 0 149 113q0 29 -11 50t-34.5 35t-44 22t-56.5 18q-98 29 -134 52q-77 51 -77 157q0 105 71.5 158.5t186.5 53.5q99 0 193 -37v-180zM428 766l-119 83l-119 -83l-46 47l119 106h92l119 -106z" />
    <glyph glyph-name="scircumflex" unicode="&#x15d;" horiz-adv-x="471" 
d="M423 363l-83 5l-11 58q-1 10 -11 14q-33 10 -72 10q-95 0 -95 -63q0 -13 3.5 -23t14 -18t18 -13t25.5 -10.5t26.5 -8t31.5 -7.5q30 -7 48.5 -12.5t44 -18t40 -27.5t25 -40.5t10.5 -58.5q0 -83 -59.5 -122.5t-152.5 -39.5q-59 0 -115.5 12t-72.5 23v136l83 -5l10 -61
q3 -11 12 -14q45 -14 90 -14q100 0 100 69q0 24 -19.5 40.5t-35.5 21t-60 14.5q-11 3 -16 4q-28 6 -46 11.5t-41 17t-36.5 26t-23 38t-9.5 54.5q0 85 59.5 125.5t149.5 40.5q98 0 168 -29v-135zM414 612l-50 -44l-121 98l-121 -98l-50 44l125 125h92z" />
    <glyph glyph-name="Scedilla" unicode="&#x15e;" horiz-adv-x="588" 
d="M192 -240l7 58q14 -2 28 -2q71 0 71 52q0 43 -68 44l10 77q-57 3 -110.5 14.5t-78.5 23.5v176h85l20 -90q2 -10 5 -13.5t12 -6.5q52 -15 102 -15q149 0 149 113q0 29 -11 50t-34.5 35t-44 22t-56.5 18q-98 29 -134 52q-77 51 -77 157q0 105 71.5 158.5t186.5 53.5
q99 0 193 -37v-180l-86 8l-14 83q-3 15 -10 19q-27 16 -88 16q-67 0 -102 -27.5t-35 -76.5q0 -22 9 -40t20 -29t34 -22t39 -16.5t46 -14.5q40 -12 60.5 -19.5t54 -25.5t50.5 -38t30.5 -54t13.5 -77q0 -103 -65 -156t-171 -60l-4 -35q76 -16 76 -85q0 -47 -35 -80.5
t-106 -33.5q-32 0 -43 4z" />
    <glyph glyph-name="scedilla" unicode="&#x15f;" horiz-adv-x="471" 
d="M137 -240l7 58q14 -2 28 -2q71 0 71 52q0 43 -68 44l10 78q-48 3 -91 13.5t-56 19.5v136l83 -5l10 -61q3 -11 12 -14q45 -14 90 -14q100 0 100 69q0 24 -19.5 40.5t-35.5 21t-60 14.5q-11 3 -16 4q-28 6 -46 11.5t-41 17t-36.5 26t-23 38t-9.5 54.5q0 85 59.5 125.5
t149.5 40.5q98 0 168 -29v-135l-83 5l-11 58q-1 10 -11 14q-33 10 -72 10q-95 0 -95 -63q0 -13 3.5 -23t14 -18t18 -13t25.5 -10.5t26.5 -8t31.5 -7.5q30 -7 48.5 -12.5t44 -18t40 -27.5t25 -40.5t10.5 -58.5q0 -78 -52 -117t-137 -44l-4 -34q76 -16 76 -85q0 -47 -35 -80.5
t-106 -33.5q-32 0 -43 4z" />
    <glyph glyph-name="Scaron" unicode="&#x160;" horiz-adv-x="588" 
d="M518 520l-86 8l-14 83q-3 15 -10 19q-27 16 -88 16q-67 0 -102 -27.5t-35 -76.5q0 -22 9 -40t20 -29t34 -22t39 -16.5t46 -14.5q40 -12 60.5 -19.5t54 -25.5t50.5 -38t30.5 -54t13.5 -77q0 -112 -75.5 -165t-195.5 -53q-63 0 -125.5 12.5t-92.5 26.5v176h85l20 -90
q2 -10 5 -13.5t12 -6.5q52 -15 102 -15q149 0 149 113q0 29 -11 50t-34.5 35t-44 22t-56.5 18q-98 29 -134 52q-77 51 -77 157q0 105 71.5 158.5t186.5 53.5q99 0 193 -37v-180zM474 884l-119 -106h-92l-118 106l48 47l118 -83l119 83z" />
    <glyph glyph-name="scaron" unicode="&#x161;" horiz-adv-x="471" 
d="M423 363l-83 5l-11 58q-1 10 -11 14q-33 10 -72 10q-95 0 -95 -63q0 -13 3.5 -23t14 -18t18 -13t25.5 -10.5t26.5 -8t31.5 -7.5q30 -7 48.5 -12.5t44 -18t40 -27.5t25 -40.5t10.5 -58.5q0 -83 -59.5 -122.5t-152.5 -39.5q-59 0 -115.5 12t-72.5 23v136l83 -5l10 -61
q3 -11 12 -14q45 -14 90 -14q100 0 100 69q0 24 -19.5 40.5t-35.5 21t-60 14.5q-11 3 -16 4q-28 6 -46 11.5t-41 17t-36.5 26t-23 38t-9.5 54.5q0 85 59.5 125.5t149.5 40.5q98 0 168 -29v-135zM289 579h-92l-123 125l52 44l120 -97l122 97l48 -44z" />
    <glyph glyph-name="uni0162" unicode="&#x162;" horiz-adv-x="667" 
d="M241 -240l7 58q14 -2 28 -2q71 0 71 52q0 43 -68 44l12 88h-135v65l103 7q10 1 13 4.5t3 15.5v546h-134q-14 0 -16 -11l-16 -87h-84v184h617v-184h-83l-16 87q-2 11 -16 11h-135v-546q0 -11 2.5 -14.5t13.5 -4.5l110 -8v-65h-163l-6 -45q76 -16 76 -85q0 -47 -35 -80.5
t-106 -33.5q-32 0 -43 4z" />
    <glyph glyph-name="uni0163" unicode="&#x163;" horiz-adv-x="424" 
d="M159 -240l7 58q14 -2 28 -2q71 0 71 52q0 43 -68 44l10 79q-55 8 -80.5 43t-25.5 99v292q0 10 -8 10h-72v71q56 7 84 44t38 107h73v-130q0 -10 8 -10h145v-82h-153v-272q0 -47 15.5 -66t56.5 -19q38 0 87 17l23 -72q-63 -30 -127 -34l-4 -34q76 -16 76 -85
q0 -47 -35 -80.5t-106 -33.5q-32 0 -43 4z" />
    <glyph glyph-name="Tcaron" unicode="&#x164;" horiz-adv-x="667" 
d="M518 0h-362v65l103 7q10 1 13 4.5t3 15.5v546h-134q-14 0 -16 -11l-16 -87h-84v184h617v-184h-83l-16 87q-2 11 -16 11h-135v-546q0 -11 2.5 -14.5t13.5 -4.5l110 -8v-65zM499 884l-119 -106h-92l-118 106l48 47l118 -83l119 83z" />
    <glyph glyph-name="tcaron" unicode="&#x165;" horiz-adv-x="424" 
d="M375 95l23 -72q-76 -35 -148 -35q-78 0 -113.5 35t-35.5 110v292q0 10 -8 10h-72v71q56 7 84 44t38 107h73v-130q0 -10 8 -10h145v-82h-153v-272q0 -47 15.5 -66t56.5 -19q38 0 87 17zM335 550l-63 18q21 69 21 109q0 35 -14 63l87 36q23 -26 23 -62q0 -24 -7 -45
q-17 -55 -47 -119z" />
    <glyph glyph-name="Tbar" unicode="&#x166;" horiz-adv-x="667" 
d="M518 0h-362v65l103 7q10 1 13 4.5t3 15.5v221h-122v82h122v243h-134q-14 0 -16 -11l-16 -87h-84v184h617v-184h-83l-16 87q-2 11 -16 11h-135v-243h124v-82h-124v-221q0 -11 2.5 -14.5t13.5 -4.5l110 -8v-65z" />
    <glyph glyph-name="tbar" unicode="&#x167;" horiz-adv-x="424" 
d="M375 95l23 -72q-76 -35 -148 -35q-78 0 -113.5 35t-35.5 110v102h-80v81h80v109q0 10 -8 10h-72v71q56 7 84 44t38 107h73v-130q0 -10 8 -10h145v-82h-153v-119h153v-81h-153v-72q0 -47 15.5 -66t56.5 -19q38 0 87 17z" />
    <glyph glyph-name="Utilde" unicode="&#x168;" horiz-adv-x="787" 
d="M560 266v367q0 12 -3 15.5t-13 4.5l-63 7v64h267v-64l-67 -8q-11 -1 -13.5 -4.5t-2.5 -14.5v-384q0 -261 -274 -261q-141 0 -205 65t-64 199v381q0 12 -3 15.5t-13 4.5l-63 7v64h279v-64l-67 -8q-11 -1 -13.5 -4.5t-2.5 -14.5v-364q0 -96 36.5 -140t121.5 -44
q86 0 124.5 41t38.5 140zM582 872l-23 -37q-18 -29 -32.5 -41.5t-33.5 -12.5q-17 0 -57 10q-101 28 -109 29q-9 2 -16 -5l-35 -36l-49 33l29 47q28 45 63 45q12 0 50 -9q90 -26 114 -30q8 -1 14 5l32 35z" />
    <glyph glyph-name="utilde" unicode="&#x169;" horiz-adv-x="626" 
d="M599 0h-158l-9 61l-3 1q-93 -74 -187 -74q-79 0 -111.5 40.5t-32.5 129.5v260q0 12 -2.5 16t-13.5 6l-51 12l9 65h173v-334q0 -54 13.5 -78.5t53.5 -24.5q71 0 139 70v268q0 12 -2.5 16t-13.5 6l-48 12l9 65h170v-426q0 -18 13 -20l52 -7v-64zM481 676l-23 -37
q-18 -29 -32.5 -41.5t-33.5 -12.5q-17 0 -57 10q-101 28 -109 29q-9 2 -16 -5l-35 -36l-49 33l29 47q28 45 63 45q12 0 50 -9q90 -26 114 -30q8 -1 14 5l32 35z" />
    <glyph glyph-name="Umacron" unicode="&#x16a;" horiz-adv-x="787" 
d="M560 266v367q0 12 -3 15.5t-13 4.5l-63 7v64h267v-64l-67 -8q-11 -1 -13.5 -4.5t-2.5 -14.5v-384q0 -261 -274 -261q-141 0 -205 65t-64 199v381q0 12 -3 15.5t-13 4.5l-63 7v64h279v-64l-67 -8q-11 -1 -13.5 -4.5t-2.5 -14.5v-364q0 -96 36.5 -140t121.5 -44
q86 0 124.5 41t38.5 140zM559 790h-311v82h311v-82z" />
    <glyph glyph-name="umacron" unicode="&#x16b;" horiz-adv-x="626" 
d="M599 0h-158l-9 61l-3 1q-93 -74 -187 -74q-79 0 -111.5 40.5t-32.5 129.5v260q0 12 -2.5 16t-13.5 6l-51 12l9 65h173v-334q0 -54 13.5 -78.5t53.5 -24.5q71 0 139 70v268q0 12 -2.5 16t-13.5 6l-48 12l9 65h170v-426q0 -18 13 -20l52 -7v-64zM458 606h-311v82h311v-82z
" />
    <glyph glyph-name="Ubreve" unicode="&#x16c;" horiz-adv-x="787" 
d="M560 266v367q0 12 -3 15.5t-13 4.5l-63 7v64h267v-64l-67 -8q-11 -1 -13.5 -4.5t-2.5 -14.5v-384q0 -261 -274 -261q-141 0 -205 65t-64 199v381q0 12 -3 15.5t-13 4.5l-63 7v64h279v-64l-67 -8q-11 -1 -13.5 -4.5t-2.5 -14.5v-364q0 -96 36.5 -140t121.5 -44
q86 0 124.5 41t38.5 140zM500 928l63 -23q-34 -123 -162 -123q-126 0 -158 123l65 24q25 -72 95 -72t97 71z" />
    <glyph glyph-name="ubreve" unicode="&#x16d;" horiz-adv-x="626" 
d="M599 0h-158l-9 61l-3 1q-93 -74 -187 -74q-79 0 -111.5 40.5t-32.5 129.5v260q0 12 -2.5 16t-13.5 6l-51 12l9 65h173v-334q0 -54 13.5 -78.5t53.5 -24.5q71 0 139 70v268q0 12 -2.5 16t-13.5 6l-48 12l9 65h170v-426q0 -18 13 -20l52 -7v-64zM407 731l64 -24
q-37 -135 -171 -135q-132 0 -167 135l70 24q15 -44 38 -64t61 -20q75 0 105 84z" />
    <glyph glyph-name="Uring" unicode="&#x16e;" horiz-adv-x="787" 
d="M560 266v367q0 12 -3 15.5t-13 4.5l-63 7v64h267v-64l-67 -8q-11 -1 -13.5 -4.5t-2.5 -14.5v-384q0 -261 -274 -261q-141 0 -205 65t-64 199v381q0 12 -3 15.5t-13 4.5l-63 7v64h279v-64l-67 -8q-11 -1 -13.5 -4.5t-2.5 -14.5v-364q0 -96 36.5 -140t121.5 -44
q86 0 124.5 41t38.5 140zM497 844q0 -41 -25.5 -66t-66.5 -25t-67 24t-26 64q0 43 26.5 67.5t66.5 24.5t66 -24t26 -65zM405 806q35 0 35 38q0 37 -35 37q-36 0 -36 -38q0 -37 36 -37z" />
    <glyph glyph-name="uring" unicode="&#x16f;" horiz-adv-x="626" 
d="M599 0h-158l-9 61l-3 1q-93 -74 -187 -74q-79 0 -111.5 40.5t-32.5 129.5v260q0 12 -2.5 16t-13.5 6l-51 12l9 65h173v-334q0 -54 13.5 -78.5t53.5 -24.5q71 0 139 70v268q0 12 -2.5 16t-13.5 6l-48 12l9 65h170v-426q0 -18 13 -20l52 -7v-64zM390 658q0 -39 -24.5 -63
t-63.5 -24q-40 0 -64.5 23t-24.5 62q0 41 25.5 65t63.5 24t63 -23.5t25 -63.5zM302 621q34 0 34 37t-34 37q-35 0 -35 -38q0 -36 35 -36z" />
    <glyph glyph-name="Uhungarumlaut" unicode="&#x170;" horiz-adv-x="787" 
d="M560 266v367q0 12 -3 15.5t-13 4.5l-63 7v64h267v-64l-67 -8q-11 -1 -13.5 -4.5t-2.5 -14.5v-384q0 -261 -274 -261q-141 0 -205 65t-64 199v381q0 12 -3 15.5t-13 4.5l-63 7v64h279v-64l-67 -8q-11 -1 -13.5 -4.5t-2.5 -14.5v-364q0 -96 36.5 -140t121.5 -44
q86 0 124.5 41t38.5 140zM470 911l-173 -145l-43 43l151 169zM654 896l-185 -131l-37 43l163 157z" />
    <glyph glyph-name="uhungarumlaut" unicode="&#x171;" horiz-adv-x="626" 
d="M599 0h-158l-9 61l-3 1q-93 -74 -187 -74q-79 0 -111.5 40.5t-32.5 129.5v260q0 12 -2.5 16t-13.5 6l-51 12l9 65h173v-334q0 -54 13.5 -78.5t53.5 -24.5q71 0 139 70v268q0 12 -2.5 16t-13.5 6l-48 12l9 65h170v-426q0 -18 13 -20l52 -7v-64zM354 723l-163 -158l-48 39
l137 182zM534 723l-163 -158l-49 39l138 181z" />
    <glyph glyph-name="Uogonek" unicode="&#x172;" horiz-adv-x="787" 
d="M519 -137l23 -63q-51 -24 -103 -24q-46 0 -71.5 21.5t-25.5 61.5q0 62 76 130q-9 -1 -27 -1q-141 0 -205 65t-64 199v381q0 12 -3 15.5t-13 4.5l-63 7v64h279v-64l-67 -8q-11 -1 -13.5 -4.5t-2.5 -14.5v-364q0 -96 36.5 -140t121.5 -44q86 0 124.5 41t38.5 140v367
q0 12 -3 15.5t-13 4.5l-63 7v64h267v-64l-67 -8q-11 -1 -13.5 -4.5t-2.5 -14.5v-384q0 -86 -33.5 -140t-96.5 -96q-39 -26 -67.5 -62t-28.5 -68q0 -31 30 -31q22 0 50 11z" />
    <glyph glyph-name="uogonek" unicode="&#x173;" horiz-adv-x="626" 
d="M599 0q-100 -58 -100 -117q0 -31 30 -31q22 0 50 11l23 -63q-51 -24 -103 -24q-46 0 -71.5 21.5t-25.5 61.5q0 78 104 141h-65l-9 61l-3 1q-93 -74 -187 -74q-79 0 -111.5 40.5t-32.5 129.5v260q0 12 -2.5 16t-13.5 6l-51 12l9 65h173v-334q0 -54 13.5 -78.5t53.5 -24.5
q71 0 139 70v268q0 12 -2.5 16t-13.5 6l-48 12l9 65h170v-426q0 -18 13 -20l52 -7v-64z" />
    <glyph glyph-name="Wcircumflex" unicode="&#x174;" horiz-adv-x="1013" 
d="M779 0h-154l-116 421h-3l-114 -421h-148l-159 632q-5 15 -22 18l-55 10l10 64h273v-64l-87 -9l122 -533h4l125 465h123l128 -471h5l123 539l-88 9l10 64h249v-64l-50 -9q-19 -4 -23 -19zM639 766l-119 83l-119 -83l-46 47l119 106h92l119 -106z" />
    <glyph glyph-name="wcircumflex" unicode="&#x175;" horiz-adv-x="856" 
d="M659 0h-125l-95 372h-3l-91 -372h-140l-136 425q-4 13 -21 17l-42 9l13 66h225v-66l-60 -8l96 -328h4l101 388h124l96 -386h4l94 326l-61 8l11 66h197v-66l-36 -6q-20 -4 -25 -20zM616 612l-50 -44l-121 98l-121 -98l-50 44l125 125h92z" />
    <glyph glyph-name="Ycircumflex" unicode="&#x176;" horiz-adv-x="642" 
d="M506 0h-349v64l97 7q10 1 13 4.5t3 15.5v185l-199 356q-7 13 -24 17l-45 11l10 64h253v-64l-76 -9l142 -273h5l143 273l-75 9l10 64h226v-64l-42 -11q-19 -5 -25 -19l-186 -352v-186q0 -12 2.5 -15.5t13.5 -4.5l103 -8v-64zM452 766l-119 83l-119 -83l-46 47l119 106h92
l119 -106z" />
    <glyph glyph-name="ycircumflex" unicode="&#x177;" horiz-adv-x="597" 
d="M399 -212h-296v66l71 8q12 1 16.5 5.5t10.5 16.5l51 117l-184 424q-5 13 -21 17l-41 9l13 66h233v-66l-65 -8l125 -309h4l124 309l-66 8l11 66h206v-66l-33 -5q-19 -3 -25 -17l-234 -566l100 -10v-65zM475 612l-50 -44l-121 98l-121 -98l-50 44l125 125h92z" />
    <glyph glyph-name="Ydieresis" unicode="&#x178;" horiz-adv-x="642" 
d="M506 0h-349v64l97 7q10 1 13 4.5t3 15.5v185l-199 356q-7 13 -24 17l-45 11l10 64h253v-64l-76 -9l142 -273h5l143 273l-75 9l10 64h226v-64l-42 -11q-19 -5 -25 -19l-186 -352v-186q0 -12 2.5 -15.5t13.5 -4.5l103 -8v-64zM293 842q0 -28 -17 -44.5t-45 -16.5
t-45.5 16.5t-17.5 44.5t17.5 44.5t45.5 16.5t45 -16.5t17 -44.5zM497 842q0 -28 -17 -44.5t-45 -16.5t-45 16.5t-17 44.5t17 44.5t45 16.5t45 -16.5t17 -44.5z" />
    <glyph glyph-name="Zacute" unicode="&#x179;" horiz-adv-x="655" 
d="M604 0h-554v75l400 563h-269q-14 0 -16 -11l-19 -93l-84 -3v193h528v-78l-395 -561h290q14 0 16 11l19 107h84v-203zM460 863l-211 -97l-31 55l196 126z" />
    <glyph glyph-name="zacute" unicode="&#x17a;" horiz-adv-x="500" 
d="M469 0h-432v66l287 373h-175q-9 0 -11 -13l-12 -60l-83 -5v156h415v-68l-283 -372h186q9 0 11 13l12 72l85 4v-166zM370 708l-177 -144l-46 43l154 168z" />
    <glyph glyph-name="Zdotaccent" unicode="&#x17b;" horiz-adv-x="655" 
d="M604 0h-554v75l400 563h-269q-14 0 -16 -11l-19 -93l-84 -3v193h528v-78l-395 -561h290q14 0 16 11l19 107h84v-203zM397 855q0 -35 -19.5 -54.5t-55.5 -19.5q-35 0 -55 19.5t-20 54.5q0 36 19.5 55t55.5 19q75 0 75 -74z" />
    <glyph glyph-name="zdotaccent" unicode="&#x17c;" horiz-adv-x="500" 
d="M469 0h-432v66l287 373h-175q-9 0 -11 -13l-12 -60l-83 -5v156h415v-68l-283 -372h186q9 0 11 13l12 72l85 4v-166zM325 691q0 -35 -19.5 -54.5t-55.5 -19.5q-35 0 -55 19.5t-20 54.5t20 54.5t55 19.5q36 0 55.5 -19.5t19.5 -54.5z" />
    <glyph glyph-name="Zcaron" unicode="&#x17d;" horiz-adv-x="655" 
d="M604 0h-554v75l400 563h-269q-14 0 -16 -11l-19 -93l-84 -3v193h528v-78l-395 -561h290q14 0 16 11l19 107h84v-203zM487 884l-119 -106h-92l-118 106l48 47l118 -83l119 83z" />
    <glyph glyph-name="zcaron" unicode="&#x17e;" horiz-adv-x="500" 
d="M469 0h-432v66l287 373h-175q-9 0 -11 -13l-12 -60l-83 -5v156h415v-68l-283 -372h186q9 0 11 13l12 72l85 4v-166zM296 579h-92l-123 125l52 44l120 -97l122 97l48 -44z" />
    <glyph glyph-name="longs" unicode="&#x17f;" horiz-adv-x="419" 
d="M362 0h-327v65l61 6q10 1 13 4.5t3 15.5v493q0 182 195 182q75 0 118 -27.5t44 -101.5l-107 -14q0 37 -13.5 50t-46.5 13q-45 0 -60 -22.5t-15 -70.5v-499q0 -12 2.5 -15.5t13.5 -4.5l119 -10v-64z" />
    <glyph glyph-name="florin" unicode="&#x192;" horiz-adv-x="510" 
d="M409 302h-143l-39 -227q-17 -97 -57 -135t-127 -38q-42 0 -83.5 12.5t-63.5 29.5l34 74q49 -33 105 -33q36 0 55 18t28 67l40 222q2 10 -7 10h-92l14 78h100l18 95q18 93 59.5 134.5t127.5 41.5q80 0 148 -37l-22 -135l-73 5l-2 63q0 14 -10 17q-16 6 -41 6
q-38 0 -55.5 -22.5t-25.5 -69.5l-16 -88q-1 -10 7 -10h135z" />
    <glyph glyph-name="Scommaaccent" unicode="&#x218;" horiz-adv-x="588" 
d="M518 520l-86 8l-14 83q-3 15 -10 19q-27 16 -88 16q-67 0 -102 -27.5t-35 -76.5q0 -22 9 -40t20 -29t34 -22t39 -16.5t46 -14.5q40 -12 60.5 -19.5t54 -25.5t50.5 -38t30.5 -54t13.5 -77q0 -112 -75.5 -165t-195.5 -53q-63 0 -125.5 12.5t-92.5 26.5v176h85l20 -90
q2 -10 5 -13.5t12 -6.5q52 -15 102 -15q149 0 149 113q0 29 -11 50t-34.5 35t-44 22t-56.5 18q-98 29 -134 52q-77 51 -77 157q0 105 71.5 158.5t186.5 53.5q99 0 193 -37v-180zM294 -278l-53 17l22 91q1 8 -5 11l-36 14l21 87q58 -2 87 -15t29 -53q0 -26 -18 -60z" />
    <glyph glyph-name="scommaaccent" unicode="&#x219;" horiz-adv-x="471" 
d="M423 363l-83 5l-11 58q-1 10 -11 14q-33 10 -72 10q-95 0 -95 -63q0 -13 3.5 -23t14 -18t18 -13t25.5 -10.5t26.5 -8t31.5 -7.5q30 -7 48.5 -12.5t44 -18t40 -27.5t25 -40.5t10.5 -58.5q0 -83 -59.5 -122.5t-152.5 -39.5q-59 0 -115.5 12t-72.5 23v136l83 -5l10 -61
q3 -11 12 -14q45 -14 90 -14q100 0 100 69q0 24 -19.5 40.5t-35.5 21t-60 14.5q-11 3 -16 4q-28 6 -46 11.5t-41 17t-36.5 26t-23 38t-9.5 54.5q0 85 59.5 125.5t149.5 40.5q98 0 168 -29v-135zM239 -278l-53 17l22 91q1 8 -5 11l-36 14l21 87q58 -2 87 -15t29 -53
q0 -26 -18 -60z" />
    <glyph glyph-name="uni021A" unicode="&#x21a;" horiz-adv-x="667" 
d="M518 0h-362v65l103 7q10 1 13 4.5t3 15.5v546h-134q-14 0 -16 -11l-16 -87h-84v184h617v-184h-83l-16 87q-2 11 -16 11h-135v-546q0 -11 2.5 -14.5t13.5 -4.5l110 -8v-65zM335 -278l-53 17l22 91q1 8 -5 11l-36 14l21 87q58 -2 87 -15t29 -53q0 -26 -18 -60z" />
    <glyph glyph-name="uni021B" unicode="&#x21b;" horiz-adv-x="424" 
d="M375 95l23 -72q-76 -35 -148 -35q-78 0 -113.5 35t-35.5 110v292q0 10 -8 10h-72v71q56 7 84 44t38 107h73v-130q0 -10 8 -10h145v-82h-153v-272q0 -47 15.5 -66t56.5 -19q38 0 87 17zM244 -278l-53 17l22 91q1 8 -5 11l-36 14l21 87q58 -2 87 -15t29 -53q0 -26 -18 -60z
" />
    <glyph glyph-name="dotlessj" unicode="&#x237;" horiz-adv-x="296" 
d="M97 -39v452q0 16 -12 21l-62 19l10 64h179v-577q0 -85 -39 -124t-119 -39q-46 0 -87 14.5t-61 31.5l38 68q43 -28 87 -28q38 0 52 22t14 76z" />
    <glyph glyph-name="apostrophe" unicode="&#x2bc;" horiz-adv-x="500" 
d="M246 513l-44 15l22 78q2 7 -4 10l-30 11l18 73q47 -1 72 -12.5t25 -45.5q0 -19 -14 -45z" />
    <glyph glyph-name="circumflex" unicode="&#x2c6;" horiz-adv-x="500" 
d="M421 612l-50 -44l-121 98l-121 -98l-50 44l125 125h92z" />
    <glyph glyph-name="caron" unicode="&#x2c7;" horiz-adv-x="500" 
d="M294 579h-92l-123 125l52 44l120 -97l122 97l48 -44z" />
    <glyph glyph-name="uni02C9" unicode="&#x2c9;" horiz-adv-x="500" 
d="M405 606h-311v82h311v-82z" />
    <glyph glyph-name="breve" unicode="&#x2d8;" horiz-adv-x="500" 
d="M355 731l64 -24q-37 -135 -171 -135q-132 0 -167 135l70 24q15 -44 38 -64t61 -20q75 0 105 84z" />
    <glyph glyph-name="dotaccent" unicode="&#x2d9;" horiz-adv-x="500" 
d="M325 691q0 -35 -19.5 -54.5t-55.5 -19.5q-35 0 -55 19.5t-20 54.5t20 54.5t55 19.5q36 0 55.5 -19.5t19.5 -54.5z" />
    <glyph glyph-name="ring" unicode="&#x2da;" horiz-adv-x="500" 
d="M338 658q0 -39 -24.5 -63t-63.5 -24q-40 0 -64.5 23t-24.5 62q0 41 25.5 65t63.5 24t63 -23.5t25 -63.5zM250 621q34 0 34 37t-34 37q-35 0 -35 -38q0 -36 35 -36z" />
    <glyph glyph-name="ogonek" unicode="&#x2db;" horiz-adv-x="500" 
d="M324 -137l23 -63q-51 -24 -103 -24q-46 0 -71.5 21.5t-25.5 61.5q0 77 118 162l64 -17q-85 -72 -85 -121q0 -31 30 -31q22 0 50 11z" />
    <glyph glyph-name="tilde" unicode="&#x2dc;" horiz-adv-x="500" 
d="M428 676l-23 -37q-18 -29 -32.5 -41.5t-33.5 -12.5q-17 0 -57 10q-101 28 -109 29q-9 2 -16 -5l-35 -36l-49 33l29 47q28 45 63 45q12 0 50 -9q90 -26 114 -30q7 -1 14 5l32 35z" />
    <glyph glyph-name="hungarumlaut" unicode="&#x2dd;" horiz-adv-x="500" 
d="M274 723l-163 -158l-48 39l137 182zM454 723l-163 -158l-49 39l138 181z" />
    <glyph glyph-name="uni0394" unicode="&#x394;" horiz-adv-x="688" 
d="M670 0h-652l253 724h141zM331 625l-173 -525h352z" />
    <glyph glyph-name="uni03A9" unicode="&#x3a9;" horiz-adv-x="811" 
d="M766 0h-297v166q63 25 112.5 89t49.5 162q0 114 -56.5 169.5t-157.5 55.5q-100 0 -161 -61.5t-61 -177.5q0 -89 42.5 -149t110.5 -88v-166h-303v165h81l14 -69q2 -11 16 -11h106v44q-91 35 -139 108t-48 171q0 147 92.5 238t251.5 91q166 0 248.5 -82t82.5 -225
q0 -103 -55.5 -181.5t-140.5 -119.5v-44h101q14 0 16 11l15 69h80v-165z" />
    <glyph glyph-name="uni03BC" unicode="&#x3bc;" horiz-adv-x="629" 
d="M595 0h-160l-8 59h-5q-66 -71 -139 -71q-52 0 -83 29l-2 -2l13 -191h-118v693h115v-339q0 -51 15 -75.5t60 -24.5q68 0 131 73v366h115v-426q0 -18 13 -20l53 -7v-64z" />
    <glyph glyph-name="pi" unicode="&#x3c0;" horiz-adv-x="668" 
d="M612 0h-178v434h-202v-434h-179v64l48 7q10 1 12.5 3.5t3.5 11.5v338q0 12 -3 15.5t-13 4.5l-55 7v66h576v-66l-57 -7q-11 -1 -13.5 -4.5t-2.5 -15.5v-333q0 -12 2.5 -15.5t13.5 -4.5l47 -7v-64z" />
    <glyph glyph-name="Wgrave" unicode="&#x1e80;" horiz-adv-x="1013" 
d="M779 0h-154l-116 421h-3l-114 -421h-148l-159 632q-5 15 -22 18l-55 10l10 64h273v-64l-87 -9l122 -533h4l125 465h123l128 -471h5l123 539l-88 9l10 64h249v-64l-50 -9q-19 -4 -23 -19zM599 766l-211 96l46 84l196 -126z" />
    <glyph glyph-name="wgrave" unicode="&#x1e81;" horiz-adv-x="856" 
d="M659 0h-125l-95 372h-3l-91 -372h-140l-136 425q-4 13 -21 17l-42 9l13 66h225v-66l-60 -8l96 -328h4l101 388h124l96 -386h4l94 326l-61 8l11 66h197v-66l-36 -6q-20 -4 -25 -20zM543 607l-46 -43l-177 144l69 67z" />
    <glyph glyph-name="Wacute" unicode="&#x1e82;" horiz-adv-x="1013" 
d="M779 0h-154l-116 421h-3l-114 -421h-148l-159 632q-5 15 -22 18l-55 10l10 64h273v-64l-87 -9l122 -533h4l125 465h123l128 -471h5l123 539l-88 9l10 64h249v-64l-50 -9q-19 -4 -23 -19zM658 863l-211 -97l-31 55l196 126z" />
    <glyph glyph-name="wacute" unicode="&#x1e83;" horiz-adv-x="856" 
d="M659 0h-125l-95 372h-3l-91 -372h-140l-136 425q-4 13 -21 17l-42 9l13 66h225v-66l-60 -8l96 -328h4l101 388h124l96 -386h4l94 326l-61 8l11 66h197v-66l-36 -6q-20 -4 -25 -20zM565 708l-177 -144l-46 43l154 168z" />
    <glyph glyph-name="Wdieresis" unicode="&#x1e84;" horiz-adv-x="1013" 
d="M779 0h-154l-116 421h-3l-114 -421h-148l-159 632q-5 15 -22 18l-55 10l10 64h273v-64l-87 -9l122 -533h4l125 465h123l128 -471h5l123 539l-88 9l10 64h249v-64l-50 -9q-19 -4 -23 -19zM480 842q0 -28 -17 -44.5t-45 -16.5t-45.5 16.5t-17.5 44.5t17.5 44.5t45.5 16.5
t45 -16.5t17 -44.5zM684 842q0 -28 -17 -44.5t-45 -16.5t-45 16.5t-17 44.5t17 44.5t45 16.5t45 -16.5t17 -44.5z" />
    <glyph glyph-name="wdieresis" unicode="&#x1e85;" horiz-adv-x="856" 
d="M659 0h-125l-95 372h-3l-91 -372h-140l-136 425q-4 13 -21 17l-42 9l13 66h225v-66l-60 -8l96 -328h4l101 388h124l96 -386h4l94 326l-61 8l11 66h197v-66l-36 -6q-20 -4 -25 -20zM405 663q0 -28 -17 -44.5t-45 -16.5t-45.5 16.5t-17.5 44.5q0 27 17.5 43.5t45.5 16.5
t45 -16t17 -44zM609 663q0 -28 -17 -44.5t-45 -16.5t-45 16.5t-17 44.5t17 44t45 16t45 -16t17 -44z" />
    <glyph glyph-name="Ygrave" unicode="&#x1ef2;" horiz-adv-x="642" 
d="M506 0h-349v64l97 7q10 1 13 4.5t3 15.5v185l-199 356q-7 13 -24 17l-45 11l10 64h253v-64l-76 -9l142 -273h5l143 273l-75 9l10 64h226v-64l-42 -11q-19 -5 -25 -19l-186 -352v-186q0 -12 2.5 -15.5t13.5 -4.5l103 -8v-64zM382 766l-211 96l46 84l196 -126z" />
    <glyph glyph-name="ygrave" unicode="&#x1ef3;" horiz-adv-x="597" 
d="M399 -212h-296v66l71 8q12 1 16.5 5.5t10.5 16.5l51 117l-184 424q-5 13 -21 17l-41 9l13 66h233v-66l-65 -8l125 -309h4l124 309l-66 8l11 66h206v-66l-33 -5q-19 -3 -25 -17l-234 -566l100 -10v-65zM392 607l-46 -43l-177 144l69 67z" />
    <glyph glyph-name="endash" unicode="&#x2013;" horiz-adv-x="499" 
d="M499 239h-499v84h499v-84z" />
    <glyph glyph-name="emdash" unicode="&#x2014;" horiz-adv-x="1000" 
d="M1000 239h-1000v84h1000v-84z" />
    <glyph glyph-name="quoteleft" unicode="&#x2018;" horiz-adv-x="200" 
d="M173 630l-20 -83q-56 1 -84 13.5t-28 50.5q0 21 16 55l50 101l52 -17l-25 -97q-3 -8 5 -11z" />
    <glyph glyph-name="quoteright" unicode="&#x2019;" horiz-adv-x="200" 
d="M94 547l-51 16l25 97q3 8 -5 11l-34 12l20 84q56 -2 84 -14.5t28 -50.5q0 -22 -16 -54z" />
    <glyph glyph-name="quotesinglbase" unicode="&#x201a;" horiz-adv-x="194" 
d="M100 -127l-51 16l25 97q1 8 -5 11l-34 12l20 84q56 -2 84 -14.5t28 -50.5q0 -20 -17 -54z" />
    <glyph glyph-name="quotedblleft" unicode="&#x201c;" horiz-adv-x="360" 
d="M173 630l-20 -83q-56 1 -84 13.5t-28 50.5q0 21 16 55l50 101l52 -17l-25 -97q-3 -8 5 -11zM333 630l-20 -83q-56 1 -84 13.5t-28 50.5q0 21 16 55l50 101l52 -17l-25 -97q-3 -8 5 -11z" />
    <glyph glyph-name="quotedblright" unicode="&#x201d;" horiz-adv-x="360" 
d="M94 547l-51 16l25 97q3 8 -5 11l-34 12l20 84q56 -2 84 -14.5t28 -50.5q0 -22 -16 -54zM254 547l-51 16l25 97q3 8 -5 11l-34 12l20 84q56 -2 84 -14.5t28 -50.5q0 -22 -16 -54z" />
    <glyph glyph-name="quotedblbase" unicode="&#x201e;" horiz-adv-x="354" 
d="M100 -127l-51 16l25 97q1 8 -5 11l-34 12l20 84q56 -2 84 -14.5t28 -50.5q0 -20 -17 -54zM260 -127l-51 16l25 97q1 8 -5 11l-34 12l20 84q56 -2 84 -14.5t28 -50.5q0 -20 -17 -54z" />
    <glyph glyph-name="dagger" unicode="&#x2020;" horiz-adv-x="397" 
d="M239 -83h-82v190l-16 213l41 112h33l41 -112l-17 -213v-190zM182 465v-33l-84 -27h-74v87h74zM182 465l-27 96v84h87v-84l-27 -96h-33zM373 405h-74l-84 27v33l84 27h74v-87z" />
    <glyph glyph-name="daggerdbl" unicode="&#x2021;" horiz-adv-x="429" 
d="M198 432h33l41 -110v-76l-41 -116h-33v-33h33l27 -96v-84h-87v84l27 96l-84 -27h-74v87h74l84 -27l-41 116v76l41 110l-84 -27h-74v87h74l84 -27l-27 96v84h87v-84l-27 -96l84 27h74v-87h-74l-84 27v33h-33v-33zM389 70h-74l-84 27v33l84 27h74v-87z" />
    <glyph glyph-name="bullet" unicode="&#x2022;" horiz-adv-x="395" 
d="M340 290q0 -139 -143 -139q-142 0 -142 139q0 68 36.5 103t105.5 35q143 0 143 -138z" />
    <glyph glyph-name="ellipsis" unicode="&#x2026;" horiz-adv-x="616" 
d="M186 57q0 -69 -73 -69q-74 0 -74 69t74 69q73 0 73 -69zM389 57q0 -69 -73 -69q-74 0 -74 69t74 69q73 0 73 -69zM586 57q0 -69 -73 -69q-74 0 -74 69t74 69q73 0 73 -69z" />
    <glyph glyph-name="perthousand" unicode="&#x2030;" horiz-adv-x="1098" 
d="M185 295q-145 0 -145 158q0 78 39.5 122.5t112.5 44.5q145 0 145 -158q0 -78 -39.5 -122.5t-112.5 -44.5zM247 -17h-108l377 638h107zM188 359q63 0 63 101q0 95 -61 95q-63 0 -63 -97q0 -99 61 -99zM575 -12q-145 0 -145 158q0 78 39.5 122.5t112.5 44.5q145 0 145 -158
q0 -78 -39.5 -122.5t-112.5 -44.5zM578 52q63 0 63 101q0 95 -61 95q-63 0 -63 -97q0 -99 61 -99zM906 -12q-145 0 -145 158q0 78 39.5 122.5t112.5 44.5q145 0 145 -158q0 -78 -39.5 -122.5t-112.5 -44.5zM909 52q63 0 63 101q0 95 -61 95q-63 0 -63 -97q0 -99 61 -99z" />
    <glyph glyph-name="guilsinglleft" unicode="&#x2039;" horiz-adv-x="279" 
d="M234 103h-97l-87 155l89 150h98l-77 -138q-6 -9 -1 -19z" />
    <glyph glyph-name="guilsinglright" unicode="&#x203a;" horiz-adv-x="278" 
d="M141 103h-98l75 143q6 10 1 19l-77 143h98l88 -153z" />
    <glyph glyph-name="fraction" unicode="&#x2044;" horiz-adv-x="179" 
d="M-44 -17h-106l358 741h105z" />
    <glyph glyph-name="zerosuperior" unicode="&#x2070;" horiz-adv-x="419" 
d="M206 342q-96 0 -134 57t-38 171t42.5 173.5t138.5 59.5t133 -56.5t37 -168.5q0 -118 -41 -177t-138 -59zM210 413q42 0 56 37t14 124t-13 121.5t-55 34.5t-57 -36t-15 -122q0 -87 13.5 -123t56.5 -36z" />
    <glyph glyph-name="foursuperior" unicode="&#x2074;" horiz-adv-x="404" 
d="M319 350h-96v82h-198v70l173 289h121v-281h55v-78h-55v-82zM223 510v183l-109 -183h109z" />
    <glyph glyph-name="fivesuperior" unicode="&#x2075;" horiz-adv-x="379" 
d="M319 709h-179l-10 -104q37 25 87 25q60 0 95 -34t35 -98q0 -69 -44 -112.5t-128 -43.5q-106 0 -165 59l52 60q47 -43 104 -43q77 0 77 74q0 66 -59 66q-38 0 -66 -30l-69 28l15 236h255v-83z" />
    <glyph glyph-name="sixsuperior" unicode="&#x2076;" horiz-adv-x="400" 
d="M363 695l-98 -12q0 29 -9.5 40t-34.5 11q-75 0 -77 -137q41 28 94 28q60 0 96 -34t36 -96q0 -74 -46.5 -113.5t-120.5 -39.5q-165 0 -165 224q0 34 5 65t18 63t33 55.5t54 38.5t78 15q137 0 137 -108zM144 529q1 -55 13.5 -85t50.5 -30q29 0 43 21.5t14 52.5
q0 35 -12.5 50t-42.5 15q-38 0 -66 -24z" />
    <glyph glyph-name="sevensuperior" unicode="&#x2077;" horiz-adv-x="362" 
d="M207 350h-110q11 118 57 214.5t93 144.5h-136q-8 0 -8 -8l-9 -50l-67 -5v146h328v-74q-60 -61 -102.5 -165.5t-45.5 -202.5z" />
    <glyph glyph-name="eightsuperior" unicode="&#x2078;" horiz-adv-x="375" 
d="M277 584q72 -42 72 -112q0 -62 -46.5 -96t-120.5 -34q-73 0 -114.5 31t-41.5 86q0 67 70 122q-54 42 -54 95q0 60 41 93.5t107 33.5q68 0 105.5 -30t37.5 -79q0 -59 -56 -110zM160 545q-48 -40 -48 -80q0 -25 18 -41t52 -16q32 0 49.5 16t17.5 39q0 14 -6 25.5t-23 23
t-25 15.5t-35 18zM208 614q40 39 40 77q0 21 -15 33.5t-40 12.5q-26 0 -41 -13.5t-15 -34.5q0 -23 17.5 -39t53.5 -36z" />
    <glyph glyph-name="ninesuperior" unicode="&#x2079;" horiz-adv-x="401" 
d="M41 390l42 60q46 -35 96 -35q44 0 61 31.5t19 85.5q-42 -26 -88 -26q-64 0 -101.5 37.5t-37.5 103.5q0 74 43 115t118 41q171 0 171 -219q0 -242 -180 -242q-90 0 -143 48zM258 600v32q-5 98 -66 98q-56 0 -56 -73q0 -80 59 -80q36 0 63 23z" />
    <glyph glyph-name="plussuperior" unicode="&#x207a;" horiz-adv-x="322" 
d="M202 441h-82v94h-90v75h90v91h82v-91h90v-75h-90v-94z" />
    <glyph glyph-name="minussuperior" unicode="&#x207b;" horiz-adv-x="322" 
d="M292 535h-262v75h262v-75z" />
    <glyph glyph-name="equalsuperior" unicode="&#x207c;" horiz-adv-x="321" 
d="M291 447h-261v77h261v-77zM291 573h-261v76h261v-76z" />
    <glyph glyph-name="parenleftsuperior" unicode="&#x207d;" horiz-adv-x="252" 
d="M237 310l-77 -43q-111 138 -111 294q0 154 117 302l75 -44q-84 -124 -84 -257q0 -75 20 -130.5t60 -121.5z" />
    <glyph glyph-name="parenrightsuperior" unicode="&#x207e;" horiz-adv-x="252" 
d="M87 267l-76 44q83 119 83 256q0 74 -19.5 131.5t-60.5 120.5l76 44q49 -59 80.5 -136.5t31.5 -159.5q0 -154 -115 -300z" />
    <glyph glyph-name="zeroinferior" unicode="&#x2080;" horiz-adv-x="419" 
d="M206 -155q-96 0 -134 57t-38 171t42.5 173.5t138.5 59.5t133 -56.5t37 -168.5q0 -118 -41 -177t-138 -59zM210 -84q42 0 56 37t14 124t-13 121.5t-55 34.5t-57 -36t-15 -122q0 -87 13.5 -123t56.5 -36z" />
    <glyph glyph-name="oneinferior" unicode="&#x2081;" horiz-adv-x="271" 
d="M259 -147h-242v52l61 7q10 1 10 14v289q0 11 -9 14l-58 12l7 55h164v-371q0 -8 1.5 -10t9.5 -4l56 -5v-53z" />
    <glyph glyph-name="twoinferior" unicode="&#x2082;" horiz-adv-x="374" 
d="M349 -147h-322v59l130 152q44 52 59 76t15 49q0 46 -56 46q-29 0 -42 -13.5t-13 -47.5l-91 9q0 123 154 123q148 0 148 -110q0 -38 -18 -71t-54 -75l-114 -134h116q5 0 9 8l9 51h70v-122z" />
    <glyph glyph-name="threeinferior" unicode="&#x2083;" horiz-adv-x="379" 
d="M260 89v-3q88 -19 88 -107q0 -63 -47 -98.5t-123 -35.5q-106 0 -163 59l52 61q47 -45 104 -45q74 0 74 65q0 62 -74 62q-17 0 -47 -5v68l34 3q38 4 58.5 20t20.5 51q0 50 -55 50q-30 0 -43.5 -13.5t-13.5 -44.5l-91 10q0 120 154 120q150 0 150 -112q0 -40 -21.5 -67.5
t-56.5 -37.5z" />
    <glyph glyph-name="fourinferior" unicode="&#x2084;" horiz-adv-x="404" 
d="M319 -147h-96v82h-198v70l173 289h121v-281h55v-78h-55v-82zM223 13v183l-109 -183h109z" />
    <glyph glyph-name="fiveinferior" unicode="&#x2085;" horiz-adv-x="379" 
d="M319 212h-179l-10 -104q38 25 87 25q60 0 95 -34t35 -98q0 -69 -44 -112.5t-128 -43.5q-106 0 -165 59l52 60q47 -43 104 -43q77 0 77 74q0 66 -59 66q-38 0 -66 -30l-69 28l15 236h255v-83z" />
    <glyph glyph-name="sixinferior" unicode="&#x2086;" horiz-adv-x="400" 
d="M363 198l-98 -12q0 29 -9.5 40t-34.5 11q-75 0 -77 -137q41 28 94 28q60 0 96 -34t36 -96q0 -74 -46.5 -113.5t-120.5 -39.5q-165 0 -165 224q0 34 5 65t18 63t33 55.5t54 38.5t78 15q137 0 137 -108zM144 32q1 -55 13.5 -85t50.5 -30q29 0 43 21.5t14 52.5
q0 35 -12.5 50t-42.5 15q-38 0 -66 -24z" />
    <glyph glyph-name="seveninferior" unicode="&#x2087;" horiz-adv-x="362" 
d="M207 -147h-110q11 118 57 214.5t93 144.5h-136q-8 0 -8 -8l-9 -50l-67 -5v146h328v-74q-60 -61 -102.5 -165.5t-45.5 -202.5z" />
    <glyph glyph-name="eightinferior" unicode="&#x2088;" horiz-adv-x="375" 
d="M277 87q72 -42 72 -112q0 -62 -46.5 -96t-120.5 -34q-73 0 -114.5 31t-41.5 86q0 67 70 122q-54 42 -54 95q0 60 41 93.5t107 33.5q68 0 105.5 -30t37.5 -79q0 -59 -56 -110zM160 48q-48 -40 -48 -80q0 -25 18 -41t52 -16q32 0 49.5 16t17.5 39q0 14 -6 25.5t-23 23
t-25 15.5t-35 18zM208 117q40 39 40 77q0 22 -15 34t-40 12q-26 0 -41 -13.5t-15 -34.5q0 -23 17.5 -39t53.5 -36z" />
    <glyph glyph-name="nineinferior" unicode="&#x2089;" horiz-adv-x="401" 
d="M41 -107l42 60q46 -35 96 -35q44 0 61 31.5t19 85.5q-42 -26 -88 -26q-64 0 -101.5 37.5t-37.5 103.5q0 74 43 115t118 41q171 0 171 -219q0 -242 -180 -242q-90 0 -143 48zM258 103v32q-5 98 -66 98q-56 0 -56 -73q0 -80 59 -80q36 0 63 23z" />
    <glyph glyph-name="parenleftinferior" unicode="&#x208d;" horiz-adv-x="252" 
d="M237 -187l-77 -43q-111 138 -111 294q0 154 117 302l75 -44q-84 -124 -84 -257q0 -75 20 -130.5t60 -121.5z" />
    <glyph glyph-name="parenrightinferior" unicode="&#x208e;" horiz-adv-x="252" 
d="M87 -230l-76 44q83 119 83 256q0 74 -19.5 131.5t-60.5 120.5l76 44q49 -59 80.5 -136.5t31.5 -159.5q0 -154 -115 -300z" />
    <glyph glyph-name="Euro" unicode="&#x20ac;" horiz-adv-x="552" 
d="M376 345h-178v-24q0 -25 1 -37h168l-13 -74h-146q28 -134 140 -134q42 0 61 8q11 5 13 17l14 76l80 5v-157q-24 -13 -75 -25t-103 -12q-216 0 -253 222h-85l14 74h63v61h-55l14 74h50q22 115 93 173.5t169 58.5q50 0 97 -11.5t72 -26.5v-155l-80 6l-14 74q-2 12 -13 17
q-21 8 -62 8q-114 0 -142 -144h183z" />
    <glyph glyph-name="afii61352" unicode="&#x2116;" horiz-adv-x="1120" 
d="M642 0h-129l-287 490v-398q0 -12 2.5 -15.5t13.5 -4.5l67 -8v-64h-257v64l63 7q10 1 13 5t3 15v449q0 12 -3 15.5t-13 4.5l-63 7v65h217l279 -477v386q0 12 -3 15.5t-13 4.5l-63 7v64h256v-64l-67 -8q-11 -1 -13.5 -4.5t-2.5 -14.5v-541zM716 98v86h329v-86h-329z
M879 223q-89 0 -131 46t-42 128q0 83 46 130t135 47q87 0 127.5 -45.5t40.5 -123.5q0 -86 -43.5 -134t-132.5 -48zM880 289q79 0 79 111q0 110 -75 110q-82 0 -82 -110q0 -59 19 -85t59 -26z" />
    <glyph glyph-name="trademark" unicode="&#x2122;" horiz-adv-x="837" 
d="M282 348h-184v41l57 5v280h-79l-8 -53h-40v103h321v-103h-41l-7 53h-80v-280l61 -5v-41zM813 348h-148v40l45 5v209l-90 -173h-51l-88 174v-210l48 -5v-40h-148v40l39 5v284l-39 4v43h106l110 -227l115 227h99v-43l-40 -4v-284l42 -5v-40z" />
    <glyph glyph-name="Omega" unicode="&#x2126;" horiz-adv-x="811" 
d="M766 0h-297v166q63 25 112.5 89t49.5 162q0 114 -56.5 169.5t-157.5 55.5q-100 0 -161 -61.5t-61 -177.5q0 -89 42.5 -149t110.5 -88v-166h-303v165h81l14 -69q2 -11 16 -11h106v44q-91 35 -139 108t-48 171q0 147 92.5 238t251.5 91q166 0 248.5 -82t82.5 -225
q0 -103 -55.5 -181.5t-140.5 -119.5v-44h101q14 0 16 11l15 69h80v-165z" />
    <glyph glyph-name="onethird" unicode="&#x2153;" horiz-adv-x="925" 
d="M300 281h-242v52l61 7q10 1 10 14v289q0 11 -9 14l-58 12l7 55h164v-371q0 -8 1.5 -10t9.5 -4l56 -5v-53zM308 -17h-106l358 741h105zM778 236v-3q88 -19 88 -107q0 -63 -47 -98.5t-123 -35.5q-106 0 -163 59l52 61q47 -45 104 -45q74 0 74 65q0 62 -74 62q-17 0 -47 -5
v68l34 3q38 4 58.5 20t20.5 51q0 50 -55 50q-30 0 -43.5 -13.5t-13.5 -44.5l-91 10q0 120 154 120q150 0 150 -112q0 -40 -21.5 -67.5t-56.5 -37.5z" />
    <glyph glyph-name="twothirds" unicode="&#x2154;" horiz-adv-x="925" 
d="M365 281h-322v59l130 152q44 52 59 76t15 49q0 46 -56 46q-29 0 -42 -13.5t-13 -47.5l-91 9q0 123 154 123q148 0 148 -110q0 -38 -18 -71t-54 -75l-114 -134h116q5 0 9 8l9 51h70v-122zM348 -17h-106l358 741h105zM794 236v-3q88 -19 88 -107q0 -63 -47 -98.5
t-123 -35.5q-106 0 -163 59l52 61q47 -45 104 -45q74 0 74 65q0 62 -74 62q-17 0 -47 -5v68l34 3q38 4 58.5 20t20.5 51q0 50 -55 50q-30 0 -43.5 -13.5t-13.5 -44.5l-91 10q0 120 154 120q150 0 150 -112q0 -40 -21.5 -67.5t-56.5 -37.5z" />
    <glyph glyph-name="oneeighth" unicode="&#x215b;" horiz-adv-x="925" 
d="M303 281h-242v52l61 7q10 1 10 14v289q0 11 -9 14l-58 12l7 55h164v-371q0 -8 1.5 -10t9.5 -4l56 -5v-53zM312 -17h-106l358 741h105zM792 234q72 -42 72 -112q0 -62 -46.5 -96t-120.5 -34q-73 0 -114.5 31t-41.5 86q0 67 70 122q-54 42 -54 95q0 60 41 93.5t107 33.5
q68 0 105.5 -30t37.5 -79q0 -59 -56 -110zM675 195q-48 -40 -48 -80q0 -25 18 -41t52 -16q32 0 49.5 16t17.5 39q0 14 -6 25.5t-23 23t-25 15.5t-35 18zM723 264q40 39 40 77q0 21 -15 33.5t-40 12.5q-26 0 -41 -13.5t-15 -34.5q0 -23 17.5 -39t53.5 -36z" />
    <glyph glyph-name="threeeighths" unicode="&#x215c;" horiz-adv-x="925" 
d="M285 517v-3q88 -19 88 -107q0 -63 -47 -98.5t-123 -35.5q-106 0 -163 59l52 61q47 -45 104 -45q74 0 74 65q0 62 -74 62q-17 0 -47 -5v68l34 3q38 4 58.5 20t20.5 51q0 50 -55 50q-30 0 -43.5 -13.5t-13.5 -44.5l-91 10q0 120 154 120q150 0 150 -112q0 -40 -21.5 -67.5
t-56.5 -37.5zM343 -17h-106l358 741h105zM812 234q72 -42 72 -112q0 -62 -46.5 -96t-120.5 -34q-73 0 -114.5 31t-41.5 86q0 67 70 122q-54 42 -54 95q0 60 41 93.5t107 33.5q68 0 105.5 -30t37.5 -79q0 -59 -56 -110zM695 195q-48 -40 -48 -80q0 -25 18 -41t52 -16
q32 0 49.5 16t17.5 39q0 14 -6 25.5t-23 23t-25 15.5t-35 18zM743 264q40 39 40 77q0 21 -15 33.5t-40 12.5q-26 0 -41 -13.5t-15 -34.5q0 -23 17.5 -39t53.5 -36z" />
    <glyph glyph-name="fiveeighths" unicode="&#x215d;" horiz-adv-x="925" 
d="M350 640h-179l-10 -104q37 25 87 25q60 0 95 -34t35 -98q0 -69 -44 -112.5t-128 -43.5q-106 0 -165 59l52 60q47 -43 104 -43q77 0 77 74q0 66 -59 66q-38 0 -66 -30l-69 28l15 236h255v-83zM344 -17h-106l358 741h105zM812 234q72 -42 72 -112q0 -62 -46.5 -96
t-120.5 -34q-73 0 -114.5 31t-41.5 86q0 67 70 122q-54 42 -54 95q0 60 41 93.5t107 33.5q68 0 105.5 -30t37.5 -79q0 -59 -56 -110zM695 195q-48 -40 -48 -80q0 -25 18 -41t52 -16q32 0 49.5 16t17.5 39q0 14 -6 25.5t-23 23t-25 15.5t-35 18zM743 264q40 39 40 77
q0 21 -15 33.5t-40 12.5q-26 0 -41 -13.5t-15 -34.5q0 -23 17.5 -39t53.5 -36z" />
    <glyph glyph-name="seveneighths" unicode="&#x215e;" horiz-adv-x="925" 
d="M239 281h-110q11 118 57 214.5t93 144.5h-136q-8 0 -8 -8l-9 -50l-67 -5v146h328v-74q-60 -61 -102.5 -165.5t-45.5 -202.5zM299 -17h-106l358 741h105zM794 234q72 -42 72 -112q0 -62 -46.5 -96t-120.5 -34q-73 0 -114.5 31t-41.5 86q0 67 70 122q-54 42 -54 95
q0 60 41 93.5t107 33.5q68 0 105.5 -30t37.5 -79q0 -59 -56 -110zM677 195q-48 -40 -48 -80q0 -25 18 -41t52 -16q32 0 49.5 16t17.5 39q0 14 -6 25.5t-23 23t-25 15.5t-35 18zM725 264q40 39 40 77q0 21 -15 33.5t-40 12.5q-26 0 -41 -13.5t-15 -34.5q0 -23 17.5 -39
t53.5 -36z" />
    <glyph glyph-name="partialdiff" unicode="&#x2202;" horiz-adv-x="561" 
d="M398 361q2 26 2 45q0 31 -6 60t-19 57.5t-39 45.5t-62 17q-74 0 -146 -52l-47 71q96 69 209 69q221 0 221 -293q0 -73 -11 -136t-38 -124t-81 -97t-130 -36q-100 0 -154.5 52.5t-54.5 146.5q0 102 54.5 163.5t147.5 61.5q91 0 154 -51zM390 277q-60 53 -124 53
q-56 0 -81.5 -38.5t-25.5 -99.5q0 -52 23 -84.5t72 -32.5q117 0 136 202z" />
    <glyph glyph-name="Delta" unicode="&#x2206;" horiz-adv-x="688" 
d="M670 0h-652l253 724h141zM331 625l-173 -525h352z" />
    <glyph glyph-name="product" unicode="&#x220f;" horiz-adv-x="766" 
d="M740 -176h-279v64l63 7q10 1 13 5t3 15v721h-316v-720q0 -12 2.5 -15.5t13.5 -4.5l67 -8v-64h-279v64l63 7q10 1 13 5t3 15v718q0 12 -3 15.5t-13 4.5l-63 7v64h712v-64l-67 -8q-11 -1 -13.5 -4.5t-2.5 -14.5v-717q0 -12 2.5 -15.5t13.5 -4.5l67 -8v-64z" />
    <glyph glyph-name="summation" unicode="&#x2211;" horiz-adv-x="627" 
d="M582 -176h-564v67l230 384l-216 384v65h536v-180l-85 4l-14 77q-3 13 -17 13h-279l192 -354l-220 -367h321q14 0 16 11l16 88h84v-192z" />
    <glyph glyph-name="minus" unicode="&#x2212;" 
d="M476 275h-381v95h381v-95z" />
    <glyph glyph-name="uni2215" unicode="&#x2215;" horiz-adv-x="454" 
d="M123 -17h-102l313 648h101z" />
    <glyph glyph-name="uni2219" unicode="&#x2219;" horiz-adv-x="289" 
d="M223 308q0 -75 -79 -75q-81 0 -81 75t81 75q38 0 58.5 -19.5t20.5 -55.5z" />
    <glyph glyph-name="radical" unicode="&#x221a;" 
d="M364 0h-113l-125 219q-7 11 -18 8l-62 -17l-30 69l147 70l129 -233l168 629l97 -24z" />
    <glyph glyph-name="infinity" unicode="&#x221e;" horiz-adv-x="640" 
d="M320 264q-75 -80 -152 -80q-58 0 -98 34.5t-40 101.5q0 63 41.5 101t104.5 38q45 0 79 -21t69 -58q24 24 40.5 38t47 27.5t62.5 13.5q60 0 98 -35t38 -105q0 -61 -40.5 -99t-100.5 -38q-76 0 -149 82zM277 323q-26 31 -49 47t-52 16q-28 0 -46 -18t-18 -45t16 -47.5
t45 -20.5q44 0 104 68zM370 322q20 -23 29 -32.5t28.5 -20.5t39.5 -11q28 0 44.5 19.5t16.5 45.5q0 28 -15 46t-44 18q-18 0 -37.5 -11.5t-30.5 -21.5t-31 -32z" />
    <glyph glyph-name="integral" unicode="&#x222b;" horiz-adv-x="399" 
d="M29 -168l23 81q34 -17 71 -17q55 0 50 69l-54 622q-3 39 8.5 68t33 43.5t45 21.5t49.5 7q56 0 114 -21l-23 -82q-36 18 -71 18q-55 0 -50 -70l54 -621q3 -40 -8.5 -69t-33 -43.5t-45 -21t-49.5 -6.5q-56 0 -114 21z" />
    <glyph glyph-name="approxequal" unicode="&#x2248;" 
d="M445 517l61 -18q-12 -55 -32.5 -85t-64.5 -30q-38 0 -117 20.5t-107 20.5q-20 0 -32.5 -10t-29.5 -37l-59 26q24 54 48.5 80t66.5 26q39 0 114 -20.5t106 -20.5q19 0 27.5 10.5t18.5 37.5zM444 333l61 -18q-12 -56 -32.5 -85.5t-64.5 -29.5q-38 0 -117 20t-107 20
q-20 0 -32.5 -10.5t-28.5 -36.5l-60 27q24 54 48.5 80t66.5 26q39 0 114.5 -20.5t105.5 -20.5q19 0 28 10.5t18 37.5z" />
    <glyph glyph-name="notequal" unicode="&#x2260;" 
d="M474 147h-199l-38 -90h-88l38 90h-91v97h132l32 75h-164v97h205l37 87h87l-37 -87h86v-97h-127l-31 -75h158v-97z" />
    <glyph glyph-name="lessequal" unicode="&#x2264;" 
d="M470 114l-381 142v116l376 149l15 -94l-293 -111l295 -109zM471 0h-381v95h381v-95z" />
    <glyph glyph-name="greaterequal" unicode="&#x2265;" 
d="M481 256l-381 -142l-12 93l295 109l-293 109l15 96l376 -149v-116zM480 0h-381v95h381v-95z" />
    <glyph glyph-name="triangle" unicode="&#x25b3;" horiz-adv-x="425" 
d="M335 320l-185 -117v231z" />
    <glyph glyph-name="lozenge" unicode="&#x25ca;" 
d="M329 -17h-88l-156 324l156 324h88l156 -324zM285 81l107 226l-107 221l-104 -221z" />
    <glyph glyph-name="circle" unicode="&#x25cb;" horiz-adv-x="610" 
d="M305 119q-85 0 -145 60t-60 145t60 145t145 60t145 -60t60 -145t-60 -145t-145 -60z" />
    <glyph glyph-name="st" unicode="&#xfb06;" horiz-adv-x="869" 
d="M820 96l23 -72q-79 -36 -150 -36q-84 0 -117.5 42t-33.5 132v266q0 7 -6 7h-73v82h79v99q-28 7 -61 7q-45 0 -58 -23t-13 -81q0 -59 10 -156l-83 5l-10 54q-3 16 -14 19q-27 9 -71 9q-94 0 -94 -65q0 -30 29.5 -47.5t72 -27t84.5 -23t71.5 -47t29.5 -87.5
q0 -86 -58.5 -125.5t-152.5 -39.5q-59 0 -116 12t-73 23v134l83 -5l10 -60q1 -8 4.5 -11t13.5 -6q36 -12 84 -12q100 0 100 69q0 32 -29.5 49.5t-71.5 25.5t-84.5 20.5t-72 46t-29.5 90.5q0 82 58.5 122.5t141.5 40.5q35 0 75 -7q-2 13 -2 37q0 75 43.5 110.5t133.5 35.5
q78 0 164 -19v-157q0 -10 8 -10h145v-82h-153v-270q0 -47 15.5 -67t56.5 -20t91 18z" />
    <glyph glyph-name="CR" horiz-adv-x="500" 
 />
    <glyph glyph-name="hyphen.case" horiz-adv-x="317" 
d="M294 299h-271v104h271v-104z" />
    <glyph glyph-name="ct" horiz-adv-x="912" 
d="M432 111l33 -78q-73 -45 -179 -45q-126 0 -188.5 71.5t-62.5 192.5q0 136 72.5 205.5t193.5 69.5q33 0 60 -6q-2 13 -2 37q0 75 43.5 110t133.5 35q78 0 164 -19v-157q0 -10 8 -10h145v-82h-153v-270q0 -47 15.5 -67t56.5 -20t91 18l23 -72q-79 -36 -150 -36
q-85 0 -118 41.5t-33 132.5v266q0 7 -6 7h-73v82h79v99q-28 7 -61 7q-45 0 -58 -23t-13 -81q0 -43 12 -170l-84 4l-12 66q-1 10 -11 14q-23 9 -62 9q-63 0 -102 -43.5t-39 -137.5q0 -181 150 -181q69 0 127 31z" />
    <glyph glyph-name="ch" horiz-adv-x="1109" 
d="M432 111l33 -78q-73 -45 -179 -45q-126 0 -188.5 71.5t-62.5 192.5q0 136 72.5 205.5t193.5 69.5q24 0 60 -4q-4 33 -4 68q0 37 6.5 65.5t23.5 55t52 41t86 14.5q81 0 169 -15v-289q94 64 173 64q151 0 151 -181v-255q0 -12 2.5 -15.5t13.5 -4.5l55 -7v-64h-250v63l47 7
q11 1 14 5.5t3 15.5v232q0 22 -2 38t-8.5 34t-22 28t-38.5 10q-60 0 -137 -54v-288q0 -12 2.5 -15.5t13.5 -4.5l53 -7v-64h-248v63l48 8q10 1 13 5t3 15v592q-30 5 -55 5q-45 0 -61 -24.5t-16 -82.5q0 -57 19 -232l-86 4l-12 66q-1 10 -11 14q-23 9 -62 9q-63 0 -102 -43.5
t-39 -137.5q0 -181 150 -181q69 0 127 31z" />
    <glyph glyph-name="ck" horiz-adv-x="1083" 
d="M1075 0h-256v63l57 9l-109 191l-72 -80v-92q0 -12 2.5 -15.5t13.5 -4.5l56 -7v-64h-260v63l57 8q10 1 13 5t3 15v592q-30 5 -55 5q-45 0 -61 -24.5t-16 -82.5q0 -57 19 -232l-86 4l-12 66q-1 10 -11 14q-23 9 -62 9q-63 0 -102 -43.5t-39 -137.5q0 -181 150 -181
q69 0 127 31l33 -78q-73 -45 -179 -45q-126 0 -188.5 71.5t-62.5 192.5q0 136 72.5 205.5t193.5 69.5q23 0 59 -4q-4 33 -4 68q0 37 7 65.5t24 55t52 41t86 14.5q82 0 170 -15v-456l201 221h122v-64l-55 -11q-13 -2 -25 -15l-83 -91l142 -247q9 -15 30 -17l48 -9v-63z" />
    <glyph glyph-name="Th" horiz-adv-x="1142" 
d="M275 92v546h-134q-14 0 -16 -11l-16 -87h-84v184h583q12 0 14 11l4 21h102v-293q94 64 173 64q151 0 151 -181v-255q0 -12 2.5 -15.5t13.5 -4.5l55 -7v-64h-250v63l47 7q11 1 14 5.5t3 15.5v232q0 22 -2 38t-8.5 34t-22 28t-38.5 10q-60 0 -137 -54v-288q0 -12 2.5 -15.5
t13.5 -4.5l53 -7v-64h-248v63l48 8q10 1 13 5t3 15v547h-222v-546q0 -11 2.5 -14.5t13.5 -4.5l110 -8v-65h-362v65l103 7q10 1 13 4.5t3 15.5z" />
    <glyph glyph-name="hyphensuperior" horiz-adv-x="223" 
d="M203 496h-183v84h183v-84z" />
    <glyph glyph-name="commasuperior" horiz-adv-x="139" 
d="M76 273l-46 13l19 70q0 6 -5 8l-27 9l15 72q47 -1 71 -10.5t24 -40.5q0 -21 -14 -47z" />
    <glyph glyph-name="periodsuperior" horiz-adv-x="157" 
d="M137 394q0 -52 -58 -52q-59 0 -59 52q0 51 59 51q58 0 58 -51z" />
    <glyph glyph-name="a.sup" horiz-adv-x="384" 
d="M380 350h-117l-7 36h-3q-51 -44 -115 -44q-98 0 -98 93q0 49 31 73.5t94 29.5l81 6v33q0 30 -10 43t-42 13q-28 0 -40.5 -8t-13.5 -36l-86 7q0 97 142 97q77 0 108.5 -25.5t31.5 -91.5v-160q0 -8 2 -10t9 -3l33 -5v-48zM246 436v58l-54 -5q-33 -3 -45.5 -13.5
t-12.5 -33.5q0 -35 36 -35q40 0 76 29z" />
    <glyph glyph-name="b.sup" horiz-adv-x="417" 
d="M148 350h-87q9 63 9 94v321q0 10 -9 14l-38 12l8 48h130v-180q54 34 109 34q59 0 93.5 -40t34.5 -125q0 -186 -144 -186q-60 0 -98 40l-3 -1zM162 597v-152q33 -33 73 -33q67 0 67 111q0 46 -16.5 73t-49.5 27q-35 0 -74 -26z" />
    <glyph glyph-name="c.sup" horiz-adv-x="349" 
d="M311 429l22 -56q-50 -31 -125 -31q-86 0 -129 47t-43 125q0 88 49.5 133.5t132.5 45.5q74 0 117 -26v-98l-66 3l-8 43q-2 8 -8 10q-13 5 -37 5q-38 0 -61 -26t-23 -82q0 -112 93 -112q44 0 86 19z" />
    <glyph glyph-name="d.sup" horiz-adv-x="418" 
d="M410 350h-118l-7 40l-4 1q-47 -49 -113 -49q-130 0 -130 168q0 92 40.5 137.5t102.5 45.5q52 0 97 -31v103q0 9 -9 14l-38 12l8 48h127v-424q0 -7 1.5 -9t9.5 -4l33 -4v-48zM275 452v145q-35 27 -68 27q-73 0 -73 -109q0 -54 14 -78t46 -24q38 0 81 39z" />
    <glyph glyph-name="e.sup" horiz-adv-x="363" 
d="M319 434l22 -60q-67 -32 -134 -32q-171 0 -171 178q0 85 46 129t118 44q147 0 147 -157q0 -9 -2 -35h-212q3 -90 85 -90q38 0 101 23zM133 555h123q0 75 -58 75q-59 0 -65 -75z" />
    <glyph glyph-name="f.sup" horiz-adv-x="300" 
d="M271 350h-235v48l39 4q11 2 11 14v204q0 6 -6 6h-46v61h52v38q0 121 139 121q54 0 85 -18.5t31 -70.5l-85 -9q0 24 -8 32t-27 8q-25 0 -34 -13.5t-9 -39.5v-42q0 -6 5 -6h108v-61h-113v-209q0 -8 2 -10t10 -3l81 -6v-48z" />
    <glyph glyph-name="g.sup" horiz-adv-x="405" 
d="M205 205q-72 0 -131 25l19 62q47 -19 95 -19q56 0 73.5 20.5t17.5 72.5v31q-54 -43 -107 -43q-135 0 -135 162q0 91 41.5 134t102.5 43q56 0 99 -36l10 30h81q-6 -51 -6 -104v-210q0 -97 -41.5 -132.5t-118.5 -35.5zM274 464v133q-36 27 -70 27q-71 0 -71 -104
q0 -52 14 -73.5t47 -21.5q39 0 80 39z" />
    <glyph glyph-name="h.sup" horiz-adv-x="433" 
d="M428 350h-181v48l31 4q11 1 11 13v143q0 29 -8.5 46.5t-35.5 17.5q-36 0 -76 -28v-179q0 -7 1.5 -9t9.5 -4l31 -4v-48h-176v48l31 4q11 2 11 13v350q0 11 -9 14l-37 12l7 48h131v-185q55 38 116 38q48 0 72.5 -30t24.5 -85v-162v-6t1 -3.5t3 -2l6 -1.5l36 -4v-48z" />
    <glyph glyph-name="i.sup" horiz-adv-x="221" 
d="M172 797q0 -26 -15 -40.5t-43 -14.5q-26 0 -41.5 15t-15.5 40q0 26 15 40t42 14q58 0 58 -54zM217 350h-188v48l37 4q11 2 11 13v197q0 11 -9 14l-37 12l7 49h131v-272q0 -7 1.5 -9t9.5 -4l37 -4v-48z" />
    <glyph glyph-name="j.sup" horiz-adv-x="215" 
d="M75 330v282q0 12 -8 14l-40 12l8 49h133v-373q0 -109 -113 -109q-68 0 -108 32l27 51q29 -17 60 -17q23 0 32 12.5t9 46.5zM171 797q0 -26 -15 -40.5t-42 -14.5t-42 14.5t-15 40.5q0 54 57 54t57 -54z" />
    <glyph glyph-name="k.sup" horiz-adv-x="424" 
d="M424 350h-181v48l32 4l-64 115l-42 -43v-59q0 -7 1.5 -9t9.5 -4l35 -4v-48h-184v48l35 4q11 2 11 13v350q0 10 -9 14l-37 12l7 48h131v-284l129 132h88v-49l-35 -5q-9 -2 -17 -10l-51 -53l90 -157q5 -8 20 -11l31 -5v-47z" />
    <glyph glyph-name="l.sup" horiz-adv-x="221" 
d="M216 350h-185v48l35 4q11 2 11 13v350q0 10 -9 14l-37 12l7 48h131v-424q0 -7 1.5 -9t9.5 -4l36 -4v-48z" />
    <glyph glyph-name="m.sup" horiz-adv-x="615" 
d="M609 350h-177v48l29 4q10 1 10 12v151q0 57 -40 57q-34 0 -67 -22q3 -15 3 -37v-148q0 -8 1.5 -10t9.5 -3l29 -4v-48h-170v48l30 4q8 1 8 12v153q0 17 -2 27.5t-10.5 19t-24.5 8.5q-35 0 -69 -27v-179q0 -8 2 -10.5t9 -3.5l30 -4v-48h-175v48l31 4q11 2 11 13v197
q0 11 -9 14l-37 12l7 49h112l5 -35h3q55 41 111 41q58 0 84 -39q55 39 111 39q53 0 76 -29t23 -87v-162q0 -8 2 -10t9 -3l35 -4v-48z" />
    <glyph glyph-name="n.sup" horiz-adv-x="433" 
d="M428 350h-183v48l33 4q11 1 11 13v143q0 35 -9 49t-35 14q-39 0 -76 -27v-179q0 -8 2 -10t9 -3l31 -4v-48h-176v48l31 4q11 2 11 13v197q0 11 -9 14l-36 12l7 49h111l5 -35h3q61 41 120 41q104 0 104 -116v-162v-6t1 -3.5t3 -2l6 -1.5l36 -4v-48z" />
    <glyph glyph-name="o.sup" horiz-adv-x="401" 
d="M209 342q-89 0 -131 46t-42 128q0 83 46 130t135 47q87 0 127.5 -45.5t40.5 -123.5q0 -86 -43.5 -134t-132.5 -48zM210 408q79 0 79 111q0 110 -75 110q-82 0 -82 -110q0 -59 19 -85t59 -26z" />
    <glyph glyph-name="p.sup" horiz-adv-x="422" 
d="M245 212h-209v49l27 4q12 3 12 13v334q0 11 -9 14l-36 12l7 49h111l7 -34l2 -1q54 41 117 41q129 0 129 -165q0 -71 -33.5 -128t-105.5 -57q-55 0 -98 33v-97q0 -8 2 -10.5t9 -2.5l68 -5v-49zM167 595v-156q36 -28 71 -28q69 0 69 112q0 98 -65 98q-40 0 -75 -26z" />
    <glyph glyph-name="q.sup" horiz-adv-x="409" 
d="M411 212h-196v49l56 5q14 0 14 12v107q-52 -43 -112 -43q-134 0 -134 167q0 92 41 138t103 46q54 0 99 -36l10 30h81q-6 -74 -6 -102v-307q0 -7 1.5 -9t9.5 -4l33 -4v-49zM276 448v146q-42 30 -69 30q-72 0 -72 -109q0 -54 14.5 -78t48.5 -24q41 0 78 35z" />
    <glyph glyph-name="r.sup" horiz-adv-x="323" 
d="M246 350h-211v49l31 4q11 1 11 13v196q0 11 -9 14l-37 12l7 49h112l9 -51h2q40 57 97 57q39 0 57 -6v-114l-73 3l-7 36q-1 8 -9 8q-25 0 -57 -27v-177q0 -8 2 -10t10 -3l65 -5v-48z" />
    <glyph glyph-name="s.sup" horiz-adv-x="335" 
d="M309 585l-65 3l-6 34q-1 7 -7 9q-18 6 -45 6t-43 -10t-16 -27q0 -18 17 -26.5t52 -16.5q7 -1 10 -2q25 -6 41 -11.5t35 -16.5t28.5 -30t9.5 -45q0 -56 -41.5 -83t-107.5 -27q-42 0 -81 8t-50 15v90l65 -4l7 -36q2 -9 8 -11q27 -6 56 -6q60 0 60 37q0 15 -12.5 24.5
t-24.5 13t-40 8.5q-26 5 -41 10t-35 16t-29.5 30t-9.5 47q0 55 41.5 82t104.5 27q68 0 119 -18v-90z" />
    <glyph glyph-name="t.sup" horiz-adv-x="301" 
d="M274 421l17 -54q-54 -25 -106 -25q-57 0 -82 24t-25 77v177q0 6 -5 6h-48v54q42 4 61.5 28t26.5 74h58v-89q0 -6 5 -6h96v-61h-101v-162q0 -30 9.5 -41.5t36.5 -11.5q23 0 57 10z" />
    <glyph glyph-name="u.sup" horiz-adv-x="433" 
d="M421 350h-118l-6 37l-2 1q-64 -46 -120 -46q-55 0 -78.5 28.5t-23.5 86.5v160q0 6 -0.5 8t-2.5 3.5t-7 2.5l-33 6l7 50h129v-213q0 -35 8 -49t32 -14q33 0 79 39v167q0 12 -11 14l-27 6l6 50h124v-272q0 -11 10 -12l34 -5v-48z" />
    <glyph glyph-name="v.sup" horiz-adv-x="423" 
d="M276 350h-107l-109 271q-2 8 -14 11l-28 6l9 49h173v-49l-44 -5l74 -203h4l79 203l-45 5l8 49h150v-49l-23 -4q-14 -3 -18 -11z" />
    <glyph glyph-name="w.sup" horiz-adv-x="597" 
d="M473 350h-99l-56 231h-3l-56 -231h-112l-88 271q-3 8 -14 11l-29 6l10 49h163v-50l-38 -4l59 -194h3l62 239h97l58 -238h4l56 193l-40 4l8 50h141v-49l-24 -5q-13 -1 -17 -13z" />
    <glyph glyph-name="x.sup" horiz-adv-x="413" 
d="M411 350h-182v47l32 6l-57 69l-59 -69l36 -6v-47h-157v47l29 6q10 1 20 11l90 99l-92 107q-6 7 -16 11l-28 7l7 49h170v-49l-35 -5l55 -66l59 66l-36 5l7 49h144v-49l-31 -6l-17 -12l-84 -93l95 -112q9 -11 18 -12l32 -5v-48z" />
    <glyph glyph-name="y.sup" horiz-adv-x="423" 
d="M303 212h-216v50l52 5q10 1 16 14l32 67l-128 273q-2 8 -14 11l-27 6l9 49h170v-49l-43 -5l79 -182h3l77 182l-44 5l8 49h148v-49l-22 -4q-13 -1 -17 -11l-152 -355l69 -7v-49z" />
    <glyph glyph-name="z.sup" horiz-adv-x="355" 
d="M341 350h-301v50l186 229h-103q-6 0 -8 -8l-8 -37l-66 -4v107h290v-52l-183 -228h111q5 0 7 8l8 45l67 4v-114z" />
    <glyph glyph-name="hypheninferior" horiz-adv-x="223" 
d="M203 -1h-183v84h183v-84z" />
    <glyph glyph-name="commainferior" horiz-adv-x="139" 
d="M76 -224l-46 13l19 70q0 6 -5 8l-27 9l15 72q47 -1 71 -10.5t24 -40.5q0 -21 -14 -47z" />
    <glyph glyph-name="periodinferior" horiz-adv-x="157" 
d="M137 -103q0 -52 -58 -52q-59 0 -59 52q0 51 59 51q58 0 58 -51z" />
    <glyph glyph-name="minusinferior" horiz-adv-x="322" 
d="M292 38h-262v75h262v-75z" />
    <glyph glyph-name="plusinferior" horiz-adv-x="322" 
d="M202 -56h-82v94h-90v75h90v91h82v-91h90v-75h-90v-94z" />
    <glyph glyph-name="equalinferior" horiz-adv-x="321" 
d="M291 -50h-261v77h261v-77zM291 76h-261v76h261v-76z" />
    <glyph glyph-name="a.sinf" horiz-adv-x="384" 
d="M380 -147h-117l-7 36h-3q-51 -44 -115 -44q-98 0 -98 93q0 49 31 73.5t94 29.5l81 6v33q0 30 -10 43t-42 13q-28 0 -40.5 -8t-13.5 -36l-86 7q0 97 142 97q77 0 108.5 -25.5t31.5 -91.5v-160q0 -8 2 -10t9 -3l33 -5v-48zM246 -61v58l-54 -5q-33 -3 -45.5 -13.5
t-12.5 -33.5q0 -35 36 -35q40 0 76 29z" />
    <glyph glyph-name="b.sinf" horiz-adv-x="417" 
d="M148 -147h-87q9 63 9 94v321q0 10 -9 14l-38 12l8 48h130v-180q54 34 109 34q59 0 93.5 -40t34.5 -125q0 -186 -144 -186q-60 0 -98 40l-3 -1zM162 100v-152q33 -33 73 -33q67 0 67 111q0 46 -16.5 73t-49.5 27q-35 0 -74 -26z" />
    <glyph glyph-name="c.sinf" horiz-adv-x="349" 
d="M311 -68l22 -56q-50 -31 -125 -31q-86 0 -129 47t-43 125q0 88 49.5 133.5t132.5 45.5q74 0 117 -26v-98l-66 3l-8 43q-2 8 -8 10q-13 5 -37 5q-38 0 -61 -26t-23 -82q0 -112 93 -112q44 0 86 19z" />
    <glyph glyph-name="d.sinf" horiz-adv-x="418" 
d="M410 -147h-118l-7 40l-4 1q-47 -49 -113 -49q-130 0 -130 168q0 92 40.5 137.5t102.5 45.5q52 0 97 -31v103q0 10 -9 14l-38 12l8 48h127v-424q0 -7 1.5 -9t9.5 -4l33 -4v-48zM275 -45v145q-35 27 -68 27q-73 0 -73 -109q0 -54 14 -78t46 -24q38 0 81 39z" />
    <glyph glyph-name="e.sinf" horiz-adv-x="363" 
d="M319 -63l22 -60q-67 -32 -134 -32q-171 0 -171 178q0 85 46 129t118 44q147 0 147 -157q0 -9 -2 -35h-212q3 -90 85 -90q38 0 101 23zM133 58h123q0 75 -58 75q-59 0 -65 -75z" />
    <glyph glyph-name="f.sinf" horiz-adv-x="300" 
d="M271 -147h-235v48l39 4q11 2 11 14v204q0 6 -6 6h-46v61h52v38q0 121 139 121q54 0 85 -18.5t31 -70.5l-85 -9q0 24 -8 32t-27 8q-25 0 -34 -13.5t-9 -39.5v-42q0 -6 5 -6h108v-61h-113v-209q0 -8 2 -10t10 -3l81 -6v-48z" />
    <glyph glyph-name="g.sinf" horiz-adv-x="405" 
d="M205 -292q-72 0 -131 25l19 62q47 -19 95 -19q56 0 73.5 20t17.5 73v31q-54 -43 -107 -43q-135 0 -135 162q0 91 41.5 134t102.5 43q56 0 99 -36l10 30h81q-6 -51 -6 -104v-210q0 -97 -41.5 -132.5t-118.5 -35.5zM274 -33v133q-36 27 -70 27q-71 0 -71 -104
q0 -52 14 -73.5t47 -21.5q39 0 80 39z" />
    <glyph glyph-name="h.sinf" horiz-adv-x="433" 
d="M428 -147h-181v48l31 4q11 1 11 13v143q0 29 -8.5 46.5t-35.5 17.5q-36 0 -76 -28v-179q0 -7 1.5 -9t9.5 -4l31 -4v-48h-176v48l31 4q11 2 11 13v350q0 11 -9 14l-37 12l7 48h131v-185q55 38 116 38q48 0 72.5 -30t24.5 -85v-162v-6t1 -3.5t3 -2l6 -1.5l36 -4v-48z" />
    <glyph glyph-name="i.sinf" horiz-adv-x="221" 
d="M172 300q0 -26 -15 -40.5t-43 -14.5q-26 0 -41.5 15t-15.5 40q0 26 15 40t42 14q58 0 58 -54zM217 -147h-188v48l37 4q11 2 11 13v197q0 11 -9 14l-37 12l7 49h131v-272q0 -7 1.5 -9t9.5 -4l37 -4v-48z" />
    <glyph glyph-name="j.sinf" horiz-adv-x="215" 
d="M75 -167v282q0 12 -8 14l-40 12l8 49h133v-373q0 -109 -113 -109q-68 0 -108 32l27 51q29 -17 60 -17q23 0 32 12.5t9 46.5zM171 300q0 -26 -15 -40.5t-42 -14.5t-42 14.5t-15 40.5q0 54 57 54t57 -54z" />
    <glyph glyph-name="k.sinf" horiz-adv-x="424" 
d="M424 -147h-181v48l32 4l-64 115l-42 -43v-59q0 -7 1.5 -9t9.5 -4l35 -4v-48h-184v48l35 4q11 2 11 13v350q0 10 -9 14l-37 12l7 48h131v-284l129 132h88v-49l-35 -5q-9 -2 -17 -10l-51 -53l90 -157q5 -8 20 -11l31 -5v-47z" />
    <glyph glyph-name="l.sinf" horiz-adv-x="221" 
d="M216 -147h-185v48l35 4q11 2 11 13v350q0 10 -9 14l-37 12l7 48h131v-424q0 -7 1.5 -9t9.5 -4l36 -4v-48z" />
    <glyph glyph-name="m.sinf" horiz-adv-x="615" 
d="M609 -147h-177v48l29 4q10 1 10 12v151q0 57 -40 57q-34 0 -67 -22q3 -15 3 -37v-148q0 -8 1.5 -10t9.5 -3l29 -4v-48h-170v48l30 4q8 1 8 12v153q0 17 -2 27.5t-10.5 19t-24.5 8.5q-35 0 -69 -27v-179q0 -8 2 -10.5t9 -3.5l30 -4v-48h-175v48l31 4q11 2 11 13v197
q0 11 -9 14l-37 12l7 49h112l5 -35h3q55 41 111 41q58 0 84 -39q55 39 111 39q53 0 76 -29t23 -87v-162q0 -8 2 -10t9 -3l35 -4v-48z" />
    <glyph glyph-name="n.sinf" horiz-adv-x="433" 
d="M428 -147h-183v48l33 4q11 1 11 13v143q0 35 -9 49t-35 14q-39 0 -76 -27v-179q0 -8 2 -10t9 -3l31 -4v-48h-176v48l31 4q11 2 11 13v197q0 11 -9 14l-36 12l7 49h111l5 -35h3q61 41 120 41q104 0 104 -116v-162v-6t1 -3.5t3 -2l6 -1.5l36 -4v-48z" />
    <glyph glyph-name="o.sinf" horiz-adv-x="401" 
d="M209 -155q-89 0 -131 46t-42 128q0 83 46 130t135 47q87 0 127.5 -45.5t40.5 -123.5q0 -86 -43.5 -134t-132.5 -48zM210 -89q79 0 79 111q0 110 -75 110q-82 0 -82 -110q0 -59 19 -85t59 -26z" />
    <glyph glyph-name="p.sinf" horiz-adv-x="422" 
d="M245 -285h-209v49l27 4q12 3 12 13v334q0 11 -9 14l-36 12l7 49h111l7 -34l2 -1q54 41 117 41q129 0 129 -165q0 -71 -33.5 -128t-105.5 -57q-55 0 -98 33v-97q0 -8 2 -10.5t9 -2.5l68 -5v-49zM167 98v-156q36 -28 71 -28q69 0 69 112q0 98 -65 98q-40 0 -75 -26z" />
    <glyph glyph-name="q.sinf" horiz-adv-x="409" 
d="M411 -285h-196v49l56 5q14 0 14 12v107q-52 -43 -112 -43q-134 0 -134 167q0 92 41 138t103 46q54 0 99 -36l10 30h81q-6 -74 -6 -102v-307q0 -7 1.5 -9t9.5 -4l33 -4v-49zM276 -49v146q-42 30 -69 30q-72 0 -72 -109q0 -54 14.5 -78t48.5 -24q41 0 78 35z" />
    <glyph glyph-name="r.sinf" horiz-adv-x="323" 
d="M246 -147h-211v49l31 4q11 1 11 13v196q0 11 -9 14l-37 12l7 49h112l9 -51h2q40 57 97 57q39 0 57 -6v-114l-73 3l-7 36q-1 8 -9 8q-25 0 -57 -27v-177q0 -8 2 -10t10 -3l65 -5v-48z" />
    <glyph glyph-name="s.sinf" horiz-adv-x="335" 
d="M309 88l-65 3l-6 34q-1 7 -7 9q-18 6 -45 6t-43 -10t-16 -27q0 -18 17 -26.5t52 -16.5q7 -1 10 -2q25 -6 41 -11.5t35 -16.5t28.5 -30t9.5 -45q0 -56 -41.5 -83t-107.5 -27q-42 0 -81 8t-50 15v90l65 -4l7 -36q2 -9 8 -11q27 -6 56 -6q60 0 60 37q0 15 -12.5 24.5
t-24.5 13t-40 8.5q-26 5 -41 10t-35 16t-29.5 30t-9.5 47q0 55 41.5 82t104.5 27q68 0 119 -18v-90z" />
    <glyph glyph-name="t.sinf" horiz-adv-x="301" 
d="M274 -76l17 -54q-54 -25 -106 -25q-57 0 -82 24t-25 77v177q0 6 -5 6h-48v54q42 4 61.5 28t26.5 74h58v-89q0 -6 5 -6h96v-61h-101v-162q0 -30 9.5 -41.5t36.5 -11.5q23 0 57 10z" />
    <glyph glyph-name="u.sinf" horiz-adv-x="433" 
d="M421 -147h-118l-6 37l-2 1q-64 -46 -120 -46q-55 0 -78.5 28.5t-23.5 86.5v160q0 6 -0.5 8t-2.5 3.5t-7 2.5l-33 6l7 50h129v-213q0 -35 8 -49t32 -14q33 0 79 39v167q0 12 -11 14l-27 6l6 50h124v-272q0 -11 10 -12l34 -5v-48z" />
    <glyph glyph-name="v.sinf" horiz-adv-x="423" 
d="M276 -147h-107l-109 271q-2 8 -14 11l-28 6l9 49h173v-49l-44 -5l74 -203h4l79 203l-45 5l8 49h150v-49l-23 -4q-14 -3 -18 -11z" />
    <glyph glyph-name="w.sinf" horiz-adv-x="597" 
d="M473 -147h-99l-56 231h-3l-56 -231h-112l-88 271q-3 8 -14 11l-29 6l10 49h163v-50l-38 -4l59 -194h3l62 239h97l58 -238h4l56 193l-40 4l8 50h141v-49l-24 -5q-13 -1 -17 -13z" />
    <glyph glyph-name="x.sinf" horiz-adv-x="413" 
d="M411 -147h-182v47l32 6l-57 69l-59 -69l36 -6v-47h-157v47l29 6q10 1 20 11l90 99l-92 107q-6 7 -16 11l-28 7l7 49h170v-49l-35 -5l55 -66l59 66l-36 5l7 49h144v-49l-31 -6l-17 -12l-84 -93l95 -112q9 -11 18 -12l32 -5v-48z" />
    <glyph glyph-name="y.sinf" horiz-adv-x="423" 
d="M303 -285h-216v50l52 5q10 1 16 14l32 67l-128 273q-2 8 -14 11l-27 6l9 49h170v-49l-43 -5l79 -182h3l77 182l-44 5l8 49h148v-49l-22 -4q-13 -1 -17 -11l-152 -355l69 -7v-49z" />
    <glyph glyph-name="z.sinf" horiz-adv-x="355" 
d="M341 -147h-301v50l186 229h-103q-6 0 -8 -8l-8 -37l-66 -4v107h290v-52l-183 -228h111q5 0 7 8l8 45l67 4v-114z" />
    <glyph glyph-name="zero.num" horiz-adv-x="419" 
d="M206 273q-96 0 -134 57t-38 171t42.5 173.5t138.5 59.5t133 -56.5t37 -168.5q0 -118 -41 -177t-138 -59zM210 344q42 0 56 37t14 124t-13 121.5t-55 34.5t-57 -36t-15 -122q0 -87 13.5 -123t56.5 -36z" />
    <glyph glyph-name="one.num" horiz-adv-x="271" 
d="M259 281h-242v52l61 7q10 1 10 14v289q0 11 -9 14l-58 12l7 55h164v-371q0 -8 1.5 -10t9.5 -4l56 -5v-53z" />
    <glyph glyph-name="two.num" horiz-adv-x="374" 
d="M349 281h-322v59l130 152q44 52 59 76t15 49q0 46 -56 46q-29 0 -42 -13.5t-13 -47.5l-91 9q0 123 154 123q148 0 148 -110q0 -38 -18 -71t-54 -75l-114 -134h116q5 0 9 8l9 51h70v-122z" />
    <glyph glyph-name="three.num" horiz-adv-x="379" 
d="M260 517v-3q88 -19 88 -107q0 -63 -47 -98.5t-123 -35.5q-106 0 -163 59l52 61q47 -45 104 -45q74 0 74 65q0 62 -74 62q-17 0 -47 -5v68l34 3q38 4 58.5 20t20.5 51q0 50 -55 50q-30 0 -43.5 -13.5t-13.5 -44.5l-91 10q0 120 154 120q150 0 150 -112q0 -40 -21.5 -67.5
t-56.5 -37.5z" />
    <glyph glyph-name="four.num" horiz-adv-x="404" 
d="M319 281h-96v82h-198v70l173 289h121v-281h55v-78h-55v-82zM223 441v183l-109 -183h109z" />
    <glyph glyph-name="five.num" horiz-adv-x="379" 
d="M319 640h-179l-10 -104q37 25 87 25q60 0 95 -34t35 -98q0 -69 -44 -112.5t-128 -43.5q-106 0 -165 59l52 60q47 -43 104 -43q77 0 77 74q0 66 -59 66q-38 0 -66 -30l-69 28l15 236h255v-83z" />
    <glyph glyph-name="six.num" horiz-adv-x="400" 
d="M363 626l-98 -12q0 29 -9.5 40t-34.5 11q-75 0 -77 -137q41 28 94 28q60 0 96 -34t36 -96q0 -74 -46.5 -113.5t-120.5 -39.5q-165 0 -165 224q0 34 5 65t18 63t33 55.5t54 38.5t78 15q137 0 137 -108zM144 460q1 -55 13.5 -85t50.5 -30q29 0 43 21.5t14 52.5
q0 35 -12.5 50t-42.5 15q-38 0 -66 -24z" />
    <glyph glyph-name="seven.num" horiz-adv-x="362" 
d="M207 281h-110q11 118 57 214.5t93 144.5h-136q-8 0 -8 -8l-9 -50l-67 -5v146h328v-74q-60 -61 -102.5 -165.5t-45.5 -202.5z" />
    <glyph glyph-name="eight.num" horiz-adv-x="375" 
d="M277 515q72 -42 72 -112q0 -62 -46.5 -96t-120.5 -34q-73 0 -114.5 31t-41.5 86q0 67 70 122q-54 42 -54 95q0 60 41 93.5t107 33.5q68 0 105.5 -30t37.5 -79q0 -59 -56 -110zM160 476q-48 -40 -48 -80q0 -25 18 -41t52 -16q32 0 49.5 16t17.5 39q0 14 -6 25.5t-23 23
t-25 15.5t-35 18zM208 545q40 39 40 77q0 22 -15 34t-40 12q-26 0 -41 -13.5t-15 -34.5q0 -23 17.5 -39t53.5 -36z" />
    <glyph glyph-name="nine.num" horiz-adv-x="401" 
d="M41 321l42 60q46 -35 96 -35q44 0 61 31.5t19 85.5q-42 -26 -88 -26q-64 0 -101.5 37.5t-37.5 103.5q0 74 43 115t118 41q171 0 171 -219q0 -242 -180 -242q-90 0 -143 48zM258 531v32q-5 98 -66 98q-56 0 -56 -73q0 -80 59 -80q36 0 63 23z" />
    <glyph glyph-name="parenleft.ordn" horiz-adv-x="252" 
d="M237 241l-77 -43q-111 138 -111 294q0 154 117 302l75 -44q-84 -124 -84 -257q0 -75 20 -130.5t60 -121.5z" />
    <glyph glyph-name="parenright.ordn" horiz-adv-x="252" 
d="M87 198l-76 44q83 119 83 256q0 74 -19.5 131.5t-60.5 120.5l76 44q49 -59 80.5 -136.5t31.5 -159.5q0 -154 -115 -300z" />
    <glyph glyph-name="hyphen.ordn" horiz-adv-x="223" 
d="M203 427h-183v84h183v-84z" />
    <glyph glyph-name="comma.ordn" horiz-adv-x="139" 
d="M76 204l-46 13l19 70q0 6 -5 8l-27 9l15 72q47 -1 71 -10.5t24 -40.5q0 -21 -14 -47z" />
    <glyph glyph-name="period.ordn" horiz-adv-x="157" 
d="M137 325q0 -52 -58 -52q-59 0 -59 52q0 51 59 51q58 0 58 -51z" />
    <glyph glyph-name="minus.ordn" horiz-adv-x="322" 
d="M292 466h-262v75h262v-75z" />
    <glyph glyph-name="plus.ordn" horiz-adv-x="322" 
d="M202 372h-82v94h-90v75h90v91h82v-91h90v-75h-90v-94z" />
    <glyph glyph-name="equal.ordn" horiz-adv-x="321" 
d="M291 378h-261v77h261v-77zM291 504h-261v76h261v-76z" />
    <glyph glyph-name="a.ordn" horiz-adv-x="384" 
d="M380 281h-117l-7 36h-3q-51 -44 -115 -44q-98 0 -98 93q0 49 31 73.5t94 29.5l81 6v33q0 30 -10 43t-42 13q-28 0 -40.5 -8t-13.5 -36l-86 7q0 97 142 97q77 0 108.5 -25.5t31.5 -91.5v-160q0 -8 2 -10t9 -3l33 -5v-48zM246 367v58l-54 -5q-33 -3 -45.5 -13.5
t-12.5 -33.5q0 -35 36 -35q40 0 76 29z" />
    <glyph glyph-name="b.ordn" horiz-adv-x="417" 
d="M148 281h-87q9 63 9 94v321q0 10 -9 14l-38 12l8 48h130v-180q54 34 109 34q59 0 93.5 -40t34.5 -125q0 -186 -144 -186q-60 0 -98 40l-3 -1zM162 528v-152q33 -33 73 -33q67 0 67 111q0 46 -16.5 73t-49.5 27q-35 0 -74 -26z" />
    <glyph glyph-name="c.ordn" horiz-adv-x="349" 
d="M311 360l22 -56q-50 -31 -125 -31q-86 0 -129 47t-43 125q0 88 49.5 133.5t132.5 45.5q74 0 117 -26v-98l-66 3l-8 43q-2 8 -8 10q-13 5 -37 5q-38 0 -61 -26t-23 -82q0 -112 93 -112q44 0 86 19z" />
    <glyph glyph-name="d.ordn" horiz-adv-x="418" 
d="M410 281h-118l-7 40l-4 1q-47 -49 -113 -49q-130 0 -130 168q0 92 40.5 137.5t102.5 45.5q52 0 97 -31v103q0 10 -9 14l-38 12l8 48h127v-424q0 -7 1.5 -9t9.5 -4l33 -4v-48zM275 383v145q-35 27 -68 27q-73 0 -73 -109q0 -54 14 -78t46 -24q38 0 81 39z" />
    <glyph glyph-name="e.ordn" horiz-adv-x="363" 
d="M319 365l22 -60q-67 -32 -134 -32q-171 0 -171 178q0 85 46 129t118 44q147 0 147 -157q0 -9 -2 -35h-212q3 -90 85 -90q38 0 101 23zM133 486h123q0 75 -58 75q-59 0 -65 -75z" />
    <glyph glyph-name="f.ordn" horiz-adv-x="300" 
d="M271 281h-235v48l39 4q11 2 11 14v204q0 6 -6 6h-46v61h52v38q0 121 139 121q54 0 85 -18.5t31 -70.5l-85 -9q0 24 -8 32t-27 8q-25 0 -34 -13.5t-9 -39.5v-42q0 -6 5 -6h108v-61h-113v-209q0 -8 2 -10t10 -3l81 -6v-48z" />
    <glyph glyph-name="g.ordn" horiz-adv-x="405" 
d="M205 136q-72 0 -131 25l19 62q47 -19 95 -19q56 0 73.5 20t17.5 73v31q-54 -43 -107 -43q-135 0 -135 162q0 91 41.5 134t102.5 43q56 0 99 -36l10 30h81q-6 -51 -6 -104v-210q0 -97 -41.5 -132.5t-118.5 -35.5zM274 395v133q-36 27 -70 27q-71 0 -71 -104
q0 -52 14 -73.5t47 -21.5q39 0 80 39z" />
    <glyph glyph-name="h.ordn" horiz-adv-x="433" 
d="M428 281h-181v48l31 4q11 1 11 13v143q0 29 -8.5 46.5t-35.5 17.5q-36 0 -76 -28v-179q0 -7 1.5 -9t9.5 -4l31 -4v-48h-176v48l31 4q11 2 11 13v350q0 11 -9 14l-37 12l7 48h131v-185q55 38 116 38q48 0 72.5 -30t24.5 -85v-162v-6t1 -3.5t3 -2l6 -1.5l36 -4v-48z" />
    <glyph glyph-name="i.ordn" horiz-adv-x="221" 
d="M172 728q0 -26 -15 -40.5t-43 -14.5q-26 0 -41.5 15t-15.5 40q0 26 15 40t42 14q58 0 58 -54zM217 281h-188v48l37 4q11 2 11 13v197q0 11 -9 14l-37 12l7 49h131v-272q0 -7 1.5 -9t9.5 -4l37 -4v-48z" />
    <glyph glyph-name="j.ordn" horiz-adv-x="215" 
d="M75 261v282q0 12 -8 14l-40 12l8 49h133v-373q0 -109 -113 -109q-68 0 -108 32l27 51q29 -17 60 -17q23 0 32 12.5t9 46.5zM171 728q0 -26 -15 -40.5t-42 -14.5t-42 14.5t-15 40.5q0 54 57 54t57 -54z" />
    <glyph glyph-name="k.ordn" horiz-adv-x="424" 
d="M424 281h-181v48l32 4l-64 115l-42 -43v-59q0 -7 1.5 -9t9.5 -4l35 -4v-48h-184v48l35 4q11 2 11 13v350q0 10 -9 14l-37 12l7 48h131v-284l129 132h88v-49l-35 -5q-9 -2 -17 -10l-51 -53l90 -157q5 -8 20 -11l31 -5v-47z" />
    <glyph glyph-name="l.ordn" horiz-adv-x="221" 
d="M216 281h-185v48l35 4q11 2 11 13v350q0 10 -9 14l-37 12l7 48h131v-424q0 -7 1.5 -9t9.5 -4l36 -4v-48z" />
    <glyph glyph-name="m.ordn" horiz-adv-x="615" 
d="M609 281h-177v48l29 4q10 1 10 12v151q0 57 -40 57q-34 0 -67 -22q3 -15 3 -37v-148q0 -8 1.5 -10t9.5 -3l29 -4v-48h-170v48l30 4q8 1 8 12v153q0 17 -2 27.5t-10.5 19t-24.5 8.5q-35 0 -69 -27v-179q0 -8 2 -10.5t9 -3.5l30 -4v-48h-175v48l31 4q11 2 11 13v197
q0 11 -9 14l-37 12l7 49h112l5 -35h3q55 41 111 41q58 0 84 -39q55 39 111 39q53 0 76 -29t23 -87v-162q0 -8 2 -10t9 -3l35 -4v-48z" />
    <glyph glyph-name="n.ordn" horiz-adv-x="433" 
d="M428 281h-183v48l33 4q11 1 11 13v143q0 35 -9 49t-35 14q-39 0 -76 -27v-179q0 -8 2 -10t9 -3l31 -4v-48h-176v48l31 4q11 2 11 13v197q0 11 -9 14l-36 12l7 49h111l5 -35h3q61 41 120 41q104 0 104 -116v-162v-6t1 -3.5t3 -2l6 -1.5l36 -4v-48z" />
    <glyph glyph-name="o.ordn" horiz-adv-x="401" 
d="M209 273q-89 0 -131 46t-42 128q0 83 46 130t135 47q87 0 127.5 -45.5t40.5 -123.5q0 -86 -43.5 -134t-132.5 -48zM210 339q79 0 79 111q0 110 -75 110q-82 0 -82 -110q0 -59 19 -85t59 -26z" />
    <glyph glyph-name="p.ordn" horiz-adv-x="422" 
d="M245 143h-209v49l27 4q12 3 12 13v334q0 11 -9 14l-36 12l7 49h111l7 -34l2 -1q54 41 117 41q129 0 129 -165q0 -71 -33.5 -128t-105.5 -57q-55 0 -98 33v-97q0 -8 2 -10.5t9 -2.5l68 -5v-49zM167 526v-156q36 -28 71 -28q69 0 69 112q0 98 -65 98q-40 0 -75 -26z" />
    <glyph glyph-name="q.ordn" horiz-adv-x="409" 
d="M411 143h-196v49l56 5q14 0 14 12v107q-52 -43 -112 -43q-134 0 -134 167q0 92 41 138t103 46q54 0 99 -36l10 30h81q-6 -74 -6 -102v-307q0 -7 1.5 -9t9.5 -4l33 -4v-49zM276 379v146q-42 30 -69 30q-72 0 -72 -109q0 -54 14.5 -78t48.5 -24q41 0 78 35z" />
    <glyph glyph-name="r.ordn" horiz-adv-x="323" 
d="M246 281h-211v49l31 4q11 1 11 13v196q0 11 -9 14l-37 12l7 49h112l9 -51h2q40 57 97 57q39 0 57 -6v-114l-73 3l-7 36q-1 8 -9 8q-25 0 -57 -27v-177q0 -8 2 -10t10 -3l65 -5v-48z" />
    <glyph glyph-name="s.ordn" horiz-adv-x="335" 
d="M309 516l-65 3l-6 34q-1 7 -7 9q-18 6 -45 6t-43 -10t-16 -27q0 -18 17 -26.5t52 -16.5q2 0 3 -0.5t3 -1t4 -0.5q25 -6 41 -11.5t35 -16.5t28.5 -30t9.5 -45q0 -56 -41.5 -83t-107.5 -27q-42 0 -81 8t-50 15v90l65 -4l7 -36q2 -9 8 -11q27 -6 56 -6q60 0 60 37
q0 15 -12.5 24.5t-24.5 13t-40 8.5q-26 5 -41 10t-35 16t-29.5 30t-9.5 47q0 55 41.5 82t104.5 27q68 0 119 -18v-90z" />
    <glyph glyph-name="t.ordn" horiz-adv-x="301" 
d="M274 352l17 -54q-54 -25 -106 -25q-57 0 -82 24t-25 77v177q0 6 -5 6h-48v54q42 4 61.5 28t26.5 74h58v-89q0 -6 5 -6h96v-61h-101v-162q0 -30 9.5 -41.5t36.5 -11.5q23 0 57 10z" />
    <glyph glyph-name="u.ordn" horiz-adv-x="433" 
d="M421 281h-118l-6 37l-2 1q-64 -46 -120 -46q-55 0 -78.5 28.5t-23.5 86.5v160q0 6 -0.5 8t-2.5 3.5t-7 2.5l-33 6l7 50h129v-213q0 -35 8 -49t32 -14q33 0 79 39v167q0 12 -11 14l-27 6l6 50h124v-272q0 -11 10 -12l34 -5v-48z" />
    <glyph glyph-name="v.ordn" horiz-adv-x="423" 
d="M276 281h-107l-109 271q-2 8 -14 11l-28 6l9 49h173v-49l-44 -5l74 -203h4l79 203l-45 5l8 49h150v-49l-23 -4q-14 -3 -18 -11z" />
    <glyph glyph-name="w.ordn" horiz-adv-x="597" 
d="M473 281h-99l-56 231h-3l-56 -231h-112l-88 271q-3 8 -14 11l-29 6l10 49h163v-50l-38 -4l59 -194h3l62 239h97l58 -238h4l56 193l-40 4l8 50h141v-49l-24 -5q-13 -1 -17 -13z" />
    <glyph glyph-name="x.ordn" horiz-adv-x="413" 
d="M411 281h-182v47l32 6l-57 69l-59 -69l36 -6v-47h-157v47l29 6q10 1 20 11l90 99l-92 107q-6 7 -16 11l-28 7l7 49h170v-49l-35 -5l55 -66l59 66l-36 5l7 49h144v-49l-31 -6l-17 -12l-84 -93l95 -112q9 -11 18 -12l32 -5v-48z" />
    <glyph glyph-name="y.ordn" horiz-adv-x="423" 
d="M303 143h-216v50l52 5q10 1 16 14l32 67l-128 273q-2 8 -14 11l-27 6l9 49h170v-49l-43 -5l79 -182h3l77 182l-44 5l8 49h148v-49l-22 -4q-13 -1 -17 -11l-152 -355l69 -7v-49z" />
    <glyph glyph-name="z.ordn" horiz-adv-x="355" 
d="M341 281h-301v50l186 229h-103q-6 0 -8 -8l-8 -37l-66 -4v107h290v-52l-183 -228h111q5 0 7 8l8 45l67 4v-114z" />
    <glyph glyph-name="zero.denom" horiz-adv-x="419" 
d="M206 -8q-96 0 -134 57t-38 171t42.5 173.5t138.5 59.5t133 -56.5t37 -168.5q0 -118 -41 -177t-138 -59zM210 63q42 0 56 37t14 124t-13 121.5t-55 34.5t-57 -36t-15 -122q0 -87 13.5 -123t56.5 -36z" />
    <glyph glyph-name="one.denom" horiz-adv-x="271" 
d="M259 0h-242v52l61 7q10 1 10 14v289q0 11 -9 14l-58 12l7 55h164v-371q0 -8 1.5 -10t9.5 -4l56 -5v-53z" />
    <glyph glyph-name="two.denom" horiz-adv-x="374" 
d="M349 0h-322v59l130 152q44 52 59 76t15 49q0 46 -56 46q-29 0 -42 -13.5t-13 -47.5l-91 9q0 123 154 123q148 0 148 -110q0 -38 -18 -71t-54 -75l-114 -134h116q5 0 9 8l9 51h70v-122z" />
    <glyph glyph-name="three.denom" horiz-adv-x="379" 
d="M260 236v-3q88 -19 88 -107q0 -63 -47 -98.5t-123 -35.5q-106 0 -163 59l52 61q47 -45 104 -45q74 0 74 65q0 62 -74 62q-17 0 -47 -5v68l34 3q38 4 58.5 20t20.5 51q0 50 -55 50q-30 0 -43.5 -13.5t-13.5 -44.5l-91 10q0 120 154 120q150 0 150 -112q0 -40 -21.5 -67.5
t-56.5 -37.5z" />
    <glyph glyph-name="four.denom" horiz-adv-x="404" 
d="M319 0h-96v82h-198v70l173 289h121v-281h55v-78h-55v-82zM223 160v183l-109 -183h109z" />
    <glyph glyph-name="five.denom" horiz-adv-x="379" 
d="M319 359h-179l-10 -104q38 25 87 25q60 0 95 -34t35 -98q0 -69 -44 -112.5t-128 -43.5q-106 0 -165 59l52 60q47 -43 104 -43q77 0 77 74q0 66 -59 66q-38 0 -66 -30l-69 28l15 236h255v-83z" />
    <glyph glyph-name="six.denom" horiz-adv-x="400" 
d="M363 345l-98 -12q0 29 -9.5 40t-34.5 11q-75 0 -77 -137q41 28 94 28q60 0 96 -34t36 -96q0 -74 -46.5 -113.5t-120.5 -39.5q-165 0 -165 224q0 34 5 65t18 63t33 55.5t54 38.5t78 15q137 0 137 -108zM144 179q1 -55 13.5 -85t50.5 -30q29 0 43 21.5t14 52.5
q0 35 -12.5 50t-42.5 15q-38 0 -66 -24z" />
    <glyph glyph-name="seven.denom" horiz-adv-x="362" 
d="M207 0h-110q11 118 57 214.5t93 144.5h-136q-8 0 -8 -8l-9 -50l-67 -5v146h328v-74q-60 -61 -102.5 -165.5t-45.5 -202.5z" />
    <glyph glyph-name="eight.denom" horiz-adv-x="375" 
d="M277 234q72 -42 72 -112q0 -62 -46.5 -96t-120.5 -34q-73 0 -114.5 31t-41.5 86q0 67 70 122q-54 42 -54 95q0 60 41 93.5t107 33.5q68 0 105.5 -30t37.5 -79q0 -59 -56 -110zM160 195q-48 -40 -48 -80q0 -25 18 -41t52 -16q32 0 49.5 16t17.5 39q0 14 -6 25.5t-23 23
t-25 15.5t-35 18zM208 264q40 39 40 77q0 21 -15 33.5t-40 12.5q-26 0 -41 -13.5t-15 -34.5q0 -23 17.5 -39t53.5 -36z" />
    <glyph glyph-name="nine.denom" horiz-adv-x="401" 
d="M41 40l42 60q46 -35 96 -35q44 0 61 31.5t19 85.5q-42 -26 -88 -26q-64 0 -101.5 37.5t-37.5 103.5q0 74 43 115t118 41q171 0 171 -219q0 -242 -180 -242q-90 0 -143 48zM258 250v32q-5 98 -66 98q-56 0 -56 -73q0 -80 59 -80q36 0 63 23z" />
    <glyph glyph-name="onefifth" horiz-adv-x="925" 
d="M295 281h-242v52l61 7q10 1 10 14v289q0 11 -9 14l-58 12l7 55h164v-371q0 -8 1.5 -10t9.5 -4l56 -5v-53zM318 -17h-106l358 741h105zM844 359h-179l-10 -104q37 25 87 25q60 0 95 -34t35 -98q0 -69 -44 -112.5t-128 -43.5q-106 0 -165 59l52 60q47 -43 104 -43
q77 0 77 74q0 66 -59 66q-38 0 -66 -30l-69 28l15 236h255v-83z" />
    <glyph glyph-name="twofifths" horiz-adv-x="925" 
d="M359 281h-322v59l130 152q44 52 59 76t15 49q0 46 -56 46q-29 0 -42 -13.5t-13 -47.5l-91 9q0 123 154 123q148 0 148 -110q0 -38 -18 -71t-54 -75l-114 -134h116q5 0 9 8l9 51h70v-122zM345 -17h-106l358 741h105zM860 359h-179l-10 -104q37 25 87 25q60 0 95 -34
t35 -98q0 -69 -44 -112.5t-128 -43.5q-106 0 -165 59l52 60q47 -43 104 -43q77 0 77 74q0 66 -59 66q-38 0 -66 -30l-69 28l15 236h255v-83z" />
    <glyph glyph-name="threefifths" horiz-adv-x="925" 
d="M284 517v-3q88 -19 88 -107q0 -63 -47 -98.5t-123 -35.5q-106 0 -163 59l52 61q47 -45 104 -45q74 0 74 65q0 62 -74 62q-17 0 -47 -5v68l34 3q38 4 58.5 20t20.5 51q0 50 -55 50q-30 0 -43.5 -13.5t-13.5 -44.5l-91 10q0 120 154 120q150 0 150 -112q0 -40 -21.5 -67.5
t-56.5 -37.5zM338 -17h-106l358 741h105zM858 359h-179l-10 -104q37 25 87 25q60 0 95 -34t35 -98q0 -69 -44 -112.5t-128 -43.5q-106 0 -165 59l52 60q47 -43 104 -43q77 0 77 74q0 66 -59 66q-38 0 -66 -30l-69 28l15 236h255v-83z" />
    <glyph glyph-name="fourfifths" horiz-adv-x="925" 
d="M332 281h-96v82h-198v70l173 289h121v-281h55v-78h-55v-82zM236 441v183l-109 -183h109zM349 -17h-106l358 741h105zM858 359h-179l-10 -104q37 25 87 25q60 0 95 -34t35 -98q0 -69 -44 -112.5t-128 -43.5q-106 0 -165 59l52 60q47 -43 104 -43q77 0 77 74q0 66 -59 66
q-38 0 -66 -30l-69 28l15 236h255v-83z" />
    <glyph glyph-name="onesixth" horiz-adv-x="925" 
d="M287 281h-242v52l61 7q10 1 10 14v289q0 11 -9 14l-58 12l7 55h164v-371q0 -8 1.5 -10t9.5 -4l56 -5v-53zM322 -17h-106l358 741h105zM873 345l-98 -12q0 29 -9.5 40t-34.5 11q-75 0 -77 -137q41 28 94 28q60 0 96 -34t36 -96q0 -74 -46.5 -113.5t-120.5 -39.5
q-165 0 -165 224q0 34 5 65t18 63t33 55.5t54 38.5t78 15q137 0 137 -108zM654 179q1 -55 13.5 -85t50.5 -30q29 0 43 21.5t14 52.5q0 35 -12.5 50t-42.5 15q-38 0 -66 -24z" />
    <glyph glyph-name="fivesixths" horiz-adv-x="925" 
d="M348 640h-179l-10 -104q37 25 87 25q60 0 95 -34t35 -98q0 -69 -44 -112.5t-128 -43.5q-106 0 -165 59l52 60q47 -43 104 -43q77 0 77 74q0 66 -59 66q-38 0 -66 -30l-69 28l15 236h255v-83zM341 -17h-106l358 741h105zM878 345l-98 -12q0 29 -9.5 40t-34.5 11
q-75 0 -77 -137q41 28 94 28q60 0 96 -34t36 -96q0 -74 -46.5 -113.5t-120.5 -39.5q-165 0 -165 224q0 34 5 65t18 63t33 55.5t54 38.5t78 15q137 0 137 -108zM659 179q1 -55 13.5 -85t50.5 -30q29 0 43 21.5t14 52.5q0 35 -12.5 50t-42.5 15q-38 0 -66 -24z" />
    <glyph glyph-name="oneseventh" horiz-adv-x="925" 
d="M289 281h-242v52l61 7q10 1 10 14v289q0 11 -9 14l-58 12l7 55h164v-371q0 -8 1.5 -10t9.5 -4l56 -5v-53zM285 -17h-106l358 741h105zM729 0h-110q11 118 57 214.5t93 144.5h-136q-8 0 -8 -8l-9 -50l-67 -5v146h328v-74q-60 -61 -102.5 -165.5t-45.5 -202.5z" />
    <glyph glyph-name="twosevenths" horiz-adv-x="925" 
d="M346 281h-322v59l130 152q44 52 59 76t15 49q0 46 -56 46q-29 0 -42 -13.5t-13 -47.5l-91 9q0 123 154 123q148 0 148 -110q0 -38 -18 -71t-54 -75l-114 -134h116q5 0 9 8l9 51h70v-122zM331 -17h-106l358 741h105zM753 0h-110q11 118 57 214.5t93 144.5h-136q-8 0 -8 -8
l-9 -50l-67 -5v146h328v-74q-60 -61 -102.5 -165.5t-45.5 -202.5z" />
    <glyph glyph-name="threesevenths" horiz-adv-x="925" 
d="M273 517v-3q88 -19 88 -107q0 -63 -47 -98.5t-123 -35.5q-106 0 -163 59l52 61q47 -45 104 -45q74 0 74 65q0 62 -74 62q-17 0 -47 -5v68l34 3q38 4 58.5 20t20.5 51q0 50 -55 50q-30 0 -43.5 -13.5t-13.5 -44.5l-91 10q0 120 154 120q150 0 150 -112q0 -40 -21.5 -67.5
t-56.5 -37.5zM321 -17h-106l358 741h105zM748 0h-110q11 118 57 214.5t93 144.5h-136q-8 0 -8 -8l-9 -50l-67 -5v146h328v-74q-60 -61 -102.5 -165.5t-45.5 -202.5z" />
    <glyph glyph-name="foursevenths" horiz-adv-x="925" 
d="M320 281h-96v82h-198v70l173 289h121v-281h55v-78h-55v-82zM224 441v183l-109 -183h109zM322 -17h-106l358 741h105zM751 0h-110q11 118 57 214.5t93 144.5h-136q-8 0 -8 -8l-9 -50l-67 -5v146h328v-74q-60 -61 -102.5 -165.5t-45.5 -202.5z" />
    <glyph glyph-name="fivesevenths" horiz-adv-x="925" 
d="M338 640h-179l-10 -104q37 25 87 25q60 0 95 -34t35 -98q0 -69 -44 -112.5t-128 -43.5q-106 0 -165 59l52 60q47 -43 104 -43q77 0 77 74q0 66 -59 66q-38 0 -66 -30l-69 28l15 236h255v-83zM320 -17h-106l358 741h105zM747 0h-110q11 118 57 214.5t93 144.5h-136
q-8 0 -8 -8l-9 -50l-67 -5v146h328v-74q-60 -61 -102.5 -165.5t-45.5 -202.5z" />
    <glyph glyph-name="sixsevenths" horiz-adv-x="925" 
d="M357 626l-98 -12q0 29 -9.5 40t-34.5 11q-75 0 -77 -137q41 28 94 28q60 0 96 -34t36 -96q0 -74 -46.5 -113.5t-120.5 -39.5q-165 0 -165 224q0 34 5 65t18 63t33 55.5t54 38.5t78 15q137 0 137 -108zM138 460q1 -55 13.5 -85t50.5 -30q29 0 43 21.5t14 52.5
q0 35 -12.5 50t-42.5 15q-38 0 -66 -24zM319 -17h-106l358 741h105zM744 0h-110q11 118 57 214.5t93 144.5h-136q-8 0 -8 -8l-9 -50l-67 -5v146h328v-74q-60 -61 -102.5 -165.5t-45.5 -202.5z" />
    <glyph glyph-name="oneninth" horiz-adv-x="925" 
d="M293 281h-242v52l61 7q10 1 10 14v289q0 11 -9 14l-58 12l7 55h164v-371q0 -8 1.5 -10t9.5 -4l56 -5v-53zM308 -17h-106l358 741h105zM550 40l42 60q46 -35 96 -35q44 0 61 31.5t19 85.5q-42 -26 -88 -26q-64 0 -101.5 37.5t-37.5 103.5q0 74 43 115t118 41
q171 0 171 -219q0 -242 -180 -242q-90 0 -143 48zM767 250v32q-5 98 -66 98q-56 0 -56 -73q0 -80 59 -80q36 0 63 23z" />
    <glyph glyph-name="twoninths" horiz-adv-x="925" 
d="M356 281h-322v59l130 152q44 52 59 76t15 49q0 46 -56 46q-29 0 -42 -13.5t-13 -47.5l-91 9q0 123 154 123q148 0 148 -110q0 -38 -18 -71t-54 -75l-114 -134h116q5 0 9 8l9 51h70v-122zM341 -17h-106l358 741h105zM567 40l42 60q46 -35 96 -35q44 0 61 31.5t19 85.5
q-42 -26 -88 -26q-64 0 -101.5 37.5t-37.5 103.5q0 74 43 115t118 41q171 0 171 -219q0 -242 -180 -242q-90 0 -143 48zM784 250v32q-5 98 -66 98q-56 0 -56 -73q0 -80 59 -80q36 0 63 23z" />
    <glyph glyph-name="fourninths" horiz-adv-x="925" 
d="M328 281h-96v82h-198v70l173 289h121v-281h55v-78h-55v-82zM232 441v183l-109 -183h109zM336 -17h-106l358 741h105zM568 40l42 60q46 -35 96 -35q44 0 61 31.5t19 85.5q-42 -26 -88 -26q-64 0 -101.5 37.5t-37.5 103.5q0 74 43 115t118 41q171 0 171 -219
q0 -242 -180 -242q-90 0 -143 48zM785 250v32q-5 98 -66 98q-56 0 -56 -73q0 -80 59 -80q36 0 63 23z" />
    <glyph glyph-name="fiveninths" horiz-adv-x="925" 
d="M342 640h-179l-10 -104q37 25 87 25q60 0 95 -34t35 -98q0 -69 -44 -112.5t-128 -43.5q-106 0 -165 59l52 60q47 -43 104 -43q77 0 77 74q0 66 -59 66q-38 0 -66 -30l-69 28l15 236h255v-83zM333 -17h-106l358 741h105zM568 40l42 60q46 -35 96 -35q44 0 61 31.5t19 85.5
q-42 -26 -88 -26q-64 0 -101.5 37.5t-37.5 103.5q0 74 43 115t118 41q171 0 171 -219q0 -242 -180 -242q-90 0 -143 48zM785 250v32q-5 98 -66 98q-56 0 -56 -73q0 -80 59 -80q36 0 63 23z" />
    <glyph glyph-name="sevenninths" horiz-adv-x="925" 
d="M234 281h-110q11 118 57 214.5t93 144.5h-136q-8 0 -8 -8l-9 -50l-67 -5v146h328v-74q-60 -61 -102.5 -165.5t-45.5 -202.5zM283 -17h-106l358 741h105zM547 40l42 60q46 -35 96 -35q44 0 61 31.5t19 85.5q-42 -26 -88 -26q-64 0 -101.5 37.5t-37.5 103.5q0 74 43 115
t118 41q171 0 171 -219q0 -242 -180 -242q-90 0 -143 48zM764 250v32q-5 98 -66 98q-56 0 -56 -73q0 -80 59 -80q36 0 63 23z" />
    <glyph glyph-name="eightninths" horiz-adv-x="925" 
d="M295 515q72 -42 72 -112q0 -62 -46.5 -96t-120.5 -34q-73 0 -114.5 31t-41.5 86q0 67 70 122q-54 42 -54 95q0 60 41 93.5t107 33.5q68 0 105.5 -30t37.5 -79q0 -59 -56 -110zM178 476q-48 -40 -48 -80q0 -25 18 -41t52 -16q32 0 49.5 16t17.5 39q0 14 -6 25.5t-23 23
t-25 15.5t-35 18zM226 545q40 39 40 77q0 22 -15 34t-40 12q-26 0 -41 -13.5t-15 -34.5q0 -23 17.5 -39t53.5 -36zM333 -17h-106l358 741h105zM557 40l42 60q46 -35 96 -35q44 0 61 31.5t19 85.5q-42 -26 -88 -26q-64 0 -101.5 37.5t-37.5 103.5q0 74 43 115t118 41
q171 0 171 -219q0 -242 -180 -242q-90 0 -143 48zM774 250v32q-5 98 -66 98q-56 0 -56 -73q0 -80 59 -80q36 0 63 23z" />
    <glyph glyph-name="commaaccent" horiz-adv-x="500" 
d="M253 -278l-53 17l22 91q1 8 -5 11l-36 14l21 87q58 -2 87 -15t29 -53q0 -26 -18 -60z" />
    <glyph glyph-name="revcommaaccent" horiz-adv-x="500" 
d="M318 649l-20 -85q-60 2 -88 15t-28 52q0 23 24 71l41 81l53 -16l-21 -83q-2 -7 -4 -19q8 -4 14 -5z" />
    <glyph glyph-name="tilde.cap" horiz-adv-x="500" 
d="M428 872l-23 -37q-18 -29 -32.5 -41.5t-33.5 -12.5q-17 0 -57 10q-101 28 -109 29q-9 2 -16 -5l-35 -36l-49 33l29 47q28 45 63 45q12 0 50 -9q90 -26 114 -30q7 -1 14 5l32 35z" />
    <glyph glyph-name="ring.cap" horiz-adv-x="500" 
d="M342 827q0 -41 -25.5 -66t-66.5 -25t-67 24t-26 64q0 43 26.5 67.5t66.5 24.5t66 -24t26 -65zM250 789q35 0 35 38q0 37 -35 37q-36 0 -36 -38q0 -37 36 -37z" />
    <glyph glyph-name="circumflex.cap" horiz-adv-x="500" 
d="M369 766l-119 83l-119 -83l-46 47l119 106h92l119 -106z" />
    <glyph glyph-name="acute.cap" horiz-adv-x="500" 
d="M374 863l-211 -97l-31 55l196 126z" />
    <glyph glyph-name="grave.cap" horiz-adv-x="500" 
d="M342 766l-211 96l46 84l196 -126z" />
    <glyph glyph-name="dieresis.cap" horiz-adv-x="500" 
d="M209 842q0 -28 -17 -44.5t-45 -16.5t-45.5 16.5t-17.5 44.5t17.5 44.5t45.5 16.5t45 -16.5t17 -44.5zM413 842q0 -28 -17 -44.5t-45 -16.5t-45 16.5t-17 44.5t17 44.5t45 16.5t45 -16.5t17 -44.5z" />
    <glyph glyph-name="caron.cap" horiz-adv-x="500" 
d="M415 884l-119 -106h-92l-118 106l48 47l118 -83l119 83z" />
    <glyph glyph-name="macron.cap" horiz-adv-x="500" 
d="M405 790h-311v82h311v-82z" />
    <glyph glyph-name="dotaccent.cap" horiz-adv-x="500" 
d="M325 855q0 -35 -19.5 -54.5t-55.5 -19.5q-35 0 -55 19.5t-20 54.5q0 36 19.5 55t55.5 19q75 0 75 -74z" />
    <glyph glyph-name="cedilla.cap" horiz-adv-x="500" 
d="M150 -240l7 58q14 -2 28 -2q71 0 71 52q0 43 -68 44l16 118l63 -8l-9 -67q76 -16 76 -85q0 -47 -35 -80.5t-106 -33.5q-32 0 -43 4z" />
    <glyph glyph-name="hungarumlaut.cap" horiz-adv-x="500" 
d="M311 911l-173 -145l-43 43l151 169zM495 896l-185 -131l-37 43l163 157z" />
    <glyph glyph-name="commaaccent.cap" horiz-adv-x="500" 
d="M253 -278l-53 17l22 91q1 8 -5 11l-36 14l21 87q58 -2 87 -15t29 -53q0 -26 -18 -60z" />
    <glyph glyph-name="breve.cap" horiz-adv-x="500" 
d="M347 928l63 -23q-34 -123 -162 -123q-126 0 -158 123l65 24q25 -72 95 -72t97 71z" />
    <glyph glyph-name="caron.alt" horiz-adv-x="500" 
d="M260 543l-63 18q21 69 21 109q0 35 -14 63l87 36q23 -26 23 -62q0 -24 -7 -45q-17 -55 -47 -119z" />
    <glyph glyph-name="ogonek.cap" horiz-adv-x="500" 
d="M324 -137l23 -63q-51 -24 -103 -24q-46 0 -71.5 21.5t-25.5 61.5q0 77 118 162l64 -17q-85 -72 -85 -121q0 -31 30 -31q22 0 50 11z" />
    <glyph glyph-name="zero.lf" horiz-adv-x="571" 
d="M283 -12q-73 0 -121.5 24t-74.5 72.5t-36.5 109.5t-10.5 148q0 82 12 144t40 111.5t78.5 75t122.5 25.5q58 0 100.5 -17.5t68.5 -47t42 -75t21.5 -94t5.5 -112.5q0 -87 -11 -150t-38 -113t-77 -75.5t-122 -25.5zM286 76q39 0 64.5 17.5t38 55t17 83t4.5 114.5
q0 55 -2 91.5t-9.5 72t-20 55.5t-34.5 32t-54 12q-76 0 -102.5 -65t-26.5 -204q0 -66 4.5 -110t17.5 -81.5t38.5 -55t64.5 -17.5z" />
    <glyph glyph-name="one.lf" horiz-adv-x="380" 
d="M360 0h-324v65l89 6q10 1 13 4.5t3 15.5v485q0 17 -14 21l-91 18l8 67h212v-591q0 -12 2.5 -15.5t13.5 -4.5l88 -7v-64z" />
    <glyph glyph-name="two.lf" horiz-adv-x="504" 
d="M480 0h-453v72l187 234q45 57 64.5 83.5t37.5 64t18 69.5q0 44 -22 66.5t-74 22.5q-54 0 -77 -20.5t-23 -78.5l-105 11q0 174 207 174q211 0 211 -170q0 -42 -19.5 -88.5t-41 -77t-57.5 -75.5l-168 -208h204q11 0 14 12l15 82h82v-173z" />
    <glyph glyph-name="three.lf" horiz-adv-x="516" 
d="M345 367v-4q63 -14 96.5 -57t33.5 -111q0 -94 -64 -150.5t-170 -56.5q-148 0 -230 90l65 72q70 -70 163 -70q51 0 85.5 29t34.5 87q0 119 -124 119q-33 0 -74 -7v86l53 6q132 15 132 118q0 94 -95 94q-55 0 -79.5 -20.5t-24.5 -78.5l-106 11q0 54 18.5 90t51.5 53.5
t66.5 24t75.5 6.5q207 0 207 -170q0 -59 -31.5 -101t-83.5 -60z" />
    <glyph glyph-name="four.lf" horiz-adv-x="551" 
d="M519 0h-312v65l102 6q10 1 13 4.5t3 15.5v85h-296v71l268 435h136v-421h85v-88h-86v-85q0 -10 2.5 -12.5t13.5 -4.5l71 -7v-64zM325 261v299h-4l-184 -299h188z" />
    <glyph glyph-name="five.lf" horiz-adv-x="527" 
d="M447 583h-266l-16 -197q56 43 130 43q90 0 138.5 -53.5t48.5 -153.5q0 -103 -62 -168.5t-173 -65.5q-154 0 -237 88l66 72q70 -68 164 -68q53 0 89.5 34t36.5 100q0 123 -106 123q-59 0 -117 -52l-79 34l22 363h361v-99z" />
    <glyph glyph-name="six.lf" horiz-adv-x="549" 
d="M499 539l-108 -13q0 47 -19 65.5t-62 18.5q-139 0 -143 -238q67 54 156 54t138.5 -55.5t49.5 -150.5q0 -108 -61 -170t-165 -62q-54 0 -95.5 18.5t-67.5 49.5t-42 77t-22 94.5t-6 107.5q0 51 6.5 97.5t24.5 96.5t46.5 86t76.5 59.5t111 23.5q36 0 66 -7t57.5 -24
t43 -49.5t15.5 -78.5zM171 281q5 -206 118 -206q52 0 78 37t26 99q0 64 -22 95t-73 31q-34 0 -68.5 -17t-58.5 -39z" />
    <glyph glyph-name="seven.lf" horiz-adv-x="501" 
d="M266 0h-122q16 184 84 343t139 240h-222q-11 0 -14 -12l-16 -83l-80 -6v200h459v-88q-87 -90 -155.5 -266.5t-72.5 -327.5z" />
    <glyph glyph-name="eight.lf" horiz-adv-x="514" 
d="M364 357q117 -68 117 -173q0 -91 -65.5 -143.5t-167.5 -52.5q-100 0 -159 46.5t-59 133.5q0 57 28 100t83 92q-87 60 -87 158q0 82 59 131t147 49q94 0 146 -45.5t52 -116.5q0 -83 -94 -179zM220 316q-86 -70 -86 -142q0 -47 31.5 -75.5t86.5 -28.5q51 0 81.5 30t30.5 73
q0 33 -20 59.5t-45 42t-66 35.5q-9 4 -13 6zM285 400q69 71 69 131q0 41 -27 63.5t-68 22.5q-42 0 -67.5 -25t-25.5 -64q0 -23 8.5 -41.5t28.5 -34.5t35.5 -25.5t46.5 -26.5z" />
    <glyph glyph-name="nine.lf" horiz-adv-x="553" 
d="M53 56l53 75q62 -54 141 -54q42 0 70 20t41 56t18.5 68.5t6.5 75.5q-67 -55 -148 -55q-93 0 -143.5 58.5t-50.5 160.5q0 110 59.5 173.5t165.5 63.5q55 0 97 -18.5t68 -49t42 -75.5t22 -93.5t6 -107.5q0 -366 -250 -366q-57 0 -110.5 17.5t-87.5 50.5zM382 389
q-1 35 -3 62t-9.5 59t-20 52.5t-34.5 35t-52 14.5q-53 0 -79 -38.5t-26 -100.5q0 -69 21.5 -105.5t73.5 -36.5q36 0 71.5 18t57.5 40z" />
    <glyph glyph-name="dollar.lf" horiz-adv-x="520" 
d="M307 -80h-81v80q-105 3 -189 37v149l83 -4l17 -72q3 -14 15 -19q30 -12 74 -15v223q-33 12 -52 20t-46 24.5t-41.5 34.5t-25.5 47t-11 65q0 81 48.5 128t127.5 60v75h81v-72q70 -3 158 -31v-158l-85 6l-15 73q-2 11 -5 15t-12 7q-26 7 -41 8v-219q37 -14 61.5 -26.5
t51.5 -34.5t40.5 -53.5t13.5 -73.5q0 -76 -45 -125t-122 -64v-85zM157 509q0 -59 69 -94v181q-69 -20 -69 -87zM367 174q0 57 -60 91v-179q60 23 60 88z" />
    <glyph glyph-name="Euro.lf" horiz-adv-x="563" 
d="M18 369l13 74h50q21 127 91 191t172 64q50 0 97 -11.5t72 -26.5v-155l-80 5l-14 75q-2 12 -13 17q-23 9 -62 9q-119 0 -144 -168h185l-13 -74h-178v-23q0 -26 1 -38h168l-13 -74h-149q25 -158 143 -158q42 0 61 9q11 3 13 17l14 75l80 5v-157q-24 -13 -75 -25t-103 -12
q-218 0 -254 246h-84l13 74h64v61h-55z" />
    <glyph glyph-name="cent.lf" horiz-adv-x="535" 
d="M336 184q26 2 39 7q8 2 11 15l11 63l80 4v-138q-52 -30 -141 -36v-99h-81v102q-198 26 -198 246q0 108 52.5 171.5t145.5 78.5v104h81v-101q81 -4 139 -35v-138l-79 4l-11 62q-3 12 -12 15q-15 5 -37 8v-333zM179 354q0 -131 76 -161v314q-76 -31 -76 -153z" />
    <glyph glyph-name="sterling.lf" horiz-adv-x="558" 
d="M525 0h-473l-14 72q49 35 62 72t13 125v43h-76v87h76v79q0 220 229 220q39 0 69 -6.5t57.5 -22t42.5 -47.5t15 -79l-105 -14q0 48 -20.5 66t-62.5 18q-61 0 -85.5 -33t-24.5 -114v-67h172v-87h-172v-44q0 -67 -12.5 -109t-50.5 -80h248q11 0 14 12l16 82h82v-173z" />
    <glyph glyph-name="yen.lf" horiz-adv-x="608" 
d="M527 588l-143 -230h115v-69h-132v-54h132v-69h-132v-74q0 -12 2.5 -15.5t13.5 -4.5l102 -8v-64h-348v64l97 7q10 1 13 4.5t3 16.5v74h-128v69h128v54h-128v69h109l-148 232q-11 14 -24 17l-45 11l10 64h247v-64l-69 -9l113 -194h4l116 194l-67 9l10 64h216v-64l-42 -11
q-15 -4 -25 -19z" />
    <glyph glyph-name="florin.lf" horiz-adv-x="553" 
d="M427 337h-143l-43 -248q-17 -102 -60.5 -144.5t-129.5 -42.5q-39 0 -80 12.5t-63 29.5l33 74q52 -33 106 -33q36 0 55 18t28 67l46 257q2 10 -6 10h-93l14 78h100l19 105q17 93 59 135.5t129 42.5q80 0 148 -37l-22 -135l-74 6l-1 65q0 11 -10 14q-15 6 -41 6
q-38 0 -55.5 -22.5t-25.5 -69.5l-18 -100q-1 -10 7 -10h135z" />
    <glyph glyph-name="zero.slash" 
d="M282 -12q-58 0 -101 17t-69.5 46.5t-42.5 76t-22 97t-6 117.5q0 171 56 263.5t195 92.5q58 0 100.5 -17.5t68 -46.5t41 -75t21 -94.5t5.5 -112.5q0 -87 -11 -150t-38 -113.5t-76 -75.5t-121 -25zM162 340q0 -153 28 -209l124 476q-16 2 -25 2q-75 0 -101 -64.5
t-26 -204.5zM285 74q39 0 63.5 17.5t37 56t17 83.5t4.5 115q0 153 -25 207l-125 -477q18 -2 28 -2z" />
    <glyph glyph-name="zero.tf" 
d="M282 -12q-58 0 -101 17t-69.5 46.5t-42.5 76t-22 97t-6 117.5q0 171 56 263.5t195 92.5q58 0 100.5 -17.5t68 -46.5t41 -75t21 -94.5t5.5 -112.5q0 -87 -11 -150t-38 -113.5t-76 -75.5t-121 -25zM285 74q39 0 63.5 17.5t37 56t17 83.5t4.5 115q0 56 -2 91.5t-9 71.5
t-19.5 55.5t-34 32t-53.5 12.5q-75 0 -101 -64.5t-26 -204.5q0 -67 4 -110.5t16.5 -81.5t38 -56t64.5 -18z" />
    <glyph glyph-name="one.tf" 
d="M469 0h-374v65l119 6q10 1 13 4.5t3 15.5v485q0 17 -14 21l-91 18l8 67h212v-591q0 -12 2.5 -15.5t13.5 -4.5l108 -7v-64z" />
    <glyph glyph-name="two.tf" 
d="M516 0h-453v72l187 234q45 57 64.5 83.5t37.5 64t18 69.5q0 44 -22 66.5t-74 22.5q-54 0 -77 -20.5t-23 -78.5l-105 11q0 174 207 174q211 0 211 -170q0 -42 -19.5 -88.5t-41 -77t-57.5 -75.5l-168 -208h204q11 0 14 12l15 82h82v-173z" />
    <glyph glyph-name="three.tf" 
d="M369 367v-4q63 -14 96.5 -57t33.5 -111q0 -94 -64 -150.5t-170 -56.5q-148 0 -230 90l65 72q70 -70 163 -70q51 0 85.5 29t34.5 87q0 119 -124 119q-33 0 -74 -7v86l53 6q132 15 132 118q0 94 -95 94q-55 0 -79.5 -20.5t-24.5 -78.5l-106 11q0 54 18.5 90t51.5 53.5
t66.5 24t75.5 6.5q207 0 207 -170q0 -59 -31.5 -101t-83.5 -60z" />
    <glyph glyph-name="four.tf" 
d="M535 0h-312v65l102 6q10 1 13 4.5t3 15.5v85h-296v71l268 435h136v-421h85v-88h-86v-85q0 -10 2.5 -12.5t13.5 -4.5l71 -7v-64zM341 261v299h-4l-184 -299h188z" />
    <glyph glyph-name="five.tf" 
d="M474 583h-266l-16 -197q56 43 130 43q90 0 138.5 -53.5t48.5 -153.5q0 -103 -62 -168.5t-173 -65.5q-154 0 -237 88l66 72q70 -68 164 -68q53 0 89.5 34t36.5 100q0 123 -106 123q-58 0 -117 -52l-79 34l22 363h361v-99z" />
    <glyph glyph-name="six.tf" 
d="M511 539l-108 -13q0 47 -19 65.5t-62 18.5q-139 0 -143 -238q67 54 156 54t138.5 -55.5t49.5 -150.5q0 -108 -61 -170t-165 -62q-54 0 -95.5 18.5t-67.5 49.5t-42 77t-22 94.5t-6 107.5q0 51 6.5 97.5t24.5 96.5t46.5 86t76.5 59.5t111 23.5q36 0 66 -7t57.5 -24
t43 -49.5t15.5 -78.5zM183 281q5 -206 118 -206q52 0 78 37t26 99q0 64 -22 95t-73 31q-34 0 -68.5 -17t-58.5 -39z" />
    <glyph glyph-name="seven.tf" 
d="M315 0h-122q16 185 83 343.5t138 239.5h-240q-11 0 -14 -12l-16 -83l-80 -6v200h479v-88q-87 -90 -155.5 -266.5t-72.5 -327.5z" />
    <glyph glyph-name="eight.tf" 
d="M395 357q117 -68 117 -173q0 -91 -65.5 -143.5t-167.5 -52.5q-100 0 -159 46.5t-59 133.5q0 57 28 100t83 92q-87 60 -87 158q0 82 59 131t147 49q94 0 146 -45.5t52 -116.5q0 -83 -94 -179zM251 316q-86 -70 -86 -142q0 -47 31.5 -75.5t86.5 -28.5q51 0 81.5 30t30.5 73
q0 33 -20 59.5t-45 42t-66 35.5q-9 4 -13 6zM316 400q69 71 69 131q0 41 -27 63.5t-68 22.5q-42 0 -67.5 -25t-25.5 -64q0 -23 8.5 -41.5t28.5 -34.5t35.5 -25.5t46.5 -26.5z" />
    <glyph glyph-name="nine.tf" 
d="M67 56l53 75q62 -54 141 -54q42 0 70 20t41 56t18.5 68.5t6.5 75.5q-67 -55 -148 -55q-93 0 -143.5 58.5t-50.5 160.5q0 110 59.5 173.5t165.5 63.5q55 0 97 -18.5t68 -49t42 -75.5t22 -93.5t6 -107.5q0 -366 -250 -366q-57 0 -110.5 17.5t-87.5 50.5zM396 389
q-1 35 -3 62t-9.5 59t-20 52.5t-34.5 35t-52 14.5q-53 0 -79 -38.5t-26 -100.5q0 -69 21.5 -105.5t73.5 -36.5q36 0 71.5 18t57.5 40z" />
    <glyph glyph-name="dollar.tf" 
d="M320 -80h-81v80q-105 3 -189 37v149l83 -4l17 -72q3 -14 15 -19q30 -12 74 -15v223q-33 12 -52 20t-46 24.5t-41.5 34.5t-25.5 47t-11 65q0 81 48.5 128t127.5 60v75h81v-72q70 -3 158 -31v-158l-85 6l-15 73q-2 11 -5 15t-12 7q-26 7 -41 8v-219q37 -14 61.5 -26.5
t51.5 -34.5t40.5 -53.5t13.5 -73.5q0 -76 -45 -125t-122 -64v-85zM170 509q0 -59 69 -94v181q-69 -20 -69 -87zM380 174q0 57 -60 91v-179q60 23 60 88z" />
    <glyph glyph-name="Euro.tf" 
d="M36 369l13 74h50q21 127 91 191t172 64q50 0 97 -11.5t72 -26.5v-155l-80 5l-14 75q-2 12 -13 17q-23 9 -62 9q-119 0 -144 -168h185l-13 -74h-178v-23q0 -26 1 -38h168l-13 -74h-149q25 -158 143 -158q42 0 61 9q11 3 13 17l14 75l80 5v-157q-24 -13 -75 -25t-103 -12
q-218 0 -254 246h-84l13 74h64v61h-55z" />
    <glyph glyph-name="cent.tf" 
d="M347 184q26 2 39 7q8 2 11 15l11 63l80 4v-138q-52 -30 -141 -36v-99h-81v102q-198 26 -198 246q0 108 52.5 171.5t145.5 78.5v104h81v-101q81 -4 139 -35v-138l-79 4l-11 62q-3 12 -12 15q-15 5 -37 8v-333zM190 354q0 -131 76 -161v314q-76 -31 -76 -153z" />
    <glyph glyph-name="sterling.tf" 
d="M530 0h-473l-14 72q49 35 62 72t13 125v43h-76v87h76v79q0 220 229 220q39 0 69 -6.5t57.5 -22t42.5 -47.5t15 -79l-105 -14q0 48 -20.5 66t-62.5 18q-61 0 -85.5 -33t-24.5 -114v-67h172v-87h-172v-44q0 -67 -12.5 -109t-50.5 -80h248q11 0 14 12l16 82h82v-173z" />
    <glyph glyph-name="yen.tf" 
d="M516 588l-143 -230h115v-69h-132v-54h132v-69h-132v-74q0 -12 2.5 -15.5t13.5 -4.5l102 -8v-64h-348v64l97 7q10 1 13 4.5t3 16.5v74h-128v69h128v54h-128v69h109l-148 232q-11 14 -24 17l-45 11l10 64h247v-64l-69 -9l113 -194h4l116 194l-67 9l10 64h216v-64l-42 -11
q-15 -4 -25 -19z" />
    <glyph glyph-name="florin.tf" 
d="M433 337h-143l-43 -248q-17 -102 -60.5 -144.5t-129.5 -42.5q-39 0 -80 12.5t-63 29.5l33 74q52 -33 106 -33q36 0 55 18t28 67l46 257q2 10 -6 10h-93l14 78h100l19 105q17 93 59 135.5t129 42.5q80 0 148 -37l-22 -135l-74 6l-1 65q0 11 -10 14q-15 6 -41 6
q-38 0 -55.5 -22.5t-25.5 -69.5l-18 -100q-1 -10 7 -10h135z" />
    <glyph glyph-name="zeroslash.tosf" 
d="M280 -12q-72 0 -121.5 22.5t-75.5 65t-37 93.5t-11 118q0 300 257 300q70 0 119 -21.5t75 -62.5t37 -90.5t11 -115.5q0 -69 -12 -122t-40 -96.5t-79 -67t-123 -23.5zM156 283q0 -125 37 -171l118 385q-14 2 -22 2q-72 0 -102.5 -52.5t-30.5 -163.5zM285 73q71 0 99.5 54
t28.5 164q0 121 -32 166l-117 -383q6 -1 21 -1z" />
    <glyph glyph-name="zero.tosf" 
d="M280 -12q-72 0 -121.5 22.5t-75.5 65t-37 93.5t-11 118q0 300 257 300q70 0 119 -21.5t75 -62.5t37 -90.5t11 -115.5q0 -69 -12 -122t-40 -96.5t-79 -67t-123 -23.5zM285 73q71 0 99.5 54t28.5 164q0 108 -27 158t-97 50q-72 0 -102.5 -52.5t-30.5 -163.5
q0 -106 28.5 -158t100.5 -52z" />
    <glyph glyph-name="one.tosf" 
d="M479 0h-372v65l120 6q10 1 13 4.5t3 15.5v375q0 17 -14 21l-92 18l8 67h213v-481q0 -12 2.5 -15.5t13.5 -4.5l105 -7v-64z" />
    <glyph glyph-name="two.tosf" 
d="M501 0h-437v75l134 131q13 13 38.5 38t35.5 35t28 29t24.5 29t15.5 25t12 28.5t3 27.5q0 83 -95 83q-53 0 -75.5 -20.5t-22.5 -78.5l-105 11q0 54 18 90t51 53.5t66.5 24t75.5 6.5q204 0 204 -159q0 -21 -3.5 -40t-15 -40t-18 -33t-27 -35t-26.5 -29.5t-33.5 -33
t-31.5 -30.5l-113 -108h187q12 0 14 12l14 82h82v-173z" />
    <glyph glyph-name="three.tosf" 
d="M379 267v-4q131 -21 131 -154q0 -92 -61 -142t-168 -50q-71 0 -131 23.5t-96 64.5l65 71q66 -68 156 -68q119 0 119 106q0 103 -122 103q-33 0 -72 -7v82l55 5q61 6 93 37t32 80q0 87 -94 87q-53 0 -76.5 -21t-23.5 -78l-106 11q0 174 212 174q202 0 202 -162
q0 -59 -31 -99.5t-84 -58.5z" />
    <glyph glyph-name="four.tosf" 
d="M450 -67h-106v141h-302v79l220 431l93 -46l-196 -375h185v188l107 10v-198h87v-89h-88v-141z" />
    <glyph glyph-name="five.tosf" 
d="M470 476h-268l-14 -171q56 37 125 37q90 0 142 -53t52 -151q0 -96 -62 -158.5t-173 -62.5q-154 0 -237 88l66 72q66 -68 164 -68q53 0 89.5 32t36.5 93q0 64 -33 91t-78 27q-61 0 -112 -45l-80 35l22 330h263q11 0 14 11l14 55l69 5v-167z" />
    <glyph glyph-name="six.tosf" 
d="M508 495l-108 -13q0 48 -19 66t-64 18q-40 0 -69 -19.5t-43.5 -52.5t-21 -68t-7.5 -76q76 49 156 49q89 0 138.5 -50.5t49.5 -140.5q0 -106 -62.5 -163t-168.5 -57q-54 0 -95 17.5t-66 46.5t-40.5 72.5t-21 89.5t-5.5 103q0 45 6.5 87.5t24 88.5t45.5 80t75.5 56
t108.5 22q187 0 187 -156zM179 264q5 -189 119 -189q52 0 78 34t26 93q0 58 -21.5 85t-71.5 27q-66 0 -130 -50z" />
    <glyph glyph-name="seven.tosf" 
d="M295 -67h-122q11 126 52.5 242t83 181.5t88.5 119.5h-223q-11 0 -14 -11l-17 -88l-80 -6v201h459v-84q-90 -93 -156.5 -250t-70.5 -305z" />
    <glyph glyph-name="eight.tosf" 
d="M401 337q112 -65 112 -166q0 -89 -64.5 -136t-168.5 -47t-160.5 42.5t-56.5 121.5q0 59 28 101.5t78 83.5q-82 53 -82 142q0 82 58.5 127t148.5 45q96 0 146 -41.5t50 -111.5q0 -83 -89 -161zM251 294q-81 -71 -81 -133q0 -43 29.5 -67t85.5 -24q51 0 79 25.5t28 66.5
q0 10 -2.5 20t-5 17.5t-10 15.5t-12 13.5t-15.5 13t-16 11t-19 11t-19 10t-21.5 10.5t-20.5 10zM316 377q68 61 68 119q0 73 -93 73q-42 0 -65.5 -20t-23.5 -55q0 -22 8 -39t26 -31t34 -23.5t46 -23.5z" />
    <glyph glyph-name="nine.tosf" 
d="M70 -15l52 76q68 -54 142 -54q42 0 70.5 18t42 51t18.5 64.5t6 72.5q-69 -53 -156 -53q-88 0 -138 53t-50 150q0 105 59.5 164.5t166.5 59.5q55 0 97 -17.5t67.5 -46t41.5 -71.5t22 -88.5t6 -101.5q0 -345 -250 -345q-56 0 -109.5 17.5t-87.5 50.5zM399 301
q-1 32 -3.5 55t-10 52.5t-20 48t-34.5 31.5t-52 13q-53 0 -78.5 -34.5t-25.5 -92.5q0 -63 23 -93.5t74 -30.5q62 0 127 51z" />
    <glyph glyph-name="dollar.tosf" 
d="M496 183q0 -78 -45.5 -122.5t-126.5 -56.5v-84h-81v80q-114 5 -184 37v152h76l16 -75q2 -11 6 -15.5t14 -8.5q20 -8 72 -11v193q-39 11 -63.5 21.5t-52.5 30t-41.5 50t-13.5 73.5q0 81 48 126t128 56v74h81v-72q69 -3 158 -31v-161l-85 10l-15 74q-3 17 -20 22
q-21 6 -38 7v-193q38 -12 62 -23t51 -30.5t40.5 -50.5t13.5 -72zM178 468q0 -54 70 -83v162q-70 -16 -70 -79zM390 163q0 54 -66 82v-160q66 16 66 78z" />
    <glyph glyph-name="Euro.tosf" 
d="M372 345h-178v-24q0 -25 1 -37h168l-13 -74h-146q28 -134 140 -134q42 0 61 8q11 5 13 17l14 76l80 5v-157q-24 -13 -75 -25t-103 -12q-216 0 -253 222h-85l14 74h63v61h-55l14 74h50q22 115 93 173.5t169 58.5q50 0 97 -11.5t72 -26.5v-155l-80 6l-14 74q-2 12 -13 17
q-21 8 -62 8q-114 0 -142 -144h183z" />
    <glyph glyph-name="cent.tosf" 
d="M360 117q26 2 39 7q8 2 11 15l11 63l80 4v-138q-52 -30 -141 -36v-99h-81v102q-198 26 -198 246q0 108 52.5 171.5t145.5 78.5v104h81v-101q81 -4 139 -35v-138l-79 4l-11 62q-3 12 -12 15q-15 5 -37 8v-333zM203 287q0 -131 76 -161v314q-76 -31 -76 -153z" />
    <glyph glyph-name="sterling.tosf" 
d="M525 0h-467l-14 72q50 35 62.5 73.5t12.5 132.5v12h-76v87h76v54q0 220 223 220q39 0 69 -6.5t57.5 -22t42.5 -47.5t15 -79l-105 -14q-1 44 -16.5 64t-62.5 20q-57 0 -82.5 -33t-25.5 -100v-56h166v-87h-166q0 -80 -11.5 -125.5t-51.5 -85.5h242q11 0 14 12l16 82h82
v-173z" />
    <glyph glyph-name="yen.tosf" 
d="M492 289h-132v-54h132v-69h-132v-74q0 -12 2.5 -15.5t13.5 -4.5l102 -8v-64h-348v64l97 7q10 1 13 4.5t3 15.5v75h-128v69h128v54h-128v69h85l-123 182q-8 13 -24 17l-45 11l10 64h246v-64l-68 -9l113 -178h4l115 178l-67 9l10 64h216v-64l-42 -11q-15 -4 -25 -19
l-120 -180h92v-69z" />
    <glyph glyph-name="florin.tosf" 
d="M443 302h-143l-39 -227q-17 -97 -57 -135t-127 -38q-42 0 -83.5 12.5t-63.5 29.5l34 74q49 -33 105 -33q36 0 55 18t28 67l40 222q2 10 -7 10h-92l14 78h100l18 95q18 93 59.5 134.5t127.5 41.5q80 0 148 -37l-22 -135l-73 5l-2 63q0 14 -10 17q-16 6 -41 6
q-38 0 -55.5 -22.5t-25.5 -69.5l-16 -88q-1 -10 7 -10h135z" />
    <glyph glyph-name="a.smcp" horiz-adv-x="604" 
d="M598 0h-243v58l68 7l-30 86h-206l-31 -86l63 -7v-58h-213v58l34 8q18 4 22 17l173 473h132l175 -476q3 -9 19 -13l37 -9v-58zM371 227l-79 231h-2l-80 -231h161z" />
    <glyph glyph-name="b.smcp" horiz-adv-x="548" 
d="M297 0h-258v58l50 6q14 1 14 15v397q0 14 -14 15l-50 6v59h264q177 0 177 -136q0 -50 -28.5 -83t-69.5 -46v-2q134 -15 134 -136q0 -153 -219 -153zM216 79h62q59 0 89.5 18t30.5 67q0 84 -107 84h-75v-169zM216 320h46q107 0 107 82q0 43 -24 59t-73 16h-56v-157z" />
    <glyph glyph-name="c.smcp" horiz-adv-x="552" 
d="M507 170v-140q-72 -42 -197 -42q-143 0 -211 77t-68 216q0 127 76 206t219 79q112 0 180 -43v-146l-81 6l-11 69q-1 14 -13 19q-31 11 -78 11q-81 0 -126.5 -51.5t-45.5 -149.5q0 -103 43.5 -155.5t122.5 -52.5q60 0 89 13q8 4 12 21l12 63h77z" />
    <glyph glyph-name="d.smcp" horiz-adv-x="611" 
d="M279 0h-241v59l50 6q6 1 8.5 1.5t3.5 3t1 7.5v399q0 9 -2.5 11.5t-10.5 3.5l-50 6v59h255q145 0 215.5 -70.5t70.5 -199.5q0 -133 -75 -209.5t-225 -76.5zM216 79h57q189 0 189 200q0 107 -44.5 152.5t-139.5 45.5h-62v-398z" />
    <glyph glyph-name="e.smcp" horiz-adv-x="512" 
d="M476 0h-438v58l50 6q13 1 13 15v397q0 9 -2.5 12t-10.5 3l-50 6v59h420v-147l-81 3l-10 56q-3 10 -14 10h-137v-159h191v-80h-191v-162h155q11 0 12 8l13 66h80v-151z" />
    <glyph glyph-name="f.smcp" horiz-adv-x="488" 
d="M346 0h-308v58l50 6q13 1 13 15v397q0 9 -2.5 12t-10.5 3l-50 6v59h417v-147l-81 3l-11 56q-1 10 -14 10h-133v-160h188v-80h-188v-158q0 -9 2 -11.5t10 -3.5l118 -6v-59z" />
    </font>
</defs>
</svg>
