<?xml version="1.0" standalone="no"?>
<!DOCTYPE svg PUBLIC "-//W3C//DTD SVG 1.1//EN" "http://www.w3.org/Graphics/SVG/1.1/DTD/svg11.dtd" >
<svg xmlns="http://www.w3.org/2000/svg" xmlns:xlink="http://www.w3.org/1999/xlink" version="1.1">
<metadata>
Created by FontForge 20170731 at Thu May  7 21:20:47 2009
 By Aleksey,,,
Copyright (c) 2009 by TypeTogether. All rights reserved.
</metadata>
<defs>
<font id="Adelle-Heavy" horiz-adv-x="570" >
  <font-face 
    font-family="Adelle Hv"
    font-weight="900"
    font-stretch="normal"
    units-per-em="1000"
    panose-1="2 0 5 3 0 0 0 2 0 4"
    ascent="755"
    descent="-245"
    x-height="528"
    cap-height="724"
    bbox="-183 -312 1248 1014"
    underline-thickness="50"
    underline-position="-200"
    unicode-range="U+0020-FB06"
  />
<missing-glyph horiz-adv-x="500" 
 />
    <glyph glyph-name="fb" unicode="fb" horiz-adv-x="939" 
d="M582 625v-138l7 -1q52 53 132 53q86 0 141.5 -63.5t55.5 -201.5q0 -148 -57.5 -217t-159.5 -69q-44 0 -80.5 19t-51.5 43l-8 -2l-6 -48h-181v597q0 24 -8 34t-31 10q-45 0 -45 -65v-38q0 -10 9 -10h47v-132h-56v-264q0 -12 3.5 -15.5t15.5 -5.5l43 -7v-104h-338v105l49 6
q16 1 16 20v255q0 10 -8 10h-62v132h70v15q0 125 64.5 174.5t216.5 49.5q40 0 68.5 -2.5t59.5 -11t50 -23.5t31.5 -41.5t12.5 -63.5zM584 364v-205q16 -11 47 -11q29 0 46.5 31.5t17.5 87.5q0 111 -64 111q-24 0 -47 -14z" />
    <glyph glyph-name="fj" unicode="fj" horiz-adv-x="641" 
d="M373 -8l1 386q0 11 -2.5 14.5t-12.5 3.5h-69v-262q0 -14 3 -18t15 -6l38 -6v-104h-332v105l49 6q16 2 16 23v252q0 10 -8 10h-62v132h70v26q0 119 70 166t199 47q118 0 178 -38t61 -142l-196 -23q1 45 -10 61t-45 16q-46 0 -46 -49v-54q0 -10 9 -10h285v-568
q0 -183 -204 -183q-66 0 -119 20.5t-75 38.5l50 108q47 -22 85 -22q27 0 39.5 13t12.5 57z" />
    <glyph glyph-name="fk" unicode="fk" horiz-adv-x="957" 
d="M953 0h-240l-104 240l-24 -24v-85q0 -12 2.5 -15.5t13.5 -4.5l38 -7v-104h-265v597q0 24 -8 34t-31 10q-45 0 -45 -65v-38q0 -10 9 -10h47v-132h-56v-264q0 -12 3.5 -15.5t15.5 -5.5l43 -7v-104h-338v105l49 6q16 1 16 20v255q0 10 -8 10h-62v132h70v15q0 125 64.5 174.5
t216.5 49.5q40 0 69 -2.5t60.5 -11t51 -23.5t32 -41.5t12.5 -63.5v-242l154 145h165v-104l-47 -7q-13 -2 -25 -15l-51 -49l104 -227q8 -16 30 -19l38 -5v-102z" />
    <glyph glyph-name="ft" unicode="ft" horiz-adv-x="768" 
d="M717 151l33 -115q-90 -48 -187 -48q-104 0 -146.5 44t-42.5 144v207q0 13 -15 13h-69v-262q0 -14 3 -18t15 -6l38 -6v-104h-332v105l49 6q16 2 16 23v252q0 10 -8 10h-62v132h70v26q0 119 70 166t199 47q118 0 178 -38t61 -142l-196 -23q1 45 -10 61t-45 16
q-46 0 -46 -49v-54q0 -10 9 -10h420v-132h-134v-182q0 -44 11 -60t48 -16q38 0 73 13z" />
    <glyph glyph-name="fh" unicode="fh" horiz-adv-x="927" 
d="M582 625v-140l6 -2q53 56 136 56q74 0 109 -41t35 -127v-240q0 -12 2.5 -15.5t13.5 -4.5l43 -7v-104h-270v339q0 23 -5 33t-20 10q-19 0 -47 -13v-239q0 -12 2.5 -16t12.5 -5l34 -5v-104h-260v597q0 24 -8 34t-31 10q-45 0 -45 -65v-38q0 -10 9 -10h47v-132h-56v-264
q0 -12 3.5 -15.5t15.5 -5.5l43 -7v-104h-338v105l49 6q16 1 16 20v255q0 10 -8 10h-62v132h70v15q0 125 64.5 174.5t216.5 49.5q40 0 68.5 -2.5t59.5 -11t50 -23.5t31.5 -41.5t12.5 -63.5z" />
    <glyph glyph-name="ff" unicode="ff" horiz-adv-x="763" 
d="M290 396v-267q0 -17 12 -19l36 -6v-104h-324v105l49 6q10 1 13 5t3 16v254q0 10 -8 10h-62v132h70v10q0 111 60 158.5t179 47.5q73 0 120 -27q64 50 184 50q34 0 61 -3.5t54.5 -14.5t46.5 -29t31 -48.5t12 -71.5l-195 -23q1 37 -4 50.5t-20 13.5q-14 0 -18.5 -11
t-4.5 -35v-57q0 -10 8 -10h151v-132h-159v-259q0 -12 3.5 -15.5t14.5 -4.5l127 -13v-104h-356v386q0 10 -8 10h-76zM298 528h76v41q0 28 -9.5 38t-32.5 10q-42 0 -42 -45v-34q0 -10 8 -10z" />
    <glyph glyph-name="fi" unicode="fi" horiz-adv-x="644" 
d="M639 0h-265v378q0 11 -2.5 14.5t-12.5 3.5h-69v-262q0 -14 3 -18t15 -6l38 -6v-104h-332v105l49 6q16 2 16 23v252q0 10 -8 10h-62v132h70v26q0 119 70 166t199 47q118 0 178 -38t61 -142l-196 -23q1 45 -10 61t-45 16q-46 0 -46 -49v-54q0 -10 9 -10h286v-397
q0 -12 2.5 -15.5t13.5 -4.5l38 -7v-104z" />
    <glyph glyph-name="fl" unicode="fl" horiz-adv-x="645" 
d="M640 0h-266v597q0 24 -8 34t-31 10q-45 0 -45 -65v-38q0 -10 9 -10h47v-132h-56v-264q0 -12 3.5 -15.5t15.5 -5.5l43 -7v-104h-338v105l49 6q16 1 16 20v255q0 10 -8 10h-62v132h70v15q0 125 64.5 174.5t216.5 49.5q40 0 69 -2.5t60.5 -11t51 -23.5t32 -41.5t12.5 -63.5
v-494q0 -12 2.5 -15.5t13.5 -4.5l39 -7v-104z" />
    <glyph glyph-name="ffi" unicode="ffi" horiz-adv-x="939" 
d="M934 0h-265v378q0 11 -2.5 14.5t-12.5 3.5h-69v-262q0 -14 3 -18t15 -6l38 -6v-104h-267v386q0 10 -8 10h-76v-267q0 -17 12 -19l36 -6v-104h-324v105l49 6q10 1 13 5t3 16v254q0 10 -8 10h-62v132h70v10q0 111 60 158.5t179 47.5q75 0 122 -27q65 50 203 50
q118 0 178 -38t61 -142l-196 -23q1 45 -10 61t-45 16q-46 0 -46 -49v-54q0 -10 9 -10h286v-397q0 -12 2.5 -15.5t13.5 -4.5l38 -7v-104zM298 528h76v38q0 31 -9 41t-33 10q-42 0 -42 -45v-34q0 -10 8 -10z" />
    <glyph glyph-name="ffl" unicode="ffl" horiz-adv-x="939" 
d="M935 0h-266v597q0 24 -8 34t-31 10q-45 0 -45 -65v-38q0 -10 9 -10h47v-132h-56v-264q0 -12 3.5 -15.5t15.5 -5.5l43 -7v-104h-273v386q0 10 -8 10h-76v-267q0 -17 12 -19l36 -6v-104h-324v105l49 6q10 1 13 5t3 16v254q0 10 -8 10h-62v132h70v10q0 111 60 158.5
t179 47.5q73 0 120 -27q62 50 217 50q40 0 69 -2.5t60.5 -11t51 -23.5t32 -41.5t12.5 -63.5v-494q0 -12 2.5 -15.5t13.5 -4.5l39 -7v-104zM290 538q0 -10 8 -10h76v31q0 35 -8.5 46.5t-33.5 11.5q-42 0 -42 -45v-34z" />
    <glyph glyph-name="ffj" unicode="ffj" horiz-adv-x="936" 
d="M668 -8l1 386q0 11 -2.5 14.5t-12.5 3.5h-69v-262q0 -14 3 -18t15 -6l38 -6v-104h-267v386q0 10 -8 10h-76v-267q0 -17 12 -19l36 -6v-104h-324v105l49 6q10 1 13 5t3 16v254q0 10 -8 10h-62v132h70v10q0 111 60 158.5t179 47.5q75 0 122 -27q65 50 203 50q118 0 178 -38
t61 -142l-196 -23q1 45 -10 61t-45 16q-46 0 -46 -49v-54q0 -10 9 -10h285v-568q0 -183 -204 -183q-66 0 -119 20.5t-75 38.5l50 108q47 -22 85 -22q27 0 39.5 13t12.5 57zM290 538q0 -10 8 -10h76v38q0 31 -9 41t-33 10q-42 0 -42 -45v-34z" />
    <glyph glyph-name="ffk" unicode="ffk" horiz-adv-x="1252" 
d="M1248 0h-240l-104 240l-24 -24v-85q0 -12 2.5 -15.5t13.5 -4.5l38 -7v-104h-265v597q0 24 -8 34t-31 10q-45 0 -45 -65v-38q0 -10 9 -10h47v-132h-56v-264q0 -12 3.5 -15.5t15.5 -5.5l43 -7v-104h-273v386q0 10 -8 10h-76v-267q0 -17 12 -19l36 -6v-104h-324v105l49 6
q10 1 13 5t3 16v254q0 10 -8 10h-62v132h70v10q0 111 60 158.5t179 47.5q73 0 120 -27q62 50 217 50q40 0 69 -2.5t60.5 -11t51 -23.5t32 -41.5t12.5 -63.5v-242l154 145h165v-104l-47 -7q-13 -2 -25 -15l-51 -49l104 -227q8 -16 30 -19l38 -5v-102zM290 538q0 -10 8 -10h76
v31q0 35 -8.5 46.5t-33.5 11.5q-42 0 -42 -45v-34z" />
    <glyph glyph-name="ffb" unicode="ffb" horiz-adv-x="1234" 
d="M877 625v-138l7 -1q52 53 132 53q86 0 141.5 -63.5t55.5 -201.5q0 -148 -57.5 -217t-159.5 -69q-44 0 -80.5 19t-51.5 43l-8 -2l-6 -48h-181v597q0 24 -8 34t-31 10q-45 0 -45 -65v-38q0 -10 9 -10h47v-132h-56v-264q0 -12 3.5 -15.5t15.5 -5.5l43 -7v-104h-273v386
q0 10 -8 10h-76v-267q0 -17 12 -19l36 -6v-104h-324v105l49 6q10 1 13 5t3 16v254q0 10 -8 10h-62v132h70v10q0 111 60 158.5t179 47.5q73 0 120 -27q62 50 217 50q40 0 68.5 -2.5t59.5 -11t50 -23.5t31.5 -41.5t12.5 -63.5zM879 364v-205q17 -11 47 -11q29 0 46.5 31.5
t17.5 87.5q0 111 -64 111q-24 0 -47 -14zM290 538q0 -10 8 -10h76v31q0 35 -8.5 46.5t-33.5 11.5q-42 0 -42 -45v-34z" />
    <glyph glyph-name="ffh" unicode="ffh" horiz-adv-x="1222" 
d="M877 625v-140l6 -2q53 56 136 56q74 0 109 -41t35 -127v-240q0 -12 2.5 -15.5t13.5 -4.5l43 -7v-104h-270v339q0 23 -5 33t-20 10q-19 0 -47 -13v-239q0 -12 2.5 -16t12.5 -5l34 -5v-104h-260v597q0 24 -8 34t-31 10q-45 0 -45 -65v-38q0 -10 9 -10h47v-132h-56v-264
q0 -12 3.5 -15.5t15.5 -5.5l43 -7v-104h-273v386q0 10 -8 10h-76v-267q0 -17 12 -19l36 -6v-104h-324v105l49 6q10 1 13 5t3 16v254q0 10 -8 10h-62v132h70v10q0 111 60 158.5t179 47.5q73 0 120 -27q62 50 217 50q40 0 68.5 -2.5t59.5 -11t50 -23.5t31.5 -41.5t12.5 -63.5z
M298 528h76v31q0 35 -8.5 46.5t-33.5 11.5q-42 0 -42 -45v-34q0 -10 8 -10z" />
    <glyph glyph-name="fft" unicode="fft" horiz-adv-x="1063" 
d="M1012 151l33 -115q-90 -48 -187 -48q-104 0 -146.5 44t-42.5 144v207q0 13 -15 13h-69v-262q0 -14 3 -18t15 -6l38 -6v-104h-267v386q0 10 -8 10h-76v-267q0 -17 12 -19l36 -6v-104h-324v105l49 6q10 1 13 5t3 16v254q0 10 -8 10h-62v132h70v10q0 111 60 158.5t179 47.5
q75 0 122 -27q65 50 203 50q118 0 178 -38t61 -142l-196 -23q1 45 -10 61t-45 16q-46 0 -46 -49v-54q0 -10 9 -10h420v-132h-134v-182q0 -44 11 -60t48 -16q38 0 73 13zM290 538q0 -10 8 -10h76v38q-1 31 -9.5 41t-32.5 10q-42 0 -42 -45v-34z" />
    <glyph glyph-name="f_iacute" unicode="f&#xed;" horiz-adv-x="641" 
d="M659 0h-265v375q0 13 -3.5 17t-14.5 4h-66v-264q0 -13 3.5 -17.5t14.5 -5.5l31 -5v-104h-325v105l47 6q10 1 14 6t4 16v253q0 10 -8 10h-62v132h70v40q0 110 49 154.5t146 44.5q62 0 104 -14l-16 -114q-22 8 -39 8q-19 0 -26 -10.5t-7 -33.5v-60q0 -9 2 -12t11 -3h282
v-397q0 -12 2.5 -15.5t13.5 -4.5l38 -7v-104zM656 707l-181 -152l-74 64l152 183z" />
    <glyph glyph-name="tt" unicode="tt" horiz-adv-x="758" 
d="M707 151l33 -115q-90 -48 -187 -48q-92 0 -136 34q-82 -34 -159 -34q-104 0 -146.5 44t-42.5 144v210q0 10 -8 10h-68v122q74 7 111.5 51t45.5 131h130v-162q0 -10 10 -10h31q54 0 85.5 48t38.5 124h130v-162q0 -10 10 -10h134v-132h-144v-182q0 -44 11 -60t48 -16
q38 0 73 13zM332 136q15 0 33 4q-1 11 -1 36v210q0 10 -8 10h-76v-182q0 -26 1 -36.5t5.5 -22.5t15.5 -15.5t30 -3.5z" />
    <glyph glyph-name=".notdef" horiz-adv-x="500" 
 />
    <glyph glyph-name=".null" horiz-adv-x="0" 
 />
    <glyph glyph-name="nonmarkingreturn" horiz-adv-x="333" 
 />
    <glyph glyph-name="space" unicode=" " horiz-adv-x="182" 
 />
    <glyph glyph-name="exclam" unicode="!" horiz-adv-x="321" 
d="M251 206h-177l-22 331v187h221v-187zM268 81q0 -93 -105 -93q-106 0 -106 93t106 93q105 0 105 -93z" />
    <glyph glyph-name="quotedbl" unicode="&#x22;" horiz-adv-x="459" 
d="M203 447h-180v259h180v-259zM436 447h-180v259h180v-259z" />
    <glyph glyph-name="numbersign" unicode="#" horiz-adv-x="607" 
d="M419 0h-136l15 103h-52l-15 -103h-136l15 103h-84l28 137h77l12 78h-85l28 137h77l14 88h136l-14 -88h52l15 88h135l-14 -88h88l-27 -137h-81l-12 -78h88l-27 -137h-82zM319 240l12 78h-52l-12 -78h52z" />
    <glyph glyph-name="dollar" unicode="$" horiz-adv-x="534" 
d="M511 214q0 -82 -41.5 -132.5t-112.5 -69.5v-92h-193v84q-80 7 -135 33v176l152 -10l10 -63q1 -15 14 -18q17 -6 47 -6q31 0 50 15t19 41q0 23 -22 38t-55 22.5t-72 21.5t-72 31.5t-55 55.5t-22 91q0 155 154 198v85h193v-76q49 -6 124 -26v-179l-151 7l-11 62
q-2 10 -6 13.5t-14 5.5q-12 2 -33 2q-29 0 -47.5 -12t-18.5 -35q0 -20 22 -34.5t55 -22.5t72 -23t72 -34t55 -57.5t22 -91.5z" />
    <glyph glyph-name="percent" unicode="%" horiz-adv-x="932" 
d="M196 257q-176 0 -176 176q0 187 184 187q176 0 176 -174q0 -89 -46.5 -139t-137.5 -50zM374 -12h-192l374 632h191zM202 361q30 0 30 81q0 42 -7.5 57.5t-23.5 15.5q-31 0 -31 -73q0 -81 32 -81zM729 -12q-177 0 -177 176q0 187 185 187q175 0 175 -174q0 -89 -46 -139
t-137 -50zM734 92q15 0 22.5 17t7.5 64q0 73 -30 73q-31 0 -31 -73q0 -81 31 -81z" />
    <glyph glyph-name="ampersand" unicode="&#x26;" horiz-adv-x="728" 
d="M703 0h-211l-36 40q-75 -52 -190 -52q-107 0 -171.5 54t-64.5 154q0 121 126 199q-32 47 -32 103q0 92 59 139t162 47q59 0 115 -15t89 -37v-180l-147 5l-13 67q-3 11 -11 12q-6 1 -16 1q-36 0 -36 -39q0 -29 29 -65l94 -112l17 66h201v-100l-46 -9q-9 -2 -12 -4.5
t-5 -12.5q-10 -39 -29 -82l54 -60q8 -8 19 -9l55 -8v-102zM349 156l-108 123q-29 -27 -29 -68q0 -35 20.5 -55t54.5 -20t62 20z" />
    <glyph glyph-name="quotesingle" unicode="'" horiz-adv-x="226" 
d="M203 447h-180v259h180v-259z" />
    <glyph glyph-name="parenleft" unicode="(" horiz-adv-x="412" 
d="M367 -97l-159 -91q-77 90 -127.5 215t-50.5 253q0 249 187 479l157 -92q-117 -159 -117 -387q0 -116 26.5 -200.5t83.5 -176.5z" />
    <glyph glyph-name="parenright" unicode=")" horiz-adv-x="412" 
d="M192 -188l-156 93q119 161 119 388q0 118 -26.5 201.5t-82.5 173.5l159 91q76 -90 126 -214t50 -252q0 -251 -189 -481z" />
    <glyph glyph-name="asterisk" unicode="*" horiz-adv-x="482" 
d="M187 370l-111 80l44 61l94 46l-103 -22l-72 23l41 129l72 -24l72 -75l-51 92v75h135v-75l-50 -92h-34l-10 -31l27 -19l-10 -105zM407 450l-112 -80l-43 63l-11 105l27 19l-10 31l72 75l72 24l41 -129l-72 -23l-103 22l94 -46z" />
    <glyph glyph-name="plus" unicode="+" 
d="M362 114h-156v134h-120v153h120v130h156v-130h121v-153h-121v-134z" />
    <glyph glyph-name="comma" unicode="," horiz-adv-x="286" 
d="M166 -121l-88 24l25 110q3 10 -6 13l-47 13l22 134q39 0 65.5 -2.5t53 -11t39.5 -28t13 -49.5q0 -26 -25 -86z" />
    <glyph glyph-name="hyphen" unicode="-" horiz-adv-x="321" 
d="M296 207h-271v165h271v-165z" />
    <glyph glyph-name="period" unicode="." horiz-adv-x="301" 
d="M256 81q0 -93 -105 -93q-106 0 -106 93t106 93q105 0 105 -93z" />
    <glyph glyph-name="slash" unicode="/" horiz-adv-x="505" 
d="M203 -92h-193l283 847h192z" />
    <glyph glyph-name="zero" unicode="0" horiz-adv-x="614" 
d="M300 -12q-148 0 -211.5 75.5t-63.5 232.5q0 152 69.5 227.5t218.5 75.5t212.5 -74.5t63.5 -224.5q0 -160 -69 -236t-220 -76zM308 130q29 0 42.5 33.5t13.5 131.5q0 95 -13 127t-41 32q-30 0 -44.5 -32.5t-14.5 -125.5q0 -99 13 -132.5t44 -33.5z" />
    <glyph glyph-name="one" unicode="1" horiz-adv-x="427" 
d="M422 0h-390v104l71 7q10 1 13 4.5t3 15.5v304q0 17 -12 21l-79 20l15 107h287v-452q0 -12 2.5 -15.5t13.5 -4.5l76 -7v-104z" />
    <glyph glyph-name="two" unicode="2" horiz-adv-x="564" 
d="M534 0h-503v124l130 130q82 82 104.5 110.5t22.5 56.5q0 33 -31 33q-25 0 -34.5 -16t-9.5 -59l-188 15q1 205 255 205q219 0 219 -163q0 -30 -7.5 -55.5t-28 -53.5t-33 -42.5t-47.5 -50.5l-108 -108h88q10 0 13 13l12 63h146v-202z" />
    <glyph glyph-name="three" unicode="3" horiz-adv-x="550" 
d="M394 272v-4q63 -8 98 -47t35 -107q0 -103 -72.5 -150t-191.5 -47q-82 0 -153 26t-115 73l106 117q33 -31 63.5 -47.5t75.5 -16.5q79 0 79 65q0 58 -62 58q-35 0 -78 -9v132l39 5q89 10 89 93q0 41 -39 41q-27 0 -37 -15.5t-10 -59.5l-190 15q0 63 21.5 106t60 63.5
t77.5 28t88 7.5q124 0 177.5 -41t53.5 -133q0 -62 -34.5 -101.5t-80.5 -51.5z" />
    <glyph glyph-name="four" unicode="4" horiz-adv-x="612" 
d="M515 -67h-190v111h-292v141l181 427l169 -74l-155 -334h97v126l189 31v-157h77v-160h-76v-111z" />
    <glyph glyph-name="five" unicode="5" horiz-adv-x="574" 
d="M486 420h-257l-11 -94l4 -3q55 34 119 34q91 0 142 -51.5t51 -154.5q0 -100 -69.5 -167t-196.5 -67q-187 0 -274 101l103 116q71 -65 148 -65q39 0 60 21t21 56q0 64 -63 64q-43 0 -69 -38l-134 53l24 358h253q11 0 14 13l13 55l122 9v-240z" />
    <glyph glyph-name="six" unicode="6" horiz-adv-x="587" 
d="M556 478l-196 -23q0 43 -9 57.5t-39 14.5q-33 0 -50 -32t-20 -106q53 20 118 20q93 0 150.5 -45t57.5 -148q0 -64 -21.5 -110t-59.5 -71t-83.5 -36t-101.5 -11q-147 0 -210.5 85t-63.5 244q0 48 8 94t28.5 92.5t51.5 81t81 56.5t114 22q245 0 245 -185zM242 266
q2 -70 15.5 -99t48.5 -29q48 0 48 71q0 38 -11.5 54t-41.5 16q-26 0 -59 -13z" />
    <glyph glyph-name="seven" unicode="7" horiz-adv-x="548" 
d="M348 -67h-222q8 95 35 181.5t63 147.5t63 97t53 61h-140q-11 0 -14 -12l-14 -76l-147 -11v262h523v-143q-191 -214 -200 -507z" />
    <glyph glyph-name="eight" unicode="8" horiz-adv-x="547" 
d="M432 345q49 -30 75 -64.5t26 -90.5q0 -102 -74.5 -152t-197.5 -50q-246 0 -246 180q0 83 86 155q-69 55 -69 140q0 94 66.5 147t176.5 53q108 0 167.5 -44t59.5 -128t-70 -146zM215 259q-35 -36 -35 -78q0 -63 78 -63q67 0 67 50q0 9 -3 17t-10 15t-14 13t-19 13t-20 11
t-22.5 11t-21.5 11zM307 404q32 41 32 75q0 23 -15 38.5t-44 15.5q-53 0 -53 -47q0 -44 80 -82z" />
    <glyph glyph-name="nine" unicode="9" horiz-adv-x="587" 
d="M39 0l83 120q66 -54 135 -54q45 0 66 26t25 101q-57 -21 -113 -21q-54 0 -99.5 17.5t-78.5 64t-33 116.5q0 113 69.5 171t188.5 58q146 0 214 -84t68 -233q0 -364 -294 -364q-66 0 -130.5 23t-100.5 59zM348 313q-3 69 -17.5 103t-45.5 34q-47 0 -47 -71q0 -80 55 -80
q24 0 55 14z" />
    <glyph glyph-name="colon" unicode=":" horiz-adv-x="301" 
d="M256 81q0 -93 -105 -93q-106 0 -106 93t106 93q105 0 105 -93zM256 446q0 -93 -105 -93q-106 0 -106 93t106 93q105 0 105 -93z" />
    <glyph glyph-name="semicolon" unicode=";" horiz-adv-x="286" 
d="M166 -121l-88 24l25 110q3 10 -6 13l-47 13l22 134q39 0 65.5 -2.5t53 -11t39.5 -28t13 -49.5q0 -26 -25 -86zM261 446q0 -93 -105 -93q-106 0 -106 93t106 93q105 0 105 -93z" />
    <glyph glyph-name="less" unicode="&#x3c;" 
d="M457 74l-402 130v180l404 129l41 -148l-268 -71l269 -75z" />
    <glyph glyph-name="equal" unicode="=" 
d="M483 100h-398v152h398v-152zM483 311h-398v152h398v-152z" />
    <glyph glyph-name="greater" unicode="&#x3e;" 
d="M501 204l-401 -130l-44 145l269 75l-268 71l41 148l403 -129v-180z" />
    <glyph glyph-name="question" unicode="?" horiz-adv-x="580" 
d="M340 206h-211v187q31 2 50.5 4.5t47.5 7t46 13t35.5 20.5t26 31t8.5 43q0 34 -17 50t-42 16q-24 0 -41 -5q-14 -4 -15 -19l-11 -81l-172 -14v214q133 51 253 51q262 0 262 -218q0 -95 -53 -159t-167 -74v-67zM340 81q0 -93 -105 -93q-106 0 -106 93t106 93q105 0 105 -93
z" />
    <glyph glyph-name="at" unicode="@" horiz-adv-x="853" 
d="M600 -58l28 -103q-79 -35 -207 -35q-168 0 -263.5 92t-95.5 262q0 188 108.5 299t289.5 111q157 0 251.5 -84t94.5 -236q0 -129 -56 -194.5t-156 -65.5q-40 0 -66.5 11.5t-44.5 44.5q-52 -56 -114 -56q-53 0 -87 37.5t-34 106.5q0 110 60.5 187.5t163.5 77.5
q73 0 145 -32l-20 -127q-12 -74 -12 -109q0 -21 7.5 -30.5t29.5 -9.5q25 0 39 24q23 48 23 136q0 96 -57 153t-176 57q-71 0 -124.5 -27t-82.5 -72t-43 -95.5t-14 -106.5q0 -116 64 -181.5t185 -65.5q79 0 164 31zM463 126l29 177q-10 8 -27 8q-35 0 -63.5 -43t-28.5 -116
q0 -55 29 -55q28 0 61 29z" />
    <glyph glyph-name="A" unicode="A" horiz-adv-x="805" 
d="M807 0h-385v103l80 9l-18 49h-216l-17 -49l78 -9v-103h-331v103l46 11q20 5 25 19l217 591h238l212 -593q4 -12 24 -17l47 -11v-103zM447 304l-65 210h-7l-68 -210h140z" />
    <glyph glyph-name="B" unicode="B" horiz-adv-x="667" 
d="M376 0h-360v103l63 7q10 1 13 5t3 15v462q0 12 -3 15.5t-13 4.5l-63 7v105h374q222 0 222 -177q0 -66 -35 -108.5t-87 -59.5v-3q164 -19 164 -174q0 -105 -75.5 -153.5t-202.5 -48.5zM311 143h24q49 0 72 19.5t23 65.5t-22.5 61.5t-62.5 15.5h-34v-162zM311 435h-7
q54 0 80 14.5t26 59.5q0 23 -7 38t-21.5 21.5t-26 8t-29.5 1.5h-15v-143z" />
    <glyph glyph-name="C" unicode="C" horiz-adv-x="681" 
d="M636 266v-220q-46 -27 -118 -42.5t-142 -15.5q-361 0 -361 375q0 168 99.5 271t286.5 103q61 0 125.5 -15.5t108.5 -43.5v-232l-153 12l-15 98q-3 15 -15 19q-20 5 -54 5q-75 0 -116.5 -54t-41.5 -163q0 -112 39.5 -166.5t111.5 -54.5q37 0 60 5q12 2 15.5 5.5t5.5 17.5
l15 96h149z" />
    <glyph glyph-name="D" unicode="D" horiz-adv-x="738" 
d="M348 0h-332v105l63 7q10 1 13 4.5t3 15.5v461q0 11 -3 15t-13 5l-63 7v104h349q183 0 271 -91.5t88 -259.5q0 -173 -94 -273t-282 -100zM312 143h14q55 0 91.5 17t54.5 50t25 70t7 89q0 112 -39.5 161.5t-141.5 49.5h-11v-437z" />
    <glyph glyph-name="E" unicode="E" horiz-adv-x="627" 
d="M600 0h-584v103l63 7q10 1 13 5t3 15v463q0 12 -3 15.5t-13 4.5l-63 7v104h562v-239l-153 6l-14 75q-3 13 -17 13h-82v-142h202v-151h-202v-142h104q14 0 16 11l16 88h152v-243z" />
    <glyph glyph-name="F" unicode="F" horiz-adv-x="608" 
d="M475 0h-459v103l63 7q10 1 13 5t3 15v463q0 12 -3 15.5t-13 4.5l-63 7v104h558v-239l-153 6l-14 75q-3 13 -17 13h-78v-142h198v-151h-198v-154q0 -12 2.5 -15.5t13.5 -4.5l147 -8v-104z" />
    <glyph glyph-name="G" unicode="G" horiz-adv-x="723" 
d="M713 257l-40 -4q-16 -1 -16 -14v-196q-115 -55 -279 -55q-363 0 -363 373q0 169 100 272.5t290 103.5q54 0 118 -15t112 -46v-221l-154 13l-14 86q-2 12 -5 15.5t-12 5.5q-18 5 -55 5q-74 0 -114 -58.5t-40 -155.5q0 -223 147 -223q23 0 36 1q17 1 17 21v82h-86l17 115
h341v-105z" />
    <glyph glyph-name="H" unicode="H" horiz-adv-x="828" 
d="M816 0h-379v103l63 7q10 1 13 5t3 15v164h-204v-163q0 -12 2.5 -15.5t13.5 -4.5l67 -8v-103h-379v103l63 7q10 1 13 5t3 15v462q0 12 -3 15.5t-13 4.5l-63 7v105h379v-105l-67 -8q-11 -1 -13.5 -4.5t-2.5 -14.5v-146h204v146q0 12 -3 15.5t-13 4.5l-63 7v105h379v-105
l-67 -8q-11 -1 -13.5 -4.5t-2.5 -14.5v-461q0 -12 2.5 -15.5t13.5 -4.5l67 -8v-103z" />
    <glyph glyph-name="I" unicode="I" horiz-adv-x="417" 
d="M410 0h-399v103l73 8q10 1 13 4.5t3 15.5v461q0 12 -3 15.5t-13 4.5l-73 7v105h399v-105l-77 -8q-11 -1 -13.5 -4.5t-2.5 -14.5v-461q0 -12 2.5 -15.5t13.5 -4.5l77 -8v-103z" />
    <glyph glyph-name="J" unicode="J" horiz-adv-x="529" 
d="M224 174v419q0 17 -16 18l-95 8v105h411v-105l-67 -8q-11 -1 -13.5 -4.5t-2.5 -14.5v-414q0 -97 -50.5 -143.5t-161.5 -46.5q-61 0 -123 13t-88 30v217l154 -11l10 -71q1 -10 6 -12.5t17 -2.5q10 0 14.5 4.5t4.5 18.5z" />
    <glyph glyph-name="K" unicode="K" horiz-adv-x="770" 
d="M776 0h-284l-132 237l-48 -64v-41q0 -12 2.5 -15.5t13.5 -4.5l67 -8v-104h-379v104l63 7q10 1 13 4.5t3 15.5v462q0 11 -3 15t-13 5l-63 7v104h379v-104l-67 -8q-11 -1 -13.5 -4.5t-2.5 -14.5v-214l194 232l-62 8v105h299v-105l-34 -5q-20 -3 -31 -18l-151 -182l153 -278
q6 -11 12.5 -15.5t19.5 -6.5l64 -10v-104z" />
    <glyph glyph-name="L" unicode="L" horiz-adv-x="629" 
d="M600 0h-584v104l63 7q10 1 13 5t3 15v462q0 12 -3 15.5t-13 4.5l-63 7v104h395v-104l-83 -8q-11 -1 -13.5 -4.5t-2.5 -14.5v-449h103q14 0 16 11l16 109h153v-264z" />
    <glyph glyph-name="M" unicode="M" horiz-adv-x="982" 
d="M970 0h-387v103l82 7q10 1 13 5t3 15v260h-7l-90 -263h-222l-97 257h-7v-253q0 -12 2.5 -15.5t13.5 -4.5l85 -8v-103h-343v103l63 7q10 1 13 4.5t3 15.5v463q0 11 -3 15t-13 5l-63 7v104h324l151 -426h8l146 426h325v-103l-67 -8q-11 -1 -13.5 -4.5t-2.5 -14.5v-464
q0 -18 16 -19l67 -8v-103z" />
    <glyph glyph-name="N" unicode="N" horiz-adv-x="831" 
d="M738 0h-220l-272 440v-309q0 -12 2.5 -15.5t13.5 -4.5l67 -8v-103h-313v103l63 7q10 1 13 5t3 15v464q0 12 -3 15.5t-13 4.5l-63 7v103h298l274 -445v313q0 12 -3 15.5t-13 4.5l-63 7v105h312v-105l-67 -8q-11 -1 -13.5 -4.5t-2.5 -14.5v-592z" />
    <glyph glyph-name="O" unicode="O" horiz-adv-x="747" 
d="M367 -12q-181 0 -266.5 98.5t-85.5 268.5t94 276t272 106q176 0 263.5 -102.5t87.5 -264.5q0 -180 -91.5 -281t-273.5 -101zM376 156q64 0 98.5 45.5t34.5 159.5q0 111 -33 159.5t-96 48.5q-142 0 -142 -209q0 -113 35.5 -158.5t102.5 -45.5z" />
    <glyph glyph-name="P" unicode="P" horiz-adv-x="641" 
d="M470 0h-454v104l63 7q10 1 13 5t3 15v461q0 12 -3 15.5t-13 4.5l-63 7v105h369q129 0 185 -58.5t56 -154.5q0 -128 -71.5 -189.5t-202.5 -61.5h-41v-128q0 -12 2.5 -15.5t13.5 -4.5l143 -8v-104zM311 402h4q89 0 89 95q0 28 -8 46t-23 25t-25 8.5t-24 1.5h-13v-176z" />
    <glyph glyph-name="Q" unicode="Q" horiz-adv-x="746" 
d="M601 -66l38 -113q-96 -52 -184 -52q-96 0 -137.5 46.5t-41.5 120.5q0 31 4 59q-136 22 -200.5 117t-64.5 243q0 170 94 276t272 106q91 0 159.5 -28.5t109.5 -80t61.5 -116t20.5 -142.5q0 -153 -65.5 -249.5t-195.5 -122.5q-2 -10 -2 -24q0 -31 11.5 -43.5t43.5 -12.5
t77 16zM376 156q64 0 98.5 45.5t34.5 159.5q0 111 -32.5 159.5t-95.5 48.5q-143 0 -143 -209q0 -113 35.5 -158.5t102.5 -45.5z" />
    <glyph glyph-name="R" unicode="R" horiz-adv-x="700" 
d="M700 0h-274l-69 236q-8 28 -18 38t-28 10v-151q0 -12 3 -15.5t15 -5.5l39 -7v-105h-352v105l63 7q10 1 13 4.5t3 15.5v461q0 11 -3 15t-13 5l-63 7v104h376q127 0 183 -55.5t56 -149.5q0 -136 -118 -186q40 -19 58 -78l35 -117q7 -19 32 -23l62 -10v-105zM311 420h5
q21 0 34.5 2.5t28.5 10t22 25.5t7 47q0 39 -17 56t-57 17h-23v-158z" />
    <glyph glyph-name="S" unicode="S" horiz-adv-x="601" 
d="M555 472l-158 13l-8 78q-1 11 -4.5 14t-11.5 5q-22 3 -48 3q-34 0 -52.5 -15t-18.5 -39q0 -15 7.5 -26.5t27.5 -20.5t32.5 -13t45.5 -14q37 -11 59 -18.5t55 -25.5t51.5 -39.5t32.5 -58t14 -82.5q0 -123 -83 -184t-214 -61q-64 0 -138 13.5t-110 30.5v226h157l21 -100
q2 -14 17 -16q36 -4 53 -4q44 0 66.5 16t22.5 44q0 17 -8 29t-29.5 21.5t-34.5 13t-47 12.5q-46 11 -73.5 21.5t-62.5 34t-52.5 64t-17.5 98.5q0 119 78.5 182t205.5 63q120 0 225 -45v-220z" />
    <glyph glyph-name="T" unicode="T" horiz-adv-x="738" 
d="M605 0h-462v104l103 8q10 1 13 4.5t3 15.5v446h-52q-14 0 -16 -11l-16 -87h-153v244h688v-244h-151l-16 87q-2 11 -16 11h-51v-446q0 -11 2.5 -14.5t13.5 -4.5l110 -9v-104z" />
    <glyph glyph-name="U" unicode="U" horiz-adv-x="783" 
d="M516 313v280q0 12 -3 15.5t-13 4.5l-63 7v104h343v-104l-67 -8q-11 -1 -13.5 -4.5t-2.5 -14.5v-316q0 -289 -302 -289q-161 0 -235 70t-74 225v310q0 12 -3 15.5t-13 4.5l-63 7v104h379v-104l-67 -8q-11 -1 -13.5 -4.5t-2.5 -14.5v-275q0 -35 1 -53.5t6.5 -41.5t16.5 -34
t32 -19t51 -8q64 0 85 33.5t21 117.5z" />
    <glyph glyph-name="V" unicode="V" horiz-adv-x="778" 
d="M544 0h-285l-185 593q-4 12 -24 17l-45 11l10 103h369v-103l-79 -9l111 -403h13l111 403l-79 9l10 103h303v-103l-42 -11q-22 -5 -25 -19z" />
    <glyph glyph-name="W" unicode="W" horiz-adv-x="1093" 
d="M899 0h-285l-63 285h-10l-55 -285h-279l-136 588q-4 16 -16 19l-51 14l10 103h352v-103l-78 -9l77 -417h13l93 407h204l92 -405h13l76 415l-78 9l10 103h301v-103l-50 -13q-15 -4 -19 -19z" />
    <glyph glyph-name="X" unicode="X" horiz-adv-x="847" 
d="M833 0h-409v103l82 9l-107 126l-107 -126l80 -9v-103h-339v102l62 12q17 3 30 19l185 211l-211 249q-8 13 -24 17l-57 11l10 103h396v-103l-81 -9l111 -133l118 133l-81 9l10 103h313v-103l-51 -11q-16 -4 -28 -19l-191 -216l209 -244q13 -15 28 -18l52 -10v-103z" />
    <glyph glyph-name="Y" unicode="Y" horiz-adv-x="734" 
d="M617 0h-467v104l105 8q10 1 13 4.5t3 15.5v128l-196 333q-8 13 -21 16l-48 12l10 103h362v-103l-71 -9l86 -171h13l88 171l-71 9l10 103h295v-103l-46 -12q-13 -3 -22 -20l-172 -328v-129q0 -11 2.5 -14.5t13.5 -4.5l113 -9v-104z" />
    <glyph glyph-name="Z" unicode="Z" horiz-adv-x="700" 
d="M665 0h-614v134l332 445h-142q-14 0 -16 -11l-19 -92l-149 -5v253h582v-138l-324 -442h167q14 0 16 11l19 107h148v-262z" />
    <glyph glyph-name="bracketleft" unicode="[" horiz-adv-x="371" 
d="M335 -143h-285v867h285v-99l-63 -13q-16 -3 -16 -21v-601q0 -18 16 -21l63 -13v-99z" />
    <glyph glyph-name="backslash" unicode="\" horiz-adv-x="503" 
d="M493 -92h-193l-280 847h192z" />
    <glyph glyph-name="bracketright" unicode="]" horiz-adv-x="371" 
d="M321 -143h-285v99l63 13q16 3 16 21v601q0 18 -16 21l-63 13v99h285v-867z" />
    <glyph glyph-name="asciicircum" unicode="^" horiz-adv-x="669" 
d="M639 299h-199l-108 195l-105 -195h-197l197 365h213z" />
    <glyph glyph-name="underscore" unicode="_" horiz-adv-x="500" 
d="M500 -181h-500v146h500v-146z" />
    <glyph glyph-name="grave" unicode="`" horiz-adv-x="500" 
d="M385 621l-74 -64l-181 152l104 95z" />
    <glyph glyph-name="a" unicode="a" horiz-adv-x="574" 
d="M573 0h-228l-11 50l-7 2q-60 -64 -155 -64q-152 0 -152 159q0 73 46.5 108t145.5 42l95 7v56q0 16 -1 24t-10 16.5t-26 8.5q-22 0 -29.5 -11.5t-7.5 -44.5l-196 14q0 172 238 172q126 0 181.5 -40.5t55.5 -145.5v-221q0 -12 2.5 -15.5t13.5 -4.5l45 -8v-104zM307 130v79
l-23 -2q-49 -4 -49 -45q0 -38 40 -38q14 0 32 6z" />
    <glyph glyph-name="b" unicode="b" horiz-adv-x="622" 
d="M238 0h-198q17 100 17 149v458q0 16 -13 21l-50 19l14 108h257v-268l7 -1q52 53 132 53q86 0 141.5 -63.5t55.5 -201.5q0 -148 -57.5 -217t-159.5 -69q-44 0 -80.5 19t-51.5 43l-8 -2zM267 364v-205q17 -11 47 -11q29 0 46.5 31.5t17.5 87.5q0 111 -64 111q-24 0 -47 -14
z" />
    <glyph glyph-name="c" unicode="c" horiz-adv-x="534" 
d="M455 163l47 -118q-93 -57 -208 -57q-137 0 -208 74t-71 193q0 135 78 209.5t207 74.5q59 0 116 -15.5t88 -37.5v-181l-147 5l-12 67q-4 16 -12 18q-13 4 -33 4q-27 0 -45.5 -28.5t-18.5 -92.5q0 -81 27 -110t70 -29q47 0 122 24z" />
    <glyph glyph-name="d" unicode="d" horiz-adv-x="626" 
d="M626 0h-233l-10 50l-8 2q-58 -64 -155 -64q-199 0 -199 274q0 142 63.5 209.5t150.5 67.5q71 0 130 -45v113q0 16 -13 21l-51 19l14 108h250v-625q0 -11 2.5 -14.5t13.5 -4.5l45 -7v-104zM355 146v224q-18 10 -36 10q-38 0 -56.5 -33.5t-18.5 -83.5q0 -125 69 -125
q21 0 42 8z" />
    <glyph glyph-name="e" unicode="e" horiz-adv-x="543" 
d="M475 174l46 -128q-128 -58 -230 -58q-145 0 -210.5 75.5t-65.5 204.5q0 131 75.5 201t192.5 70q110 0 171.5 -62.5t61.5 -193.5q0 -23 -3 -61h-276q6 -79 83 -79q53 0 155 31zM234 325h82q1 42 -9.5 56.5t-30.5 14.5q-40 0 -42 -71z" />
    <glyph glyph-name="f" unicode="f" horiz-adv-x="468" 
d="M435 0h-421v105l49 6q10 1 13 5t3 16v254q0 10 -8 10h-62v132h70v33q0 110 62.5 158t181.5 48q44 0 77.5 -6.5t65 -23.5t49 -51.5t17.5 -85.5l-195 -23q1 37 -4 50.5t-20 13.5q-23 0 -23 -46v-57q0 -10 8 -10h151v-132h-159v-259q0 -12 3.5 -15.5t14.5 -4.5l127 -13v-104
z" />
    <glyph glyph-name="g" unicode="g" horiz-adv-x="594" 
d="M578 421l-87 -1l-5 -5q34 -43 34 -97q0 -75 -63 -119.5t-154 -44.5q-33 0 -70 5l-32 -34l89 -5q138 -8 174 -17q80 -19 99 -82q7 -25 7 -59q0 -90 -78.5 -138.5t-218.5 -48.5q-256 0 -256 119q0 30 13.5 52t39.5 48q-46 20 -46 69q0 31 23.5 56t80.5 67q-45 18 -72 57.5
t-27 96.5q0 85 64.5 142t186.5 57q62 0 100 -11h198v-107zM346 339q0 32 -17 50t-43 18q-27 0 -44.5 -17t-17.5 -52q0 -27 15.5 -43t44.5 -16q27 0 44.5 16.5t17.5 43.5zM309 -45l-132 7q-15 -18 -15 -34q0 -39 123 -39q85 0 85 35q0 27 -61 31z" />
    <glyph glyph-name="h" unicode="h" horiz-adv-x="619" 
d="M619 0h-270v339q0 23 -5 33t-20 10q-19 0 -47 -13v-239q0 -12 2.5 -16t12.5 -5l34 -5v-104h-316v104l40 7q10 1 13 5t3 15v476q0 17 -13 21l-51 19l14 108h258v-270l6 -2q53 56 136 56q74 0 109 -41t35 -127v-240q0 -12 2.5 -15.5t13.5 -4.5l43 -7v-104z" />
    <glyph glyph-name="i" unicode="i" horiz-adv-x="336" 
d="M276 693q0 -56 -30.5 -86.5t-86.5 -30.5q-55 0 -86 31t-31 86t30.5 84.5t86.5 29.5t86.5 -29.5t30.5 -84.5zM330 0h-316v104l36 7q10 1 13 5t3 15v249q0 17 -13 21l-51 19l14 108h261v-397q0 -12 2.5 -15.5t13.5 -4.5l37 -7v-104z" />
    <glyph glyph-name="j" unicode="j" horiz-adv-x="332" 
d="M64 -8v388q0 15 -14 21l-48 19l14 108h259v-568q0 -183 -204 -183q-66 0 -119 20.5t-75 38.5l50 108q55 -22 85 -22q13 0 20 1.5t15.5 7.5t12.5 21t4 40zM274 693q0 -56 -31 -86.5t-87 -30.5q-55 0 -85.5 31t-30.5 86t30.5 84.5t85.5 29.5q56 0 87 -29.5t31 -84.5z" />
    <glyph glyph-name="k" unicode="k" horiz-adv-x="649" 
d="M645 0h-240l-104 240l-24 -24v-85q0 -12 2.5 -15.5t13.5 -4.5l38 -7v-104h-318v104l37 7q11 2 13.5 5.5t2.5 14.5v476q0 16 -13 21l-51 19l14 108h261v-372l154 145h165v-104l-47 -7q-13 -2 -25 -15l-51 -49l104 -227q8 -16 30 -19l38 -5v-102z" />
    <glyph glyph-name="l" unicode="l" horiz-adv-x="336" 
d="M331 0h-318v104l37 7q11 2 13.5 5.5t2.5 14.5v476q0 16 -13 21l-51 19l14 108h261v-624q0 -12 2.5 -15.5t13.5 -4.5l38 -7v-104z" />
    <glyph glyph-name="m" unicode="m" horiz-adv-x="866" 
d="M866 0h-270v344q0 22 -4.5 29.5t-16.5 7.5q-13 0 -33 -10v-240q0 -13 2.5 -17t13.5 -6l18 -4v-104h-245v342q0 38 -22 38q-14 0 -32 -9v-240q0 -14 2 -18t13 -6l18 -3v-104h-300v104l40 7q10 1 13 5t3 15v249q0 17 -13 21l-51 19l14 108h220l8 -44h7q62 55 138 55
q92 0 126 -57q66 57 146 57q75 0 110.5 -40.5t35.5 -127.5v-240q0 -12 2.5 -15.5t13.5 -4.5l43 -7v-104z" />
    <glyph glyph-name="n" unicode="n" horiz-adv-x="619" 
d="M619 0h-270v336q0 25 -6.5 35t-22.5 10q-18 0 -43 -12v-238q0 -12 3 -16t14 -6l25 -5v-104h-309v104l40 7q10 1 13 5t3 15v249q0 17 -13 21l-50 19l14 108h219l8 -44h7q76 55 163 55q75 0 110.5 -40.5t35.5 -127.5v-240q0 -12 2.5 -15.5t13.5 -4.5l43 -7v-104z" />
    <glyph glyph-name="o" unicode="o" horiz-adv-x="594" 
d="M293 -12q-278 0 -278 276q0 129 72.5 202t215.5 73q142 0 209 -72t67 -196q0 -134 -71 -208.5t-215 -74.5zM298 128q61 0 61 139q0 73 -15.5 101t-43.5 28q-64 0 -64 -130q0 -77 16 -107.5t46 -30.5z" />
    <glyph glyph-name="p" unicode="p" horiz-adv-x="625" 
d="M396 -212h-394v105l38 6q11 2 15.5 6.5t4.5 15.5v459q0 16 -13 21l-50 19l14 108h218l9 -44l7 -2q73 57 162 57q90 0 143 -62.5t53 -202.5q0 -149 -56 -217.5t-146 -69.5q-77 0 -136 46v-110q0 -12 3 -15.5t14 -4.5l114 -11v-104zM269 366v-209q28 -11 53 -11
q58 0 58 121q0 111 -64 111q-24 0 -47 -12z" />
    <glyph glyph-name="q" unicode="q" horiz-adv-x="608" 
d="M625 -212h-364v105l98 8q23 1 23 17v128l-7 3q-61 -61 -147 -61q-96 0 -151.5 66.5t-55.5 207.5q0 74 20 129.5t52.5 86.5t70 46t77.5 15q76 0 136 -58l17 47h178q-8 -124 -8 -185v-425q0 -11 2.5 -14.5t13.5 -4.5l45 -7v-104zM354 148v222q-23 10 -43 10q-33 0 -50 -34
t-17 -85q0 -58 13 -90t50 -32q18 0 47 9z" />
    <glyph glyph-name="r" unicode="r" horiz-adv-x="513" 
d="M398 0h-388v105l40 7q10 1 13 5t3 15v248q0 16 -13 21l-51 19l14 108h219l15 -92h10q26 52 59 77.5t81 25.5q53 0 93 -11v-211l-169 5l-8 35q-4 14 -13 14q-10 0 -26 -8v-228q0 -12 3 -16t14 -4l104 -11v-104z" />
    <glyph glyph-name="s" unicode="s" horiz-adv-x="515" 
d="M482 367l-151 8l-5 25q-2 10 -11 13q-18 6 -48 6q-51 0 -51 -27q0 -10 6 -17t22.5 -12.5t26 -8t36.5 -7.5q33 -6 52 -11t49 -17.5t46.5 -29t29.5 -45.5t13 -67q0 -94 -67 -141.5t-183 -47.5q-142 0 -214 38v128l147 -9l6 -30q2 -14 15 -17q17 -5 55 -5q56 0 56 35
q0 18 -20.5 26t-62.5 15q-3 0 -5 0.5t-5 1t-5 0.5q-31 5 -51.5 10.5t-48.5 18t-44.5 30t-28.5 48t-12 70.5q0 95 69.5 143t173.5 48q60 0 120 -10t90 -22v-140z" />
    <glyph glyph-name="t" unicode="t" horiz-adv-x="463" 
d="M412 151l33 -115q-90 -48 -187 -48q-104 0 -146.5 44t-42.5 144v210q0 10 -8 10h-68v122q74 7 111.5 51t45.5 131h130v-162q0 -10 10 -10h134v-132h-144v-182q0 -44 11 -60t48 -16q38 0 73 13z" />
    <glyph glyph-name="u" unicode="u" horiz-adv-x="619" 
d="M616 0h-230l-7 42l-7 2q-70 -56 -165 -56q-75 0 -110.5 41t-35.5 129v235q0 12 -2.5 14.5t-13.5 4.5l-45 5l13 111h259v-338q0 -27 6 -37t23 -10q21 0 43 12v238q0 12 -2.5 14.5t-13.5 4.5l-26 5l13 111h240v-398q0 -9 2.5 -13t12.5 -5l46 -7v-105z" />
    <glyph glyph-name="v" unicode="v" horiz-adv-x="667" 
d="M455 0h-246l-149 394q-4 9 -8 12t-13 5l-41 9l20 108h330v-108l-59 -8l69 -205h12l74 205l-62 8l15 108h272v-108l-38 -6q-20 -3 -25 -17z" />
    <glyph glyph-name="w" unicode="w" horiz-adv-x="917" 
d="M757 0h-220l-56 273h-10l-49 -273h-250l-111 392q-3 13 -19 17l-44 11l20 108h305v-110l-47 -6l47 -202h12l64 306h201l68 -307h10l44 203l-49 6l15 110h231v-108l-36 -7q-17 -3 -22 -20z" />
    <glyph glyph-name="x" unicode="x" horiz-adv-x="631" 
d="M621 0h-326v103l29 9l-41 55l-58 -54l40 -9v-104h-249v103l34 7q15 3 31 17l121 116l-135 150q-10 12 -24 17l-37 11l10 107h314v-107l-32 -8l46 -53l58 53l-42 8l10 107h238v-107l-44 -10q-9 -3 -25 -19l-113 -108l133 -154q14 -18 29 -20l33 -6v-104z" />
    <glyph glyph-name="y" unicode="y" horiz-adv-x="657" 
d="M518 -212h-395v107l78 10q23 2 33 22l27 57l-201 410q-4 13 -21 17l-41 9l20 108h319v-108l-59 -8l87 -189h12l76 189l-62 8l15 108h253v-108l-32 -6q-20 -4 -25 -17l-195 -490l111 -13v-106z" />
    <glyph glyph-name="z" unicode="z" horiz-adv-x="547" 
d="M524 0h-492v114l236 293h-79q-11 0 -14 -13l-12 -48l-144 -9v191h478v-116l-229 -292h79q13 0 16 13l12 64l149 6v-203z" />
    <glyph glyph-name="braceleft" unicode="{" horiz-adv-x="384" 
d="M344 -49l-10 -102q-150 -2 -207 30t-57 121q0 26 7.5 81.5t7.5 98.5q0 30 -11 42.5t-44 16.5v99q33 4 44 16.5t11 42.5q0 43 -7.5 98t-7.5 81q0 89 57 121t207 30l10 -102q-32 -8 -44 -22.5t-12 -49.5q0 -25 9 -75t9 -79q0 -86 -58 -111q58 -25 58 -110q0 -28 -9 -79
t-9 -76q0 -35 12 -49.5t44 -22.5z" />
    <glyph glyph-name="bar" unicode="|" horiz-adv-x="312" 
d="M252 -143h-192v898h192v-898z" />
    <glyph glyph-name="braceright" unicode="}" horiz-adv-x="384" 
d="M50 -151l-10 102q32 8 44 22.5t12 49.5q0 25 -9 76t-9 79q0 85 58 110q-58 25 -58 111q0 29 9 79t9 75q0 35 -12 49.5t-44 22.5l10 102q150 2 207 -30t57 -121q0 -26 -7.5 -81t-7.5 -98q0 -30 11 -42.5t44 -16.5v-99q-33 -4 -44 -16.5t-11 -42.5q0 -43 7.5 -98.5
t7.5 -81.5q0 -89 -57 -121t-207 -30z" />
    <glyph glyph-name="asciitilde" unicode="~" horiz-adv-x="566" 
d="M436 495l103 -40q-13 -90 -44.5 -130t-83.5 -40q-38 0 -113 23t-103 23q-27 0 -42.5 -8t-28.5 -35l-97 49q12 67 51.5 113.5t90.5 46.5q39 0 110 -23t102 -23q23 0 34.5 8.5t20.5 35.5z" />
    <glyph glyph-name="exclamdown" unicode="&#xa1;" horiz-adv-x="321" 
d="M75 310h177l22 -331v-187h-221v187zM269 435q0 -93 -105 -93q-106 0 -106 93t106 93q105 0 105 -93z" />
    <glyph glyph-name="cent" unicode="&#xa2;" horiz-adv-x="539" 
d="M30 288q0 92 43 155.5t124 88.5v114h193v-108q65 -11 122 -44v-169l-144 5l-10 58q-3 14 -11 17q-11 5 -30 5q-31 0 -45.5 -27.5t-14.5 -88.5q0 -70 11.5 -97.5t46.5 -27.5q20 0 31 4q8 3 10 17l11 59l144 5v-169q-59 -37 -134 -47v-105h-193v114q-154 43 -154 241z" />
    <glyph glyph-name="sterling" unicode="&#xa3;" horiz-adv-x="574" 
d="M552 0h-529l-19 121q26 7 39 17t21 37t8 78v9h-60v148h60v20q0 46 9.5 82.5t35 73t79.5 57t133 20.5q229 0 229 -184l-190 -24q0 41 -7 55t-33 14q-47 0 -47 -80v-34h110v-148h-110q0 -38 -15.5 -75t-39.5 -61h151q11 0 14 13l15 73h146v-212z" />
    <glyph glyph-name="currency" unicode="&#xa4;" 
d="M554 93l-107 -106l-83 83q-49 -22 -106 -22q-60 0 -108 23l-83 -84l-104 105l83 88q-17 44 -17 98t18 93l-81 86l107 106l80 -80q48 25 111 25t110 -22l77 76l103 -104l-77 -82q16 -37 16 -94q0 -56 -21 -103zM262 191q33 0 51.5 24.5t18.5 62.5q0 85 -72 85
q-34 0 -52 -23t-18 -62q0 -38 18 -62.5t54 -24.5z" />
    <glyph glyph-name="yen" unicode="&#xa5;" horiz-adv-x="675" 
d="M572 197h-124v-66q0 -11 2.5 -14.5t13.5 -4.5l112 -8v-104h-466v104l105 7q16 1 16 17v69h-116v160h60l-106 156q-9 13 -24 17l-45 11l10 103h332v-103l-49 -9l68 -116h6l73 116l-50 9l10 103h275v-103l-42 -11q-14 -3 -25 -19l-104 -154h68v-160z" />
    <glyph glyph-name="brokenbar" unicode="&#xa6;" horiz-adv-x="312" 
d="M252 -143h-192v388h192v-388zM252 420h-192v335h192v-335z" />
    <glyph glyph-name="section" unicode="&#xa7;" horiz-adv-x="597" 
d="M60 -104v140l147 -9l9 -45q1 -9 12 -14q18 -8 57 -8q58 0 58 34q0 11 -7 19t-25.5 14.5t-30 9.5t-41.5 9q-31 7 -50.5 12.5t-47 18t-43 27.5t-27 41t-11.5 59q0 80 72 141q-51 41 -51 114q0 86 66.5 132.5t167.5 46.5q59 0 119.5 -10t89.5 -22v-150l-147 8l-6 36
q-1 11 -13 15q-20 7 -49 7q-21 0 -36.5 -9t-15.5 -24q0 -17 20.5 -26t62.5 -19q9 -2 14 -3q39 -10 64 -19t56 -27.5t47 -48.5t16 -72q0 -89 -61 -133q40 -37 40 -95q0 -94 -62.5 -141t-177.5 -47q-70 0 -134.5 13t-81.5 25zM301 277l-59 18q-19 -19 -19 -39q0 -16 18 -25
t56 -19l50 -14q25 15 25 37q0 14 -16 22t-55 20z" />
    <glyph glyph-name="dieresis" unicode="&#xa8;" horiz-adv-x="500" 
d="M226 672q0 -38 -23.5 -61.5t-62.5 -23.5q-38 0 -62.5 23.5t-24.5 61.5q0 39 24 61.5t63 22.5t62.5 -22.5t23.5 -61.5zM441 672q0 -38 -23.5 -61.5t-62.5 -23.5t-63 23.5t-24 61.5q0 39 24 61.5t63 22.5t62.5 -22.5t23.5 -61.5z" />
    <glyph glyph-name="copyright" unicode="&#xa9;" horiz-adv-x="778" 
d="M728 326q0 -152 -94 -245t-245 -93q-162 0 -250.5 90.5t-88.5 233.5q0 155 97.5 246t243.5 91q156 0 246.5 -87.5t90.5 -235.5zM391 81q110 0 173 63.5t63 175.5t-65 174t-171 62q-105 0 -171.5 -65t-66.5 -178q0 -109 63 -170.5t175 -61.5zM515 268v-112
q-41 -24 -117 -24q-185 0 -185 182q0 91 48 140.5t139 49.5q63 0 116 -20v-117h-66l-4 52q-20 8 -44 8q-41 0 -60 -25.5t-19 -84.5q0 -108 82 -108q25 0 41 8l8 51h61z" />
    <glyph glyph-name="ordfeminine" unicode="&#xaa;" horiz-adv-x="435" 
d="M425 281h-169l-7 35l-5 1q-44 -44 -109 -44q-108 0 -108 104q0 52 32.5 74.5t104.5 27.5l63 4v38q0 27 -20 27q-14 0 -17.5 -7t-2.5 -28l-149 10q0 117 173 117q91 0 131.5 -27t40.5 -97v-142q0 -8 2 -10t9 -3l31 -5v-75zM227 370v51l-14 -1q-28 -2 -28 -29q0 -24 25 -24
q6 0 17 3z" />
    <glyph glyph-name="guillemotleft" unicode="&#xab;" horiz-adv-x="495" 
d="M257 103h-160l-84 152l89 153h162l-85 -141q-6 -9 -1 -19zM468 103h-160l-84 152l89 153h162l-85 -141q-6 -9 -1 -19z" />
    <glyph glyph-name="logicalnot" unicode="&#xac;" 
d="M473 152h-141v95h-256v153h397v-248z" />
    <glyph glyph-name="uni00AD" unicode="&#xad;" horiz-adv-x="311" 
d="M296 207h-271v165h271v-165z" />
    <glyph glyph-name="registered" unicode="&#xae;" horiz-adv-x="463" 
d="M428 480q0 -86 -55.5 -140.5t-141.5 -54.5q-92 0 -144 53t-52 135q0 88 56.5 142t140.5 54q89 0 142.5 -52t53.5 -137zM370 477q0 66 -38.5 102t-99.5 36q-60 0 -99 -38t-39 -103q0 -63 37 -99t101 -36t101 37t37 101zM328 384h-68l-17 59q-4 13 -16 13h-8v-33q0 -6 6 -7
l13 -2v-30h-90v30l13 2q5 1 5 7v111q0 6 -5 7l-13 2v32h90q73 0 73 -54q0 -39 -33 -49q13 -4 19 -20l10 -30q2 -5 8 -6l13 -2v-30zM219 493h14q25 0 25 23q0 21 -24 21h-15v-44z" />
    <glyph glyph-name="macron" unicode="&#xaf;" horiz-adv-x="500" 
d="M413 587h-327v130h327v-130z" />
    <glyph glyph-name="degree" unicode="&#xb0;" horiz-adv-x="304" 
d="M152 623q17 0 30.5 14.5t13.5 32.5t-13.5 31.5t-30.5 13.5q-16 0 -30 -14t-14 -33q0 -18 13 -31.5t31 -13.5zM278 670q0 -55 -36 -90.5t-90 -35.5q-55 0 -90.5 35t-35.5 88q0 56 37 91.5t89 35.5q53 0 89.5 -35t36.5 -89z" />
    <glyph glyph-name="plusminus" unicode="&#xb1;" 
d="M483 0h-397v152h397v-152zM362 139h-156v109h-120v153h120v130h156v-130h121v-153h-121v-109z" />
    <glyph glyph-name="twosuperior" unicode="&#xb2;" horiz-adv-x="433" 
d="M408 350h-384v95l148 146q58 58 58 86q0 22 -22 22q-29 0 -29 -49l-155 13q1 152 193 152q89 0 131.5 -34.5t42.5 -92.5t-58 -119l-116 -121h56q8 0 9 8l6 38h120v-144z" />
    <glyph glyph-name="threesuperior" unicode="&#xb3;" horiz-adv-x="446" 
d="M327 585v-2q96 -17 96 -102q0 -64 -59.5 -101.5t-149.5 -37.5q-62 0 -115 17.5t-83 46.5l79 97q51 -41 101 -41q45 0 45 33q0 16 -9.5 21t-29.5 5q-16 0 -51 -6v105l24 3q34 4 47.5 13.5t13.5 36.5t-22 27q-14 0 -19 -10.5t-6 -32.5l-154 13q0 44 16.5 74t46.5 44.5
t61.5 20t72.5 5.5q91 0 134 -29t43 -93q0 -38 -23 -68.5t-59 -38.5z" />
    <glyph glyph-name="acute" unicode="&#xb4;" horiz-adv-x="500" 
d="M385 709l-181 -152l-74 64l152 183z" />
    <glyph glyph-name="mu" unicode="&#xb5;" horiz-adv-x="629" 
d="M618 0h-230l-8 42l-6 1q-37 -43 -108 -55l16 -164h-220v704h211v-335q0 -29 7 -39t23 -10q15 0 43 11v373h211v-398q0 -16 14 -18l47 -7v-105z" />
    <glyph glyph-name="paragraph" unicode="&#xb6;" horiz-adv-x="727" 
d="M677 -133h-224v661h-56v-661h-221v87l63 7q17 2 17 20v181q-221 11 -221 233q0 130 77.5 190t207.5 60h357v-104l-67 -8q-11 -1 -13.5 -4.5t-2.5 -14.5v-533q0 -12 3 -15t13 -5l67 -8v-86z" />
    <glyph glyph-name="periodcentered" unicode="&#xb7;" horiz-adv-x="283" 
d="M247 338q0 -93 -105 -93q-106 0 -106 93t106 93q105 0 105 -93z" />
    <glyph glyph-name="cedilla" unicode="&#xb8;" horiz-adv-x="500" 
d="M132 -273l7 83q7 -1 19 -1q64 0 64 47q0 35 -61 37l17 137l86 -8l-9 -68q84 -19 84 -97q0 -56 -42.5 -94.5t-125.5 -38.5z" />
    <glyph glyph-name="onesuperior" unicode="&#xb9;" horiz-adv-x="332" 
d="M324 350h-301v86l47 4q11 1 11 14v234q0 11 -9 14l-51 13l12 89h232v-350q0 -8 1.5 -10t9.5 -4l48 -4v-86z" />
    <glyph glyph-name="ordmasculine" unicode="&#xba;" horiz-adv-x="452" 
d="M224 273q-102 0 -151.5 50t-49.5 136q0 84 52.5 132.5t155.5 48.5q102 0 150 -47.5t48 -130.5q0 -89 -51 -139t-154 -50zM227 373q35 0 35 86q0 80 -33 80q-38 0 -38 -81q0 -85 36 -85z" />
    <glyph glyph-name="guillemotright" unicode="&#xbb;" horiz-adv-x="495" 
d="M187 103h-160l79 147q5 10 -1 19l-85 139h162l89 -152zM398 103h-160l79 147q5 10 -1 19l-85 139h162l89 -152z" />
    <glyph glyph-name="onequarter" unicode="&#xbc;" horiz-adv-x="1070" 
d="M377 281h-301v86l47 4q11 1 11 14v234q0 11 -9 14l-51 13l12 89h232v-350q0 -8 1.5 -10t9.5 -4l48 -4v-86zM453 -17h-192l357 741h191zM976 0h-164v78h-205v90l209 286h159v-280h52v-94h-51v-80zM811 174v109h-5l-79 -109h84z" />
    <glyph glyph-name="onehalf" unicode="&#xbd;" horiz-adv-x="1070" 
d="M347 281h-301v86l47 4q11 1 11 14v234q0 11 -9 14l-51 13l12 89h232v-350q0 -8 1.5 -10t9.5 -4l48 -4v-86zM427 -17h-192l357 741h191zM1026 0h-384v95l148 146q58 58 58 86q0 22 -22 22q-29 0 -29 -49l-155 13q1 152 193 152q89 0 131.5 -34.5t42.5 -92.5t-58 -119
l-116 -121h56q8 0 9 8l6 38h120v-144z" />
    <glyph glyph-name="threequarters" unicode="&#xbe;" horiz-adv-x="1070" 
d="M330 516v-2q96 -16 96 -102q0 -64 -59.5 -101.5t-149.5 -37.5q-61 0 -114.5 17.5t-83.5 46.5l79 97q51 -41 101 -41q45 0 45 33q0 16 -9.5 21t-29.5 5q-17 0 -51 -6v105l24 3q34 4 47.5 13.5t13.5 36.5t-22 27q-14 0 -19 -10.5t-6 -32.5l-154 13q0 44 16.5 74t46.5 44.5
t61.5 20t72.5 5.5q91 0 134 -29t43 -93q0 -38 -23 -68.5t-59 -38.5zM460 -17h-192l357 741h191zM964 0h-164v78h-205v90l209 286h159v-280h52v-94h-51v-80zM799 174v109h-5l-79 -109h84z" />
    <glyph glyph-name="questiondown" unicode="&#xbf;" horiz-adv-x="580" 
d="M247 310h211v-187q-31 -2 -50.5 -4.5t-47.5 -7t-46 -13t-35.5 -20.5t-26 -31t-8.5 -43q0 -34 17 -50t42 -16q23 0 41 5q14 4 15 19l11 81l172 14v-214q-133 -51 -253 -51q-262 0 -262 218q0 95 53 159t167 74v67zM247 435q0 93 105 93q106 0 106 -93t-106 -93
q-105 0 -105 93z" />
    <glyph glyph-name="Agrave" unicode="&#xc0;" horiz-adv-x="805" 
d="M807 0h-385v103l80 9l-18 49h-216l-17 -49l78 -9v-103h-331v103l46 11q20 5 25 19l217 591h238l212 -593q4 -12 24 -17l47 -11v-103zM447 304l-65 210h-7l-68 -210h140zM497 767l-240 78l59 125l224 -115z" />
    <glyph glyph-name="Aacute" unicode="&#xc1;" horiz-adv-x="805" 
d="M807 0h-385v103l80 9l-18 49h-216l-17 -49l78 -9v-103h-331v103l46 11q20 5 25 19l217 591h238l212 -593q4 -12 24 -17l47 -11v-103zM447 304l-65 210h-7l-68 -210h140zM567 844l-240 -77l-43 87l224 116z" />
    <glyph glyph-name="Acircumflex" unicode="&#xc2;" horiz-adv-x="805" 
d="M807 0h-385v103l80 9l-18 49h-216l-17 -49l78 -9v-103h-331v103l46 11q20 5 25 19l217 591h238l212 -593q4 -12 24 -17l47 -11v-103zM447 304l-65 210h-7l-68 -210h140zM523 767l-118 79l-118 -79l-68 73l124 120h124l124 -120z" />
    <glyph glyph-name="Atilde" unicode="&#xc3;" horiz-adv-x="805" 
d="M807 0h-385v103l80 9l-18 49h-216l-17 -49l78 -9v-103h-331v103l46 11q20 5 25 19l217 591h238l212 -593q4 -12 24 -17l47 -11v-103zM447 304l-65 210h-7l-68 -210h140zM596 899l-23 -49q-17 -36 -32 -53t-38 -17q-30 0 -116 24q-50 15 -53 15q-5 0 -16 -11l-23 -25
l-75 44l30 59q28 57 72 57q26 0 85 -17q64 -18 73 -18q6 0 12 7l21 26z" />
    <glyph glyph-name="Adieresis" unicode="&#xc4;" horiz-adv-x="805" 
d="M807 0h-385v103l80 9l-18 49h-216l-17 -49l78 -9v-103h-331v103l46 11q20 5 25 19l217 591h238l212 -593q4 -12 24 -17l47 -11v-103zM447 304l-65 210h-7l-68 -210h140zM382 865q0 -39 -23.5 -62t-62.5 -23t-63 23t-24 62q0 38 24 60.5t63 22.5t62.5 -22.5t23.5 -60.5z
M597 865q0 -39 -23.5 -62t-62.5 -23t-63 23t-24 62q0 38 24 60.5t63 22.5t62.5 -22.5t23.5 -60.5z" />
    <glyph glyph-name="Aring" unicode="&#xc5;" horiz-adv-x="805" 
d="M533 779q0 -26 -10 -53l213 -595q4 -12 24 -17l47 -11v-103h-385v103l80 9l-18 49h-216l-17 -49l78 -9v-103h-331v103l46 11q20 5 25 19l218 596q-8 22 -8 47q0 58 37.5 93.5t90.5 35.5q54 0 90 -35t36 -91zM447 304l-65 210h-7l-68 -210h140zM407 739q38 0 38 40
q0 42 -38 42q-40 0 -40 -41t40 -41z" />
    <glyph glyph-name="AE" unicode="&#xc6;" horiz-adv-x="987" 
d="M960 0h-572v103l64 7q15 1 15 16v158h-166l-67 -172l82 -9v-103h-318v103l42 11q17 5 25 24l200 470l-74 12v104h747v-239l-153 6l-14 75q-1 3 -1.5 5l-1 4t-2 2.5l-3 1t-4.5 0.5h-87v-145h202v-150h-202v-140h104q14 0 16 11l16 88h152v-243zM467 434v145h-57l-55 -145
h112z" />
    <glyph glyph-name="Ccedilla" unicode="&#xc7;" horiz-adv-x="681" 
d="M261 -273l8 83q6 -1 18 -1q64 0 64 47q0 35 -61 37l13 99q-288 34 -288 371q0 168 99.5 271t286.5 103q61 0 125.5 -15.5t108.5 -43.5v-232l-153 12l-15 98q-3 15 -15 19q-20 5 -54 5q-75 0 -116.5 -54t-41.5 -163q0 -112 39.5 -166.5t111.5 -54.5q37 0 60 5
q12 2 15.5 5.5t5.5 17.5l15 96h149v-220q-93 -54 -248 -58l-4 -34q84 -19 84 -97q0 -56 -42.5 -94.5t-124.5 -38.5z" />
    <glyph glyph-name="Egrave" unicode="&#xc8;" horiz-adv-x="627" 
d="M600 0h-584v103l63 7q10 1 13 5t3 15v463q0 12 -3 15.5t-13 4.5l-63 7v104h562v-239l-153 6l-14 75q-3 13 -17 13h-82v-142h202v-151h-202v-142h104q14 0 16 11l16 88h152v-243zM404 767l-240 78l59 125l224 -115z" />
    <glyph glyph-name="Eacute" unicode="&#xc9;" horiz-adv-x="627" 
d="M600 0h-584v103l63 7q10 1 13 5t3 15v463q0 12 -3 15.5t-13 4.5l-63 7v104h562v-239l-153 6l-14 75q-3 13 -17 13h-82v-142h202v-151h-202v-142h104q14 0 16 11l16 88h152v-243zM474 844l-240 -77l-43 87l224 116z" />
    <glyph glyph-name="Ecircumflex" unicode="&#xca;" horiz-adv-x="627" 
d="M600 0h-584v103l63 7q10 1 13 5t3 15v463q0 12 -3 15.5t-13 4.5l-63 7v104h562v-239l-153 6l-14 75q-3 13 -17 13h-82v-142h202v-151h-202v-142h104q14 0 16 11l16 88h152v-243zM430 767l-118 79l-118 -79l-68 73l124 120h124l124 -120z" />
    <glyph glyph-name="Edieresis" unicode="&#xcb;" horiz-adv-x="627" 
d="M600 0h-584v103l63 7q10 1 13 5t3 15v463q0 12 -3 15.5t-13 4.5l-63 7v104h562v-239l-153 6l-14 75q-3 13 -17 13h-82v-142h202v-151h-202v-142h104q14 0 16 11l16 88h152v-243zM289 865q0 -39 -23.5 -62t-62.5 -23t-63 23t-24 62q0 38 24 60.5t63 22.5t62.5 -22.5
t23.5 -60.5zM504 865q0 -39 -23.5 -62t-62.5 -23t-63 23t-24 62q0 38 24 60.5t63 22.5t62.5 -22.5t23.5 -60.5z" />
    <glyph glyph-name="Igrave" unicode="&#xcc;" horiz-adv-x="417" 
d="M410 0h-399v103l73 8q10 1 13 4.5t3 15.5v461q0 12 -3 15.5t-13 4.5l-73 7v105h399v-105l-77 -8q-11 -1 -13.5 -4.5t-2.5 -14.5v-461q0 -12 2.5 -15.5t13.5 -4.5l77 -8v-103zM303 767l-240 78l59 125l224 -115z" />
    <glyph glyph-name="Iacute" unicode="&#xcd;" horiz-adv-x="417" 
d="M410 0h-399v103l73 8q10 1 13 4.5t3 15.5v461q0 12 -3 15.5t-13 4.5l-73 7v105h399v-105l-77 -8q-11 -1 -13.5 -4.5t-2.5 -14.5v-461q0 -12 2.5 -15.5t13.5 -4.5l77 -8v-103zM373 844l-240 -77l-43 87l224 116z" />
    <glyph glyph-name="Icircumflex" unicode="&#xce;" horiz-adv-x="417" 
d="M410 0h-399v103l73 8q10 1 13 4.5t3 15.5v461q0 12 -3 15.5t-13 4.5l-73 7v105h399v-105l-77 -8q-11 -1 -13.5 -4.5t-2.5 -14.5v-461q0 -12 2.5 -15.5t13.5 -4.5l77 -8v-103zM329 767l-118 79l-118 -79l-68 73l124 120h124l124 -120z" />
    <glyph glyph-name="Idieresis" unicode="&#xcf;" horiz-adv-x="417" 
d="M410 0h-399v103l73 8q10 1 13 4.5t3 15.5v461q0 12 -3 15.5t-13 4.5l-73 7v105h399v-105l-77 -8q-11 -1 -13.5 -4.5t-2.5 -14.5v-461q0 -12 2.5 -15.5t13.5 -4.5l77 -8v-103zM188 865q0 -39 -23.5 -62t-62.5 -23t-63 23t-24 62q0 38 24 60.5t63 22.5t62.5 -22.5
t23.5 -60.5zM403 865q0 -39 -23.5 -62t-62.5 -23t-63 23t-24 62q0 38 24 60.5t63 22.5t62.5 -22.5t23.5 -60.5z" />
    <glyph glyph-name="Eth" unicode="&#xd0;" horiz-adv-x="747" 
d="M358 0h-332v105l63 7q10 1 13 4.5t3 15.5v156h-67v145h67v160q0 11 -3 15t-13 5l-63 7v104h349q183 0 271 -91.5t88 -259.5q0 -173 -94 -273t-282 -100zM322 143h14q55 0 91.5 17t54.5 50t25 70t7 89q0 112 -39.5 161.5t-141.5 49.5h-11v-147h107v-145h-107v-145z" />
    <glyph glyph-name="Ntilde" unicode="&#xd1;" horiz-adv-x="831" 
d="M738 0h-220l-272 440v-309q0 -12 2.5 -15.5t13.5 -4.5l67 -8v-103h-313v103l63 7q10 1 13 5t3 15v464q0 12 -3 15.5t-13 4.5l-63 7v103h298l274 -445v313q0 12 -3 15.5t-13 4.5l-63 7v105h312v-105l-67 -8q-11 -1 -13.5 -4.5t-2.5 -14.5v-592zM594 899l-23 -49
q-17 -36 -32 -53t-38 -17q-30 0 -116 24q-50 15 -53 15q-5 0 -16 -11l-23 -25l-75 44l30 59q28 57 72 57q26 0 85 -17q64 -18 73 -18q6 0 12 7l21 26z" />
    <glyph glyph-name="Ograve" unicode="&#xd2;" horiz-adv-x="747" 
d="M367 -12q-181 0 -266.5 98.5t-85.5 268.5t94 276t272 106q176 0 263.5 -102.5t87.5 -264.5q0 -180 -91.5 -281t-273.5 -101zM376 156q64 0 98.5 45.5t34.5 159.5q0 111 -33 159.5t-96 48.5q-142 0 -142 -209q0 -113 35.5 -158.5t102.5 -45.5zM472 774l-240 78l59 125
l224 -115z" />
    <glyph glyph-name="Oacute" unicode="&#xd3;" horiz-adv-x="747" 
d="M367 -12q-181 0 -266.5 98.5t-85.5 268.5t94 276t272 106q176 0 263.5 -102.5t87.5 -264.5q0 -180 -91.5 -281t-273.5 -101zM376 156q64 0 98.5 45.5t34.5 159.5q0 111 -33 159.5t-96 48.5q-142 0 -142 -209q0 -113 35.5 -158.5t102.5 -45.5zM542 851l-240 -77l-43 87
l224 116z" />
    <glyph glyph-name="Ocircumflex" unicode="&#xd4;" horiz-adv-x="747" 
d="M367 -12q-181 0 -266.5 98.5t-85.5 268.5t94 276t272 106q176 0 263.5 -102.5t87.5 -264.5q0 -180 -91.5 -281t-273.5 -101zM376 156q64 0 98.5 45.5t34.5 159.5q0 111 -33 159.5t-96 48.5q-142 0 -142 -209q0 -113 35.5 -158.5t102.5 -45.5zM498 774l-118 79l-118 -79
l-68 73l124 120h124l124 -120z" />
    <glyph glyph-name="Otilde" unicode="&#xd5;" horiz-adv-x="747" 
d="M367 -12q-181 0 -266.5 98.5t-85.5 268.5t94 276t272 106q176 0 263.5 -102.5t87.5 -264.5q0 -180 -91.5 -281t-273.5 -101zM376 156q64 0 98.5 45.5t34.5 159.5q0 111 -33 159.5t-96 48.5q-142 0 -142 -209q0 -113 35.5 -158.5t102.5 -45.5zM571 906l-23 -49
q-17 -36 -32 -53t-38 -17q-30 0 -116 24q-50 15 -53 15q-5 0 -16 -11l-23 -25l-75 44l30 59q29 57 72 57q26 0 85 -17q64 -18 73 -18q6 0 12 7l21 26z" />
    <glyph glyph-name="Odieresis" unicode="&#xd6;" horiz-adv-x="747" 
d="M367 -12q-181 0 -266.5 98.5t-85.5 268.5t94 276t272 106q176 0 263.5 -102.5t87.5 -264.5q0 -180 -91.5 -281t-273.5 -101zM376 156q64 0 98.5 45.5t34.5 159.5q0 111 -33 159.5t-96 48.5q-142 0 -142 -209q0 -113 35.5 -158.5t102.5 -45.5zM357 872q0 -39 -23.5 -62
t-62.5 -23t-63 23t-24 62q0 38 24 60.5t63 22.5t62.5 -22.5t23.5 -60.5zM572 872q0 -39 -23.5 -62t-62.5 -23t-63 23t-24 62q0 38 24 60.5t63 22.5t62.5 -22.5t23.5 -60.5z" />
    <glyph glyph-name="multiply" unicode="&#xd7;" 
d="M378 120l-93 92l-92 -92l-111 110l93 92l-93 92l111 111l92 -92l93 92l110 -111l-92 -92l92 -92z" />
    <glyph glyph-name="Oslash" unicode="&#xd8;" horiz-adv-x="747" 
d="M367 -12q-29 0 -55 3l-29 -70h-193l51 129q-126 92 -126 305q0 170 94 276t272 106q27 0 52 -3l26 61h193l-49 -123q129 -96 129 -302q0 -180 -91.5 -281t-273.5 -101zM376 156q64 0 98.5 45.5t34.5 159.5q0 67 -12 111l-132 -316h11zM238 360q0 -56 10 -101l130 310
q-140 -2 -140 -209z" />
    <glyph glyph-name="Ugrave" unicode="&#xd9;" horiz-adv-x="783" 
d="M516 313v280q0 12 -3 15.5t-13 4.5l-63 7v104h343v-104l-67 -8q-11 -1 -13.5 -4.5t-2.5 -14.5v-316q0 -289 -302 -289q-161 0 -235 70t-74 225v310q0 12 -3 15.5t-13 4.5l-63 7v104h379v-104l-67 -8q-11 -1 -13.5 -4.5t-2.5 -14.5v-275q0 -35 1 -53.5t6.5 -41.5t16.5 -34
t32 -19t51 -8q64 0 85 33.5t21 117.5zM504 767l-240 78l59 125l224 -115z" />
    <glyph glyph-name="Uacute" unicode="&#xda;" horiz-adv-x="783" 
d="M516 313v280q0 12 -3 15.5t-13 4.5l-63 7v104h343v-104l-67 -8q-11 -1 -13.5 -4.5t-2.5 -14.5v-316q0 -289 -302 -289q-161 0 -235 70t-74 225v310q0 12 -3 15.5t-13 4.5l-63 7v104h379v-104l-67 -8q-11 -1 -13.5 -4.5t-2.5 -14.5v-275q0 -35 1 -53.5t6.5 -41.5t16.5 -34
t32 -19t51 -8q64 0 85 33.5t21 117.5zM574 844l-240 -77l-43 87l224 116z" />
    <glyph glyph-name="Ucircumflex" unicode="&#xdb;" horiz-adv-x="783" 
d="M516 313v280q0 12 -3 15.5t-13 4.5l-63 7v104h343v-104l-67 -8q-11 -1 -13.5 -4.5t-2.5 -14.5v-316q0 -289 -302 -289q-161 0 -235 70t-74 225v310q0 12 -3 15.5t-13 4.5l-63 7v104h379v-104l-67 -8q-11 -1 -13.5 -4.5t-2.5 -14.5v-275q0 -35 1 -53.5t6.5 -41.5t16.5 -34
t32 -19t51 -8q64 0 85 33.5t21 117.5zM530 767l-118 79l-118 -79l-68 73l124 120h124l124 -120z" />
    <glyph glyph-name="Udieresis" unicode="&#xdc;" horiz-adv-x="783" 
d="M516 313v280q0 12 -3 15.5t-13 4.5l-63 7v104h343v-104l-67 -8q-11 -1 -13.5 -4.5t-2.5 -14.5v-316q0 -289 -302 -289q-161 0 -235 70t-74 225v310q0 12 -3 15.5t-13 4.5l-63 7v104h379v-104l-67 -8q-11 -1 -13.5 -4.5t-2.5 -14.5v-275q0 -35 1 -53.5t6.5 -41.5t16.5 -34
t32 -19t51 -8q64 0 85 33.5t21 117.5zM389 865q0 -39 -23.5 -62t-62.5 -23t-63 23t-24 62q0 38 24 60.5t63 22.5t62.5 -22.5t23.5 -60.5zM604 865q0 -39 -23.5 -62t-62.5 -23t-63 23t-24 62q0 38 24 60.5t63 22.5t62.5 -22.5t23.5 -60.5z" />
    <glyph glyph-name="Yacute" unicode="&#xdd;" horiz-adv-x="734" 
d="M617 0h-467v104l105 8q10 1 13 4.5t3 15.5v128l-196 333q-8 13 -21 16l-48 12l10 103h362v-103l-71 -9l86 -171h13l88 171l-71 9l10 103h295v-103l-46 -12q-13 -3 -22 -20l-172 -328v-129q0 -11 2.5 -14.5t13.5 -4.5l113 -9v-104zM550 844l-240 -77l-43 87l224 116z" />
    <glyph glyph-name="Thorn" unicode="&#xde;" horiz-adv-x="639" 
d="M470 0h-454v104l63 7q10 1 13 5t3 15v461q0 12 -3 15.5t-13 4.5l-63 7v105h375v-105l-64 -7q-16 -2 -16 -19v-13h74q241 0 241 -193q0 -113 -71.5 -168.5t-202.5 -55.5h-41v-31q0 -12 2.5 -15.5t13.5 -4.5l143 -8v-104zM311 304h7q86 0 86 69q0 22 -8 35.5t-22.5 19
t-24 6.5t-24.5 1h-14v-131z" />
    <glyph glyph-name="germandbls" unicode="&#xdf;" horiz-adv-x="650" 
d="M276 0h-263v105l36 6q10 1 13 4.5t3 15.5v398q0 129 67 183.5t206 54.5q251 0 251 -201q0 -73 -36 -114.5t-74 -52.5v-5q33 -6 54 -14t46 -27.5t37.5 -57t12.5 -92.5q0 -41 -9 -77.5t-29.5 -68.5t-58.5 -50.5t-90 -18.5q-88 0 -151 36l42 111q20 -9 39 -9q20 0 29 20
t9 76q0 54 -18 72t-51 18q-31 -2 -43 -4v138l17 3q32 6 44 26t12 70q0 44 -10.5 65.5t-36.5 21.5q-24 0 -36 -14.5t-12 -62.5v-555z" />
    <glyph glyph-name="agrave" unicode="&#xe0;" horiz-adv-x="574" 
d="M573 0h-228l-11 50l-7 2q-60 -64 -155 -64q-152 0 -152 159q0 73 46.5 108t145.5 42l95 7v56q0 16 -1 24t-10 16.5t-26 8.5q-22 0 -29.5 -11.5t-7.5 -44.5l-196 14q0 172 238 172q126 0 181.5 -40.5t55.5 -145.5v-221q0 -12 2.5 -15.5t13.5 -4.5l45 -8v-104zM307 130v79
l-23 -2q-49 -4 -49 -45q0 -38 40 -38q14 0 32 6zM408 621l-74 -64l-181 152l104 95z" />
    <glyph glyph-name="aacute" unicode="&#xe1;" horiz-adv-x="574" 
d="M573 0h-228l-11 50l-7 2q-60 -64 -155 -64q-152 0 -152 159q0 73 46.5 108t145.5 42l95 7v56q0 16 -1 24t-10 16.5t-26 8.5q-22 0 -29.5 -11.5t-7.5 -44.5l-196 14q0 172 238 172q126 0 181.5 -40.5t55.5 -145.5v-221q0 -12 2.5 -15.5t13.5 -4.5l45 -8v-104zM307 130v79
l-23 -2q-49 -4 -49 -45q0 -38 40 -38q14 0 32 6zM429 709l-181 -152l-74 64l152 183z" />
    <glyph glyph-name="acircumflex" unicode="&#xe2;" horiz-adv-x="574" 
d="M573 0h-228l-11 50l-7 2q-60 -64 -155 -64q-152 0 -152 159q0 73 46.5 108t145.5 42l95 7v56q0 16 -1 24t-10 16.5t-26 8.5q-22 0 -29.5 -11.5t-7.5 -44.5l-196 14q0 172 238 172q126 0 181.5 -40.5t55.5 -145.5v-221q0 -12 2.5 -15.5t13.5 -4.5l45 -8v-104zM307 130v79
l-23 -2q-49 -4 -49 -45q0 -38 40 -38q14 0 32 6zM454 621l-75 -65l-105 85l-105 -85l-75 65l118 136h124z" />
    <glyph glyph-name="atilde" unicode="&#xe3;" horiz-adv-x="574" 
d="M573 0h-228l-11 50l-7 2q-60 -64 -155 -64q-152 0 -152 159q0 73 46.5 108t145.5 42l95 7v56q0 16 -1 24t-10 16.5t-26 8.5q-22 0 -29.5 -11.5t-7.5 -44.5l-196 14q0 172 238 172q126 0 181.5 -40.5t55.5 -145.5v-221q0 -12 2.5 -15.5t13.5 -4.5l45 -8v-104zM307 130v79
l-23 -2q-49 -4 -49 -45q0 -38 40 -38q14 0 32 6zM465 691l-23 -49q-17 -36 -32 -53t-38 -17q-30 0 -116 24q-50 15 -53 15q-5 0 -16 -11l-23 -25l-75 44l30 59q29 57 72 57q26 0 85 -17q64 -18 73 -18q6 0 12 7l21 26z" />
    <glyph glyph-name="adieresis" unicode="&#xe4;" horiz-adv-x="574" 
d="M573 0h-228l-11 50l-7 2q-60 -64 -155 -64q-152 0 -152 159q0 73 46.5 108t145.5 42l95 7v56q0 16 -1 24t-10 16.5t-26 8.5q-22 0 -29.5 -11.5t-7.5 -44.5l-196 14q0 172 238 172q126 0 181.5 -40.5t55.5 -145.5v-221q0 -12 2.5 -15.5t13.5 -4.5l45 -8v-104zM307 130v79
l-23 -2q-49 -4 -49 -45q0 -38 40 -38q14 0 32 6zM251 672q0 -38 -23.5 -61.5t-62.5 -23.5q-38 0 -62.5 23.5t-24.5 61.5q0 39 24 61.5t63 22.5t62.5 -22.5t23.5 -61.5zM466 672q0 -38 -23.5 -61.5t-62.5 -23.5t-63 23.5t-24 61.5q0 39 24 61.5t63 22.5t62.5 -22.5
t23.5 -61.5z" />
    <glyph glyph-name="aring" unicode="&#xe5;" horiz-adv-x="574" 
d="M573 0h-228l-11 50l-7 2q-60 -64 -155 -64q-152 0 -152 159q0 73 46.5 108t145.5 42l95 7v56q0 16 -1 24t-10 16.5t-26 8.5q-22 0 -29.5 -11.5t-7.5 -44.5l-196 14q0 172 238 172q126 0 181.5 -40.5t55.5 -145.5v-221q0 -12 2.5 -15.5t13.5 -4.5l45 -8v-104zM307 130v79
l-23 -2q-49 -4 -49 -45q0 -38 40 -38q14 0 32 6zM395 681q0 -52 -32.5 -83.5t-82.5 -31.5q-51 0 -83.5 31t-32.5 80q0 53 34 85t82 32q49 0 82 -31t33 -82zM280 643q35 0 35 38q0 37 -35 37q-36 0 -36 -37q0 -38 36 -38z" />
    <glyph glyph-name="ae" unicode="&#xe6;" horiz-adv-x="828" 
d="M760 174l46 -128q-128 -58 -230 -58q-119 0 -189 65q-90 -65 -197 -65q-87 0 -128.5 47.5t-41.5 111.5q0 73 46.5 108t145.5 42l95 7v56q0 16 -1 24t-10 16.5t-26 8.5q-22 0 -29.5 -11.5t-7.5 -44.5l-196 14q0 172 225 172q119 0 167 -66q60 66 163 66q209 0 209 -252
q0 -23 -3 -61h-276q3 -44 23.5 -63.5t59.5 -19.5q53 0 155 31zM275 124q25 0 53 13q-11 28 -18 72l-26 -2q-49 -4 -49 -45q0 -38 40 -38zM521 329h78q0 42 -9.5 54.5t-28.5 12.5q-37 0 -40 -67z" />
    <glyph glyph-name="ccedilla" unicode="&#xe7;" horiz-adv-x="534" 
d="M455 163l47 -118q-85 -53 -191 -57l-4 -34q84 -19 84 -97q0 -56 -42.5 -94.5t-125.5 -38.5q-5 0 -10.5 0.5t-10.5 1t-9 0.5h-7l-2 1l7 83q7 -1 19 -1q64 0 64 47q0 35 -61 37l12 101q-104 17 -157 87.5t-53 173.5q0 135 78 209.5t207 74.5q59 0 116 -15.5t88 -37.5v-181
l-147 5l-12 67q-4 16 -12 18q-13 4 -33 4q-27 0 -45.5 -28.5t-18.5 -92.5q0 -81 27 -110t70 -29q47 0 122 24z" />
    <glyph glyph-name="egrave" unicode="&#xe8;" horiz-adv-x="543" 
d="M475 174l46 -128q-128 -58 -230 -58q-145 0 -210.5 75.5t-65.5 204.5q0 131 75.5 201t192.5 70q110 0 171.5 -62.5t61.5 -193.5q0 -23 -3 -61h-276q6 -79 83 -79q53 0 155 31zM234 325h82q1 42 -9.5 56.5t-30.5 14.5q-40 0 -42 -71zM409 621l-74 -64l-181 152l104 95z
" />
    <glyph glyph-name="eacute" unicode="&#xe9;" horiz-adv-x="543" 
d="M475 174l46 -128q-128 -58 -230 -58q-145 0 -210.5 75.5t-65.5 204.5q0 131 75.5 201t192.5 70q110 0 171.5 -62.5t61.5 -193.5q0 -23 -3 -61h-276q6 -79 83 -79q53 0 155 31zM234 325h82q1 42 -9.5 56.5t-30.5 14.5q-40 0 -42 -71zM405 709l-181 -152l-74 64l152 183z
" />
    <glyph glyph-name="ecircumflex" unicode="&#xea;" horiz-adv-x="543" 
d="M475 174l46 -128q-128 -58 -230 -58q-145 0 -210.5 75.5t-65.5 204.5q0 131 75.5 201t192.5 70q110 0 171.5 -62.5t61.5 -193.5q0 -23 -3 -61h-276q6 -79 83 -79q53 0 155 31zM234 325h82q1 42 -9.5 56.5t-30.5 14.5q-40 0 -42 -71zM455 621l-75 -65l-105 85l-105 -85
l-75 65l118 136h124z" />
    <glyph glyph-name="edieresis" unicode="&#xeb;" horiz-adv-x="543" 
d="M475 174l46 -128q-128 -58 -230 -58q-145 0 -210.5 75.5t-65.5 204.5q0 131 75.5 201t192.5 70q110 0 171.5 -62.5t61.5 -193.5q0 -23 -3 -61h-276q6 -79 83 -79q53 0 155 31zM234 325h82q1 42 -9.5 56.5t-30.5 14.5q-40 0 -42 -71zM252 672q0 -38 -23.5 -61.5
t-62.5 -23.5q-38 0 -62.5 23.5t-24.5 61.5q0 39 24 61.5t63 22.5t62.5 -22.5t23.5 -61.5zM467 672q0 -38 -23.5 -61.5t-62.5 -23.5t-63 23.5t-24 61.5q0 39 24 61.5t63 22.5t62.5 -22.5t23.5 -61.5z" />
    <glyph glyph-name="igrave" unicode="&#xec;" horiz-adv-x="336" 
d="M330 0h-316v104l36 7q10 1 13 5t3 15v249q0 17 -13 21l-51 19l14 108h261v-397q0 -12 2.5 -15.5t13.5 -4.5l37 -7v-104zM281 622l-74 -64l-181 152l104 95z" />
    <glyph glyph-name="iacute" unicode="&#xed;" horiz-adv-x="336" 
d="M330 0h-316v104l36 7q10 1 13 5t3 15v249q0 17 -13 21l-51 19l14 108h261v-397q0 -12 2.5 -15.5t13.5 -4.5l37 -7v-104zM277 710l-181 -152l-74 64l152 183z" />
    <glyph glyph-name="icircumflex" unicode="&#xee;" horiz-adv-x="336" 
d="M317 627l-75 -65l-95 85l-95 -85l-75 65l108 136h124zM330 0h-316v104l36 7q10 1 13 5t3 15v249q0 17 -13 21l-51 19l14 108h261v-397q0 -12 2.5 -15.5t13.5 -4.5l37 -7v-104z" />
    <glyph glyph-name="idieresis" unicode="&#xef;" horiz-adv-x="336" 
d="M127 668q0 -38 -23.5 -61.5t-62.5 -23.5q-38 0 -62.5 23.5t-24.5 61.5q0 39 24 61.5t63 22.5t62.5 -22.5t23.5 -61.5zM336 668q0 -38 -23.5 -61.5t-62.5 -23.5t-63 23.5t-24 61.5q0 39 24 61.5t63 22.5t62.5 -22.5t23.5 -61.5zM330 0h-316v104l36 7q10 1 13 5t3 15v249
q0 17 -13 21l-51 19l14 108h261v-397q0 -12 2.5 -15.5t13.5 -4.5l37 -7v-104z" />
    <glyph glyph-name="eth" unicode="&#xf0;" horiz-adv-x="605" 
d="M20 253q0 110 57 183t168 73q85 0 146 -46l4 5q-19 34 -60 63t-73.5 43t-78.5 30l-46 16l76 173q86 -20 152 -58l113 81l93 -128l-82 -57q97 -122 97 -306q0 -174 -74 -255.5t-222 -81.5q-134 0 -202 71t-68 194zM241 254q0 -54 10.5 -83.5t22 -36t28.5 -6.5
q20 0 33.5 11t24 52t10.5 112q0 22 -4 53q-34 19 -60 19q-13 0 -22.5 -3t-20.5 -14t-16.5 -37t-5.5 -67z" />
    <glyph glyph-name="ntilde" unicode="&#xf1;" horiz-adv-x="619" 
d="M619 0h-270v336q0 25 -6.5 35t-22.5 10q-18 0 -43 -12v-238q0 -12 3 -16t14 -6l25 -5v-104h-309v104l40 7q10 1 13 5t3 15v249q0 17 -13 21l-50 19l14 108h219l8 -44h7q76 55 163 55q75 0 110.5 -40.5t35.5 -127.5v-240q0 -12 2.5 -15.5t13.5 -4.5l43 -7v-104zM487 691
l-23 -49q-17 -36 -32 -53t-38 -17q-30 0 -116 24q-50 15 -53 15q-5 0 -16 -11l-23 -25l-75 44l30 59q29 57 72 57q26 0 85 -17q64 -18 73 -18q6 0 12 7l21 26z" />
    <glyph glyph-name="ograve" unicode="&#xf2;" horiz-adv-x="594" 
d="M293 -12q-278 0 -278 276q0 129 72.5 202t215.5 73q142 0 209 -72t67 -196q0 -134 -71 -208.5t-215 -74.5zM298 128q61 0 61 139q0 73 -15.5 101t-43.5 28q-64 0 -64 -130q0 -77 16 -107.5t46 -30.5zM437 621l-74 -64l-181 152l104 95z" />
    <glyph glyph-name="oacute" unicode="&#xf3;" horiz-adv-x="594" 
d="M293 -12q-278 0 -278 276q0 129 72.5 202t215.5 73q142 0 209 -72t67 -196q0 -134 -71 -208.5t-215 -74.5zM298 128q61 0 61 139q0 73 -15.5 101t-43.5 28q-64 0 -64 -130q0 -77 16 -107.5t46 -30.5zM433 709l-181 -152l-74 64l152 183z" />
    <glyph glyph-name="ocircumflex" unicode="&#xf4;" horiz-adv-x="594" 
d="M293 -12q-278 0 -278 276q0 129 72.5 202t215.5 73q142 0 209 -72t67 -196q0 -134 -71 -208.5t-215 -74.5zM298 128q61 0 61 139q0 73 -15.5 101t-43.5 28q-64 0 -64 -130q0 -77 16 -107.5t46 -30.5zM483 621l-75 -65l-105 85l-105 -85l-75 65l118 136h124z" />
    <glyph glyph-name="otilde" unicode="&#xf5;" horiz-adv-x="594" 
d="M293 -12q-278 0 -278 276q0 129 72.5 202t215.5 73q142 0 209 -72t67 -196q0 -134 -71 -208.5t-215 -74.5zM298 128q61 0 61 139q0 73 -15.5 101t-43.5 28q-64 0 -64 -130q0 -77 16 -107.5t46 -30.5zM494 691l-23 -49q-17 -36 -32 -53t-38 -17q-30 0 -116 24
q-50 15 -53 15q-5 0 -16 -11l-23 -25l-75 44l30 59q28 57 72 57q26 0 85 -17q64 -18 73 -18q6 0 12 7l21 26z" />
    <glyph glyph-name="odieresis" unicode="&#xf6;" horiz-adv-x="594" 
d="M293 -12q-278 0 -278 276q0 129 72.5 202t215.5 73q142 0 209 -72t67 -196q0 -134 -71 -208.5t-215 -74.5zM298 128q61 0 61 139q0 73 -15.5 101t-43.5 28q-64 0 -64 -130q0 -77 16 -107.5t46 -30.5zM280 672q0 -38 -23.5 -61.5t-62.5 -23.5q-38 0 -62.5 23.5t-24.5 61.5
q0 39 24 61.5t63 22.5t62.5 -22.5t23.5 -61.5zM495 672q0 -38 -23.5 -61.5t-62.5 -23.5t-63 23.5t-24 61.5q0 39 24 61.5t63 22.5t62.5 -22.5t23.5 -61.5z" />
    <glyph glyph-name="divide" unicode="&#xf7;" 
d="M378 138q0 -84 -93 -84q-94 0 -94 84q0 37 24 60.5t70 23.5t69.5 -23.5t23.5 -60.5zM483 245h-397v152h397v-152zM378 503q0 -84 -93 -84q-94 0 -94 84q0 37 24 60.5t70 23.5t69.5 -23.5t23.5 -60.5z" />
    <glyph glyph-name="oslash" unicode="&#xf8;" horiz-adv-x="594" 
d="M223 -76h-157l48 109q-99 68 -99 231q0 129 70.5 202t212.5 73q14 0 40 -2l28 63h156l-47 -106q104 -66 104 -223q0 -134 -71 -208.5t-215 -74.5q-15 0 -41 2zM298 115q72 0 72 152q0 17 -2 41l-85 -192q5 -1 15 -1zM225 266q0 -27 1 -39l81 181q-2 0 -4 0.5t-3 0.5
q-75 0 -75 -143z" />
    <glyph glyph-name="ugrave" unicode="&#xf9;" horiz-adv-x="619" 
d="M616 0h-230l-7 42l-7 2q-70 -56 -165 -56q-75 0 -110.5 41t-35.5 129v235q0 12 -2.5 14.5t-13.5 4.5l-45 5l13 111h259v-338q0 -27 6 -37t23 -10q21 0 43 12v238q0 12 -2.5 14.5t-13.5 4.5l-26 5l13 111h240v-398q0 -9 2.5 -13t12.5 -5l46 -7v-105zM427 621l-74 -64
l-181 152l104 95z" />
    <glyph glyph-name="uacute" unicode="&#xfa;" horiz-adv-x="619" 
d="M616 0h-230l-7 42l-7 2q-70 -56 -165 -56q-75 0 -110.5 41t-35.5 129v235q0 12 -2.5 14.5t-13.5 4.5l-45 5l13 111h259v-338q0 -27 6 -37t23 -10q21 0 43 12v238q0 12 -2.5 14.5t-13.5 4.5l-26 5l13 111h240v-398q0 -9 2.5 -13t12.5 -5l46 -7v-105zM423 709l-181 -152
l-74 64l152 183z" />
    <glyph glyph-name="ucircumflex" unicode="&#xfb;" horiz-adv-x="619" 
d="M616 0h-230l-7 42l-7 2q-70 -56 -165 -56q-75 0 -110.5 41t-35.5 129v235q0 12 -2.5 14.5t-13.5 4.5l-45 5l13 111h259v-338q0 -27 6 -37t23 -10q21 0 43 12v238q0 12 -2.5 14.5t-13.5 4.5l-26 5l13 111h240v-398q0 -9 2.5 -13t12.5 -5l46 -7v-105zM473 621l-75 -65
l-105 85l-105 -85l-75 65l118 136h124z" />
    <glyph glyph-name="udieresis" unicode="&#xfc;" horiz-adv-x="619" 
d="M616 0h-230l-7 42l-7 2q-70 -56 -165 -56q-75 0 -110.5 41t-35.5 129v235q0 12 -2.5 14.5t-13.5 4.5l-45 5l13 111h259v-338q0 -27 6 -37t23 -10q21 0 43 12v238q0 12 -2.5 14.5t-13.5 4.5l-26 5l13 111h240v-398q0 -9 2.5 -13t12.5 -5l46 -7v-105zM270 672
q0 -38 -23.5 -61.5t-62.5 -23.5q-38 0 -62.5 23.5t-24.5 61.5q0 39 24 61.5t63 22.5t62.5 -22.5t23.5 -61.5zM485 672q0 -38 -23.5 -61.5t-62.5 -23.5t-63 23.5t-24 61.5q0 39 24 61.5t63 22.5t62.5 -22.5t23.5 -61.5z" />
    <glyph glyph-name="yacute" unicode="&#xfd;" horiz-adv-x="657" 
d="M518 -212h-395v107l78 10q23 2 33 22l27 57l-201 410q-4 13 -21 17l-41 9l20 108h319v-108l-59 -8l87 -189h12l76 189l-62 8l15 108h253v-108l-32 -6q-20 -4 -25 -17l-195 -490l111 -13v-106zM475 709l-181 -152l-74 64l152 183z" />
    <glyph glyph-name="thorn" unicode="&#xfe;" horiz-adv-x="625" 
d="M396 -212h-394v105l38 6q11 2 15.5 6.5t4.5 15.5v686q0 16 -12 21l-52 19l13 108h256v-271l7 -2q41 32 70.5 44.5t64.5 12.5q90 0 143 -62.5t53 -202.5q0 -149 -56 -217.5t-146 -69.5q-77 0 -136 46v-110q0 -12 3 -15.5t14 -4.5l114 -11v-104zM269 366v-209
q28 -11 53 -11q58 0 58 121q0 111 -64 111q-24 0 -47 -12z" />
    <glyph glyph-name="ydieresis" unicode="&#xff;" horiz-adv-x="657" 
d="M518 -212h-395v107l78 10q23 2 33 22l27 57l-201 410q-4 13 -21 17l-41 9l20 108h319v-108l-59 -8l87 -189h12l76 189l-62 8l15 108h253v-108l-32 -6q-20 -4 -25 -17l-195 -490l111 -13v-106zM322 672q0 -38 -23.5 -61.5t-62.5 -23.5q-38 0 -62.5 23.5t-24.5 61.5
q0 39 24 61.5t63 22.5t62.5 -22.5t23.5 -61.5zM537 672q0 -38 -23.5 -61.5t-62.5 -23.5t-63 23.5t-24 61.5q0 39 24 61.5t63 22.5t62.5 -22.5t23.5 -61.5z" />
    <glyph glyph-name="Amacron" unicode="&#x100;" horiz-adv-x="805" 
d="M807 0h-385v103l80 9l-18 49h-216l-17 -49l78 -9v-103h-331v103l46 11q20 5 25 19l217 591h238l212 -593q4 -12 24 -17l47 -11v-103zM447 304l-65 210h-7l-68 -210h140zM569 777h-327v130h327v-130z" />
    <glyph glyph-name="amacron" unicode="&#x101;" horiz-adv-x="574" 
d="M573 0h-228l-11 50l-7 2q-60 -64 -155 -64q-152 0 -152 159q0 73 46.5 108t145.5 42l95 7v56q0 16 -1 24t-10 16.5t-26 8.5q-22 0 -29.5 -11.5t-7.5 -44.5l-196 14q0 172 238 172q126 0 181.5 -40.5t55.5 -145.5v-221q0 -12 2.5 -15.5t13.5 -4.5l45 -8v-104zM307 130v79
l-23 -2q-49 -4 -49 -45q0 -38 40 -38q14 0 32 6zM438 587h-327v130h327v-130z" />
    <glyph glyph-name="Abreve" unicode="&#x102;" horiz-adv-x="805" 
d="M807 0h-385v103l80 9l-18 49h-216l-17 -49l78 -9v-103h-331v103l46 11q20 5 25 19l217 591h238l212 -593q4 -12 24 -17l47 -11v-103zM447 304l-65 210h-7l-68 -210h140zM489 961l96 -35q-19 -72 -61 -108t-119 -36q-78 0 -120.5 36.5t-59.5 107.5l96 35q22 -64 84 -64
q54 0 84 64z" />
    <glyph glyph-name="abreve" unicode="&#x103;" horiz-adv-x="574" 
d="M573 0h-228l-11 50l-7 2q-60 -64 -155 -64q-152 0 -152 159q0 73 46.5 108t145.5 42l95 7v56q0 16 -1 24t-10 16.5t-26 8.5q-22 0 -29.5 -11.5t-7.5 -44.5l-196 14q0 172 238 172q126 0 181.5 -40.5t55.5 -145.5v-221q0 -12 2.5 -15.5t13.5 -4.5l45 -8v-104zM307 130v79
l-23 -2q-49 -4 -49 -45q0 -38 40 -38q14 0 32 6zM355 738l96 -35q-19 -71 -60 -105.5t-117 -34.5t-118 35t-59 105l96 35q21 -60 81 -60q54 0 81 60z" />
    <glyph glyph-name="Aogonek" unicode="&#x104;" horiz-adv-x="805" 
d="M692 -123l34 -92q-66 -31 -137 -31q-61 0 -90 26.5t-29 71.5q0 80 96 148h-144v103l80 9l-18 49h-216l-17 -49l78 -9v-103h-331v103l46 11q20 5 25 19l217 591h238l212 -593q4 -12 24 -17l47 -11v-103h-118q-76 -68 -76 -111q0 -23 22 -23q21 0 57 11zM447 304l-65 210
h-7l-68 -210h140z" />
    <glyph glyph-name="aogonek" unicode="&#x105;" horiz-adv-x="574" 
d="M573 0q-49 -21 -84.5 -53t-35.5 -58q0 -23 22 -23q21 0 57 11l34 -92q-66 -31 -137 -31q-61 0 -90 26.5t-29 71.5q0 80 117 148h-82l-11 50l-7 2q-60 -64 -155 -64q-152 0 -152 159q0 73 46.5 108t145.5 42l95 7v56q0 16 -1 24t-10 16.5t-26 8.5q-22 0 -29.5 -11.5
t-7.5 -44.5l-196 14q0 172 238 172q126 0 181.5 -40.5t55.5 -145.5v-221q0 -12 2.5 -15.5t13.5 -4.5l45 -8v-104zM307 130v79l-23 -2q-49 -4 -49 -45q0 -38 40 -38q14 0 32 6z" />
    <glyph glyph-name="Cacute" unicode="&#x106;" horiz-adv-x="681" 
d="M636 266v-220q-46 -27 -118 -42.5t-142 -15.5q-361 0 -361 375q0 168 99.5 271t286.5 103q61 0 125.5 -15.5t108.5 -43.5v-232l-153 12l-15 98q-3 15 -15 19q-20 5 -54 5q-75 0 -116.5 -54t-41.5 -163q0 -112 39.5 -166.5t111.5 -54.5q37 0 60 5q12 2 15.5 5.5t5.5 17.5
l15 96h149zM541 844l-240 -77l-43 87l224 116z" />
    <glyph glyph-name="cacute" unicode="&#x107;" horiz-adv-x="534" 
d="M455 163l47 -118q-93 -57 -208 -57q-137 0 -208 74t-71 193q0 135 78 209.5t207 74.5q59 0 116 -15.5t88 -37.5v-181l-147 5l-12 67q-4 16 -12 18q-13 4 -33 4q-27 0 -45.5 -28.5t-18.5 -92.5q0 -81 27 -110t70 -29q47 0 122 24zM428 709l-181 -152l-74 64l152 183z" />
    <glyph glyph-name="Ccircumflex" unicode="&#x108;" horiz-adv-x="681" 
d="M636 266v-220q-46 -27 -118 -42.5t-142 -15.5q-361 0 -361 375q0 168 99.5 271t286.5 103q61 0 125.5 -15.5t108.5 -43.5v-232l-153 12l-15 98q-3 15 -15 19q-20 5 -54 5q-75 0 -116.5 -54t-41.5 -163q0 -112 39.5 -166.5t111.5 -54.5q37 0 60 5q12 2 15.5 5.5t5.5 17.5
l15 96h149zM497 767l-118 79l-118 -79l-68 73l124 120h124l124 -120z" />
    <glyph glyph-name="ccircumflex" unicode="&#x109;" horiz-adv-x="534" 
d="M455 163l47 -118q-93 -57 -208 -57q-137 0 -208 74t-71 193q0 135 78 209.5t207 74.5q59 0 116 -15.5t88 -37.5v-181l-147 5l-12 67q-4 16 -12 18q-13 4 -33 4q-27 0 -45.5 -28.5t-18.5 -92.5q0 -81 27 -110t70 -29q47 0 122 24zM478 621l-75 -65l-105 85l-105 -85
l-75 65l118 136h124z" />
    <glyph glyph-name="Cdotaccent" unicode="&#x10a;" horiz-adv-x="681" 
d="M636 266v-220q-46 -27 -118 -42.5t-142 -15.5q-361 0 -361 375q0 168 99.5 271t286.5 103q61 0 125.5 -15.5t108.5 -43.5v-232l-153 12l-15 98q-3 15 -15 19q-20 5 -54 5q-75 0 -116.5 -54t-41.5 -163q0 -112 39.5 -166.5t111.5 -54.5q37 0 60 5q12 2 15.5 5.5t5.5 17.5
l15 96h149zM497 896q0 -55 -31 -85.5t-87 -30.5q-55 0 -85.5 30.5t-30.5 85.5t30 84.5t86 29.5q57 0 87.5 -29.5t30.5 -84.5z" />
    <glyph glyph-name="cdotaccent" unicode="&#x10b;" horiz-adv-x="534" 
d="M455 163l47 -118q-93 -57 -208 -57q-137 0 -208 74t-71 193q0 135 78 209.5t207 74.5q59 0 116 -15.5t88 -37.5v-181l-147 5l-12 67q-4 16 -12 18q-13 4 -33 4q-27 0 -45.5 -28.5t-18.5 -92.5q0 -81 27 -110t70 -29q47 0 122 24zM416 698q0 -56 -31 -86.5t-87 -30.5
q-55 0 -85.5 30.5t-30.5 86.5q0 55 30 84.5t86 29.5t87 -29.5t31 -84.5z" />
    <glyph glyph-name="Ccaron" unicode="&#x10c;" horiz-adv-x="681" 
d="M636 266v-220q-46 -27 -118 -42.5t-142 -15.5q-361 0 -361 375q0 168 99.5 271t286.5 103q61 0 125.5 -15.5t108.5 -43.5v-232l-153 12l-15 98q-3 15 -15 19q-20 5 -54 5q-75 0 -116.5 -54t-41.5 -163q0 -112 39.5 -166.5t111.5 -54.5q37 0 60 5q12 2 15.5 5.5t5.5 17.5
l15 96h149zM566 901l-125 -120h-124l-124 120l68 73l118 -79l118 79z" />
    <glyph glyph-name="ccaron" unicode="&#x10d;" horiz-adv-x="534" 
d="M455 163l47 -118q-93 -57 -208 -57q-137 0 -208 74t-71 193q0 135 78 209.5t207 74.5q59 0 116 -15.5t88 -37.5v-181l-147 5l-12 67q-4 16 -12 18q-13 4 -33 4q-27 0 -45.5 -28.5t-18.5 -92.5q0 -81 27 -110t70 -29q47 0 122 24zM360 574h-124l-119 135l75 66l106 -85
l104 85l75 -66z" />
    <glyph glyph-name="Dcaron" unicode="&#x10e;" horiz-adv-x="737" 
d="M348 0h-332v105l63 7q10 1 13 4.5t3 15.5v461q0 11 -3 15t-13 5l-63 7v104h349q183 0 271 -91.5t88 -259.5q0 -173 -94 -273t-282 -100zM312 143h14q55 0 91.5 17t54.5 50t25 70t7 89q0 112 -39.5 161.5t-141.5 49.5h-11v-437zM518 901l-125 -120h-124l-124 120l68 73
l118 -79l118 79z" />
    <glyph glyph-name="dcaron" unicode="&#x10f;" horiz-adv-x="787" 
d="M624 0h-233l-10 50l-8 2q-58 -64 -155 -64q-199 0 -199 274q0 142 63.5 209.5t150.5 67.5q71 0 130 -45v113q0 16 -13 21l-51 19l14 108h250v-625q0 -11 2.5 -14.5t13.5 -4.5l45 -7v-104zM353 146v224q-18 10 -36 10q-38 0 -56.5 -33.5t-18.5 -83.5q0 -125 69 -125
q21 0 42 8zM696 512l-94 26q23 94 23 136q0 44 -11 64l136 39q16 -30 16 -71q0 -20 -7 -44q-19 -62 -63 -150z" />
    <glyph glyph-name="Dcroat" unicode="&#x110;" horiz-adv-x="747" 
d="M358 0h-332v105l63 7q10 1 13 4.5t3 15.5v156h-67v145h67v160q0 11 -3 15t-13 5l-63 7v104h349q183 0 271 -91.5t88 -259.5q0 -173 -94 -273t-282 -100zM322 143h14q55 0 91.5 17t54.5 50t25 70t7 89q0 112 -39.5 161.5t-141.5 49.5h-11v-147h107v-145h-107v-145z" />
    <glyph glyph-name="dcroat" unicode="&#x111;" horiz-adv-x="624" 
d="M624 0h-233l-10 50l-8 2q-58 -64 -155 -64q-199 0 -199 237q0 72 18.5 122.5t51 75.5t66.5 35.5t75 10.5q74 0 133 -45v78h-133v108h133q-1 13 -13 18l-51 19l14 108h250v-145h73v-108h-73v-372q0 -11 2.5 -14.5t13.5 -4.5l45 -7v-104zM353 146v154q-18 10 -42 10
q-35 0 -52 -19t-17 -70q0 -83 69 -83q21 0 42 8z" />
    <glyph glyph-name="Emacron" unicode="&#x112;" horiz-adv-x="627" 
d="M600 0h-584v103l63 7q10 1 13 5t3 15v463q0 12 -3 15.5t-13 4.5l-63 7v104h562v-239l-153 6l-14 75q-3 13 -17 13h-82v-142h202v-151h-202v-142h104q14 0 16 11l16 88h152v-243zM476 777h-327v130h327v-130z" />
    <glyph glyph-name="emacron" unicode="&#x113;" horiz-adv-x="543" 
d="M475 174l46 -128q-128 -58 -230 -58q-145 0 -210.5 75.5t-65.5 204.5q0 131 75.5 201t192.5 70q110 0 171.5 -62.5t61.5 -193.5q0 -23 -3 -61h-276q6 -79 83 -79q53 0 155 31zM234 325h82q1 42 -9.5 56.5t-30.5 14.5q-40 0 -42 -71zM439 587h-327v130h327v-130z" />
    <glyph glyph-name="Ebreve" unicode="&#x114;" horiz-adv-x="627" 
d="M600 0h-584v103l63 7q10 1 13 5t3 15v463q0 12 -3 15.5t-13 4.5l-63 7v104h562v-239l-153 6l-14 75q-3 13 -17 13h-82v-142h202v-151h-202v-142h104q14 0 16 11l16 88h152v-243zM396 961l96 -35q-19 -72 -61 -108t-119 -36q-78 0 -120.5 36.5t-59.5 107.5l96 35
q22 -64 84 -64q54 0 84 64z" />
    <glyph glyph-name="ebreve" unicode="&#x115;" horiz-adv-x="543" 
d="M475 174l46 -128q-128 -58 -230 -58q-145 0 -210.5 75.5t-65.5 204.5q0 131 75.5 201t192.5 70q110 0 171.5 -62.5t61.5 -193.5q0 -23 -3 -61h-276q6 -79 83 -79q53 0 155 31zM234 325h82q1 42 -9.5 56.5t-30.5 14.5q-40 0 -42 -71zM356 738l96 -35q-19 -71 -60 -105.5
t-117 -34.5t-118 35t-59 105l96 35q21 -60 81 -60q54 0 81 60z" />
    <glyph glyph-name="Edotaccent" unicode="&#x116;" horiz-adv-x="627" 
d="M600 0h-584v103l63 7q10 1 13 5t3 15v463q0 12 -3 15.5t-13 4.5l-63 7v104h562v-239l-153 6l-14 75q-3 13 -17 13h-82v-142h202v-151h-202v-142h104q14 0 16 11l16 88h152v-243zM430 896q0 -55 -31 -85.5t-87 -30.5q-55 0 -85.5 30.5t-30.5 85.5t30 84.5t86 29.5
q57 0 87.5 -29.5t30.5 -84.5z" />
    <glyph glyph-name="edotaccent" unicode="&#x117;" horiz-adv-x="543" 
d="M475 174l46 -128q-128 -58 -230 -58q-145 0 -210.5 75.5t-65.5 204.5q0 131 75.5 201t192.5 70q110 0 171.5 -62.5t61.5 -193.5q0 -23 -3 -61h-276q6 -79 83 -79q53 0 155 31zM234 325h82q1 42 -9.5 56.5t-30.5 14.5q-40 0 -42 -71zM393 698q0 -56 -31 -86.5t-87 -30.5
q-55 0 -85.5 30.5t-30.5 86.5q0 55 30 84.5t86 29.5t87 -29.5t31 -84.5z" />
    <glyph glyph-name="Eogonek" unicode="&#x118;" horiz-adv-x="627" 
d="M563 -123l34 -92q-66 -31 -137 -31q-61 0 -90 26t-29 70t33.5 84t78.5 66h-437v103l63 7q10 1 13 5t3 15v463q0 12 -3 15.5t-13 4.5l-63 7v104h562v-239l-153 6l-14 75q-3 13 -17 13h-82v-142h202v-151h-202v-142h104q14 0 16 11l16 88h152v-244q-51 -25 -83.5 -55
t-32.5 -55q0 -23 22 -23q21 0 57 11z" />
    <glyph glyph-name="eogonek" unicode="&#x119;" horiz-adv-x="543" 
d="M409 -123l34 -92q-66 -31 -137 -31q-61 0 -90 26.5t-29 71.5q0 70 81 137q-132 6 -192.5 80.5t-60.5 198.5q0 131 75.5 201t192.5 70q233 0 233 -252q0 -23 -3 -61h-276q3 -44 23.5 -63.5t59.5 -19.5q53 0 155 31l46 -128q-69 -32 -101 -49q-32 -18 -61 -50.5t-29 -57.5
q0 -23 22 -23q21 0 57 11zM236 329h78q0 42 -9.5 54.5t-28.5 12.5q-37 0 -40 -67z" />
    <glyph glyph-name="Ecaron" unicode="&#x11a;" horiz-adv-x="627" 
d="M600 0h-584v103l63 7q10 1 13 5t3 15v463q0 12 -3 15.5t-13 4.5l-63 7v104h562v-239l-153 6l-14 75q-3 13 -17 13h-82v-142h202v-151h-202v-142h104q14 0 16 11l16 88h152v-243zM499 901l-125 -120h-124l-124 120l68 73l118 -79l118 79z" />
    <glyph glyph-name="ecaron" unicode="&#x11b;" horiz-adv-x="543" 
d="M475 174l46 -128q-128 -58 -230 -58q-145 0 -210.5 75.5t-65.5 204.5q0 131 75.5 201t192.5 70q110 0 171.5 -62.5t61.5 -193.5q0 -23 -3 -61h-276q6 -79 83 -79q53 0 155 31zM234 325h82q1 42 -9.5 56.5t-30.5 14.5q-40 0 -42 -71zM337 574h-124l-119 135l75 66l106 -85
l104 85l75 -66z" />
    <glyph glyph-name="Gcircumflex" unicode="&#x11c;" horiz-adv-x="723" 
d="M713 257l-40 -4q-16 -1 -16 -14v-196q-115 -55 -279 -55q-363 0 -363 373q0 169 100 272.5t290 103.5q54 0 118 -15t112 -46v-221l-154 13l-14 86q-2 12 -5 15.5t-12 5.5q-18 5 -55 5q-74 0 -114 -58.5t-40 -155.5q0 -223 147 -223q23 0 36 1q17 1 17 21v82h-86l17 115
h341v-105zM501 767l-118 79l-118 -79l-68 73l124 120h124l124 -120z" />
    <glyph glyph-name="gcircumflex" unicode="&#x11d;" horiz-adv-x="594" 
d="M578 421l-87 -1l-5 -5q34 -43 34 -97q0 -75 -63 -119.5t-154 -44.5q-33 0 -70 5l-32 -34l89 -5q138 -8 174 -17q80 -19 99 -82q7 -25 7 -59q0 -90 -78.5 -138.5t-218.5 -48.5q-256 0 -256 119q0 30 13.5 52t39.5 48q-46 20 -46 69q0 31 23.5 56t80.5 67q-45 18 -72 57.5
t-27 96.5q0 85 64.5 142t186.5 57q62 0 100 -11h198v-107zM346 339q0 32 -17 50t-43 18q-27 0 -44.5 -17t-17.5 -52q0 -27 15.5 -43t44.5 -16q27 0 44.5 16.5t17.5 43.5zM309 -45l-132 7q-15 -18 -15 -34q0 -39 123 -39q85 0 85 35q0 27 -61 31zM466 621l-75 -65l-105 85
l-105 -85l-75 65l118 136h124z" />
    <glyph glyph-name="Gbreve" unicode="&#x11e;" horiz-adv-x="723" 
d="M713 257l-40 -4q-16 -1 -16 -14v-196q-115 -55 -279 -55q-363 0 -363 373q0 169 100 272.5t290 103.5q54 0 118 -15t112 -46v-221l-154 13l-14 86q-2 12 -5 15.5t-12 5.5q-18 5 -55 5q-74 0 -114 -58.5t-40 -155.5q0 -223 147 -223q23 0 36 1q17 1 17 21v82h-86l17 115
h341v-105zM467 961l96 -35q-19 -72 -61 -108t-119 -36q-78 0 -120.5 36.5t-59.5 107.5l96 35q22 -64 84 -64q54 0 84 64z" />
    <glyph glyph-name="gbreve" unicode="&#x11f;" horiz-adv-x="594" 
d="M578 421l-87 -1l-5 -5q34 -43 34 -97q0 -75 -63 -119.5t-154 -44.5q-33 0 -70 5l-32 -34l89 -5q138 -8 174 -17q80 -19 99 -82q7 -25 7 -59q0 -90 -78.5 -138.5t-218.5 -48.5q-256 0 -256 119q0 30 13.5 52t39.5 48q-46 20 -46 69q0 31 23.5 56t80.5 67q-45 18 -72 57.5
t-27 96.5q0 85 64.5 142t186.5 57q62 0 100 -11h198v-107zM346 339q0 32 -17 50t-43 18q-27 0 -44.5 -17t-17.5 -52q0 -27 15.5 -43t44.5 -16q27 0 44.5 16.5t17.5 43.5zM309 -45l-132 7q-15 -18 -15 -34q0 -39 123 -39q85 0 85 35q0 27 -61 31zM367 738l96 -35
q-19 -71 -60 -105.5t-117 -34.5t-118 35t-59 105l96 35q21 -60 81 -60q54 0 81 60z" />
    <glyph glyph-name="Gdotaccent" unicode="&#x120;" horiz-adv-x="723" 
d="M713 257l-40 -4q-16 -1 -16 -14v-196q-115 -55 -279 -55q-363 0 -363 373q0 169 100 272.5t290 103.5q54 0 118 -15t112 -46v-221l-154 13l-14 86q-2 12 -5 15.5t-12 5.5q-18 5 -55 5q-74 0 -114 -58.5t-40 -155.5q0 -223 147 -223q23 0 36 1q17 1 17 21v82h-86l17 115
h341v-105zM501 896q0 -55 -31 -85.5t-87 -30.5q-55 0 -85.5 30.5t-30.5 85.5t30 84.5t86 29.5q57 0 87.5 -29.5t30.5 -84.5z" />
    <glyph glyph-name="gdotaccent" unicode="&#x121;" horiz-adv-x="594" 
d="M578 421l-87 -1l-5 -5q34 -43 34 -97q0 -75 -63 -119.5t-154 -44.5q-33 0 -70 5l-32 -34l89 -5q138 -8 174 -17q80 -19 99 -82q7 -25 7 -59q0 -90 -78.5 -138.5t-218.5 -48.5q-256 0 -256 119q0 30 13.5 52t39.5 48q-46 20 -46 69q0 31 23.5 56t80.5 67q-45 18 -72 57.5
t-27 96.5q0 85 64.5 142t186.5 57q62 0 100 -11h198v-107zM346 339q0 32 -17 50t-43 18q-27 0 -44.5 -17t-17.5 -52q0 -27 15.5 -43t44.5 -16q27 0 44.5 16.5t17.5 43.5zM309 -45l-132 7q-15 -18 -15 -34q0 -39 123 -39q85 0 85 35q0 27 -61 31zM404 698q0 -56 -31 -86.5
t-87 -30.5q-55 0 -85.5 30.5t-30.5 86.5q0 55 30 84.5t86 29.5t87 -29.5t31 -84.5z" />
    <glyph glyph-name="Gcommaaccent" unicode="&#x122;" horiz-adv-x="723" 
d="M713 257l-40 -4q-16 -1 -16 -14v-196q-115 -55 -279 -55q-363 0 -363 373q0 169 100 272.5t290 103.5q54 0 118 -15t112 -46v-221l-154 13l-14 86q-2 12 -5 15.5t-12 5.5q-18 5 -55 5q-74 0 -114 -58.5t-40 -155.5q0 -223 147 -223q23 0 36 1q17 1 17 21v82h-86l17 115
h341v-105zM401 -312l-82 22l19 103q3 13 -8 16l-41 11l20 116q49 1 80 -3.5t55.5 -24.5t24.5 -57q0 -32 -22 -79z" />
    <glyph glyph-name="gcommaaccent" unicode="&#x123;" horiz-adv-x="594" 
d="M578 421l-87 -1l-5 -5q34 -43 34 -97q0 -75 -63 -119.5t-154 -44.5q-33 0 -70 5l-32 -34l89 -5q138 -8 174 -17q80 -19 99 -82q7 -25 7 -59q0 -90 -78.5 -138.5t-218.5 -48.5q-256 0 -256 119q0 30 13.5 52t39.5 48q-46 20 -46 69q0 31 23.5 56t80.5 67q-45 18 -72 57.5
t-27 96.5q0 85 64.5 142t186.5 57q62 0 100 -11h198v-107zM346 339q0 32 -17 50t-43 18q-27 0 -44.5 -17t-17.5 -52q0 -27 15.5 -43t44.5 -16q27 0 44.5 16.5t17.5 43.5zM309 -45l-132 7q-15 -18 -15 -34q0 -39 123 -39q85 0 85 35q0 27 -61 31zM269 832l82 -22l-19 -103
q-3 -13 8 -16l41 -11l-20 -116q-49 -1 -80 3.5t-55.5 24.5t-24.5 57q0 32 22 79z" />
    <glyph glyph-name="Hcircumflex" unicode="&#x124;" horiz-adv-x="828" 
d="M816 0h-379v103l63 7q10 1 13 5t3 15v164h-204v-163q0 -12 2.5 -15.5t13.5 -4.5l67 -8v-103h-379v103l63 7q10 1 13 5t3 15v462q0 12 -3 15.5t-13 4.5l-63 7v105h379v-105l-67 -8q-11 -1 -13.5 -4.5t-2.5 -14.5v-146h204v146q0 12 -3 15.5t-13 4.5l-63 7v105h379v-105
l-67 -8q-11 -1 -13.5 -4.5t-2.5 -14.5v-461q0 -12 2.5 -15.5t13.5 -4.5l67 -8v-103zM536 767l-118 79l-118 -79l-68 73l124 120h124l124 -120z" />
    <glyph glyph-name="hcircumflex" unicode="&#x125;" horiz-adv-x="619" 
d="M257 787l-108 79l-108 -79l-68 73l114 120h124l114 -120zM619 0h-270v339q0 23 -5 33t-20 10q-19 0 -47 -13v-239q0 -12 2.5 -16t12.5 -5l34 -5v-104h-316v104l40 7q10 1 13 5t3 15v476q0 17 -13 21l-51 19l14 108h258v-270l6 -2q53 56 136 56q74 0 109 -41t35 -127v-240
q0 -12 2.5 -15.5t13.5 -4.5l43 -7v-104z" />
    <glyph glyph-name="Hbar" unicode="&#x126;" horiz-adv-x="848" 
d="M25 421v155h80v16q0 12 -3 15.5t-13 4.5l-63 7v105h379v-105l-67 -8q-11 -1 -13.5 -4.5t-2.5 -14.5v-16h204v16q0 12 -3 15.5t-13 4.5l-63 7v105h379v-105l-67 -8q-11 -1 -13.5 -4.5t-2.5 -14.5v-16h78v-155h-78v-290q0 -12 2.5 -15.5t13.5 -4.5l67 -8v-103h-379v103
l63 7q10 1 13 5t3 15v154h-204v-153q0 -12 2.5 -15.5t13.5 -4.5l67 -8v-103h-379v103l63 7q10 1 13 5t3 15v291h-80zM322 436h204v43h-204v-43z" />
    <glyph glyph-name="hbar" unicode="&#x127;" horiz-adv-x="619" 
d="M412 502h-138v-92l6 -2q53 56 136 56q74 0 109 -41t35 -127v-165q0 -12 2.5 -15.5t13.5 -4.5l43 -7v-104h-270v264q0 23 -5 33t-20 10q-19 0 -47 -13v-164q0 -12 2.5 -16t12.5 -5l34 -5v-104h-316v104l40 7q10 1 13 5t3 15v371h-60v108h60q-2 14 -13 18l-51 19l14 108
h258v-145h138v-108z" />
    <glyph glyph-name="Itilde" unicode="&#x128;" horiz-adv-x="417" 
d="M410 0h-399v103l73 8q10 1 13 4.5t3 15.5v461q0 12 -3 15.5t-13 4.5l-73 7v105h399v-105l-77 -8q-11 -1 -13.5 -4.5t-2.5 -14.5v-461q0 -12 2.5 -15.5t13.5 -4.5l77 -8v-103zM402 899l-23 -49q-17 -36 -32 -53t-38 -17q-30 0 -116 24q-50 15 -53 15q-5 0 -16 -11l-23 -25
l-75 44l30 59q28 57 72 57q26 0 85 -17q64 -18 73 -18q6 0 12 7l21 26z" />
    <glyph glyph-name="itilde" unicode="&#x129;" horiz-adv-x="336" 
d="M330 689l-22 -49q-16 -36 -30 -53t-37 -17q-29 0 -111 24q-47 15 -51 15q-5 0 -15 -11l-22 -25l-72 44l28 59q28 57 69 57q26 0 82 -17q62 -18 70 -18q6 0 12 7l20 26zM330 0h-316v104l36 7q10 1 13 5t3 15v249q0 17 -13 21l-51 19l14 108h261v-397q0 -12 2.5 -15.5
t13.5 -4.5l37 -7v-104z" />
    <glyph glyph-name="Imacron" unicode="&#x12a;" horiz-adv-x="417" 
d="M410 0h-399v103l73 8q10 1 13 4.5t3 15.5v461q0 12 -3 15.5t-13 4.5l-73 7v105h399v-105l-77 -8q-11 -1 -13.5 -4.5t-2.5 -14.5v-461q0 -12 2.5 -15.5t13.5 -4.5l77 -8v-103zM375 777h-327v130h327v-130z" />
    <glyph glyph-name="imacron" unicode="&#x12b;" horiz-adv-x="336" 
d="M297 587h-297v130h297v-130zM330 0h-316v104l36 7q10 1 13 5t3 15v249q0 17 -13 21l-51 19l14 108h261v-397q0 -12 2.5 -15.5t13.5 -4.5l37 -7v-104z" />
    <glyph glyph-name="Ibreve" unicode="&#x12c;" horiz-adv-x="417" 
d="M410 0h-399v103l73 8q10 1 13 4.5t3 15.5v461q0 12 -3 15.5t-13 4.5l-73 7v105h399v-105l-77 -8q-11 -1 -13.5 -4.5t-2.5 -14.5v-461q0 -12 2.5 -15.5t13.5 -4.5l77 -8v-103zM295 961l96 -35q-19 -72 -61 -108t-119 -36q-78 0 -120.5 36.5t-59.5 107.5l96 35
q22 -64 84 -64q54 0 84 64z" />
    <glyph glyph-name="ibreve" unicode="&#x12d;" horiz-adv-x="336" 
d="M218 744l96 -35q-18 -71 -57 -105.5t-110 -34.5q-72 0 -111.5 35t-55.5 105l96 35q19 -60 71 -60q24 0 41 14t30 46zM330 0h-316v104l36 7q10 1 13 5t3 15v249q0 17 -13 21l-51 19l14 108h261v-397q0 -12 2.5 -15.5t13.5 -4.5l37 -7v-104z" />
    <glyph glyph-name="Iogonek" unicode="&#x12e;" horiz-adv-x="417" 
d="M303 -123l34 -92q-66 -31 -137 -31q-61 0 -90 26.5t-29 71.5q0 80 96 148h-166v103l73 8q10 1 13 4.5t3 15.5v461q0 12 -3 15.5t-13 4.5l-73 7v105h399v-105l-77 -8q-11 -1 -13.5 -4.5t-2.5 -14.5v-461q0 -12 2.5 -15.5t13.5 -4.5l77 -8v-103h-110q-76 -68 -76 -111
q0 -23 22 -23q21 0 57 11z" />
    <glyph glyph-name="iogonek" unicode="&#x12f;" horiz-adv-x="336" 
d="M243 -123l34 -92q-66 -31 -137 -31q-61 0 -90 26.5t-29 71.5q0 80 96 148h-103v104l36 7q10 1 13 5t3 15v249q0 17 -13 21l-51 19l14 108h261v-397q0 -12 2.5 -15.5t13.5 -4.5l37 -7v-104h-90q-76 -68 -76 -111q0 -23 22 -23q21 0 57 11zM276 693q0 -56 -30.5 -86.5
t-86.5 -30.5q-55 0 -86 31t-31 86t30.5 84.5t86.5 29.5t86.5 -29.5t30.5 -84.5z" />
    <glyph glyph-name="Idotaccent" unicode="&#x130;" horiz-adv-x="417" 
d="M410 0h-399v103l73 8q10 1 13 4.5t3 15.5v461q0 12 -3 15.5t-13 4.5l-73 7v105h399v-105l-77 -8q-11 -1 -13.5 -4.5t-2.5 -14.5v-461q0 -12 2.5 -15.5t13.5 -4.5l77 -8v-103zM329 896q0 -55 -31 -85.5t-87 -30.5q-55 0 -85.5 30.5t-30.5 85.5t30 84.5t86 29.5
q57 0 87.5 -29.5t30.5 -84.5z" />
    <glyph glyph-name="dotlessi" unicode="&#x131;" horiz-adv-x="336" 
d="M330 0h-316v104l36 7q10 1 13 5t3 15v249q0 17 -13 21l-51 19l14 108h261v-397q0 -12 2.5 -15.5t13.5 -4.5l37 -7v-104z" />
    <glyph glyph-name="IJ" unicode="&#x132;" horiz-adv-x="946" 
d="M410 0h-399v103l73 8q10 1 13 4.5t3 15.5v461q0 12 -3 15.5t-13 4.5l-73 7v105h399v-105l-77 -8q-11 -1 -13.5 -4.5t-2.5 -14.5v-461q0 -12 2.5 -15.5t13.5 -4.5l77 -8v-103zM641 174v419q0 17 -16 18l-95 8v105h411v-105l-67 -8q-11 -1 -13.5 -4.5t-2.5 -14.5v-414
q0 -97 -50.5 -143.5t-161.5 -46.5q-61 0 -123 13t-88 30v217l154 -11l10 -71q1 -10 6 -12.5t17 -2.5q10 0 14.5 4.5t4.5 18.5z" />
    <glyph glyph-name="ij" unicode="&#x133;" horiz-adv-x="668" 
d="M276 693q0 -56 -30.5 -86.5t-86.5 -30.5q-55 0 -86 31t-31 86t30.5 84.5t86.5 29.5t86.5 -29.5t30.5 -84.5zM330 0h-316v104l36 7q10 1 13 5t3 15v249q0 17 -13 21l-51 19l14 108h261v-397q0 -12 2.5 -15.5t13.5 -4.5l37 -7v-104zM400 -8v388q0 15 -14 21l-48 19l14 108
h259v-568q0 -183 -204 -183q-66 0 -119 20.5t-75 38.5l50 108q55 -22 85 -22q13 0 20 1.5t15.5 7.5t12.5 21t4 40zM610 693q0 -56 -31 -86.5t-87 -30.5q-55 0 -85.5 31t-30.5 86t30.5 84.5t85.5 29.5q56 0 87 -29.5t31 -84.5z" />
    <glyph glyph-name="Jcircumflex" unicode="&#x134;" horiz-adv-x="529" 
d="M224 174v419q0 17 -16 18l-95 8v105h411v-105l-67 -8q-11 -1 -13.5 -4.5t-2.5 -14.5v-414q0 -97 -50.5 -143.5t-161.5 -46.5q-61 0 -123 13t-88 30v217l154 -11l10 -71q1 -10 6 -12.5t17 -2.5q10 0 14.5 4.5t4.5 18.5zM447 767l-118 79l-118 -79l-68 73l124 120h124
l124 -120z" />
    <glyph glyph-name="jcircumflex" unicode="&#x135;" horiz-adv-x="332" 
d="M64 -8v388q0 15 -14 21l-48 19l14 108h259v-568q0 -183 -204 -183q-66 0 -119 20.5t-75 38.5l50 108q47 -22 85 -22q27 0 39.5 13t12.5 57zM332 627l-75 -65l-105 85l-105 -85l-75 65l118 136h124z" />
    <glyph glyph-name="Kcommaaccent" unicode="&#x136;" horiz-adv-x="770" 
d="M776 0h-284l-132 237l-48 -64v-41q0 -12 2.5 -15.5t13.5 -4.5l67 -8v-104h-379v104l63 7q10 1 13 4.5t3 15.5v462q0 11 -3 15t-13 5l-63 7v104h379v-104l-67 -8q-11 -1 -13.5 -4.5t-2.5 -14.5v-214l194 232l-62 8v105h299v-105l-34 -5q-20 -3 -31 -18l-151 -182l153 -278
q6 -11 12.5 -15.5t19.5 -6.5l64 -10v-104zM407 -312l-82 22l19 103q3 13 -8 16l-41 11l20 116q49 1 80 -3.5t55.5 -24.5t24.5 -57q0 -32 -22 -79z" />
    <glyph glyph-name="kcommaaccent" unicode="&#x137;" horiz-adv-x="649" 
d="M645 0h-240l-104 240l-24 -24v-85q0 -12 2.5 -15.5t13.5 -4.5l38 -7v-104h-318v104l37 7q11 2 13.5 5.5t2.5 14.5v476q0 16 -13 21l-51 19l14 108h261v-372l154 145h165v-104l-47 -7q-13 -2 -25 -15l-51 -49l104 -227q8 -16 30 -19l38 -5v-102zM346 -312l-82 22l19 103
q3 13 -8 16l-41 11l20 116q49 1 80 -3.5t55.5 -24.5t24.5 -57q0 -32 -22 -79z" />
    <glyph glyph-name="kgreenlandic" unicode="&#x138;" horiz-adv-x="649" 
d="M645 0h-240l-104 240l-24 -24v-85q0 -12 2.5 -15.5t13.5 -4.5l38 -7v-104h-318v104l37 7q11 2 13.5 5.5t2.5 14.5v249q0 16 -13 21l-51 19l14 108h261v-145l154 145h165v-104l-47 -7q-13 -2 -25 -15l-51 -49l104 -227q8 -16 30 -19l38 -5v-102z" />
    <glyph glyph-name="Lacute" unicode="&#x139;" horiz-adv-x="629" 
d="M600 0h-584v104l63 7q10 1 13 5t3 15v462q0 12 -3 15.5t-13 4.5l-63 7v104h395v-104l-83 -8q-11 -1 -13.5 -4.5t-2.5 -14.5v-449h103q14 0 16 11l16 109h153v-264zM364 844l-240 -77l-43 87l224 116z" />
    <glyph glyph-name="lacute" unicode="&#x13a;" horiz-adv-x="336" 
d="M331 0h-318v104l37 7q11 2 13.5 5.5t2.5 14.5v476q0 16 -13 21l-51 19l14 108h261v-624q0 -12 2.5 -15.5t13.5 -4.5l38 -7v-104zM287 864l-240 -77l-43 87l224 116z" />
    <glyph glyph-name="Lcommaaccent" unicode="&#x13b;" horiz-adv-x="629" 
d="M600 0h-584v104l63 7q10 1 13 5t3 15v462q0 12 -3 15.5t-13 4.5l-63 7v104h395v-104l-83 -8q-11 -1 -13.5 -4.5t-2.5 -14.5v-449h103q14 0 16 11l16 109h153v-264zM337 -312l-82 22l19 103q3 13 -8 16l-41 11l20 116q49 1 80 -3.5t55.5 -24.5t24.5 -57q0 -32 -22 -79z
" />
    <glyph glyph-name="lcommaaccent" unicode="&#x13c;" horiz-adv-x="336" 
d="M331 0h-318v104l37 7q11 2 13.5 5.5t2.5 14.5v476q0 16 -13 21l-51 19l14 108h261v-624q0 -12 2.5 -15.5t13.5 -4.5l38 -7v-104zM190 -312l-82 22l19 103q3 13 -8 16l-41 11l20 116q49 1 80 -3.5t55.5 -24.5t24.5 -57q0 -32 -22 -79z" />
    <glyph glyph-name="Lcaron" unicode="&#x13d;" horiz-adv-x="629" 
d="M600 0h-584v104l63 7q10 1 13 5t3 15v462q0 12 -3 15.5t-13 4.5l-63 7v104h395v-104l-83 -8q-11 -1 -13.5 -4.5t-2.5 -14.5v-449h103q14 0 16 11l16 109h153v-264zM545 493l-94 26q23 94 23 136q0 44 -11 64l136 39q16 -30 16 -71q0 -19 -7 -44q-19 -62 -63 -150z" />
    <glyph glyph-name="lcaron" unicode="&#x13e;" horiz-adv-x="504" 
d="M331 0h-318v104l37 7q11 2 13.5 5.5t2.5 14.5v476q0 16 -13 21l-51 19l14 108h261v-624q0 -12 2.5 -15.5t13.5 -4.5l38 -7v-104zM408 512l-94 26q23 94 23 136q0 44 -11 64l136 39q16 -30 16 -71q0 -20 -7 -44q-19 -62 -63 -150z" />
    <glyph glyph-name="Ldot" unicode="&#x13f;" horiz-adv-x="629" 
d="M600 0h-584v104l63 7q10 1 13 5t3 15v462q0 12 -3 15.5t-13 4.5l-63 7v104h395v-104l-83 -8q-11 -1 -13.5 -4.5t-2.5 -14.5v-449h103q14 0 16 11l16 109h153v-264zM616 446q0 -53 -30 -82.5t-84 -29.5q-53 0 -82 29.5t-29 82.5t29 81t82 28q54 0 84 -28t30 -81z" />
    <glyph glyph-name="ldot" unicode="&#x140;" horiz-adv-x="518" 
d="M331 0h-318v104l37 7q11 2 13.5 5.5t2.5 14.5v476q0 16 -13 21l-51 19l14 108h261v-624q0 -12 2.5 -15.5t13.5 -4.5l38 -7v-104zM542 408q0 -53 -30 -82.5t-84 -29.5q-53 0 -82 29.5t-29 82.5t29 81t82 28q54 0 84 -28t30 -81z" />
    <glyph glyph-name="Lslash" unicode="&#x141;" horiz-adv-x="629" 
d="M600 0h-584v104l63 7q10 1 13 5t3 15v109l-70 -25v144l70 25v209q0 12 -3 15.5t-13 4.5l-63 7v104h395v-104l-83 -8q-11 -1 -13.5 -4.5t-2.5 -14.5v-130l165 60v-146l-165 -59v-174h103q14 0 16 11l16 109h153v-264z" />
    <glyph glyph-name="lslash" unicode="&#x142;" horiz-adv-x="342" 
d="M331 0h-318v104l37 7q11 2 13.5 5.5t2.5 14.5v142l-54 -22v141l54 22v193q0 16 -13 21l-51 19l14 108h261v-253l51 21v-141l-51 -21v-230q0 -12 2.5 -15.5t13.5 -4.5l38 -7v-104z" />
    <glyph glyph-name="Nacute" unicode="&#x143;" horiz-adv-x="831" 
d="M738 0h-220l-272 440v-309q0 -12 2.5 -15.5t13.5 -4.5l67 -8v-103h-313v103l63 7q10 1 13 5t3 15v464q0 12 -3 15.5t-13 4.5l-63 7v103h298l274 -445v313q0 12 -3 15.5t-13 4.5l-63 7v105h312v-105l-67 -8q-11 -1 -13.5 -4.5t-2.5 -14.5v-592zM565 844l-240 -77l-43 87
l224 116z" />
    <glyph glyph-name="nacute" unicode="&#x144;" horiz-adv-x="619" 
d="M619 0h-270v336q0 25 -6.5 35t-22.5 10q-18 0 -43 -12v-238q0 -12 3 -16t14 -6l25 -5v-104h-309v104l40 7q10 1 13 5t3 15v249q0 17 -13 21l-50 19l14 108h219l8 -44h7q76 55 163 55q75 0 110.5 -40.5t35.5 -127.5v-240q0 -12 2.5 -15.5t13.5 -4.5l43 -7v-104zM426 709
l-181 -152l-74 64l152 183z" />
    <glyph glyph-name="Ncommaaccent" unicode="&#x145;" horiz-adv-x="831" 
d="M738 0h-220l-272 440v-309q0 -12 2.5 -15.5t13.5 -4.5l67 -8v-103h-313v103l63 7q10 1 13 5t3 15v464q0 12 -3 15.5t-13 4.5l-63 7v103h298l274 -445v313q0 12 -3 15.5t-13 4.5l-63 7v105h312v-105l-67 -8q-11 -1 -13.5 -4.5t-2.5 -14.5v-592zM426 -311l-82 22l19 103
q3 13 -8 16l-41 11l20 116q49 1 80 -3.5t55.5 -24.5t24.5 -57q0 -32 -22 -79z" />
    <glyph glyph-name="ncommaaccent" unicode="&#x146;" horiz-adv-x="619" 
d="M619 0h-270v336q0 25 -6.5 35t-22.5 10q-18 0 -43 -12v-238q0 -12 3 -16t14 -6l25 -5v-104h-309v104l40 7q10 1 13 5t3 15v249q0 17 -13 21l-50 19l14 108h219l8 -44h7q76 55 163 55q75 0 110.5 -40.5t35.5 -127.5v-240q0 -12 2.5 -15.5t13.5 -4.5l43 -7v-104zM331 -312
l-82 22l19 103q3 13 -8 16l-41 11l20 116q49 1 80 -3.5t55.5 -24.5t24.5 -57q0 -32 -22 -79z" />
    <glyph glyph-name="Ncaron" unicode="&#x147;" horiz-adv-x="831" 
d="M738 0h-220l-272 440v-309q0 -12 2.5 -15.5t13.5 -4.5l67 -8v-103h-313v103l63 7q10 1 13 5t3 15v464q0 12 -3 15.5t-13 4.5l-63 7v103h298l274 -445v313q0 12 -3 15.5t-13 4.5l-63 7v105h312v-105l-67 -8q-11 -1 -13.5 -4.5t-2.5 -14.5v-592zM590 901l-125 -120h-124
l-124 120l68 73l118 -79l118 79z" />
    <glyph glyph-name="ncaron" unicode="&#x148;" horiz-adv-x="619" 
d="M619 0h-270v336q0 25 -6.5 35t-22.5 10q-18 0 -43 -12v-238q0 -12 3 -16t14 -6l25 -5v-104h-309v104l40 7q10 1 13 5t3 15v249q0 17 -13 21l-50 19l14 108h219l8 -44h7q76 55 163 55q75 0 110.5 -40.5t35.5 -127.5v-240q0 -12 2.5 -15.5t13.5 -4.5l43 -7v-104zM358 574
h-124l-119 135l75 66l106 -85l104 85l75 -66z" />
    <glyph glyph-name="napostrophe" unicode="&#x149;" horiz-adv-x="714" 
d="M714 0h-270v336q0 25 -6.5 35t-22.5 10q-17 0 -43 -12v-238q0 -12 3 -16t14 -6l25 -5v-104h-309v104l40 7q10 1 13 5t3 15v249q0 17 -13 21l-50 19l14 108h219l8 -44h7q76 55 163 55q75 0 110.5 -40.5t35.5 -127.5v-240q0 -12 2.5 -15.5t13.5 -4.5l43 -7v-104zM79 493
l-73 19l17 84q2 11 -8 13l-35 9l18 102q65 1 102 -14t37 -61q0 -28 -19 -69z" />
    <glyph glyph-name="Eng" unicode="&#x14a;" horiz-adv-x="831" 
d="M527 -8v8l-281 440v-309q0 -12 2.5 -15.5t13.5 -4.5l67 -8v-103h-313v103l63 7q10 1 13 5t3 15v464q0 12 -3 15.5t-13 4.5l-63 7v103h298l274 -439v307q0 12 -3 15.5t-13 4.5l-63 7v105h312v-105l-67 -8q-11 -1 -13.5 -4.5t-2.5 -14.5v-626q0 -99 -61 -144t-163 -45
q-66 0 -124 22.5t-80 41.5l50 108q51 -27 99 -27q20 0 33 3.5t24 20t11 46.5z" />
    <glyph glyph-name="eng" unicode="&#x14b;" horiz-adv-x="619" 
d="M349 -8v344q0 25 -6.5 35t-22.5 10q-18 0 -43 -12v-238q0 -12 3 -16t14 -6l25 -5v-104h-309v104l40 7q10 1 13 5t3 15v249q0 17 -13 21l-50 19l14 108h219l8 -44h7q76 55 163 55q75 0 110.5 -40.5t35.5 -127.5v-411q0 -183 -204 -183q-66 0 -119 20.5t-75 38.5l50 108
q47 -22 85 -22q27 0 39.5 13t12.5 57z" />
    <glyph glyph-name="Omacron" unicode="&#x14c;" horiz-adv-x="747" 
d="M367 -12q-181 0 -266.5 98.5t-85.5 268.5t94 276t272 106q176 0 263.5 -102.5t87.5 -264.5q0 -180 -91.5 -281t-273.5 -101zM376 156q64 0 98.5 45.5t34.5 159.5q0 111 -33 159.5t-96 48.5q-142 0 -142 -209q0 -113 35.5 -158.5t102.5 -45.5zM544 784h-327v130h327v-130z
" />
    <glyph glyph-name="omacron" unicode="&#x14d;" horiz-adv-x="594" 
d="M293 -12q-278 0 -278 276q0 129 72.5 202t215.5 73q142 0 209 -72t67 -196q0 -134 -71 -208.5t-215 -74.5zM298 128q61 0 61 139q0 73 -15.5 101t-43.5 28q-64 0 -64 -130q0 -77 16 -107.5t46 -30.5zM467 587h-327v130h327v-130z" />
    <glyph glyph-name="Obreve" unicode="&#x14e;" horiz-adv-x="747" 
d="M367 -12q-181 0 -266.5 98.5t-85.5 268.5t94 276t272 106q176 0 263.5 -102.5t87.5 -264.5q0 -180 -91.5 -281t-273.5 -101zM376 156q64 0 98.5 45.5t34.5 159.5q0 111 -33 159.5t-96 48.5q-142 0 -142 -209q0 -113 35.5 -158.5t102.5 -45.5zM464 968l96 -35
q-19 -72 -61 -108t-119 -36q-78 0 -120.5 36.5t-59.5 107.5l96 35q22 -64 84 -64q54 0 84 64z" />
    <glyph glyph-name="obreve" unicode="&#x14f;" horiz-adv-x="594" 
d="M293 -12q-278 0 -278 276q0 129 72.5 202t215.5 73q142 0 209 -72t67 -196q0 -134 -71 -208.5t-215 -74.5zM298 128q61 0 61 139q0 73 -15.5 101t-43.5 28q-64 0 -64 -130q0 -77 16 -107.5t46 -30.5zM384 738l96 -35q-19 -71 -60 -105.5t-117 -34.5t-118 35t-59 105
l96 35q21 -60 81 -60q54 0 81 60z" />
    <glyph glyph-name="Ohungarumlaut" unicode="&#x150;" horiz-adv-x="747" 
d="M367 -12q-181 0 -266.5 98.5t-85.5 268.5t94 276t272 106q176 0 263.5 -102.5t87.5 -264.5q0 -180 -91.5 -281t-273.5 -101zM376 156q64 0 98.5 45.5t34.5 159.5q0 111 -33 159.5t-96 48.5q-142 0 -142 -209q0 -113 35.5 -158.5t102.5 -45.5zM433 923l-179 -149l-67 67
l157 173zM649 899l-201 -124l-51 63l172 157z" />
    <glyph glyph-name="ohungarumlaut" unicode="&#x151;" horiz-adv-x="594" 
d="M293 -12q-278 0 -278 276q0 129 72.5 202t215.5 73q142 0 209 -72t67 -196q0 -134 -71 -208.5t-215 -74.5zM298 128q61 0 61 139q0 73 -15.5 101t-43.5 28q-64 0 -64 -130q0 -77 16 -107.5t46 -30.5zM361 710l-175 -158l-75 65l146 186zM577 710l-175 -158l-75 65
l146 187z" />
    <glyph glyph-name="OE" unicode="&#x152;" horiz-adv-x="1008" 
d="M981 0h-529q-50 -12 -113 -12q-324 0 -324 367q0 170 87.5 276t256.5 106q55 0 105 -13h495v-239l-153 6l-14 75q-3 13 -17 13h-136q37 -70 45 -142h209v-151h-210q-10 -76 -47 -142h161q14 0 16 11l16 88h152v-243zM352 156q58 0 85.5 45.5t27.5 159.5q0 117 -25 162.5
t-81 45.5q-61 0 -91 -50t-30 -159q0 -113 28 -158.5t86 -45.5z" />
    <glyph glyph-name="oe" unicode="&#x153;" horiz-adv-x="872" 
d="M274 -12q-131 0 -195 72t-64 204q0 128 70.5 201.5t204.5 73.5q120 0 176 -76q64 76 170 76q105 0 157 -59.5t52 -192.5q0 -23 -3 -61h-276q3 -44 23.5 -63.5t59.5 -19.5q53 0 155 31l46 -128q-128 -58 -221 -58q-53 0 -97.5 20.5t-70.5 49.5q-78 -70 -187 -70zM298 128
q61 0 61 139q0 73 -15.5 101t-43.5 28q-64 0 -64 -130q0 -77 16 -107.5t46 -30.5zM565 329h78q0 42 -9.5 54.5t-28.5 12.5q-37 0 -40 -67z" />
    <glyph glyph-name="Racute" unicode="&#x154;" horiz-adv-x="700" 
d="M700 0h-274l-69 236q-8 28 -18 38t-28 10v-151q0 -12 3 -15.5t15 -5.5l39 -7v-105h-352v105l63 7q10 1 13 4.5t3 15.5v461q0 11 -3 15t-13 5l-63 7v104h376q127 0 183 -55.5t56 -149.5q0 -136 -118 -186q40 -19 58 -78l35 -117q7 -19 32 -23l62 -10v-105zM311 420h5
q21 0 34.5 2.5t28.5 10t22 25.5t7 47q0 39 -17 56t-57 17h-23v-158zM490 844l-240 -77l-43 87l224 116z" />
    <glyph glyph-name="racute" unicode="&#x155;" horiz-adv-x="513" 
d="M398 0h-388v105l40 7q10 1 13 5t3 15v248q0 16 -13 21l-51 19l14 108h219l15 -92h10q26 52 59 77.5t81 25.5q53 0 93 -11v-211l-169 5l-8 35q-4 14 -13 14q-10 0 -26 -8v-228q0 -12 3 -16t14 -4l104 -11v-104zM369 709l-181 -152l-74 64l152 183z" />
    <glyph glyph-name="Rcommaaccent" unicode="&#x156;" horiz-adv-x="700" 
d="M700 0h-274l-69 236q-8 28 -18 38t-28 10v-151q0 -12 3 -15.5t15 -5.5l39 -7v-105h-352v105l63 7q10 1 13 4.5t3 15.5v461q0 11 -3 15t-13 5l-63 7v104h376q127 0 183 -55.5t56 -149.5q0 -136 -118 -186q40 -19 58 -78l35 -117q7 -19 32 -23l62 -10v-105zM311 420h5
q21 0 34.5 2.5t28.5 10t22 25.5t7 47q0 39 -17 56t-57 17h-23v-158zM380 -311l-82 22l19 103q3 13 -8 16l-41 11l20 116q49 1 80 -3.5t55.5 -24.5t24.5 -57q0 -32 -22 -79z" />
    <glyph glyph-name="rcommaaccent" unicode="&#x157;" horiz-adv-x="513" 
d="M398 0h-388v105l40 7q10 1 13 5t3 15v248q0 16 -13 21l-51 19l14 108h219l15 -92h10q26 52 59 77.5t81 25.5q53 0 93 -11v-211l-169 5l-8 35q-4 14 -13 14q-10 0 -26 -8v-228q0 -12 3 -16t14 -4l104 -11v-104zM222 -312l-82 22l19 103q3 13 -8 16l-41 11l20 116
q49 1 80 -3.5t55.5 -24.5t24.5 -57q0 -32 -22 -79z" />
    <glyph glyph-name="Rcaron" unicode="&#x158;" horiz-adv-x="700" 
d="M700 0h-274l-69 236q-8 28 -18 38t-28 10v-151q0 -12 3 -15.5t15 -5.5l39 -7v-105h-352v105l63 7q10 1 13 4.5t3 15.5v461q0 11 -3 15t-13 5l-63 7v104h376q127 0 183 -55.5t56 -149.5q0 -136 -118 -186q40 -19 58 -78l35 -117q7 -19 32 -23l62 -10v-105zM311 420h5
q21 0 34.5 2.5t28.5 10t22 25.5t7 47q0 39 -17 56t-57 17h-23v-158zM515 901l-125 -120h-124l-124 120l68 73l118 -79l118 79z" />
    <glyph glyph-name="rcaron" unicode="&#x159;" horiz-adv-x="513" 
d="M398 0h-388v105l40 7q10 1 13 5t3 15v248q0 16 -13 21l-51 19l14 108h219l15 -92h10q26 52 59 77.5t81 25.5q53 0 93 -11v-211l-169 5l-8 35q-4 14 -13 14q-10 0 -26 -8v-228q0 -12 3 -16t14 -4l104 -11v-104zM301 574h-124l-119 135l75 66l106 -85l104 85l75 -66z" />
    <glyph glyph-name="Sacute" unicode="&#x15a;" horiz-adv-x="601" 
d="M555 472l-158 13l-8 78q-1 11 -4.5 14t-11.5 5q-22 3 -48 3q-34 0 -52.5 -15t-18.5 -39q0 -15 7.5 -26.5t27.5 -20.5t32.5 -13t45.5 -14q37 -11 59 -18.5t55 -25.5t51.5 -39.5t32.5 -58t14 -82.5q0 -123 -83 -184t-214 -61q-64 0 -138 13.5t-110 30.5v226h157l21 -100
q2 -14 17 -16q36 -4 53 -4q44 0 66.5 16t22.5 44q0 17 -8 29t-29.5 21.5t-34.5 13t-47 12.5q-46 11 -73.5 21.5t-62.5 34t-52.5 64t-17.5 98.5q0 119 78.5 182t205.5 63q120 0 225 -45v-220zM479 844l-240 -77l-43 87l224 116z" />
    <glyph glyph-name="sacute" unicode="&#x15b;" horiz-adv-x="515" 
d="M482 367l-151 8l-5 25q-2 10 -11 13q-18 6 -48 6q-51 0 -51 -27q0 -10 6 -17t22.5 -12.5t26 -8t36.5 -7.5q33 -6 52 -11t49 -17.5t46.5 -29t29.5 -45.5t13 -67q0 -94 -67 -141.5t-183 -47.5q-142 0 -214 38v128l147 -9l6 -30q2 -14 15 -17q17 -5 55 -5q56 0 56 35
q0 18 -20.5 26t-62.5 15q-3 0 -5 0.5t-5 1t-5 0.5q-31 5 -51.5 10.5t-48.5 18t-44.5 30t-28.5 48t-12 70.5q0 95 69.5 143t173.5 48q60 0 120 -10t90 -22v-140zM396 709l-181 -152l-74 64l152 183z" />
    <glyph glyph-name="Scircumflex" unicode="&#x15c;" horiz-adv-x="601" 
d="M555 472l-158 13l-8 78q-1 11 -4.5 14t-11.5 5q-22 3 -48 3q-34 0 -52.5 -15t-18.5 -39q0 -15 7.5 -26.5t27.5 -20.5t32.5 -13t45.5 -14q37 -11 59 -18.5t55 -25.5t51.5 -39.5t32.5 -58t14 -82.5q0 -123 -83 -184t-214 -61q-64 0 -138 13.5t-110 30.5v226h157l21 -100
q2 -14 17 -16q36 -4 53 -4q44 0 66.5 16t22.5 44q0 17 -8 29t-29.5 21.5t-34.5 13t-47 12.5q-46 11 -73.5 21.5t-62.5 34t-52.5 64t-17.5 98.5q0 119 78.5 182t205.5 63q120 0 225 -45v-220zM435 767l-118 79l-118 -79l-68 73l124 120h124l124 -120z" />
    <glyph glyph-name="scircumflex" unicode="&#x15d;" horiz-adv-x="515" 
d="M482 367l-151 8l-5 25q-2 10 -11 13q-18 6 -48 6q-51 0 -51 -27q0 -10 6 -17t22.5 -12.5t26 -8t36.5 -7.5q33 -6 52 -11t49 -17.5t46.5 -29t29.5 -45.5t13 -67q0 -94 -67 -141.5t-183 -47.5q-142 0 -214 38v128l147 -9l6 -30q2 -14 15 -17q17 -5 55 -5q56 0 56 35
q0 18 -20.5 26t-62.5 15q-3 0 -5 0.5t-5 1t-5 0.5q-31 5 -51.5 10.5t-48.5 18t-44.5 30t-28.5 48t-12 70.5q0 95 69.5 143t173.5 48q60 0 120 -10t90 -22v-140zM452 621l-75 -65l-105 85l-105 -85l-75 65l118 136h124z" />
    <glyph glyph-name="Scedilla" unicode="&#x15e;" horiz-adv-x="601" 
d="M198 -273l8 83q6 -1 18 -1q64 0 64 47q0 35 -61 37l12 97q-58 4 -116.5 16t-88.5 26v226h157l21 -100q2 -14 17 -16q36 -4 53 -4q44 0 66.5 16t22.5 44q0 17 -8 29t-29.5 21.5t-34.5 13t-47 12.5q-46 11 -73.5 21.5t-62.5 34t-52.5 64t-17.5 98.5q0 119 78.5 182
t205.5 63q120 0 225 -45v-220l-158 13l-8 78q-1 11 -4.5 14t-11.5 5q-22 3 -48 3q-34 0 -52.5 -15t-18.5 -39q0 -15 7.5 -26.5t27.5 -20.5t32.5 -13t45.5 -14q37 -11 59 -18.5t55 -25.5t51.5 -39.5t32.5 -58t14 -82.5q0 -113 -70 -173.5t-184 -69.5l-4 -36q84 -19 84 -97
q0 -56 -42.5 -94.5t-124.5 -38.5z" />
    <glyph glyph-name="scedilla" unicode="&#x15f;" horiz-adv-x="515" 
d="M482 367l-151 8l-5 25q-2 10 -11 13q-18 6 -48 6q-51 0 -51 -27q0 -10 6 -17t22.5 -12.5t26 -8t36.5 -7.5q33 -6 52 -11t49 -17.5t46.5 -29t29.5 -45.5t13 -67q0 -86 -57 -133t-158 -54l-4 -36q84 -19 84 -97q0 -56 -42.5 -94.5t-125.5 -38.5q-5 0 -10.5 0.5t-10.5 1
t-9 0.5h-6l-3 1l7 83q7 -1 19 -1q64 0 64 47q0 35 -61 37l12 97q-111 7 -163 36v128l147 -9l6 -30q2 -14 15 -17q17 -5 55 -5q56 0 56 35q0 18 -20.5 26t-62.5 15q-3 0 -5 0.5t-5 1t-5 0.5q-31 5 -51.5 10.5t-48.5 18t-44.5 30t-28.5 48t-12 70.5q0 95 69.5 143t173.5 48
q60 0 120 -10t90 -22v-140z" />
    <glyph glyph-name="Scaron" unicode="&#x160;" horiz-adv-x="601" 
d="M555 472l-158 13l-8 78q-1 11 -4.5 14t-11.5 5q-22 3 -48 3q-34 0 -52.5 -15t-18.5 -39q0 -15 7.5 -26.5t27.5 -20.5t32.5 -13t45.5 -14q37 -11 59 -18.5t55 -25.5t51.5 -39.5t32.5 -58t14 -82.5q0 -123 -83 -184t-214 -61q-64 0 -138 13.5t-110 30.5v226h157l21 -100
q2 -14 17 -16q36 -4 53 -4q44 0 66.5 16t22.5 44q0 17 -8 29t-29.5 21.5t-34.5 13t-47 12.5q-46 11 -73.5 21.5t-62.5 34t-52.5 64t-17.5 98.5q0 119 78.5 182t205.5 63q120 0 225 -45v-220zM504 901l-125 -120h-124l-124 120l68 73l118 -79l118 79z" />
    <glyph glyph-name="scaron" unicode="&#x161;" horiz-adv-x="515" 
d="M482 367l-151 8l-5 25q-2 10 -11 13q-18 6 -48 6q-51 0 -51 -27q0 -10 6 -17t22.5 -12.5t26 -8t36.5 -7.5q33 -6 52 -11t49 -17.5t46.5 -29t29.5 -45.5t13 -67q0 -94 -67 -141.5t-183 -47.5q-142 0 -214 38v128l147 -9l6 -30q2 -14 15 -17q17 -5 55 -5q56 0 56 35
q0 18 -20.5 26t-62.5 15q-3 0 -5 0.5t-5 1t-5 0.5q-31 5 -51.5 10.5t-48.5 18t-44.5 30t-28.5 48t-12 70.5q0 95 69.5 143t173.5 48q60 0 120 -10t90 -22v-140zM328 574h-124l-119 135l75 66l106 -85l104 85l75 -66z" />
    <glyph glyph-name="uni0162" unicode="&#x162;" horiz-adv-x="738" 
d="M266 -273l8 83q6 -1 18 -1q64 0 64 47q0 35 -61 37l14 107h-166v104l103 8q10 1 13 4.5t3 15.5v446h-52q-14 0 -16 -11l-16 -87h-153v244h688v-244h-151l-16 87q-2 11 -16 11h-51v-446q0 -11 2.5 -14.5t13.5 -4.5l110 -9v-104h-210l-6 -46q84 -19 84 -97
q0 -56 -42.5 -94.5t-124.5 -38.5z" />
    <glyph glyph-name="uni0163" unicode="&#x163;" horiz-adv-x="463" 
d="M412 151l33 -115q-90 -48 -187 -48h-1l-4 -34q84 -19 84 -97q0 -56 -42.5 -94.5t-125.5 -38.5q-5 0 -10.5 0.5t-10.5 1t-9 0.5h-7l-2 1l7 83q7 -1 19 -1q64 0 64 47q0 35 -61 37l13 105q-55 15 -79 58t-24 120v210q0 10 -8 10h-68v122q74 7 111.5 51t45.5 131h130v-162
q0 -10 10 -10h134v-132h-144v-182q0 -44 11 -60t48 -16q38 0 73 13z" />
    <glyph glyph-name="Tcaron" unicode="&#x164;" horiz-adv-x="738" 
d="M605 0h-462v104l103 8q10 1 13 4.5t3 15.5v446h-52q-14 0 -16 -11l-16 -87h-153v244h688v-244h-151l-16 87q-2 11 -16 11h-51v-446q0 -11 2.5 -14.5t13.5 -4.5l110 -9v-104zM558 901l-125 -120h-124l-124 120l68 73l118 -79l118 79z" />
    <glyph glyph-name="tcaron" unicode="&#x165;" horiz-adv-x="463" 
d="M412 151l33 -115q-90 -48 -187 -48q-104 0 -146.5 44t-42.5 144v210q0 10 -8 10h-68v122q74 7 111.5 51t45.5 131h130v-162q0 -10 10 -10h134v-132h-144v-182q0 -44 11 -60t48 -16q38 0 73 13zM414 562l-94 26q23 94 23 136q0 44 -11 64l136 39q16 -30 16 -71
q0 -20 -7 -44q-19 -62 -63 -150z" />
    <glyph glyph-name="Tbar" unicode="&#x166;" horiz-adv-x="738" 
d="M605 0h-462v104l103 8q10 1 13 4.5t3 15.5v134h-91v134h91v178h-52q-14 0 -16 -11l-16 -87h-153v244h688v-244h-151l-16 87q-2 11 -16 11h-51v-178h90v-134h-90v-134q0 -11 2.5 -14.5t13.5 -4.5l110 -9v-104z" />
    <glyph glyph-name="tbar" unicode="&#x167;" horiz-adv-x="463" 
d="M412 151l33 -115q-90 -48 -187 -48q-104 0 -146.5 44t-42.5 144v39h-76v119h76v52q0 10 -8 10h-68v122q74 7 111.5 51t45.5 131h130v-162q0 -10 10 -10h134v-132h-144v-62h144v-119h-144v-1q0 -44 11 -60t48 -16q38 0 73 13z" />
    <glyph glyph-name="Utilde" unicode="&#x168;" horiz-adv-x="783" 
d="M516 313v280q0 12 -3 15.5t-13 4.5l-63 7v104h343v-104l-67 -8q-11 -1 -13.5 -4.5t-2.5 -14.5v-316q0 -289 -302 -289q-161 0 -235 70t-74 225v310q0 12 -3 15.5t-13 4.5l-63 7v104h379v-104l-67 -8q-11 -1 -13.5 -4.5t-2.5 -14.5v-275q0 -35 1 -53.5t6.5 -41.5t16.5 -34
t32 -19t51 -8q64 0 85 33.5t21 117.5zM603 899l-23 -49q-17 -36 -32 -53t-38 -17q-30 0 -116 24q-50 15 -53 15q-5 0 -16 -11l-23 -25l-75 44l30 59q29 57 72 57q26 0 85 -17q64 -18 73 -18q6 0 12 7l21 26z" />
    <glyph glyph-name="utilde" unicode="&#x169;" horiz-adv-x="619" 
d="M616 0h-230l-7 42l-7 2q-70 -56 -165 -56q-75 0 -110.5 41t-35.5 129v235q0 12 -2.5 14.5t-13.5 4.5l-45 5l13 111h259v-338q0 -27 6 -37t23 -10q21 0 43 12v238q0 12 -2.5 14.5t-13.5 4.5l-26 5l13 111h240v-398q0 -9 2.5 -13t12.5 -5l46 -7v-105zM484 691l-23 -49
q-17 -36 -32 -53t-38 -17q-30 0 -116 24q-50 15 -53 15q-5 0 -16 -11l-23 -25l-75 44l30 59q28 57 72 57q26 0 85 -17q64 -18 73 -18q6 0 12 7l21 26z" />
    <glyph glyph-name="Umacron" unicode="&#x16a;" horiz-adv-x="783" 
d="M516 313v280q0 12 -3 15.5t-13 4.5l-63 7v104h343v-104l-67 -8q-11 -1 -13.5 -4.5t-2.5 -14.5v-316q0 -289 -302 -289q-161 0 -235 70t-74 225v310q0 12 -3 15.5t-13 4.5l-63 7v104h379v-104l-67 -8q-11 -1 -13.5 -4.5t-2.5 -14.5v-275q0 -35 1 -53.5t6.5 -41.5t16.5 -34
t32 -19t51 -8q64 0 85 33.5t21 117.5zM576 777h-327v130h327v-130z" />
    <glyph glyph-name="umacron" unicode="&#x16b;" horiz-adv-x="619" 
d="M616 0h-230l-7 42l-7 2q-70 -56 -165 -56q-75 0 -110.5 41t-35.5 129v235q0 12 -2.5 14.5t-13.5 4.5l-45 5l13 111h259v-338q0 -27 6 -37t23 -10q21 0 43 12v238q0 12 -2.5 14.5t-13.5 4.5l-26 5l13 111h240v-398q0 -9 2.5 -13t12.5 -5l46 -7v-105zM457 587h-327v130h327
v-130z" />
    <glyph glyph-name="Ubreve" unicode="&#x16c;" horiz-adv-x="783" 
d="M516 313v280q0 12 -3 15.5t-13 4.5l-63 7v104h343v-104l-67 -8q-11 -1 -13.5 -4.5t-2.5 -14.5v-316q0 -289 -302 -289q-161 0 -235 70t-74 225v310q0 12 -3 15.5t-13 4.5l-63 7v104h379v-104l-67 -8q-11 -1 -13.5 -4.5t-2.5 -14.5v-275q0 -35 1 -53.5t6.5 -41.5t16.5 -34
t32 -19t51 -8q64 0 85 33.5t21 117.5zM496 961l96 -35q-19 -72 -61 -108t-119 -36q-78 0 -120.5 36.5t-59.5 107.5l96 35q22 -64 84 -64q54 0 84 64z" />
    <glyph glyph-name="ubreve" unicode="&#x16d;" horiz-adv-x="619" 
d="M616 0h-230l-7 42l-7 2q-70 -56 -165 -56q-75 0 -110.5 41t-35.5 129v235q0 12 -2.5 14.5t-13.5 4.5l-45 5l13 111h259v-338q0 -27 6 -37t23 -10q21 0 43 12v238q0 12 -2.5 14.5t-13.5 4.5l-26 5l13 111h240v-398q0 -9 2.5 -13t12.5 -5l46 -7v-105zM374 738l96 -35
q-19 -71 -60 -105.5t-117 -34.5t-118 35t-59 105l96 35q21 -60 81 -60q54 0 81 60z" />
    <glyph glyph-name="Uring" unicode="&#x16e;" horiz-adv-x="783" 
d="M516 313v280q0 12 -3 15.5t-13 4.5l-63 7v104h343v-104l-67 -8q-11 -1 -13.5 -4.5t-2.5 -14.5v-316q0 -289 -302 -289q-161 0 -235 70t-74 225v310q0 12 -3 15.5t-13 4.5l-63 7v104h379v-104l-67 -8q-11 -1 -13.5 -4.5t-2.5 -14.5v-275q0 -35 1 -53.5t6.5 -41.5t16.5 -34
t32 -19t51 -8q64 0 85 33.5t21 117.5zM527 869q0 -51 -32.5 -82.5t-82.5 -31.5q-51 0 -83.5 31t-32.5 80q0 53 34 85t82 32q49 0 82 -31.5t33 -82.5zM412 832q35 0 35 37q0 38 -35 38q-36 0 -36 -37q0 -38 36 -38z" />
    <glyph glyph-name="uring" unicode="&#x16f;" horiz-adv-x="619" 
d="M616 0h-230l-7 42l-7 2q-70 -56 -165 -56q-75 0 -110.5 41t-35.5 129v235q0 12 -2.5 14.5t-13.5 4.5l-45 5l13 111h259v-338q0 -27 6 -37t23 -10q21 0 43 12v238q0 12 -2.5 14.5t-13.5 4.5l-26 5l13 111h240v-398q0 -9 2.5 -13t12.5 -5l46 -7v-105zM408 674
q0 -52 -32.5 -83.5t-82.5 -31.5q-51 0 -83.5 31t-32.5 80q0 53 34 85t82 32q49 0 82 -31t33 -82zM293 636q35 0 35 38q0 37 -35 37q-36 0 -36 -37q0 -38 36 -38z" />
    <glyph glyph-name="Uhungarumlaut" unicode="&#x170;" horiz-adv-x="783" 
d="M516 313v280q0 12 -3 15.5t-13 4.5l-63 7v104h343v-104l-67 -8q-11 -1 -13.5 -4.5t-2.5 -14.5v-316q0 -289 -302 -289q-161 0 -235 70t-74 225v310q0 12 -3 15.5t-13 4.5l-63 7v104h379v-104l-67 -8q-11 -1 -13.5 -4.5t-2.5 -14.5v-275q0 -35 1 -53.5t6.5 -41.5t16.5 -34
t32 -19t51 -8q64 0 85 33.5t21 117.5zM465 916l-179 -149l-67 67l157 173zM681 892l-201 -124l-51 63l172 157z" />
    <glyph glyph-name="uhungarumlaut" unicode="&#x171;" horiz-adv-x="619" 
d="M616 0h-230l-7 42l-7 2q-70 -56 -165 -56q-75 0 -110.5 41t-35.5 129v235q0 12 -2.5 14.5t-13.5 4.5l-45 5l13 111h259v-338q0 -27 6 -37t23 -10q21 0 43 12v238q0 12 -2.5 14.5t-13.5 4.5l-26 5l13 111h240v-398q0 -9 2.5 -13t12.5 -5l46 -7v-105zM351 710l-175 -158
l-75 65l146 186zM567 710l-175 -158l-75 65l146 187z" />
    <glyph glyph-name="Uogonek" unicode="&#x172;" horiz-adv-x="783" 
d="M556 -123l34 -92q-66 -31 -137 -31q-61 0 -90 26.5t-29 71.5q0 69 81 136h-20q-161 0 -235 70t-74 225v310q0 12 -3 15.5t-13 4.5l-63 7v104h379v-104l-67 -8q-11 -1 -13.5 -4.5t-2.5 -14.5v-275q0 -35 1 -53.5t6.5 -41.5t16.5 -34t32 -19t51 -8q64 0 85 33.5t21 117.5
v280q0 12 -3 15.5t-13 4.5l-63 7v104h343v-104l-67 -8q-11 -1 -13.5 -4.5t-2.5 -14.5v-316q0 -89 -26 -148.5t-81 -101.5q-113 -87 -113 -138q0 -23 22 -23q21 0 57 11z" />
    <glyph glyph-name="uogonek" unicode="&#x173;" horiz-adv-x="619" 
d="M616 0q-45 -23 -77 -54.5t-32 -56.5q0 -23 22 -23q21 0 57 11l34 -92q-66 -31 -137 -31q-61 0 -90 26.5t-29 71.5q0 83 113 148h-91l-7 42l-7 2q-70 -56 -165 -56q-75 0 -110.5 41t-35.5 129v235q0 12 -2.5 14.5t-13.5 4.5l-45 5l13 111h259v-338q0 -27 6 -37t23 -10
q21 0 43 12v238q0 12 -2.5 14.5t-13.5 4.5l-26 5l13 111h240v-398q0 -9 2.5 -13t12.5 -5l46 -7v-105z" />
    <glyph glyph-name="Wcircumflex" unicode="&#x174;" horiz-adv-x="1093" 
d="M899 0h-285l-63 285h-10l-55 -285h-279l-136 588q-4 16 -16 19l-51 14l10 103h352v-103l-78 -9l77 -417h13l93 407h204l92 -405h13l76 415l-78 9l10 103h301v-103l-50 -13q-15 -4 -19 -19zM699 767l-118 79l-118 -79l-68 73l124 120h124l124 -120z" />
    <glyph glyph-name="wcircumflex" unicode="&#x175;" horiz-adv-x="917" 
d="M757 0h-220l-56 273h-10l-49 -273h-250l-111 392q-3 13 -19 17l-44 11l20 108h305v-110l-47 -6l47 -202h12l64 306h201l68 -307h10l44 203l-49 6l15 110h231v-108l-36 -7q-17 -3 -22 -20zM672 621l-75 -65l-105 85l-105 -85l-75 65l118 136h124z" />
    <glyph glyph-name="Ycircumflex" unicode="&#x176;" horiz-adv-x="734" 
d="M617 0h-467v104l105 8q10 1 13 4.5t3 15.5v128l-196 333q-8 13 -21 16l-48 12l10 103h362v-103l-71 -9l86 -171h13l88 171l-71 9l10 103h295v-103l-46 -12q-13 -3 -22 -20l-172 -328v-129q0 -11 2.5 -14.5t13.5 -4.5l113 -9v-104zM506 767l-118 79l-118 -79l-68 73
l124 120h124l124 -120z" />
    <glyph glyph-name="ycircumflex" unicode="&#x177;" horiz-adv-x="657" 
d="M518 -212h-395v107l78 10q23 2 33 22l27 57l-201 410q-4 13 -21 17l-41 9l20 108h319v-108l-59 -8l87 -189h12l76 189l-62 8l15 108h253v-108l-32 -6q-20 -4 -25 -17l-195 -490l111 -13v-106zM525 621l-75 -65l-105 85l-105 -85l-75 65l118 136h124z" />
    <glyph glyph-name="Ydieresis" unicode="&#x178;" horiz-adv-x="734" 
d="M617 0h-467v104l105 8q10 1 13 4.5t3 15.5v128l-196 333q-8 13 -21 16l-48 12l10 103h362v-103l-71 -9l86 -171h13l88 171l-71 9l10 103h295v-103l-46 -12q-13 -3 -22 -20l-172 -328v-129q0 -11 2.5 -14.5t13.5 -4.5l113 -9v-104zM365 865q0 -39 -23.5 -62t-62.5 -23
t-63 23t-24 62q0 38 24 60.5t63 22.5t62.5 -22.5t23.5 -60.5zM580 865q0 -39 -23.5 -62t-62.5 -23t-63 23t-24 62q0 38 24 60.5t63 22.5t62.5 -22.5t23.5 -60.5z" />
    <glyph glyph-name="Zacute" unicode="&#x179;" horiz-adv-x="700" 
d="M665 0h-614v134l332 445h-142q-14 0 -16 -11l-19 -92l-149 -5v253h582v-138l-324 -442h167q14 0 16 11l19 107h148v-262zM507 844l-240 -77l-43 87l224 116z" />
    <glyph glyph-name="zacute" unicode="&#x17a;" horiz-adv-x="547" 
d="M524 0h-492v114l236 293h-79q-11 0 -14 -13l-12 -48l-144 -9v191h478v-116l-229 -292h79q13 0 16 13l12 64l149 6v-203zM385 709l-181 -152l-74 64l152 183z" />
    <glyph glyph-name="Zdotaccent" unicode="&#x17b;" horiz-adv-x="700" 
d="M665 0h-614v134l332 445h-142q-14 0 -16 -11l-19 -92l-149 -5v253h582v-138l-324 -442h167q14 0 16 11l19 107h148v-262zM463 896q0 -55 -31 -85.5t-87 -30.5q-55 0 -85.5 30.5t-30.5 85.5t30 84.5t86 29.5q57 0 87.5 -29.5t30.5 -84.5z" />
    <glyph glyph-name="zdotaccent" unicode="&#x17c;" horiz-adv-x="547" 
d="M524 0h-492v114l236 293h-79q-11 0 -14 -13l-12 -48l-144 -9v191h478v-116l-229 -292h79q13 0 16 13l12 64l149 6v-203zM373 698q0 -56 -31 -86.5t-87 -30.5q-55 0 -85.5 30.5t-30.5 86.5q0 55 30 84.5t86 29.5t87 -29.5t31 -84.5z" />
    <glyph glyph-name="Zcaron" unicode="&#x17d;" horiz-adv-x="700" 
d="M665 0h-614v134l332 445h-142q-14 0 -16 -11l-19 -92l-149 -5v253h582v-138l-324 -442h167q14 0 16 11l19 107h148v-262zM532 901l-125 -120h-124l-124 120l68 73l118 -79l118 79z" />
    <glyph glyph-name="zcaron" unicode="&#x17e;" horiz-adv-x="547" 
d="M524 0h-492v114l236 293h-79q-11 0 -14 -13l-12 -48l-144 -9v191h478v-116l-229 -292h79q13 0 16 13l12 64l149 6v-203zM317 574h-124l-119 135l75 66l106 -85l104 85l75 -66z" />
    <glyph glyph-name="longs" unicode="&#x17f;" horiz-adv-x="468" 
d="M435 0h-421v105l49 6q10 1 13 5t3 16v429q0 110 62.5 158t181.5 48q44 0 77.5 -6.5t65 -23.5t49 -51.5t17.5 -85.5l-195 -23q1 37 -4 50.5t-20 13.5q-23 0 -23 -46v-458q0 -12 3.5 -15.5t14.5 -4.5l127 -13v-104z" />
    <glyph glyph-name="florin" unicode="&#x192;" horiz-adv-x="599" 
d="M462 263h-120l-26 -155q-12 -73 -34 -120.5t-56.5 -72.5t-74 -34.5t-95.5 -9.5q-52 0 -104.5 17t-84.5 43l54 123q63 -44 115 -44q42 0 61 15t30 76l28 152q2 10 -7 10h-88l20 122h98l12 71q20 114 70 160.5t153 46.5q118 0 212 -53l-26 -164l-129 12l-1 57q-2 10 -11 13
q-17 5 -32 5q-20 0 -31.5 -11.5t-16.5 -42.5l-13 -84q-1 -10 8 -10h109z" />
    <glyph glyph-name="Scommaaccent" unicode="&#x218;" horiz-adv-x="601" 
d="M555 472l-158 13l-8 78q-1 11 -4.5 14t-11.5 5q-22 3 -48 3q-34 0 -52.5 -15t-18.5 -39q0 -15 7.5 -26.5t27.5 -20.5t32.5 -13t45.5 -14q37 -11 59 -18.5t55 -25.5t51.5 -39.5t32.5 -58t14 -82.5q0 -123 -83 -184t-214 -61q-64 0 -138 13.5t-110 30.5v226h157l21 -100
q2 -14 17 -16q36 -4 53 -4q44 0 66.5 16t22.5 44q0 17 -8 29t-29.5 21.5t-34.5 13t-47 12.5q-46 11 -73.5 21.5t-62.5 34t-52.5 64t-17.5 98.5q0 119 78.5 182t205.5 63q120 0 225 -45v-220zM309 -311l-82 22l19 103q3 13 -8 16l-41 11l20 116q49 1 80 -3.5t55.5 -24.5
t24.5 -57q0 -32 -22 -79z" />
    <glyph glyph-name="scommaaccent" unicode="&#x219;" horiz-adv-x="515" 
d="M482 367l-151 8l-5 25q-2 10 -11 13q-18 6 -48 6q-51 0 -51 -27q0 -10 6 -17t22.5 -12.5t26 -8t36.5 -7.5q33 -6 52 -11t49 -17.5t46.5 -29t29.5 -45.5t13 -67q0 -94 -67 -141.5t-183 -47.5q-142 0 -214 38v128l147 -9l6 -30q2 -14 15 -17q17 -5 55 -5q56 0 56 35
q0 18 -20.5 26t-62.5 15q-3 0 -5 0.5t-5 1t-5 0.5q-31 5 -51.5 10.5t-48.5 18t-44.5 30t-28.5 48t-12 70.5q0 95 69.5 143t173.5 48q60 0 120 -10t90 -22v-140zM279 -312l-82 22l19 103q3 13 -8 16l-41 11l20 116q49 1 80 -3.5t55.5 -24.5t24.5 -57q0 -32 -22 -79z" />
    <glyph glyph-name="uni021A" unicode="&#x21a;" horiz-adv-x="738" 
d="M605 0h-462v104l103 8q10 1 13 4.5t3 15.5v446h-52q-14 0 -16 -11l-16 -87h-153v244h688v-244h-151l-16 87q-2 11 -16 11h-51v-446q0 -11 2.5 -14.5t13.5 -4.5l110 -9v-104zM402 -311l-82 22l19 103q3 13 -8 16l-41 11l20 116q49 1 80 -3.5t55.5 -24.5t24.5 -57
q0 -32 -22 -79z" />
    <glyph glyph-name="uni021B" unicode="&#x21b;" horiz-adv-x="463" 
d="M412 151l33 -115q-90 -48 -187 -48q-104 0 -146.5 44t-42.5 144v210q0 10 -8 10h-68v122q74 7 111.5 51t45.5 131h130v-162q0 -10 10 -10h134v-132h-144v-182q0 -44 11 -60t48 -16q38 0 73 13zM254 -312l-82 22l19 103q3 13 -8 16l-41 11l20 116q49 1 80 -3.5t55.5 -24.5
t24.5 -57q0 -32 -22 -79z" />
    <glyph glyph-name="dotlessj" unicode="&#x237;" horiz-adv-x="332" 
d="M64 -8v388q0 15 -14 21l-48 19l14 108h259v-568q0 -183 -204 -183q-66 0 -119 20.5t-75 38.5l50 108q47 -22 85 -22q27 0 39.5 13t12.5 57z" />
    <glyph glyph-name="apostrophe" unicode="&#x2bc;" horiz-adv-x="500" 
d="M261 498l-73 19l17 84q2 11 -8 13l-35 9l18 102q65 1 102 -14t37 -61q0 -28 -19 -69z" />
    <glyph glyph-name="circumflex" unicode="&#x2c6;" horiz-adv-x="500" 
d="M430 621l-75 -65l-105 85l-105 -85l-75 65l118 136h124z" />
    <glyph glyph-name="caron" unicode="&#x2c7;" horiz-adv-x="500" 
d="M313 574h-124l-119 135l75 66l106 -85l104 85l75 -66z" />
    <glyph glyph-name="uni02C9" unicode="&#x2c9;" horiz-adv-x="500" 
d="M413 587h-327v130h327v-130z" />
    <glyph glyph-name="breve" unicode="&#x2d8;" horiz-adv-x="500" 
d="M331 738l96 -35q-19 -71 -60 -105.5t-117 -34.5t-118 35t-59 105l96 35q21 -60 81 -60q54 0 81 60z" />
    <glyph glyph-name="dotaccent" unicode="&#x2d9;" horiz-adv-x="500" 
d="M368 698q0 -56 -31 -86.5t-87 -30.5q-55 0 -85.5 30.5t-30.5 86.5q0 55 30 84.5t86 29.5t87 -29.5t31 -84.5z" />
    <glyph glyph-name="ring" unicode="&#x2da;" horiz-adv-x="500" 
d="M365 667q0 -52 -32.5 -83.5t-82.5 -31.5q-51 0 -83.5 31t-32.5 80q0 53 34 85t82 32q49 0 82 -31t33 -82zM250 629q35 0 35 38q0 37 -35 37q-36 0 -36 -37q0 -38 36 -38z" />
    <glyph glyph-name="ogonek" unicode="&#x2db;" horiz-adv-x="500" 
d="M344 -123l34 -92q-66 -31 -137 -31q-61 0 -90 26.5t-29 71.5q0 54 42 99t91 73l90 -21q-80 -72 -80 -114q0 -23 22 -23q21 0 57 11z" />
    <glyph glyph-name="tilde" unicode="&#x2dc;" horiz-adv-x="500" 
d="M440 691l-23 -49q-17 -36 -32 -53t-38 -17q-30 0 -116 24q-50 15 -53 15q-5 0 -16 -11l-23 -25l-75 44l30 59q28 57 72 57q26 0 85 -17q64 -18 73 -18q6 0 12 7l21 26z" />
    <glyph glyph-name="hungarumlaut" unicode="&#x2dd;" horiz-adv-x="500" 
d="M293 710l-175 -158l-75 65l146 186zM509 710l-175 -158l-75 65l146 187z" />
    <glyph glyph-name="uni0394" unicode="&#x394;" horiz-adv-x="772" 
d="M772 0h-772l266 724h239zM474 169l-102 324h-10l-107 -324h219z" />
    <glyph glyph-name="uni03A9" unicode="&#x3a9;" horiz-adv-x="826" 
d="M786 0h-351v240q116 48 116 183q0 85 -32 115.5t-92 30.5q-125 0 -125 -152q0 -57 23 -104.5t69 -71.5v-241h-354v188h142l12 -35q3 -11 16 -11h50v37q-179 52 -179 250q0 141 92 224.5t252 83.5q176 0 259.5 -72.5t83.5 -224.5q0 -99 -57.5 -165t-142.5 -96v-37h49
q13 0 16 11l11 35h142v-188z" />
    <glyph glyph-name="uni03BC" unicode="&#x3bc;" horiz-adv-x="629" 
d="M618 0h-230l-8 42l-6 1q-37 -43 -108 -55l16 -164h-220v704h211v-335q0 -29 7 -39t23 -10q15 0 43 11v373h211v-398q0 -16 14 -18l47 -7v-105z" />
    <glyph glyph-name="pi" unicode="&#x3c0;" horiz-adv-x="676" 
d="M641 0h-268v401h-69v-401h-268v104l41 7q12 1 14 4.5t2 17.5v260q0 12 -2.5 15.5t-13.5 4.5l-39 7v108h600v-108l-38 -7q-11 -1 -13.5 -4.5t-2.5 -15.5v-262q0 -12 2.5 -15.5t13.5 -4.5l41 -7v-104z" />
    <glyph glyph-name="Wgrave" unicode="&#x1e80;" horiz-adv-x="1093" 
d="M899 0h-285l-63 285h-10l-55 -285h-279l-136 588q-4 16 -16 19l-51 14l10 103h352v-103l-78 -9l77 -417h13l93 407h204l92 -405h13l76 415l-78 9l10 103h301v-103l-50 -13q-15 -4 -19 -19zM673 767l-240 78l59 125l224 -115z" />
    <glyph glyph-name="wgrave" unicode="&#x1e81;" horiz-adv-x="917" 
d="M757 0h-220l-56 273h-10l-49 -273h-250l-111 392q-3 13 -19 17l-44 11l20 108h305v-110l-47 -6l47 -202h12l64 306h201l68 -307h10l44 203l-49 6l15 110h231v-108l-36 -7q-17 -3 -22 -20zM626 621l-74 -64l-181 152l104 95z" />
    <glyph glyph-name="Wacute" unicode="&#x1e82;" horiz-adv-x="1093" 
d="M899 0h-285l-63 285h-10l-55 -285h-279l-136 588q-4 16 -16 19l-51 14l10 103h352v-103l-78 -9l77 -417h13l93 407h204l92 -405h13l76 415l-78 9l10 103h301v-103l-50 -13q-15 -4 -19 -19zM743 844l-240 -77l-43 87l224 116z" />
    <glyph glyph-name="wacute" unicode="&#x1e83;" horiz-adv-x="917" 
d="M757 0h-220l-56 273h-10l-49 -273h-250l-111 392q-3 13 -19 17l-44 11l20 108h305v-110l-47 -6l47 -202h12l64 306h201l68 -307h10l44 203l-49 6l15 110h231v-108l-36 -7q-17 -3 -22 -20zM622 709l-181 -152l-74 64l152 183z" />
    <glyph glyph-name="Wdieresis" unicode="&#x1e84;" horiz-adv-x="1093" 
d="M899 0h-285l-63 285h-10l-55 -285h-279l-136 588q-4 16 -16 19l-51 14l10 103h352v-103l-78 -9l77 -417h13l93 407h204l92 -405h13l76 415l-78 9l10 103h301v-103l-50 -13q-15 -4 -19 -19zM558 865q0 -39 -23.5 -62t-62.5 -23t-63 23t-24 62q0 38 24 60.5t63 22.5
t62.5 -22.5t23.5 -60.5zM773 865q0 -39 -23.5 -62t-62.5 -23t-63 23t-24 62q0 38 24 60.5t63 22.5t62.5 -22.5t23.5 -60.5z" />
    <glyph glyph-name="wdieresis" unicode="&#x1e85;" horiz-adv-x="917" 
d="M757 0h-220l-56 273h-10l-49 -273h-250l-111 392q-3 13 -19 17l-44 11l20 108h305v-110l-47 -6l47 -202h12l64 306h201l68 -307h10l44 203l-49 6l15 110h231v-108l-36 -7q-17 -3 -22 -20zM469 672q0 -38 -23.5 -61.5t-62.5 -23.5q-38 0 -62.5 23.5t-24.5 61.5
q0 39 24 61.5t63 22.5t62.5 -22.5t23.5 -61.5zM684 672q0 -38 -23.5 -61.5t-62.5 -23.5t-63 23.5t-24 61.5q0 39 24 61.5t63 22.5t62.5 -22.5t23.5 -61.5z" />
    <glyph glyph-name="Ygrave" unicode="&#x1ef2;" horiz-adv-x="734" 
d="M617 0h-467v104l105 8q10 1 13 4.5t3 15.5v128l-196 333q-8 13 -21 16l-48 12l10 103h362v-103l-71 -9l86 -171h13l88 171l-71 9l10 103h295v-103l-46 -12q-13 -3 -22 -20l-172 -328v-129q0 -11 2.5 -14.5t13.5 -4.5l113 -9v-104zM457 767l-240 78l59 125l224 -115z" />
    <glyph glyph-name="ygrave" unicode="&#x1ef3;" horiz-adv-x="657" 
d="M518 -212h-395v107l78 10q23 2 33 22l27 57l-201 410q-4 13 -21 17l-41 9l20 108h319v-108l-59 -8l87 -189h12l76 189l-62 8l15 108h253v-108l-32 -6q-20 -4 -25 -17l-195 -490l111 -13v-106zM459 621l-74 -64l-181 152l104 95z" />
    <glyph glyph-name="endash" unicode="&#x2013;" horiz-adv-x="500" 
d="M499 207h-499v145h499v-145z" />
    <glyph glyph-name="emdash" unicode="&#x2014;" horiz-adv-x="1000" 
d="M1000 207h-1000v145h1000v-145z" />
    <glyph glyph-name="quoteleft" unicode="&#x2018;" horiz-adv-x="251" 
d="M216 639l-20 -117q-36 0 -61 2.5t-50 10.5t-37.5 26.5t-12.5 46.5q0 30 23 81l44 101l83 -23l-19 -104q-1 -10 6 -12z" />
    <glyph glyph-name="quoteright" unicode="&#x2019;" horiz-adv-x="256" 
d="M154 522l-83 22l19 103q1 10 -7 13l-43 12l20 118q37 0 61.5 -2.5t49.5 -11t37.5 -27t12.5 -46.5q0 -33 -22 -80z" />
    <glyph glyph-name="quotesinglbase" unicode="&#x201a;" horiz-adv-x="273" 
d="M165 -148l-83 22l18 103q3 10 -5 13l-45 12l20 118q37 0 62 -2.5t50 -11t37.5 -27t12.5 -46.5q0 -30 -23 -80z" />
    <glyph glyph-name="quotedblleft" unicode="&#x201c;" horiz-adv-x="454" 
d="M216 639l-20 -117q-36 0 -61 2.5t-50 10.5t-37.5 26.5t-12.5 46.5q0 30 23 81l44 101l83 -23l-19 -104q-1 -10 6 -12zM419 639l-20 -117q-36 0 -61 2.5t-50 10.5t-37.5 26.5t-12.5 46.5q0 30 23 81l44 101l83 -23l-19 -104q-1 -10 6 -12z" />
    <glyph glyph-name="quotedblright" unicode="&#x201d;" horiz-adv-x="459" 
d="M154 522l-83 22l19 103q1 10 -7 13l-43 12l20 118q37 0 61.5 -2.5t49.5 -11t37.5 -27t12.5 -46.5q0 -33 -22 -80zM357 522l-83 22l19 103q1 10 -7 13l-43 12l20 118q37 0 61.5 -2.5t49.5 -11t37.5 -27t12.5 -46.5q0 -33 -22 -80z" />
    <glyph glyph-name="quotedblbase" unicode="&#x201e;" horiz-adv-x="476" 
d="M165 -148l-83 22l18 103q3 10 -5 13l-45 12l20 118q37 0 62 -2.5t50 -11t37.5 -27t12.5 -46.5q0 -30 -23 -80zM368 -148l-83 22l18 103q3 10 -5 13l-45 12l20 118q37 0 62 -2.5t50 -11t37.5 -27t12.5 -46.5q0 -30 -23 -80z" />
    <glyph glyph-name="dagger" unicode="&#x2020;" horiz-adv-x="428" 
d="M279 -83h-131v187l-24 216l73 112h34l72 -112l-24 -216v-187zM197 465v-33l-83 -51h-74v134h74zM197 465l-51 96v84h135v-84l-50 -96h-34zM388 381h-73l-84 51v33l84 50h73v-134z" />
    <glyph glyph-name="daggerdbl" unicode="&#x2021;" horiz-adv-x="448" 
d="M207 432h34l72 -113v-73l-72 -116h-34v-33h34l50 -96v-84h-135v84l51 96l-83 -51h-74v134h74l83 -50l-73 116v73l73 113l-83 -51h-74v134h74l83 -50l-51 96v84h135v-84l-50 -96l84 50h73v-134h-73l-84 51v33h-34v-33zM398 46h-73l-84 51v33l84 50h73v-134z" />
    <glyph glyph-name="bullet" unicode="&#x2022;" horiz-adv-x="401" 
d="M366 289q0 -158 -166 -158q-165 0 -165 158t165 158q166 0 166 -158z" />
    <glyph glyph-name="ellipsis" unicode="&#x2026;" horiz-adv-x="807" 
d="M245 81q0 -93 -105 -93q-106 0 -106 93t106 93q105 0 105 -93zM508 81q0 -93 -105 -93q-106 0 -106 93t106 93q105 0 105 -93zM771 81q0 -93 -105 -93q-106 0 -106 93t106 93q105 0 105 -93z" />
    <glyph glyph-name="perthousand" unicode="&#x2030;" horiz-adv-x="1189" 
d="M181 295q-85 0 -123 40t-38 118q0 167 168 167q161 0 161 -158q0 -81 -43.5 -124t-124.5 -43zM328 -12h-192l373 632h191zM185 388q27 0 27 73q0 65 -27 65q-29 0 -29 -65q0 -73 29 -73zM650 -12q-85 0 -123 40t-38 118q0 167 168 167q161 0 161 -158q0 -81 -43.5 -124
t-124.5 -43zM655 81q27 0 27 73q0 65 -28 65t-28 -65q0 -73 29 -73zM1001 -12q-85 0 -123 40t-38 118q0 167 168 167q161 0 161 -158q0 -81 -43.5 -124t-124.5 -43zM1006 81q27 0 27 73q0 65 -28 65t-28 -65q0 -73 29 -73z" />
    <glyph glyph-name="guilsinglleft" unicode="&#x2039;" horiz-adv-x="284" 
d="M257 103h-160l-84 152l89 153h162l-85 -141q-6 -9 -1 -19z" />
    <glyph glyph-name="guilsinglright" unicode="&#x203a;" horiz-adv-x="284" 
d="M187 103h-160l79 147q5 10 -1 19l-85 139h162l89 -152z" />
    <glyph glyph-name="fraction" unicode="&#x2044;" horiz-adv-x="213" 
d="M19 -17h-192l357 741h191z" />
    <glyph glyph-name="zerosuperior" unicode="&#x2070;" horiz-adv-x="470" 
d="M229 342q-109 0 -158 54.5t-49 178.5q0 129 54.5 184t163.5 55q111 0 159.5 -53t48.5 -179q0 -129 -54 -184.5t-165 -55.5zM235 457q10 0 16 6t11 34.5t5 81.5q0 52 -4 79.5t-9.5 33.5t-16.5 6q-12 0 -18.5 -5.5t-12 -32.5t-5.5 -77q0 -56 4.5 -84.5t11 -35t18.5 -6.5z
" />
    <glyph glyph-name="foursuperior" unicode="&#x2074;" horiz-adv-x="471" 
d="M387 350h-164v78h-205v90l209 286h159v-280h52v-94h-51v-80zM222 524v109h-5l-79 -109h84z" />
    <glyph glyph-name="fivesuperior" unicode="&#x2075;" horiz-adv-x="432" 
d="M366 683h-177l-6 -57q40 19 83 19q65 0 101.5 -33t36.5 -97q0 -77 -52.5 -125t-155.5 -48q-128 0 -198 67l79 96q52 -40 101 -40q46 0 46 36q0 29 -28 29q-22 0 -34 -20l-113 41l16 252h301v-120z" />
    <glyph glyph-name="sixsuperior" unicode="&#x2076;" horiz-adv-x="457" 
d="M430 685l-170 -20q0 43 -18 43q-35 0 -35 -90q40 12 84 12q148 0 148 -122q0 -47 -18 -81t-49.5 -52t-66 -25.5t-74.5 -7.5q-205 0 -205 227q0 47 11 88t35.5 77.5t71 58t110.5 21.5q36 0 63 -4.5t54 -17t42.5 -40t16.5 -67.5zM207 536q0 -35 3.5 -53t8.5 -22t15 -4
q23 0 23 39q0 46 -25 46q-13 0 -25 -6z" />
    <glyph glyph-name="sevensuperior" unicode="&#x2077;" horiz-adv-x="429" 
d="M290 350h-194q11 119 62 212t94 126h-98q-6 0 -6 -10l-3 -38l-114 -9v172h393v-101q-128 -140 -134 -352z" />
    <glyph glyph-name="eightsuperior" unicode="&#x2078;" horiz-adv-x="434" 
d="M341 593q42 -25 58.5 -49t16.5 -59q0 -72 -57 -107.5t-152 -35.5q-189 0 -189 122q0 76 71 108q-58 34 -58 97q0 68 51 106.5t137 38.5q179 0 179 -119q0 -31 -13.5 -53t-43.5 -49zM175 520q-21 -24 -21 -46q0 -33 47 -33q39 0 39 25q0 22 -65 54zM245 643q24 22 24 45
q0 28 -35 28q-38 0 -38 -24t49 -49z" />
    <glyph glyph-name="ninesuperior" unicode="&#x2079;" horiz-adv-x="458" 
d="M36 402l66 92q50 -34 96 -34q23 0 37 12.5t17 46.5q-33 -11 -69 -11q-69 0 -114.5 35.5t-45.5 108.5q0 76 54.5 119t140.5 43q109 0 163 -56.5t54 -152.5q0 -118 -53 -190.5t-171 -72.5q-50 0 -99.5 17.5t-75.5 42.5zM254 607q0 5 0.5 13t0.5 12q0 63 -30 63
q-24 0 -24 -38q0 -53 35 -53q8 0 18 3z" />
    <glyph glyph-name="plussuperior" unicode="&#x207a;" horiz-adv-x="347" 
d="M239 430h-132v86h-77v119h77v83h132v-83h78v-119h-78v-86z" />
    <glyph glyph-name="minussuperior" unicode="&#x207b;" horiz-adv-x="347" 
d="M317 516h-287v119h287v-119z" />
    <glyph glyph-name="equalsuperior" unicode="&#x207c;" horiz-adv-x="349" 
d="M319 404h-289v117h289v-117zM319 568h-289v117h289v-117z" />
    <glyph glyph-name="parenleftsuperior" unicode="&#x207d;" horiz-adv-x="299" 
d="M297 321l-132 -77q-57 60 -96 148t-39 174q0 169 141 328l131 -74q-80 -100 -80 -255q0 -74 18 -129.5t57 -114.5z" />
    <glyph glyph-name="parenrightsuperior" unicode="&#x207e;" horiz-adv-x="301" 
d="M126 244l-130 78q83 99 83 256q0 82 -17.5 135.5t-54.5 106.5l134 74q56 -59 93 -144t37 -171q0 -177 -145 -335z" />
    <glyph glyph-name="zeroinferior" unicode="&#x2080;" horiz-adv-x="470" 
d="M229 -155q-109 0 -158 54.5t-49 178.5q0 129 54.5 184t163.5 55q111 0 159.5 -53t48.5 -179q0 -129 -54 -184.5t-165 -55.5zM235 -40q10 0 16 6t11 34.5t5 81.5q0 52 -4 79.5t-9.5 33.5t-16.5 6q-12 0 -18.5 -5.5t-12 -32.5t-5.5 -77q0 -56 4.5 -84.5t11 -35t18.5 -6.5z
" />
    <glyph glyph-name="oneinferior" unicode="&#x2081;" horiz-adv-x="332" 
d="M324 -147h-301v86l47 4q11 1 11 14v234q0 11 -9 14l-51 13l12 89h232v-350q0 -8 1.5 -10t9.5 -4l48 -4v-86z" />
    <glyph glyph-name="twoinferior" unicode="&#x2082;" horiz-adv-x="433" 
d="M408 -147h-384v95l148 146q58 58 58 86q0 22 -22 22q-29 0 -29 -49l-155 13q1 152 193 152q89 0 131.5 -34.5t42.5 -92.5t-58 -119l-116 -121h56q8 0 9 8l6 38h120v-144z" />
    <glyph glyph-name="threeinferior" unicode="&#x2083;" horiz-adv-x="446" 
d="M327 88v-2q96 -16 96 -102q0 -64 -59.5 -101.5t-149.5 -37.5q-62 0 -115 17.5t-83 46.5l79 97q51 -41 101 -41q45 0 45 33q0 16 -9.5 21t-29.5 5q-16 0 -51 -6v105l24 3q34 4 47.5 13.5t13.5 36.5t-22 27q-14 0 -19 -10.5t-6 -32.5l-154 13q0 44 16.5 74t46.5 44.5
t61.5 20t72.5 5.5q91 0 134 -29t43 -93q0 -38 -23 -68.5t-59 -38.5z" />
    <glyph glyph-name="fourinferior" unicode="&#x2084;" horiz-adv-x="471" 
d="M387 -147h-164v78h-205v90l209 286h159v-280h52v-94h-51v-80zM222 27v109h-5l-79 -109h84z" />
    <glyph glyph-name="fiveinferior" unicode="&#x2085;" horiz-adv-x="432" 
d="M366 186h-177l-6 -57q40 19 83 19q65 0 101.5 -33t36.5 -97q0 -77 -52.5 -125t-155.5 -48q-128 0 -198 67l79 96q52 -40 101 -40q46 0 46 36q0 29 -28 29q-22 0 -34 -20l-113 41l16 252h301v-120z" />
    <glyph glyph-name="sixinferior" unicode="&#x2086;" horiz-adv-x="457" 
d="M430 188l-170 -20q0 43 -18 43q-35 0 -35 -90q40 12 84 12q148 0 148 -122q0 -47 -18 -81t-49.5 -52t-66 -25.5t-74.5 -7.5q-205 0 -205 227q0 47 11 88t35.5 77.5t71 58t110.5 21.5q36 0 63 -4.5t54 -17t42.5 -40t16.5 -67.5zM207 39q0 -35 3.5 -53t8.5 -22t15 -4
q23 0 23 39q0 46 -25 46q-13 0 -25 -6z" />
    <glyph glyph-name="seveninferior" unicode="&#x2087;" horiz-adv-x="429" 
d="M290 -147h-194q11 119 62 212t94 126h-98q-6 0 -6 -10l-3 -38l-114 -9v172h393v-101q-128 -140 -134 -352z" />
    <glyph glyph-name="eightinferior" unicode="&#x2088;" horiz-adv-x="434" 
d="M341 96q42 -25 58.5 -49t16.5 -59q0 -72 -57 -107.5t-152 -35.5q-189 0 -189 122q0 76 71 108q-58 34 -58 97q0 68 51 106.5t137 38.5q179 0 179 -119q0 -31 -13.5 -53t-43.5 -49zM175 23q-21 -24 -21 -46q0 -33 47 -33q39 0 39 25q0 22 -65 54zM245 146q24 22 24 45
q0 28 -35 28q-38 0 -38 -24t49 -49z" />
    <glyph glyph-name="nineinferior" unicode="&#x2089;" horiz-adv-x="458" 
d="M36 -95l66 92q50 -34 96 -34q23 0 37 12.5t17 46.5q-33 -11 -69 -11q-69 0 -114.5 35.5t-45.5 108.5q0 76 54.5 119t140.5 43q109 0 163 -56.5t54 -152.5q0 -118 -53 -190.5t-171 -72.5q-50 0 -99.5 17.5t-75.5 42.5zM254 110q0 5 0.5 13t0.5 12q0 63 -30 63
q-24 0 -24 -38q0 -53 35 -53q8 0 18 3z" />
    <glyph glyph-name="parenleftinferior" unicode="&#x208d;" horiz-adv-x="299" 
d="M297 -176l-132 -77q-57 60 -96 148t-39 174q0 169 141 328l131 -74q-80 -100 -80 -255q0 -74 18 -129.5t57 -114.5z" />
    <glyph glyph-name="parenrightinferior" unicode="&#x208e;" horiz-adv-x="301" 
d="M126 -253l-130 78q83 99 83 256q0 82 -17.5 135.5t-54.5 106.5l134 74q56 -59 93 -144t37 -171q0 -177 -145 -335z" />
    <glyph glyph-name="Euro" unicode="&#x20ac;" horiz-adv-x="604" 
d="M387 247h-90q6 -60 23 -85.5t51 -25.5q13 0 24 3q7 2 10 13l18 76l143 5v-192q-29 -21 -96 -37t-128 -16q-239 0 -271 259h-71l24 151h47q17 134 94 199t185 65q60 0 123 -16t92 -37v-185l-144 5l-14 70q-3 14 -12 17q-9 4 -31 4q-58 0 -68 -122h115z" />
    <glyph glyph-name="afii61352" unicode="&#x2116;" horiz-adv-x="1145" 
d="M649 0h-197l-211 385v-264q0 -12 2.5 -15.5t13.5 -4.5l67 -8v-93h-299v93l63 7q10 1 13 5t3 15v396q0 12 -3 15.5t-13 4.5l-63 7v93h278l210 -388v266q0 12 -3 15.5t-13 4.5l-63 7v95h298v-95l-67 -8q-11 -1 -13.5 -4.5t-2.5 -14.5v-514zM897 205q-100 0 -147 48t-47 131
q0 86 50.5 135t150.5 49q99 0 145 -47t46 -129q0 -88 -49 -137.5t-149 -49.5zM900 296q46 0 46 93q0 87 -44 87q-49 0 -49 -88q0 -92 47 -92zM726 68v106h350v-106h-350z" />
    <glyph glyph-name="trademark" unicode="&#x2122;" horiz-adv-x="878" 
d="M309 348h-193v56l48 5v246h-55l-6 -48h-53v117h324v-117h-53l-5 48h-57v-246l50 -5v-56zM838 348h-154v55l35 5v154l-64 -133h-77l-63 134v-155l39 -5v-55h-151v55l32 5v254l-32 3v59h121l96 -203l99 203h117v-59l-34 -3v-254l36 -5v-55z" />
    <glyph glyph-name="Omega" unicode="&#x2126;" horiz-adv-x="826" 
d="M786 0h-351v240q116 48 116 183q0 85 -32 115.5t-92 30.5q-125 0 -125 -152q0 -57 23 -104.5t69 -71.5v-241h-354v188h142l12 -35q3 -11 16 -11h50v37q-179 52 -179 250q0 141 92 224.5t252 83.5q176 0 259.5 -72.5t83.5 -224.5q0 -99 -57.5 -165t-142.5 -96v-37h49
q13 0 16 11l11 35h142v-188z" />
    <glyph glyph-name="onethird" unicode="&#x2153;" horiz-adv-x="1070" 
d="M347 281h-301v86l47 4q11 1 11 14v234q0 11 -9 14l-51 13l12 89h232v-350q0 -8 1.5 -10t9.5 -4l48 -4v-86zM422 -17h-192l357 741h191zM929 235v-2q96 -16 96 -102q0 -64 -59.5 -101.5t-149.5 -37.5q-62 0 -115 17.5t-83 46.5l79 97q51 -41 101 -41q45 0 45 33
q0 16 -9.5 21t-29.5 5q-16 0 -51 -6v105l24 3q34 4 47.5 13.5t13.5 36.5t-22 27q-14 0 -19 -10.5t-6 -32.5l-154 13q0 44 16.5 74t46.5 44.5t61.5 20t72.5 5.5q91 0 134 -29t43 -93q0 -38 -23 -68.5t-59 -38.5z" />
    <glyph glyph-name="twothirds" unicode="&#x2154;" horiz-adv-x="1070" 
d="M397 281h-384v95l148 146q58 58 58 86q0 22 -22 22q-29 0 -29 -49l-155 13q1 152 193 152q89 0 131.5 -34.5t42.5 -92.5t-58 -119l-116 -121h56q8 0 9 8l6 38h120v-144zM463 -17h-192l357 741h191zM960 235v-2q96 -16 96 -102q0 -64 -59.5 -101.5t-149.5 -37.5
q-61 0 -114.5 17.5t-83.5 46.5l79 97q51 -41 101 -41q45 0 45 33q0 16 -9.5 21t-29.5 5q-16 0 -51 -6v105l24 3q34 4 47.5 13.5t13.5 36.5t-22 27q-14 0 -19 -10.5t-6 -32.5l-154 13q0 44 16.5 74t46.5 44.5t61.5 20t72.5 5.5q91 0 134 -29t43 -93q0 -38 -23 -68.5
t-59 -38.5z" />
    <glyph glyph-name="oneeighth" unicode="&#x215b;" horiz-adv-x="1070" 
d="M359 281h-301v86l47 4q11 1 11 14v234q0 11 -9 14l-51 13l12 89h232v-350q0 -8 1.5 -10t9.5 -4l48 -4v-86zM431 -17h-192l357 741h191zM964 243q42 -25 58.5 -49t16.5 -59q0 -72 -57 -107.5t-152 -35.5q-189 0 -189 122q0 76 71 108q-58 34 -58 97q0 68 51 106.5
t137 38.5q179 0 179 -119q0 -31 -13.5 -53t-43.5 -49zM798 170q-21 -24 -21 -46q0 -33 47 -33q39 0 39 25q0 22 -65 54zM868 293q24 22 24 45q0 28 -35 28q-38 0 -38 -24t49 -49z" />
    <glyph glyph-name="threeeighths" unicode="&#x215c;" horiz-adv-x="1070" 
d="M310 516v-2q96 -16 96 -102q0 -64 -59.5 -101.5t-149.5 -37.5q-61 0 -114.5 17.5t-83.5 46.5l79 97q51 -41 101 -41q45 0 45 33q0 16 -9.5 21t-29.5 5q-17 0 -51 -6v105l24 3q34 4 47.5 13.5t13.5 36.5t-22 27q-14 0 -19 -10.5t-6 -32.5l-154 13q0 44 16.5 74t46.5 44.5
t61.5 20t72.5 5.5q91 0 134 -29t43 -93q0 -38 -23 -68.5t-59 -38.5zM444 -17h-192l357 741h191zM971 243q42 -25 58.5 -49t16.5 -59q0 -72 -57 -107.5t-152 -35.5q-189 0 -189 122q0 76 71 108q-58 34 -58 97q0 68 51 106.5t137 38.5q179 0 179 -119q0 -31 -13.5 -53
t-43.5 -49zM805 170q-21 -24 -21 -46q0 -33 47 -33q39 0 39 25q0 22 -65 54zM875 293q24 22 24 45q0 28 -35 28q-38 0 -38 -24t49 -49z" />
    <glyph glyph-name="fiveeighths" unicode="&#x215d;" horiz-adv-x="1070" 
d="M378 614h-177l-6 -57q40 19 83 19q65 0 101.5 -33t36.5 -97q0 -77 -52.5 -125t-155.5 -48q-128 0 -198 67l79 96q52 -40 101 -40q46 0 46 36q0 29 -28 29q-22 0 -34 -20l-113 41l16 252h301v-120zM446 -17h-192l357 741h191zM972 243q42 -25 58.5 -49t16.5 -59
q0 -72 -57 -107.5t-152 -35.5q-189 0 -189 122q0 76 71 108q-58 34 -58 97q0 68 51 106.5t137 38.5q179 0 179 -119q0 -31 -13.5 -53t-43.5 -49zM806 170q-21 -24 -21 -46q0 -33 47 -33q39 0 39 25q0 22 -65 54zM876 293q24 22 24 45q0 28 -35 28q-38 0 -38 -24t49 -49z" />
    <glyph glyph-name="seveneighths" unicode="&#x215e;" horiz-adv-x="1070" 
d="M299 281h-194q11 119 62 212t94 126h-98q-6 0 -6 -10l-3 -38l-114 -9v172h393v-101q-128 -140 -134 -352zM416 -17h-192l357 741h191zM959 243q42 -25 58.5 -49t16.5 -59q0 -72 -57 -107.5t-152 -35.5q-189 0 -189 122q0 76 71 108q-58 34 -58 97q0 68 51 106.5t137 38.5
q179 0 179 -119q0 -31 -13.5 -53t-43.5 -49zM793 170q-21 -24 -21 -46q0 -33 47 -33q39 0 39 25q0 22 -65 54zM863 293q24 22 24 45q0 28 -35 28q-38 0 -38 -24t49 -49z" />
    <glyph glyph-name="partialdiff" unicode="&#x2202;" horiz-adv-x="590" 
d="M356 370l6 3q6 156 -99 156q-70 0 -134 -55l-80 122q45 36 112.5 58.5t141.5 22.5q260 0 260 -317q0 -84 -14 -148.5t-46 -116.5t-88.5 -79.5t-135.5 -27.5q-115 0 -184 55t-69 161q0 103 57.5 157t151.5 54q76 0 121 -45zM347 267q-29 16 -56 16q-29 0 -40.5 -17.5
t-11.5 -54.5q0 -75 50 -75q31 0 43.5 31.5t14.5 99.5z" />
    <glyph glyph-name="Delta" unicode="&#x2206;" horiz-adv-x="772" 
d="M772 0h-772l266 724h239zM474 169l-102 324h-10l-107 -324h219z" />
    <glyph glyph-name="product" unicode="&#x220f;" horiz-adv-x="800" 
d="M800 -176h-379v103l63 7q10 1 13 5t3 15v618h-204v-617q0 -12 2.5 -15.5t13.5 -4.5l67 -8v-103h-379v103l63 7q10 1 13 5t3 15v638q0 12 -3 15.5t-13 4.5l-63 7v105h800v-105l-67 -8q-11 -1 -13.5 -4.5t-2.5 -14.5v-637q0 -12 2.5 -15.5t13.5 -4.5l67 -8v-103z" />
    <glyph glyph-name="summation" unicode="&#x2211;" horiz-adv-x="627" 
d="M607 -176h-610v110l219 328l-217 360v102h570v-239l-153 6l-14 75q-3 13 -17 13h-124l161 -288l-197 -299h198q14 0 16 11l16 88h152v-267z" />
    <glyph glyph-name="minus" unicode="&#x2212;" 
d="M484 248h-397v153h397v-153z" />
    <glyph glyph-name="uni2215" unicode="&#x2215;" horiz-adv-x="454" 
d="M163 -17h-178l313 648h177z" />
    <glyph glyph-name="uni2219" unicode="&#x2219;" horiz-adv-x="289" 
d="M256 309q0 -48 -28.5 -74.5t-84.5 -26.5q-115 0 -115 101q0 49 29 75.5t86 26.5q56 0 84.5 -26.5t28.5 -75.5z" />
    <glyph glyph-name="radical" unicode="&#x221a;" horiz-adv-x="617" 
d="M427 0h-186l-109 188q-6 9 -17 7l-62 -10l-53 115l197 96l107 -211l148 564l165 -41z" />
    <glyph glyph-name="infinity" unicode="&#x221e;" horiz-adv-x="677" 
d="M337 235q-55 -60 -140 -60q-71 0 -114 36.5t-43 112.5q0 70 46.5 108.5t114.5 38.5q77 0 137 -60q69 60 145 60q69 0 111.5 -37t42.5 -112q0 -71 -44.5 -111t-112.5 -40q-83 0 -143 64zM274 324q-22 22 -36 30.5t-33 8.5q-22 0 -35 -10.5t-13 -30.5q0 -16 13 -28t33 -12
q34 0 71 42zM413 329q38 -42 69 -42q39 0 39 39q0 38 -38 38q-24 0 -70 -35z" />
    <glyph glyph-name="integral" unicode="&#x222b;" horiz-adv-x="428" 
d="M36 -163l31 125q36 -15 59 -15q16 0 21 12.5t1 54.5l-50 562q-4 46 10.5 78t40.5 46.5t49 20.5t46 6q76 0 154 -26l-31 -125q-33 15 -59 15q-16 0 -21 -13.5t-1 -53.5l50 -562q4 -46 -10.5 -78.5t-40.5 -47t-49 -20t-46 -5.5q-76 0 -154 26z" />
    <glyph glyph-name="approxequal" unicode="&#x2248;" 
d="M420 532l94 -25q-11 -68 -33.5 -107t-71.5 -39q-38 0 -113 15.5t-103 15.5q-16 0 -24.5 -6t-18.5 -25l-94 43q24 66 51 97.5t72 31.5q39 0 110 -16t102 -16q11 0 16.5 7t12.5 24zM421 329l93 -25q-10 -67 -33 -106t-72 -39q-38 0 -113 15t-103 15q-16 0 -24.5 -6
t-18.5 -25l-94 43q25 67 51.5 98t71.5 31q39 0 110 -16t102 -16q11 0 17 7t13 24z" />
    <glyph glyph-name="notequal" unicode="&#x2260;" 
d="M483 100h-190l-23 -75h-143l24 75h-66v152h116l19 59h-135v152h185l25 76h137l-24 -76h75v-152h-123l-19 -59h142v-152z" />
    <glyph glyph-name="lessequal" unicode="&#x2264;" 
d="M486 146l-397 130v180l398 129v-154l-233 -60l232 -68v-157zM486 0h-397v152h397v-152z" />
    <glyph glyph-name="greaterequal" unicode="&#x2265;" 
d="M481 276l-397 -130v157l232 68l-233 54v160l398 -129v-180zM481 0h-397v152h397v-152z" />
    <glyph glyph-name="triangle" unicode="&#x25b3;" horiz-adv-x="425" 
d="M335 320l-185 -117v231z" />
    <glyph glyph-name="lozenge" unicode="&#x25ca;" 
d="M358 -17h-146l-154 324l154 324h146l154 -324zM285 134l79 173l-79 162l-79 -162z" />
    <glyph glyph-name="circle" unicode="&#x25cb;" horiz-adv-x="610" 
d="M305 119q-85 0 -145 60t-60 145t60 145t145 60t145 -60t60 -145t-60 -145t-145 -60z" />
    <glyph glyph-name="onefifth" unicode="&#xf500;" horiz-adv-x="1070" 
d="M389 281h-301v86l47 4q11 1 11 14v234q0 11 -9 14l-51 13l12 89h232v-350q0 -8 1.5 -10t9.5 -4l48 -4v-86zM462 -17h-192l357 741h191zM1017 333h-177l-6 -57q40 19 83 19q65 0 101.5 -33t36.5 -97q0 -77 -52.5 -125t-155.5 -48q-128 0 -198 67l79 96q52 -40 101 -40
q46 0 46 36q0 29 -28 29q-22 0 -34 -20l-113 41l16 252h301v-120z" />
    <glyph glyph-name="twofifths" unicode="&#xf501;" horiz-adv-x="1070" 
d="M398 281h-384v95l148 146q58 58 58 86q0 22 -22 22q-29 0 -29 -49l-155 13q1 152 193 152q89 0 131.5 -34.5t42.5 -92.5t-58 -119l-116 -121h56q8 0 9 8l6 38h120v-144zM474 -17h-192l357 741h191zM1022 333h-177l-6 -57q40 19 83 19q65 0 101.5 -33t36.5 -97
q0 -77 -52.5 -125t-155.5 -48q-128 0 -198 67l79 96q52 -40 101 -40q46 0 46 36q0 29 -28 29q-22 0 -34 -20l-113 41l16 252h301v-120z" />
    <glyph glyph-name="threefifths" unicode="&#xf502;" horiz-adv-x="1070" 
d="M320 516v-2q96 -16 96 -102q0 -64 -59.5 -101.5t-149.5 -37.5q-61 0 -114.5 17.5t-83.5 46.5l79 97q51 -41 101 -41q45 0 45 33q0 16 -9.5 21t-29.5 5q-17 0 -51 -6v105l24 3q34 4 47.5 13.5t13.5 36.5t-22 27q-14 0 -19 -10.5t-6 -32.5l-154 13q0 44 16.5 74t46.5 44.5
t61.5 20t72.5 5.5q91 0 134 -29t43 -93q0 -38 -23 -68.5t-59 -38.5zM458 -17h-192l357 741h191zM1011 333h-177l-6 -57q40 19 83 19q65 0 101.5 -33t36.5 -97q0 -77 -52.5 -125t-155.5 -48q-128 0 -198 67l79 96q52 -40 101 -40q46 0 46 36q0 29 -28 29q-22 0 -34 -20
l-113 41l16 252h301v-120z" />
    <glyph glyph-name="fourfifths" unicode="&#xf503;" horiz-adv-x="1070" 
d="M379 281h-164v78h-205v90l209 286h159v-280h52v-94h-51v-80zM214 455v109h-5l-79 -109h84zM474 -17h-192l357 741h191zM1027 333h-177l-6 -57q40 19 83 19q65 0 101.5 -33t36.5 -97q0 -77 -52.5 -125t-155.5 -48q-128 0 -198 67l79 96q52 -40 101 -40q46 0 46 36
q0 29 -28 29q-22 0 -34 -20l-113 41l16 252h301v-120z" />
    <glyph glyph-name="onesixth" unicode="&#xf504;" horiz-adv-x="1070" 
d="M343 281h-301v86l47 4q11 1 11 14v234q0 11 -9 14l-51 13l12 89h232v-350q0 -8 1.5 -10t9.5 -4l48 -4v-86zM423 -17h-192l357 741h191zM1031 335l-170 -20q0 43 -18 43q-35 0 -35 -90q40 12 84 12q148 0 148 -122q0 -47 -18 -81t-49.5 -52t-66 -25.5t-74.5 -7.5
q-205 0 -205 227q0 47 11 88t35.5 77.5t71 58t110.5 21.5q36 0 63 -4.5t54 -17t42.5 -40t16.5 -67.5zM808 186q0 -35 3.5 -53t8.5 -22t15 -4q23 0 23 39q0 46 -25 46q-13 0 -25 -6z" />
    <glyph glyph-name="fivesixths" unicode="&#xf505;" horiz-adv-x="1070" 
d="M369 614h-177l-6 -57q40 19 83 19q65 0 101.5 -33t36.5 -97q0 -77 -52.5 -125t-155.5 -48q-128 0 -198 67l79 96q52 -40 101 -40q46 0 46 36q0 29 -28 29q-22 0 -34 -20l-113 41l16 252h301v-120zM442 -17h-192l357 741h191zM1038 335l-170 -20q0 43 -18 43
q-35 0 -35 -90q40 12 84 12q148 0 148 -122q0 -47 -18 -81t-49.5 -52t-66 -25.5t-74.5 -7.5q-205 0 -205 227q0 47 11 88t35.5 77.5t71 58t110.5 21.5q36 0 63 -4.5t54 -17t42.5 -40t16.5 -67.5zM815 186q0 -35 3.5 -53t8.5 -22t15 -4q23 0 23 39q0 46 -25 46q-13 0 -25 -6z
" />
    <glyph glyph-name="oneseventh" unicode="&#xf506;" horiz-adv-x="1070" 
d="M342 281h-301v86l47 4q11 1 11 14v234q0 11 -9 14l-51 13l12 89h232v-350q0 -8 1.5 -10t9.5 -4l48 -4v-86zM418 -17h-192l357 741h191zM927 0h-194q11 119 62 212t94 126h-98q-6 0 -6 -10l-3 -38l-114 -9v172h393v-101q-128 -140 -134 -352z" />
    <glyph glyph-name="twosevenths" unicode="&#xf507;" horiz-adv-x="1070" 
d="M375 281h-384v95l148 146q58 58 58 86q0 22 -22 22q-29 0 -29 -49l-155 13q1 152 193 152q89 0 131.5 -34.5t42.5 -92.5t-58 -119l-116 -121h56q8 0 9 8l6 38h120v-144zM441 -17h-192l357 741h191zM945 0h-194q11 119 62 212t94 126h-98q-6 0 -6 -10l-3 -38l-114 -9v172
h393v-101q-128 -140 -134 -352z" />
    <glyph glyph-name="threesevenths" unicode="&#xf508;" horiz-adv-x="1070" 
d="M303 516v-2q96 -16 96 -102q0 -64 -59.5 -101.5t-149.5 -37.5q-62 0 -115 17.5t-83 46.5l79 97q51 -41 101 -41q45 0 45 33q0 16 -9.5 21t-29.5 5q-16 0 -51 -6v105l24 3q34 4 47.5 13.5t13.5 36.5t-22 27q-14 0 -19 -10.5t-6 -32.5l-154 13q0 44 16.5 74t46.5 44.5
t61.5 20t72.5 5.5q91 0 134 -29t43 -93q0 -38 -23 -68.5t-59 -38.5zM437 -17h-192l357 741h191zM936 0h-194q11 119 62 212t94 126h-98q-6 0 -6 -10l-3 -38l-114 -9v172h393v-101q-128 -140 -134 -352z" />
    <glyph glyph-name="foursevenths" unicode="&#xf509;" horiz-adv-x="1070" 
d="M356 281h-164v78h-205v90l209 286h159v-280h52v-94h-51v-80zM191 455v109h-5l-79 -109h84zM448 -17h-192l357 741h191zM950 0h-194q11 119 62 212t94 126h-98q-6 0 -6 -10l-3 -38l-114 -9v172h393v-101q-128 -140 -134 -352z" />
    <glyph glyph-name="fivesevenths" unicode="&#xf50a;" horiz-adv-x="1070" 
d="M359 614h-177l-6 -57q40 19 83 19q65 0 101.5 -33t36.5 -97q0 -77 -52.5 -125t-155.5 -48q-128 0 -198 67l79 96q52 -40 101 -40q46 0 46 36q0 29 -28 29q-22 0 -34 -20l-113 41l16 252h301v-120zM429 -17h-192l357 741h191zM929 0h-194q11 119 62 212t94 126h-98
q-6 0 -6 -10l-3 -38l-114 -9v172h393v-101q-128 -140 -134 -352z" />
    <glyph glyph-name="sixsevenths" unicode="&#xf50b;" horiz-adv-x="1070" 
d="M405 616l-170 -20q0 43 -18 43q-35 0 -35 -90q40 12 84 12q148 0 148 -122q0 -47 -18 -81t-49.5 -52t-66 -25.5t-74.5 -7.5q-205 0 -205 227q0 47 11 88t35.5 77.5t71 58t110.5 21.5q36 0 63 -4.5t54 -17t42.5 -40t16.5 -67.5zM182 467q0 -35 3.5 -53t8.5 -22t15 -4
q23 0 23 39q0 46 -25 46q-13 0 -25 -6zM446 -17h-192l357 741h191zM947 0h-194q11 119 62 212t94 126h-98q-6 0 -6 -10l-3 -38l-114 -9v172h393v-101q-128 -140 -134 -352z" />
    <glyph glyph-name="oneninth" unicode="&#xf50c;" horiz-adv-x="1070" 
d="M342 281h-301v86l47 4q11 1 11 14v234q0 11 -9 14l-51 13l12 89h232v-350q0 -8 1.5 -10t9.5 -4l48 -4v-86zM417 -17h-192l357 741h191zM649 52l66 92q50 -34 96 -34q23 0 37 12.5t17 46.5q-33 -11 -69 -11q-69 0 -114.5 35.5t-45.5 108.5q0 76 54.5 119t140.5 43
q109 0 163 -56.5t54 -152.5q0 -118 -53 -190.5t-171 -72.5q-50 0 -99.5 17.5t-75.5 42.5zM867 257q0 5 0.5 13t0.5 12q0 63 -30 63q-24 0 -24 -38q0 -53 35 -53q7 0 18 3z" />
    <glyph glyph-name="twoninths" unicode="&#xf50d;" horiz-adv-x="1070" 
d="M388 281h-384v95l148 146q58 58 58 86q0 22 -22 22q-29 0 -29 -49l-155 13q1 152 193 152q89 0 131.5 -34.5t42.5 -92.5t-58 -119l-116 -121h56q8 0 9 8l6 38h120v-144zM453 -17h-192l357 741h191zM674 52l66 92q50 -34 96 -34q23 0 37 12.5t17 46.5q-33 -11 -69 -11
q-69 0 -114.5 35.5t-45.5 108.5q0 76 54.5 119t140.5 43q109 0 163 -56.5t54 -152.5q0 -118 -53 -190.5t-171 -72.5q-50 0 -99.5 17.5t-75.5 42.5zM892 257q0 5 0.5 13t0.5 12q0 63 -30 63q-24 0 -24 -38q0 -53 35 -53q8 0 18 3z" />
    <glyph glyph-name="fourninths" unicode="&#xf50e;" horiz-adv-x="1070" 
d="M362 281h-164v78h-205v90l209 286h159v-280h52v-94h-51v-80zM197 455v109h-5l-79 -109h84zM453 -17h-192l357 741h191zM668 52l66 92q50 -34 96 -34q23 0 37 12.5t17 46.5q-33 -11 -69 -11q-69 0 -114.5 35.5t-45.5 108.5q0 76 54.5 119t140.5 43q109 0 163 -56.5
t54 -152.5q0 -118 -53 -190.5t-171 -72.5q-50 0 -99.5 17.5t-75.5 42.5zM886 257q0 5 0.5 13t0.5 12q0 63 -30 63q-24 0 -24 -38q0 -53 35 -53q8 0 18 3z" />
    <glyph glyph-name="fiveninths" unicode="&#xf50f;" horiz-adv-x="1070" 
d="M375 614h-177l-6 -57q40 19 83 19q65 0 101.5 -33t36.5 -97q0 -77 -52.5 -125t-155.5 -48q-128 0 -198 67l79 96q52 -40 101 -40q46 0 46 36q0 29 -28 29q-22 0 -34 -20l-113 41l16 252h301v-120zM439 -17h-192l357 741h191zM659 52l66 92q50 -34 96 -34q23 0 37 12.5
t17 46.5q-33 -11 -69 -11q-69 0 -114.5 35.5t-45.5 108.5q0 76 54.5 119t140.5 43q109 0 163 -56.5t54 -152.5q0 -118 -53 -190.5t-171 -72.5q-50 0 -99.5 17.5t-75.5 42.5zM877 257q0 5 0.5 13t0.5 12q0 63 -30 63q-24 0 -24 -38q0 -53 35 -53q7 0 18 3z" />
    <glyph glyph-name="sevenninths" unicode="&#xf510;" horiz-adv-x="1070" 
d="M284 281h-194q11 119 62 212t94 126h-98q-6 0 -6 -10l-3 -38l-114 -9v172h393v-101q-128 -140 -134 -352zM399 -17h-192l357 741h191zM626 52l66 92q50 -34 96 -34q23 0 37 12.5t17 46.5q-33 -11 -69 -11q-69 0 -114.5 35.5t-45.5 108.5q0 76 54.5 119t140.5 43
q109 0 163 -56.5t54 -152.5q0 -118 -53 -190.5t-171 -72.5q-50 0 -99.5 17.5t-75.5 42.5zM844 257q0 5 0.5 13t0.5 12q0 63 -30 63q-24 0 -24 -38q0 -53 35 -53q8 0 18 3z" />
    <glyph glyph-name="eightninths" unicode="&#xf511;" horiz-adv-x="1070" 
d="M330 524q42 -25 58.5 -49t16.5 -59q0 -72 -57 -107.5t-152 -35.5q-189 0 -189 122q0 76 71 108q-58 34 -58 97q0 68 51 106.5t137 38.5q179 0 179 -119q0 -31 -13.5 -53t-43.5 -49zM164 451q-21 -24 -21 -46q0 -33 47 -33q39 0 39 25q0 22 -65 54zM234 574q24 22 24 45
q0 28 -35 28q-38 0 -38 -24t49 -49zM443 -17h-192l357 741h191zM665 52l66 92q50 -34 96 -34q23 0 37 12.5t17 46.5q-33 -11 -69 -11q-69 0 -114.5 35.5t-45.5 108.5q0 76 54.5 119t140.5 43q109 0 163 -56.5t54 -152.5q0 -118 -53 -190.5t-171 -72.5q-50 0 -99.5 17.5
t-75.5 42.5zM883 257q0 5 0.5 13t0.5 12q0 63 -30 63q-24 0 -24 -38q0 -53 35 -53q7 0 18 3z" />
    <glyph glyph-name="eng.smcp" unicode="&#xf620;" horiz-adv-x="710" 
d="M427 0l-203 293v-176q0 -9 2 -12t11 -4l55 -6v-95h-275v95l52 6q13 1 13 15v334q0 10 -2.5 13t-10.5 4l-52 6v94h271l208 -300v181q0 9 -2.5 12t-12.5 4l-51 5v99h275v-99l-56 -6q-9 -1 -11 -3.5t-2 -11.5v-482q0 -99 -61 -144t-163 -45q-66 0 -124 22.5t-80 41.5l50 108
q51 -27 99 -27q20 0 33.5 3.5t25 20t11.5 46.5v8z" />
    <glyph glyph-name="eth.smcp" unicode="&#xf622;" horiz-adv-x="645" 
d="M45 228v116h50v107q0 7 -2.5 10t-10.5 5l-52 6v96h301q151 0 224 -72t73 -203q0 -136 -78 -214.5t-233 -78.5h-287v98l52 6q13 1 13 9v115h-50zM305 128h5q30 0 51 9.5t31.5 22.5t16 38t6.5 43t1 51q0 78 -20 111.5t-85 33.5h-6v-93h59v-116h-59v-100z" />
    <glyph glyph-name="hbar.smcp" unicode="&#xf623;" horiz-adv-x="719" 
d="M683 327h-46v-210q0 -9 2 -12t11 -4l56 -6v-95h-334v95l42 6q9 1 11 3.5t2 11.5v101h-135v-100q0 -9 2 -12t11 -4l42 -6v-95h-330v95l52 6q13 1 13 15v211h-56v114h56v7q0 9 -2.5 12t-10.5 4l-52 5v99h330v-99l-42 -6q-8 -1 -10.5 -3.5t-2.5 -11.5v-7h135v7q0 9 -2 12
t-11 4l-42 5v99h334v-99l-56 -6q-9 -1 -11 -3.5t-2 -11.5v-7h46v-114zM292 328h135v29h-135v-29z" />
    <glyph glyph-name="dotlessi.smcp" unicode="&#xf626;" horiz-adv-x="378" 
d="M371 0h-360v95l60 6q13 1 13 15v332q0 9 -2.5 12t-10.5 4l-60 5v99h360v-99l-64 -6q-9 -1 -11 -3.5t-2 -11.5v-331q0 -9 2 -12t11 -4l64 -6v-95z" />
    <glyph glyph-name="oslash.smcp" unicode="&#xf627;" horiz-adv-x="635" 
d="M228 -60h-175l55 107q-92 75 -92 227q0 135 78.5 219.5t229.5 84.5q28 0 53 -3l27 53h174l-55 -108q96 -75 96 -227q0 -142 -77 -223.5t-230 -81.5q-22 0 -58 4zM320 143q40 0 61.5 30.5t21.5 113.5q0 29 -3 50l-98 -193q5 -1 18 -1zM231 282q0 -21 2 -47l97 188
q-2 0 -4.5 0.5t-3.5 0.5q-91 0 -91 -142z" />
    <glyph glyph-name="thorn.smcp" unicode="&#xf628;" horiz-adv-x="568" 
d="M430 0h-413v96l53 7q10 2 12.5 5t2.5 13v328q0 14 -14 15l-54 6v98h277v-86h50q112 0 158.5 -42t46.5 -120q0 -97 -60.5 -138.5t-173.5 -41.5h-21v-21q0 -10 2 -13t11 -4l123 -8v-94zM294 267h6q47 0 47 44q0 39 -47 39h-6v-83z" />
    <glyph glyph-name="tbar.smcp" unicode="&#xf629;" horiz-adv-x="647" 
d="M536 0h-413v96l85 6q9 1 11 4t2 12v79h-69v116h69v123h-27q-11 0 -13 -11l-13 -67h-148v210h607v-210h-145l-13 68q-2 10 -13 10h-25v-123h65v-116h-65v-79q0 -9 2.5 -11.5t11.5 -3.5l91 -7v-96z" />
    <glyph glyph-name="kgreenlandic.smcp" unicode="&#xf62a;" horiz-adv-x="669" 
d="M673 0h-242l-99 179l-40 -46v-14q0 -16 13 -17l48 -6v-96h-336v96l52 7q13 1 13 17v329q0 9 -2.5 11.5t-10.5 4.5l-52 5v98h338v-98l-50 -6q-13 -1 -13 -13v-148l141 160l-46 7v98h260v-99l-25 -2q-16 -2 -25 -14l-117 -136l118 -199q8 -12 25 -15l50 -7v-96z" />
    <glyph glyph-name="lslash.smcp" unicode="&#xf62b;" horiz-adv-x="541" 
d="M515 0h-498v96l52 7q8 1 10.5 3.5t2.5 11.5v83l-54 -16v124l54 16v126q0 15 -13 15l-52 6v96h357v-96l-69 -6q-9 -1 -11 -3.5t-2 -11.5v-62l113 34v-124l-113 -34v-137h52q12 0 14 13l14 89h143v-230z" />
    <glyph glyph-name="germandbls.smcp" unicode="&#xf637;" horiz-adv-x="1031" 
d="M494 379l-148 11l-2 29q-1 12 -10 15q-18 6 -47 6q-49 0 -49 -27q0 -9 5.5 -15.5t21.5 -12t26 -8t36 -8.5q38 -9 63 -18t55.5 -27.5t46.5 -51.5t16 -79q0 -101 -72.5 -151.5t-187.5 -50.5q-55 0 -120.5 11t-97.5 25v159h146l7 -38q2 -10 5.5 -13t15.5 -5q17 -4 43 -4
q61 0 61 31q0 9 -5.5 15.5t-21 11.5t-24.5 7.5t-34 7.5q-32 7 -51 12t-48.5 18.5t-46 30.5t-29 46.5t-12.5 67.5q0 98 69.5 151t181.5 53q113 0 207 -41v-158zM992 379l-148 11l-2 29q-1 12 -10 15q-18 6 -47 6q-49 0 -49 -27q0 -9 5.5 -15.5t21.5 -12t26 -8t36 -8.5
q38 -9 63 -18t55.5 -27.5t46.5 -51.5t16 -79q0 -101 -72.5 -151.5t-187.5 -50.5q-55 0 -120.5 11t-97.5 25v159h146l7 -38q2 -10 5.5 -13t15.5 -5q17 -4 43 -4q61 0 61 31q0 9 -5.5 15.5t-21 11.5t-24.5 7.5t-34 7.5q-32 7 -51 12t-48.5 18.5t-46 30.5t-29 46.5t-12.5 67.5
q0 98 69.5 151t181.5 53q113 0 207 -41v-158z" />
    <glyph glyph-name="ordfeminine.smcp" unicode="&#xf640;" horiz-adv-x="465" 
d="M435 253h-169l-7 35l-5 1q-44 -44 -109 -44q-108 0 -108 104q0 52 32.5 74.5t104.5 27.5l63 4v38q0 27 -20 27q-14 0 -17.5 -7t-2.5 -28l-149 10q0 117 173 117q91 0 131.5 -27t40.5 -97v-142q0 -8 2 -10t9 -3l31 -5v-75zM237 342v51l-14 -1q-28 -2 -28 -29q0 -24 25 -24
q6 0 17 3z" />
    <glyph glyph-name="ordmasculine.smcp" unicode="&#xf641;" horiz-adv-x="460" 
d="M228 245q-102 0 -151.5 50t-49.5 136q0 84 52.5 132.5t155.5 48.5q102 0 150 -47.5t48 -130.5q0 -89 -51 -139t-154 -50zM231 345q35 0 35 86q0 80 -33 80q-38 0 -38 -81q0 -85 36 -85z" />
    <glyph glyph-name="questiondown.smcp" unicode="&#xf642;" horiz-adv-x="510" 
d="M208 379h189v-139q-34 -1 -58 -4.5t-54.5 -12t-47 -27t-16.5 -46.5q0 -45 44 -45q17 0 35 4q13 3 15 21l6 55l145 14v-164q-126 -47 -226 -47q-220 0 -220 165q0 47 17 84t60.5 65.5t110.5 35.5v41zM207 495q0 83 97 83t97 -83t-97 -83t-97 83z" />
    <glyph glyph-name="exclamdown.smcp" unicode="&#xf643;" horiz-adv-x="291" 
d="M61 379h170l20 -230v-151h-211v151zM49 494q0 84 97 84t97 -84q0 -82 -97 -82t-97 82z" />
    <glyph glyph-name="dcroat.smcp" unicode="&#xf653;" horiz-adv-x="645" 
d="M45 228v116h50v107q0 7 -2.5 10t-10.5 5l-52 6v96h301q151 0 224 -72t73 -203q0 -136 -78 -214.5t-233 -78.5h-287v98l52 6q13 1 13 9v115h-50zM305 128h5q30 0 51 9.5t31.5 22.5t16 38t6.5 43t1 51q0 78 -20 111.5t-85 33.5h-6v-93h59v-116h-59v-100z" />
    <glyph glyph-name="one.alt" unicode="&#xf801;" horiz-adv-x="800" 
d="M93 309q0 137 89 229.5t233 92.5q157 0 238.5 -90t81.5 -231q0 -139 -85.5 -230.5t-236.5 -91.5q-154 0 -237 90.5t-83 230.5zM291 117h247v73l-39 3q-10 2 -10 12v302h-189l-11 -74l42 -11q7 -3 7 -12v-205q0 -9 -9 -12l-38 -3v-73z" />
    <glyph glyph-name="two.alt" unicode="&#xf802;" horiz-adv-x="800" 
d="M93 309q0 137 88.5 229t233.5 92q157 0 238.5 -89.5t81.5 -230.5q0 -139 -85.5 -230.5t-236.5 -91.5q-154 0 -237 90.5t-83 230.5zM250 117h333v126h-95l-7 -36q-1 -8 -9 -8h-61l20 20q5 5 23 22.5t22.5 22.5t19 20t18.5 21t14.5 19t13.5 21t8.5 20t7 22.5t1.5 21.5
q0 47 -35 76.5t-107 29.5q-177 0 -178 -125l126 -11q0 45 32 45q24 0 24 -24q0 -15 -13.5 -35t-64.5 -72l-93 -95v-81z" />
    <glyph glyph-name="three.alt" unicode="&#xf803;" horiz-adv-x="800" 
d="M93 309q0 137 88.5 229t233.5 92q157 0 238.5 -89.5t81.5 -230.5q0 -139 -85.5 -230.5t-236.5 -91.5q-154 0 -237 90.5t-83 230.5zM504 317v3q32 10 49.5 35t17.5 57q0 53 -35.5 78t-111.5 25q-172 0 -172 -119l130 -11q1 40 37 40q13 0 21 -7.5t8 -19.5q0 -45 -71 -52
l-30 -3v-78q32 5 48 5q40 0 40 -29q0 -35 -41 -35q-20 0 -47.5 12t-44.5 25l-66 -81q24 -23 72.5 -37.5t100.5 -14.5q75 0 124.5 33t49.5 88q0 68 -79 86z" />
    <glyph glyph-name="four.alt" unicode="&#xf804;" horiz-adv-x="800" 
d="M93 309q0 137 88.5 229t233.5 92q157 0 238.5 -89.5t81.5 -230.5q0 -139 -85.5 -230.5t-236.5 -91.5q-154 0 -237 90.5t-83 230.5zM393 117h136v79h43v79h-43v232h-126l-193 -238v-74h183v-78zM391 275v95h-2l-77 -95h79z" />
    <glyph glyph-name="five.alt" unicode="&#xf805;" horiz-adv-x="800" 
d="M93 309q0 137 88.5 229t233.5 92q157 0 238.5 -89.5t81.5 -230.5q0 -139 -85.5 -230.5t-236.5 -91.5q-154 0 -237 90.5t-83 230.5zM390 411h157v96h-261l-12 -209l94 -34q16 18 33 18q31 0 31 -32q0 -41 -43 -41q-21 0 -48 10.5t-44 24.5l-66 -79q26 -25 74.5 -40
t101.5 -15q84 0 128 42t44 106q0 53 -29.5 82t-78.5 29q-53 0 -87 -24z" />
    <glyph glyph-name="six.alt" unicode="&#xf806;" horiz-adv-x="800" 
d="M93 309q0 137 88.5 229t233.5 92q157 0 238.5 -89.5t81.5 -230.5q0 -139 -85.5 -230.5t-236.5 -91.5q-154 0 -237 90.5t-83 230.5zM431 391l138 18q-3 62 -42 84t-100 22q-54 0 -93.5 -18.5t-60 -50.5t-29.5 -66.5t-9 -74.5q0 -96 41 -145.5t132 -49.5q72 0 120.5 31.5
t48.5 107.5q0 57 -36 81t-86 24q-47 0 -77 -16q2 91 35 91q18 0 18 -38zM379 278q-1 -75 29 -75q25 0 25 36q0 45 -28 45q-2 0 -26 -6z" />
    <glyph glyph-name="seven.alt" unicode="&#xf807;" horiz-adv-x="800" 
d="M93 309q0 137 88.5 229t233.5 92q157 0 238.5 -89.5t81.5 -230.5q0 -139 -85.5 -230.5t-236.5 -91.5q-154 0 -237 90.5t-83 230.5zM319 117h160q2 86 30 167.5t80 138.5v84h-338v-143l96 8l2 30q1 9 9 9h97q-35 -26 -81.5 -110.5t-54.5 -183.5z" />
    <glyph glyph-name="eight.alt" unicode="&#xf808;" horiz-adv-x="800" 
d="M93 309q0 137 88.5 229t233.5 92q157 0 238.5 -89.5t81.5 -230.5q0 -139 -85.5 -230.5t-236.5 -91.5q-154 0 -237 90.5t-83 230.5zM520 323q47 45 47 92t-42 73.5t-113 26.5q-68 0 -111.5 -32t-43.5 -89q0 -59 49 -89q-23 -11 -41.5 -34.5t-18.5 -55.5q0 -105 157 -105
q80 0 131 30.5t51 91.5q0 23 -9 40t-20.5 26.5t-35.5 24.5zM375 264q-25 -21 -25 -43q0 -38 48 -38q40 0 40 29q0 20 -63 52zM443 364q20 25 20 45q0 32 -39 32q-36 0 -36 -28q0 -14 12 -24.5t43 -24.5z" />
    <glyph glyph-name="nine.alt" unicode="&#xf809;" horiz-adv-x="800" 
d="M93 309q0 137 88.5 229t233.5 92q157 0 238.5 -89.5t81.5 -230.5q0 -139 -85.5 -230.5t-236.5 -91.5q-154 0 -237 90.5t-83 230.5zM312 235l-53 -74q23 -22 66 -36.5t87 -14.5q49 0 84.5 17.5t55.5 49.5t29.5 70.5t9.5 85.5q0 85 -43 133.5t-132 48.5q-72 0 -118 -37
t-46 -103q0 -62 41 -91.5t104 -29.5q27 0 53 11q-3 -32 -14.5 -45t-39.5 -13q-38 0 -84 28zM454 329q0 91 -37 91q-25 0 -25 -43q0 -23 10 -38t28 -15q12 0 24 5z" />
    <glyph glyph-name="zero.tosf" unicode="&#xf81e;" 
d="M286 130q28 0 40 32.5t12 132.5q0 67 -6 102t-16 46t-28 11q-29 0 -42 -32t-13 -126q0 -101 11.5 -133.5t41.5 -32.5zM277 -12q-146 0 -205.5 74.5t-59.5 233.5q0 154 65 228.5t214 74.5q148 0 207 -73.5t59 -225.5q0 -161 -65 -236.5t-215 -75.5z" />
    <glyph glyph-name="one.tosf" unicode="&#xf81f;" 
d="M510 0h-430v103l91 9q10 1 13 4.5t3 15.5v303q0 17 -12 21l-79 20l15 107h287v-451q0 -12 2.5 -15.5t13.5 -4.5l96 -9v-103z" />
    <glyph glyph-name="two.tosf" unicode="&#xf820;" 
d="M547 0h-503v124l130 130q82 82 104.5 110.5t22.5 56.5q0 33 -31 33q-25 0 -34.5 -16t-9.5 -59l-188 15q1 205 255 205q219 0 219 -163q0 -30 -7.5 -55.5t-28 -53.5t-33 -42.5t-47.5 -50.5l-108 -108h88q10 0 13 13l12 63h146v-202z" />
    <glyph glyph-name="three.tosf" unicode="&#xf821;" 
d="M399 272v-4q63 -8 98 -47t35 -107q0 -103 -72.5 -150t-191.5 -47q-82 0 -153 26t-115 73l106 117q33 -31 63.5 -47.5t75.5 -16.5q79 0 79 65q0 58 -62 58q-34 0 -78 -9v132l39 5q89 10 89 93q0 41 -39 41q-27 0 -37 -15.5t-10 -59.5l-190 15q0 63 21.5 106t60 63.5
t77.5 28t88 7.5q124 0 177.5 -41t53.5 -133q0 -62 -34.5 -101.5t-80.5 -51.5z" />
    <glyph glyph-name="four.tosf" unicode="&#xf822;" 
d="M492 -67h-190v111h-282v141l181 427l169 -74l-155 -334h87v117l189 40v-157h67v-160h-66v-111z" />
    <glyph glyph-name="five.tosf" unicode="&#xf823;" 
d="M485 420h-257l-11 -94l4 -3q55 34 119 34q91 0 142 -51.5t51 -154.5q0 -100 -69.5 -167t-196.5 -67q-187 0 -274 101l103 116q71 -65 148 -65q39 0 60 21t21 56q0 64 -63 64q-43 0 -69 -38l-134 53l24 358h253q11 0 14 13l13 55l122 9v-240z" />
    <glyph glyph-name="six.tosf" unicode="&#xf824;" 
d="M546 478l-196 -23q0 43 -9 57.5t-39 14.5q-31 0 -46.5 -32.5t-18.5 -105.5q53 20 113 20q203 0 203 -193q0 -228 -261 -228q-146 0 -207.5 84.5t-61.5 244.5q0 62 13 118.5t42.5 110t86.5 85.5t136 32q245 0 245 -185zM237 268q2 -73 13.5 -101.5t45.5 -28.5q43 0 43 71
q0 38 -11 55t-37 17q-21 0 -54 -13z" />
    <glyph glyph-name="seven.tosf" unicode="&#xf825;" 
d="M357 -67h-222q8 95 35 181.5t63 147.5t63 97t53 61h-140q-11 0 -14 -12l-14 -76l-147 -11v262h523v-143q-191 -214 -200 -507z" />
    <glyph glyph-name="eight.tosf" unicode="&#xf826;" 
d="M448 345q49 -30 75 -64.5t26 -90.5q0 -102 -74.5 -152t-197.5 -50q-246 0 -246 180q0 83 86 155q-69 55 -69 140q0 94 66.5 147t176.5 53q108 0 167.5 -44t59.5 -128t-70 -146zM231 259q-35 -36 -35 -78q0 -63 78 -63q67 0 67 50q0 9 -3 17t-10 15t-14 13t-19 13t-20 11
t-22.5 11t-21.5 11zM323 404q32 41 32 75q0 23 -15 38.5t-44 15.5q-53 0 -53 -47q0 -44 80 -82z" />
    <glyph glyph-name="nine.tosf" unicode="&#xf827;" 
d="M26 0l83 120q66 -54 135 -54q44 0 63 25.5t23 100.5q-57 -21 -108 -21q-54 0 -98.5 18t-76 64.5t-31.5 116.5q0 114 67.5 171.5t185.5 57.5q277 0 277 -317q0 -364 -289 -364q-66 0 -130.5 23t-100.5 59zM330 311q-2 76 -14.5 107.5t-43.5 31.5q-42 0 -42 -71
q0 -41 11 -61.5t39 -20.5q27 0 50 14z" />
    <glyph glyph-name="st" unicode="&#xfb06;" horiz-adv-x="929" 
d="M482 367l-151 8l-5 25q-2 10 -11 13q-18 6 -48 6q-51 0 -51 -27q0 -10 6 -17t22.5 -12.5t26 -8t36.5 -7.5q33 -6 52 -11t49 -17.5t46.5 -29t29.5 -45.5t13 -67q0 -94 -67 -141.5t-183 -47.5q-142 0 -214 38v128l147 -9l6 -30q2 -14 15 -17q17 -5 55 -5q56 0 56 35
q0 18 -20.5 26t-62.5 15q-3 0 -5 0.5t-5 1t-5 0.5q-31 5 -51.5 10.5t-48.5 18t-44.5 30t-28.5 48t-12 70.5q0 95 69.5 143t173.5 48q20 0 54 -2q-4 28 -4 42q0 140 195 140q107 0 229 -30v-148q0 -13 12 -13h132v-132h-144v-182q0 -44 11 -60t48 -16q38 0 73 13l33 -115
q-90 -48 -187 -48q-104 0 -146.5 44t-42.5 144v408q-17 6 -33 6q-19 0 -27 -12t-8 -45q0 -71 15 -166z" />
    <glyph glyph-name="CR" horiz-adv-x="500" 
 />
    <glyph glyph-name="hyphen.case" horiz-adv-x="311" 
d="M296 267h-271v165h271v-165z" />
    <glyph glyph-name="ct" horiz-adv-x="939" 
d="M455 163l47 -118q-93 -57 -208 -57q-137 0 -208 74t-71 193q0 135 78 209.5t207 74.5q19 0 37 -3q-4 21 -4 45q0 65 43.5 101.5t150.5 36.5t229 -30v-148q0 -13 12 -13h132v-132h-144v-182q0 -44 11 -60t48 -16q38 0 73 13l33 -115q-90 -48 -187 -48q-104 0 -146.5 44
t-42.5 144v408q-17 6 -33 6q-19 0 -27 -12t-8 -45q0 -95 27 -228l-147 5l-12 67q-4 16 -12 18q-13 4 -33 4q-27 0 -45.5 -28.5t-18.5 -92.5q0 -81 27 -110t70 -29q47 0 122 24z" />
    <glyph glyph-name="ch" horiz-adv-x="1111" 
d="M557 637q-14 2 -23 2q-23 0 -36 -9.5t-13 -37.5q0 -132 25 -287l-153 5l-12 66q-3 16 -13 19q-12 4 -29 4q-67 0 -67 -122q0 -138 98 -138q33 0 121 22l47 -116q-93 -57 -208 -57q-137 0 -208 73.5t-71 192.5q0 136 78 210.5t207 74.5q26 0 41 -2q-7 38 -7 77
q0 68 43 110t155 42q110 0 233 -22v-259l6 -2q53 56 136 56q74 0 109 -41t35 -127v-240q0 -12 2.5 -15.5t13.5 -4.5l43 -7v-104h-270v339q0 23 -5 33t-20 10q-19 0 -47 -13v-239q0 -12 2.5 -16t12.5 -5l34 -5v-104h-260v637z" />
    <glyph glyph-name="ck" horiz-adv-x="1140" 
d="M557 637q-14 2 -23 2q-23 0 -36 -9.5t-13 -37.5q0 -132 25 -287l-153 5l-12 66q-3 16 -13 19q-12 4 -29 4q-67 0 -67 -122q0 -138 98 -138q33 0 121 22l47 -116q-93 -57 -208 -57q-137 0 -208 73.5t-71 192.5q0 136 78 210.5t207 74.5q26 0 41 -2q-7 38 -7 77
q0 68 43 110t155 42q113 0 236 -22v-361l154 145h165v-104l-47 -7q-13 -2 -25 -15l-51 -49l104 -227q8 -16 30 -19l38 -5v-102h-240l-104 240l-24 -24v-85q0 -12 2.5 -15.5t13.5 -4.5l38 -7v-104h-265v637z" />
    <glyph glyph-name="Th" horiz-adv-x="1186" 
d="M841 755v-270l6 -2q53 56 136 56q74 0 109 -41t35 -127v-240q0 -12 2.5 -15.5t13.5 -4.5l43 -7v-104h-270v339q0 23 -5 33t-20 10q-19 0 -47 -13v-239q0 -12 2.5 -16t12.5 -5l34 -5v-104h-260v578h-154v-447q0 -11 2.5 -14.5t13.5 -4.5l100 -8v-104h-452v104l103 7
q10 1 13 5t3 14v448h-52q-14 0 -16 -11l-16 -87h-153v244h618q13 0 14 12l2 19h182z" />
    <glyph glyph-name="hyphensuperior" horiz-adv-x="232" 
d="M212 477h-192v128h192v-128z" />
    <glyph glyph-name="commasuperior" horiz-adv-x="187" 
d="M116 269l-74 18l16 73q3 10 -7 13l-34 8l15 105q31 1 52.5 -1t43 -8.5t32.5 -21.5t11 -38q0 -17 -19 -69z" />
    <glyph glyph-name="periodsuperior" horiz-adv-x="213" 
d="M193 414q0 -72 -86 -72q-87 0 -87 72t87 72q86 0 86 -72z" />
    <glyph glyph-name="a.sup" horiz-adv-x="419" 
d="M425 350h-169l-7 35l-5 1q-44 -44 -109 -44q-108 0 -108 104q0 52 32.5 74.5t104.5 27.5l63 4v38q0 27 -20 27q-14 0 -17.5 -7t-2.5 -28l-149 10q0 117 173 117q91 0 131.5 -27t40.5 -97v-142q0 -8 2 -10t9 -3l31 -5v-75zM227 439v51l-14 -1q-28 -2 -28 -29q0 -24 25 -24
q6 0 17 3z" />
    <glyph glyph-name="b.sup" horiz-adv-x="453" 
d="M189 350h-149q13 63 13 99v299q0 9 -11 14l-34 12l11 77h190v-175l3 -1q40 34 97 34q60 0 98 -42t38 -135q0 -98 -40.5 -144t-108.5 -46q-61 0 -97 44l-5 -1zM211 589v-135q13 -9 31 -9q33 0 33 79q0 70 -39 70q-15 0 -25 -5z" />
    <glyph glyph-name="c.sup" horiz-adv-x="388" 
d="M340 465l30 -85q-67 -38 -149 -38q-98 0 -148 49t-50 128q0 90 56 140t148 50q96 0 149 -33v-130l-111 5l-8 44q-2 11 -8 13t-18 2q-40 0 -40 -73q0 -87 63 -87q36 0 86 15z" />
    <glyph glyph-name="d.sup" horiz-adv-x="453" 
d="M462 350h-173l-8 35l-5 1q-41 -44 -108 -44q-142 0 -142 183q0 94 45.5 139t106.5 45q53 0 89 -27v66q0 11 -9 14l-34 12l10 77h185v-409q0 -7 1.5 -9t9.5 -4l32 -4v-75zM260 447v145q-10 5 -25 5q-19 0 -29.5 -19t-10.5 -50q0 -85 41 -85q12 0 24 4z" />
    <glyph glyph-name="e.sup" horiz-adv-x="392" 
d="M355 473l30 -92q-93 -39 -163 -39q-199 0 -199 186q0 88 54 134.5t140 46.5q167 0 167 -168q0 -4 -2 -38h-193q4 -51 56 -51q30 0 110 21zM188 568h53q0 48 -26 48q-27 0 -27 -48z" />
    <glyph glyph-name="f.sup" horiz-adv-x="347" 
d="M331 350h-308v75l33 4q11 2 11 14v158q0 8 -6 8h-43v93h49v18q0 75 45.5 107t132.5 32q69 0 110.5 -24t42.5 -91l-145 -15q0 24 -3 32t-12 8q-11 0 -11 -23v-37q0 -7 5 -7h107v-93h-112v-163q0 -7 3 -9.5t11 -3.5l90 -8v-75z" />
    <glyph glyph-name="g.sup" horiz-adv-x="436" 
d="M214 203q-84 0 -149 31l29 87q47 -19 91 -19q52 0 67.5 15t15.5 52v12l-4 2q-40 -34 -95 -34q-147 0 -147 173q0 55 15.5 94t40.5 58t50.5 27t52.5 8q57 0 92 -40l14 33h133q-4 -59 -4 -132v-182q0 -46 -12 -80t-31 -53.5t-46.5 -31.5t-54 -16t-58.5 -4zM257 455v137
q-10 5 -24 5q-19 0 -30 -19t-11 -50q0 -39 8.5 -58t31.5 -19q12 0 25 4z" />
    <glyph glyph-name="h.sup" horiz-adv-x="448" 
d="M455 350h-201v219q0 15 -3 20t-13 5q-11 0 -20 -7v-237h-199v75l27 4q12 2 12 13v306q0 11 -10 14l-34 12l11 77h191v-180l4 -1q47 39 103 39q48 0 69.5 -26t21.5 -85v-156q0 -8 1.5 -10t9.5 -3l30 -4v-75z" />
    <glyph glyph-name="i.sup" horiz-adv-x="250" 
d="M217 810q0 -39 -23.5 -61t-64.5 -22t-64 22t-23 61t22.5 60t64.5 21t65 -21t23 -60zM253 350h-229v75l22 4q12 2 12 13v157q0 9 -10 12l-34 14l9 77h195v-260q0 -8 1.5 -10t9.5 -3l24 -4v-75z" />
    <glyph glyph-name="j.sup" horiz-adv-x="248" 
d="M56 349v250q0 9 -9 12l-33 14l10 77h192v-376q0 -124 -145 -124q-48 0 -88.5 16t-58.5 30l37 76q45 -18 63 -18q32 0 32 43zM215 810q0 -39 -23 -61t-65 -22q-41 0 -64 22t-23 61t23 60t64 21q42 0 65 -21t23 -60z" />
    <glyph glyph-name="k.sup" horiz-adv-x="475" 
d="M477 350h-176l-71 156l-12 -8v-56q0 -8 1.5 -10t9.5 -3l23 -4v-75h-230v75l24 4q12 2 12 13v306q0 10 -10 14l-34 12l11 77h193v-236l104 87h121v-75l-32 -3q-11 -3 -19 -9l-32 -28l70 -149q6 -10 22 -12l25 -4v-72z" />
    <glyph glyph-name="l.sup" horiz-adv-x="252" 
d="M255 350h-233v75l24 4q12 2 12 13v306q0 10 -10 14l-34 12l11 77h193v-409q0 -8 1.5 -10t9.5 -3l26 -4v-75z" />
    <glyph glyph-name="m.sup" horiz-adv-x="623" 
d="M629 350h-200v228q0 18 -10 18q-7 0 -15 -4v-242h-160v230q0 17 -11 17q-9 0 -15 -2v-245h-199v75l27 4q12 2 12 13v157q0 9 -10 12l-34 14l9 77h164l5 -27l3 -2q45 36 105 36q58 0 84 -36q46 36 102 36q52 0 77.5 -26.5t25.5 -82.5v-158q0 -7 1.5 -9t9.5 -4l29 -4v-75z
" />
    <glyph glyph-name="n.sup" horiz-adv-x="448" 
d="M455 350h-201v223q0 21 -15 21q-9 0 -21 -5v-239h-199v75l27 4q12 2 12 13v157q0 9 -10 12l-35 14l11 77h163l5 -29l3 -2q64 38 118 38q52 0 76.5 -27t24.5 -84v-156q0 -8 1.5 -10t9.5 -3l30 -4v-75z" />
    <glyph glyph-name="o.sup" horiz-adv-x="432" 
d="M224 342q-102 0 -151.5 50t-49.5 136q0 84 52.5 132.5t155.5 48.5q102 0 150 -47.5t48 -130.5q0 -89 -51 -139t-154 -50zM227 442q35 0 35 86q0 80 -33 80q-38 0 -38 -81q0 -85 36 -85z" />
    <glyph glyph-name="p.sup" horiz-adv-x="454" 
d="M304 209h-292v75l30 4q12 1 12 16v295q0 9 -11 12l-34 14l11 77h161l7 -28l5 -1q48 36 113 36q140 0 140 -177q0 -190 -145 -190q-55 0 -92 29v-65q0 -14 14 -15l81 -7v-75zM212 589v-132q14 -10 34 -10q30 0 30 80q0 67 -37 67q-15 0 -27 -5z" />
    <glyph glyph-name="q.sup" horiz-adv-x="444" 
d="M464 209h-268v75l74 6q8 1 11 3.5t3 10.5v75l-6 1q-43 -38 -102 -38q-68 0 -108 44.5t-40 139.5q0 94 47 138.5t107 44.5q59 0 98 -39l13 32h133q-4 -46 -4 -128v-273q0 -11 8 -12l34 -5v-75zM263 447v146q-11 4 -23 4q-42 0 -42 -69q0 -17 1 -29t5 -26t14 -21.5t25 -7.5
q11 0 20 3z" />
    <glyph glyph-name="r.sup" horiz-adv-x="380" 
d="M305 350h-286v76l27 4q12 1 12 13v156q0 9 -10 12l-34 14l9 77h164l11 -63l4 -2q37 72 95 72q48 0 74 -6v-148l-128 4l-5 20q-2 11 -9 11q-5 0 -11 -2v-143q0 -8 2 -10.5t10 -2.5l75 -7v-75z" />
    <glyph glyph-name="s.sup" horiz-adv-x="379" 
d="M362 594l-110 7l-2 12q-1 8 -8 11q-9 3 -32 3q-35 0 -35 -15q0 -6 4 -10t13 -7.5t17.5 -5t23.5 -4.5q24 -4 37.5 -7t36 -11.5t34.5 -19.5t22 -30.5t10 -45.5q0 -64 -48.5 -96.5t-132.5 -32.5q-51 0 -97 8.5t-58 17.5v90l111 -7l5 -19q3 -11 11 -12q18 -3 35 -3
q34 0 34 19q0 6 -4 11t-15.5 8.5t-18.5 5t-26 5.5q-24 4 -37.5 7.5t-35 12t-33.5 19.5t-21 30t-9 44q0 64 50.5 97t126.5 33q100 0 152 -21v-94z" />
    <glyph glyph-name="t.sup" horiz-adv-x="338" 
d="M311 458l24 -82q-62 -34 -137 -34q-77 0 -107 29t-30 101v129q0 8 -7 8h-48v87q55 4 83 34.5t33 90.5h98v-112q0 -7 5 -7h96v-93h-101v-115q0 -25 8.5 -34.5t34.5 -9.5q22 0 48 8z" />
    <glyph glyph-name="u.sup" horiz-adv-x="448" 
d="M454 350h-171l-5 32l-6 1q-18 -14 -30.5 -21.5t-34 -13.5t-48.5 -6q-54 0 -79.5 26.5t-25.5 84.5v155q0 7 -2 9t-9 3l-30 3l9 79h192v-224q0 -29 19 -29q8 0 19 4v155q0 10 -9 12l-12 2l9 80h172v-260q0 -11 10 -12l32 -5v-75z" />
    <glyph glyph-name="v.sup" horiz-adv-x="490" 
d="M347 350h-187l-104 258q-3 8 -15 11l-28 6l14 77h238v-77l-34 -5l43 -120h9l48 120l-37 5l11 77h192v-77l-27 -4q-14 -2 -18 -11z" />
    <glyph glyph-name="w.sup" horiz-adv-x="666" 
d="M556 350h-159l-36 168h-9l-28 -168h-190l-78 258q-3 8 -15 11l-28 6l14 77h226v-78l-31 -4l27 -118h9l42 192h150l45 -193h8l26 119l-34 4l12 78h167v-77l-26 -5q-11 -2 -15 -13z" />
    <glyph glyph-name="x.sup" horiz-adv-x="462" 
d="M460 350h-236v74l14 6l-22 27l-38 -29l24 -4v-74h-175v74l19 3q16 3 26 12l84 71l-96 97q-7 8 -17 12l-25 7l7 76h234v-76l-23 -5l28 -27l37 27l-26 5l7 76h169v-76l-30 -7q-10 -3 -19 -10l-79 -69l95 -100q9 -11 20 -12l22 -3v-75z" />
    <glyph glyph-name="y.sup" horiz-adv-x="482" 
d="M395 209h-291v77l60 6q13 1 20 16l16 29l-144 271q-2 8 -14 11l-29 6l14 77h237v-77l-42 -5l55 -120h9l52 120l-44 5l11 77h184v-77l-22 -4q-14 -2 -18 -11l-134 -317l80 -8v-76z" />
    <glyph glyph-name="z.sup" horiz-adv-x="402" 
d="M394 350h-355v82l172 184h-48q-9 0 -11 -10l-6 -26l-108 -6v128h346v-83l-167 -184h47q10 0 13 11l8 34l109 4v-134z" />
    <glyph glyph-name="hypheninferior" horiz-adv-x="232" 
d="M212 -20h-192v128h192v-128z" />
    <glyph glyph-name="commainferior" horiz-adv-x="187" 
d="M116 -228l-74 18l16 73q3 10 -7 13l-34 8l15 105q31 1 52.5 -1t43 -8.5t32.5 -21.5t11 -38q0 -17 -19 -69z" />
    <glyph glyph-name="periodinferior" horiz-adv-x="213" 
d="M193 -83q0 -72 -86 -72q-87 0 -87 72t87 72q86 0 86 -72z" />
    <glyph glyph-name="minusinferior" horiz-adv-x="347" 
d="M317 19h-287v119h287v-119z" />
    <glyph glyph-name="plusinferior" horiz-adv-x="347" 
d="M239 -67h-132v86h-77v119h77v83h132v-83h78v-119h-78v-86z" />
    <glyph glyph-name="equalinferior" horiz-adv-x="349" 
d="M319 -93h-289v117h289v-117zM319 71h-289v117h289v-117z" />
    <glyph glyph-name="a.sinf" horiz-adv-x="419" 
d="M425 -147h-169l-7 35l-5 1q-44 -44 -109 -44q-108 0 -108 104q0 52 32.5 74.5t104.5 27.5l63 4v38q0 27 -20 27q-14 0 -17.5 -7t-2.5 -28l-149 10q0 117 173 117q91 0 131.5 -27t40.5 -97v-142q0 -8 2 -10t9 -3l31 -5v-75zM227 -58v51l-14 -1q-28 -2 -28 -29
q0 -24 25 -24q6 0 17 3z" />
    <glyph glyph-name="b.sinf" horiz-adv-x="453" 
d="M189 -147h-149q13 63 13 99v299q0 9 -11 14l-34 12l11 77h190v-175l3 -1q40 34 97 34q60 0 98 -42t38 -135q0 -98 -40.5 -144t-108.5 -46q-61 0 -97 44l-5 -1zM211 92v-135q13 -9 31 -9q33 0 33 79q0 70 -39 70q-15 0 -25 -5z" />
    <glyph glyph-name="c.sinf" horiz-adv-x="388" 
d="M340 -32l30 -85q-67 -38 -149 -38q-98 0 -148 49t-50 128q0 90 56 140t148 50q96 0 149 -33v-130l-111 5l-8 44q-2 11 -8 13t-18 2q-40 0 -40 -73q0 -87 63 -87q36 0 86 15z" />
    <glyph glyph-name="d.sinf" horiz-adv-x="453" 
d="M462 -147h-173l-8 35l-5 1q-41 -44 -108 -44q-142 0 -142 183q0 94 45.5 139t106.5 45q53 0 89 -27v66q0 11 -9 14l-34 12l10 77h185v-409q0 -7 1.5 -9t9.5 -4l32 -4v-75zM260 -50v145q-10 5 -25 5q-19 0 -29.5 -19t-10.5 -50q0 -85 41 -85q12 0 24 4z" />
    <glyph glyph-name="e.sinf" horiz-adv-x="392" 
d="M355 -24l30 -92q-93 -39 -163 -39q-199 0 -199 186q0 88 54 134.5t140 46.5q167 0 167 -168q0 -4 -2 -38h-193q4 -51 56 -51q30 0 110 21zM188 71h53q0 48 -26 48q-27 0 -27 -48z" />
    <glyph glyph-name="f.sinf" horiz-adv-x="347" 
d="M331 -147h-308v75l33 4q11 2 11 14v158q0 8 -6 8h-43v93h49v18q0 75 45.5 107t132.5 32q69 0 110.5 -24t42.5 -91l-145 -15q0 24 -3 32t-12 8q-11 0 -11 -23v-37q0 -7 5 -7h107v-93h-112v-163q0 -7 3 -9.5t11 -3.5l90 -8v-75z" />
    <glyph glyph-name="g.sinf" horiz-adv-x="436" 
d="M214 -294q-84 0 -149 31l29 87q47 -19 91 -19q52 0 67.5 15t15.5 52v12l-4 2q-40 -34 -95 -34q-147 0 -147 173q0 55 15.5 94t40.5 58t50.5 27t52.5 8q57 0 92 -40l14 33h133q-4 -59 -4 -132v-182q0 -46 -12 -80t-31 -53.5t-46.5 -31.5t-54 -16t-58.5 -4zM257 -42v137
q-10 5 -24 5q-19 0 -30 -19t-11 -50q0 -39 8.5 -58t31.5 -19q12 0 25 4z" />
    <glyph glyph-name="h.sinf" horiz-adv-x="448" 
d="M455 -147h-201v219q0 15 -3 20t-13 5q-11 0 -20 -7v-237h-199v75l27 4q12 2 12 13v306q0 11 -10 14l-34 12l11 77h191v-180l4 -1q47 39 103 39q48 0 69.5 -26t21.5 -85v-156q0 -8 1.5 -10t9.5 -3l30 -4v-75z" />
    <glyph glyph-name="i.sinf" horiz-adv-x="250" 
d="M217 313q0 -39 -23.5 -61t-64.5 -22t-64 22t-23 61t22.5 60t64.5 21t65 -21t23 -60zM253 -147h-229v75l22 4q12 2 12 13v157q0 9 -10 12l-34 14l9 77h195v-260q0 -8 1.5 -10t9.5 -3l24 -4v-75z" />
    <glyph glyph-name="j.sinf" horiz-adv-x="248" 
d="M56 -148v250q0 9 -9 12l-33 14l10 77h192v-376q0 -124 -145 -124q-48 0 -88.5 16t-58.5 30l37 76q45 -18 63 -18q32 0 32 43zM215 313q0 -39 -23 -61t-65 -22q-41 0 -64 22t-23 61t23 60t64 21q42 0 65 -21t23 -60z" />
    <glyph glyph-name="k.sinf" horiz-adv-x="475" 
d="M477 -147h-176l-71 156l-12 -8v-56q0 -8 1.5 -10t9.5 -3l23 -4v-75h-230v75l24 4q12 2 12 13v306q0 10 -10 14l-34 12l11 77h193v-236l104 87h121v-75l-32 -3q-11 -3 -19 -9l-32 -28l70 -149q6 -10 22 -12l25 -4v-72z" />
    <glyph glyph-name="l.sinf" horiz-adv-x="252" 
d="M255 -147h-233v75l24 4q12 2 12 13v306q0 10 -10 14l-34 12l11 77h193v-409q0 -8 1.5 -10t9.5 -3l26 -4v-75z" />
    <glyph glyph-name="m.sinf" horiz-adv-x="623" 
d="M629 -147h-200v228q0 18 -10 18q-7 0 -15 -4v-242h-160v230q0 17 -11 17q-9 0 -15 -2v-245h-199v75l27 4q12 2 12 13v157q0 9 -10 12l-34 14l9 77h164l5 -27l3 -2q45 36 105 36q58 0 84 -36q46 36 102 36q52 0 77.5 -26.5t25.5 -82.5v-158q0 -7 1.5 -9t9.5 -4l29 -4v-75z
" />
    <glyph glyph-name="n.sinf" horiz-adv-x="448" 
d="M455 -147h-201v223q0 21 -15 21q-9 0 -21 -5v-239h-199v75l27 4q12 2 12 13v157q0 9 -10 12l-35 14l11 77h163l5 -29l3 -2q64 38 118 38q52 0 76.5 -27t24.5 -84v-156q0 -8 1.5 -10t9.5 -3l30 -4v-75z" />
    <glyph glyph-name="o.sinf" horiz-adv-x="432" 
d="M224 -155q-102 0 -151.5 50t-49.5 136q0 84 52.5 132.5t155.5 48.5q102 0 150 -47.5t48 -130.5q0 -89 -51 -139t-154 -50zM227 -55q35 0 35 86q0 80 -33 80q-38 0 -38 -81q0 -85 36 -85z" />
    <glyph glyph-name="p.sinf" horiz-adv-x="454" 
d="M304 -288h-292v75l30 4q12 1 12 16v295q0 9 -11 12l-34 14l11 77h161l7 -28l5 -1q48 36 113 36q140 0 140 -177q0 -190 -145 -190q-55 0 -92 29v-65q0 -14 14 -15l81 -7v-75zM212 92v-132q14 -10 34 -10q30 0 30 80q0 67 -37 67q-15 0 -27 -5z" />
    <glyph glyph-name="q.sinf" horiz-adv-x="444" 
d="M464 -288h-268v75l74 6q8 1 11 3.5t3 10.5v75l-6 1q-43 -38 -102 -38q-68 0 -108 44.5t-40 139.5q0 94 47 138.5t107 44.5q59 0 98 -39l13 32h133q-4 -46 -4 -128v-273q0 -11 8 -12l34 -5v-75zM263 -50v146q-11 4 -23 4q-42 0 -42 -69q0 -17 1 -29t5 -26t14 -21.5
t25 -7.5q11 0 20 3z" />
    <glyph glyph-name="r.sinf" horiz-adv-x="380" 
d="M305 -147h-286v76l27 4q12 1 12 13v156q0 9 -10 12l-34 14l9 77h164l11 -63l4 -2q37 72 95 72q48 0 74 -6v-148l-128 4l-5 20q-2 11 -9 11q-5 0 -11 -2v-143q0 -8 2 -10.5t10 -2.5l75 -7v-75z" />
    <glyph glyph-name="s.sinf" horiz-adv-x="379" 
d="M362 97l-110 7l-2 12q-1 8 -8 11q-9 3 -32 3q-35 0 -35 -15q0 -6 4 -10t13 -7.5t17.5 -5t23.5 -4.5q24 -4 37.5 -7t36 -11.5t34.5 -19.5t22 -30.5t10 -45.5q0 -64 -48.5 -96.5t-132.5 -32.5q-51 0 -97 8.5t-58 17.5v90l111 -7l5 -19q3 -11 11 -12q18 -3 35 -3q34 0 34 19
q0 6 -4 11t-15.5 8.5t-18.5 5t-26 5.5q-24 4 -37.5 7.5t-35 12t-33.5 19.5t-21 30t-9 44q0 64 50.5 97t126.5 33q100 0 152 -21v-94z" />
    <glyph glyph-name="t.sinf" horiz-adv-x="338" 
d="M311 -39l24 -82q-62 -34 -137 -34q-77 0 -107 29t-30 101v129q0 8 -7 8h-48v87q55 4 83 34.5t33 90.5h98v-112q0 -7 5 -7h96v-93h-101v-115q0 -25 8.5 -34.5t34.5 -9.5q22 0 48 8z" />
    <glyph glyph-name="u.sinf" horiz-adv-x="448" 
d="M454 -147h-171l-5 32l-6 1q-18 -14 -30.5 -21.5t-34 -13.5t-48.5 -6q-54 0 -79.5 26.5t-25.5 84.5v155q0 7 -2 9t-9 3l-30 3l9 79h192v-224q0 -29 19 -29q8 0 19 4v155q0 10 -9 12l-12 2l9 80h172v-260q0 -11 10 -12l32 -5v-75z" />
    <glyph glyph-name="v.sinf" horiz-adv-x="490" 
d="M347 -147h-187l-104 258q-3 8 -15 11l-28 6l14 77h238v-77l-34 -5l43 -120h9l48 120l-37 5l11 77h192v-77l-27 -4q-14 -2 -18 -11z" />
    <glyph glyph-name="w.sinf" horiz-adv-x="666" 
d="M556 -147h-159l-36 168h-9l-28 -168h-190l-78 258q-3 8 -15 11l-28 6l14 77h226v-78l-31 -4l27 -118h9l42 192h150l45 -193h8l26 119l-34 4l12 78h167v-77l-26 -5q-11 -2 -15 -13z" />
    <glyph glyph-name="x.sinf" horiz-adv-x="462" 
d="M460 -147h-236v74l14 6l-22 27l-38 -29l24 -4v-74h-175v74l19 3q16 3 26 12l84 71l-96 97q-7 8 -17 12l-25 7l7 76h234v-76l-23 -5l28 -27l37 27l-26 5l7 76h169v-76l-30 -7q-10 -3 -19 -10l-79 -69l95 -100q9 -11 20 -12l22 -3v-75z" />
    <glyph glyph-name="y.sinf" horiz-adv-x="482" 
d="M395 -288h-291v77l60 6q13 1 20 16l16 29l-144 271q-2 8 -14 11l-29 6l14 77h237v-77l-42 -5l55 -120h9l52 120l-44 5l11 77h184v-77l-22 -4q-14 -2 -18 -11l-134 -317l80 -8v-76z" />
    <glyph glyph-name="z.sinf" horiz-adv-x="402" 
d="M394 -147h-355v82l172 184h-48q-9 0 -11 -10l-6 -26l-108 -6v128h346v-83l-167 -184h47q10 0 13 11l8 34l109 4v-134z" />
    <glyph glyph-name="zero.num" horiz-adv-x="470" 
d="M229 273q-109 0 -158 54.5t-49 178.5q0 129 54.5 184t163.5 55q111 0 159.5 -53t48.5 -179q0 -129 -54 -184.5t-165 -55.5zM235 388q10 0 16 6t11 34.5t5 81.5q0 52 -4 79.5t-9.5 33.5t-16.5 6q-12 0 -18.5 -5.5t-12 -32.5t-5.5 -77q0 -56 4.5 -84.5t11 -35t18.5 -6.5z
" />
    <glyph glyph-name="one.num" horiz-adv-x="332" 
d="M324 281h-301v86l47 4q11 1 11 14v234q0 11 -9 14l-51 13l12 89h232v-350q0 -8 1.5 -10t9.5 -4l48 -4v-86z" />
    <glyph glyph-name="two.num" horiz-adv-x="433" 
d="M408 281h-384v95l148 146q58 58 58 86q0 22 -22 22q-29 0 -29 -49l-155 13q1 152 193 152q89 0 131.5 -34.5t42.5 -92.5t-58 -119l-116 -121h56q8 0 9 8l6 38h120v-144z" />
    <glyph glyph-name="three.num" horiz-adv-x="446" 
d="M327 516v-2q96 -16 96 -102q0 -64 -59.5 -101.5t-149.5 -37.5q-62 0 -115 17.5t-83 46.5l79 97q51 -41 101 -41q45 0 45 33q0 16 -9.5 21t-29.5 5q-16 0 -51 -6v105l24 3q34 4 47.5 13.5t13.5 36.5t-22 27q-14 0 -19 -10.5t-6 -32.5l-154 13q0 44 16.5 74t46.5 44.5
t61.5 20t72.5 5.5q91 0 134 -29t43 -93q0 -38 -23 -68.5t-59 -38.5z" />
    <glyph glyph-name="four.num" horiz-adv-x="471" 
d="M387 281h-164v78h-205v90l209 286h159v-280h52v-94h-51v-80zM222 455v109h-5l-79 -109h84z" />
    <glyph glyph-name="five.num" horiz-adv-x="432" 
d="M366 614h-177l-6 -57q40 19 83 19q65 0 101.5 -33t36.5 -97q0 -77 -52.5 -125t-155.5 -48q-128 0 -198 67l79 96q52 -40 101 -40q46 0 46 36q0 29 -28 29q-22 0 -34 -20l-113 41l16 252h301v-120z" />
    <glyph glyph-name="six.num" horiz-adv-x="457" 
d="M430 616l-170 -20q0 43 -18 43q-35 0 -35 -90q40 12 84 12q148 0 148 -122q0 -47 -18 -81t-49.5 -52t-66 -25.5t-74.5 -7.5q-205 0 -205 227q0 47 11 88t35.5 77.5t71 58t110.5 21.5q36 0 63 -4.5t54 -17t42.5 -40t16.5 -67.5zM207 467q0 -35 3.5 -53t8.5 -22t15 -4
q23 0 23 39q0 46 -25 46q-13 0 -25 -6z" />
    <glyph glyph-name="seven.num" horiz-adv-x="429" 
d="M290 281h-194q11 119 62 212t94 126h-98q-6 0 -6 -10l-3 -38l-114 -9v172h393v-101q-128 -140 -134 -352z" />
    <glyph glyph-name="eight.num" horiz-adv-x="434" 
d="M341 524q42 -25 58.5 -49t16.5 -59q0 -72 -57 -107.5t-152 -35.5q-189 0 -189 122q0 76 71 108q-58 34 -58 97q0 68 51 106.5t137 38.5q179 0 179 -119q0 -31 -13.5 -53t-43.5 -49zM175 451q-21 -24 -21 -46q0 -33 47 -33q39 0 39 25q0 22 -65 54zM245 574q24 22 24 45
q0 28 -35 28q-38 0 -38 -24t49 -49z" />
    <glyph glyph-name="nine.num" horiz-adv-x="458" 
d="M36 333l66 92q50 -34 96 -34q23 0 37 12.5t17 46.5q-33 -11 -69 -11q-69 0 -114.5 35.5t-45.5 108.5q0 76 54.5 119t140.5 43q109 0 163 -56.5t54 -152.5q0 -118 -53 -190.5t-171 -72.5q-50 0 -99.5 17.5t-75.5 42.5zM254 538q0 5 0.5 13t0.5 12q0 63 -30 63
q-24 0 -24 -38q0 -53 35 -53q8 0 18 3z" />
    <glyph glyph-name="parenleft.ordn" horiz-adv-x="299" 
d="M297 252l-132 -77q-57 60 -96 148t-39 174q0 169 141 328l131 -74q-80 -100 -80 -255q0 -74 18 -129.5t57 -114.5z" />
    <glyph glyph-name="parenright.ordn" horiz-adv-x="301" 
d="M126 175l-130 78q83 99 83 256q0 82 -17.5 135.5t-54.5 106.5l134 74q56 -59 93 -144t37 -171q0 -177 -145 -335z" />
    <glyph glyph-name="hyphen.ordn" horiz-adv-x="232" 
d="M212 408h-192v128h192v-128z" />
    <glyph glyph-name="comma.ordn" horiz-adv-x="187" 
d="M116 200l-74 18l16 73q3 10 -7 13l-34 8l15 105q31 1 52.5 -1t43 -8.5t32.5 -21.5t11 -38q0 -17 -19 -69z" />
    <glyph glyph-name="period.ordn" horiz-adv-x="213" 
d="M193 345q0 -72 -86 -72q-87 0 -87 72t87 72q86 0 86 -72z" />
    <glyph glyph-name="minus.ordn" horiz-adv-x="347" 
d="M317 447h-287v119h287v-119z" />
    <glyph glyph-name="plus.ordn" horiz-adv-x="347" 
d="M239 361h-132v86h-77v119h77v83h132v-83h78v-119h-78v-86z" />
    <glyph glyph-name="equal.ordn" horiz-adv-x="349" 
d="M319 335h-289v117h289v-117zM319 499h-289v117h289v-117z" />
    <glyph glyph-name="a.ordn" horiz-adv-x="419" 
d="M425 281h-169l-7 35l-5 1q-44 -44 -109 -44q-108 0 -108 104q0 52 32.5 74.5t104.5 27.5l63 4v38q0 27 -20 27q-14 0 -17.5 -7t-2.5 -28l-149 10q0 117 173 117q91 0 131.5 -27t40.5 -97v-142q0 -8 2 -10t9 -3l31 -5v-75zM227 370v51l-14 -1q-28 -2 -28 -29q0 -24 25 -24
q6 0 17 3z" />
    <glyph glyph-name="b.ordn" horiz-adv-x="453" 
d="M189 281h-149q13 63 13 99v299q0 9 -11 14l-34 12l11 77h190v-175l3 -1q40 34 97 34q60 0 98 -42t38 -135q0 -98 -40.5 -144t-108.5 -46q-61 0 -97 44l-5 -1zM211 520v-135q13 -9 31 -9q33 0 33 79q0 70 -39 70q-15 0 -25 -5z" />
    <glyph glyph-name="c.ordn" horiz-adv-x="388" 
d="M340 396l30 -85q-67 -38 -149 -38q-98 0 -148 49t-50 128q0 90 56 140t148 50q96 0 149 -33v-130l-111 5l-8 44q-2 11 -8 13t-18 2q-40 0 -40 -73q0 -87 63 -87q36 0 86 15z" />
    <glyph glyph-name="d.ordn" horiz-adv-x="453" 
d="M462 281h-173l-8 35l-5 1q-41 -44 -108 -44q-142 0 -142 183q0 94 45.5 139t106.5 45q53 0 89 -27v66q0 11 -9 14l-34 12l10 77h185v-409q0 -7 1.5 -9t9.5 -4l32 -4v-75zM260 378v145q-10 5 -25 5q-19 0 -29.5 -19t-10.5 -50q0 -85 41 -85q12 0 24 4z" />
    <glyph glyph-name="e.ordn" horiz-adv-x="392" 
d="M355 404l30 -92q-93 -39 -163 -39q-199 0 -199 186q0 88 54 134.5t140 46.5q167 0 167 -168q0 -4 -2 -38h-193q4 -51 56 -51q30 0 110 21zM188 499h53q0 48 -26 48q-27 0 -27 -48z" />
    <glyph glyph-name="f.ordn" horiz-adv-x="347" 
d="M331 281h-308v75l33 4q11 2 11 14v158q0 8 -6 8h-43v93h49v18q0 75 45.5 107t132.5 32q69 0 110.5 -24t42.5 -91l-145 -15q0 24 -3 32t-12 8q-11 0 -11 -23v-37q0 -7 5 -7h107v-93h-112v-163q0 -7 3 -9.5t11 -3.5l90 -8v-75z" />
    <glyph glyph-name="g.ordn" horiz-adv-x="436" 
d="M214 134q-84 0 -149 31l29 87q47 -19 91 -19q52 0 67.5 15t15.5 52v12l-4 2q-40 -34 -95 -34q-147 0 -147 173q0 55 15.5 94t40.5 58t50.5 27t52.5 8q57 0 92 -40l14 33h133q-4 -59 -4 -132v-182q0 -46 -12 -80t-31 -53.5t-46.5 -31.5t-54 -16t-58.5 -4zM257 386v137
q-10 5 -24 5q-19 0 -30 -19t-11 -50q0 -39 8.5 -58t31.5 -19q12 0 25 4z" />
    <glyph glyph-name="h.ordn" horiz-adv-x="448" 
d="M455 281h-201v219q0 15 -3 20t-13 5q-11 0 -20 -7v-237h-199v75l27 4q12 2 12 13v306q0 11 -10 14l-34 12l11 77h191v-180l4 -1q47 39 103 39q48 0 69.5 -26t21.5 -85v-156q0 -8 1.5 -10t9.5 -3l30 -4v-75z" />
    <glyph glyph-name="i.ordn" horiz-adv-x="250" 
d="M217 741q0 -39 -23.5 -61t-64.5 -22t-64 22t-23 61t22.5 60t64.5 21t65 -21t23 -60zM253 281h-229v75l22 4q12 2 12 13v157q0 9 -10 12l-34 14l9 77h195v-260q0 -8 1.5 -10t9.5 -3l24 -4v-75z" />
    <glyph glyph-name="j.ordn" horiz-adv-x="248" 
d="M56 280v250q0 9 -9 12l-33 14l10 77h192v-376q0 -124 -145 -124q-48 0 -88.5 16t-58.5 30l37 76q45 -18 63 -18q32 0 32 43zM215 741q0 -39 -23 -61t-65 -22q-41 0 -64 22t-23 61t23 60t64 21q42 0 65 -21t23 -60z" />
    <glyph glyph-name="k.ordn" horiz-adv-x="475" 
d="M477 281h-176l-71 156l-12 -8v-56q0 -8 1.5 -10t9.5 -3l23 -4v-75h-230v75l24 4q12 2 12 13v306q0 10 -10 14l-34 12l11 77h193v-236l104 87h121v-75l-32 -3q-11 -3 -19 -9l-32 -28l70 -149q6 -10 22 -12l25 -4v-72z" />
    <glyph glyph-name="l.ordn" horiz-adv-x="252" 
d="M255 281h-233v75l24 4q12 2 12 13v306q0 10 -10 14l-34 12l11 77h193v-409q0 -8 1.5 -10t9.5 -3l26 -4v-75z" />
    <glyph glyph-name="m.ordn" horiz-adv-x="623" 
d="M629 281h-200v228q0 18 -10 18q-7 0 -15 -4v-242h-160v230q0 17 -11 17q-9 0 -15 -2v-245h-199v75l27 4q12 2 12 13v157q0 9 -10 12l-34 14l9 77h164l5 -27l3 -2q45 36 105 36q58 0 84 -36q46 36 102 36q52 0 77.5 -26.5t25.5 -82.5v-158q0 -7 1.5 -9t9.5 -4l29 -4v-75z
" />
    <glyph glyph-name="n.ordn" horiz-adv-x="448" 
d="M455 281h-201v223q0 21 -15 21q-9 0 -21 -5v-239h-199v75l27 4q12 2 12 13v157q0 9 -10 12l-35 14l11 77h163l5 -29l3 -2q64 38 118 38q52 0 76.5 -27t24.5 -84v-156q0 -8 1.5 -10t9.5 -3l30 -4v-75z" />
    <glyph glyph-name="o.ordn" horiz-adv-x="432" 
d="M224 273q-102 0 -151.5 50t-49.5 136q0 84 52.5 132.5t155.5 48.5q102 0 150 -47.5t48 -130.5q0 -89 -51 -139t-154 -50zM227 373q35 0 35 86q0 80 -33 80q-38 0 -38 -81q0 -85 36 -85z" />
    <glyph glyph-name="p.ordn" horiz-adv-x="454" 
d="M304 140h-292v75l30 4q12 1 12 16v295q0 9 -11 12l-34 14l11 77h161l7 -28l5 -1q48 36 113 36q140 0 140 -177q0 -190 -145 -190q-55 0 -92 29v-65q0 -14 14 -15l81 -7v-75zM212 520v-132q14 -10 34 -10q30 0 30 80q0 67 -37 67q-15 0 -27 -5z" />
    <glyph glyph-name="q.ordn" horiz-adv-x="444" 
d="M464 140h-268v75l74 6q8 1 11 3.5t3 10.5v75l-6 1q-43 -38 -102 -38q-68 0 -108 44.5t-40 139.5q0 94 47 138.5t107 44.5q59 0 98 -39l13 32h133q-4 -46 -4 -128v-273q0 -11 8 -12l34 -5v-75zM263 378v146q-11 4 -23 4q-42 0 -42 -69q0 -17 1 -29t5 -26t14 -21.5t25 -7.5
q11 0 20 3z" />
    <glyph glyph-name="r.ordn" horiz-adv-x="380" 
d="M305 281h-286v76l27 4q12 1 12 13v156q0 9 -10 12l-34 14l9 77h164l11 -63l4 -2q37 72 95 72q48 0 74 -6v-148l-128 4l-5 20q-2 11 -9 11q-5 0 -11 -2v-143q0 -8 2 -10.5t10 -2.5l75 -7v-75z" />
    <glyph glyph-name="s.ordn" horiz-adv-x="379" 
d="M362 525l-110 7l-2 12q-1 8 -8 11q-9 3 -32 3q-35 0 -35 -15q0 -6 4 -10t13 -7.5t17.5 -5t23.5 -4.5q24 -4 37.5 -7t36 -11.5t34.5 -19.5t22 -30.5t10 -45.5q0 -64 -48.5 -96.5t-132.5 -32.5q-51 0 -97 8.5t-58 17.5v90l111 -7l5 -19q3 -11 11 -12q18 -3 35 -3
q34 0 34 19q0 6 -4 11t-15.5 8.5t-18.5 5t-26 5.5q-24 4 -37.5 7.5t-35 12t-33.5 19.5t-21 30t-9 44q0 64 50.5 97t126.5 33q100 0 152 -21v-94z" />
    <glyph glyph-name="t.ordn" horiz-adv-x="338" 
d="M311 389l24 -82q-62 -34 -137 -34q-77 0 -107 29t-30 101v129q0 8 -7 8h-48v87q55 4 83 34.5t33 90.5h98v-112q0 -7 5 -7h96v-93h-101v-115q0 -25 8.5 -34.5t34.5 -9.5q22 0 48 8z" />
    <glyph glyph-name="u.ordn" horiz-adv-x="448" 
d="M454 281h-171l-5 32l-6 1q-18 -14 -30.5 -21.5t-34 -13.5t-48.5 -6q-54 0 -79.5 26.5t-25.5 84.5v155q0 7 -2 9t-9 3l-30 3l9 79h192v-224q0 -29 19 -29q8 0 19 4v155q0 10 -9 12l-12 2l9 80h172v-260q0 -11 10 -12l32 -5v-75z" />
    <glyph glyph-name="v.ordn" horiz-adv-x="490" 
d="M347 281h-187l-104 258q-3 8 -15 11l-28 6l14 77h238v-77l-34 -5l43 -120h9l48 120l-37 5l11 77h192v-77l-27 -4q-14 -2 -18 -11z" />
    <glyph glyph-name="w.ordn" horiz-adv-x="666" 
d="M556 281h-159l-36 168h-9l-28 -168h-190l-78 258q-3 8 -15 11l-28 6l14 77h226v-78l-31 -4l27 -118h9l42 192h150l45 -193h8l26 119l-34 4l12 78h167v-77l-26 -5q-11 -2 -15 -13z" />
    <glyph glyph-name="x.ordn" horiz-adv-x="462" 
d="M460 281h-236v74l14 6l-22 27l-38 -29l24 -4v-74h-175v74l19 3q16 3 26 12l84 71l-96 97q-7 8 -17 12l-25 7l7 76h234v-76l-23 -5l28 -27l37 27l-26 5l7 76h169v-76l-30 -7q-10 -3 -19 -10l-79 -69l95 -100q9 -11 20 -12l22 -3v-75z" />
    <glyph glyph-name="y.ordn" horiz-adv-x="482" 
d="M395 140h-291v77l60 6q13 1 20 16l16 29l-144 271q-2 8 -14 11l-29 6l14 77h237v-77l-42 -5l55 -120h9l52 120l-44 5l11 77h184v-77l-22 -4q-14 -2 -18 -11l-134 -317l80 -8v-76z" />
    <glyph glyph-name="z.ordn" horiz-adv-x="402" 
d="M394 281h-355v82l172 184h-48q-9 0 -11 -10l-6 -26l-108 -6v128h346v-83l-167 -184h47q10 0 13 11l8 34l109 4v-134z" />
    <glyph glyph-name="zero.denom" horiz-adv-x="470" 
d="M229 -8q-109 0 -158 54.5t-49 178.5q0 129 54.5 184t163.5 55q111 0 159.5 -53t48.5 -179q0 -129 -54 -184.5t-165 -55.5zM235 107q10 0 16 6t11 34.5t5 81.5q0 52 -4 79.5t-9.5 33.5t-16.5 6q-12 0 -18.5 -5.5t-12 -32.5t-5.5 -77q0 -56 4.5 -84.5t11 -35t18.5 -6.5z
" />
    <glyph glyph-name="one.denom" horiz-adv-x="332" 
d="M324 0h-301v86l47 4q11 1 11 14v234q0 11 -9 14l-51 13l12 89h232v-350q0 -8 1.5 -10t9.5 -4l48 -4v-86z" />
    <glyph glyph-name="two.denom" horiz-adv-x="433" 
d="M408 0h-384v95l148 146q58 58 58 86q0 22 -22 22q-29 0 -29 -49l-155 13q1 152 193 152q89 0 131.5 -34.5t42.5 -92.5t-58 -119l-116 -121h56q8 0 9 8l6 38h120v-144z" />
    <glyph glyph-name="three.denom" horiz-adv-x="446" 
d="M327 235v-2q96 -17 96 -102q0 -64 -59.5 -101.5t-149.5 -37.5q-62 0 -115 17.5t-83 46.5l79 97q51 -41 101 -41q45 0 45 33q0 16 -9.5 21t-29.5 5q-16 0 -51 -6v105l24 3q34 4 47.5 13.5t13.5 36.5t-22 27q-14 0 -19 -10.5t-6 -32.5l-154 13q0 44 16.5 74t46.5 44.5
t61.5 20t72.5 5.5q91 0 134 -29t43 -93q0 -38 -23 -68.5t-59 -38.5z" />
    <glyph glyph-name="four.denom" horiz-adv-x="471" 
d="M387 0h-164v78h-205v90l209 286h159v-280h52v-94h-51v-80zM222 174v109h-5l-79 -109h84z" />
    <glyph glyph-name="five.denom" horiz-adv-x="432" 
d="M366 333h-177l-6 -57q40 19 83 19q65 0 101.5 -33t36.5 -97q0 -77 -52.5 -125t-155.5 -48q-128 0 -198 67l79 96q52 -40 101 -40q46 0 46 36q0 29 -28 29q-22 0 -34 -20l-113 41l16 252h301v-120z" />
    <glyph glyph-name="six.denom" horiz-adv-x="457" 
d="M430 335l-170 -20q0 43 -18 43q-35 0 -35 -90q40 12 84 12q148 0 148 -122q0 -47 -18 -81t-49.5 -52t-66 -25.5t-74.5 -7.5q-205 0 -205 227q0 47 11 88t35.5 77.5t71 58t110.5 21.5q36 0 63 -4.5t54 -17t42.5 -40t16.5 -67.5zM207 186q0 -35 3.5 -53t8.5 -22t15 -4
q23 0 23 39q0 46 -25 46q-13 0 -25 -6z" />
    <glyph glyph-name="seven.denom" horiz-adv-x="429" 
d="M290 0h-194q11 119 62 212t94 126h-98q-6 0 -6 -10l-3 -38l-114 -9v172h393v-101q-128 -140 -134 -352z" />
    <glyph glyph-name="eight.denom" horiz-adv-x="434" 
d="M341 243q42 -25 58.5 -49t16.5 -59q0 -72 -57 -107.5t-152 -35.5q-189 0 -189 122q0 76 71 108q-58 34 -58 97q0 68 51 106.5t137 38.5q179 0 179 -119q0 -31 -13.5 -53t-43.5 -49zM175 170q-21 -24 -21 -46q0 -33 47 -33q39 0 39 25q0 22 -65 54zM245 293q24 22 24 45
q0 28 -35 28q-38 0 -38 -24t49 -49z" />
    <glyph glyph-name="nine.denom" horiz-adv-x="458" 
d="M36 52l66 92q50 -34 96 -34q23 0 37 12.5t17 46.5q-33 -11 -69 -11q-69 0 -114.5 35.5t-45.5 108.5q0 76 54.5 119t140.5 43q109 0 163 -56.5t54 -152.5q0 -118 -53 -190.5t-171 -72.5q-50 0 -99.5 17.5t-75.5 42.5zM254 257q0 5 0.5 13t0.5 12q0 63 -30 63
q-24 0 -24 -38q0 -53 35 -53q8 0 18 3z" />
    <glyph glyph-name="commaaccent" horiz-adv-x="500" 
d="M270 -312l-82 22l19 103q3 13 -8 16l-41 11l20 116q49 1 80 -3.5t55.5 -24.5t24.5 -57q0 -32 -22 -79z" />
    <glyph glyph-name="revcommaaccent" horiz-adv-x="500" 
d="M230 825l82 -22l-19 -103q-3 -13 8 -16l41 -11l-20 -116q-49 -1 -80 3.5t-55.5 24.5t-24.5 57q0 32 22 79z" />
    <glyph glyph-name="tilde.cap" horiz-adv-x="500" 
d="M440 899l-23 -49q-17 -36 -32 -53t-38 -17q-30 0 -116 24q-50 15 -53 15q-5 0 -16 -11l-23 -25l-75 44l30 59q28 57 72 57q26 0 85 -17q64 -18 73 -18q6 0 12 7l21 26z" />
    <glyph glyph-name="ring.cap" horiz-adv-x="500" 
d="M365 826q0 -51 -32.5 -82.5t-82.5 -31.5q-51 0 -83.5 31t-32.5 80q0 53 34 85t82 32q49 0 82 -31.5t33 -82.5zM250 789q35 0 35 37q0 38 -35 38q-36 0 -36 -37q0 -38 36 -38z" />
    <glyph glyph-name="circumflex.cap" horiz-adv-x="500" 
d="M368 767l-118 79l-118 -79l-68 73l124 120h124l124 -120z" />
    <glyph glyph-name="acute.cap" horiz-adv-x="500" 
d="M402 844l-240 -77l-43 87l224 116z" />
    <glyph glyph-name="grave.cap" horiz-adv-x="500" 
d="M355 767l-240 78l59 125l224 -115z" />
    <glyph glyph-name="dieresis.cap" horiz-adv-x="500" 
d="M226 865q0 -39 -23.5 -62t-62.5 -23t-63 23t-24 62q0 38 24 60.5t63 22.5t62.5 -22.5t23.5 -60.5zM441 865q0 -39 -23.5 -62t-62.5 -23t-63 23t-24 62q0 38 24 60.5t63 22.5t62.5 -22.5t23.5 -60.5z" />
    <glyph glyph-name="caron.cap" horiz-adv-x="500" 
d="M438 901l-125 -120h-124l-124 120l68 73l118 -79l118 79z" />
    <glyph glyph-name="macron.cap" horiz-adv-x="500" 
d="M413 777h-327v130h327v-130z" />
    <glyph glyph-name="dotaccent.cap" horiz-adv-x="500" 
d="M368 896q0 -55 -31 -85.5t-87 -30.5q-55 0 -85.5 30.5t-30.5 85.5t30 84.5t86 29.5q57 0 87.5 -29.5t30.5 -84.5z" />
    <glyph glyph-name="cedilla.cap" horiz-adv-x="500" 
d="M128 -273l8 83q6 -1 18 -1q64 0 64 47q0 35 -61 37l18 137l85 -8l-9 -68q84 -19 84 -97q0 -56 -42.5 -94.5t-124.5 -38.5z" />
    <glyph glyph-name="hungarumlaut.cap" horiz-adv-x="500" 
d="M282 916l-179 -149l-67 67l157 173zM498 892l-201 -124l-51 63l172 157z" />
    <glyph glyph-name="commaaccent.cap" horiz-adv-x="500" 
d="M270 -311l-82 22l19 103q3 13 -8 16l-41 11l20 116q49 1 80 -3.5t55.5 -24.5t24.5 -57q0 -32 -22 -79z" />
    <glyph glyph-name="breve.cap" horiz-adv-x="500" 
d="M334 961l96 -35q-19 -72 -61 -108t-119 -36q-78 0 -120.5 36.5t-59.5 107.5l96 35q22 -64 84 -64q54 0 84 64z" />
    <glyph glyph-name="caron.alt" horiz-adv-x="500" 
d="M274 512l-94 26q23 94 23 136q0 44 -11 64l136 39q16 -30 16 -71q0 -20 -7 -44q-19 -62 -63 -150z" />
    <glyph glyph-name="ogonek.cap" horiz-adv-x="500" 
d="M344 -123l34 -92q-66 -31 -137 -31q-61 0 -90 26.5t-29 71.5q0 54 42 99t91 73l90 -21q-80 -72 -80 -114q0 -23 22 -23q21 0 57 11z" />
    <glyph glyph-name="zero.lf" horiz-adv-x="608" 
d="M300 -12q-149 0 -214.5 87t-65.5 272q0 181 69.5 266t220.5 85q150 0 214 -83.5t64 -263.5q0 -188 -68 -275.5t-220 -87.5zM305 134q21 0 32.5 15t18.5 62t7 135q0 122 -12.5 162.5t-43.5 40.5q-32 0 -46.5 -41.5t-14.5 -160.5q0 -127 13 -170t46 -43z" />
    <glyph glyph-name="one.lf" horiz-adv-x="419" 
d="M411 0h-391v105l73 6q10 1 13 5t3 15v403q0 17 -12 21l-79 20l14 107h288v-551q0 -12 2.5 -15.5t13.5 -4.5l75 -7v-104z" />
    <glyph glyph-name="two.lf" horiz-adv-x="561" 
d="M529 0h-511v125l180 220q105 128 105 177q0 31 -34 31q-27 0 -39 -16.5t-12 -58.5l-188 15q2 205 245 205q127 0 183 -43.5t56 -133.5q0 -85 -84 -191l-164 -204h89q13 0 16 13l14 73h144v-212z" />
    <glyph glyph-name="three.lf" horiz-adv-x="579" 
d="M413 362v-4q59 -10 96 -52t37 -108q0 -103 -79 -156.5t-197 -53.5q-81 0 -152.5 26t-114.5 72l106 117q68 -64 147 -64q38 0 60 18.5t22 54.5t-22 53t-52 17q-37 0 -78 -9v138l43 5q46 6 71.5 26.5t25.5 66.5q0 44 -46 44q-30 0 -41 -15.5t-11 -59.5l-190 15
q0 205 247 205q125 0 184 -41t59 -130q0 -63 -35.5 -108.5t-79.5 -56.5z" />
    <glyph glyph-name="four.lf" horiz-adv-x="652" 
d="M632 0h-450v105l130 6q10 1 13 5t3 15v30h-291v102l290 420h208v-402h77v-119h-77v-41q0 -9 16 -10l81 -7v-104zM328 281v187h-4l-125 -187h129z" />
    <glyph glyph-name="five.lf" horiz-adv-x="578" 
d="M490 514h-251l-15 -107l3 -4q62 34 122 34q91 0 140 -50.5t49 -152.5q0 -104 -69.5 -175t-196.5 -71q-184 0 -277 99l106 118q71 -65 148 -65q38 0 59.5 24t21.5 59q0 68 -63 68q-43 0 -69 -37l-134 53l23 375h403v-168z" />
    <glyph glyph-name="six.lf" horiz-adv-x="597" 
d="M561 513l-196 -23q0 42 -8 57t-35 15q-72 0 -78 -156q63 23 129 23q86 0 143 -48t57 -150q0 -125 -75 -184t-191 -59q-274 0 -274 343q0 54 8 103t29 98t53.5 85t85 58.5t120.5 22.5q37 0 67.5 -4t62 -16t53 -31.5t35.5 -53.5t14 -80zM246 287q2 -77 16 -113t49 -36
q20 0 31.5 13t14 28t2.5 37q0 82 -56 82q-24 0 -57 -11z" />
    <glyph glyph-name="seven.lf" horiz-adv-x="561" 
d="M352 0h-222q15 179 79.5 319t119.5 195h-138q-10 0 -10 -13l-11 -63l-147 -12v256h533v-150q-91 -102 -145.5 -241.5t-58.5 -290.5z" />
    <glyph glyph-name="eight.lf" horiz-adv-x="580" 
d="M457 368q59 -38 80 -75.5t21 -96.5q0 -102 -76.5 -155t-202.5 -53t-191 48t-65 139q0 92 98 171q-38 32 -58 66t-20 85q0 94 68 147.5t182 53.5q111 0 173.5 -45t62.5 -130q0 -79 -72 -155zM239 274q-45 -45 -45 -90q0 -27 20 -46.5t62 -19.5q72 0 72 54q0 29 -26.5 51
t-82.5 51zM328 432q32 43 32 84q0 52 -62 52q-55 0 -55 -48q0 -23 21.5 -43.5t63.5 -44.5z" />
    <glyph glyph-name="nine.lf" horiz-adv-x="602" 
d="M43 69l83 121q66 -54 135 -54q41 0 65 27t30 92q-50 -18 -101 -18q-98 0 -163 59t-65 165q0 113 70.5 175t188.5 62q145 0 213 -88.5t68 -236.5q0 -62 -8.5 -115.5t-29.5 -104t-53.5 -86.5t-84.5 -57.5t-118 -21.5q-65 0 -129.5 23t-100.5 58zM352 379q-3 170 -64 170
q-46 0 -46 -76q0 -52 14 -79t49 -27q23 0 47 12z" />
    <glyph glyph-name="dollar.lf" horiz-adv-x="553" 
d="M369 -80h-193v86q-75 10 -135 31v176l152 -10l10 -63q2 -13 12 -17q21 -7 50 -7q30 0 48 16t18 45q0 28 -22 48t-55 29.5t-71 25.5t-71 35t-55 59t-22 96q0 78 41.5 127t112.5 70v86h193v-76q52 -6 124 -26v-179l-151 7l-12 66q-2 12 -13 13q-24 4 -39 4q-27 0 -45 -14
t-18 -38q0 -23 22 -41t54.5 -28.5t71 -28t71 -38t54.5 -61t22 -94.5q0 -81 -42 -133.5t-112 -73.5v-92z" />
    <glyph glyph-name="Euro.lf" horiz-adv-x="595" 
d="M387 274h-91q5 -77 22 -107.5t53 -30.5q13 0 24 3q7 2 10 13l18 76l143 5v-192q-29 -21 -96 -37t-128 -16q-125 0 -192 70.5t-80 215.5h-70l24 151h48q18 140 94.5 206.5t183.5 66.5q60 0 123 -16t92 -37v-185l-144 5l-14 70q-3 14 -12 17q-9 4 -31 4q-57 0 -68 -131h115
z" />
    <glyph glyph-name="cent.lf" horiz-adv-x="562" 
d="M40 355q0 92 43 155.5t124 88.5v114h193v-108q65 -11 122 -44v-169l-144 5l-10 58q-3 14 -11 17q-11 5 -30 5q-31 0 -45.5 -27.5t-14.5 -88.5q0 -70 11.5 -97.5t46.5 -27.5q20 0 31 4q8 3 10 17l11 59l144 5v-169q-59 -37 -134 -47v-105h-193v114q-154 43 -154 241z" />
    <glyph glyph-name="sterling.lf" horiz-adv-x="582" 
d="M556 0h-527l-19 121q29 9 40 16t19.5 36t8.5 89v19h-60v149h60v35q0 36 5 66t21.5 62t43.5 54t74.5 36.5t110.5 14.5q229 0 229 -184l-190 -24q0 36 -8 51t-35 15q-15 0 -24 -6t-12.5 -21t-4.5 -27t-1 -36v-36h108v-149h-108v-4q0 -99 -55 -151h150q7 0 9 2.5t4 10.5
l15 73h146v-212z" />
    <glyph glyph-name="yen.lf" horiz-adv-x="679" 
d="M574 229h-124v-98q0 -11 2.5 -14.5t13.5 -4.5l112 -8v-104h-466v104l105 7q16 1 16 17v101h-116v160h62l-108 162q-9 13 -24 17l-45 11l10 103h332v-103l-49 -9l68 -122h6l73 122l-50 9l10 103h275v-103l-42 -11q-14 -3 -25 -19l-106 -160h70v-160z" />
    <glyph glyph-name="florin.lf" horiz-adv-x="647" 
d="M463 277h-120l-27 -169q-12 -73 -34 -120.5t-56 -72.5t-73.5 -34.5t-95.5 -9.5q-52 0 -104.5 17.5t-85.5 43.5l54 123q64 -45 123 -45q18 0 28 2t22 10.5t20 27.5t14 51l30 166q2 10 -8 10h-89l20 122h98l17 92q20 114 69.5 160.5t152.5 46.5q118 0 212 -53l-26 -164
l-128 12l-1 57q-2 10 -12 13q-17 5 -31 5q-39 0 -48 -54l-18 -105q-1 -10 8 -10h109z" />
    <glyph glyph-name="zero.slash" 
d="M281 -12q-148 0 -209 86t-61 273q0 183 65.5 267t214.5 84q148 0 207.5 -82.5t59.5 -264.5q0 -190 -63.5 -276.5t-213.5 -86.5zM285 119q33 0 47.5 49.5t14.5 177.5q0 54 -3 93l-77 -317q7 -3 18 -3zM223 347q0 -72 2 -100l77 314q-6 3 -14 3q-34 0 -49.5 -46.5
t-15.5 -170.5z" />
    <glyph glyph-name="zero.tf" 
d="M281 -12q-148 0 -209 86t-61 273q0 183 65.5 267t214.5 84q148 0 207.5 -82.5t59.5 -264.5q0 -190 -63.5 -276.5t-213.5 -86.5zM285 134q29 0 38.5 41.5t9.5 170.5q0 67 -1.5 103.5t-6.5 60.5t-13.5 31.5t-23.5 7.5q-30 0 -40 -39.5t-10 -162.5q0 -133 8.5 -173t38.5 -40
z" />
    <glyph glyph-name="one.tf" 
d="M522 0h-441v104l103 10q10 1 13 4.5t3 15.5v400q0 17 -12 21l-79 20l14 107h288v-548q0 -12 2.5 -15.5t13.5 -4.5l95 -11v-103z" />
    <glyph glyph-name="two.tf" 
d="M535 0h-511v125l180 220q105 128 105 177q0 31 -34 31q-27 0 -39 -16.5t-12 -58.5l-188 15q2 205 245 205q127 0 183 -43.5t56 -133.5q0 -85 -84 -191l-164 -204h89q13 0 16 13l14 73h144v-212z" />
    </font>
</defs>
</svg>
