<?xml version="1.0" standalone="no"?>
<!DOCTYPE svg PUBLIC "-//W3C//DTD SVG 1.1//EN" "http://www.w3.org/Graphics/SVG/1.1/DTD/svg11.dtd" >
<svg xmlns="http://www.w3.org/2000/svg" xmlns:xlink="http://www.w3.org/1999/xlink" version="1.1">
<metadata>
Created by FontForge 20170731 at Thu May  7 15:37:07 2009
 By Aleksey,,,
Copyright (c) 2009 by TypeTogether. All rights reserved.
</metadata>
<defs>
<font id="Adelle-Light" horiz-adv-x="570" >
  <font-face 
    font-family="Adelle Lt"
    font-weight="300"
    font-stretch="normal"
    units-per-em="1000"
    panose-1="2 0 5 3 0 0 0 2 0 4"
    ascent="755"
    descent="-245"
    x-height="511"
    cap-height="724"
    bbox="-147 -291 1288 963"
    underline-thickness="50"
    underline-position="-200"
    unicode-range="U+0020-FB06"
  />
<missing-glyph horiz-adv-x="500" 
 />
    <glyph glyph-name="ff" unicode="ff" horiz-adv-x="731" 
d="M195 455v-383q0 -12 2.5 -15.5t13.5 -4.5l115 -8v-44h-281v45l67 6q10 1 13 4.5t3 15.5v374q0 10 -8 10h-74v56h82v70q0 85 40.5 127.5t127.5 42.5q62 0 96.5 -23.5t34.5 -86.5l-63 -9q0 38 -16 50t-55 12q-58 0 -78 -28t-20 -88v-57q0 -10 8 -10h262v85q0 170 171 170
q66 0 102 -23.5t36 -86.5l-63 -9q0 38 -18 50t-60 12q-59 0 -80 -28.5t-21 -87.5v-72q0 -10 8 -10h167v-56h-175v-383q0 -12 2.5 -15.5t13.5 -4.5l115 -8v-44h-281v45l67 6q10 1 13 4.5t3 15.5v374q0 10 -8 10h-262z" />
    <glyph glyph-name="fi" unicode="fi" horiz-adv-x="637" 
d="M617 0h-241v45l72 6q10 1 13 5t3 15v374q0 10 -8 10h-261v-383q0 -12 2.5 -15.5t13.5 -4.5l82 -8v-44h-248v45l67 6q11 1 13.5 4.5t2.5 15.5v374q0 10 -8 10h-74v56h82v85q0 91 47.5 130.5t172.5 39.5q38 0 56.5 -1t45 -6.5t39 -16.5t23 -32.5t11.5 -53.5l-66 -9
q-2 43 -21 52.5t-90 9.5q-93 0 -122 -25.5t-29 -90.5v-72q0 -10 8 -10h328v-440q0 -12 2.5 -15.5t13.5 -4.5l70 -7v-44z" />
    <glyph glyph-name="fl" unicode="fl" horiz-adv-x="638" 
d="M128 511v85q0 91 48.5 130.5t176.5 39.5q32 0 48 -0.5t41 -3.5t38 -10t27 -18.5t19.5 -31t5.5 -46.5v-585q0 -12 2.5 -15.5t13.5 -4.5l65 -7v-44h-231v45l67 6q10 1 13 5t3 15v576q0 44 -20 53t-94 9q-96 0 -126 -25.5t-30 -90.5v-72q0 -7 1.5 -8.5t6.5 -1.5h167v-56
h-175v-383q0 -12 2.5 -15.5t13.5 -4.5l105 -8v-44h-271v45l67 6q10 1 13 4.5t3 15.5v374q0 10 -8 10h-74v56h82z" />
    <glyph glyph-name="ffi" unicode="ffi" horiz-adv-x="974" 
d="M465 71v374q0 10 -8 10h-262v-383q0 -12 2.5 -15.5t13.5 -4.5l115 -8v-44h-281v45l67 6q10 1 13 4.5t3 15.5v374q0 10 -8 10h-74v56h82v70q0 85 40.5 127.5t127.5 42.5q62 0 96.5 -23.5t34.5 -86.5l-63 -9q0 38 -16 50t-55 12q-58 0 -78 -28t-20 -88v-57q0 -10 8 -10h262
v85q0 91 47.5 130.5t172.5 39.5q38 0 56.5 -1t45 -6.5t39 -16.5t23 -32.5t11.5 -53.5l-66 -9q-2 43 -21 52.5t-90 9.5q-93 0 -122 -25.5t-29 -90.5v-72q0 -10 8 -10h328v-440q0 -12 2.5 -15.5t13.5 -4.5l70 -7v-44h-241v45l72 6q10 1 13 5t3 15v374q0 10 -8 10h-261v-383
q0 -12 2.5 -15.5t13.5 -4.5l82 -8v-44h-248v45l67 6q11 1 13.5 4.5t2.5 15.5z" />
    <glyph glyph-name="ffl" unicode="ffl" horiz-adv-x="975" 
d="M465 71v374q0 10 -8 10h-262v-383q0 -12 2.5 -15.5t13.5 -4.5l115 -8v-44h-281v45l67 6q10 1 13 4.5t3 15.5v374q0 10 -8 10h-74v56h82v70q0 85 40.5 127.5t127.5 42.5q62 0 96.5 -23.5t34.5 -86.5l-63 -9q0 38 -16 50t-55 12q-58 0 -78 -28t-20 -88v-57q0 -10 8 -10h262
v85q0 91 48.5 130.5t176.5 39.5q32 0 48 -0.5t41 -3.5t38 -10t27 -18.5t19.5 -31t5.5 -46.5v-585q0 -12 2.5 -15.5t13.5 -4.5l65 -7v-44h-231v45l67 6q10 1 13 5t3 15v576q0 44 -20 53t-94 9q-96 0 -126 -25.5t-30 -90.5v-72q0 -7 1.5 -8.5t6.5 -1.5h167v-56h-175v-383
q0 -12 2.5 -15.5t13.5 -4.5l105 -8v-44h-271v45l67 6q10 1 13 4.5t3 15.5z" />
    <glyph glyph-name="fk" unicode="fk" horiz-adv-x="928" 
d="M532 656v-400l226 255h98v-44l-59 -13q-14 -2 -25 -15l-99 -112l162 -257q2 -3 3.5 -5t3.5 -3.5t3.5 -2.5t4 -2t3.5 -1t5 -1t6 -1l54 -10v-44h-210v45l62 8l-142 222l-96 -108v-96q0 -12 2.5 -15.5t13.5 -4.5l65 -7v-44h-231v45l67 6q10 1 13 4.5t3 15.5v576
q0 43 -20 52.5t-94 9.5q-96 0 -126 -25.5t-30 -90.5v-72q0 -7 1.5 -8.5t6.5 -1.5h167v-56h-175v-383q0 -12 2.5 -15.5t13.5 -4.5l105 -8v-44h-271v45l67 6q10 1 13 4.5t3 15.5v374q0 10 -8 10h-74v56h82v85q0 91 48.5 130.5t176.5 39.5q32 0 48 -0.5t41 -3.5t38 -10
t27 -18.5t19.5 -31t5.5 -46.5z" />
    <glyph glyph-name="fb" unicode="fb" horiz-adv-x="945" 
d="M521 0h-67q11 75 11 142v505q0 43 -20 52.5t-94 9.5q-97 0 -126.5 -25.5t-29.5 -90.5v-72q0 -10 8 -10h167v-56h-175v-383q0 -12 2.5 -15.5t13.5 -4.5l105 -8v-44h-271v45l67 6q10 1 13 4.5t3 15.5v374q0 10 -8 10h-74v56h82v85q0 91 48.5 130.5t176.5 39.5q32 0 48 -0.5
t41 -3.5t38 -10t27 -18.5t19.5 -31t5.5 -46.5v-194l3 -1q96 60 175 60q88 0 137.5 -60t49.5 -185q0 -149 -55.5 -218.5t-154.5 -69.5q-91 0 -159 60l-2 -1zM532 398v-278q30 -32 70 -53t79 -21q80 0 115 57t35 165q0 194 -132 194q-78 0 -167 -64z" />
    <glyph glyph-name="fh" unicode="fh" horiz-adv-x="981" 
d="M128 511v85q0 91 48.5 130.5t176.5 39.5q32 0 48 -0.5t41 -3.5t38 -10t27 -18.5t19.5 -31t5.5 -46.5v-202l3 -1q92 68 183 68q80 0 118.5 -45t38.5 -145v-260q0 -12 2.5 -15.5t13.5 -4.5l60 -7v-44h-211v45l52 6q11 2 13.5 5t2.5 14v244q0 76 -24 111t-78 35
q-49 0 -97 -24t-77 -51v-314q0 -12 2.5 -15.5t13.5 -4.5l60 -7v-44h-211v45q8 1 25.5 3t26.5 3q10 1 13 5t3 15v576q0 44 -20 53t-94 9q-96 0 -126 -25.5t-30 -90.5v-72q0 -10 8 -10h167v-56h-175v-383q0 -13 2.5 -16t13.5 -4l105 -8v-44h-271v45l67 6q11 1 13.5 5t2.5 15
v374q0 10 -8 10h-74v56h82z" />
    <glyph glyph-name="ft" unicode="ft" horiz-adv-x="752" 
d="M703 68l19 -52q-69 -28 -127 -28q-131 0 -131 124v333q0 10 -8 10h-261v-383q0 -12 2.5 -15.5t13.5 -4.5l115 -8v-44h-281v45l67 6q10 1 13 4.5t3 15.5v374q0 10 -8 10h-74v56h82v85q0 91 48.5 130.5t176.5 39.5q32 0 47.5 -0.5t40 -3.5t36.5 -10t26 -18.5t20 -31
t7 -46.5l-66 -9q-2 43 -21 52.5t-92 9.5q-96 0 -126 -25.5t-30 -90.5v-72q0 -10 8 -10h261v72h67v-62q0 -10 7 -10h150v-56h-157v-318q0 -49 16.5 -69t59.5 -20q45 0 96 20z" />
    <glyph glyph-name="fj" unicode="fj" horiz-adv-x="628" 
d="M464 -55v500q0 10 -8 10h-261v-383q0 -12 2.5 -15.5t13.5 -4.5l115 -8v-44h-281v45l67 6q10 1 13 4.5t3 15.5v374q0 10 -8 10h-74v56h82v85q0 91 47.5 130.5t172.5 39.5q38 0 56.5 -1t45 -6.5t39 -16.5t23 -32.5t11.5 -53.5l-66 -9q-2 43 -21 52.5t-90 9.5
q-93 0 -122 -25.5t-29 -90.5v-72q0 -10 8 -10h328v-581q0 -79 -32 -116t-104 -37q-36 0 -71 11.5t-54 27.5l33 49q38 -31 88 -31q44 0 58.5 26t14.5 85z" />
    <glyph glyph-name="ffj" unicode="ffj" horiz-adv-x="965" 
d="M465 71v374q0 10 -8 10h-262v-383q0 -12 2.5 -15.5t13.5 -4.5l115 -8v-44h-281v45l67 6q10 1 13 4.5t3 15.5v374q0 10 -8 10h-74v56h82v70q0 85 40.5 127.5t127.5 42.5q62 0 96.5 -23.5t34.5 -86.5l-63 -9q0 38 -16 50t-55 12q-58 0 -78 -28t-20 -88v-57q0 -10 8 -10h262
v85q0 91 47.5 130.5t172.5 39.5q38 0 56.5 -1t45 -6.5t39 -16.5t23 -32.5t11.5 -53.5l-66 -9q-2 43 -21 52.5t-90 9.5q-93 0 -122 -25.5t-29 -90.5v-72q0 -10 8 -10h328v-581q0 -79 -32 -116t-104 -37q-36 0 -71 11.5t-54 27.5l33 49q38 -31 88 -31q44 0 58.5 26t14.5 85
v500q0 10 -8 10h-261v-383q0 -12 2.5 -15.5t13.5 -4.5l115 -8v-44h-281v45l67 6q10 1 13 4.5t3 15.5z" />
    <glyph glyph-name="ffk" unicode="ffk" horiz-adv-x="1265" 
d="M465 71v374q0 10 -8 10h-262v-383q0 -12 2.5 -15.5t13.5 -4.5l115 -8v-44h-281v45l67 6q10 1 13 4.5t3 15.5v374q0 10 -8 10h-74v56h82v70q0 85 40.5 127.5t127.5 42.5q62 0 96.5 -23.5t34.5 -86.5l-63 -9q0 38 -16 50t-55 12q-58 0 -78 -28t-20 -88v-57q0 -10 8 -10h262
v85q0 91 48.5 130.5t176.5 39.5q32 0 48 -0.5t41 -3.5t38 -10t27 -18.5t19.5 -31t5.5 -46.5v-400l226 255h98v-44l-59 -13q-14 -2 -25 -15l-99 -112l162 -257q2 -3 3.5 -5t3.5 -3.5t3.5 -2.5t4 -2t3.5 -1t5 -1t6 -1l54 -10v-44h-210v45l62 8l-142 222l-96 -108v-96
q0 -12 2.5 -15.5t13.5 -4.5l65 -7v-44h-231v45l67 6q10 1 13 4.5t3 15.5v576q0 43 -20 52.5t-94 9.5q-96 0 -126 -25.5t-30 -90.5v-72q0 -7 1.5 -8.5t6.5 -1.5h167v-56h-175v-383q0 -12 2.5 -15.5t13.5 -4.5l105 -8v-44h-271v45l67 6q10 1 13 4.5t3 15.5z" />
    <glyph glyph-name="ffb" unicode="ffb" horiz-adv-x="1282" 
d="M465 71v374q0 10 -8 10h-262v-383q0 -12 2.5 -15.5t13.5 -4.5l115 -8v-44h-281v45l67 6q10 1 13 4.5t3 15.5v374q0 10 -8 10h-74v56h82v70q0 85 40.5 127.5t127.5 42.5q62 0 96.5 -23.5t34.5 -86.5l-63 -9q0 38 -16 50t-55 12q-58 0 -78 -28t-20 -88v-57q0 -10 8 -10h262
v85q0 91 48.5 130.5t176.5 39.5q32 0 48 -0.5t41 -3.5t38 -10t27 -18.5t19.5 -31t5.5 -46.5v-194l3 -1q96 60 175 60q88 0 137.5 -60t49.5 -185q0 -149 -55.5 -218.5t-154.5 -69.5q-91 0 -159 60l-2 -1l-5 -47h-67q11 75 11 142v505q0 43 -20 52.5t-94 9.5
q-97 0 -126.5 -25.5t-29.5 -90.5v-72q0 -10 8 -10h167v-56h-175v-383q0 -12 2.5 -15.5t13.5 -4.5l105 -8v-44h-271v45l67 6q10 1 13 4.5t3 15.5zM869 398v-278q30 -32 70 -53t79 -21q80 0 115 57t35 165q0 194 -132 194q-78 0 -167 -64z" />
    <glyph glyph-name="ffh" unicode="ffh" horiz-adv-x="1318" 
d="M465 71v374q0 10 -8 10h-262v-383q0 -12 2.5 -15.5t13.5 -4.5l115 -8v-44h-281v45l67 6q10 1 13 4.5t3 15.5v374q0 10 -8 10h-74v56h82v70q0 85 40.5 127.5t127.5 42.5q62 0 96.5 -23.5t34.5 -86.5l-63 -9q0 38 -16 50t-55 12q-58 0 -78 -28t-20 -88v-57q0 -10 8 -10h262
v85q0 91 48.5 130.5t176.5 39.5q32 0 48 -0.5t41 -3.5t38 -10t27 -18.5t19.5 -31t5.5 -46.5v-202l3 -1q92 68 183 68q80 0 118.5 -45t38.5 -145v-260q0 -12 2.5 -15.5t13.5 -4.5l60 -7v-44h-211v45l52 6q11 2 13.5 5t2.5 14v244q0 76 -24 111t-78 35q-49 0 -97 -24t-77 -51
v-314q0 -12 2.5 -15.5t13.5 -4.5l60 -7v-44h-211v45q9 1 26 3t26 3q10 1 13 5t3 15v576q0 44 -20 53t-94 9q-96 0 -126 -25.5t-30 -90.5v-72q0 -10 8 -10h167v-56h-175v-383q0 -13 2.5 -16t13.5 -4l105 -8v-44h-271v45l67 6q11 1 13.5 5t2.5 15z" />
    <glyph glyph-name="fft" unicode="fft" horiz-adv-x="1089" 
d="M1040 68l19 -52q-69 -28 -127 -28q-131 0 -131 124v333q0 10 -8 10h-261v-383q0 -12 2.5 -15.5t13.5 -4.5l115 -8v-44h-281v45l67 6q10 1 13 4.5t3 15.5v374q0 10 -8 10h-262v-383q0 -12 2.5 -15.5t13.5 -4.5l115 -8v-44h-281v45l67 6q10 1 13 4.5t3 15.5v374q0 10 -8 10
h-74v56h82v70q0 85 40.5 127.5t127.5 42.5q62 0 96.5 -23.5t34.5 -86.5l-63 -9q0 38 -16 50t-55 12q-58 0 -78 -28t-20 -88v-57q0 -10 8 -10h262v85q0 91 48.5 130.5t176.5 39.5q32 0 47.5 -0.5t40 -3.5t36.5 -10t26 -18.5t20 -31t7 -46.5l-66 -9q-2 43 -21 52.5t-92 9.5
q-96 0 -126 -25.5t-30 -90.5v-72q0 -10 8 -10h261v72h67v-62q0 -10 7 -10h150v-56h-157v-318q0 -49 16.5 -69t59.5 -20q45 0 96 20z" />
    <glyph glyph-name="f_iacute" unicode="f&#xed;" horiz-adv-x="637" 
d="M617 0h-241v45l72 6q10 1 13 5t3 15v374q0 10 -8 10h-261v-383q0 -12 2.5 -15.5t13.5 -4.5l82 -8v-44h-248v45l67 6q16 1 16 21v373q0 10 -8 10h-74v56h82v71q0 169 158 169q58 0 89 -17.5t39 -62.5q-10 -3 -30.5 -9t-31.5 -9q-5 24 -19.5 32.5t-49.5 8.5
q-51 0 -69.5 -28t-18.5 -86v-59q0 -10 11 -10h325v-440q0 -12 2.5 -15.5t13.5 -4.5l70 -7v-44zM634 708l-175 -139l-32 32l155 160z" />
    <glyph glyph-name="tt" unicode="tt" horiz-adv-x="742" 
d="M454 112v333q0 10 -8 10h-262v-318q0 -49 16.5 -69t59.5 -20t96 20l19 -52q-71 -28 -129 -28q-129 0 -129 124v333q0 10 -8 10h-74v45q55 7 74.5 33.5t29.5 101.5h45v-114q0 -10 8 -10h201q41 0 57.5 30t25.5 94h45v-114q0 -10 8 -10h149v-56h-157v-318q0 -49 16.5 -69
t59.5 -20t96 20l19 -52q-71 -28 -129 -28q-129 0 -129 124z" />
    <glyph glyph-name=".notdef" horiz-adv-x="500" 
 />
    <glyph glyph-name=".null" horiz-adv-x="0" 
 />
    <glyph glyph-name="nonmarkingreturn" horiz-adv-x="333" 
 />
    <glyph glyph-name="space" unicode=" " horiz-adv-x="230" 
 />
    <glyph glyph-name="exclam" unicode="!" horiz-adv-x="256" 
d="M156 183h-55l-12 379v162h77v-162zM187 45q0 -57 -58 -57t-58 57t58 57t58 -57z" />
    <glyph glyph-name="quotedbl" unicode="&#x22;" horiz-adv-x="360" 
d="M295 447h-72v259h72v-259zM137 447h-72v259h72v-259z" />
    <glyph glyph-name="numbersign" unicode="#" horiz-adv-x="607" 
d="M389 0h-59l22 146h-135l-22 -146h-59l21 146h-121l13 52h117l25 162h-121l12 53h117l19 130h60l-20 -130h133l19 130h60l-20 -130h121l-11 -53h-118l-23 -162h119l-11 -52h-116zM360 198l23 162h-133l-25 -162h135z" />
    <glyph glyph-name="dollar" unicode="$" horiz-adv-x="521" 
d="M456 168q0 -71 -43.5 -113t-122.5 -52v-83h-55v80q-59 0 -113 12t-81 25v135h49l18 -75q5 -19 18 -24q40 -16 109 -17v228q-40 11 -63.5 21t-52 28.5t-42 48.5t-13.5 72q0 77 46.5 118.5t124.5 50.5v74h55v-71q80 -3 160 -33v-147l-51 5l-17 82q-4 18 -20 24
q-27 9 -72 11v-232q38 -11 62 -21t51 -29t40 -48.5t13 -69.5zM128 463q0 -45 27.5 -69t79.5 -41v212q-51 -7 -79 -33t-28 -69zM391 158q0 44 -26 68t-75 41v-208q101 14 101 99z" />
    <glyph glyph-name="percent" unicode="%" horiz-adv-x="856" 
d="M206 257q-82 0 -119 50t-37 126q0 84 43 135.5t121 51.5q79 0 117 -46t38 -128q0 -86 -42.5 -137.5t-120.5 -51.5zM271 -17h-66l377 638h65zM209 309q95 0 95 133q0 125 -92 125q-52 0 -74.5 -38t-22.5 -91q0 -129 94 -129zM643 -12q-82 0 -119 50t-37 126q0 84 43 135.5
t121 51.5q79 0 117 -46t38 -128q0 -86 -42.5 -137.5t-120.5 -51.5zM646 40q95 0 95 133q0 125 -92 125q-52 0 -74.5 -38t-22.5 -91q0 -129 94 -129z" />
    <glyph glyph-name="ampersand" unicode="&#x26;" horiz-adv-x="711" 
d="M675 0h-108l-86 104q-87 -116 -227 -116q-95 0 -153 55t-58 147q0 81 47.5 135t138.5 75q-60 68 -60 133q0 58 41 98.5t119 40.5q39 0 80.5 -11t62.5 -21v-126l-51 3l-12 68q-3 15 -16 20q-25 9 -64 9q-46 0 -70 -19.5t-24 -53.5q0 -37 18 -68.5t76 -98.5l144 -169l6 18
q28 90 33 164h115v-44l-46 -9q-9 -2 -12.5 -4.5t-4.5 -12.5q-14 -90 -46 -158l74 -89q10 -12 29 -16l54 -10v-44zM440 150l-174 201q-157 -24 -157 -160q0 -59 38 -102.5t113 -43.5q112 0 180 105z" />
    <glyph glyph-name="quotesingle" unicode="'" horiz-adv-x="202" 
d="M137 447h-72v259h72v-259z" />
    <glyph glyph-name="parenleft" unicode="(" horiz-adv-x="278" 
d="M254 -123l-53 -29q-142 222 -142 432q0 221 151 443l51 -32q-68 -114 -101 -209t-33 -201q0 -63 9.5 -118.5t31 -109t38 -86.5t48.5 -90z" />
    <glyph glyph-name="parenright" unicode=")" horiz-adv-x="278" 
d="M77 -152l-53 29q32 57 48.5 90t38 86.5t31 109t9.5 118.5q0 106 -33 201t-101 209l51 32q151 -222 151 -443q0 -210 -142 -432z" />
    <glyph glyph-name="asterisk" unicode="*" horiz-adv-x="469" 
d="M218 588l-15 104v63h63v-63l-15 -104h-33zM209 558l26 -22l-56 -89l-41 -49l-48 41l41 48zM209 558l-104 20l-60 22l22 59l60 -21l91 -50zM261 557l77 -70l41 -48l-48 -41l-41 49l-55 89zM261 557l-10 31l92 50l59 21l22 -59l-60 -22z" />
    <glyph glyph-name="plus" unicode="+" 
d="M319 131h-69v157h-152v66h152v154h69v-154h152v-66h-152v-157z" />
    <glyph glyph-name="comma" unicode="," horiz-adv-x="175" 
d="M79 -117l-39 15l31 104q1 7 -5 10l-32 14l22 73q50 -3 73 -14.5t23 -44.5q0 -20 -14 -46z" />
    <glyph glyph-name="hyphen" unicode="-" horiz-adv-x="311" 
d="M291 255h-271v74h271v-74z" />
    <glyph glyph-name="period" unicode="." horiz-adv-x="206" 
d="M166 45q0 -57 -58 -57t-58 57t58 57t58 -57z" />
    <glyph glyph-name="slash" unicode="/" horiz-adv-x="353" 
d="M67 -92h-61l281 847h60z" />
    <glyph glyph-name="zero" unicode="0" horiz-adv-x="563" 
d="M279 -12q-57 0 -99.5 17t-67.5 43.5t-40.5 66.5t-21 79.5t-5.5 87.5q0 62 11.5 112t38 94t76 68.5t118.5 24.5q55 0 96 -15.5t66 -41.5t40.5 -64t21 -77t5.5 -87q0 -308 -239 -308zM282 44q91 0 129 65t38 180q0 113 -35.5 173t-126.5 60q-94 0 -133.5 -63.5
t-39.5 -182.5q0 -232 168 -232z" />
    <glyph glyph-name="one" unicode="1" horiz-adv-x="351" 
d="M326 0h-296v45l107 6q10 1 13 4.5t3 15.5v411q0 8 -2 12t-4.5 5.5t-8.5 3.5l-98 17l5 46h175v-495q0 -12 2.5 -15.5t13.5 -4.5l90 -7v-44z" />
    <glyph glyph-name="two" unicode="2" horiz-adv-x="461" 
d="M438 0h-404v50l135 132q15 14 45 43t43 41.5t33.5 35.5t29 38.5t15.5 35.5t7 40q0 108 -128 108q-67 0 -95.5 -22t-28.5 -88l-64 8q0 49 16 82t45 49t59 22t69 6q101 0 149 -42t48 -115q0 -26 -8.5 -52.5t-18 -45t-33 -45.5t-35 -38.5t-43 -41t-39.5 -37.5l-113 -108h234
q14 0 16 11l16 87h50v-154z" />
    <glyph glyph-name="three" unicode="3" horiz-adv-x="476" 
d="M301 265v-4q131 -25 131 -155q0 -86 -55 -137.5t-157 -51.5q-66 0 -120.5 23t-85.5 60l44 47q66 -69 165 -69q61 0 100 29t39 97q0 62 -39.5 93.5t-112.5 31.5q-30 0 -69 -6v57l62 6q70 7 106.5 41.5t36.5 87.5q0 109 -121 109q-65 0 -95.5 -23t-30.5 -87l-64 8
q0 159 194 159q96 0 141.5 -43t45.5 -113q0 -119 -115 -160z" />
    <glyph glyph-name="four" unicode="4" horiz-adv-x="491" 
d="M382 -67h-65v151h-292v53l240 433l55 -32l-216 -395h214v218h65v-218h93v-59h-94v-151z" />
    <glyph glyph-name="five" unicode="5" horiz-adv-x="501" 
d="M425 508h-282l-14 -214q58 39 133 39q89 0 141.5 -53.5t52.5 -148.5q0 -93 -58.5 -153.5t-160.5 -60.5q-140 0 -217 82l45 50q65 -70 173 -70q60 0 104 37t44 112q0 77 -40.5 111.5t-94.5 34.5q-68 0 -134 -48l-52 24l20 316h267q13 0 16 11l14 54l43 3v-126z" />
    <glyph glyph-name="six" unicode="6" horiz-adv-x="517" 
d="M459 506l-64 -8q0 52 -24 71t-77 19t-89.5 -26t-53.5 -69t-24 -83t-7 -83q73 67 173 67q88 0 132.5 -53t44.5 -137q0 -99 -52.5 -157.5t-152.5 -58.5q-52 0 -90.5 18.5t-61.5 48.5t-37 74t-19 88.5t-5 99.5q0 35 4 69t14 73t28.5 71t45 58.5t67 41.5t90.5 15
q158 0 158 -139zM122 263q6 -220 146 -220q64 0 98.5 40.5t34.5 114.5q0 138 -117 138q-46 0 -91 -23t-71 -50z" />
    <glyph glyph-name="seven" unicode="7" horiz-adv-x="487" 
d="M236 -67h-71q16 184 82 329.5t150 245.5h-266q-14 0 -16 -11l-19 -91l-46 -3v163h427v-50q-89 -87 -163 -261t-78 -322z" />
    <glyph glyph-name="eight" unicode="8" horiz-adv-x="496" 
d="M332 331q57 -32 89.5 -71t32.5 -99q0 -82 -58.5 -127.5t-153.5 -45.5q-89 0 -145 43t-56 120q0 58 33.5 103.5t92.5 88.5q-99 56 -99 149q0 72 53.5 112.5t131.5 40.5q86 0 134 -40.5t48 -103.5q0 -86 -103 -170zM224 315q-114 -81 -114 -159q0 -52 38.5 -81.5
t102.5 -29.5q59 0 96.5 32t37.5 81q0 30 -11 53t-36.5 41.5t-44 29t-56.5 27.5q-9 4 -13 6zM277 358q89 74 89 140q0 90 -117 90q-49 0 -81 -23.5t-32 -66.5q0 -26 10.5 -46.5t34 -38t42 -28t54.5 -27.5z" />
    <glyph glyph-name="nine" unicode="9" horiz-adv-x="546" 
d="M73 -22l37 53q61 -54 145 -54q159 0 159 253q-76 -70 -174 -70q-90 0 -134 55.5t-44 149.5q0 98 54 157t155 59q53 0 92 -18.5t61.5 -47.5t36 -74t17.5 -88.5t4 -100.5q0 -39 -3 -72.5t-10.5 -74.5t-24 -72.5t-40.5 -58.5t-62.5 -42t-87.5 -15q-116 0 -181 61zM412 294
q-1 30 -3 48t-6.5 49.5t-14.5 51.5t-25 41t-40 31.5t-58 10.5q-65 0 -99.5 -40t-34.5 -115q0 -153 118 -153q49 0 92 23.5t71 52.5z" />
    <glyph glyph-name="colon" unicode=":" horiz-adv-x="206" 
d="M166 45q0 -57 -58 -57t-58 57t58 57t58 -57zM166 439q0 -57 -58 -57t-58 57t58 57t58 -57z" />
    <glyph glyph-name="semicolon" unicode=";" horiz-adv-x="175" 
d="M79 -117l-39 15q2 6 12 34.5t16 49.5t3 26q-1 2 -5 4l-32 14l22 73q50 -3 73 -14.5t23 -44.5q0 -13 -8 -34t-17.5 -38.5t-25 -45t-22.5 -39.5zM157 439q0 -57 -58 -57t-58 57t58 57t58 -57z" />
    <glyph glyph-name="less" unicode="&#x3c;" 
d="M462 98l-373 148v84l365 159l24 -64l-325 -136l329 -130z" />
    <glyph glyph-name="equal" unicode="=" 
d="M470 171h-369v69h369v-69zM470 323h-369v69h369v-69z" />
    <glyph glyph-name="greater" unicode="&#x3e;" 
d="M481 246l-373 -148l-20 61l329 130l-325 136l24 64l365 -159v-84z" />
    <glyph glyph-name="question" unicode="?" horiz-adv-x="457" 
d="M208 182h-67v175q46 4 81 13.5t66 28.5t47.5 52t16.5 79q0 77 -38.5 106.5t-108.5 29.5q-69 0 -94 -17q-6 -5 -10 -23l-10 -54l-51 -3v123q76 32 168 32q102 0 158 -43t56 -145q0 -188 -214 -227v-127zM233 45q0 -57 -58 -57t-58 57t58 57t58 -57z" />
    <glyph glyph-name="at" unicode="@" horiz-adv-x="824" 
d="M589 -86l17 -53q-72 -35 -197 -35q-164 0 -261.5 90.5t-97.5 264.5q0 171 108 279t280 108q152 0 244 -83.5t92 -232.5q0 -137 -52.5 -200.5t-139.5 -63.5q-94 0 -101 76q-39 -37 -71 -56.5t-69 -19.5q-105 0 -105 137q0 114 58.5 193t155.5 79q69 0 131 -32l-29 -176
q-12 -69 -12 -97q0 -52 55 -52q47 0 80.5 51t33.5 145q0 135 -70 205.5t-207 70.5q-142 0 -228.5 -93t-86.5 -236q0 -152 80 -226t220 -74q87 0 172 31zM479 130l31 195q-27 18 -69 18q-58 0 -98 -61t-40 -147q0 -42 10 -63t39 -21t65.5 24.5t61.5 54.5z" />
    <glyph glyph-name="A" unicode="A" horiz-adv-x="695" 
d="M685 0h-219v44l83 9l-61 180h-292l-60 -180l81 -9v-44h-207v44l43 11q19 5 24 19l221 650h92l226 -652q4 -12 23 -17l46 -11v-44zM469 292l-126 377l-127 -377h253z" />
    <glyph glyph-name="B" unicode="B" horiz-adv-x="668" 
d="M352 0h-282v44l63 7q10 1 13 5t3 15v581q0 12 -3 15.5t-13 4.5l-63 7v45h283q120 0 168.5 -47t48.5 -130q0 -66 -35 -108.5t-87 -59.5v-3q84 -10 127 -57t43 -124q0 -105 -69.5 -150t-196.5 -45zM215 59h132q38 0 65 2.5t54 11t44 23.5t27.5 40.5t10.5 60.5
q0 73 -49 108.5t-130 35.5h-154v-282zM215 399h107q34 0 63 6t56.5 21t43 44t15.5 70q0 70 -38.5 98t-124.5 28h-122v-267z" />
    <glyph glyph-name="C" unicode="C" horiz-adv-x="684" 
d="M629 177v-137q-75 -52 -236 -52q-174 0 -256 102t-82 278q0 165 91 267t263 102q139 0 218 -53v-146l-51 3l-17 94q-2 14 -13 18q-68 25 -142 25q-129 0 -204 -81.5t-75 -229.5q0 -155 72 -237.5t200 -82.5q103 0 156 24q11 5 13 17l16 89h47z" />
    <glyph glyph-name="D" unicode="D" horiz-adv-x="773" 
d="M342 0h-272v44l63 7q10 1 13 5t3 15v581q0 12 -3 15.5t-13 4.5l-63 7v45h289q183 0 271 -91.5t88 -259.5q0 -173 -94 -273t-282 -100zM216 59h131q147 0 224 77.5t77 221.5q0 171 -74 239.5t-221 68.5h-137v-607z" />
    <glyph glyph-name="E" unicode="E" horiz-adv-x="637" 
d="M582 0h-512v44l63 7q10 1 13 5t3 15v581q0 12 -3 15.5t-13 4.5l-63 7v45h490v-150l-51 3l-14 78q-3 13 -17 13h-262v-274h280v-56h-280v-282h284q14 0 16 11l16 87h50v-154z" />
    <glyph glyph-name="F" unicode="F" horiz-adv-x="601" 
d="M379 0h-309v44l63 7q10 1 13 5t3 15v581q0 12 -3 15.5t-13 4.5l-63 7v45h486v-150l-51 3l-14 78q-3 13 -17 13h-258v-271h276v-56h-276v-269q0 -12 2.5 -15.5t13.5 -4.5l147 -8v-44z" />
    <glyph glyph-name="G" unicode="G" horiz-adv-x="747" 
d="M717 287l-42 -4q-16 -1 -16 -14v-243q-80 -38 -232 -38q-192 0 -282 102.5t-90 277.5q0 165 91 267t263 102q141 0 221 -53v-146l-51 3l-17 94q-2 14 -13 18q-68 25 -145 25q-129 0 -204 -81.5t-75 -229.5q0 -155 80.5 -237.5t225.5 -82.5q84 0 149 18q13 4 13 17v195
h-146l10 55h260v-45z" />
    <glyph glyph-name="H" unicode="H" horiz-adv-x="804" 
d="M738 0h-229v44l63 7q10 1 13 5t3 15v275h-372v-274q0 -12 2.5 -15.5t13.5 -4.5l67 -8v-44h-229v44l63 7q10 1 13 5t3 15v582q0 12 -3 15.5t-13 4.5l-63 7v44h229v-44l-67 -8q-11 -1 -13.5 -4.5t-2.5 -14.5v-251h372v251q0 12 -3 15.5t-13 4.5l-63 7v44h229v-44l-67 -8
q-11 -1 -13.5 -4.5t-2.5 -14.5v-581q0 -12 2.5 -15.5t13.5 -4.5l67 -8v-44z" />
    <glyph glyph-name="I" unicode="I" horiz-adv-x="387" 
d="M320 0h-249v44l73 7q10 1 13 5t3 15v582q0 12 -3 15.5t-13 4.5l-73 7v44h249v-44l-77 -8q-11 -1 -13.5 -4.5t-2.5 -14.5v-581q0 -12 2.5 -15.5t13.5 -4.5l77 -8v-44z" />
    <glyph glyph-name="J" unicode="J" horiz-adv-x="499" 
d="M304 149v505q0 11 -3 14.5t-13 4.5l-83 7v44h249v-44l-67 -8q-11 -1 -13.5 -4t-2.5 -14v-513q0 -79 -37 -116t-119 -37q-51 0 -94.5 11t-60.5 22v123l51 -3l10 -68q2 -9 12 -14q33 -15 80 -15q53 0 72 24.5t19 80.5z" />
    <glyph glyph-name="K" unicode="K" horiz-adv-x="728" 
d="M698 0h-239v45q14 1 41.5 4t40.5 4l-241 308l-84 -90v-199q0 -12 2.5 -15.5t13.5 -4.5l67 -8v-44h-229v44l63 7q10 1 13 5t3 15v582q0 12 -3 15.5t-13 4.5l-63 7v44h229v-44l-67 -8q-11 -1 -13.5 -4.5t-2.5 -14.5v-300l295 318l-62 8v45h210v-44l-54 -10q-18 -3 -30 -16
l-230 -245l264 -339q7 -9 11 -11.5t18 -4.5l60 -10v-44z" />
    <glyph glyph-name="L" unicode="L" horiz-adv-x="617" 
d="M582 0h-512v44l63 7q10 1 13 5t3 15v581q0 12 -3 15.5t-13 4.5l-63 7v45h245v-45l-83 -8q-11 -1 -13.5 -4.5t-2.5 -14.5v-596h284q14 0 16 11l16 87h50v-154z" />
    <glyph glyph-name="M" unicode="M" horiz-adv-x="944" 
d="M878 0h-249v44l83 7q10 1 13 5t3 15v537l-225 -427h-62l-225 433v-542q0 -12 2.5 -15.5t13.5 -4.5l87 -8v-44h-249v44l63 7q10 1 13 5t3 15v581q0 12 -3 15.5t-13 4.5l-63 7v45h164l240 -477l246 477h158v-44l-67 -8q-11 -1 -13.5 -4.5t-2.5 -14.5v-582q0 -17 16 -19
l67 -8v-44z" />
    <glyph glyph-name="N" unicode="N" horiz-adv-x="828" 
d="M684 0h-84l-384 638v-566q0 -12 2.5 -15.5t13.5 -4.5l67 -8v-44h-229v44l63 7q10 1 13 5t3 15v582q0 11 -3 15t-13 5l-63 7v45h176l372 -632v560q0 11 -3 15t-13 5l-63 7v44h228v-44l-67 -8q-11 -1 -13.5 -4.5t-2.5 -14.5v-653z" />
    <glyph glyph-name="O" unicode="O" horiz-adv-x="783" 
d="M388 -12q-165 0 -248 102t-83 273q0 167 90.5 270.5t254.5 103.5q160 0 243 -100t83 -259q0 -181 -87.5 -285.5t-252.5 -104.5zM392 47q123 0 195 82t72 239q0 148 -69.5 229t-189.5 81q-123 0 -198 -82.5t-75 -232.5q0 -151 71.5 -233.5t193.5 -82.5z" />
    <glyph glyph-name="P" unicode="P" horiz-adv-x="658" 
d="M374 0h-304v44l63 7q10 1 13 5t3 15v581q0 12 -3 15.5t-13 4.5l-63 7v45h297q129 0 185 -58.5t56 -154.5q0 -235 -274 -235h-119v-204q0 -12 2.5 -15.5t13.5 -4.5l143 -8v-44zM215 335h117q38 0 66 3.5t55.5 14.5t45.5 30t28.5 51t10.5 75q0 82 -45.5 119.5t-145.5 37.5
h-132v-331z" />
    <glyph glyph-name="Q" unicode="Q" horiz-adv-x="780" 
d="M555 -110l16 -51q-30 -17 -84 -17q-69 0 -98.5 29t-29.5 91q0 23 3 47q-153 8 -229.5 110t-76.5 269q0 164 90.5 266.5t254.5 102.5q160 0 242 -99.5t82 -259.5q0 -169 -76.5 -272t-220.5 -116q-3 -21 -3 -46q0 -67 65 -67q37 0 65 13zM391 47q123 0 194 82t71 239
q0 148 -68.5 229t-188.5 81q-123 0 -198 -82t-75 -229q0 -154 71.5 -237t193.5 -83z" />
    <glyph glyph-name="R" unicode="R" horiz-adv-x="689" 
d="M664 0h-238v45l82 8q-13 29 -46 109t-46 111q-18 41 -66 41h-135v-242q0 -12 2.5 -15.5t13.5 -4.5l68 -8v-44h-229v44l63 7q10 1 13 5t3 15v581q0 12 -3 15.5t-13 4.5l-63 7v45h292q64 0 110 -17t69.5 -46t33.5 -61t10 -70q0 -151 -141 -196q6 -3 10.5 -6t9 -8.5t8 -9
t7.5 -11.5t6.5 -11.5t6.5 -14.5t5.5 -14.5t6.5 -17t7 -17.5l62 -151q7 -15 24 -18l67 -11v-44zM215 373h110q190 0 190 156q0 80 -50.5 108.5t-160.5 28.5h-89v-293z" />
    <glyph glyph-name="S" unicode="S" horiz-adv-x="581" 
d="M500 544l-51 5l-17 86q-3 16 -6 19q-6 8 -36.5 15t-71.5 7q-84 0 -127 -33.5t-43 -94.5q0 -41 20.5 -69t53.5 -43t72.5 -27t79.5 -27t73 -36t53.5 -60t20.5 -94q0 -106 -71.5 -155t-186.5 -49q-62 0 -119.5 12t-83.5 25v151h49l19 -85q2 -11 5 -14.5t12 -7.5
q56 -21 127 -21q178 0 178 139q0 43 -20.5 72.5t-53.5 45.5t-72.5 28t-79.5 26t-73 34t-53.5 57.5t-20.5 90.5q0 99 68 147.5t177 48.5q88 0 178 -33v-160z" />
    <glyph glyph-name="T" unicode="T" horiz-adv-x="643" 
d="M481 0h-312v45l103 7q10 1 13 4.5t3 15.5v596h-175q-14 0 -16 -11l-16 -87h-50v154h582v-154h-50l-16 87q-2 11 -16 11h-176v-596q0 -11 2.5 -14.5t13.5 -4.5l110 -8v-45z" />
    <glyph glyph-name="U" unicode="U" horiz-adv-x="789" 
d="M582 238v415q0 12 -3 15.5t-13 4.5l-63 7v44h229v-44l-67 -8q-11 -1 -13.5 -4.5t-2.5 -14.5v-418q0 -247 -260 -247q-131 0 -190 62t-59 186v417q0 12 -3 15.5t-13 4.5l-63 7v44h229v-44l-67 -8q-11 -1 -13.5 -4.5t-2.5 -14.5v-413q0 -103 47.5 -148t140.5 -45
q95 0 141 43.5t46 147.5z" />
    <glyph glyph-name="V" unicode="V" horiz-adv-x="676" 
d="M389 0h-92l-223 652q-4 12 -24 17l-45 11l10 44h211v-44l-83 -9l201 -614l196 614l-81 9l10 44h197v-44l-42 -11q-20 -5 -25 -19z" />
    <glyph glyph-name="W" unicode="W" horiz-adv-x="973" 
d="M719 0h-85l-144 493l-149 -493h-78l-171 651q-4 17 -20 19l-62 10l10 44h229v-44l-91 -10l148 -590l147 493h77l146 -503l151 600l-93 10l10 44h219v-44l-54 -9q-10 -1 -14 -5t-7 -15z" />
    <glyph glyph-name="X" unicode="X" horiz-adv-x="669" 
d="M649 0h-215v44l74 9l-179 270l-175 -270l72 -9v-44h-206v42l50 11q15 4 25 19l193 296l-183 284q-8 13 -24 17l-45 11l10 44h196v-44l-74 -9l161 -253l166 253l-72 9l10 44h187v-44l-42 -11q-15 -4 -25 -19l-182 -277l203 -301q8 -13 24 -17l51 -11v-44z" />
    <glyph glyph-name="Y" unicode="Y" horiz-adv-x="596" 
d="M450 0h-289v44l93 7q10 1 13 4.5t3 15.5v213l-201 368q-7 13 -24 17l-45 11l10 44h198v-44l-74 -9l171 -325l167 325l-72 9l10 44h186v-44l-42 -11q-18 -5 -25 -19l-192 -363v-215q0 -12 2.5 -15.5t13.5 -4.5l97 -8v-44z" />
    <glyph glyph-name="Z" unicode="Z" horiz-adv-x="633" 
d="M573 0h-523v46l433 622h-332q-14 0 -16 -11l-19 -93l-52 -3v163h502v-48l-431 -620h351q14 0 16 11l19 107h52v-174z" />
    <glyph glyph-name="bracketleft" unicode="[" horiz-adv-x="243" 
d="M213 -143h-145v867h145v-44l-67 -8q-11 -1 -13.5 -4.5t-2.5 -14.5v-723q0 -12 2.5 -15.5t13.5 -4.5l67 -8v-45z" />
    <glyph glyph-name="backslash" unicode="\" horiz-adv-x="353" 
d="M347 -92h-61l-280 847h60z" />
    <glyph glyph-name="bracketright" unicode="]" horiz-adv-x="243" 
d="M30 724h145v-867h-145v45l67 8q11 1 13.5 4.5t2.5 14.5v723q0 12 -2.5 15.5t-13.5 4.5l-67 8v44z" />
    <glyph glyph-name="asciicircum" unicode="^" horiz-adv-x="526" 
d="M496 299h-68l-168 303l-165 -303h-65l197 365h69z" />
    <glyph glyph-name="underscore" unicode="_" horiz-adv-x="500" 
d="M500 -181h-500v52h500v-52z" />
    <glyph glyph-name="grave" unicode="`" horiz-adv-x="500" 
d="M353 601l-32 -32l-175 139l52 53z" />
    <glyph glyph-name="a" unicode="a" horiz-adv-x="534" 
d="M509 0h-122l-9 67l-3 1q-87 -80 -185 -80q-44 0 -74 13.5t-43 36t-17.5 42t-4.5 41.5q0 73 44.5 108.5t135.5 44.5l143 13v56q0 67 -22.5 94t-91.5 27q-26 0 -38.5 -0.5t-31 -4.5t-27 -12.5t-15.5 -24t-7 -39.5l-64 8q0 130 184 130q103 0 141.5 -37t38.5 -139v-274
q0 -12 2.5 -15.5t13.5 -4.5l52 -7v-44zM374 138v96l-131 -12q-70 -7 -96 -28t-26 -65q0 -85 82 -85q49 0 95 27t76 67z" />
    <glyph glyph-name="b" unicode="b" horiz-adv-x="588" 
d="M160 0h-67q11 75 11 142v531q0 17 -13 21l-61 19l8 42h133v-295q101 61 178 61q88 0 137.5 -60t49.5 -185q0 -149 -55.5 -218.5t-154.5 -69.5q-92 0 -159 60l-2 -1zM171 398v-278q30 -32 70 -53t79 -21q80 0 115 57t35 165q0 194 -132 194q-78 0 -167 -64z" />
    <glyph glyph-name="c" unicode="c" horiz-adv-x="476" 
d="M420 83l26 -56q-59 -39 -164 -39q-120 0 -178.5 70.5t-58.5 191.5q0 137 69.5 204t187.5 67q78 0 142 -27v-123l-51 3l-12 66q-2 10 -11 13q-28 10 -76 10q-81 0 -130 -50.5t-49 -159.5q0 -105 46.5 -155t129.5 -50q74 0 129 35z" />
    <glyph glyph-name="d" unicode="d" horiz-adv-x="590" 
d="M552 0h-122l-8 68l-3 1q-86 -81 -180 -81q-187 0 -187 255q0 141 55.5 209.5t152.5 68.5q89 0 157 -49v202q0 16 -13 20l-61 19l8 42h133v-684q0 -12 2.5 -15.5t13.5 -4.5l52 -7v-44zM417 141v258q-27 26 -69.5 45t-86.5 19q-143 0 -143 -218q0 -198 130 -198
q89 0 169 94z" />
    <glyph glyph-name="e" unicode="e" horiz-adv-x="506" 
d="M425 86l25 -56q-73 -42 -172 -42q-233 0 -233 270q0 129 61.5 196t158.5 67q94 0 147.5 -56.5t53.5 -179.5q0 -13 -2 -43h-349q5 -193 168 -193q45 0 74.5 8t67.5 29zM117 296h280q-1 87 -37 126.5t-94 39.5q-62 0 -102.5 -39.5t-46.5 -126.5z" />
    <glyph glyph-name="f" unicode="f" horiz-adv-x="394" 
d="M326 0h-281v45l67 6q10 1 13 4.5t3 15.5v374q0 10 -8 10h-74v56h82v85q0 170 171 170q66 0 102 -23.5t36 -86.5l-63 -9q0 38 -18 50t-60 12q-59 0 -80 -28.5t-21 -87.5v-72q0 -10 8 -10h167v-56h-175v-383q0 -12 2.5 -15.5t13.5 -4.5l115 -8v-44z" />
    <glyph glyph-name="g" unicode="g" horiz-adv-x="534" 
d="M526 456l-93 -7q37 -47 37 -106q0 -88 -57.5 -137.5t-148.5 -49.5q-53 0 -87 14l-47 -94l177 -13q118 -8 163 -32.5t45 -99.5q0 -74 -63.5 -115t-190.5 -41q-121 0 -173.5 31.5t-52.5 91.5q0 36 16.5 63.5t51.5 60.5q-47 10 -47 45q0 19 20 49l49 77q-70 43 -70 140
q0 85 57.5 136.5t153.5 51.5q51 0 86 -10h174v-55zM404 339q0 61 -35.5 94t-101.5 33t-105 -33t-39 -96q0 -55 34 -89.5t107 -34.5q64 0 102 35t38 91zM332 1l-164 10q-62 -55 -62 -101q0 -42 43.5 -58t131.5 -16q21 0 55 4q107 16 107 90q0 35 -27.5 51.5t-83.5 19.5z" />
    <glyph glyph-name="h" unicode="h" horiz-adv-x="632" 
d="M602 0h-211v45l52 6q11 2 13.5 5t2.5 14v244q0 76 -24 111t-78 35q-49 0 -97 -24t-77 -51v-314q0 -12 2.5 -15.5t13.5 -4.5l60 -7v-44h-211v45l52 6q10 1 13 5t3 15v602q0 17 -13 21l-61 19l8 42h133v-304q95 70 186 70q80 0 118.5 -45t38.5 -145v-260q0 -12 2.5 -15.5
t13.5 -4.5l60 -7v-44z" />
    <glyph glyph-name="i" unicode="i" horiz-adv-x="289" 
d="M190 688q0 -53 -54 -53t-54 53t54 53t54 -53zM269 0h-241v45l72 6q10 1 13 5t3 15v358q0 17 -13 21l-58 19l8 42h130v-440q0 -12 2.5 -15.5t13.5 -4.5l70 -7v-44z" />
    <glyph glyph-name="j" unicode="j" horiz-adv-x="275" 
d="M114 -55v484q0 17 -12 21l-68 19l8 42h139v-581q0 -78 -31.5 -115.5t-100.5 -37.5q-83 0 -129 39l33 49q37 -31 91 -31q42 0 56 26.5t14 84.5zM190 688q0 -53 -54 -53t-54 53t54 53t54 -53z" />
    <glyph glyph-name="k" unicode="k" horiz-adv-x="579" 
d="M569 0h-210v45l62 8l-142 222l-96 -108v-96q0 -12 2.5 -15.5t13.5 -4.5l65 -7v-44h-231v45l67 6q10 1 13 5t3 15v602q0 17 -13 21l-61 19l8 42h133v-503l224 259h100v-44l-59 -13q-15 -4 -25 -15l-99 -112l162 -257q8 -13 29 -16l54 -10v-44z" />
    <glyph glyph-name="l" unicode="l" horiz-adv-x="289" 
d="M264 0h-231v45l67 6q10 1 13 4.5t3 15.5v602q0 17 -13 21l-61 19l8 42h133v-684q0 -12 2.5 -15.5t13.5 -4.5l65 -7v-44z" />
    <glyph glyph-name="m" unicode="m" horiz-adv-x="921" 
d="M891 0h-211v45l52 6q11 2 13.5 5t2.5 14v240q0 79 -20 114.5t-76 35.5q-72 0 -153 -59q4 -25 4 -65v-265q0 -12 2.5 -15.5t13.5 -4.5l52 -7v-44h-200v45l49 6q11 2 13.5 5t2.5 14v245q0 80 -16.5 112.5t-69.5 32.5q-86 0 -167 -75v-314q0 -12 2.5 -15.5t13.5 -4.5l60 -7
v-44h-211v45l52 6q10 1 13 5t3 15v358q0 17 -13 21l-58 19l8 42h113l8 -62l3 -1q94 73 188 73q90 0 119 -65q92 65 183 65q83 0 115.5 -48t32.5 -142v-260q0 -12 2.5 -15.5t13.5 -4.5l60 -7v-44z" />
    <glyph glyph-name="n" unicode="n" horiz-adv-x="632" 
d="M602 0h-211v45l52 6q11 2 13.5 5t2.5 14v240q0 78 -23.5 114t-78.5 36q-49 0 -97 -24t-77 -51v-314q0 -12 2.5 -15.5t13.5 -4.5l60 -7v-44h-211v45l52 6q10 1 13 5t3 15v358q0 17 -13 21l-58 19l8 42h113l8 -62l3 -1q99 73 194 73q84 0 119.5 -48.5t35.5 -141.5v-260
q0 -12 2.5 -15.5t13.5 -4.5l60 -7v-44z" />
    <glyph glyph-name="o" unicode="o" horiz-adv-x="563" 
d="M279 -12q-119 0 -176.5 72.5t-57.5 196.5q0 121 61.5 192.5t182.5 71.5q118 0 173.5 -69t55.5 -188q0 -130 -59.5 -203t-179.5 -73zM282 43q167 0 167 214q0 205 -162 205q-84 0 -128.5 -52t-44.5 -154q0 -103 42.5 -158t125.5 -55z" />
    <glyph glyph-name="p" unicode="p" horiz-adv-x="600" 
d="M289 -212h-231v45l42 6q10 1 13 5t3 15v570q0 17 -13 21l-58 19l8 42h114l8 -60l2 -1q93 71 184 71q88 0 137.5 -60t49.5 -185q0 -257 -170 -285q-20 -3 -40 -3q-93 0 -153 59l-2 -1v-187q0 -12 2.5 -15.5t13.5 -4.5l90 -7v-44zM183 389v-269q30 -32 70 -53t79 -21
q80 0 115 57t35 165q0 193 -132 193q-81 0 -167 -72z" />
    <glyph glyph-name="q" unicode="q" horiz-adv-x="577" 
d="M552 -212h-221v44l70 7q11 1 13.5 4.5t2.5 15.5v207l-1 1q-82 -79 -175 -79q-189 0 -189 254q0 140 55 209.5t150 69.5q87 0 160 -53l10 43h67q-10 -82 -10 -130v-522q0 -11 3 -15t13 -5l52 -6v-45zM417 141v258q-27 26 -70 45t-86 19q-143 0 -143 -217q0 -199 130 -199
q89 0 169 94z" />
    <glyph glyph-name="r" unicode="r" horiz-adv-x="417" 
d="M289 0h-241v45l52 6q10 1 13 5t3 15v358q0 17 -13 21l-58 19l8 42h114l9 -64q79 74 155 74q34 0 66 -9v-139l-51 3l-13 76q-1 9 -12 9q-64 0 -138 -74v-316q0 -12 2.5 -15.5t13.5 -4.5l90 -7v-44z" />
    <glyph glyph-name="s" unicode="s" horiz-adv-x="449" 
d="M393 371l-51 3l-12 66q-2 10 -11 13q-34 12 -83 12q-59 0 -88 -23.5t-29 -61.5q0 -18 7.5 -32.5t17 -23t30 -17t33 -12t39.5 -10.5q38 -10 59 -17.5t49 -24t41 -43t13 -63.5q0 -78 -55 -113.5t-138 -35.5q-52 0 -104.5 11.5t-70.5 21.5v123l51 -3l12 -66q2 -10 11 -13
q50 -18 108 -18q121 0 121 87q0 23 -9 39.5t-29 27.5t-37 16.5t-47 13.5q-34 8 -49 12t-42.5 16t-40 25t-23.5 36.5t-11 54.5q0 77 54.5 113t136.5 36q86 0 147 -27v-123z" />
    <glyph glyph-name="t" unicode="t" horiz-adv-x="400" 
d="M351 68l19 -52q-71 -28 -129 -28q-129 0 -129 124v333q0 10 -8 10h-74v45q55 7 74.5 33.5t29.5 101.5h45v-114q0 -10 8 -10h149v-56h-157v-318q0 -49 16.5 -69t59.5 -20t96 20z" />
    <glyph glyph-name="u" unicode="u" horiz-adv-x="629" 
d="M591 0h-123l-9 73l-2 1q-94 -86 -197 -86q-80 0 -112 46.5t-32 137.5v258q0 13 -2.5 17.5t-13.5 6.5l-53 15l7 42h129v-321q0 -77 19 -111t71 -34q95 0 183 103v283q0 13 -2.5 17t-13.5 6l-54 15l7 42h130v-439q0 -20 13 -21l55 -7v-44z" />
    <glyph glyph-name="v" unicode="v" horiz-adv-x="561" 
d="M323 0h-76l-173 441q-4 13 -21 17l-43 9l10 44h189v-44l-71 -8l149 -397l149 397l-68 8l10 44h173v-44l-32 -6q-20 -4 -25 -17z" />
    <glyph glyph-name="w" unicode="w" horiz-adv-x="825" 
d="M613 0h-81l-109 421l-122 -421h-80l-147 441q-4 13 -21 17l-43 9l10 44h185v-44l-67 -8l125 -391l123 428h77l111 -426l120 389l-68 8l10 44h179v-44l-36 -6q-14 -2 -18.5 -6t-7.5 -14q-35 -112 -140 -441z" />
    <glyph glyph-name="x" unicode="x" horiz-adv-x="563" 
d="M553 0h-219v44l68 9l-125 163l-126 -163l69 -9v-44h-210v44l56 11q12 2 23 16l147 189l-137 179q-10 12 -24 17l-45 11l10 44h188v-44l-67 -8l118 -153l121 153l-67 8l10 44h185v-44l-47 -10q-13 -4 -25 -19l-136 -174l147 -191q13 -16 26 -18l60 -11v-44z" />
    <glyph glyph-name="y" unicode="y" horiz-adv-x="567" 
d="M339 -212h-246v45l70 8q8 1 12 5t9 16l64 148l-176 430q-5 13 -21 17l-41 10l10 44h190v-44l-68 -8l143 -369l149 369l-69 8l10 44h182v-44l-34 -5q-19 -3 -25 -17l-253 -604l94 -9v-44z" />
    <glyph glyph-name="z" unicode="z" horiz-adv-x="476" 
d="M441 0h-401v42l312 413h-221q-9 0 -11 -13l-12 -66l-53 -3v138h384v-44l-310 -411h236q9 0 11 13l12 76l53 3v-148z" />
    <glyph glyph-name="braceleft" unicode="{" horiz-adv-x="274" 
d="M246 -97l-10 -49q-80 9 -114 34.5t-34 86.5q0 27 6.5 95t6.5 99q0 55 -24 74t-67 20v51q43 1 67 20t24 74q0 31 -6.5 101t-6.5 97q0 61 34 86.5t114 34.5l10 -49q-57 -12 -74.5 -24t-17.5 -48q0 -25 6 -94.5t6 -105.5q0 -55 -18.5 -80t-51.5 -38q33 -13 51.5 -37.5
t18.5 -79.5q0 -36 -6 -103.5t-6 -92.5q0 -36 17.5 -48t74.5 -24z" />
    <glyph glyph-name="bar" unicode="|" horiz-adv-x="280" 
d="M170 -143h-60v898h60v-898z" />
    <glyph glyph-name="braceright" unicode="}" horiz-adv-x="274" 
d="M38 -146l-10 49q57 12 74.5 24t17.5 48q0 25 -6 92.5t-6 103.5q0 55 18.5 79.5t51.5 37.5q-33 13 -51.5 38t-18.5 80q0 36 6 105t6 95q0 36 -17.5 48t-74.5 24l10 49q80 -9 114 -34.5t34 -86.5q0 -38 -6.5 -103t-6.5 -95q0 -55 24 -74t67 -20v-51q-67 -2 -84 -46
q-7 -17 -7 -48q0 -37 6.5 -104.5t6.5 -89.5q0 -61 -34 -86.5t-114 -34.5z" />
    <glyph glyph-name="asciitilde" unicode="~" horiz-adv-x="465" 
d="M407 411l44 -14q-13 -49 -32 -74.5t-61 -25.5q-38 0 -119 23t-109 23q-22 0 -36.5 -12t-34.5 -43l-42 18q23 48 47 71.5t64 23.5t117 -23t107 -23q23 0 33.5 12.5t21.5 43.5z" />
    <glyph glyph-name="exclamdown" unicode="&#xa1;" horiz-adv-x="256" 
d="M194 464q0 -57 -58 -57t-58 57t58 57t58 -57zM173 -53v-162h-77v162l12 379h55z" />
    <glyph glyph-name="cent" unicode="&#xa2;" horiz-adv-x="489" 
d="M60 278q0 111 52.5 172.5t142.5 74.5v103h55v-99q74 -1 136 -27v-123l-47 3l-11 64q-3 12 -12 15q-28 9 -66 10v-381q49 2 69 9q10 3 11 14l12 66l47 3v-123q-58 -26 -139 -27v-99h-55v102q-93 12 -144 72.5t-51 170.5zM130 284q0 -166 125 -190v373q-125 -25 -125 -183z
" />
    <glyph glyph-name="sterling" unicode="&#xa3;" horiz-adv-x="548" 
d="M485 0h-435l-12 47q54 45 66 88.5t12 137.5v15v16h-84v56h84v71q0 214 206 214q75 0 118.5 -30t43.5 -110l-63 -9q0 52 -24.5 72t-77.5 20q-72 0 -103.5 -38.5t-31.5 -136.5v-53h195v-56h-195v-21q0 -63 -2 -92t-17 -66t-47 -69h285q14 0 16 11l16 87h50v-154z" />
    <glyph glyph-name="currency" unicode="&#xa4;" 
d="M563 57l-50 -48l-93 91q-55 -41 -136 -41q-86 0 -140 43l-92 -93l-46 47l95 95q-33 53 -33 131q0 67 35 123l-94 93l50 49l90 -90q58 47 142 47q86 0 141 -44l86 86l46 -47l-89 -90q32 -53 32 -123q0 -76 -39 -135zM289 119q68 0 105 46t37 117q0 76 -37 118t-108 42
q-68 0 -105 -44t-37 -116q0 -73 36 -118t109 -45z" />
    <glyph glyph-name="yen" unicode="&#xa5;" horiz-adv-x="512" 
d="M430 179h-135v-107q0 -12 2.5 -15.5t13.5 -4.5l97 -8v-44h-289v44l93 7q10 1 13 5t3 15v108h-135v56h135v59h-135v56h102l-136 204q-8 13 -24 17l-45 11l10 44h196v-44l-74 -9l141 -218q126 198 138 218l-72 9l10 44h183v-44l-42 -11q-15 -4 -25 -19l-130 -202h105v-56
h-135v-59h135v-56z" />
    <glyph glyph-name="brokenbar" unicode="&#xa6;" horiz-adv-x="280" 
d="M170 -143h-60v388h60v-388zM170 410h-60v345h60v-345z" />
    <glyph glyph-name="section" unicode="&#xa7;" horiz-adv-x="540" 
d="M85 -109v123l51 -3l12 -66q2 -11 11 -14q48 -17 100 -17q109 0 109 90q0 38 -29.5 59t-72 31t-85 23t-72 45t-29.5 85q0 40 21 75t53 57q-49 37 -49 103q0 73 51.5 108.5t130.5 35.5q84 0 148 -27v-123l-51 3l-12 66q-2 10 -11 13q-34 12 -82 12q-109 0 -109 -85
q0 -35 30 -55.5t72.5 -31t85 -24t72.5 -46t30 -85.5q0 -77 -77 -132q52 -36 52 -99q0 -82 -52 -118t-129 -36q-47 0 -100 12t-69 21zM206 353q-29 -14 -45 -41.5t-16 -54.5q0 -30 20 -51t41 -29.5t66 -21.5t63 -20q58 35 58 104q0 30 -19.5 50t-41 27.5t-64.5 18.5t-62 18z
" />
    <glyph glyph-name="dieresis" unicode="&#xa8;" horiz-adv-x="500" 
d="M200 658q0 -22 -13.5 -35.5t-36.5 -13.5t-36.5 13.5t-13.5 35.5t13.5 35.5t36.5 13.5t36.5 -13.5t13.5 -35.5zM399 658q0 -22 -13.5 -35.5t-36.5 -13.5t-36.5 13.5t-13.5 35.5t13.5 35.5t36.5 13.5t36.5 -13.5t13.5 -35.5z" />
    <glyph glyph-name="copyright" unicode="&#xa9;" horiz-adv-x="759" 
d="M710 319q0 -148 -92 -239.5t-239 -91.5q-159 0 -244.5 88.5t-85.5 228.5q0 151 95 240.5t237 89.5q152 0 240.5 -85.5t88.5 -230.5zM381 31q130 0 205 75.5t75 206.5q0 133 -77 206t-203 73q-124 0 -202.5 -76.5t-78.5 -209.5q0 -128 75 -201.5t206 -73.5zM505 242v-98
q-41 -24 -114 -24q-97 0 -142.5 52.5t-45.5 142.5q0 88 49.5 141t141.5 53q59 0 112 -20v-103l-39 3l-10 54q-1 6 -9 9q-27 11 -63 11q-53 0 -87 -36.5t-34 -113.5q0 -66 31.5 -107t96.5 -41q34 0 56 11q6 3 9 12l14 54h34z" />
    <glyph glyph-name="ordfeminine" unicode="&#xaa;" horiz-adv-x="369" 
d="M347 281h-91l-6 41l-2 1q-55 -50 -119 -50q-93 0 -93 88q0 47 29.5 70t90.5 28l89 7v36q0 38 -13 54t-54 16q-25 0 -37.5 -2t-23 -13t-10.5 -34l-55 6q0 87 127 87q70 0 97 -24t27 -89v-170q0 -8 2 -10t9 -3l33 -5v-34zM245 368v60l-76 -6q-42 -4 -57.5 -16.5
t-15.5 -38.5q0 -49 50 -49q57 0 99 50z" />
    <glyph glyph-name="guillemotleft" unicode="&#xab;" horiz-adv-x="424" 
d="M219 103h-66l-88 157l89 148h66l-73 -136q-6 -10 -1 -19zM365 103h-66l-88 157l89 148h66l-73 -136q-6 -10 -1 -19z" />
    <glyph glyph-name="logicalnot" unicode="&#xac;" 
d="M471 199h-69v94h-304v66h373v-160z" />
    <glyph glyph-name="uni00AD" unicode="&#xad;" horiz-adv-x="311" 
d="M291 255h-271v74h271v-74z" />
    <glyph glyph-name="registered" unicode="&#xae;" horiz-adv-x="447" 
d="M407 480q0 -82 -51 -132.5t-133 -50.5q-88 0 -135.5 49t-47.5 127q0 83 52.5 133.5t131.5 50.5q84 0 133.5 -48t49.5 -129zM368 477q0 69 -40 106.5t-104 37.5q-63 0 -103.5 -39.5t-40.5 -107.5q0 -66 38.5 -103.5t105.5 -37.5t105.5 38.5t38.5 105.5zM320 384h-78v19
l18 2l-26 45q-6 10 -18 10h-16v-49q0 -5 5 -6l16 -2v-19h-78v19l16 2q5 1 5 5v139q0 4 -3 5t-10 1.5t-8 0.5v19h87q64 0 64 -54q0 -39 -38 -53q6 -2 16 -18l22 -38q2 -5 8 -6l18 -3v-19zM200 488h13q44 0 44 32q0 27 -37 27h-20v-59z" />
    <glyph glyph-name="macron" unicode="&#xaf;" horiz-adv-x="500" 
d="M401 616h-303v57h303v-57z" />
    <glyph glyph-name="degree" unicode="&#xb0;" horiz-adv-x="300" 
d="M151 609q51 0 51 57q0 55 -51 55q-53 0 -53 -59q0 -53 53 -53zM250 666q0 -47 -26.5 -73.5t-72.5 -26.5q-47 0 -74 25.5t-27 70.5q0 48 28.5 75t72.5 27t71.5 -25.5t27.5 -72.5z" />
    <glyph glyph-name="plusminus" unicode="&#xb1;" 
d="M471 0h-373v66h373v-66zM319 131h-69v157h-152v66h152v154h69v-154h152v-66h-152v-157z" />
    <glyph glyph-name="twosuperior" unicode="&#xb2;" horiz-adv-x="344" 
d="M320 350h-292v41l125 151q34 41 46 57.5t23.5 41t11.5 46.5q0 30 -17 45.5t-59 15.5q-36 0 -52 -14.5t-16 -51.5l-59 7q0 108 132 108q136 0 136 -105q0 -42 -20.5 -78t-62.5 -85l-111 -133h149q8 0 10 7l10 54h46v-107z" />
    <glyph glyph-name="threesuperior" unicode="&#xb3;" horiz-adv-x="346" 
d="M226 586v-3q85 -19 85 -109q0 -63 -41.5 -97.5t-109.5 -34.5q-93 0 -145 57l38 42q44 -46 106 -46q39 0 63.5 20t24.5 61q0 79 -92 79q-24 0 -45 -4v49l39 4q89 7 89 81q0 63 -76 63q-35 0 -51.5 -15t-16.5 -51l-60 7q0 108 132 108q136 0 136 -106q0 -80 -76 -105z" />
    <glyph glyph-name="acute" unicode="&#xb4;" horiz-adv-x="500" 
d="M353 708l-175 -139l-32 32l155 160z" />
    <glyph glyph-name="mu" unicode="&#xb5;" horiz-adv-x="629" 
d="M108 -176v687h67v-336q0 -69 20.5 -99.5t72.5 -30.5q92 0 180 103v363h67v-439q0 -20 13 -21l55 -7v-44h-124l-8 71l-3 1q-99 -84 -189 -84q-59 0 -86 35l-3 -2l5 -197h-67z" />
    <glyph glyph-name="paragraph" unicode="&#xb6;" horiz-adv-x="547" 
d="M522 -133h-150v722h-89v-722h-147v44l68 8q12 1 12 15v238q-95 9 -150.5 69.5t-55.5 158.5q0 126 77 185.5t198 59.5h237v-44l-67 -8q-11 -1 -13.5 -4.5t-2.5 -14.5v-640q0 -9 3 -11t13 -4l67 -8v-44z" />
    <glyph glyph-name="periodcentered" unicode="&#xb7;" horiz-adv-x="176" 
d="M146 302q0 -57 -58 -57t-58 57t58 57t58 -57z" />
    <glyph glyph-name="cedilla" unicode="&#xb8;" horiz-adv-x="500" 
d="M143 -224l6 46q15 -3 33 -3q75 0 75 55q0 46 -72 47l15 109l52 -8l-9 -66q32 -6 52 -26t20 -53q0 -42 -31 -73.5t-97 -31.5q-25 0 -44 4z" />
    <glyph glyph-name="onesuperior" unicode="&#xb9;" horiz-adv-x="247" 
d="M230 350h-205v38l61 4q7 1 8.5 3t1.5 10v319q0 11 -9 14l-62 11l5 38h130v-382q0 -8 1.5 -10t8.5 -3l60 -4v-38z" />
    <glyph glyph-name="ordmasculine" unicode="&#xba;" horiz-adv-x="385" 
d="M191 273q-81 0 -120 46.5t-39 126.5q0 78 41.5 124t123.5 46q80 0 118 -44.5t38 -120.5q0 -84 -40 -131t-122 -47zM193 317q99 0 99 129q0 124 -96 124q-104 0 -104 -124q0 -129 101 -129z" />
    <glyph glyph-name="guillemotright" unicode="&#xbb;" horiz-adv-x="424" 
d="M124 103h-66l73 141q6 10 1 19l-73 145h66l88 -153zM270 103h-66l73 141q6 10 1 19l-73 145h66l88 -153z" />
    <glyph glyph-name="onequarter" unicode="&#xbc;" horiz-adv-x="855" 
d="M280 281h-205v38l61 4q7 1 8.5 3t1.5 10v319q0 11 -9 14l-62 11l5 38h130v-382q0 -8 1.5 -10t8.5 -3l60 -4v-38zM276 -12h-64l356 736h63zM729 103v-103h-60v104h-196v49l178 282h79v-280h57v-52h-58zM669 155v210l-132 -210h132z" />
    <glyph glyph-name="onehalf" unicode="&#xbd;" horiz-adv-x="855" 
d="M284 281h-205v38l61 4q7 1 8.5 3t1.5 10v319q0 11 -9 14l-62 11l5 38h130v-382q0 -8 1.5 -10t8.5 -3l60 -4v-38zM245 -12h-64l356 736h63zM800 0h-292v41l125 151q34 41 46 57.5t23.5 41t11.5 46.5q0 30 -17 45.5t-59 15.5q-36 0 -52 -14.5t-16 -51.5l-59 7
q0 108 132 108q136 0 136 -105q0 -42 -20.5 -78t-62.5 -85l-111 -133h149q8 0 10 7l10 54h46v-107z" />
    <glyph glyph-name="threequarters" unicode="&#xbe;" horiz-adv-x="855" 
d="M245 517v-3q85 -19 85 -109q0 -63 -41.5 -97.5t-109.5 -34.5q-93 0 -145 57l38 42q44 -46 106 -46q39 0 63.5 20t24.5 61q0 79 -92 79q-24 0 -45 -4v49l39 4q89 7 89 81q0 63 -76 63q-35 0 -51.5 -15t-16.5 -51l-60 7q0 108 132 108q136 0 136 -106q0 -80 -76 -105z
M305 -12h-64l356 736h63zM760 103v-103h-60v104h-196v49l178 282h79v-280h57v-52h-58zM700 155v210l-132 -210h132z" />
    <glyph glyph-name="questiondown" unicode="&#xbf;" horiz-adv-x="457" 
d="M430 -60v-123q-76 -32 -168 -32q-102 0 -158 43t-56 145q0 188 214 227v127h67v-175q-31 -3 -54 -7t-54.5 -15.5t-52 -29t-35.5 -49t-15 -72.5q0 -77 38 -106.5t109 -29.5q33 0 56.5 4.5t34 10.5t11.5 13l12 66zM353 464q0 -57 -58 -57t-58 57t58 57t58 -57z" />
    <glyph glyph-name="Agrave" unicode="&#xc0;" horiz-adv-x="695" 
d="M685 0h-219v44l83 9l-61 180h-292l-60 -180l81 -9v-44h-207v44l43 11q19 5 24 19l221 650h92l226 -652q4 -12 23 -17l46 -11v-44zM469 292l-126 377l-127 -377h253zM417 765l-197 106l40 63l181 -131z" />
    <glyph glyph-name="Aacute" unicode="&#xc1;" horiz-adv-x="695" 
d="M685 0h-219v44l83 9l-61 180h-292l-60 -180l81 -9v-44h-207v44l43 11q19 5 24 19l221 650h92l226 -652q4 -12 23 -17l46 -11v-44zM469 292l-126 377l-127 -377h253zM470 872l-197 -106l-24 38l181 131z" />
    <glyph glyph-name="Acircumflex" unicode="&#xc2;" horiz-adv-x="695" 
d="M685 0h-219v44l83 9l-61 180h-292l-60 -180l81 -9v-44h-207v44l43 11q19 5 24 19l221 650h92l226 -652q4 -12 23 -17l46 -11v-44zM469 292l-126 377l-127 -377h253zM463 766l-119 84l-119 -84l-35 34l116 99h76l116 -99z" />
    <glyph glyph-name="Atilde" unicode="&#xc3;" horiz-adv-x="695" 
d="M685 0h-219v44l83 9l-61 180h-292l-60 -180l81 -9v-44h-207v44l43 11q19 5 24 19l221 650h92l226 -652q4 -12 23 -17l46 -11v-44zM469 292l-126 377l-127 -377h253zM292 880l134 -35q10 -3 16 3l39 39l36 -27l-23 -32q-33 -46 -62 -46q-16 0 -29 4l-137 36q-10 3 -16 -3
l-42 -41l-36 27l29 41q27 39 58 39q11 0 33 -5z" />
    <glyph glyph-name="Adieresis" unicode="&#xc4;" horiz-adv-x="695" 
d="M685 0h-219v44l83 9l-61 180h-292l-60 -180l81 -9v-44h-207v44l43 11q19 5 24 19l221 650h92l226 -652q4 -12 23 -17l46 -11v-44zM469 292l-126 377l-127 -377h253zM295 831q0 -22 -13.5 -35.5t-36.5 -13.5t-36.5 13.5t-13.5 35.5t13.5 35.5t36.5 13.5t36.5 -13.5
t13.5 -35.5zM494 831q0 -22 -13.5 -35.5t-36.5 -13.5t-36.5 13.5t-13.5 35.5t13.5 35.5t36.5 13.5t36.5 -13.5t13.5 -35.5z" />
    <glyph glyph-name="Aring" unicode="&#xc5;" horiz-adv-x="695" 
d="M431 797q0 -53 -41 -75l226 -650q4 -12 23 -17l46 -11v-44h-219v44l83 9l-61 180h-292l-60 -180l81 -9v-44h-207v44l43 11q19 5 24 19l220 647q-41 21 -41 74q0 41 25 64.5t63 23.5t62.5 -22.5t24.5 -63.5zM469 292l-126 377l-127 -377h253zM344 755q38 0 38 42
q0 41 -38 41q-40 0 -40 -43q0 -40 40 -40z" />
    <glyph glyph-name="AE" unicode="&#xc6;" horiz-adv-x="999" 
d="M954 0h-512v44l61 7q12 1 15 5t3 16v256h-230l-155 -275l71 -9v-44h-197v44l42 11q20 5 28 19l335 598l-76 7v45h593v-150l-51 3l-14 78q-2 13 -17 13h-262v-284h280v-56h-280v-272h284q14 0 16 11l16 87h50v-154zM521 387v281h-38l-159 -281h197z" />
    <glyph glyph-name="Ccedilla" unicode="&#xc7;" horiz-adv-x="684" 
d="M297 -224l6 46q15 -3 33 -3q75 0 75 55q0 46 -72 47l9 69q-150 13 -221.5 113.5t-71.5 264.5q0 165 91 267t263 102q139 0 218 -53v-146l-51 3l-17 94q-2 14 -13 18q-68 25 -142 25q-129 0 -204 -81.5t-75 -229.5q0 -155 72 -237.5t200 -82.5q103 0 156 24q11 5 13 17
l16 89h47v-137q-73 -50 -228 -52l-4 -32q32 -6 52 -26t20 -53q0 -42 -31 -73.5t-97 -31.5q-25 0 -44 4z" />
    <glyph glyph-name="Egrave" unicode="&#xc8;" horiz-adv-x="637" 
d="M582 0h-512v44l63 7q10 1 13 5t3 15v581q0 12 -3 15.5t-13 4.5l-63 7v45h490v-150l-51 3l-14 78q-3 13 -17 13h-262v-274h280v-56h-280v-282h284q14 0 16 11l16 87h50v-154zM395 765l-197 106l40 63l181 -131z" />
    <glyph glyph-name="Eacute" unicode="&#xc9;" horiz-adv-x="637" 
d="M582 0h-512v44l63 7q10 1 13 5t3 15v581q0 12 -3 15.5t-13 4.5l-63 7v45h490v-150l-51 3l-14 78q-3 13 -17 13h-262v-274h280v-56h-280v-282h284q14 0 16 11l16 87h50v-154zM448 872l-197 -106l-24 38l181 131z" />
    <glyph glyph-name="Ecircumflex" unicode="&#xca;" horiz-adv-x="637" 
d="M582 0h-512v44l63 7q10 1 13 5t3 15v581q0 12 -3 15.5t-13 4.5l-63 7v45h490v-150l-51 3l-14 78q-3 13 -17 13h-262v-274h280v-56h-280v-282h284q14 0 16 11l16 87h50v-154zM441 766l-119 84l-119 -84l-35 34l116 99h76l116 -99z" />
    <glyph glyph-name="Edieresis" unicode="&#xcb;" horiz-adv-x="637" 
d="M582 0h-512v44l63 7q10 1 13 5t3 15v581q0 12 -3 15.5t-13 4.5l-63 7v45h490v-150l-51 3l-14 78q-3 13 -17 13h-262v-274h280v-56h-280v-282h284q14 0 16 11l16 87h50v-154zM273 831q0 -22 -13.5 -35.5t-36.5 -13.5t-36.5 13.5t-13.5 35.5t13.5 35.5t36.5 13.5
t36.5 -13.5t13.5 -35.5zM472 831q0 -22 -13.5 -35.5t-36.5 -13.5t-36.5 13.5t-13.5 35.5t13.5 35.5t36.5 13.5t36.5 -13.5t13.5 -35.5z" />
    <glyph glyph-name="Igrave" unicode="&#xcc;" horiz-adv-x="387" 
d="M320 0h-249v44l73 7q10 1 13 5t3 15v582q0 12 -3 15.5t-13 4.5l-73 7v44h249v-44l-77 -8q-11 -1 -13.5 -4.5t-2.5 -14.5v-581q0 -12 2.5 -15.5t13.5 -4.5l77 -8v-44zM268 765l-197 106l40 63l181 -131z" />
    <glyph glyph-name="Iacute" unicode="&#xcd;" horiz-adv-x="387" 
d="M320 0h-249v44l73 7q10 1 13 5t3 15v582q0 12 -3 15.5t-13 4.5l-73 7v44h249v-44l-77 -8q-11 -1 -13.5 -4.5t-2.5 -14.5v-581q0 -12 2.5 -15.5t13.5 -4.5l77 -8v-44zM321 872l-197 -106l-24 38l181 131z" />
    <glyph glyph-name="Icircumflex" unicode="&#xce;" horiz-adv-x="387" 
d="M320 0h-249v44l73 7q10 1 13 5t3 15v582q0 12 -3 15.5t-13 4.5l-73 7v44h249v-44l-77 -8q-11 -1 -13.5 -4.5t-2.5 -14.5v-581q0 -12 2.5 -15.5t13.5 -4.5l77 -8v-44zM314 766l-119 84l-119 -84l-35 34l116 99h76l116 -99z" />
    <glyph glyph-name="Idieresis" unicode="&#xcf;" horiz-adv-x="387" 
d="M320 0h-249v44l73 7q10 1 13 5t3 15v582q0 12 -3 15.5t-13 4.5l-73 7v44h249v-44l-77 -8q-11 -1 -13.5 -4.5t-2.5 -14.5v-581q0 -12 2.5 -15.5t13.5 -4.5l77 -8v-44zM146 831q0 -22 -13.5 -35.5t-36.5 -13.5t-36.5 13.5t-13.5 35.5t13.5 35.5t36.5 13.5t36.5 -13.5
t13.5 -35.5zM345 831q0 -22 -13.5 -35.5t-36.5 -13.5t-36.5 13.5t-13.5 35.5t13.5 35.5t36.5 13.5t36.5 -13.5t13.5 -35.5z" />
    <glyph glyph-name="Eth" unicode="&#xd0;" horiz-adv-x="784" 
d="M353 0h-272v44l63 7q10 1 13 5t3 15v271h-96v56h96v254q0 12 -3 15.5t-13 4.5l-63 7v45h289q183 0 271 -91.5t88 -259.5q0 -173 -94 -273t-282 -100zM227 59h131q147 0 224 77.5t77 221.5q0 171 -74 239.5t-221 68.5h-137v-268h210v-56h-210v-283z" />
    <glyph glyph-name="Ntilde" unicode="&#xd1;" horiz-adv-x="828" 
d="M684 0h-84l-384 638v-566q0 -12 2.5 -15.5t13.5 -4.5l67 -8v-44h-229v44l63 7q10 1 13 5t3 15v582q0 11 -3 15t-13 5l-63 7v45h176l372 -632v560q0 11 -3 15t-13 5l-63 7v44h228v-44l-67 -8q-11 -1 -13.5 -4.5t-2.5 -14.5v-653zM355 880l134 -35q10 -3 16 3l39 39l36 -27
l-23 -32q-33 -46 -62 -46q-16 0 -29 4l-137 36q-10 3 -16 -3l-42 -41l-36 27l29 41q27 39 58 39q11 0 33 -5z" />
    <glyph glyph-name="Ograve" unicode="&#xd2;" horiz-adv-x="783" 
d="M388 -12q-165 0 -248 102t-83 273q0 167 90.5 270.5t254.5 103.5q160 0 243 -100t83 -259q0 -181 -87.5 -285.5t-252.5 -104.5zM392 47q123 0 195 82t72 239q0 148 -69.5 229t-189.5 81q-123 0 -198 -82.5t-75 -232.5q0 -151 71.5 -233.5t193.5 -82.5zM473 765l-197 106
l40 63l181 -131z" />
    <glyph glyph-name="Oacute" unicode="&#xd3;" horiz-adv-x="783" 
d="M388 -12q-165 0 -248 102t-83 273q0 167 90.5 270.5t254.5 103.5q160 0 243 -100t83 -259q0 -181 -87.5 -285.5t-252.5 -104.5zM392 47q123 0 195 82t72 239q0 148 -69.5 229t-189.5 81q-123 0 -198 -82.5t-75 -232.5q0 -151 71.5 -233.5t193.5 -82.5zM526 872l-197 -106
l-24 38l181 131z" />
    <glyph glyph-name="Ocircumflex" unicode="&#xd4;" horiz-adv-x="783" 
d="M388 -12q-165 0 -248 102t-83 273q0 167 90.5 270.5t254.5 103.5q160 0 243 -100t83 -259q0 -181 -87.5 -285.5t-252.5 -104.5zM392 47q123 0 195 82t72 239q0 148 -69.5 229t-189.5 81q-123 0 -198 -82.5t-75 -232.5q0 -151 71.5 -233.5t193.5 -82.5zM519 766l-119 84
l-119 -84l-35 34l116 99h76l116 -99z" />
    <glyph glyph-name="Otilde" unicode="&#xd5;" horiz-adv-x="783" 
d="M388 -12q-165 0 -248 102t-83 273q0 167 90.5 270.5t254.5 103.5q160 0 243 -100t83 -259q0 -181 -87.5 -285.5t-252.5 -104.5zM392 47q123 0 195 82t72 239q0 148 -69.5 229t-189.5 81q-123 0 -198 -82.5t-75 -232.5q0 -151 71.5 -233.5t193.5 -82.5zM348 880l134 -35
q10 -3 16 3l39 39l36 -27l-23 -32q-33 -46 -62 -46q-16 0 -29 4l-137 36q-10 3 -16 -3l-42 -41l-36 27l29 41q27 39 58 39q11 0 33 -5z" />
    <glyph glyph-name="Odieresis" unicode="&#xd6;" horiz-adv-x="783" 
d="M388 -12q-165 0 -248 102t-83 273q0 167 90.5 270.5t254.5 103.5q160 0 243 -100t83 -259q0 -181 -87.5 -285.5t-252.5 -104.5zM392 47q123 0 195 82t72 239q0 148 -69.5 229t-189.5 81q-123 0 -198 -82.5t-75 -232.5q0 -151 71.5 -233.5t193.5 -82.5zM351 831
q0 -22 -13.5 -35.5t-36.5 -13.5t-36.5 13.5t-13.5 35.5t13.5 35.5t36.5 13.5t36.5 -13.5t13.5 -35.5zM550 831q0 -22 -13.5 -35.5t-36.5 -13.5t-36.5 13.5t-13.5 35.5t13.5 35.5t36.5 13.5t36.5 -13.5t13.5 -35.5z" />
    <glyph glyph-name="multiply" unicode="&#xd7;" 
d="M392 163l-108 109l-107 -109l-48 48l108 109l-108 110l48 48l107 -109l108 109l48 -48l-108 -110l108 -109z" />
    <glyph glyph-name="Oslash" unicode="&#xd8;" horiz-adv-x="783" 
d="M240 -78h-68l44 106q-159 88 -159 340q0 164 90.5 266.5t254.5 102.5q57 0 105 -14l28 66h67l-37 -89q80 -42 120.5 -127t40.5 -195q0 -181 -86.5 -285.5t-251.5 -104.5q-57 0 -114 15zM392 47q123 0 194 82t71 239q0 196 -117 272l-242 -579q41 -14 94 -14zM127 367
q0 -197 115 -277l241 576q-38 12 -83 12q-123 0 -198 -82t-75 -229z" />
    <glyph glyph-name="Ugrave" unicode="&#xd9;" horiz-adv-x="789" 
d="M582 238v415q0 12 -3 15.5t-13 4.5l-63 7v44h229v-44l-67 -8q-11 -1 -13.5 -4.5t-2.5 -14.5v-418q0 -247 -260 -247q-131 0 -190 62t-59 186v417q0 12 -3 15.5t-13 4.5l-63 7v44h229v-44l-67 -8q-11 -1 -13.5 -4.5t-2.5 -14.5v-413q0 -103 47.5 -148t140.5 -45
q95 0 141 43.5t46 147.5zM472 765l-197 106l40 63l181 -131z" />
    <glyph glyph-name="Uacute" unicode="&#xda;" horiz-adv-x="789" 
d="M582 238v415q0 12 -3 15.5t-13 4.5l-63 7v44h229v-44l-67 -8q-11 -1 -13.5 -4.5t-2.5 -14.5v-418q0 -247 -260 -247q-131 0 -190 62t-59 186v417q0 12 -3 15.5t-13 4.5l-63 7v44h229v-44l-67 -8q-11 -1 -13.5 -4.5t-2.5 -14.5v-413q0 -103 47.5 -148t140.5 -45
q95 0 141 43.5t46 147.5zM525 872l-197 -106l-24 38l181 131z" />
    <glyph glyph-name="Ucircumflex" unicode="&#xdb;" horiz-adv-x="789" 
d="M582 238v415q0 12 -3 15.5t-13 4.5l-63 7v44h229v-44l-67 -8q-11 -1 -13.5 -4.5t-2.5 -14.5v-418q0 -247 -260 -247q-131 0 -190 62t-59 186v417q0 12 -3 15.5t-13 4.5l-63 7v44h229v-44l-67 -8q-11 -1 -13.5 -4.5t-2.5 -14.5v-413q0 -103 47.5 -148t140.5 -45
q95 0 141 43.5t46 147.5zM518 766l-119 84l-119 -84l-35 34l116 99h76l116 -99z" />
    <glyph glyph-name="Udieresis" unicode="&#xdc;" horiz-adv-x="789" 
d="M582 238v415q0 12 -3 15.5t-13 4.5l-63 7v44h229v-44l-67 -8q-11 -1 -13.5 -4.5t-2.5 -14.5v-418q0 -247 -260 -247q-131 0 -190 62t-59 186v417q0 12 -3 15.5t-13 4.5l-63 7v44h229v-44l-67 -8q-11 -1 -13.5 -4.5t-2.5 -14.5v-413q0 -103 47.5 -148t140.5 -45
q95 0 141 43.5t46 147.5zM350 831q0 -22 -13.5 -35.5t-36.5 -13.5t-36.5 13.5t-13.5 35.5t13.5 35.5t36.5 13.5t36.5 -13.5t13.5 -35.5zM549 831q0 -22 -13.5 -35.5t-36.5 -13.5t-36.5 13.5t-13.5 35.5t13.5 35.5t36.5 13.5t36.5 -13.5t13.5 -35.5z" />
    <glyph glyph-name="Yacute" unicode="&#xdd;" horiz-adv-x="596" 
d="M450 0h-289v44l93 7q10 1 13 4.5t3 15.5v213l-201 368q-7 13 -24 17l-45 11l10 44h198v-44l-74 -9l171 -325l167 325l-72 9l10 44h186v-44l-42 -11q-18 -5 -25 -19l-192 -363v-215q0 -12 2.5 -15.5t13.5 -4.5l97 -8v-44zM431 872l-197 -106l-24 38l181 131z" />
    <glyph glyph-name="Thorn" unicode="&#xde;" horiz-adv-x="663" 
d="M374 0h-304v44l63 7q10 1 13 5t3 15v581q0 12 -3 15.5t-13 4.5l-63 7v45h238v-44l-77 -8q-11 -1 -13.5 -4.5t-2.5 -15.5v-49h152q241 0 241 -211q0 -227 -274 -227h-119v-93q0 -12 2.5 -15.5t13.5 -4.5l143 -8v-44zM215 224h117q48 0 81.5 6t64 23t45.5 51t15 86
q0 82 -45.5 118.5t-145.5 36.5h-132v-321z" />
    <glyph glyph-name="germandbls" unicode="&#xdf;" horiz-adv-x="640" 
d="M180 0h-150v45l67 6q10 1 13 4.5t3 15.5v486q0 210 219 210q104 0 154.5 -46.5t50.5 -130.5q0 -124 -110 -171v-3q76 -17 114.5 -65t38.5 -142q0 -99 -54.5 -158.5t-147.5 -59.5q-88 0 -151 36l22 52q69 -32 124 -32q65 0 101 40t36 122q0 87 -46 130.5t-128 43.5
q-35 0 -62 -3v56l66 7q62 6 95.5 46.5t33.5 96.5q0 124 -138 124q-80 0 -115.5 -35t-35.5 -125v-550z" />
    <glyph glyph-name="agrave" unicode="&#xe0;" horiz-adv-x="534" 
d="M509 0h-122l-9 67l-3 1q-87 -80 -185 -80q-44 0 -74 13.5t-43 36t-17.5 42t-4.5 41.5q0 73 44.5 108.5t135.5 44.5l143 13v56q0 67 -22.5 94t-91.5 27q-26 0 -38.5 -0.5t-31 -4.5t-27 -12.5t-15.5 -24t-7 -39.5l-64 8q0 130 184 130q103 0 141.5 -37t38.5 -139v-274
q0 -12 2.5 -15.5t13.5 -4.5l52 -7v-44zM374 138v96l-131 -12q-70 -7 -96 -28t-26 -65q0 -85 82 -85q49 0 95 27t76 67zM356 601l-32 -32l-175 139l52 53z" />
    <glyph glyph-name="aacute" unicode="&#xe1;" horiz-adv-x="534" 
d="M509 0h-122l-9 67l-3 1q-87 -80 -185 -80q-44 0 -74 13.5t-43 36t-17.5 42t-4.5 41.5q0 73 44.5 108.5t135.5 44.5l143 13v56q0 67 -22.5 94t-91.5 27q-26 0 -38.5 -0.5t-31 -4.5t-27 -12.5t-15.5 -24t-7 -39.5l-64 8q0 130 184 130q103 0 141.5 -37t38.5 -139v-274
q0 -12 2.5 -15.5t13.5 -4.5l52 -7v-44zM374 138v96l-131 -12q-70 -7 -96 -28t-26 -65q0 -85 82 -85q49 0 95 27t76 67zM375 708l-175 -139l-32 32l155 160z" />
    <glyph glyph-name="acircumflex" unicode="&#xe2;" horiz-adv-x="534" 
d="M509 0h-122l-9 67l-3 1q-87 -80 -185 -80q-44 0 -74 13.5t-43 36t-17.5 42t-4.5 41.5q0 73 44.5 108.5t135.5 44.5l143 13v56q0 67 -22.5 94t-91.5 27q-26 0 -38.5 -0.5t-31 -4.5t-27 -12.5t-15.5 -24t-7 -39.5l-64 8q0 130 184 130q103 0 141.5 -37t38.5 -139v-274
q0 -12 2.5 -15.5t13.5 -4.5l52 -7v-44zM374 138v96l-131 -12q-70 -7 -96 -28t-26 -65q0 -85 82 -85q49 0 95 27t76 67zM423 609l-38 -33l-124 104l-124 -104l-38 33l124 120h76z" />
    <glyph glyph-name="atilde" unicode="&#xe3;" horiz-adv-x="534" 
d="M509 0h-122l-9 67l-3 1q-87 -80 -185 -80q-44 0 -74 13.5t-43 36t-17.5 42t-4.5 41.5q0 73 44.5 108.5t135.5 44.5l143 13v56q0 67 -22.5 94t-91.5 27q-26 0 -38.5 -0.5t-31 -4.5t-27 -12.5t-15.5 -24t-7 -39.5l-64 8q0 130 184 130q103 0 141.5 -37t38.5 -139v-274
q0 -12 2.5 -15.5t13.5 -4.5l52 -7v-44zM374 138v96l-131 -12q-70 -7 -96 -28t-26 -65q0 -85 82 -85q49 0 95 27t76 67zM434 669l-23 -32q-33 -46 -62 -46q-16 0 -29 4q-28 7 -77 20t-60 16q-10 3 -16 -3l-42 -41l-36 27l29 41q27 39 58 39q11 0 33 -5q90 -24 134 -35
q10 -3 16 3l39 39z" />
    <glyph glyph-name="adieresis" unicode="&#xe4;" horiz-adv-x="534" 
d="M509 0h-122l-9 67l-3 1q-87 -80 -185 -80q-44 0 -74 13.5t-43 36t-17.5 42t-4.5 41.5q0 73 44.5 108.5t135.5 44.5l143 13v56q0 67 -22.5 94t-91.5 27q-26 0 -38.5 -0.5t-31 -4.5t-27 -12.5t-15.5 -24t-7 -39.5l-64 8q0 130 184 130q103 0 141.5 -37t38.5 -139v-274
q0 -12 2.5 -15.5t13.5 -4.5l52 -7v-44zM374 138v96l-131 -12q-70 -7 -96 -28t-26 -65q0 -85 82 -85q49 0 95 27t76 67zM212 658q0 -22 -13.5 -35.5t-36.5 -13.5t-36.5 13.5t-13.5 35.5t13.5 35.5t36.5 13.5t36.5 -13.5t13.5 -35.5zM411 658q0 -22 -13.5 -35.5t-36.5 -13.5
t-36.5 13.5t-13.5 35.5t13.5 35.5t36.5 13.5t36.5 -13.5t13.5 -35.5z" />
    <glyph glyph-name="aring" unicode="&#xe5;" horiz-adv-x="534" 
d="M509 0h-122l-9 67l-3 1q-87 -80 -185 -80q-44 0 -74 13.5t-43 36t-17.5 42t-4.5 41.5q0 73 44.5 108.5t135.5 44.5l143 13v56q0 67 -22.5 94t-91.5 27q-26 0 -38.5 -0.5t-31 -4.5t-27 -12.5t-15.5 -24t-7 -39.5l-64 8q0 130 184 130q103 0 141.5 -37t38.5 -139v-274
q0 -12 2.5 -15.5t13.5 -4.5l52 -7v-44zM374 138v96l-131 -12q-70 -7 -96 -28t-26 -65q0 -85 82 -85q49 0 95 27t76 67zM343 644q0 -40 -24 -62t-66 -22q-41 0 -65 21.5t-24 60.5q0 42 25 64t64 22q40 0 65 -21t25 -63zM253 605q40 0 40 39q0 38 -40 38t-40 -40q0 -37 40 -37
z" />
    <glyph glyph-name="ae" unicode="&#xe6;" horiz-adv-x="833" 
d="M752 86l25 -56q-73 -42 -172 -42q-134 0 -190 90q-58 -47 -110.5 -68.5t-115.5 -21.5q-43 0 -73 13.5t-43 36t-17.5 42t-4.5 40.5q0 74 44.5 109.5t135.5 44.5l143 13v56q0 67 -22.5 94t-91.5 27q-26 0 -38.5 -0.5t-31 -4.5t-27 -12.5t-15.5 -24t-7 -39.5l-64 8
q0 130 183 130q71 0 110 -18.5t55 -62.5q61 81 167 81q94 0 147.5 -56.5t53.5 -179.5q0 -13 -2 -43h-350q5 -193 169 -193q45 0 74.5 8t67.5 29zM374 233l-131 -11q-70 -7 -96 -28.5t-26 -66.5q0 -83 84 -83q48 0 102.5 27t82.5 63q-13 43 -16 99zM441 298h283
q-3 164 -131 164q-63 0 -104.5 -38.5t-47.5 -125.5z" />
    <glyph glyph-name="ccedilla" unicode="&#xe7;" horiz-adv-x="476" 
d="M185 -224l6 46q15 -3 33 -3q75 0 75 55q0 46 -72 47l9 70q-97 13 -144 81.5t-47 177.5q0 137 69.5 204t187.5 67q78 0 142 -27v-123l-51 3l-12 66q-2 10 -11 13q-28 10 -76 10q-81 0 -130 -50.5t-49 -159.5q0 -105 46.5 -155t129.5 -50q74 0 129 35l26 -56
q-58 -37 -157 -39l-4 -32q32 -6 52 -26t20 -53q0 -42 -31 -73.5t-97 -31.5q-25 0 -44 4z" />
    <glyph glyph-name="egrave" unicode="&#xe8;" horiz-adv-x="506" 
d="M425 86l25 -56q-73 -42 -172 -42q-233 0 -233 270q0 129 61.5 196t158.5 67q94 0 147.5 -56.5t53.5 -179.5q0 -13 -2 -43h-349q5 -193 168 -193q45 0 74.5 8t67.5 29zM117 296h280q-1 87 -37 126.5t-94 39.5q-62 0 -102.5 -39.5t-46.5 -126.5zM359 601l-32 -32l-175 139
l52 53z" />
    <glyph glyph-name="eacute" unicode="&#xe9;" horiz-adv-x="506" 
d="M425 86l25 -56q-73 -42 -172 -42q-233 0 -233 270q0 129 61.5 196t158.5 67q94 0 147.5 -56.5t53.5 -179.5q0 -13 -2 -43h-349q5 -193 168 -193q45 0 74.5 8t67.5 29zM117 296h280q-1 87 -37 126.5t-94 39.5q-62 0 -102.5 -39.5t-46.5 -126.5zM378 708l-175 -139l-32 32
l155 160z" />
    <glyph glyph-name="ecircumflex" unicode="&#xea;" horiz-adv-x="506" 
d="M425 86l25 -56q-73 -42 -172 -42q-233 0 -233 270q0 129 61.5 196t158.5 67q94 0 147.5 -56.5t53.5 -179.5q0 -13 -2 -43h-349q5 -193 168 -193q45 0 74.5 8t67.5 29zM117 296h280q-1 87 -37 126.5t-94 39.5q-62 0 -102.5 -39.5t-46.5 -126.5zM426 609l-38 -33l-124 104
l-124 -104l-38 33l124 120h76z" />
    <glyph glyph-name="edieresis" unicode="&#xeb;" horiz-adv-x="506" 
d="M425 86l25 -56q-73 -42 -172 -42q-233 0 -233 270q0 129 61.5 196t158.5 67q94 0 147.5 -56.5t53.5 -179.5q0 -13 -2 -43h-349q5 -193 168 -193q45 0 74.5 8t67.5 29zM117 296h280q-1 87 -37 126.5t-94 39.5q-62 0 -102.5 -39.5t-46.5 -126.5zM215 658q0 -22 -13.5 -35.5
t-36.5 -13.5t-36.5 13.5t-13.5 35.5t13.5 35.5t36.5 13.5t36.5 -13.5t13.5 -35.5zM414 658q0 -22 -13.5 -35.5t-36.5 -13.5t-36.5 13.5t-13.5 35.5t13.5 35.5t36.5 13.5t36.5 -13.5t13.5 -35.5z" />
    <glyph glyph-name="igrave" unicode="&#xec;" horiz-adv-x="289" 
d="M269 0h-241v45l72 6q10 1 13 5t3 15v358q0 17 -13 21l-58 19l8 42h130v-440q0 -12 2.5 -15.5t13.5 -4.5l70 -7v-44zM225 601l-32 -32l-175 139l52 53z" />
    <glyph glyph-name="iacute" unicode="&#xed;" horiz-adv-x="289" 
d="M269 0h-241v45l72 6q10 1 13 5t3 15v358q0 17 -13 21l-58 19l8 42h130v-440q0 -12 2.5 -15.5t13.5 -4.5l70 -7v-44zM244 708l-175 -139l-32 32l155 160z" />
    <glyph glyph-name="icircumflex" unicode="&#xee;" horiz-adv-x="289" 
d="M272 609l-38 -33l-104 104l-104 -104l-38 33l104 120h76zM269 0h-241v45l72 6q10 1 13 5t3 15v358q0 17 -13 21l-58 19l8 42h130v-440q0 -12 2.5 -15.5t13.5 -4.5l70 -7v-44z" />
    <glyph glyph-name="idieresis" unicode="&#xef;" horiz-adv-x="289" 
d="M94 658q0 -22 -13.5 -35.5t-36.5 -13.5t-36.5 13.5t-13.5 35.5t13.5 35.5t36.5 13.5t36.5 -13.5t13.5 -35.5zM263 658q0 -22 -13.5 -35.5t-36.5 -13.5t-36.5 13.5t-13.5 35.5t13.5 35.5t36.5 13.5t36.5 -13.5t13.5 -35.5zM269 0h-241v45l72 6q10 1 13 5t3 15v358
q0 17 -13 21l-58 19l8 42h130v-440q0 -12 2.5 -15.5t13.5 -4.5l70 -7v-44z" />
    <glyph glyph-name="eth" unicode="&#xf0;" horiz-adv-x="550" 
d="M221 566l-28 47l91 49q-60 39 -146 49l22 51q110 -12 185 -67l102 55l28 -48l-85 -46q114 -120 114 -343q0 -46 -5 -87t-20.5 -86.5t-39.5 -77.5t-66.5 -53t-98.5 -21q-229 0 -229 265q0 107 61 177.5t170 70.5q36 0 77 -12.5t68 -33.5l2 1q-28 107 -92 169zM114 252
q0 -41 7.5 -76t24.5 -66t49.5 -49t78.5 -18q48 0 82 23t51.5 63t25 84t7.5 96q0 34 -3 67q-20 27 -64 46.5t-90 19.5q-83 0 -126 -51.5t-43 -138.5z" />
    <glyph glyph-name="ntilde" unicode="&#xf1;" horiz-adv-x="632" 
d="M602 0h-211v45l52 6q11 2 13.5 5t2.5 14v240q0 78 -23.5 114t-78.5 36q-49 0 -97 -24t-77 -51v-314q0 -12 2.5 -15.5t13.5 -4.5l60 -7v-44h-211v45l52 6q10 1 13 5t3 15v358q0 17 -13 21l-58 19l8 42h113l8 -62l3 -1q99 73 194 73q84 0 119.5 -48.5t35.5 -141.5v-260
q0 -12 2.5 -15.5t13.5 -4.5l60 -7v-44zM481 669l-23 -32q-33 -46 -62 -46q-16 0 -29 4q-28 7 -77 20t-60 16q-10 3 -16 -3l-42 -41l-36 27l29 41q27 39 58 39q11 0 33 -5q90 -24 134 -35q10 -3 16 3l39 39z" />
    <glyph glyph-name="ograve" unicode="&#xf2;" horiz-adv-x="563" 
d="M279 -12q-119 0 -176.5 72.5t-57.5 196.5q0 121 61.5 192.5t182.5 71.5q118 0 173.5 -69t55.5 -188q0 -130 -59.5 -203t-179.5 -73zM282 43q167 0 167 214q0 205 -162 205q-84 0 -128.5 -52t-44.5 -154q0 -103 42.5 -158t125.5 -55zM384 601l-32 -32l-175 139l52 53z" />
    <glyph glyph-name="oacute" unicode="&#xf3;" horiz-adv-x="563" 
d="M279 -12q-119 0 -176.5 72.5t-57.5 196.5q0 121 61.5 192.5t182.5 71.5q118 0 173.5 -69t55.5 -188q0 -130 -59.5 -203t-179.5 -73zM282 43q167 0 167 214q0 205 -162 205q-84 0 -128.5 -52t-44.5 -154q0 -103 42.5 -158t125.5 -55zM403 708l-175 -139l-32 32l155 160z
" />
    <glyph glyph-name="ocircumflex" unicode="&#xf4;" horiz-adv-x="563" 
d="M279 -12q-119 0 -176.5 72.5t-57.5 196.5q0 121 61.5 192.5t182.5 71.5q118 0 173.5 -69t55.5 -188q0 -130 -59.5 -203t-179.5 -73zM282 43q167 0 167 214q0 205 -162 205q-84 0 -128.5 -52t-44.5 -154q0 -103 42.5 -158t125.5 -55zM451 609l-38 -33l-124 104l-124 -104
l-38 33l124 120h76z" />
    <glyph glyph-name="otilde" unicode="&#xf5;" horiz-adv-x="563" 
d="M279 -12q-119 0 -176.5 72.5t-57.5 196.5q0 121 61.5 192.5t182.5 71.5q118 0 173.5 -69t55.5 -188q0 -130 -59.5 -203t-179.5 -73zM282 43q167 0 167 214q0 205 -162 205q-84 0 -128.5 -52t-44.5 -154q0 -103 42.5 -158t125.5 -55zM462 669l-23 -32q-33 -46 -62 -46
q-16 0 -29 4q-28 7 -77 20t-60 16q-10 3 -16 -3l-42 -41l-36 27l29 41q27 39 58 39q11 0 33 -5q90 -24 134 -35q10 -3 16 3l39 39z" />
    <glyph glyph-name="odieresis" unicode="&#xf6;" horiz-adv-x="563" 
d="M279 -12q-119 0 -176.5 72.5t-57.5 196.5q0 121 61.5 192.5t182.5 71.5q118 0 173.5 -69t55.5 -188q0 -130 -59.5 -203t-179.5 -73zM282 43q167 0 167 214q0 205 -162 205q-84 0 -128.5 -52t-44.5 -154q0 -103 42.5 -158t125.5 -55zM240 658q0 -22 -13.5 -35.5
t-36.5 -13.5t-36.5 13.5t-13.5 35.5t13.5 35.5t36.5 13.5t36.5 -13.5t13.5 -35.5zM439 658q0 -22 -13.5 -35.5t-36.5 -13.5t-36.5 13.5t-13.5 35.5t13.5 35.5t36.5 13.5t36.5 -13.5t13.5 -35.5z" />
    <glyph glyph-name="divide" unicode="&#xf7;" 
d="M336 171q0 -57 -58 -57t-58 57t58 57t58 -57zM471 288h-373v66h373v-66zM336 473q0 -57 -58 -57t-58 57t58 57t58 -57z" />
    <glyph glyph-name="oslash" unicode="&#xf8;" horiz-adv-x="563" 
d="M166 -92h-67l49 112q-103 63 -103 237q0 121 61.5 192.5t182.5 71.5q44 0 77 -10l33 73h66l-43 -97q96 -62 96 -223q0 -130 -59.5 -203t-179.5 -73q-34 0 -74 9zM114 256q0 -124 60 -177l167 376q-28 7 -54 7q-84 0 -128.5 -52t-44.5 -154zM282 43q167 0 167 214
q0 119 -54 169l-166 -376q22 -7 53 -7z" />
    <glyph glyph-name="ugrave" unicode="&#xf9;" horiz-adv-x="629" 
d="M591 0h-123l-9 73l-2 1q-94 -86 -197 -86q-80 0 -112 46.5t-32 137.5v258q0 13 -2.5 17.5t-13.5 6.5l-53 15l7 42h129v-321q0 -77 19 -111t71 -34q95 0 183 103v283q0 13 -2.5 17t-13.5 6l-54 15l7 42h130v-439q0 -20 13 -21l55 -7v-44zM402 601l-32 -32l-175 139l52 53z
" />
    <glyph glyph-name="uacute" unicode="&#xfa;" horiz-adv-x="629" 
d="M591 0h-123l-9 73l-2 1q-94 -86 -197 -86q-80 0 -112 46.5t-32 137.5v258q0 13 -2.5 17.5t-13.5 6.5l-53 15l7 42h129v-321q0 -77 19 -111t71 -34q95 0 183 103v283q0 13 -2.5 17t-13.5 6l-54 15l7 42h130v-439q0 -20 13 -21l55 -7v-44zM438 708l-175 -139l-32 32
l155 160z" />
    <glyph glyph-name="ucircumflex" unicode="&#xfb;" horiz-adv-x="629" 
d="M591 0h-123l-9 73l-2 1q-94 -86 -197 -86q-80 0 -112 46.5t-32 137.5v258q0 13 -2.5 17.5t-13.5 6.5l-53 15l7 42h129v-321q0 -77 19 -111t71 -34q95 0 183 103v283q0 13 -2.5 17t-13.5 6l-54 15l7 42h130v-439q0 -20 13 -21l55 -7v-44zM469 609l-38 -33l-124 104
l-124 -104l-38 33l124 120h76z" />
    <glyph glyph-name="udieresis" unicode="&#xfc;" horiz-adv-x="629" 
d="M591 0h-123l-9 73l-2 1q-94 -86 -197 -86q-80 0 -112 46.5t-32 137.5v258q0 13 -2.5 17.5t-13.5 6.5l-53 15l7 42h129v-321q0 -77 19 -111t71 -34q95 0 183 103v283q0 13 -2.5 17t-13.5 6l-54 15l7 42h130v-439q0 -20 13 -21l55 -7v-44zM258 658q0 -22 -13.5 -35.5
t-36.5 -13.5t-36.5 13.5t-13.5 35.5t13.5 35.5t36.5 13.5t36.5 -13.5t13.5 -35.5zM457 658q0 -22 -13.5 -35.5t-36.5 -13.5t-36.5 13.5t-13.5 35.5t13.5 35.5t36.5 13.5t36.5 -13.5t13.5 -35.5z" />
    <glyph glyph-name="yacute" unicode="&#xfd;" horiz-adv-x="567" 
d="M339 -212h-246v45l70 8q8 1 12 5t9 16l64 148l-176 430q-5 13 -21 17l-41 10l10 44h190v-44l-68 -8l143 -369l149 369l-69 8l10 44h182v-44l-34 -5q-19 -3 -25 -17l-253 -604l94 -9v-44zM430 708l-175 -139l-32 32l155 160z" />
    <glyph glyph-name="thorn" unicode="&#xfe;" horiz-adv-x="578" 
d="M274 -212h-231v45l42 6q10 1 13 5t3 15v814q0 17 -13 21l-58 19l8 42h130v-304q32 22 54 34.5t56 24t68 11.5q88 0 137.5 -60t49.5 -185q0 -257 -170 -285q-20 -3 -40 -3q-93 0 -153 59l-2 -1v-187q0 -12 2.5 -15.5t13.5 -4.5l90 -7v-44zM168 389v-269q30 -32 70 -53
t79 -21q80 0 115 57t35 165q0 193 -132 193q-81 0 -167 -72z" />
    <glyph glyph-name="ydieresis" unicode="&#xff;" horiz-adv-x="567" 
d="M339 -212h-246v45l70 8q8 1 12 5t9 16l64 148l-176 430q-5 13 -21 17l-41 10l10 44h190v-44l-68 -8l143 -369l149 369l-69 8l10 44h182v-44l-34 -5q-19 -3 -25 -17l-253 -604l94 -9v-44zM234 658q0 -22 -13.5 -35.5t-36.5 -13.5t-36.5 13.5t-13.5 35.5t13.5 35.5
t36.5 13.5t36.5 -13.5t13.5 -35.5zM433 658q0 -22 -13.5 -35.5t-36.5 -13.5t-36.5 13.5t-13.5 35.5t13.5 35.5t36.5 13.5t36.5 -13.5t13.5 -35.5z" />
    <glyph glyph-name="Amacron" unicode="&#x100;" horiz-adv-x="695" 
d="M685 0h-219v44l83 9l-61 180h-292l-60 -180l81 -9v-44h-207v44l43 11q19 5 24 19l221 650h92l226 -652q4 -12 23 -17l46 -11v-44zM469 292l-126 377l-127 -377h253zM496 797h-303v57h303v-57z" />
    <glyph glyph-name="amacron" unicode="&#x101;" horiz-adv-x="534" 
d="M509 0h-122l-9 67l-3 1q-87 -80 -185 -80q-44 0 -74 13.5t-43 36t-17.5 42t-4.5 41.5q0 73 44.5 108.5t135.5 44.5l143 13v56q0 67 -22.5 94t-91.5 27q-26 0 -38.5 -0.5t-31 -4.5t-27 -12.5t-15.5 -24t-7 -39.5l-64 8q0 130 184 130q103 0 141.5 -37t38.5 -139v-274
q0 -12 2.5 -15.5t13.5 -4.5l52 -7v-44zM374 138v96l-131 -12q-70 -7 -96 -28t-26 -65q0 -85 82 -85q49 0 95 27t76 67zM413 616h-303v57h303v-57z" />
    <glyph glyph-name="Abreve" unicode="&#x102;" horiz-adv-x="695" 
d="M685 0h-219v44l83 9l-61 180h-292l-60 -180l81 -9v-44h-207v44l43 11q19 5 24 19l221 650h92l226 -652q4 -12 23 -17l46 -11v-44zM469 292l-126 377l-127 -377h253zM443 913l51 -19q-32 -112 -150 -112q-122 0 -150 112l55 19q14 -38 35.5 -57t61.5 -19t61 19.5t36 56.5z
" />
    <glyph glyph-name="abreve" unicode="&#x103;" horiz-adv-x="534" 
d="M509 0h-122l-9 67l-3 1q-87 -80 -185 -80q-44 0 -74 13.5t-43 36t-17.5 42t-4.5 41.5q0 73 44.5 108.5t135.5 44.5l143 13v56q0 67 -22.5 94t-91.5 27q-26 0 -38.5 -0.5t-31 -4.5t-27 -12.5t-15.5 -24t-7 -39.5l-64 8q0 130 184 130q103 0 141.5 -37t38.5 -139v-274
q0 -12 2.5 -15.5t13.5 -4.5l52 -7v-44zM374 138v96l-131 -12q-70 -7 -96 -28t-26 -65q0 -85 82 -85q49 0 95 27t76 67zM366 724l50 -19q-18 -65 -54.5 -98.5t-102.5 -33.5t-102 34t-51 98l54 19q15 -48 37 -72t64 -24t65 24t40 72z" />
    <glyph glyph-name="Aogonek" unicode="&#x104;" horiz-adv-x="695" 
d="M620 -143l18 -49q-42 -20 -83 -20q-39 0 -61.5 18.5t-22.5 56.5q0 65 85 137h-90v44l83 9l-61 180h-292l-60 -180l81 -9v-44h-207v44l43 11q19 5 24 19l221 650h92l226 -652q4 -12 23 -17l46 -11v-44h-57q-87 -70 -87 -122q0 -33 32 -33q20 0 47 12zM469 292l-126 377
l-127 -377h253z" />
    <glyph glyph-name="aogonek" unicode="&#x105;" horiz-adv-x="534" 
d="M509 0q-106 -65 -106 -122q0 -33 32 -33q20 0 47 12l18 -49q-42 -20 -83 -20q-39 0 -61.5 18.5t-22.5 56.5q0 73 97 137h-43l-9 67l-3 1q-87 -80 -185 -80q-44 0 -74 13.5t-43 36t-17.5 42t-4.5 41.5q0 73 44.5 108.5t135.5 44.5l143 13v56q0 67 -22.5 94t-91.5 27
q-26 0 -38.5 -0.5t-31 -4.5t-27 -12.5t-15.5 -24t-7 -39.5l-64 8q0 130 184 130q103 0 141.5 -37t38.5 -139v-274q0 -12 2.5 -15.5t13.5 -4.5l52 -7v-44zM374 138v96l-131 -12q-70 -7 -96 -28t-26 -65q0 -85 82 -85q49 0 95 27t76 67z" />
    <glyph glyph-name="Cacute" unicode="&#x106;" horiz-adv-x="684" 
d="M629 177v-137q-75 -52 -236 -52q-174 0 -256 102t-82 278q0 165 91 267t263 102q139 0 218 -53v-146l-51 3l-17 94q-2 14 -13 18q-68 25 -142 25q-129 0 -204 -81.5t-75 -229.5q0 -155 72 -237.5t200 -82.5q103 0 156 24q11 5 13 17l16 89h47zM525 872l-197 -106l-24 38
l181 131z" />
    <glyph glyph-name="cacute" unicode="&#x107;" horiz-adv-x="476" 
d="M420 83l26 -56q-59 -39 -164 -39q-120 0 -178.5 70.5t-58.5 191.5q0 137 69.5 204t187.5 67q78 0 142 -27v-123l-51 3l-12 66q-2 10 -11 13q-28 10 -76 10q-81 0 -130 -50.5t-49 -159.5q0 -105 46.5 -155t129.5 -50q74 0 129 35zM395 708l-175 -139l-32 32l155 160z" />
    <glyph glyph-name="Ccircumflex" unicode="&#x108;" horiz-adv-x="684" 
d="M629 177v-137q-75 -52 -236 -52q-174 0 -256 102t-82 278q0 165 91 267t263 102q139 0 218 -53v-146l-51 3l-17 94q-2 14 -13 18q-68 25 -142 25q-129 0 -204 -81.5t-75 -229.5q0 -155 72 -237.5t200 -82.5q103 0 156 24q11 5 13 17l16 89h47zM518 766l-119 84l-119 -84
l-35 34l116 99h76l116 -99z" />
    <glyph glyph-name="ccircumflex" unicode="&#x109;" horiz-adv-x="476" 
d="M420 83l26 -56q-59 -39 -164 -39q-120 0 -178.5 70.5t-58.5 191.5q0 137 69.5 204t187.5 67q78 0 142 -27v-123l-51 3l-12 66q-2 10 -11 13q-28 10 -76 10q-81 0 -130 -50.5t-49 -159.5q0 -105 46.5 -155t129.5 -50q74 0 129 35zM443 609l-38 -33l-124 104l-124 -104
l-38 33l124 120h76z" />
    <glyph glyph-name="Cdotaccent" unicode="&#x10a;" horiz-adv-x="684" 
d="M629 177v-137q-75 -52 -236 -52q-174 0 -256 102t-82 278q0 165 91 267t263 102q139 0 218 -53v-146l-51 3l-17 94q-2 14 -13 18q-68 25 -142 25q-129 0 -204 -81.5t-75 -229.5q0 -155 72 -237.5t200 -82.5q103 0 156 24q11 5 13 17l16 89h47zM453 835q0 -53 -54 -53
t-54 53t54 53t54 -53z" />
    <glyph glyph-name="cdotaccent" unicode="&#x10b;" horiz-adv-x="476" 
d="M420 83l26 -56q-59 -39 -164 -39q-120 0 -178.5 70.5t-58.5 191.5q0 137 69.5 204t187.5 67q78 0 142 -27v-123l-51 3l-12 66q-2 10 -11 13q-28 10 -76 10q-81 0 -130 -50.5t-49 -159.5q0 -105 46.5 -155t129.5 -50q74 0 129 35zM343 688q0 -53 -54 -53t-54 53t54 53
t54 -53z" />
    <glyph glyph-name="Ccaron" unicode="&#x10c;" horiz-adv-x="684" 
d="M629 177v-137q-75 -52 -236 -52q-174 0 -256 102t-82 278q0 165 91 267t263 102q139 0 218 -53v-146l-51 3l-17 94q-2 14 -13 18q-68 25 -142 25q-129 0 -204 -81.5t-75 -229.5q0 -155 72 -237.5t200 -82.5q103 0 156 24q11 5 13 17l16 89h47zM553 875l-116 -99h-76
l-116 99l35 34l119 -84l119 84z" />
    <glyph glyph-name="ccaron" unicode="&#x10d;" horiz-adv-x="476" 
d="M420 83l26 -56q-59 -39 -164 -39q-120 0 -178.5 70.5t-58.5 191.5q0 137 69.5 204t187.5 67q78 0 142 -27v-123l-51 3l-12 66q-2 10 -11 13q-28 10 -76 10q-81 0 -130 -50.5t-49 -159.5q0 -105 46.5 -155t129.5 -50q74 0 129 35zM319 576h-76l-121 119l37 34l122 -104
l126 104l38 -33z" />
    <glyph glyph-name="Dcaron" unicode="&#x10e;" horiz-adv-x="773" 
d="M342 0h-272v44l63 7q10 1 13 5t3 15v581q0 12 -3 15.5t-13 4.5l-63 7v45h289q183 0 271 -91.5t88 -259.5q0 -173 -94 -273t-282 -100zM216 59h131q147 0 224 77.5t77 221.5q0 171 -74 239.5t-221 68.5h-137v-607zM505 875l-116 -99h-76l-116 99l35 34l119 -84l119 84z
" />
    <glyph glyph-name="dcaron" unicode="&#x10f;" horiz-adv-x="627" 
d="M552 0h-122l-8 68l-3 1q-86 -81 -180 -81q-187 0 -187 255q0 141 55.5 209.5t152.5 68.5q89 0 157 -49v202q0 16 -13 20l-61 19l8 42h133v-684q0 -12 2.5 -15.5t13.5 -4.5l52 -7v-44zM417 141v258q-27 26 -69.5 45t-86.5 19q-143 0 -143 -218q0 -198 130 -198
q89 0 169 94zM586 571l-40 12q19 59 19 96q0 35 -15 65l58 28q26 -26 26 -53q0 -19 -8 -46q-13 -42 -40 -102z" />
    <glyph glyph-name="Dcroat" unicode="&#x110;" horiz-adv-x="784" 
d="M353 0h-272v44l63 7q10 1 13 5t3 15v271h-96v56h96v254q0 12 -3 15.5t-13 4.5l-63 7v45h289q183 0 271 -91.5t88 -259.5q0 -173 -94 -273t-282 -100zM227 59h131q147 0 224 77.5t77 221.5q0 171 -74 239.5t-221 68.5h-137v-268h210v-56h-210v-283z" />
    <glyph glyph-name="dcroat" unicode="&#x111;" horiz-adv-x="590" 
d="M552 0h-122l-8 68l-3 1q-86 -81 -180 -81q-187 0 -187 245q0 137 55.5 202.5t152.5 65.5q89 0 157 -49v124h-194v56h194v42q0 16 -13 20l-61 19l8 42h133v-123h70v-56h-70v-505q0 -12 2.5 -15.5t13.5 -4.5l52 -7v-44zM417 141v238q-27 26 -69.5 45t-86.5 19
q-143 0 -143 -208q0 -105 34.5 -146.5t95.5 -41.5q89 0 169 94z" />
    <glyph glyph-name="Emacron" unicode="&#x112;" horiz-adv-x="637" 
d="M582 0h-512v44l63 7q10 1 13 5t3 15v581q0 12 -3 15.5t-13 4.5l-63 7v45h490v-150l-51 3l-14 78q-3 13 -17 13h-262v-274h280v-56h-280v-282h284q14 0 16 11l16 87h50v-154zM474 797h-303v57h303v-57z" />
    <glyph glyph-name="emacron" unicode="&#x113;" horiz-adv-x="506" 
d="M425 86l25 -56q-73 -42 -172 -42q-233 0 -233 270q0 129 61.5 196t158.5 67q94 0 147.5 -56.5t53.5 -179.5q0 -13 -2 -43h-349q5 -193 168 -193q45 0 74.5 8t67.5 29zM117 296h280q-1 87 -37 126.5t-94 39.5q-62 0 -102.5 -39.5t-46.5 -126.5zM416 616h-303v57h303v-57z
" />
    <glyph glyph-name="Ebreve" unicode="&#x114;" horiz-adv-x="637" 
d="M582 0h-512v44l63 7q10 1 13 5t3 15v581q0 12 -3 15.5t-13 4.5l-63 7v45h490v-150l-51 3l-14 78q-3 13 -17 13h-262v-274h280v-56h-280v-282h284q14 0 16 11l16 87h50v-154zM421 913l51 -19q-32 -112 -150 -112q-122 0 -150 112l55 19q14 -38 35.5 -57t61.5 -19t61 19.5
t36 56.5z" />
    <glyph glyph-name="ebreve" unicode="&#x115;" horiz-adv-x="506" 
d="M425 86l25 -56q-73 -42 -172 -42q-233 0 -233 270q0 129 61.5 196t158.5 67q94 0 147.5 -56.5t53.5 -179.5q0 -13 -2 -43h-349q5 -193 168 -193q45 0 74.5 8t67.5 29zM117 296h280q-1 87 -37 126.5t-94 39.5q-62 0 -102.5 -39.5t-46.5 -126.5zM369 724l50 -19
q-18 -65 -54.5 -98.5t-102.5 -33.5t-102 34t-51 98l54 19q15 -48 37 -72t64 -24t65 24t40 72z" />
    <glyph glyph-name="Edotaccent" unicode="&#x116;" horiz-adv-x="637" 
d="M582 0h-512v44l63 7q10 1 13 5t3 15v581q0 12 -3 15.5t-13 4.5l-63 7v45h490v-150l-51 3l-14 78q-3 13 -17 13h-262v-274h280v-56h-280v-282h284q14 0 16 11l16 87h50v-154zM376 835q0 -53 -54 -53t-54 53t54 53t54 -53z" />
    <glyph glyph-name="edotaccent" unicode="&#x117;" horiz-adv-x="506" 
d="M425 86l25 -56q-73 -42 -172 -42q-233 0 -233 270q0 129 61.5 196t158.5 67q94 0 147.5 -56.5t53.5 -179.5q0 -13 -2 -43h-349q5 -193 168 -193q45 0 74.5 8t67.5 29zM117 296h280q-1 87 -37 126.5t-94 39.5q-62 0 -102.5 -39.5t-46.5 -126.5zM318 688q0 -53 -54 -53
t-54 53t54 53t54 -53z" />
    <glyph glyph-name="Eogonek" unicode="&#x118;" horiz-adv-x="637" 
d="M582 0q-48 -22 -83.5 -54.5t-35.5 -67.5q0 -33 32 -33q20 0 47 12l18 -49q-42 -20 -83 -20q-39 0 -61.5 18.5t-22.5 56.5q0 77 97 137h-420v44l63 7q10 1 13 5t3 15v581q0 12 -3 15.5t-13 4.5l-63 7v45h490v-150l-51 3l-14 78q-3 13 -17 13h-262v-274h280v-56h-280v-282
h284q14 0 16 11l16 87h50v-154z" />
    <glyph glyph-name="eogonek" unicode="&#x119;" horiz-adv-x="506" 
d="M425 86l25 -56q-9 -5 -26 -13.5l-23 -11.5q-44 -23 -74.5 -58t-30.5 -69q0 -33 32 -33q20 0 47 12l18 -49q-42 -20 -83 -20q-39 0 -61.5 18.5t-22.5 56.5q0 63 81 126q-5 0 -14.5 -0.5t-14.5 -0.5q-233 0 -233 270q0 129 61.5 196t158.5 67q94 0 147.5 -56.5t53.5 -179.5
q0 -13 -2 -43h-349q5 -193 168 -193q45 0 74.5 8t67.5 29zM117 296h280q-1 87 -37 126.5t-94 39.5q-62 0 -102.5 -39.5t-46.5 -126.5z" />
    <glyph glyph-name="Ecaron" unicode="&#x11a;" horiz-adv-x="637" 
d="M582 0h-512v44l63 7q10 1 13 5t3 15v581q0 12 -3 15.5t-13 4.5l-63 7v45h490v-150l-51 3l-14 78q-3 13 -17 13h-262v-274h280v-56h-280v-282h284q14 0 16 11l16 87h50v-154zM476 875l-116 -99h-76l-116 99l35 34l119 -84l119 84z" />
    <glyph glyph-name="ecaron" unicode="&#x11b;" horiz-adv-x="506" 
d="M425 86l25 -56q-73 -42 -172 -42q-233 0 -233 270q0 129 61.5 196t158.5 67q94 0 147.5 -56.5t53.5 -179.5q0 -13 -2 -43h-349q5 -193 168 -193q45 0 74.5 8t67.5 29zM117 296h280q-1 87 -37 126.5t-94 39.5q-62 0 -102.5 -39.5t-46.5 -126.5zM302 576h-76l-121 119
l37 34l122 -104l126 104l38 -33z" />
    <glyph glyph-name="Gcircumflex" unicode="&#x11c;" horiz-adv-x="747" 
d="M717 287l-42 -4q-16 -1 -16 -14v-243q-80 -38 -232 -38q-192 0 -282 102.5t-90 277.5q0 165 91 267t263 102q141 0 221 -53v-146l-51 3l-17 94q-2 14 -13 18q-68 25 -145 25q-129 0 -204 -81.5t-75 -229.5q0 -155 80.5 -237.5t225.5 -82.5q84 0 149 18q13 4 13 17v195
h-146l10 55h260v-45zM505 766l-119 84l-119 -84l-35 34l116 99h76l116 -99z" />
    <glyph glyph-name="gcircumflex" unicode="&#x11d;" horiz-adv-x="534" 
d="M526 456l-93 -7q37 -47 37 -106q0 -88 -57.5 -137.5t-148.5 -49.5q-53 0 -87 14l-47 -94l177 -13q118 -8 163 -32.5t45 -99.5q0 -74 -63.5 -115t-190.5 -41q-121 0 -173.5 31.5t-52.5 91.5q0 36 16.5 63.5t51.5 60.5q-47 10 -47 45q0 19 20 49l49 77q-70 43 -70 140
q0 85 57.5 136.5t153.5 51.5q51 0 86 -10h174v-55zM404 339q0 61 -35.5 94t-101.5 33t-105 -33t-39 -96q0 -55 34 -89.5t107 -34.5q64 0 102 35t38 91zM332 1l-164 10q-62 -55 -62 -101q0 -42 43.5 -58t131.5 -16q21 0 55 4q107 16 107 90q0 35 -27.5 51.5t-83.5 19.5z
M428 609l-38 -33l-124 104l-124 -104l-38 33l124 120h76z" />
    <glyph glyph-name="Gbreve" unicode="&#x11e;" horiz-adv-x="747" 
d="M717 287l-42 -4q-16 -1 -16 -14v-243q-80 -38 -232 -38q-192 0 -282 102.5t-90 277.5q0 165 91 267t263 102q141 0 221 -53v-146l-51 3l-17 94q-2 14 -13 18q-68 25 -145 25q-129 0 -204 -81.5t-75 -229.5q0 -155 80.5 -237.5t225.5 -82.5q84 0 149 18q13 4 13 17v195
h-146l10 55h260v-45zM485 913l51 -19q-32 -112 -150 -112q-122 0 -150 112l55 19q14 -38 35.5 -57t61.5 -19t61 19.5t36 56.5z" />
    <glyph glyph-name="gbreve" unicode="&#x11f;" horiz-adv-x="534" 
d="M526 456l-93 -7q37 -47 37 -106q0 -88 -57.5 -137.5t-148.5 -49.5q-53 0 -87 14l-47 -94l177 -13q118 -8 163 -32.5t45 -99.5q0 -74 -63.5 -115t-190.5 -41q-121 0 -173.5 31.5t-52.5 91.5q0 36 16.5 63.5t51.5 60.5q-47 10 -47 45q0 19 20 49l49 77q-70 43 -70 140
q0 85 57.5 136.5t153.5 51.5q51 0 86 -10h174v-55zM404 339q0 61 -35.5 94t-101.5 33t-105 -33t-39 -96q0 -55 34 -89.5t107 -34.5q64 0 102 35t38 91zM332 1l-164 10q-62 -55 -62 -101q0 -42 43.5 -58t131.5 -16q21 0 55 4q107 16 107 90q0 35 -27.5 51.5t-83.5 19.5z
M375 724l50 -19q-18 -65 -54.5 -98.5t-102.5 -33.5t-102 34t-51 98l54 19q15 -48 37 -72t64 -24t65 24t40 72z" />
    <glyph glyph-name="Gdotaccent" unicode="&#x120;" horiz-adv-x="747" 
d="M717 287l-42 -4q-16 -1 -16 -14v-243q-80 -38 -232 -38q-192 0 -282 102.5t-90 277.5q0 165 91 267t263 102q141 0 221 -53v-146l-51 3l-17 94q-2 14 -13 18q-68 25 -145 25q-129 0 -204 -81.5t-75 -229.5q0 -155 80.5 -237.5t225.5 -82.5q84 0 149 18q13 4 13 17v195
h-146l10 55h260v-45zM440 835q0 -53 -54 -53t-54 53t54 53t54 -53z" />
    <glyph glyph-name="gdotaccent" unicode="&#x121;" horiz-adv-x="534" 
d="M526 456l-93 -7q37 -47 37 -106q0 -88 -57.5 -137.5t-148.5 -49.5q-53 0 -87 14l-47 -94l177 -13q118 -8 163 -32.5t45 -99.5q0 -74 -63.5 -115t-190.5 -41q-121 0 -173.5 31.5t-52.5 91.5q0 36 16.5 63.5t51.5 60.5q-47 10 -47 45q0 19 20 49l49 77q-70 43 -70 140
q0 85 57.5 136.5t153.5 51.5q51 0 86 -10h174v-55zM404 339q0 61 -35.5 94t-101.5 33t-105 -33t-39 -96q0 -55 34 -89.5t107 -34.5q64 0 102 35t38 91zM332 1l-164 10q-62 -55 -62 -101q0 -42 43.5 -58t131.5 -16q21 0 55 4q107 16 107 90q0 35 -27.5 51.5t-83.5 19.5z
M328 688q0 -53 -54 -53t-54 53t54 53t54 -53z" />
    <glyph glyph-name="Gcommaaccent" unicode="&#x122;" horiz-adv-x="747" 
d="M717 287l-42 -4q-16 -1 -16 -14v-243q-80 -38 -232 -38q-192 0 -282 102.5t-90 277.5q0 165 91 267t263 102q141 0 221 -53v-146l-51 3l-17 94q-2 14 -13 18q-68 25 -145 25q-129 0 -204 -81.5t-75 -229.5q0 -155 80.5 -237.5t225.5 -82.5q84 0 149 18q13 4 13 17v195
h-146l10 55h260v-45zM392 -258l-36 14l25 92q1 7 -5 10l-34 15l19 65q49 -4 70.5 -16t21.5 -43q0 -23 -16 -53z" />
    <glyph glyph-name="gcommaaccent" unicode="&#x123;" horiz-adv-x="534" 
d="M526 456l-93 -7q37 -47 37 -106q0 -88 -57.5 -137.5t-148.5 -49.5q-53 0 -87 14l-47 -94l177 -13q118 -8 163 -32.5t45 -99.5q0 -74 -63.5 -115t-190.5 -41q-121 0 -173.5 31.5t-52.5 91.5q0 36 16.5 63.5t51.5 60.5q-47 10 -47 45q0 19 20 49l49 77q-70 43 -70 140
q0 85 57.5 136.5t153.5 51.5q51 0 86 -10h174v-55zM404 339q0 61 -35.5 94t-101.5 33t-105 -33t-39 -96q0 -55 34 -89.5t107 -34.5q64 0 102 35t38 91zM332 1l-164 10q-62 -55 -62 -101q0 -42 43.5 -58t131.5 -16q21 0 55 4q107 16 107 90q0 35 -27.5 51.5t-83.5 19.5z
M272 764l36 -14l-25 -92q-1 -7 5 -10l34 -15l-19 -65q-49 4 -70.5 16t-21.5 43q0 23 16 53z" />
    <glyph glyph-name="Hcircumflex" unicode="&#x124;" horiz-adv-x="804" 
d="M738 0h-229v44l63 7q10 1 13 5t3 15v275h-372v-274q0 -12 2.5 -15.5t13.5 -4.5l67 -8v-44h-229v44l63 7q10 1 13 5t3 15v582q0 12 -3 15.5t-13 4.5l-63 7v44h229v-44l-67 -8q-11 -1 -13.5 -4.5t-2.5 -14.5v-251h372v251q0 12 -3 15.5t-13 4.5l-63 7v44h229v-44l-67 -8
q-11 -1 -13.5 -4.5t-2.5 -14.5v-581q0 -12 2.5 -15.5t13.5 -4.5l67 -8v-44zM526 766l-119 84l-119 -84l-35 34l116 99h76l116 -99z" />
    <glyph glyph-name="hcircumflex" unicode="&#x125;" horiz-adv-x="632" 
d="M230 790l-107 84l-107 -84l-33 34l102 99h76l102 -99zM602 0h-211v45l52 6q11 2 13.5 5t2.5 14v244q0 76 -24 111t-78 35q-49 0 -97 -24t-77 -51v-314q0 -12 2.5 -15.5t13.5 -4.5l60 -7v-44h-211v45l52 6q10 1 13 5t3 15v602q0 17 -13 21l-61 19l8 42h133v-304
q95 70 186 70q80 0 118.5 -45t38.5 -145v-260q0 -12 2.5 -15.5t13.5 -4.5l60 -7v-44z" />
    <glyph glyph-name="Hbar" unicode="&#x126;" horiz-adv-x="804" 
d="M738 0h-229v44l63 7q10 1 13 5t3 15v275h-372v-274q0 -12 2.5 -15.5t13.5 -4.5l67 -8v-44h-229v44l63 7q10 1 13 5t3 15v448h-69v56h69v78q0 12 -3 15.5t-13 4.5l-63 7v44h229v-44l-67 -8q-11 -1 -13.5 -4.5t-2.5 -14.5v-78h372v78q0 12 -3 15.5t-13 4.5l-63 7v44h229
v-44l-67 -8q-11 -1 -13.5 -4.5t-2.5 -14.5v-78h68v-56h-68v-447q0 -12 2.5 -15.5t13.5 -4.5l67 -8v-44zM216 402h372v117h-372v-117z" />
    <glyph glyph-name="hbar" unicode="&#x127;" horiz-adv-x="632" 
d="M602 0h-211v45l52 6q11 2 13.5 5t2.5 14v224q0 76 -24 111t-78 35q-49 0 -97 -24t-77 -51v-294q0 -12 2.5 -15.5t13.5 -4.5l60 -7v-44h-211v45l52 6q10 1 13 5t3 15v505h-70v56h70v41q0 17 -13 21l-61 19l8 42h133v-123h194v-56h-194v-145q95 70 186 70q80 0 118.5 -45
t38.5 -145v-240q0 -12 2.5 -15.5t13.5 -4.5l60 -7v-44z" />
    <glyph glyph-name="Itilde" unicode="&#x128;" horiz-adv-x="387" 
d="M144 880l126 -35q9 -3 15 3l37 39l34 -27l-22 -32q-30 -46 -58 -46q-15 0 -28 4l-128 36q-10 3 -15 -3l-40 -41l-34 27l28 41q25 39 54 39q11 0 31 -5zM320 0h-249v44l73 7q10 1 13 5t3 15v582q0 12 -3 15.5t-13 4.5l-73 7v44h249v-44l-77 -8q-11 -1 -13.5 -4.5
t-2.5 -14.5v-581q0 -12 2.5 -15.5t13.5 -4.5l77 -8v-44z" />
    <glyph glyph-name="itilde" unicode="&#x129;" horiz-adv-x="289" 
d="M290 655l-22 -32q-30 -46 -58 -46q-15 0 -28 4q-25 7 -71.5 20t-56.5 16t-15 -3l-40 -41l-34 27l28 41q25 39 54 39q11 0 31 -5q82 -23 126 -35q9 -3 15 3l37 39zM269 0h-241v45l72 6q10 1 13 5t3 15v358q0 17 -13 21l-58 19l8 42h130v-440q0 -12 2.5 -15.5t13.5 -4.5
l70 -7v-44z" />
    <glyph glyph-name="Imacron" unicode="&#x12a;" horiz-adv-x="387" 
d="M333 797h-275v57h275v-57zM320 0h-249v44l73 7q10 1 13 5t3 15v582q0 12 -3 15.5t-13 4.5l-73 7v44h249v-44l-77 -8q-11 -1 -13.5 -4.5t-2.5 -14.5v-581q0 -12 2.5 -15.5t13.5 -4.5l77 -8v-44z" />
    <glyph glyph-name="imacron" unicode="&#x12b;" horiz-adv-x="289" 
d="M251 596h-245v57h245v-57zM269 0h-241v45l72 6q10 1 13 5t3 15v358q0 17 -13 21l-58 19l8 42h130v-440q0 -12 2.5 -15.5t13.5 -4.5l70 -7v-44z" />
    <glyph glyph-name="Ibreve" unicode="&#x12c;" horiz-adv-x="387" 
d="M320 0h-249v44l73 7q10 1 13 5t3 15v582q0 12 -3 15.5t-13 4.5l-73 7v44h249v-44l-77 -8q-11 -1 -13.5 -4.5t-2.5 -14.5v-581q0 -12 2.5 -15.5t13.5 -4.5l77 -8v-44zM294 913l51 -19q-32 -112 -150 -112q-122 0 -150 112l55 19q14 -38 35.5 -57t61.5 -19t61 19.5t36 56.5
z" />
    <glyph glyph-name="ibreve" unicode="&#x12d;" horiz-adv-x="289" 
d="M237 719l48 -19q-34 -132 -155 -132t-155 132l48 19q15 -50 40.5 -73t66.5 -23t66.5 23t40.5 73zM269 0h-241v45l72 6q10 1 13 5t3 15v358q0 17 -13 21l-58 19l8 42h130v-440q0 -12 2.5 -15.5t13.5 -4.5l70 -7v-44z" />
    <glyph glyph-name="Iogonek" unicode="&#x12e;" horiz-adv-x="387" 
d="M236 -143l18 -49q-42 -20 -83 -20q-39 0 -61.5 18.5t-22.5 56.5q0 65 85 137h-101v44l73 7q10 1 13 5t3 15v582q0 12 -3 15.5t-13 4.5l-73 7v44h249v-44l-77 -8q-11 -1 -13.5 -4.5t-2.5 -14.5v-581q0 -12 2.5 -15.5t13.5 -4.5l77 -8v-44h-76q-87 -70 -87 -122
q0 -33 32 -33q20 0 47 12z" />
    <glyph glyph-name="iogonek" unicode="&#x12f;" horiz-adv-x="289" 
d="M181 -143l18 -49q-42 -20 -83 -20q-39 0 -61.5 18.5t-22.5 56.5q0 65 85 137h-89v45l72 6q10 1 13 5t3 15v358q0 17 -13 21l-58 19l8 42h130v-440q0 -12 2.5 -15.5t13.5 -4.5l70 -7v-44h-80q-87 -70 -87 -122q0 -33 32 -33q20 0 47 12zM190 688q0 -53 -54 -53t-54 53
t54 53t54 -53z" />
    <glyph glyph-name="Idotaccent" unicode="&#x130;" horiz-adv-x="387" 
d="M320 0h-249v44l73 7q10 1 13 5t3 15v582q0 12 -3 15.5t-13 4.5l-73 7v44h249v-44l-77 -8q-11 -1 -13.5 -4.5t-2.5 -14.5v-581q0 -12 2.5 -15.5t13.5 -4.5l77 -8v-44zM249 835q0 -53 -54 -53t-54 53t54 53t54 -53z" />
    <glyph glyph-name="dotlessi" unicode="&#x131;" horiz-adv-x="289" 
d="M269 0h-241v45l72 6q10 1 13 5t3 15v358q0 17 -13 21l-58 19l8 42h130v-440q0 -12 2.5 -15.5t13.5 -4.5l70 -7v-44z" />
    <glyph glyph-name="IJ" unicode="&#x132;" horiz-adv-x="886" 
d="M320 0h-249v44l73 7q10 1 13 5t3 15v582q0 12 -3 15.5t-13 4.5l-73 7v44h249v-44l-77 -8q-11 -1 -13.5 -4.5t-2.5 -14.5v-581q0 -12 2.5 -15.5t13.5 -4.5l77 -8v-44zM691 149v505q0 11 -3 14.5t-13 4.5l-83 7v44h249v-44l-67 -8q-11 -1 -13.5 -4t-2.5 -14v-513
q0 -79 -37 -116t-119 -37q-51 0 -94.5 11t-60.5 22v123l51 -3l10 -68q2 -9 12 -14q33 -15 80 -15q53 0 72 24.5t19 80.5z" />
    <glyph glyph-name="ij" unicode="&#x133;" horiz-adv-x="567" 
d="M190 688q0 -53 -54 -53t-54 53t54 53t54 -53zM269 0h-241v45l72 6q10 1 13 5t3 15v358q0 17 -13 21l-58 19l8 42h130v-440q0 -12 2.5 -15.5t13.5 -4.5l70 -7v-44zM403 -55v484q0 17 -12 21l-68 19l8 42h139v-581q0 -78 -31.5 -115.5t-100.5 -37.5q-83 0 -129 39l33 49
q37 -31 91 -31q42 0 56 26.5t14 84.5zM479 688q0 -53 -54 -53t-54 53t54 53t54 -53z" />
    <glyph glyph-name="Jcircumflex" unicode="&#x134;" horiz-adv-x="499" 
d="M304 149v505q0 11 -3 14.5t-13 4.5l-83 7v44h249v-44l-67 -8q-11 -1 -13.5 -4t-2.5 -14v-513q0 -79 -37 -116t-119 -37q-51 0 -94.5 11t-60.5 22v123l51 -3l10 -68q2 -9 12 -14q33 -15 80 -15q53 0 72 24.5t19 80.5zM458 766l-119 84l-119 -84l-35 34l116 99h76l116 -99z
" />
    <glyph glyph-name="jcircumflex" unicode="&#x135;" horiz-adv-x="275" 
d="M114 -55v484q0 17 -12 21l-68 19l8 42h139v-581q0 -79 -32 -116t-104 -37q-36 0 -71 11.5t-54 27.5l33 49q38 -31 88 -31q44 0 58.5 26t14.5 85zM280 599l-38 -33l-124 104l-124 -104l-38 33l124 120h76z" />
    <glyph glyph-name="Kcommaaccent" unicode="&#x136;" horiz-adv-x="728" 
d="M698 0h-239v45q14 1 41.5 4t40.5 4l-241 308l-84 -90v-199q0 -12 2.5 -15.5t13.5 -4.5l67 -8v-44h-229v44l63 7q10 1 13 5t3 15v582q0 12 -3 15.5t-13 4.5l-63 7v44h229v-44l-67 -8q-11 -1 -13.5 -4.5t-2.5 -14.5v-300l295 318l-62 8v45h210v-44l-54 -10q-18 -3 -30 -16
l-230 -245l264 -339q7 -9 11 -11.5t18 -4.5l60 -10v-44zM364 -258l-36 14l25 92q1 7 -5 10l-34 15l19 65q49 -4 70.5 -16t21.5 -43q0 -23 -16 -53z" />
    <glyph glyph-name="kcommaaccent" unicode="&#x137;" horiz-adv-x="579" 
d="M569 0h-210v45l62 8l-142 222l-96 -108v-96q0 -12 2.5 -15.5t13.5 -4.5l65 -7v-44h-231v45l67 6q10 1 13 5t3 15v602q0 17 -13 21l-61 19l8 42h133v-503l224 259h100v-44l-59 -13q-15 -4 -25 -15l-99 -112l162 -257q8 -13 29 -16l54 -10v-44zM284 -258l-36 14l25 92
q1 7 -5 10l-34 15l19 65q49 -4 70.5 -16t21.5 -43q0 -23 -16 -53z" />
    <glyph glyph-name="kgreenlandic" unicode="&#x138;" horiz-adv-x="579" 
d="M569 0h-210v45l62 8l-142 222l-96 -108v-96q0 -12 2.5 -15.5t13.5 -4.5l65 -7v-44h-231v45l67 6q10 1 13 5t3 15v358q0 17 -13 21l-61 19l8 42h133v-259l224 259h100v-44l-59 -13q-15 -4 -25 -15l-99 -112l162 -257q8 -13 29 -16l54 -10v-44z" />
    <glyph glyph-name="Lacute" unicode="&#x139;" horiz-adv-x="617" 
d="M582 0h-512v44l63 7q10 1 13 5t3 15v581q0 12 -3 15.5t-13 4.5l-63 7v45h245v-45l-83 -8q-11 -1 -13.5 -4.5t-2.5 -14.5v-596h284q14 0 16 11l16 87h50v-154zM308 872l-197 -106l-24 38l181 131z" />
    <glyph glyph-name="lacute" unicode="&#x13a;" horiz-adv-x="289" 
d="M264 0h-231v45l67 6q10 1 13 4.5t3 15.5v602q0 17 -13 21l-61 19l8 42h133v-684q0 -12 2.5 -15.5t13.5 -4.5l65 -7v-44zM247 897l-197 -106l-24 38l181 131z" />
    <glyph glyph-name="Lcommaaccent" unicode="&#x13b;" horiz-adv-x="617" 
d="M582 0h-512v44l63 7q10 1 13 5t3 15v581q0 12 -3 15.5t-13 4.5l-63 7v45h245v-45l-83 -8q-11 -1 -13.5 -4.5t-2.5 -14.5v-596h284q14 0 16 11l16 87h50v-154zM339 -258l-36 14l25 92q1 7 -5 10l-34 15l19 65q49 -4 70.5 -16t21.5 -43q0 -23 -16 -53z" />
    <glyph glyph-name="lcommaaccent" unicode="&#x13c;" horiz-adv-x="289" 
d="M264 0h-231v45l67 6q10 1 13 4.5t3 15.5v602q0 17 -13 21l-61 19l8 42h133v-684q0 -12 2.5 -15.5t13.5 -4.5l65 -7v-44zM140 -258l-36 14l25 92q1 7 -5 10l-34 15l19 65q49 -4 70.5 -16t21.5 -43q0 -23 -16 -53z" />
    <glyph glyph-name="Lcaron" unicode="&#x13d;" horiz-adv-x="617" 
d="M582 0h-512v44l63 7q10 1 13 5t3 15v581q0 12 -3 15.5t-13 4.5l-63 7v45h245v-45l-83 -8q-11 -1 -13.5 -4.5t-2.5 -14.5v-596h284q14 0 16 11l16 87h50v-154zM422 569l-40 12q19 59 19 96q0 35 -15 65l58 28q26 -26 26 -53q0 -19 -8 -46q-13 -42 -40 -102z" />
    <glyph glyph-name="lcaron" unicode="&#x13e;" horiz-adv-x="313" 
d="M264 0h-231v45l67 6q10 1 13 4.5t3 15.5v602q0 17 -13 21l-61 19l8 42h133v-684q0 -12 2.5 -15.5t13.5 -4.5l65 -7v-44zM272 575l-40 12q19 59 19 96q0 35 -15 65l58 28q26 -26 26 -53q0 -19 -8 -46q-13 -42 -40 -102z" />
    <glyph glyph-name="Ldot" unicode="&#x13f;" horiz-adv-x="617" 
d="M582 0h-512v44l63 7q10 1 13 5t3 15v581q0 12 -3 15.5t-13 4.5l-63 7v45h245v-45l-83 -8q-11 -1 -13.5 -4.5t-2.5 -14.5v-596h284q14 0 16 11l16 87h50v-154zM537 357q0 -53 -54 -53t-54 53t54 53t54 -53z" />
    <glyph glyph-name="ldot" unicode="&#x140;" horiz-adv-x="308" 
d="M264 0h-231v45l67 6q10 1 13 4.5t3 15.5v602q0 17 -13 21l-61 19l8 42h133v-684q0 -12 2.5 -15.5t13.5 -4.5l65 -7v-44zM353 367q0 -53 -54 -53t-54 53t54 53t54 -53z" />
    <glyph glyph-name="Lslash" unicode="&#x141;" horiz-adv-x="617" 
d="M582 0h-512v44l63 7q10 1 13 5t3 15v223l-94 -39v57l94 39v301q0 12 -3 15.5t-13 4.5l-63 7v45h245v-45l-83 -8q-11 -1 -13.5 -4.5t-2.5 -14.5v-273l251 105v-59l-251 -104v-265h284q14 0 16 11l16 87h50v-154z" />
    <glyph glyph-name="lslash" unicode="&#x142;" horiz-adv-x="303" 
d="M264 0h-231v45l67 6q10 1 13 4.5t3 15.5v275l-87 -42v61l87 42v266q0 17 -13 21l-61 19l8 42h133v-315l94 46v-61l-94 -46v-308q0 -12 2.5 -15.5t13.5 -4.5l65 -7v-44z" />
    <glyph glyph-name="Nacute" unicode="&#x143;" horiz-adv-x="828" 
d="M684 0h-84l-384 638v-566q0 -12 2.5 -15.5t13.5 -4.5l67 -8v-44h-229v44l63 7q10 1 13 5t3 15v582q0 11 -3 15t-13 5l-63 7v45h176l372 -632v560q0 11 -3 15t-13 5l-63 7v44h228v-44l-67 -8q-11 -1 -13.5 -4.5t-2.5 -14.5v-653zM547 872l-197 -106l-24 38l181 131z" />
    <glyph glyph-name="nacute" unicode="&#x144;" horiz-adv-x="632" 
d="M602 0h-211v45l52 6q11 2 13.5 5t2.5 14v240q0 78 -23.5 114t-78.5 36q-49 0 -97 -24t-77 -51v-314q0 -12 2.5 -15.5t13.5 -4.5l60 -7v-44h-211v45l52 6q10 1 13 5t3 15v358q0 17 -13 21l-58 19l8 42h113l8 -62l3 -1q99 73 194 73q84 0 119.5 -48.5t35.5 -141.5v-260
q0 -12 2.5 -15.5t13.5 -4.5l60 -7v-44zM436 708l-175 -139l-32 32l155 160z" />
    <glyph glyph-name="Ncommaaccent" unicode="&#x145;" horiz-adv-x="828" 
d="M684 0h-84l-384 638v-566q0 -12 2.5 -15.5t13.5 -4.5l67 -8v-44h-229v44l63 7q10 1 13 5t3 15v582q0 11 -3 15t-13 5l-63 7v45h176l372 -632v560q0 11 -3 15t-13 5l-63 7v44h228v-44l-67 -8q-11 -1 -13.5 -4.5t-2.5 -14.5v-653zM406 -258l-36 14l25 92q1 7 -5 10l-34 15
l19 65q49 -4 70.5 -16t21.5 -43q0 -23 -16 -53z" />
    <glyph glyph-name="ncommaaccent" unicode="&#x146;" horiz-adv-x="632" 
d="M602 0h-211v45l52 6q11 2 13.5 5t2.5 14v240q0 78 -23.5 114t-78.5 36q-49 0 -97 -24t-77 -51v-314q0 -12 2.5 -15.5t13.5 -4.5l60 -7v-44h-211v45l52 6q10 1 13 5t3 15v358q0 17 -13 21l-58 19l8 42h113l8 -62l3 -1q99 73 194 73q84 0 119.5 -48.5t35.5 -141.5v-260
q0 -12 2.5 -15.5t13.5 -4.5l60 -7v-44zM310 -258l-36 14l25 92q1 7 -5 10l-34 15l19 65q49 -4 70.5 -16t21.5 -43q0 -23 -16 -53z" />
    <glyph glyph-name="Ncaron" unicode="&#x147;" horiz-adv-x="828" 
d="M684 0h-84l-384 638v-566q0 -12 2.5 -15.5t13.5 -4.5l67 -8v-44h-229v44l63 7q10 1 13 5t3 15v582q0 11 -3 15t-13 5l-63 7v45h176l372 -632v560q0 11 -3 15t-13 5l-63 7v44h228v-44l-67 -8q-11 -1 -13.5 -4.5t-2.5 -14.5v-653zM572 875l-116 -99h-76l-116 99l35 34
l119 -84l119 84z" />
    <glyph glyph-name="ncaron" unicode="&#x148;" horiz-adv-x="632" 
d="M602 0h-211v45l52 6q11 2 13.5 5t2.5 14v240q0 78 -23.5 114t-78.5 36q-49 0 -97 -24t-77 -51v-314q0 -12 2.5 -15.5t13.5 -4.5l60 -7v-44h-211v45l52 6q10 1 13 5t3 15v358q0 17 -13 21l-58 19l8 42h113l8 -62l3 -1q99 73 194 73q84 0 119.5 -48.5t35.5 -141.5v-260
q0 -12 2.5 -15.5t13.5 -4.5l60 -7v-44zM359 576h-76l-121 119l37 34l122 -104l126 104l38 -33z" />
    <glyph glyph-name="napostrophe" unicode="&#x149;" horiz-adv-x="666" 
d="M636 0h-211v45l52 6q11 2 13.5 5t2.5 14v240q0 78 -23.5 114t-78.5 36q-49 0 -97 -24t-77 -51v-314q0 -12 2.5 -15.5t13.5 -4.5l60 -7v-44h-211v45l52 6q10 1 13 5t3 15v358q0 17 -13 21l-58 19l8 42h113l8 -62l3 -1q99 73 194 73q84 0 119.5 -48.5t35.5 -141.5v-260
q0 -12 2.5 -15.5t13.5 -4.5l60 -7v-44zM54 505l-34 13l23 72q2 8 -3 12l-27 11l18 60q41 -2 60 -11.5t19 -37.5q0 -14 -12 -36z" />
    <glyph glyph-name="Eng" unicode="&#x14a;" horiz-adv-x="833" 
d="M618 653q0 11 -3 15t-13 5l-63 7v44h228v-44l-67 -8q-11 -1 -13.5 -4.5t-2.5 -14.5v-723q0 -76 -40.5 -114.5t-114.5 -38.5q-40 0 -82 14.5t-63 31.5l32 51q49 -40 112 -40q51 0 70.5 27t19.5 84v58l-402 635v-566q0 -12 2.5 -15.5t13.5 -4.5l67 -8v-44h-229v44l63 7
q10 1 13 5t3 15v582q0 11 -3 15t-13 5l-63 7v45h176l372 -606v534z" />
    <glyph glyph-name="eng" unicode="&#x14b;" horiz-adv-x="626" 
d="M459 -55v365q0 78 -23.5 114t-78.5 36q-49 0 -97 -24t-77 -51v-314q0 -12 2.5 -15.5t13.5 -4.5l60 -7v-44h-211v45l52 6q10 1 13 5t3 15v358q0 17 -13 21l-58 19l8 42h113l8 -62l3 -1q99 73 194 73q84 0 119.5 -48.5t35.5 -141.5v-401q0 -79 -32 -116t-104 -37
q-36 0 -71 11.5t-54 27.5l33 49q38 -31 88 -31q44 0 58.5 26t14.5 85z" />
    <glyph glyph-name="Omacron" unicode="&#x14c;" horiz-adv-x="783" 
d="M388 -12q-165 0 -248 102t-83 273q0 167 90.5 270.5t254.5 103.5q160 0 243 -100t83 -259q0 -181 -87.5 -285.5t-252.5 -104.5zM392 47q123 0 195 82t72 239q0 148 -69.5 229t-189.5 81q-123 0 -198 -82.5t-75 -232.5q0 -151 71.5 -233.5t193.5 -82.5zM552 797h-303v57
h303v-57z" />
    <glyph glyph-name="omacron" unicode="&#x14d;" horiz-adv-x="563" 
d="M279 -12q-119 0 -176.5 72.5t-57.5 196.5q0 121 61.5 192.5t182.5 71.5q118 0 173.5 -69t55.5 -188q0 -130 -59.5 -203t-179.5 -73zM282 43q167 0 167 214q0 205 -162 205q-84 0 -128.5 -52t-44.5 -154q0 -103 42.5 -158t125.5 -55zM441 616h-303v57h303v-57z" />
    <glyph glyph-name="Obreve" unicode="&#x14e;" horiz-adv-x="783" 
d="M388 -12q-165 0 -248 102t-83 273q0 167 90.5 270.5t254.5 103.5q160 0 243 -100t83 -259q0 -181 -87.5 -285.5t-252.5 -104.5zM392 47q123 0 195 82t72 239q0 148 -69.5 229t-189.5 81q-123 0 -198 -82.5t-75 -232.5q0 -151 71.5 -233.5t193.5 -82.5zM499 913l51 -19
q-32 -112 -150 -112q-122 0 -150 112l55 19q14 -38 35.5 -57t61.5 -19t61 19.5t36 56.5z" />
    <glyph glyph-name="obreve" unicode="&#x14f;" horiz-adv-x="563" 
d="M279 -12q-119 0 -176.5 72.5t-57.5 196.5q0 121 61.5 192.5t182.5 71.5q118 0 173.5 -69t55.5 -188q0 -130 -59.5 -203t-179.5 -73zM282 43q167 0 167 214q0 205 -162 205q-84 0 -128.5 -52t-44.5 -154q0 -103 42.5 -158t125.5 -55zM394 724l50 -19q-18 -65 -54.5 -98.5
t-102.5 -33.5t-102 34t-51 98l54 19q15 -48 37 -72t64 -24t65 24t40 72z" />
    <glyph glyph-name="Ohungarumlaut" unicode="&#x150;" horiz-adv-x="783" 
d="M388 -12q-165 0 -248 102t-83 273q0 167 90.5 270.5t254.5 103.5q160 0 243 -100t83 -259q0 -181 -87.5 -285.5t-252.5 -104.5zM392 47q123 0 195 82t72 239q0 148 -69.5 229t-189.5 81q-123 0 -198 -82.5t-75 -232.5q0 -151 71.5 -233.5t193.5 -82.5zM473 909l-170 -144
l-31 32l149 166zM642 898l-177 -135l-30 34l158 157z" />
    <glyph glyph-name="ohungarumlaut" unicode="&#x151;" horiz-adv-x="563" 
d="M279 -12q-119 0 -176.5 72.5t-57.5 196.5q0 121 61.5 192.5t182.5 71.5q118 0 173.5 -69t55.5 -188q0 -130 -59.5 -203t-179.5 -73zM282 43q167 0 167 214q0 205 -162 205q-84 0 -128.5 -52t-44.5 -154q0 -103 42.5 -158t125.5 -55zM338 730l-156 -159l-35 27l133 179z
M500 730l-156 -159l-36 27l134 178z" />
    <glyph glyph-name="OE" unicode="&#x152;" horiz-adv-x="984" 
d="M939 0h-494q-43 -12 -98 -12q-83 0 -141 27.5t-90 80t-45.5 118.5t-13.5 154q0 82 16 147t51 116t95 78.5t142 27.5q52 0 99 -13h457v-150l-51 3l-14 78q-3 13 -17 13h-277q85 -85 88 -274h217v-56h-218q-8 -199 -97 -282h309q14 0 16 11l16 87h50v-154zM351 47
q118 0 172 79t54 242q0 310 -218 310q-112 0 -172 -80.5t-60 -230.5q0 -161 53.5 -240.5t170.5 -79.5z" />
    <glyph glyph-name="oe" unicode="&#x153;" horiz-adv-x="908" 
d="M827 86l25 -56q-73 -42 -172 -42q-149 0 -199 112q-55 -112 -202 -112q-119 0 -176.5 72.5t-57.5 196.5q0 121 61.5 192.5t182.5 71.5q143 0 196 -107q55 107 182 107q94 0 147.5 -56.5t53.5 -179.5q0 -13 -2 -43h-349q5 -193 168 -193q45 0 74.5 8t67.5 29zM282 43
q167 0 167 214q0 205 -162 205q-84 0 -128.5 -52t-44.5 -154q0 -103 42.5 -158t125.5 -55zM519 298h280q-3 164 -131 164q-137 0 -149 -164z" />
    <glyph glyph-name="Racute" unicode="&#x154;" horiz-adv-x="689" 
d="M664 0h-238v45l82 8q-13 29 -46 109t-46 111q-18 41 -66 41h-135v-242q0 -12 2.5 -15.5t13.5 -4.5l68 -8v-44h-229v44l63 7q10 1 13 5t3 15v581q0 12 -3 15.5t-13 4.5l-63 7v45h292q64 0 110 -17t69.5 -46t33.5 -61t10 -70q0 -151 -141 -196q6 -3 10.5 -6t9 -8.5t8 -9
t7.5 -11.5t6.5 -11.5t6.5 -14.5t5.5 -14.5t6.5 -17t7 -17.5l62 -151q7 -15 24 -18l67 -11v-44zM215 373h110q190 0 190 156q0 80 -50.5 108.5t-160.5 28.5h-89v-293zM455 872l-197 -106l-24 38l181 131z" />
    <glyph glyph-name="racute" unicode="&#x155;" horiz-adv-x="417" 
d="M289 0h-241v45l52 6q10 1 13 5t3 15v358q0 17 -13 21l-58 19l8 42h114l9 -64q79 74 155 74q34 0 66 -9v-139l-51 3l-13 76q-1 9 -12 9q-64 0 -138 -74v-316q0 -12 2.5 -15.5t13.5 -4.5l90 -7v-44zM335 708l-175 -139l-32 32l155 160z" />
    <glyph glyph-name="Rcommaaccent" unicode="&#x156;" horiz-adv-x="689" 
d="M664 0h-238v45l82 8q-13 29 -46 109t-46 111q-18 41 -66 41h-135v-242q0 -12 2.5 -15.5t13.5 -4.5l68 -8v-44h-229v44l63 7q10 1 13 5t3 15v581q0 12 -3 15.5t-13 4.5l-63 7v45h292q64 0 110 -17t69.5 -46t33.5 -61t10 -70q0 -151 -141 -196q6 -3 10.5 -6t9 -8.5t8 -9
t7.5 -11.5t6.5 -11.5t6.5 -14.5t5.5 -14.5t6.5 -17t7 -17.5l62 -151q7 -15 24 -18l67 -11v-44zM215 373h110q190 0 190 156q0 80 -50.5 108.5t-160.5 28.5h-89v-293zM347 -258l-36 14l25 92q1 7 -5 10l-34 15l19 65q49 -4 70.5 -16t21.5 -43q0 -23 -16 -53z" />
    <glyph glyph-name="rcommaaccent" unicode="&#x157;" horiz-adv-x="417" 
d="M289 0h-241v45l52 6q10 1 13 5t3 15v358q0 17 -13 21l-58 19l8 42h114l9 -64q79 74 155 74q34 0 66 -9v-139l-51 3l-13 76q-1 9 -12 9q-64 0 -138 -74v-316q0 -12 2.5 -15.5t13.5 -4.5l90 -7v-44zM152 -258l-36 14l25 92q1 7 -5 10l-34 15l19 65q49 -4 70.5 -16t21.5 -43
q0 -23 -16 -53z" />
    <glyph glyph-name="Rcaron" unicode="&#x158;" horiz-adv-x="689" 
d="M664 0h-238v45l82 8q-13 29 -46 109t-46 111q-18 41 -66 41h-135v-242q0 -12 2.5 -15.5t13.5 -4.5l68 -8v-44h-229v44l63 7q10 1 13 5t3 15v581q0 12 -3 15.5t-13 4.5l-63 7v45h292q64 0 110 -17t69.5 -46t33.5 -61t10 -70q0 -151 -141 -196q6 -3 10.5 -6t9 -8.5t8 -9
t7.5 -11.5t6.5 -11.5t6.5 -14.5t5.5 -14.5t6.5 -17t7 -17.5l62 -151q7 -15 24 -18l67 -11v-44zM215 373h110q190 0 190 156q0 80 -50.5 108.5t-160.5 28.5h-89v-293zM472 875l-116 -99h-76l-116 99l35 34l119 -84l119 84z" />
    <glyph glyph-name="rcaron" unicode="&#x159;" horiz-adv-x="417" 
d="M289 0h-241v45l52 6q10 1 13 5t3 15v358q0 17 -13 21l-58 19l8 42h114l9 -64q79 74 155 74q34 0 66 -9v-139l-51 3l-13 76q-1 9 -12 9q-64 0 -138 -74v-316q0 -12 2.5 -15.5t13.5 -4.5l90 -7v-44zM271 576h-76l-121 119l37 34l122 -104l126 104l38 -33z" />
    <glyph glyph-name="Sacute" unicode="&#x15a;" horiz-adv-x="581" 
d="M500 544l-51 5l-17 86q-3 16 -6 19q-6 8 -36.5 15t-71.5 7q-84 0 -127 -33.5t-43 -94.5q0 -41 20.5 -69t53.5 -43t72.5 -27t79.5 -27t73 -36t53.5 -60t20.5 -94q0 -106 -71.5 -155t-186.5 -49q-62 0 -119.5 12t-83.5 25v151h49l19 -85q2 -11 5 -14.5t12 -7.5
q56 -21 127 -21q178 0 178 139q0 43 -20.5 72.5t-53.5 45.5t-72.5 28t-79.5 26t-73 34t-53.5 57.5t-20.5 90.5q0 99 68 147.5t177 48.5q88 0 178 -33v-160zM431 872l-197 -106l-24 38l181 131z" />
    <glyph glyph-name="sacute" unicode="&#x15b;" horiz-adv-x="449" 
d="M393 371l-51 3l-12 66q-2 10 -11 13q-34 12 -83 12q-59 0 -88 -23.5t-29 -61.5q0 -18 7.5 -32.5t17 -23t30 -17t33 -12t39.5 -10.5q38 -10 59 -17.5t49 -24t41 -43t13 -63.5q0 -78 -55 -113.5t-138 -35.5q-52 0 -104.5 11.5t-70.5 21.5v123l51 -3l12 -66q2 -10 11 -13
q50 -18 108 -18q121 0 121 87q0 23 -9 39.5t-29 27.5t-37 16.5t-47 13.5q-34 8 -49 12t-42.5 16t-40 25t-23.5 36.5t-11 54.5q0 77 54.5 113t136.5 36q86 0 147 -27v-123zM346 708l-175 -139l-32 32l155 160z" />
    <glyph glyph-name="Scircumflex" unicode="&#x15c;" horiz-adv-x="581" 
d="M500 544l-51 5l-17 86q-3 16 -6 19q-6 8 -36.5 15t-71.5 7q-84 0 -127 -33.5t-43 -94.5q0 -41 20.5 -69t53.5 -43t72.5 -27t79.5 -27t73 -36t53.5 -60t20.5 -94q0 -106 -71.5 -155t-186.5 -49q-62 0 -119.5 12t-83.5 25v151h49l19 -85q2 -11 5 -14.5t12 -7.5
q56 -21 127 -21q178 0 178 139q0 43 -20.5 72.5t-53.5 45.5t-72.5 28t-79.5 26t-73 34t-53.5 57.5t-20.5 90.5q0 99 68 147.5t177 48.5q88 0 178 -33v-160zM424 766l-119 84l-119 -84l-35 34l116 99h76l116 -99z" />
    <glyph glyph-name="scircumflex" unicode="&#x15d;" horiz-adv-x="449" 
d="M393 371l-51 3l-12 66q-2 10 -11 13q-34 12 -83 12q-59 0 -88 -23.5t-29 -61.5q0 -18 7.5 -32.5t17 -23t30 -17t33 -12t39.5 -10.5q38 -10 59 -17.5t49 -24t41 -43t13 -63.5q0 -78 -55 -113.5t-138 -35.5q-52 0 -104.5 11.5t-70.5 21.5v123l51 -3l12 -66q2 -10 11 -13
q50 -18 108 -18q121 0 121 87q0 23 -9 39.5t-29 27.5t-37 16.5t-47 13.5q-34 8 -49 12t-42.5 16t-40 25t-23.5 36.5t-11 54.5q0 77 54.5 113t136.5 36q86 0 147 -27v-123zM394 609l-38 -33l-124 104l-124 -104l-38 33l124 120h76z" />
    <glyph glyph-name="Scedilla" unicode="&#x15e;" horiz-adv-x="581" 
d="M204 -224l6 46q15 -3 33 -3q75 0 75 55q0 46 -72 47l9 67q-61 1 -116 13t-79 24v151h49l19 -85q2 -11 5 -14.5t12 -7.5q56 -21 127 -21q178 0 178 139q0 43 -20.5 72.5t-53.5 45.5t-72.5 28t-79.5 26t-73 34t-53.5 57.5t-20.5 90.5q0 99 68 147.5t177 48.5q88 0 178 -33
v-160l-51 5l-17 86q-3 16 -6 19q-6 8 -36.5 15t-71.5 7q-84 0 -127 -33.5t-43 -94.5q0 -41 20.5 -69t53.5 -43t72.5 -27t79.5 -27t73 -36t53.5 -60t20.5 -94q0 -95 -58 -144t-155 -58l-4 -34q32 -6 52 -26t20 -53q0 -42 -31 -73.5t-97 -31.5q-25 0 -44 4z" />
    <glyph glyph-name="scedilla" unicode="&#x15f;" horiz-adv-x="449" 
d="M393 371l-51 3l-12 66q-2 10 -11 13q-34 12 -83 12q-59 0 -88 -23.5t-29 -61.5q0 -18 7.5 -32.5t17 -23t30 -17t33 -12t39.5 -10.5q38 -10 59 -17.5t49 -24t41 -43t13 -63.5q0 -72 -47 -107.5t-121 -40.5l-4 -33q32 -6 52 -26t20 -53q0 -42 -31 -73.5t-97 -31.5
q-25 0 -44 4l6 46q15 -3 33 -3q75 0 75 55q0 46 -72 47l9 68q-46 3 -89.5 13.5t-57.5 18.5v123l51 -3l12 -66q2 -10 11 -13q50 -18 108 -18q121 0 121 87q0 23 -9 39.5t-29 27.5t-37 16.5t-47 13.5q-34 8 -49 12t-42.5 16t-40 25t-23.5 36.5t-11 54.5q0 77 54.5 113
t136.5 36q86 0 147 -27v-123z" />
    <glyph glyph-name="Scaron" unicode="&#x160;" horiz-adv-x="581" 
d="M500 544l-51 5l-17 86q-3 16 -6 19q-6 8 -36.5 15t-71.5 7q-84 0 -127 -33.5t-43 -94.5q0 -41 20.5 -69t53.5 -43t72.5 -27t79.5 -27t73 -36t53.5 -60t20.5 -94q0 -106 -71.5 -155t-186.5 -49q-62 0 -119.5 12t-83.5 25v151h49l19 -85q2 -11 5 -14.5t12 -7.5
q56 -21 127 -21q178 0 178 139q0 43 -20.5 72.5t-53.5 45.5t-72.5 28t-79.5 26t-73 34t-53.5 57.5t-20.5 90.5q0 99 68 147.5t177 48.5q88 0 178 -33v-160zM459 875l-116 -99h-76l-116 99l35 34l119 -84l119 84z" />
    <glyph glyph-name="scaron" unicode="&#x161;" horiz-adv-x="449" 
d="M393 371l-51 3l-12 66q-2 10 -11 13q-34 12 -83 12q-59 0 -88 -23.5t-29 -61.5q0 -18 7.5 -32.5t17 -23t30 -17t33 -12t39.5 -10.5q38 -10 59 -17.5t49 -24t41 -43t13 -63.5q0 -78 -55 -113.5t-138 -35.5q-52 0 -104.5 11.5t-70.5 21.5v123l51 -3l12 -66q2 -10 11 -13
q50 -18 108 -18q121 0 121 87q0 23 -9 39.5t-29 27.5t-37 16.5t-47 13.5q-34 8 -49 12t-42.5 16t-40 25t-23.5 36.5t-11 54.5q0 77 54.5 113t136.5 36q86 0 147 -27v-123zM270 576h-76l-121 119l37 34l122 -104l126 104l38 -33z" />
    <glyph glyph-name="uni0162" unicode="&#x162;" horiz-adv-x="642" 
d="M234 -224l6 46q15 -3 33 -3q75 0 75 55q0 46 -72 47l11 79h-119v45l103 7q10 1 13 4.5t3 15.5v596h-175q-14 0 -16 -11l-16 -87h-50v154h582v-154h-50l-16 87q-2 11 -16 11h-176v-596q0 -11 2.5 -14.5t13.5 -4.5l110 -8v-45h-140l-6 -44q32 -6 52 -26t20 -53
q0 -42 -31 -73.5t-97 -31.5q-25 0 -44 4z" />
    <glyph glyph-name="uni0163" unicode="&#x163;" horiz-adv-x="405" 
d="M356 68l19 -52q-64 -26 -116 -28l-4 -32q32 -6 52 -26t20 -53q0 -42 -31 -73.5t-97 -31.5q-25 0 -44 4l6 46q15 -3 33 -3q75 0 75 55q0 46 -72 47l9 71q-89 16 -89 120v333q0 10 -8 10h-74v45q55 7 74.5 33.5t29.5 101.5h45v-114q0 -10 8 -10h149v-56h-157v-318
q0 -49 16.5 -69t59.5 -20t96 20z" />
    <glyph glyph-name="Tcaron" unicode="&#x164;" horiz-adv-x="642" 
d="M480 0h-312v45l103 7q10 1 13 4.5t3 15.5v596h-175q-14 0 -16 -11l-16 -87h-50v154h582v-154h-50l-16 87q-2 11 -16 11h-176v-596q0 -11 2.5 -14.5t13.5 -4.5l110 -8v-45zM475 875l-116 -99h-76l-116 99l35 34l119 -84l119 84z" />
    <glyph glyph-name="tcaron" unicode="&#x165;" horiz-adv-x="405" 
d="M356 68l19 -52q-71 -28 -129 -28q-129 0 -129 124v333q0 10 -8 10h-74v45q55 7 74.5 33.5t29.5 101.5h45v-114q0 -10 8 -10h149v-56h-157v-318q0 -49 16.5 -69t59.5 -20t96 20zM293 558l-40 12q19 59 19 96q0 35 -15 65l58 28q26 -26 26 -53q0 -19 -8 -46
q-13 -42 -40 -102z" />
    <glyph glyph-name="Tbar" unicode="&#x166;" horiz-adv-x="642" 
d="M480 0h-312v45l103 7q10 1 13 4.5t3 15.5v261h-134v57h134v278h-175q-14 0 -16 -11l-16 -87h-50v154h582v-154h-50l-16 87q-2 11 -16 11h-176v-278h133v-57h-133v-261q0 -11 2.5 -14.5t13.5 -4.5l110 -8v-45z" />
    <glyph glyph-name="tbar" unicode="&#x167;" horiz-adv-x="405" 
d="M356 68l19 -52q-71 -28 -129 -28q-129 0 -129 124v133h-82v55h82v145q0 10 -8 10h-74v45q55 7 74.5 33.5t29.5 101.5h45v-114q0 -10 8 -10h149v-56h-157v-155h157v-55h-157v-108q0 -49 16.5 -69t59.5 -20t96 20z" />
    <glyph glyph-name="Utilde" unicode="&#x168;" horiz-adv-x="789" 
d="M582 238v415q0 12 -3 15.5t-13 4.5l-63 7v44h229v-44l-67 -8q-11 -1 -13.5 -4.5t-2.5 -14.5v-418q0 -247 -260 -247q-131 0 -190 62t-59 186v417q0 12 -3 15.5t-13 4.5l-63 7v44h229v-44l-67 -8q-11 -1 -13.5 -4.5t-2.5 -14.5v-413q0 -103 47.5 -148t140.5 -45
q95 0 141 43.5t46 147.5zM347 880l134 -35q10 -3 16 3l39 39l36 -27l-23 -32q-33 -46 -62 -46q-16 0 -29 4l-137 36q-10 3 -16 -3l-42 -41l-36 27l29 41q27 39 58 39q11 0 33 -5z" />
    <glyph glyph-name="utilde" unicode="&#x169;" horiz-adv-x="629" 
d="M591 0h-123l-9 73l-2 1q-94 -86 -197 -86q-80 0 -112 46.5t-32 137.5v258q0 13 -2.5 17.5t-13.5 6.5l-53 15l7 42h129v-321q0 -77 19 -111t71 -34q95 0 183 103v283q0 13 -2.5 17t-13.5 6l-54 15l7 42h130v-439q0 -20 13 -21l55 -7v-44zM480 669l-23 -32q-33 -46 -62 -46
q-16 0 -29 4q-28 7 -77 20t-60 16q-10 3 -16 -3l-42 -41l-36 27l29 41q27 39 58 39q11 0 33 -5q90 -24 134 -35q10 -3 16 3l39 39z" />
    <glyph glyph-name="Umacron" unicode="&#x16a;" horiz-adv-x="789" 
d="M582 238v415q0 12 -3 15.5t-13 4.5l-63 7v44h229v-44l-67 -8q-11 -1 -13.5 -4.5t-2.5 -14.5v-418q0 -247 -260 -247q-131 0 -190 62t-59 186v417q0 12 -3 15.5t-13 4.5l-63 7v44h229v-44l-67 -8q-11 -1 -13.5 -4.5t-2.5 -14.5v-413q0 -103 47.5 -148t140.5 -45
q95 0 141 43.5t46 147.5zM551 797h-303v57h303v-57z" />
    <glyph glyph-name="umacron" unicode="&#x16b;" horiz-adv-x="629" 
d="M591 0h-123l-9 73l-2 1q-94 -86 -197 -86q-80 0 -112 46.5t-32 137.5v258q0 13 -2.5 17.5t-13.5 6.5l-53 15l7 42h129v-321q0 -77 19 -111t71 -34q95 0 183 103v283q0 13 -2.5 17t-13.5 6l-54 15l7 42h130v-439q0 -20 13 -21l55 -7v-44zM459 616h-303v57h303v-57z" />
    <glyph glyph-name="Ubreve" unicode="&#x16c;" horiz-adv-x="789" 
d="M582 238v415q0 12 -3 15.5t-13 4.5l-63 7v44h229v-44l-67 -8q-11 -1 -13.5 -4.5t-2.5 -14.5v-418q0 -247 -260 -247q-131 0 -190 62t-59 186v417q0 12 -3 15.5t-13 4.5l-63 7v44h229v-44l-67 -8q-11 -1 -13.5 -4.5t-2.5 -14.5v-413q0 -103 47.5 -148t140.5 -45
q95 0 141 43.5t46 147.5zM498 913l51 -19q-32 -112 -150 -112q-122 0 -150 112l55 19q14 -38 35.5 -57t61.5 -19t61 19.5t36 56.5z" />
    <glyph glyph-name="ubreve" unicode="&#x16d;" horiz-adv-x="629" 
d="M591 0h-123l-9 73l-2 1q-94 -86 -197 -86q-80 0 -112 46.5t-32 137.5v258q0 13 -2.5 17.5t-13.5 6.5l-53 15l7 42h129v-321q0 -77 19 -111t71 -34q95 0 183 103v283q0 13 -2.5 17t-13.5 6l-54 15l7 42h130v-439q0 -20 13 -21l55 -7v-44zM412 724l50 -19
q-18 -65 -54.5 -98.5t-102.5 -33.5t-102 34t-51 98l54 19q15 -48 37 -72t64 -24t65 24t40 72z" />
    <glyph glyph-name="Uring" unicode="&#x16e;" horiz-adv-x="789" 
d="M582 238v415q0 12 -3 15.5t-13 4.5l-63 7v44h229v-44l-67 -8q-11 -1 -13.5 -4.5t-2.5 -14.5v-418q0 -247 -260 -247q-131 0 -190 62t-59 186v417q0 12 -3 15.5t-13 4.5l-63 7v44h229v-44l-67 -8q-11 -1 -13.5 -4.5t-2.5 -14.5v-413q0 -103 47.5 -148t140.5 -45
q95 0 141 43.5t46 147.5zM485 839q0 -37 -22 -59t-60 -22t-60 21t-22 58q0 39 23 60.5t59 21.5t59 -21t23 -59zM403 799q36 0 36 40q0 38 -36 38q-37 0 -37 -40q0 -38 37 -38z" />
    <glyph glyph-name="uring" unicode="&#x16f;" horiz-adv-x="629" 
d="M591 0h-123l-9 73l-2 1q-94 -86 -197 -86q-80 0 -112 46.5t-32 137.5v258q0 13 -2.5 17.5t-13.5 6.5l-53 15l7 42h129v-321q0 -77 19 -111t71 -34q95 0 183 103v283q0 13 -2.5 17t-13.5 6l-54 15l7 42h130v-439q0 -20 13 -21l55 -7v-44zM404 644q0 -40 -24 -62t-66 -22
q-41 0 -65 21.5t-24 60.5q0 42 25 64t64 22q40 0 65 -21t25 -63zM314 605q40 0 40 39q0 38 -40 38t-40 -40q0 -37 40 -37z" />
    <glyph glyph-name="Uhungarumlaut" unicode="&#x170;" horiz-adv-x="789" 
d="M582 238v415q0 12 -3 15.5t-13 4.5l-63 7v44h229v-44l-67 -8q-11 -1 -13.5 -4.5t-2.5 -14.5v-418q0 -247 -260 -247q-131 0 -190 62t-59 186v417q0 12 -3 15.5t-13 4.5l-63 7v44h229v-44l-67 -8q-11 -1 -13.5 -4.5t-2.5 -14.5v-413q0 -103 47.5 -148t140.5 -45
q95 0 141 43.5t46 147.5zM472 909l-170 -144l-31 32l149 166zM641 898l-177 -135l-30 34l158 157z" />
    <glyph glyph-name="uhungarumlaut" unicode="&#x171;" horiz-adv-x="629" 
d="M591 0h-123l-9 73l-2 1q-94 -86 -197 -86q-80 0 -112 46.5t-32 137.5v258q0 13 -2.5 17.5t-13.5 6.5l-53 15l7 42h129v-321q0 -77 19 -111t71 -34q95 0 183 103v283q0 13 -2.5 17t-13.5 6l-54 15l7 42h130v-439q0 -20 13 -21l55 -7v-44zM356 730l-156 -159l-35 27
l133 179zM518 730l-156 -159l-36 27l134 178z" />
    <glyph glyph-name="Uogonek" unicode="&#x172;" horiz-adv-x="789" 
d="M506 -143l18 -49q-42 -20 -83 -20q-39 0 -61.5 18.5t-22.5 56.5q0 61 74 127q-28 -2 -42 -2q-131 0 -190 62t-59 186v417q0 12 -3 15.5t-13 4.5l-63 7v44h229v-44l-67 -8q-11 -1 -13.5 -4.5t-2.5 -14.5v-413q0 -103 47.5 -148t140.5 -45q95 0 141 43.5t46 147.5v415
q0 12 -3 15.5t-13 4.5l-63 7v44h229v-44l-67 -8q-11 -1 -13.5 -4.5t-2.5 -14.5v-418q0 -151 -113 -223q-38 -24 -73.5 -62t-35.5 -72q0 -33 32 -33q20 0 47 12z" />
    <glyph glyph-name="uogonek" unicode="&#x173;" horiz-adv-x="629" 
d="M591 0q-106 -65 -106 -122q0 -33 32 -33q20 0 47 12l18 -49q-42 -20 -83 -20q-39 0 -61.5 18.5t-22.5 56.5q0 72 99 137h-46l-9 73l-2 1q-94 -86 -197 -86q-80 0 -112 46.5t-32 137.5v258q0 13 -2.5 17.5t-13.5 6.5l-53 15l7 42h129v-321q0 -77 19 -111t71 -34
q95 0 183 103v283q0 13 -2.5 17t-13.5 6l-54 15l7 42h130v-439q0 -20 13 -21l55 -7v-44z" />
    <glyph glyph-name="Wcircumflex" unicode="&#x174;" horiz-adv-x="973" 
d="M719 0h-85l-144 493l-149 -493h-78l-171 651q-4 17 -20 19l-62 10l10 44h229v-44l-91 -10l148 -590l147 493h77l146 -503l151 600l-93 10l10 44h219v-44l-54 -9q-10 -1 -14 -5t-7 -15zM614 766l-119 84l-119 -84l-35 34l116 99h76l116 -99z" />
    <glyph glyph-name="wcircumflex" unicode="&#x175;" horiz-adv-x="825" 
d="M613 0h-81l-109 421l-122 -421h-80l-147 441q-4 13 -21 17l-43 9l10 44h185v-44l-67 -8l125 -391l123 428h77l111 -426l120 389l-68 8l10 44h179v-44l-36 -6q-14 -2 -18.5 -6t-7.5 -14q-35 -112 -140 -441zM584 609l-38 -33l-124 104l-124 -104l-38 33l124 120h76z" />
    <glyph glyph-name="Ycircumflex" unicode="&#x176;" horiz-adv-x="596" 
d="M450 0h-289v44l93 7q10 1 13 4.5t3 15.5v213l-201 368q-7 13 -24 17l-45 11l10 44h198v-44l-74 -9l171 -325l167 325l-72 9l10 44h186v-44l-42 -11q-18 -5 -25 -19l-192 -363v-215q0 -12 2.5 -15.5t13.5 -4.5l97 -8v-44zM424 766l-119 84l-119 -84l-35 34l116 99h76
l116 -99z" />
    <glyph glyph-name="ycircumflex" unicode="&#x177;" horiz-adv-x="567" 
d="M339 -212h-246v45l70 8q8 1 12 5t9 16l64 148l-176 430q-5 13 -21 17l-41 10l10 44h190v-44l-68 -8l143 -369l149 369l-69 8l10 44h182v-44l-34 -5q-19 -3 -25 -17l-253 -604l94 -9v-44zM445 609l-38 -33l-124 104l-124 -104l-38 33l124 120h76z" />
    <glyph glyph-name="Ydieresis" unicode="&#x178;" horiz-adv-x="596" 
d="M450 0h-289v44l93 7q10 1 13 4.5t3 15.5v213l-201 368q-7 13 -24 17l-45 11l10 44h198v-44l-74 -9l171 -325l167 325l-72 9l10 44h186v-44l-42 -11q-18 -5 -25 -19l-192 -363v-215q0 -12 2.5 -15.5t13.5 -4.5l97 -8v-44zM256 831q0 -22 -13.5 -35.5t-36.5 -13.5
t-36.5 13.5t-13.5 35.5t13.5 35.5t36.5 13.5t36.5 -13.5t13.5 -35.5zM455 831q0 -22 -13.5 -35.5t-36.5 -13.5t-36.5 13.5t-13.5 35.5t13.5 35.5t36.5 13.5t36.5 -13.5t13.5 -35.5z" />
    <glyph glyph-name="Zacute" unicode="&#x179;" horiz-adv-x="633" 
d="M573 0h-523v46l433 622h-332q-14 0 -16 -11l-19 -93l-52 -3v163h502v-48l-431 -620h351q14 0 16 11l19 107h52v-174zM437 872l-197 -106l-24 38l181 131z" />
    <glyph glyph-name="zacute" unicode="&#x17a;" horiz-adv-x="476" 
d="M441 0h-401v42l312 413h-221q-9 0 -11 -13l-12 -66l-53 -3v138h384v-44l-310 -411h236q9 0 11 13l12 76l53 3v-148zM362 708l-175 -139l-32 32l155 160z" />
    <glyph glyph-name="Zdotaccent" unicode="&#x17b;" horiz-adv-x="633" 
d="M573 0h-523v46l433 622h-332q-14 0 -16 -11l-19 -93l-52 -3v163h502v-48l-431 -620h351q14 0 16 11l19 107h52v-174zM365 835q0 -53 -54 -53t-54 53t54 53t54 -53z" />
    <glyph glyph-name="zdotaccent" unicode="&#x17c;" horiz-adv-x="476" 
d="M441 0h-401v42l312 413h-221q-9 0 -11 -13l-12 -66l-53 -3v138h384v-44l-310 -411h236q9 0 11 13l12 76l53 3v-148zM302 688q0 -53 -54 -53t-54 53t54 53t54 -53z" />
    <glyph glyph-name="Zcaron" unicode="&#x17d;" horiz-adv-x="633" 
d="M573 0h-523v46l433 622h-332q-14 0 -16 -11l-19 -93l-52 -3v163h502v-48l-431 -620h351q14 0 16 11l19 107h52v-174zM465 875l-116 -99h-76l-116 99l35 34l119 -84l119 84z" />
    <glyph glyph-name="zcaron" unicode="&#x17e;" horiz-adv-x="476" 
d="M441 0h-401v42l312 413h-221q-9 0 -11 -13l-12 -66l-53 -3v138h384v-44l-310 -411h236q9 0 11 13l12 76l53 3v-148zM286 576h-76l-121 119l37 34l122 -104l126 104l38 -33z" />
    <glyph glyph-name="longs" unicode="&#x17f;" horiz-adv-x="394" 
d="M326 0h-281v45l67 6q10 1 13 4.5t3 15.5v525q0 170 171 170q66 0 102 -23.5t36 -86.5l-63 -9q0 38 -18 50t-60 12q-59 0 -80 -28.5t-21 -87.5v-521q0 -12 2.5 -15.5t13.5 -4.5l115 -8v-44z" />
    <glyph glyph-name="florin" unicode="&#x192;" horiz-adv-x="482" 
d="M399 321h-155l-42 -242q-14 -83 -48.5 -122.5t-107.5 -39.5q-32 0 -67 10t-52 23l23 50q44 -28 101 -28q65 0 79 82l45 257q2 10 -6 10h-94l10 56h102l20 105q15 83 53 123t116 40q63 0 117 -29l-21 -121l-47 3l-1 70q0 11 -8 14q-19 7 -46 7q-47 0 -67.5 -27.5
t-30.5 -83.5l-17 -91q-1 -10 7 -10h147z" />
    <glyph glyph-name="Scommaaccent" unicode="&#x218;" horiz-adv-x="581" 
d="M500 544l-51 5l-17 86q-3 16 -6 19q-6 8 -36.5 15t-71.5 7q-84 0 -127 -33.5t-43 -94.5q0 -41 20.5 -69t53.5 -43t72.5 -27t79.5 -27t73 -36t53.5 -60t20.5 -94q0 -106 -71.5 -155t-186.5 -49q-62 0 -119.5 12t-83.5 25v151h49l19 -85q2 -11 5 -14.5t12 -7.5
q56 -21 127 -21q178 0 178 139q0 43 -20.5 72.5t-53.5 45.5t-72.5 28t-79.5 26t-73 34t-53.5 57.5t-20.5 90.5q0 99 68 147.5t177 48.5q88 0 178 -33v-160zM275 -258l-36 14l25 92q1 7 -5 10l-34 15l19 65q49 -4 70.5 -16t21.5 -43q0 -23 -16 -53z" />
    <glyph glyph-name="scommaaccent" unicode="&#x219;" horiz-adv-x="449" 
d="M393 371l-51 3l-12 66q-2 10 -11 13q-34 12 -83 12q-59 0 -88 -23.5t-29 -61.5q0 -18 7.5 -32.5t17 -23t30 -17t33 -12t39.5 -10.5q38 -10 59 -17.5t49 -24t41 -43t13 -63.5q0 -78 -55 -113.5t-138 -35.5q-52 0 -104.5 11.5t-70.5 21.5v123l51 -3l12 -66q2 -10 11 -13
q50 -18 108 -18q121 0 121 87q0 23 -9 39.5t-29 27.5t-37 16.5t-47 13.5q-34 8 -49 12t-42.5 16t-40 25t-23.5 36.5t-11 54.5q0 77 54.5 113t136.5 36q86 0 147 -27v-123zM215 -258l-36 14l25 92q1 7 -5 10l-34 15l19 65q49 -4 70.5 -16t21.5 -43q0 -23 -16 -53z" />
    <glyph glyph-name="uni021A" unicode="&#x21a;" horiz-adv-x="642" 
d="M480 0h-312v45l103 7q10 1 13 4.5t3 15.5v596h-175q-14 0 -16 -11l-16 -87h-50v154h582v-154h-50l-16 87q-2 11 -16 11h-176v-596q0 -11 2.5 -14.5t13.5 -4.5l110 -8v-45zM308 -258l-36 14l25 92q1 7 -5 10l-34 15l19 65q49 -4 70.5 -16t21.5 -43q0 -23 -16 -53z" />
    <glyph glyph-name="uni021B" unicode="&#x21b;" horiz-adv-x="400" 
d="M351 68l19 -52q-71 -28 -129 -28q-129 0 -129 124v333q0 10 -8 10h-74v45q55 7 74.5 33.5t29.5 101.5h45v-114q0 -10 8 -10h149v-56h-157v-318q0 -49 16.5 -69t59.5 -20t96 20zM223 -258l-36 14l25 92q1 7 -5 10l-34 15l19 65q49 -4 70.5 -16t21.5 -43q0 -23 -16 -53z
" />
    <glyph glyph-name="dotlessj" unicode="&#x237;" horiz-adv-x="278" 
d="M114 -55v484q0 17 -12 21l-68 19l8 42h139v-581q0 -79 -32 -116t-104 -37q-36 0 -71 11.5t-54 27.5l33 49q38 -31 88 -31q44 0 58.5 26t14.5 85z" />
    <glyph glyph-name="apostrophe" unicode="&#x2bc;" horiz-adv-x="500" 
d="M245 519l-34 13l23 72q2 8 -3 12l-27 11l18 60q41 -2 60 -11.5t19 -37.5q0 -14 -12 -36z" />
    <glyph glyph-name="circumflex" unicode="&#x2c6;" horiz-adv-x="500" 
d="M412 609l-38 -33l-124 104l-124 -104l-38 33l124 120h76z" />
    <glyph glyph-name="caron" unicode="&#x2c7;" horiz-adv-x="500" 
d="M285 576h-76l-121 119l37 34l122 -104l126 104l38 -33z" />
    <glyph glyph-name="uni02C9" unicode="&#x2c9;" horiz-adv-x="500" 
d="M401 616h-303v57h303v-57z" />
    <glyph glyph-name="breve" unicode="&#x2d8;" horiz-adv-x="500" 
d="M355 724l50 -19q-18 -65 -54.5 -98.5t-102.5 -33.5t-102 34t-51 98l54 19q15 -48 37 -72t64 -24t65 24t40 72z" />
    <glyph glyph-name="dotaccent" unicode="&#x2d9;" horiz-adv-x="500" 
d="M304 688q0 -53 -54 -53t-54 53t54 53t54 -53z" />
    <glyph glyph-name="ring" unicode="&#x2da;" horiz-adv-x="500" 
d="M347 684q0 -40 -24 -62t-66 -22q-41 0 -65 21.5t-24 60.5q0 42 25 64t64 22q40 0 65 -21t25 -63zM257 645q40 0 40 39q0 38 -40 38t-40 -40q0 -37 40 -37z" />
    <glyph glyph-name="ogonek" unicode="&#x2db;" horiz-adv-x="500" 
d="M310 -143l18 -49q-42 -20 -83 -20q-39 0 -61.5 18.5t-22.5 56.5q0 70 109 156l53 -15q-92 -74 -92 -126q0 -33 32 -33q20 0 47 12z" />
    <glyph glyph-name="tilde" unicode="&#x2dc;" horiz-adv-x="500" 
d="M422 669l-23 -32q-33 -46 -62 -46q-16 0 -29 4q-28 7 -77 20t-60 16q-10 3 -16 -3l-42 -41l-36 27l29 41q27 39 58 39q11 0 33 -5q90 -24 134 -35q10 -3 16 3l39 39z" />
    <glyph glyph-name="hungarumlaut" unicode="&#x2dd;" horiz-adv-x="500" 
d="M264 730l-156 -159l-35 27l133 179zM426 730l-156 -159l-36 27l134 178z" />
    <glyph glyph-name="uni0394" unicode="&#x394;" horiz-adv-x="652" 
d="M622 0h-592l247 724h92zM322 669l-205 -611h409z" />
    <glyph glyph-name="uni03A9" unicode="&#x3a9;" horiz-adv-x="829" 
d="M769 0h-270v134q42 17 81 50t71.5 96t32.5 139q0 127 -68 193t-189 66q-124 0 -198.5 -71.5t-74.5 -205.5q0 -106 52 -171.5t132 -95.5v-134h-278v154h50l16 -87q2 -11 16 -11h134v53q-92 36 -142 114t-50 177q0 152 93 244.5t252 92.5q161 0 242.5 -86t81.5 -227
q0 -102 -54 -185t-139 -130v-53h127q14 0 16 11l16 87h50v-154z" />
    <glyph glyph-name="uni03BC" unicode="&#x3bc;" horiz-adv-x="629" 
d="M108 -176v687h67v-336q0 -69 20.5 -99.5t72.5 -30.5q92 0 180 103v363h67v-439q0 -20 13 -21l55 -7v-44h-124l-8 71l-3 1q-99 -84 -189 -84q-59 0 -86 35l-3 -2l5 -197h-67z" />
    <glyph glyph-name="pi" unicode="&#x3c0;" horiz-adv-x="664" 
d="M598 0h-134v450h-268v-450h-134v44l51 7q16 1 16 12v377q0 12 -3 15.5t-13 4.5l-63 7v44h564v-44l-67 -8q-11 -1 -13.5 -4.5t-2.5 -14.5v-369q0 -12 2.5 -15.5t13.5 -4.5l51 -7v-44z" />
    <glyph glyph-name="Wgrave" unicode="&#x1e80;" horiz-adv-x="973" 
d="M719 0h-85l-144 493l-149 -493h-78l-171 651q-4 17 -20 19l-62 10l10 44h229v-44l-91 -10l148 -590l147 493h77l146 -503l151 600l-93 10l10 44h219v-44l-54 -9q-10 -1 -14 -5t-7 -15zM563 765l-197 106l40 63l181 -131z" />
    <glyph glyph-name="wgrave" unicode="&#x1e81;" horiz-adv-x="825" 
d="M613 0h-81l-109 421l-122 -421h-80l-147 441q-4 13 -21 17l-43 9l10 44h185v-44l-67 -8l125 -391l123 428h77l111 -426l120 389l-68 8l10 44h179v-44l-36 -6q-14 -2 -18.5 -6t-7.5 -14q-35 -112 -140 -441zM517 601l-32 -32l-175 139l52 53z" />
    <glyph glyph-name="Wacute" unicode="&#x1e82;" horiz-adv-x="973" 
d="M719 0h-85l-144 493l-149 -493h-78l-171 651q-4 17 -20 19l-62 10l10 44h229v-44l-91 -10l148 -590l147 493h77l146 -503l151 600l-93 10l10 44h219v-44l-54 -9q-10 -1 -14 -5t-7 -15zM616 872l-197 -106l-24 38l181 131z" />
    <glyph glyph-name="wacute" unicode="&#x1e83;" horiz-adv-x="825" 
d="M613 0h-81l-109 421l-122 -421h-80l-147 441q-4 13 -21 17l-43 9l10 44h185v-44l-67 -8l125 -391l123 428h77l111 -426l120 389l-68 8l10 44h179v-44l-36 -6q-14 -2 -18.5 -6t-7.5 -14q-35 -112 -140 -441zM536 708l-175 -139l-32 32l155 160z" />
    <glyph glyph-name="Wdieresis" unicode="&#x1e84;" horiz-adv-x="973" 
d="M719 0h-85l-144 493l-149 -493h-78l-171 651q-4 17 -20 19l-62 10l10 44h229v-44l-91 -10l148 -590l147 493h77l146 -503l151 600l-93 10l10 44h219v-44l-54 -9q-10 -1 -14 -5t-7 -15zM441 831q0 -22 -13.5 -35.5t-36.5 -13.5t-36.5 13.5t-13.5 35.5t13.5 35.5t36.5 13.5
t36.5 -13.5t13.5 -35.5zM640 831q0 -22 -13.5 -35.5t-36.5 -13.5t-36.5 13.5t-13.5 35.5t13.5 35.5t36.5 13.5t36.5 -13.5t13.5 -35.5z" />
    <glyph glyph-name="wdieresis" unicode="&#x1e85;" horiz-adv-x="825" 
d="M613 0h-81l-109 421l-122 -421h-80l-147 441q-4 13 -21 17l-43 9l10 44h185v-44l-67 -8l125 -391l123 428h77l111 -426l120 389l-68 8l10 44h179v-44l-36 -6q-14 -2 -18.5 -6t-7.5 -14q-35 -112 -140 -441zM373 658q0 -22 -13.5 -35.5t-36.5 -13.5t-36.5 13.5t-13.5 35.5
t13.5 35.5t36.5 13.5t36.5 -13.5t13.5 -35.5zM572 658q0 -22 -13.5 -35.5t-36.5 -13.5t-36.5 13.5t-13.5 35.5t13.5 35.5t36.5 13.5t36.5 -13.5t13.5 -35.5z" />
    <glyph glyph-name="Ygrave" unicode="&#x1ef2;" horiz-adv-x="596" 
d="M450 0h-289v44l93 7q10 1 13 4.5t3 15.5v213l-201 368q-7 13 -24 17l-45 11l10 44h198v-44l-74 -9l171 -325l167 325l-72 9l10 44h186v-44l-42 -11q-18 -5 -25 -19l-192 -363v-215q0 -12 2.5 -15.5t13.5 -4.5l97 -8v-44zM378 765l-197 106l40 63l181 -131z" />
    <glyph glyph-name="ygrave" unicode="&#x1ef3;" horiz-adv-x="567" 
d="M339 -212h-246v45l70 8q8 1 12 5t9 16l64 148l-176 430q-5 13 -21 17l-41 10l10 44h190v-44l-68 -8l143 -369l149 369l-69 8l10 44h182v-44l-34 -5q-19 -3 -25 -17l-253 -604l94 -9v-44zM378 601l-32 -32l-175 139l52 53z" />
    <glyph glyph-name="endash" unicode="&#x2013;" horiz-adv-x="499" 
d="M499 255h-499v54h499v-54z" />
    <glyph glyph-name="emdash" unicode="&#x2014;" horiz-adv-x="1000" 
d="M999 255h-999v54h999v-54z" />
    <glyph glyph-name="quoteleft" unicode="&#x2018;" horiz-adv-x="177" 
d="M152 625l-20 -66q-30 2 -47 5.5t-28.5 15.5t-11.5 33q0 15 13 41l53 101l36 -14l-29 -94q-1 -6 5 -9z" />
    <glyph glyph-name="quoteright" unicode="&#x2019;" horiz-adv-x="177" 
d="M66 559l-36 14l29 94q1 6 -5 9l-29 13l20 66q30 -2 47 -5.5t28.5 -15.5t11.5 -33q0 -15 -13 -41z" />
    <glyph glyph-name="quotesinglbase" unicode="&#x201a;" horiz-adv-x="166" 
d="M75 -117l-36 14l29 94q1 6 -5 9l-29 13l20 66q30 -2 47 -5.5t28.5 -15.5t11.5 -33q0 -20 -13 -41z" />
    <glyph glyph-name="quotedblleft" unicode="&#x201c;" horiz-adv-x="320" 
d="M295 625l-20 -66q-30 2 -47 5.5t-28.5 15.5t-11.5 33q0 15 13 41l53 101l36 -14l-29 -94q-1 -6 5 -9zM152 625l-20 -66q-30 2 -47 5.5t-28.5 15.5t-11.5 33q0 15 13 41l53 101l36 -14l-29 -94q-1 -6 5 -9z" />
    <glyph glyph-name="quotedblright" unicode="&#x201d;" horiz-adv-x="320" 
d="M209 559l-36 14l29 94q1 6 -5 9l-29 13l20 66q30 -2 47 -5.5t28.5 -15.5t11.5 -33q0 -15 -13 -41zM66 559l-36 14l29 94q1 6 -5 9l-29 13l20 66q30 -2 47 -5.5t28.5 -15.5t11.5 -33q0 -15 -13 -41z" />
    <glyph glyph-name="quotedblbase" unicode="&#x201e;" horiz-adv-x="309" 
d="M75 -117l-36 14l29 94q1 6 -5 9l-29 13l20 66q30 -2 47 -5.5t28.5 -15.5t11.5 -33q0 -20 -13 -41zM218 -117l-36 14l29 94q1 6 -5 9l-29 13l20 66q30 -2 47 -5.5t28.5 -15.5t11.5 -33q0 -20 -13 -41z" />
    <glyph glyph-name="dagger" unicode="&#x2020;" horiz-adv-x="389" 
d="M223 -83h-57v192l-13 211l25 112h33l25 -112l-13 -212v-191zM178 465v-33l-84 -15h-74v63h74zM178 465l-15 96v84h63v-84l-15 -96h-33zM369 417h-74l-84 15v33l84 15h74v-63z" />
    <glyph glyph-name="daggerdbl" unicode="&#x2021;" horiz-adv-x="409" 
d="M221 130h-33l-25 116v78l25 108h33l25 -108v-78zM379 82h-74l-84 15v33l84 15h74v-63zM221 465h-33l-15 96v84h63v-84zM188 432l-84 -15h-74v63h74l84 -15v-33zM236 -83h-63v84l15 96h33l15 -96v-84zM188 97l-84 -15h-74v63h74l84 -15v-33zM379 417h-74l-84 15v33l84 15
h74v-63z" />
    <glyph glyph-name="bullet" unicode="&#x2022;" horiz-adv-x="365" 
d="M314 280q0 -64 -34 -96.5t-98 -32.5q-63 0 -97 32.5t-34 96.5t34 96.5t97 32.5q64 0 98 -32.5t34 -96.5z" />
    <glyph glyph-name="ellipsis" unicode="&#x2026;" horiz-adv-x="549" 
d="M340 45q0 -57 -58 -57t-58 57t58 57t58 -57zM157 45q0 -57 -58 -57t-58 57t58 57t58 -57zM523 45q0 -57 -58 -57t-58 57t58 57t58 -57z" />
    <glyph glyph-name="perthousand" unicode="&#x2030;" horiz-adv-x="1059" 
d="M187 295q-73 0 -105 44t-32 114q0 75 37.5 121t106.5 46q137 0 137 -158q0 -77 -37 -122t-107 -45zM212 -17h-66l377 638h65zM190 345q80 0 80 114q0 110 -77 110q-44 0 -62.5 -33.5t-18.5 -79.5q0 -111 78 -111zM542 -12q-73 0 -105 44t-32 114q0 75 37.5 121t106.5 46
q137 0 137 -158q0 -77 -37 -122t-107 -45zM545 38q80 0 80 114q0 110 -77 110q-44 0 -62.5 -33.5t-18.5 -79.5q0 -111 78 -111zM865 -12q-73 0 -105 44t-32 114q0 75 37.5 121t106.5 46q137 0 137 -158q0 -77 -37 -122t-107 -45zM868 38q80 0 80 114q0 110 -77 110
q-44 0 -62.5 -33.5t-18.5 -79.5q0 -111 78 -111z" />
    <glyph glyph-name="guilsinglleft" unicode="&#x2039;" horiz-adv-x="278" 
d="M219 103h-66l-88 157l89 148h66l-73 -136q-6 -10 -1 -19z" />
    <glyph glyph-name="guilsinglright" unicode="&#x203a;" horiz-adv-x="278" 
d="M124 103h-66l73 141q6 10 1 19l-73 145h66l88 -153z" />
    <glyph glyph-name="fraction" unicode="&#x2044;" horiz-adv-x="134" 
d="M-83 -12h-64l356 736h63z" />
    <glyph glyph-name="zerosuperior" unicode="&#x2070;" horiz-adv-x="394" 
d="M195 342q-90 0 -122.5 58t-32.5 168q0 109 35.5 169t126.5 60q38 0 65.5 -11.5t44 -30.5t26.5 -49t13 -60t3 -70q0 -114 -34 -174t-125 -60zM198 391q54 0 72 44t18 136q0 45 -3 73t-11.5 53.5t-26.5 37t-47 11.5q-55 0 -74 -43.5t-19 -135.5q0 -89 18 -132.5t73 -43.5z
" />
    <glyph glyph-name="foursuperior" unicode="&#x2074;" horiz-adv-x="371" 
d="M284 453v-103h-60v104h-196v49l178 282h79v-280h57v-52h-58zM224 505v210l-132 -210h132z" />
    <glyph glyph-name="fivesuperior" unicode="&#x2075;" horiz-adv-x="353" 
d="M296 734h-181l-11 -139q38 28 89 28q57 0 91 -33.5t34 -94.5q0 -69 -39 -111t-115 -42q-96 0 -148 55l38 42q44 -44 106 -44q45 0 69 23.5t24 68.5q0 86 -77 86q-39 0 -81 -34l-46 19l15 228h232v-52z" />
    <glyph glyph-name="sixsuperior" unicode="&#x2076;" horiz-adv-x="372" 
d="M329 701l-60 -7q0 31 -14 43t-45 12q-102 0 -102 -166q48 39 107 39q58 0 89.5 -36.5t31.5 -96.5q0 -67 -38 -107t-105 -40q-149 0 -149 223q0 41 7 78t24.5 73.5t53.5 58.5t86 22q114 0 114 -96zM109 534q6 -143 86 -143q37 0 56.5 25.5t19.5 67.5q0 89 -68 89
q-25 0 -52.5 -13t-41.5 -26z" />
    <glyph glyph-name="sevensuperior" unicode="&#x2077;" horiz-adv-x="328" 
d="M166 350h-68q11 119 56 224.5t93 159.5h-157q-9 0 -10 -7l-11 -56l-44 -3v118h295v-46q-57 -56 -104 -174.5t-50 -215.5z" />
    <glyph glyph-name="eightsuperior" unicode="&#x2078;" horiz-adv-x="346" 
d="M234 577q39 -21 60.5 -46.5t21.5 -64.5q0 -57 -41.5 -90.5t-105.5 -33.5q-62 0 -100.5 30.5t-38.5 83.5q0 67 79 125q-62 39 -62 103q0 51 37 82t92 31q59 0 92.5 -29.5t33.5 -73.5q0 -60 -68 -117zM152 557q-64 -48 -64 -97q0 -32 23 -51.5t62 -19.5q35 0 57.5 21.5
t22.5 50.5q0 8 -1.5 15.5t-5.5 14.5t-7.5 12t-11.5 11t-12 9.5t-15 9t-15 8t-16.5 8.5t-16.5 8zM190 600q54 47 54 91q0 28 -20 43.5t-49 15.5t-48 -17.5t-19 -44.5q0 -30 20 -48t62 -40z" />
    <glyph glyph-name="ninesuperior" unicode="&#x2079;" horiz-adv-x="373" 
d="M44 384l30 44q41 -35 95 -35q93 0 95 151q-45 -39 -104 -39q-60 0 -92 39.5t-32 104.5q0 67 38.5 107.5t106.5 40.5q44 0 74.5 -17.5t46 -50t21.5 -69.5t6 -86q0 -232 -159 -232q-79 0 -126 42zM264 595q0 20 -1 31q-8 122 -85 122q-38 0 -57.5 -26t-19.5 -69
q0 -100 69 -100q52 0 94 42z" />
    <glyph glyph-name="plussuperior" unicode="&#x207a;" horiz-adv-x="309" 
d="M183 446h-57v98h-96v54h96v95h57v-95h96v-54h-96v-98z" />
    <glyph glyph-name="minussuperior" unicode="&#x207b;" horiz-adv-x="309" 
d="M279 544h-249v54h249v-54z" />
    <glyph glyph-name="equalsuperior" unicode="&#x207c;" horiz-adv-x="307" 
d="M277 469h-247v56h247v-56zM277 575h-247v56h247v-56z" />
    <glyph glyph-name="parenleftsuperior" unicode="&#x207d;" horiz-adv-x="228" 
d="M207 305l-49 -27q-99 138 -99 281q0 144 104 289l48 -29q-86 -134 -86 -259q0 -75 20.5 -130.5t61.5 -124.5z" />
    <glyph glyph-name="parenrightsuperior" unicode="&#x207e;" horiz-adv-x="227" 
d="M68 278l-49 27q41 67 62 124.5t21 132.5q0 69 -21 128.5t-64 128.5l48 29q103 -139 103 -287q0 -141 -100 -283z" />
    <glyph glyph-name="zeroinferior" unicode="&#x2080;" horiz-adv-x="394" 
d="M195 -155q-90 0 -122.5 58t-32.5 168q0 109 35.5 169t126.5 60q38 0 65.5 -11.5t44 -30.5t26.5 -49t13 -60t3 -70q0 -114 -34 -174t-125 -60zM198 -106q54 0 72 44t18 136q0 45 -3 73t-11.5 53.5t-26.5 37t-47 11.5q-55 0 -74 -43.5t-19 -135.5q0 -89 18 -132.5t73 -43.5
z" />
    <glyph glyph-name="oneinferior" unicode="&#x2081;" horiz-adv-x="247" 
d="M230 -147h-205v38l61 4q7 1 8.5 3t1.5 10v319q0 11 -9 14l-62 11l5 38h130v-382q0 -8 1.5 -10t8.5 -3l60 -4v-38z" />
    <glyph glyph-name="twoinferior" unicode="&#x2082;" horiz-adv-x="344" 
d="M320 -147h-292v41l125 151q34 41 46 57.5t23.5 41t11.5 46.5q0 30 -17 45.5t-59 15.5q-36 0 -52 -14.5t-16 -51.5l-59 7q0 108 132 108q136 0 136 -105q0 -42 -20.5 -78t-62.5 -85l-111 -133h149q8 0 10 7l10 54h46v-107z" />
    <glyph glyph-name="threeinferior" unicode="&#x2083;" horiz-adv-x="346" 
d="M226 89v-3q85 -19 85 -109q0 -63 -41.5 -97.5t-109.5 -34.5q-93 0 -145 57l38 42q44 -46 106 -46q39 0 63.5 20t24.5 61q0 79 -92 79q-24 0 -45 -4v49l39 4q89 7 89 81q0 63 -76 63q-35 0 -51.5 -15t-16.5 -51l-60 7q0 108 132 108q136 0 136 -106q0 -80 -76 -105z" />
    <glyph glyph-name="fourinferior" unicode="&#x2084;" horiz-adv-x="371" 
d="M284 -44v-103h-60v104h-196v49l178 282h79v-280h57v-52h-58zM224 8v210l-132 -210h132z" />
    <glyph glyph-name="fiveinferior" unicode="&#x2085;" horiz-adv-x="353" 
d="M296 237h-181l-11 -139q38 28 89 28q57 0 91 -33.5t34 -94.5q0 -69 -39 -111t-115 -42q-96 0 -148 55l38 42q44 -44 106 -44q45 0 69 23.5t24 68.5q0 86 -77 86q-39 0 -81 -34l-46 19l15 228h232v-52z" />
    <glyph glyph-name="sixinferior" unicode="&#x2086;" horiz-adv-x="372" 
d="M329 204l-60 -7q0 31 -14 43t-45 12q-102 0 -102 -166q48 39 107 39q58 0 89.5 -36.5t31.5 -96.5q0 -67 -38 -107t-105 -40q-149 0 -149 223q0 41 7 78t24.5 73.5t53.5 58.5t86 22q114 0 114 -96zM109 37q6 -143 86 -143q37 0 56.5 25.5t19.5 67.5q0 89 -68 89
q-25 0 -52.5 -13t-41.5 -26z" />
    <glyph glyph-name="seveninferior" unicode="&#x2087;" horiz-adv-x="328" 
d="M166 -147h-68q11 119 56 224.5t93 159.5h-157q-9 0 -10 -7l-11 -56l-44 -3v118h295v-46q-57 -56 -104 -174.5t-50 -215.5z" />
    <glyph glyph-name="eightinferior" unicode="&#x2088;" horiz-adv-x="346" 
d="M234 80q39 -21 60.5 -46.5t21.5 -64.5q0 -57 -41.5 -90.5t-105.5 -33.5q-62 0 -100.5 30.5t-38.5 83.5q0 67 79 125q-62 39 -62 103q0 51 37 82t92 31q59 0 92.5 -29.5t33.5 -73.5q0 -60 -68 -117zM152 60q-64 -48 -64 -97q0 -32 23 -51.5t62 -19.5q35 0 57.5 21.5
t22.5 50.5q0 8 -1.5 15.5t-5.5 14.5t-7.5 12t-11.5 11t-12 9.5t-15 9t-15 8t-16.5 8.5t-16.5 8zM190 103q54 47 54 91q0 28 -20 43.5t-49 15.5t-48 -17.5t-19 -44.5q0 -30 20 -48t62 -40z" />
    <glyph glyph-name="nineinferior" unicode="&#x2089;" horiz-adv-x="373" 
d="M44 -113l30 44q41 -35 95 -35q93 0 95 151q-45 -39 -104 -39q-60 0 -92 39.5t-32 104.5q0 67 38.5 107.5t106.5 40.5q44 0 74.5 -17.5t46 -50t21.5 -69.5t6 -86q0 -232 -159 -232q-79 0 -126 42zM264 98q0 20 -1 31q-8 122 -85 122q-38 0 -57.5 -26t-19.5 -69
q0 -100 69 -100q52 0 94 42z" />
    <glyph glyph-name="parenleftinferior" unicode="&#x208d;" horiz-adv-x="228" 
d="M207 -192l-49 -27q-99 138 -99 281q0 144 104 289l48 -29q-86 -134 -86 -259q0 -75 20.5 -130.5t61.5 -124.5z" />
    <glyph glyph-name="parenrightinferior" unicode="&#x208e;" horiz-adv-x="227" 
d="M68 -219l-49 27q41 67 62 124.5t21 132.5q0 69 -21 128.5t-64 128.5l48 29q103 -139 103 -287q0 -141 -100 -283z" />
    <glyph glyph-name="Euro" unicode="&#x20ac;" horiz-adv-x="520" 
d="M343 223h-188q31 -177 179 -177q53 0 80 11q12 4 14 18l12 72l48 4v-134q-68 -29 -154 -29q-214 0 -249 235h-79l10 56h64q-1 12 -1 39q0 20 1 30h-54l10 56h49q20 120 89.5 180.5t169.5 60.5q81 0 146 -30v-135l-48 4l-13 73q-2 12 -13 17q-28 11 -79 11
q-72 0 -121 -45.5t-64 -135.5h221l-10 -56h-216v-21q0 -33 1 -48h205z" />
    <glyph glyph-name="afii61352" unicode="&#x2116;" horiz-adv-x="1114" 
d="M624 0h-84l-324 540v-468q0 -12 2.5 -15.5t13.5 -4.5l67 -8v-44h-229v44l63 7q10 1 13 5t3 15v484q0 11 -3 15t-13 5l-63 7v45h176l312 -530v458q0 11 -3 15t-13 5l-63 7v44h228v-44l-67 -8q-11 -1 -13.5 -4.5t-2.5 -14.5v-555zM710 113v55h308v-55h-308zM862 213
q-81 0 -120 46.5t-39 126.5q0 78 41.5 124t123.5 46q80 0 118 -44.5t38 -120.5q0 -84 -40 -131t-122 -47zM864 257q99 0 99 129q0 124 -96 124q-104 0 -104 -124q0 -129 101 -129z" />
    <glyph glyph-name="trademark" unicode="&#x2122;" horiz-adv-x="823" 
d="M272 348h-181v33l62 5v294h-90l-10 -55h-33v99h319v-99h-33l-9 55h-92v-294l67 -5v-33zM803 348h-144v32l50 5v237l-103 -193h-40l-101 194v-238l53 -5v-32h-145v32l42 5v299l-42 5v35h95l120 -239l123 239h90v-35l-43 -5v-299l45 -5v-32z" />
    <glyph glyph-name="Omega" unicode="&#x2126;" horiz-adv-x="829" 
d="M769 0h-270v134q42 17 81 50t71.5 96t32.5 139q0 127 -68 193t-189 66q-124 0 -198.5 -71.5t-74.5 -205.5q0 -106 52 -171.5t132 -95.5v-134h-278v154h50l16 -87q2 -11 16 -11h134v53q-92 36 -142 114t-50 177q0 152 93 244.5t252 92.5q161 0 242.5 -86t81.5 -227
q0 -102 -54 -185t-139 -130v-53h127q14 0 16 11l16 87h50v-154z" />
    <glyph glyph-name="onethird" unicode="&#x2153;" horiz-adv-x="855" 
d="M273 281h-205v38l61 4q7 1 8.5 3t1.5 10v319q0 11 -9 14l-62 11l5 38h130v-382q0 -8 1.5 -10t8.5 -3l60 -4v-38zM253 -12h-64l356 736h63zM709 236v-3q85 -19 85 -109q0 -63 -41.5 -97.5t-109.5 -34.5q-93 0 -145 57l38 42q44 -46 106 -46q39 0 63.5 20t24.5 61
q0 79 -92 79q-24 0 -45 -4v49l39 4q89 7 89 81q0 63 -76 63q-35 0 -51.5 -15t-16.5 -51l-60 7q0 108 132 108q136 0 136 -106q0 -80 -76 -105z" />
    <glyph glyph-name="twothirds" unicode="&#x2154;" horiz-adv-x="855" 
d="M320 281h-292v41l125 151q34 41 46 57.5t23.5 41t11.5 46.5q0 30 -17 45.5t-59 15.5q-36 0 -52 -14.5t-16 -51.5l-59 7q0 108 132 108q136 0 136 -105q0 -42 -20.5 -78t-62.5 -85l-111 -133h149q8 0 10 7l10 54h46v-107zM297 -12h-64l356 736h63zM738 236v-3
q85 -19 85 -109q0 -63 -41.5 -97.5t-109.5 -34.5q-93 0 -145 57l38 42q44 -46 106 -46q39 0 63.5 20t24.5 61q0 79 -92 79q-24 0 -45 -4v49l39 4q89 7 89 81q0 63 -76 63q-35 0 -51.5 -15t-16.5 -51l-60 7q0 108 132 108q136 0 136 -106q0 -80 -76 -105z" />
    <glyph glyph-name="oneeighth" unicode="&#x215b;" horiz-adv-x="855" 
d="M270 281h-205v38l61 4q7 1 8.5 3t1.5 10v319q0 11 -9 14l-62 11l5 38h130v-382q0 -8 1.5 -10t8.5 -3l60 -4v-38zM254 -12h-64l356 736h63zM717 227q39 -21 60.5 -46.5t21.5 -64.5q0 -57 -41.5 -90.5t-105.5 -33.5q-62 0 -100.5 30.5t-38.5 83.5q0 67 79 125
q-62 39 -62 103q0 51 37 82t92 31q59 0 92.5 -29.5t33.5 -73.5q0 -60 -68 -117zM635 207q-64 -48 -64 -97q0 -32 23 -51.5t62 -19.5q35 0 57.5 21.5t22.5 50.5q0 8 -1.5 15.5t-5.5 14.5t-7.5 12t-11.5 11t-12 9.5t-15 9t-15 8t-16.5 8.5t-16.5 8zM673 250q54 47 54 91
q0 28 -20 43.5t-49 15.5t-48 -17.5t-19 -44.5q0 -30 20 -48t62 -40z" />
    <glyph glyph-name="threeeighths" unicode="&#x215c;" horiz-adv-x="855" 
d="M226 517v-3q85 -19 85 -109q0 -63 -41.5 -97.5t-109.5 -34.5q-93 0 -145 57l38 42q44 -46 106 -46q39 0 63.5 20t24.5 61q0 79 -92 79q-24 0 -45 -4v49l39 4q89 7 89 81q0 63 -76 63q-35 0 -51.5 -15t-16.5 -51l-60 7q0 108 132 108q136 0 136 -106q0 -80 -76 -105z
M276 -12h-64l356 736h63zM723 227q39 -21 60.5 -46.5t21.5 -64.5q0 -57 -41.5 -90.5t-105.5 -33.5q-62 0 -100.5 30.5t-38.5 83.5q0 67 79 125q-62 39 -62 103q0 51 37 82t92 31q59 0 92.5 -29.5t33.5 -73.5q0 -60 -68 -117zM641 207q-64 -48 -64 -97q0 -32 23 -51.5
t62 -19.5q35 0 57.5 21.5t22.5 50.5q0 8 -1.5 15.5t-5.5 14.5t-7.5 12t-11.5 11t-12 9.5t-15 9t-15 8t-16.5 8.5t-16.5 8zM679 250q54 47 54 91q0 28 -20 43.5t-49 15.5t-48 -17.5t-19 -44.5q0 -30 20 -48t62 -40z" />
    <glyph glyph-name="fiveeighths" unicode="&#x215d;" horiz-adv-x="855" 
d="M296 665h-181l-11 -139q38 28 89 28q57 0 91 -33.5t34 -94.5q0 -69 -39 -111t-115 -42q-96 0 -148 55l38 42q44 -44 106 -44q45 0 69 23.5t24 68.5q0 86 -77 86q-39 0 -81 -34l-46 19l15 228h232v-52zM277 -12h-64l356 736h63zM730 227q39 -21 60.5 -46.5t21.5 -64.5
q0 -57 -41.5 -90.5t-105.5 -33.5q-62 0 -100.5 30.5t-38.5 83.5q0 67 79 125q-62 39 -62 103q0 51 37 82t92 31q59 0 92.5 -29.5t33.5 -73.5q0 -60 -68 -117zM648 207q-64 -48 -64 -97q0 -32 23 -51.5t62 -19.5q35 0 57.5 21.5t22.5 50.5q0 8 -1.5 15.5t-5.5 14.5t-7.5 12
t-11.5 11t-12 9.5t-15 9t-15 8t-16.5 8.5t-16.5 8zM686 250q54 47 54 91q0 28 -20 43.5t-49 15.5t-48 -17.5t-19 -44.5q0 -30 20 -48t62 -40z" />
    <glyph glyph-name="seveneighths" unicode="&#x215e;" horiz-adv-x="855" 
d="M191 281h-68q11 119 56 224.5t93 159.5h-157q-9 0 -10 -7l-11 -56l-44 -3v118h295v-46q-57 -56 -104 -174.5t-50 -215.5zM239 -12h-64l356 736h63zM721 227q39 -21 60.5 -46.5t21.5 -64.5q0 -57 -41.5 -90.5t-105.5 -33.5q-62 0 -100.5 30.5t-38.5 83.5q0 67 79 125
q-62 39 -62 103q0 51 37 82t92 31q59 0 92.5 -29.5t33.5 -73.5q0 -60 -68 -117zM639 207q-64 -48 -64 -97q0 -32 23 -51.5t62 -19.5q35 0 57.5 21.5t22.5 50.5q0 8 -1.5 15.5t-5.5 14.5t-7.5 12t-11.5 11t-12 9.5t-15 9t-15 8t-16.5 8.5t-16.5 8zM677 250q54 47 54 91
q0 28 -20 43.5t-49 15.5t-48 -17.5t-19 -44.5q0 -30 20 -48t62 -40z" />
    <glyph glyph-name="partialdiff" unicode="&#x2202;" horiz-adv-x="546" 
d="M415 339q3 28 3 67t-6 72.5t-20.5 65.5t-43 51t-68.5 19q-77 0 -153 -50l-30 46q93 62 186 62q202 0 202 -280q0 -52 -5 -101t-21.5 -106.5t-42.5 -99t-72 -69.5t-107 -28q-93 0 -140 51.5t-47 138.5q0 102 53.5 167.5t145.5 65.5q94 0 166 -72zM412 276q-69 77 -158 77
q-70 0 -102.5 -50t-32.5 -121q0 -62 30.5 -100t87.5 -38q32 0 58.5 10.5t44 31t30.5 42t21.5 50.5t12.5 50.5t8 47.5z" />
    <glyph glyph-name="Delta" unicode="&#x2206;" horiz-adv-x="652" 
d="M622 0h-592l247 724h92zM322 669l-205 -611h409z" />
    <glyph glyph-name="product" unicode="&#x220f;" horiz-adv-x="766" 
d="M719 -176h-229v44l63 7q10 1 13 5t3 15v773h-372v-772q0 -12 2.5 -15.5t13.5 -4.5l67 -8v-44h-229v44l63 7q10 1 13 5t3 15v758q0 11 -3 15t-13 5l-63 7v44h668v-44l-67 -8q-11 -1 -13.5 -4.5t-2.5 -14.5v-757q0 -12 2.5 -15.5t13.5 -4.5l67 -8v-44z" />
    <glyph glyph-name="summation" unicode="&#x2211;" horiz-adv-x="627" 
d="M570 -176h-542v46l236 411l-216 396v47h520v-150l-51 3l-14 78q-3 13 -17 13h-357l208 -388l-232 -400h383q14 0 16 11l16 87h50v-154z" />
    <glyph glyph-name="minus" unicode="&#x2212;" 
d="M472 288h-373v66h373v-66z" />
    <glyph glyph-name="uni2215" unicode="&#x2215;" horiz-adv-x="454" 
d="M103 -17h-64l313 648h63z" />
    <glyph glyph-name="uni2219" unicode="&#x2219;" horiz-adv-x="289" 
d="M207 307q0 -62 -63 -62t-63 62t63 62t63 -62z" />
    <glyph glyph-name="radical" unicode="&#x221a;" 
d="M342 0h-77l-133 235q-7 11 -18 8l-62 -20l-19 45l122 58l140 -244l179 661l62 -15z" />
    <glyph glyph-name="infinity" unicode="&#x221e;" horiz-adv-x="671" 
d="M336 278q-26 -27 -40.5 -41t-48.5 -31.5t-68 -17.5q-52 0 -90.5 33.5t-38.5 96.5q0 60 39 97.5t99 37.5q33 0 63.5 -15t47 -30t43.5 -43q20 21 30 31t31.5 26.5t43.5 23.5t47 7q55 0 91 -34t36 -101q0 -56 -38 -93t-94 -37q-27 0 -50 7t-44.5 25t-29.5 26t-29 32z
M304 323q-30 36 -57 55.5t-61 19.5q-31 0 -51 -22.5t-20 -52.5q0 -32 17 -56.5t51 -24.5q11 0 21.5 2.5t21.5 9t18.5 11.5t18.5 15.5t15 14.5t14.5 15.5t11.5 12.5zM376 320q2 -2 12 -13t12.5 -14t11.5 -12.5t13.5 -12.5t13 -9t15 -8.5t15.5 -4.5t18 -2q31 0 50 23.5
t19 54.5q0 32 -16 54.5t-50 22.5q-8 0 -15 -1t-14 -4.5t-12.5 -6t-13.5 -9t-12 -9.5t-12.5 -11.5t-11.5 -12t-12 -13.5t-11 -12z" />
    <glyph glyph-name="integral" unicode="&#x222b;" horiz-adv-x="414" 
d="M47 -170l18 59q37 -19 77 -19q69 0 64 71l-55 651q-6 69 33 102t98 33q48 0 93 -19l-18 -60q-37 19 -77 19q-31 0 -49 -17.5t-15 -53.5l55 -650q6 -71 -32.5 -103t-98.5 -32q-48 0 -93 19z" />
    <glyph glyph-name="approxequal" unicode="&#x2248;" 
d="M458 509l44 -14q-13 -49 -32 -74.5t-61 -25.5q-38 0 -119 23t-109 23q-22 0 -36.5 -12t-34.5 -43l-42 18q23 48 47 71.5t64 23.5q39 0 116 -23t108 -23q23 0 33.5 12.5t21.5 43.5zM457 334l44 -14q-13 -49 -32 -74.5t-61 -25.5q-38 0 -119 23t-109 23q-22 0 -36.5 -12
t-34.5 -43l-42 18q23 48 47 71.5t64 23.5t117 -23t107 -23q23 0 33.5 12.5t21.5 43.5z" />
    <glyph glyph-name="notequal" unicode="&#x2260;" 
d="M101 240h128l41 83h-169v69h203l50 100h68l-50 -100h98v-69h-132l-41 -83h173v-69h-207l-49 -99h-68l49 99h-94v69z" />
    <glyph glyph-name="lessequal" unicode="&#x2264;" 
d="M462 98l-373 148v84l365 159l24 -64l-325 -136l329 -130zM463 0h-373v66h373v-66z" />
    <glyph glyph-name="greaterequal" unicode="&#x2265;" 
d="M481 246l-373 -148l-20 61l329 130l-325 136l24 64l365 -159v-84zM480 0h-373v66h373v-66z" />
    <glyph glyph-name="triangle" unicode="&#x25b3;" horiz-adv-x="425" 
d="M335 320l-185 -117v231z" />
    <glyph glyph-name="lozenge" unicode="&#x25ca;" 
d="M315 -17h-60l-157 324l157 324h60l157 -324zM285 55l121 252l-121 251l-121 -251z" />
    <glyph glyph-name="circle" unicode="&#x25cb;" horiz-adv-x="610" 
d="M305 119q-85 0 -145 60t-60 145t60 145t145 60t145 -60t60 -145t-60 -145t-145 -60z" />
    <glyph glyph-name="st" unicode="&#xfb06;" horiz-adv-x="837" 
d="M549 112v332q0 11 -10 11h-72v56h82v121q-29 8 -74 8q-57 0 -74.5 -25.5t-17.5 -86.5q0 -57 7 -157l-51 3l-12 66q-1 9 -12 13q-27 12 -84 12t-86 -23.5t-29 -61.5q0 -28 21 -47.5t38.5 -26t63.5 -18.5q9 -3 13 -4q35 -10 56.5 -18.5t47 -24.5t37.5 -40.5t12 -58.5
q0 -43 -15.5 -74t-43.5 -48t-60.5 -24.5t-71.5 -7.5q-54 0 -106.5 11.5t-70.5 21.5v123l51 -3l12 -66q1 -8 9 -12q38 -19 110 -19q120 0 120 90q0 23 -9 39t-30 27t-37 16t-48 13q-31 8 -47.5 12.5t-42.5 16t-39.5 25t-24 36.5t-10.5 53q0 76 54 112.5t134 36.5q41 0 86 -9
q-2 28 -2 39q0 78 39 112t118 34q54 0 136 -15v-161q0 -10 8 -10h149v-56h-157v-318q0 -49 16.5 -69t59.5 -20t96 20l19 -52q-71 -28 -129 -28q-129 0 -129 124z" />
    <glyph glyph-name="CR" horiz-adv-x="500" 
 />
    <glyph glyph-name="hyphen.case" horiz-adv-x="311" 
d="M291 315h-271v74h271v-74z" />
    <glyph glyph-name="ct" horiz-adv-x="891" 
d="M603 112v332q0 11 -11 11h-71v56h82v121q-35 8 -74 8q-58 0 -75 -25.5t-17 -97.5q0 -53 7 -146l-51 3l-12 66q-1 10 -13 14q-27 9 -75 9q-79 0 -128.5 -51t-49.5 -155q0 -106 45.5 -157.5t125.5 -51.5t134 35l26 -56q-59 -39 -163 -39q-122 0 -180 70.5t-58 195.5
q0 133 70 200t185 67q34 0 79 -9q-2 26 -2 36q0 149 157 149q65 0 136 -15v-161q0 -10 8 -10h149v-56h-157v-318q0 -49 16.5 -69t59.5 -20t96 20l19 -52q-71 -28 -129 -28q-129 0 -129 124z" />
    <glyph glyph-name="ch" horiz-adv-x="1107" 
d="M844 521q80 0 118.5 -45t38.5 -145v-260q0 -12 2.5 -15.5t13.5 -4.5l60 -7v-44h-211v45l52 6q11 2 13.5 5t2.5 14v244q0 76 -24 111t-78 35q-49 0 -97 -24t-77 -51v-314q0 -12 2.5 -15.5t13.5 -4.5l60 -7v-44h-211v45l52 6q10 1 13 5t3 15v635q-38 7 -70 7
q-56 0 -73.5 -32.5t-17.5 -104.5q0 -43 14 -205l-51 3l-12 66q-1 10 -13 14q-27 9 -75 9q-79 0 -128.5 -51t-49.5 -155q0 -106 45.5 -157.5t125.5 -51.5q81 0 134 35l26 -56q-59 -39 -163 -39q-122 0 -180 70.5t-58 195.5q0 133 70 200t185 67q32 0 73 -9q-4 37 -4 72
q0 39 5.5 68.5t21 57t47 42.5t78.5 15q64 0 137 -11v-305q95 70 186 70z" />
    <glyph glyph-name="ck" horiz-adv-x="1054" 
d="M368 454q-27 9 -75 9q-79 0 -128.5 -51t-49.5 -155q0 -106 45.5 -157.5t125.5 -51.5t134 35l26 -56q-59 -39 -163 -39q-122 0 -180 70.5t-58 195.5q0 133 70 200t185 67q32 0 73 -9q-4 37 -4 73q0 39 5.5 68t21 56.5t47 42.5t78.5 15q64 0 137 -11v-500l226 255h98v-44
l-59 -13q-14 -2 -25 -15l-99 -112l162 -257q7 -12 29 -16l54 -10v-44h-210v45l62 8l-142 222l-96 -108v-96q0 -12 2.5 -15.5t13.5 -4.5l65 -7v-44h-231v45l67 6q10 1 13 4.5t3 15.5v635q-38 7 -70 7q-56 0 -73.5 -33t-17.5 -104q0 -43 14 -205l-51 3l-12 66q-1 10 -13 14z
" />
    <glyph glyph-name="Th" horiz-adv-x="1120" 
d="M1090 0h-211v45q8 1 25.5 3t26.5 3q11 2 13.5 5t2.5 14v240q0 82 -24.5 116t-80.5 34q-46 0 -94.5 -24.5t-76.5 -50.5v-314q0 -12 2.5 -15.5t13.5 -4.5l60 -7v-44h-211v45l52 6q10 1 13 5t3 15v597h-255v-596q0 -11 2.5 -14.5t13.5 -4.5l110 -8v-45h-312v45l103 7
q9 1 12.5 4.5t3.5 15.5v596h-175q-14 0 -16 -11l-16 -87h-50v154h570q7 0 10 11l4 21h62v-305q93 70 187 70q84 0 120 -48.5t36 -141.5v-260q0 -12 2.5 -15.5t13.5 -4.5l60 -7v-44z" />
    <glyph glyph-name="hyphensuperior" horiz-adv-x="219" 
d="M199 506h-179v61h179v-61z" />
    <glyph glyph-name="commasuperior" horiz-adv-x="115" 
d="M56 275l-32 10l20 68q0 5 -4 7l-23 9l15 55q37 -2 55 -10t18 -32q0 -16 -11 -36z" />
    <glyph glyph-name="periodsuperior" horiz-adv-x="129" 
d="M109 384q0 -42 -44 -42q-45 0 -45 42q0 41 45 41q44 0 44 -41z" />
    <glyph glyph-name="a.sup" horiz-adv-x="369" 
d="M347 350h-91l-6 41l-2 1q-55 -50 -119 -50q-93 0 -93 88q0 47 29.5 70t90.5 28l89 7v36q0 38 -13 54t-54 16q-25 0 -37.5 -2t-23 -13t-10.5 -34l-55 6q0 87 127 87q70 0 97 -24t27 -89v-170q0 -8 2 -10t9 -3l33 -5v-34zM245 437v60l-76 -6q-42 -4 -57.5 -16.5
t-15.5 -38.5q0 -49 50 -49q57 0 99 50z" />
    <glyph glyph-name="b.sup" horiz-adv-x="399" 
d="M118 350h-57q8 48 8 92v332q0 10 -9 13l-39 12l6 34h100v-187q58 39 114 39q58 0 91 -39t33 -120q0 -184 -139 -184q-61 0 -102 40l-2 -1zM127 601v-171q44 -40 88 -40q91 0 91 131q0 116 -80 116q-45 0 -99 -36z" />
    <glyph glyph-name="c.sup" horiz-adv-x="330" 
d="M286 411l19 -42q-42 -27 -113 -27q-81 0 -120.5 45.5t-39.5 123.5q0 87 46.5 130.5t125.5 43.5q62 0 100 -20v-84l-43 2l-8 42q-2 7 -8 9q-16 6 -45 6q-49 0 -78 -30t-29 -95q0 -125 108 -125q47 0 85 21z" />
    <glyph glyph-name="d.sup" horiz-adv-x="400" 
d="M374 350h-91l-6 42l-3 1q-53 -51 -116 -51q-124 0 -124 166q0 90 37.5 133.5t100.5 43.5q56 0 101 -31v120q0 10 -9 13l-39 12l6 34h99v-431q0 -8 1.5 -10t9.5 -3l33 -5v-34zM272 441v162q-41 35 -91 35q-88 0 -88 -129q0 -118 80 -118q51 0 99 50z" />
    <glyph glyph-name="e.sup" horiz-adv-x="350" 
d="M291 414l18 -43q-53 -29 -119 -29q-158 0 -158 174q0 83 42 126t108 43q136 0 136 -152q0 -11 -2 -31h-223q3 -111 102 -111q44 0 96 23zM94 546h164q-1 93 -76 93q-80 0 -88 -93z" />
    <glyph glyph-name="f.sup" horiz-adv-x="277" 
d="M231 350h-199v35l42 4q11 1 11 13v227q0 6 -6 6h-47v44h53v49q0 112 120 112q46 0 72 -16t26 -60l-55 -7q0 24 -10.5 32t-35.5 8q-34 0 -46.5 -16.5t-12.5 -50.5v-45q0 -6 5 -6h109v-44h-114v-232q0 -8 2 -10t9 -3l77 -6v-34z" />
    <glyph glyph-name="g.sup" horiz-adv-x="390" 
d="M178 206q-52 0 -110 22l14 46q47 -20 98 -20q57 0 76 25t19 86v39l-2 1q-52 -49 -112 -49q-127 0 -127 158q0 86 37.5 128.5t99.5 42.5q56 0 103 -34l7 28h56q-7 -58 -7 -89v-224q0 -94 -35.5 -127t-116.5 -33zM272 455v148q-41 35 -92 35q-87 0 -87 -122q0 -111 80 -111
q52 0 99 50z" />
    <glyph glyph-name="h.sup" horiz-adv-x="426" 
d="M404 350h-154v34l38 4q9 1 9 12v151q0 47 -15 67t-46 20q-45 0 -101 -43v-193q0 -8 1.5 -10t9.5 -3l37 -5v-34h-150v35l33 4q11 1 11 13v372q0 10 -9 13l-39 12l6 34h100v-192q57 44 118 44q103 0 103 -119v-164v-6.5t1 -3.5t3 -2.5t6 -0.5l38 -5v-34z" />
    <glyph glyph-name="i.sup" horiz-adv-x="206" 
d="M139 791q0 -41 -42 -41t-42 41q0 40 42 40t42 -40zM189 350h-167v35l44 4q11 1 11 13v217q0 11 -9 14l-38 12l6 34h99v-277q0 -8 1.5 -10t9.5 -3l43 -5v-34z" />
    <glyph glyph-name="j.sup" horiz-adv-x="199" 
d="M75 320v299q0 12 -8 14l-43 12l6 34h104v-371q0 -101 -95 -101q-58 0 -91 27l23 38q25 -19 60 -19q26 0 35 15.5t9 51.5zM139 791q0 -41 -42 -41t-42 41q0 40 42 40t42 -40z" />
    <glyph glyph-name="k.sup" horiz-adv-x="399" 
d="M388 350h-142v34l28 5l-83 133l-56 -60v-60q0 -8 1.5 -10t9.5 -3l40 -5v-34h-161v35l41 4q11 1 11 13v372q0 10 -9 13l-39 12l6 34h100v-308l141 154h72v-35l-37 -7q-9 -2 -17 -10l-60 -65l101 -161q5 -9 19 -11l34 -6v-34z" />
    <glyph glyph-name="l.sup" horiz-adv-x="205" 
d="M186 350h-161v35l41 4q11 1 11 13v372q0 10 -9 13l-39 12l6 34h100v-431q0 -8 1.5 -10t9.5 -3l40 -5v-34z" />
    <glyph glyph-name="m.sup" horiz-adv-x="613" 
d="M591 350h-154v34l38 4q9 1 9 12v159q0 77 -57 77q-34 0 -88 -33q2 -22 2 -38v-163v-6.5t1 -3.5t3 -2.5t6 -0.5l33 -5v-34h-147v34l36 4q9 2 9 12v161q0 23 -2.5 36.5t-14.5 25.5t-34 12q-26 0 -55.5 -13.5t-40.5 -26.5v-193q0 -8 1.5 -10t9.5 -3l36 -5v-34h-149v35l33 4
q11 1 11 13v217q0 11 -9 14l-38 12l6 34h85l6 -38h3q58 44 117 44q58 0 81 -40q58 40 117 40q54 0 75.5 -30t21.5 -89v-164q0 -8 1.5 -10t9.5 -3l38 -5v-34z" />
    <glyph glyph-name="n.sup" horiz-adv-x="424" 
d="M402 350h-153v34l37 4q9 1 9 12v151q0 45 -13.5 65t-48.5 20q-48 0 -100 -41v-193q0 -8 1.5 -10t9.5 -3l37 -5v-34h-150v35l33 4q11 1 11 13v217q0 11 -9 14l-37 12l5 34h85l6 -38l2 -1q62 45 121 45q55 0 80.5 -28.5t25.5 -90.5v-164v-6.5t1 -3.5t3 -2.5t6 -0.5l38 -5
v-34z" />
    <glyph glyph-name="o.sup" horiz-adv-x="385" 
d="M191 342q-81 0 -120 46.5t-39 126.5q0 78 41.5 124t123.5 46q80 0 118 -44.5t38 -120.5q0 -84 -40 -131t-122 -47zM193 386q99 0 99 129q0 124 -96 124q-104 0 -104 -124q0 -129 101 -129z" />
    <glyph glyph-name="p.sup" horiz-adv-x="406" 
d="M206 214h-168v35l27 4q11 2 11 13v353q0 11 -9 14l-37 12l6 34h86l6 -37h1q58 43 119 43q124 0 124 -159q0 -183 -138 -183q-58 0 -100 36v-113q0 -8 2 -10t9 -2l61 -5v-35zM134 597v-167q44 -40 88 -40q91 0 91 131q0 115 -80 115q-46 0 -99 -39z" />
    <glyph glyph-name="q.sup" horiz-adv-x="391" 
d="M374 214h-160v35l49 5q7 0 9.5 2t2.5 10v125h-1q-54 -49 -113 -49q-127 0 -127 165q0 90 37.5 134t99.5 44q56 0 103 -34l7 28h56q-7 -58 -7 -89v-324q0 -7 1.5 -9t9.5 -4l33 -4v-35zM272 441v162q-41 35 -92 35q-87 0 -87 -129q0 -118 80 -118q52 0 99 50z" />
    <glyph glyph-name="r.sup" horiz-adv-x="295" 
d="M207 350h-174v35l33 4q11 1 11 13v217q0 11 -9 14l-38 12l6 34h86l7 -44h1q46 50 99 50q30 0 48 -6v-96l-46 2l-8 44q-1 7 -8 7q-39 0 -80 -41v-193q0 -8 2 -10t9 -3l61 -4v-35z" />
    <glyph glyph-name="s.sup" horiz-adv-x="313" 
d="M273 585l-43 2l-8 40q0 7 -7 9q-21 7 -51 7q-35 0 -53 -13.5t-18 -35.5q0 -17 13 -28.5t27 -15.5t42 -11q26 -7 39.5 -11.5t32.5 -15.5t27.5 -28t8.5 -42q0 -52 -37.5 -76t-95.5 -24q-36 0 -72 7.5t-47 14.5v81l43 -2l7 -41q2 -7 8 -9q45 -10 66 -10q73 0 73 51
q0 25 -19 36.5t-57 19.5q-23 5 -32.5 7.5t-29 10.5t-28 16.5t-16 24.5t-7.5 37q0 51 37.5 75t93.5 24q59 0 103 -17v-83z" />
    <glyph glyph-name="t.sup" horiz-adv-x="283" 
d="M246 402l13 -40q-50 -20 -90 -20q-92 0 -92 86v201q0 6 -5 6h-48v37q38 4 52.5 23t21.5 68h38v-78q0 -6 5 -6h97v-44h-102v-189q0 -31 10.5 -43.5t38.5 -12.5q23 0 61 12z" />
    <glyph glyph-name="u.sup" horiz-adv-x="425" 
d="M395 350h-92l-6 44h-1q-62 -52 -128 -52q-52 0 -73.5 29.5t-21.5 87.5v162q0 13 -10 15l-35 9l6 34h98v-207q0 -44 11 -63t42 -19q54 0 107 55v177q0 12 -11 14l-33 9l5 34h97v-277q0 -12 9 -13l36 -4v-35z" />
    <glyph glyph-name="v.sup" horiz-adv-x="390" 
d="M231 350h-67l-112 277q-2 8 -13 11l-29 6l7 35h137v-35l-46 -5l91 -236l92 236l-45 5l6 35h128v-35l-21 -4q-14 -3 -17 -11z" />
    <glyph glyph-name="w.sup" horiz-adv-x="563" 
d="M421 350h-69l-65 258h-1l-72 -258h-70l-94 277q-2 8 -13 11l-29 6l7 35h132v-35l-42 -5l75 -231h1l75 262h63l69 -261h1l72 230l-43 5l6 35h127v-35l-23 -4q-13 -2 -17 -13z" />
    <glyph glyph-name="x.sup" horiz-adv-x="389" 
d="M377 350h-156v34l42 6l-75 93l-76 -93l43 -6v-34h-143v34l35 7q8 2 16 10l94 114l-90 111q-7 9 -16 11l-29 7l7 35h137v-35l-41 -5l71 -87l73 87l-42 5l7 35h127v-35l-30 -6q-9 -2 -17 -12l-87 -105l96 -118q9 -11 17 -12l37 -7v-34z" />
    <glyph glyph-name="y.sup" horiz-adv-x="393" 
d="M247 214h-178v36l48 5q8 1 14 13l39 86l-119 273q-4 8 -14 11l-27 6l7 35h137v-35l-44 -5l89 -218h1l91 218l-44 5l6 35h130v-35l-22 -3q-14 -3 -17 -11l-161 -375l64 -6v-35z" />
    <glyph glyph-name="z.sup" horiz-adv-x="331" 
d="M304 350h-273v34l198 252h-132q-6 0 -7 -8l-8 -41l-44 -2v94h262v-36l-196 -250h141q5 0 7 8l8 47l44 3v-101z" />
    <glyph glyph-name="hypheninferior" horiz-adv-x="219" 
d="M199 9h-179v61h179v-61z" />
    <glyph glyph-name="commainferior" horiz-adv-x="115" 
d="M56 -222l-32 10l20 68q0 5 -4 7l-23 9l15 55q37 -2 55 -10t18 -32q0 -16 -11 -36z" />
    <glyph glyph-name="periodinferior" horiz-adv-x="129" 
d="M109 -113q0 -42 -44 -42q-45 0 -45 42q0 41 45 41q44 0 44 -41z" />
    <glyph glyph-name="minusinferior" horiz-adv-x="309" 
d="M279 47h-249v54h249v-54z" />
    <glyph glyph-name="plusinferior" horiz-adv-x="309" 
d="M183 -51h-57v98h-96v54h96v95h57v-95h96v-54h-96v-98z" />
    <glyph glyph-name="equalinferior" horiz-adv-x="307" 
d="M277 -28h-247v56h247v-56zM277 78h-247v56h247v-56z" />
    <glyph glyph-name="a.sinf" horiz-adv-x="369" 
d="M347 -147h-91l-6 41l-2 1q-55 -50 -119 -50q-93 0 -93 88q0 47 29.5 70t90.5 28l89 7v36q0 38 -13 54t-54 16q-25 0 -37.5 -2t-23 -13t-10.5 -34l-55 6q0 87 127 87q70 0 97 -24t27 -89v-170q0 -8 2 -10t9 -3l33 -5v-34zM245 -60v60l-76 -6q-42 -4 -57.5 -16.5
t-15.5 -38.5q0 -49 50 -49q57 0 99 50z" />
    <glyph glyph-name="b.sinf" horiz-adv-x="399" 
d="M118 -147h-57q8 48 8 92v332q0 10 -9 13l-39 12l6 34h100v-187q59 39 114 39q58 0 91 -39t33 -120q0 -184 -139 -184q-61 0 -102 40l-2 -1zM127 104v-171q44 -40 88 -40q91 0 91 131q0 116 -80 116q-45 0 -99 -36z" />
    <glyph glyph-name="c.sinf" horiz-adv-x="330" 
d="M286 -86l19 -42q-42 -27 -113 -27q-81 0 -120.5 45.5t-39.5 123.5q0 87 46.5 130.5t125.5 43.5q62 0 100 -20v-84l-43 2l-8 42q-2 7 -8 9q-16 6 -45 6q-49 0 -78 -30t-29 -95q0 -125 108 -125q47 0 85 21z" />
    <glyph glyph-name="d.sinf" horiz-adv-x="400" 
d="M374 -147h-91l-6 42l-3 1q-53 -51 -116 -51q-124 0 -124 166q0 90 37.5 133.5t100.5 43.5q56 0 101 -31v120q0 10 -9 13l-39 12l6 34h99v-431q0 -8 1.5 -10t9.5 -3l33 -5v-34zM272 -56v162q-41 35 -91 35q-88 0 -88 -129q0 -118 80 -118q51 0 99 50z" />
    <glyph glyph-name="e.sinf" horiz-adv-x="350" 
d="M291 -83l18 -43q-53 -29 -119 -29q-158 0 -158 174q0 83 42 126t108 43q136 0 136 -152q0 -11 -2 -31h-223q3 -111 102 -111q44 0 96 23zM94 49h164q-1 93 -76 93q-80 0 -88 -93z" />
    <glyph glyph-name="f.sinf" horiz-adv-x="277" 
d="M231 -147h-199v35l42 4q11 1 11 13v227q0 6 -6 6h-47v44h53v49q0 112 120 112q46 0 72 -16t26 -60l-55 -7q0 24 -10.5 32t-35.5 8q-34 0 -46.5 -16.5t-12.5 -50.5v-45q0 -6 5 -6h109v-44h-114v-232q0 -8 2 -10t9 -3l77 -6v-34z" />
    <glyph glyph-name="g.sinf" horiz-adv-x="390" 
d="M178 -291q-52 0 -110 22l14 46q47 -20 98 -20q57 0 76 25t19 86v39l-2 1q-52 -49 -112 -49q-127 0 -127 158q0 86 37.5 128.5t99.5 42.5q56 0 103 -34l7 28h56q-7 -58 -7 -89v-224q0 -94 -35.5 -127t-116.5 -33zM272 -42v148q-41 35 -92 35q-87 0 -87 -122
q0 -111 80 -111q52 0 99 50z" />
    <glyph glyph-name="h.sinf" horiz-adv-x="426" 
d="M404 -147h-154v34l38 4q9 1 9 12v151q0 47 -15 67t-46 20q-45 0 -101 -43v-193q0 -8 1.5 -10t9.5 -3l37 -5v-34h-150v35l33 4q11 1 11 13v372q0 10 -9 13l-39 12l6 34h100v-192q57 44 118 44q103 0 103 -119v-164v-6.5t1 -3.5t3 -2.5t6 -0.5l38 -5v-34z" />
    <glyph glyph-name="i.sinf" horiz-adv-x="206" 
d="M139 294q0 -41 -42 -41t-42 41q0 40 42 40t42 -40zM189 -147h-167v35l44 4q11 1 11 13v217q0 11 -9 14l-38 12l6 34h99v-277q0 -8 1.5 -10t9.5 -3l43 -5v-34z" />
    <glyph glyph-name="j.sinf" horiz-adv-x="199" 
d="M75 -177v299q0 12 -8 14l-43 12l6 34h104v-371q0 -101 -95 -101q-58 0 -91 27l23 38q25 -19 60 -19q26 0 35 15.5t9 51.5zM139 294q0 -41 -42 -41t-42 41q0 40 42 40t42 -40z" />
    <glyph glyph-name="k.sinf" horiz-adv-x="399" 
d="M388 -147h-142v34l28 5l-83 133l-56 -60v-60q0 -8 1.5 -10t9.5 -3l40 -5v-34h-161v35l41 4q11 1 11 13v372q0 10 -9 13l-39 12l6 34h100v-308l141 154h72v-35l-37 -7q-9 -2 -17 -10l-60 -65l101 -161q5 -9 19 -11l34 -6v-34z" />
    <glyph glyph-name="l.sinf" horiz-adv-x="205" 
d="M186 -147h-161v35l41 4q11 1 11 13v372q0 10 -9 13l-39 12l6 34h100v-431q0 -8 1.5 -10t9.5 -3l40 -5v-34z" />
    <glyph glyph-name="m.sinf" horiz-adv-x="613" 
d="M591 -147h-154v34l38 4q9 1 9 12v159q0 77 -57 77q-34 0 -88 -33q2 -22 2 -38v-163v-6.5t1 -3.5t3 -2.5t6 -0.5l33 -5v-34h-147v34l36 4q9 2 9 12v161q0 23 -2.5 36.5t-14.5 25.5t-34 12q-26 0 -55.5 -13.5t-40.5 -26.5v-193q0 -8 1.5 -10t9.5 -3l36 -5v-34h-149v35l33 4
q11 1 11 13v217q0 11 -9 14l-38 12l6 34h85l6 -38h3q58 44 117 44q58 0 81 -40q58 40 117 40q54 0 75.5 -30t21.5 -89v-164q0 -8 1.5 -10t9.5 -3l38 -5v-34z" />
    <glyph glyph-name="n.sinf" horiz-adv-x="424" 
d="M402 -147h-153v34l37 4q9 1 9 12v151q0 45 -13.5 65t-48.5 20q-48 0 -100 -41v-193q0 -8 1.5 -10t9.5 -3l37 -5v-34h-150v35l33 4q11 1 11 13v217q0 11 -9 14l-37 12l5 34h85l6 -38l2 -1q62 45 121 45q55 0 80.5 -28.5t25.5 -90.5v-164v-6.5t1 -3.5t3 -2.5t6 -0.5l38 -5
v-34z" />
    <glyph glyph-name="o.sinf" horiz-adv-x="385" 
d="M191 -155q-81 0 -120 46.5t-39 126.5q0 78 41.5 124t123.5 46q80 0 118 -44.5t38 -120.5q0 -84 -40 -131t-122 -47zM193 -111q99 0 99 129q0 124 -96 124q-104 0 -104 -124q0 -129 101 -129z" />
    <glyph glyph-name="p.sinf" horiz-adv-x="406" 
d="M206 -283h-168v35l27 4q11 2 11 13v353q0 11 -9 14l-37 12l6 34h86l6 -37h1q58 43 119 43q124 0 124 -159q0 -183 -138 -183q-58 0 -100 36v-113q0 -8 2 -10t9 -2l61 -5v-35zM134 100v-167q44 -40 88 -40q91 0 91 131q0 115 -80 115q-46 0 -99 -39z" />
    <glyph glyph-name="q.sinf" horiz-adv-x="391" 
d="M374 -283h-160v35l49 5q7 0 9.5 2.5t2.5 9.5v125h-1q-54 -49 -113 -49q-127 0 -127 165q0 90 37.5 134t99.5 44q56 0 103 -34l7 28h56q-7 -58 -7 -89v-324q0 -7 1.5 -9t9.5 -4l33 -4v-35zM272 -56v162q-41 35 -92 35q-87 0 -87 -129q0 -118 80 -118q52 0 99 50z" />
    <glyph glyph-name="r.sinf" horiz-adv-x="295" 
d="M207 -147h-174v35l33 4q11 1 11 13v217q0 11 -9 14l-38 12l6 34h86l7 -44h1q46 50 99 50q30 0 48 -6v-96l-46 2l-8 44q-1 7 -8 7q-39 0 -80 -41v-193q0 -8 2 -10t9 -3l61 -4v-35z" />
    <glyph glyph-name="s.sinf" horiz-adv-x="313" 
d="M273 88l-43 2l-8 40q0 7 -7 9q-21 7 -51 7q-35 0 -53 -13.5t-18 -35.5q0 -17 13 -28.5t27 -15.5t42 -11q26 -7 39.5 -11.5t32.5 -15.5t27.5 -28t8.5 -42q0 -52 -37.5 -76t-95.5 -24q-36 0 -72 7.5t-47 14.5v81l43 -2l7 -41q2 -7 8 -9q45 -10 66 -10q73 0 73 51
q0 25 -19 36.5t-57 19.5q-23 5 -32.5 7.5t-29 10.5t-28 16.5t-16 24.5t-7.5 37q0 51 37.5 75t93.5 24q59 0 103 -17v-83z" />
    <glyph glyph-name="t.sinf" horiz-adv-x="283" 
d="M246 -95l13 -40q-50 -20 -90 -20q-92 0 -92 86v201q0 6 -5 6h-48v37q38 4 52.5 23t21.5 68h38v-78q0 -6 5 -6h97v-44h-102v-189q0 -31 10.5 -43.5t38.5 -12.5q23 0 61 12z" />
    <glyph glyph-name="u.sinf" horiz-adv-x="425" 
d="M395 -147h-92l-6 44h-1q-62 -52 -128 -52q-52 0 -73.5 29.5t-21.5 87.5v162q0 13 -10 15l-35 9l6 34h98v-207q0 -44 11 -63t42 -19q54 0 107 55v177q0 12 -11 14l-33 9l5 34h97v-277q0 -12 9 -13l36 -4v-35z" />
    <glyph glyph-name="v.sinf" horiz-adv-x="390" 
d="M231 -147h-67l-112 277q-2 8 -13 11l-29 6l7 35h137v-35l-46 -5l91 -236l92 236l-45 5l6 35h128v-35l-21 -4q-14 -3 -17 -11z" />
    <glyph glyph-name="w.sinf" horiz-adv-x="563" 
d="M421 -147h-69l-65 258h-1l-72 -258h-70l-94 277q-2 8 -13 11l-29 6l7 35h132v-35l-42 -5l75 -231h1l75 262h63l69 -261h1l72 230l-43 5l6 35h127v-35l-23 -4q-13 -2 -17 -13z" />
    <glyph glyph-name="x.sinf" horiz-adv-x="389" 
d="M377 -147h-156v34l42 6l-75 93l-76 -93l43 -6v-34h-143v34l35 7q8 2 16 10l94 114l-90 111q-7 9 -16 11l-29 7l7 35h137v-35l-41 -5l71 -87l73 87l-42 5l7 35h127v-35l-30 -6q-9 -2 -17 -12l-87 -105l96 -118q9 -11 17 -12l37 -7v-34z" />
    <glyph glyph-name="y.sinf" horiz-adv-x="393" 
d="M247 -283h-178v36l48 5q8 1 14 13l39 86l-119 273q-4 8 -14 11l-27 6l7 35h137v-35l-44 -5l89 -218h1l91 218l-44 5l6 35h130v-35l-22 -3q-14 -3 -17 -11l-161 -375l64 -6v-35z" />
    <glyph glyph-name="z.sinf" horiz-adv-x="331" 
d="M304 -147h-273v34l198 252h-132q-6 0 -7 -8l-8 -41l-44 -2v94h262v-36l-196 -250h141q5 0 7 8l8 47l44 3v-101z" />
    <glyph glyph-name="zero.num" horiz-adv-x="394" 
d="M195 273q-90 0 -122.5 58t-32.5 168q0 109 35.5 169t126.5 60q38 0 65.5 -11.5t44 -30.5t26.5 -49t13 -60t3 -70q0 -114 -34 -174t-125 -60zM198 322q54 0 72 44t18 136q0 45 -3 73t-11.5 53.5t-26.5 37t-47 11.5q-55 0 -74 -43.5t-19 -135.5q0 -89 18 -132.5t73 -43.5z
" />
    <glyph glyph-name="one.num" horiz-adv-x="247" 
d="M230 281h-205v38l61 4q7 1 8.5 3t1.5 10v319q0 11 -9 14l-62 11l5 38h130v-382q0 -8 1.5 -10t8.5 -3l60 -4v-38z" />
    <glyph glyph-name="two.num" horiz-adv-x="344" 
d="M320 281h-292v41l125 151q34 41 46 57.5t23.5 41t11.5 46.5q0 30 -17 45.5t-59 15.5q-36 0 -52 -14.5t-16 -51.5l-59 7q0 108 132 108q136 0 136 -105q0 -42 -20.5 -78t-62.5 -85l-111 -133h149q8 0 10 7l10 54h46v-107z" />
    <glyph glyph-name="three.num" horiz-adv-x="346" 
d="M226 517v-3q85 -19 85 -109q0 -63 -41.5 -97.5t-109.5 -34.5q-93 0 -145 57l38 42q44 -46 106 -46q39 0 63.5 20t24.5 61q0 79 -92 79q-24 0 -45 -4v49l39 4q89 7 89 81q0 63 -76 63q-35 0 -51.5 -15t-16.5 -51l-60 7q0 108 132 108q136 0 136 -106q0 -80 -76 -105z" />
    <glyph glyph-name="four.num" horiz-adv-x="371" 
d="M284 384v-103h-60v104h-196v49l178 282h79v-280h57v-52h-58zM224 436v210l-132 -210h132z" />
    <glyph glyph-name="five.num" horiz-adv-x="353" 
d="M296 665h-181l-11 -139q38 28 89 28q57 0 91 -33.5t34 -94.5q0 -69 -39 -111t-115 -42q-96 0 -148 55l38 42q44 -44 106 -44q45 0 69 23.5t24 68.5q0 86 -77 86q-39 0 -81 -34l-46 19l15 228h232v-52z" />
    <glyph glyph-name="six.num" horiz-adv-x="372" 
d="M329 632l-60 -7q0 31 -14 43t-45 12q-102 0 -102 -166q48 39 107 39q58 0 89.5 -36.5t31.5 -96.5q0 -67 -38 -107t-105 -40q-149 0 -149 223q0 41 7 78t24.5 73.5t53.5 58.5t86 22q114 0 114 -96zM109 465q6 -143 86 -143q37 0 56.5 25.5t19.5 67.5q0 89 -68 89
q-25 0 -52.5 -13t-41.5 -26z" />
    <glyph glyph-name="seven.num" horiz-adv-x="328" 
d="M166 281h-68q11 119 56 224.5t93 159.5h-157q-9 0 -10 -7l-11 -56l-44 -3v118h295v-46q-57 -56 -104 -174.5t-50 -215.5z" />
    <glyph glyph-name="eight.num" horiz-adv-x="346" 
d="M234 508q39 -21 60.5 -46.5t21.5 -64.5q0 -57 -41.5 -90.5t-105.5 -33.5q-62 0 -100.5 30.5t-38.5 83.5q0 67 79 125q-62 39 -62 103q0 51 37 82t92 31q59 0 92.5 -29.5t33.5 -73.5q0 -60 -68 -117zM152 488q-64 -48 -64 -97q0 -32 23 -51.5t62 -19.5q35 0 57.5 21.5
t22.5 50.5q0 8 -1.5 15.5t-5.5 14.5t-7.5 12t-11.5 11t-12 9.5t-15 9t-15 8t-16.5 8.5t-16.5 8zM190 531q54 47 54 91q0 28 -20 43.5t-49 15.5t-48 -17.5t-19 -44.5q0 -30 20 -48t62 -40z" />
    <glyph glyph-name="nine.num" horiz-adv-x="373" 
d="M44 315l30 44q41 -35 95 -35q93 0 95 151q-45 -39 -104 -39q-60 0 -92 39.5t-32 104.5q0 67 38.5 107.5t106.5 40.5q44 0 74.5 -17.5t46 -50t21.5 -69.5t6 -86q0 -232 -159 -232q-79 0 -126 42zM264 526q0 20 -1 31q-8 122 -85 122q-38 0 -57.5 -26t-19.5 -69
q0 -100 69 -100q52 0 94 42z" />
    <glyph glyph-name="parenleft.ordn" horiz-adv-x="228" 
d="M207 236l-49 -27q-99 138 -99 281q0 144 104 289l48 -29q-86 -134 -86 -259q0 -75 20.5 -130.5t61.5 -124.5z" />
    <glyph glyph-name="parenright.ordn" horiz-adv-x="227" 
d="M68 209l-49 27q41 67 62 124.5t21 132.5q0 69 -21 128.5t-64 128.5l48 29q103 -139 103 -287q0 -141 -100 -283z" />
    <glyph glyph-name="hyphen.ordn" horiz-adv-x="219" 
d="M199 437h-179v61h179v-61z" />
    <glyph glyph-name="comma.ordn" horiz-adv-x="115" 
d="M56 206l-32 10l20 68q0 5 -4 7l-23 9l15 55q37 -2 55 -10t18 -32q0 -16 -11 -36z" />
    <glyph glyph-name="period.ordn" horiz-adv-x="129" 
d="M109 315q0 -42 -44 -42q-45 0 -45 42q0 41 45 41q44 0 44 -41z" />
    <glyph glyph-name="minus.ordn" horiz-adv-x="309" 
d="M279 475h-249v54h249v-54z" />
    <glyph glyph-name="plus.ordn" horiz-adv-x="309" 
d="M183 377h-57v98h-96v54h96v95h57v-95h96v-54h-96v-98z" />
    <glyph glyph-name="equal.ordn" horiz-adv-x="307" 
d="M277 400h-247v56h247v-56zM277 506h-247v56h247v-56z" />
    <glyph glyph-name="a.ordn" horiz-adv-x="369" 
d="M347 281h-91l-6 41l-2 1q-55 -50 -119 -50q-93 0 -93 88q0 47 29.5 70t90.5 28l89 7v36q0 38 -13 54t-54 16q-25 0 -37.5 -2t-23 -13t-10.5 -34l-55 6q0 87 127 87q70 0 97 -24t27 -89v-170q0 -8 2 -10t9 -3l33 -5v-34zM245 368v60l-76 -6q-42 -4 -57.5 -16.5
t-15.5 -38.5q0 -49 50 -49q57 0 99 50z" />
    <glyph glyph-name="b.ordn" horiz-adv-x="399" 
d="M118 281h-57q8 48 8 92v332q0 10 -9 13l-39 12l6 34h100v-187q58 39 114 39q58 0 91 -39t33 -120q0 -184 -139 -184q-61 0 -102 40l-2 -1zM127 532v-171q44 -40 88 -40q91 0 91 131q0 116 -80 116q-45 0 -99 -36z" />
    <glyph glyph-name="c.ordn" horiz-adv-x="330" 
d="M286 342l19 -42q-42 -27 -113 -27q-81 0 -120.5 45.5t-39.5 123.5q0 87 46.5 130.5t125.5 43.5q62 0 100 -20v-84l-43 2l-8 42q-2 7 -8 9q-16 6 -45 6q-49 0 -78 -30t-29 -95q0 -125 108 -125q47 0 85 21z" />
    <glyph glyph-name="d.ordn" horiz-adv-x="400" 
d="M374 281h-91l-6 42l-3 1q-53 -51 -116 -51q-124 0 -124 166q0 90 37.5 133.5t100.5 43.5q56 0 101 -31v120q0 10 -9 13l-39 12l6 34h99v-431q0 -8 1.5 -10t9.5 -3l33 -5v-34zM272 372v162q-41 35 -91 35q-88 0 -88 -129q0 -118 80 -118q51 0 99 50z" />
    <glyph glyph-name="e.ordn" horiz-adv-x="350" 
d="M291 345l18 -43q-53 -29 -119 -29q-158 0 -158 174q0 83 42 126t108 43q136 0 136 -152q0 -11 -2 -31h-223q3 -111 102 -111q44 0 96 23zM94 477h164q-1 93 -76 93q-80 0 -88 -93z" />
    <glyph glyph-name="f.ordn" horiz-adv-x="277" 
d="M231 281h-199v35l42 4q11 1 11 13v227q0 6 -6 6h-47v44h53v49q0 112 120 112q46 0 72 -16t26 -60l-55 -7q0 24 -10.5 32t-35.5 8q-34 0 -46.5 -16.5t-12.5 -50.5v-45q0 -6 5 -6h109v-44h-114v-232q0 -8 2 -10t9 -3l77 -6v-34z" />
    <glyph glyph-name="g.ordn" horiz-adv-x="390" 
d="M178 137q-52 0 -110 22l14 46q47 -20 98 -20q57 0 76 25t19 86v39l-2 1q-52 -49 -112 -49q-127 0 -127 158q0 86 37.5 128.5t99.5 42.5q56 0 103 -34l7 28h56q-7 -58 -7 -89v-224q0 -94 -35.5 -127t-116.5 -33zM272 386v148q-41 35 -92 35q-87 0 -87 -122q0 -111 80 -111
q52 0 99 50z" />
    <glyph glyph-name="h.ordn" horiz-adv-x="426" 
d="M404 281h-154v34l38 4q9 1 9 12v151q0 47 -15 67t-46 20q-45 0 -101 -43v-193q0 -8 1.5 -10t9.5 -3l37 -5v-34h-150v35l33 4q11 1 11 13v372q0 10 -9 13l-39 12l6 34h100v-192q57 44 118 44q103 0 103 -119v-164v-6.5t1 -3.5t3 -2.5t6 -0.5l38 -5v-34z" />
    <glyph glyph-name="i.ordn" horiz-adv-x="206" 
d="M139 722q0 -41 -42 -41t-42 41q0 40 42 40t42 -40zM189 281h-167v35l44 4q11 1 11 13v217q0 11 -9 14l-38 12l6 34h99v-277q0 -8 1.5 -10t9.5 -3l43 -5v-34z" />
    <glyph glyph-name="j.ordn" horiz-adv-x="199" 
d="M75 251v299q0 12 -8 14l-43 12l6 34h104v-371q0 -101 -95 -101q-58 0 -91 27l23 38q25 -19 60 -19q26 0 35 15.5t9 51.5zM139 722q0 -41 -42 -41t-42 41q0 40 42 40t42 -40z" />
    <glyph glyph-name="k.ordn" horiz-adv-x="399" 
d="M388 281h-142v34l28 5l-83 133l-56 -60v-60q0 -8 1.5 -10t9.5 -3l40 -5v-34h-161v35l41 4q11 1 11 13v372q0 10 -9 13l-39 12l6 34h100v-308l141 154h72v-35l-37 -7q-9 -2 -17 -10l-60 -65l101 -161q5 -9 19 -11l34 -6v-34z" />
    <glyph glyph-name="l.ordn" horiz-adv-x="205" 
d="M186 281h-161v35l41 4q11 1 11 13v372q0 10 -9 13l-39 12l6 34h100v-431q0 -8 1.5 -10t9.5 -3l40 -5v-34z" />
    <glyph glyph-name="m.ordn" horiz-adv-x="613" 
d="M591 281h-154v34l38 4q9 1 9 12v159q0 77 -57 77q-34 0 -88 -33q2 -22 2 -38v-163v-6.5t1 -3.5t3 -2.5t6 -0.5l33 -5v-34h-147v34l36 4q9 2 9 12v161q0 23 -2.5 36.5t-14.5 25.5t-34 12q-26 0 -55.5 -13.5t-40.5 -26.5v-193q0 -8 1.5 -10t9.5 -3l36 -5v-34h-149v35l33 4
q11 1 11 13v217q0 11 -9 14l-38 12l6 34h85l6 -38h3q58 44 117 44q58 0 81 -40q58 40 117 40q54 0 75.5 -30t21.5 -89v-164q0 -8 1.5 -10t9.5 -3l38 -5v-34z" />
    <glyph glyph-name="n.ordn" horiz-adv-x="424" 
d="M402 281h-153v34l37 4q9 1 9 12v151q0 45 -13.5 65t-48.5 20q-48 0 -100 -41v-193q0 -8 1.5 -10t9.5 -3l37 -5v-34h-150v35l33 4q11 1 11 13v217q0 11 -9 14l-37 12l5 34h85l6 -38l2 -1q62 45 121 45q55 0 80.5 -28.5t25.5 -90.5v-164v-6.5t1 -3.5t3 -2.5t6 -0.5l38 -5
v-34z" />
    <glyph glyph-name="o.ordn" horiz-adv-x="385" 
d="M191 273q-81 0 -120 46.5t-39 126.5q0 78 41.5 124t123.5 46q80 0 118 -44.5t38 -120.5q0 -84 -40 -131t-122 -47zM193 317q99 0 99 129q0 124 -96 124q-104 0 -104 -124q0 -129 101 -129z" />
    <glyph glyph-name="p.ordn" horiz-adv-x="406" 
d="M206 145h-168v35l27 4q11 2 11 13v353q0 11 -9 14l-37 12l6 34h86l6 -37h1q58 43 119 43q124 0 124 -159q0 -183 -138 -183q-58 0 -100 36v-113q0 -8 2 -10t9 -2l61 -5v-35zM134 528v-167q44 -40 88 -40q91 0 91 131q0 115 -80 115q-46 0 -99 -39z" />
    <glyph glyph-name="q.ordn" horiz-adv-x="391" 
d="M374 145h-160v35l49 5q7 0 9.5 2.5t2.5 9.5v125h-1q-54 -49 -113 -49q-127 0 -127 165q0 90 37.5 134t99.5 44q56 0 103 -34l7 28h56q-7 -58 -7 -89v-324q0 -7 1.5 -9t9.5 -4l33 -4v-35zM272 372v162q-41 35 -92 35q-87 0 -87 -129q0 -118 80 -118q52 0 99 50z" />
    <glyph glyph-name="r.ordn" horiz-adv-x="295" 
d="M207 281h-174v35l33 4q11 1 11 13v217q0 11 -9 14l-38 12l6 34h86l7 -44h1q46 50 99 50q30 0 48 -6v-96l-46 2l-8 44q-1 7 -8 7q-39 0 -80 -41v-193q0 -8 2 -10t9 -3l61 -4v-35z" />
    <glyph glyph-name="s.ordn" horiz-adv-x="313" 
d="M273 516l-43 2l-8 40q0 7 -7 9q-21 7 -51 7q-35 0 -53 -13.5t-18 -35.5q0 -17 13 -28.5t27 -15.5t42 -11q26 -7 39.5 -11.5t32.5 -15.5t27.5 -28t8.5 -42q0 -52 -37.5 -76t-95.5 -24q-36 0 -72 7.5t-47 14.5v81l43 -2l7 -41q2 -7 8 -9q45 -10 66 -10q73 0 73 51
q0 25 -19 36.5t-57 19.5q-23 5 -32.5 7.5t-29 10.5t-28 16.5t-16 24.5t-7.5 37q0 51 37.5 75t93.5 24q59 0 103 -17v-83z" />
    <glyph glyph-name="t.ordn" horiz-adv-x="283" 
d="M246 333l13 -40q-50 -20 -90 -20q-92 0 -92 86v201q0 6 -5 6h-48v37q38 4 52.5 23t21.5 68h38v-78q0 -6 5 -6h97v-44h-102v-189q0 -31 10.5 -43.5t38.5 -12.5q23 0 61 12z" />
    <glyph glyph-name="u.ordn" horiz-adv-x="425" 
d="M395 281h-92l-6 44h-1q-62 -52 -128 -52q-52 0 -73.5 29.5t-21.5 87.5v162q0 13 -10 15l-35 9l6 34h98v-207q0 -44 11 -63t42 -19q54 0 107 55v177q0 12 -11 14l-33 9l5 34h97v-277q0 -12 9 -13l36 -4v-35z" />
    <glyph glyph-name="v.ordn" horiz-adv-x="390" 
d="M231 281h-67l-112 277q-2 8 -13 11l-29 6l7 35h137v-35l-46 -5l91 -236l92 236l-45 5l6 35h128v-35l-21 -4q-14 -3 -17 -11z" />
    <glyph glyph-name="w.ordn" horiz-adv-x="563" 
d="M421 281h-69l-65 258h-1l-72 -258h-70l-94 277q-2 8 -13 11l-29 6l7 35h132v-35l-42 -5l75 -231h1l75 262h63l69 -261h1l72 230l-43 5l6 35h127v-35l-23 -4q-13 -2 -17 -13z" />
    <glyph glyph-name="x.ordn" horiz-adv-x="389" 
d="M377 281h-156v34l42 6l-75 93l-76 -93l43 -6v-34h-143v34l35 7q8 2 16 10l94 114l-90 111q-7 9 -16 11l-29 7l7 35h137v-35l-41 -5l71 -87l73 87l-42 5l7 35h127v-35l-30 -6q-9 -2 -17 -12l-87 -105l96 -118q9 -11 17 -12l37 -7v-34z" />
    <glyph glyph-name="y.ordn" horiz-adv-x="393" 
d="M247 145h-178v36l48 5q8 1 14 13l39 86l-119 273q-4 8 -14 11l-27 6l7 35h137v-35l-44 -5l89 -218h1l91 218l-44 5l6 35h130v-35l-22 -3q-14 -3 -17 -11l-161 -375l64 -6v-35z" />
    <glyph glyph-name="z.ordn" horiz-adv-x="331" 
d="M304 281h-273v34l198 252h-132q-6 0 -7 -8l-8 -41l-44 -2v94h262v-36l-196 -250h141q5 0 7 8l8 47l44 3v-101z" />
    <glyph glyph-name="zero.denom" horiz-adv-x="394" 
d="M195 -8q-90 0 -122.5 58t-32.5 168q0 109 35.5 169t126.5 60q38 0 65.5 -11.5t44 -30.5t26.5 -49t13 -60t3 -70q0 -114 -34 -174t-125 -60zM198 41q54 0 72 44t18 136q0 45 -3 73t-11.5 53.5t-26.5 37t-47 11.5q-55 0 -74 -43.5t-19 -135.5q0 -89 18 -132.5t73 -43.5z
" />
    <glyph glyph-name="one.denom" horiz-adv-x="247" 
d="M230 0h-205v38l61 4q7 1 8.5 3t1.5 10v319q0 11 -9 14l-62 11l5 38h130v-382q0 -8 1.5 -10t8.5 -3l60 -4v-38z" />
    <glyph glyph-name="two.denom" horiz-adv-x="344" 
d="M320 0h-292v41l125 151q34 41 46 57.5t23.5 41t11.5 46.5q0 30 -17 45.5t-59 15.5q-36 0 -52 -14.5t-16 -51.5l-59 7q0 108 132 108q136 0 136 -105q0 -42 -20.5 -78t-62.5 -85l-111 -133h149q8 0 10 7l10 54h46v-107z" />
    <glyph glyph-name="three.denom" horiz-adv-x="346" 
d="M226 236v-3q85 -19 85 -109q0 -63 -41.5 -97.5t-109.5 -34.5q-93 0 -145 57l38 42q44 -46 106 -46q39 0 63.5 20t24.5 61q0 79 -92 79q-24 0 -45 -4v49l39 4q89 7 89 81q0 63 -76 63q-35 0 -51.5 -15t-16.5 -51l-60 7q0 108 132 108q136 0 136 -106q0 -80 -76 -105z" />
    <glyph glyph-name="four.denom" horiz-adv-x="371" 
d="M284 103v-103h-60v104h-196v49l178 282h79v-280h57v-52h-58zM224 155v210l-132 -210h132z" />
    <glyph glyph-name="five.denom" horiz-adv-x="353" 
d="M296 384h-181l-11 -139q38 28 89 28q57 0 91 -33.5t34 -94.5q0 -69 -39 -111t-115 -42q-96 0 -148 55l38 42q44 -44 106 -44q45 0 69 23.5t24 68.5q0 86 -77 86q-39 0 -81 -34l-46 19l15 228h232v-52z" />
    <glyph glyph-name="six.denom" horiz-adv-x="372" 
d="M329 351l-60 -7q0 31 -14 43t-45 12q-102 0 -102 -166q48 39 107 39q58 0 89.5 -36.5t31.5 -96.5q0 -67 -38 -107t-105 -40q-149 0 -149 223q0 41 7 78t24.5 73.5t53.5 58.5t86 22q114 0 114 -96zM109 184q6 -143 86 -143q37 0 56.5 25.5t19.5 67.5q0 89 -68 89
q-25 0 -52.5 -13t-41.5 -26z" />
    <glyph glyph-name="seven.denom" horiz-adv-x="328" 
d="M166 0h-68q11 119 56 224.5t93 159.5h-157q-9 0 -10 -7l-11 -56l-44 -3v118h295v-46q-57 -56 -104 -174.5t-50 -215.5z" />
    <glyph glyph-name="eight.denom" horiz-adv-x="346" 
d="M234 227q39 -21 60.5 -46.5t21.5 -64.5q0 -57 -41.5 -90.5t-105.5 -33.5q-62 0 -100.5 30.5t-38.5 83.5q0 67 79 125q-62 39 -62 103q0 51 37 82t92 31q59 0 92.5 -29.5t33.5 -73.5q0 -60 -68 -117zM152 207q-64 -48 -64 -97q0 -32 23 -51.5t62 -19.5q35 0 57.5 21.5
t22.5 50.5q0 8 -1.5 15.5t-5.5 14.5t-7.5 12t-11.5 11t-12 9.5t-15 9t-15 8t-16.5 8.5t-16.5 8zM190 250q54 47 54 91q0 28 -20 43.5t-49 15.5t-48 -17.5t-19 -44.5q0 -30 20 -48t62 -40z" />
    <glyph glyph-name="nine.denom" horiz-adv-x="373" 
d="M44 34l30 44q41 -35 95 -35q93 0 95 151q-45 -39 -104 -39q-60 0 -92 39.5t-32 104.5q0 67 38.5 107.5t106.5 40.5q44 0 74.5 -17.5t46 -50t21.5 -69.5t6 -86q0 -232 -159 -232q-79 0 -126 42zM264 245q0 20 -1 31q-8 122 -85 122q-38 0 -57.5 -26t-19.5 -69
q0 -100 69 -100q52 0 94 42z" />
    <glyph glyph-name="onefifth" horiz-adv-x="855" 
d="M248 281h-205v38l61 4q7 1 8.5 3t1.5 10v319q0 11 -9 14l-62 11l5 38h130v-382q0 -8 1.5 -10t8.5 -3l60 -4v-38zM251 -12h-64l356 736h63zM782 384h-181l-11 -139q38 28 89 28q57 0 91 -33.5t34 -94.5q0 -69 -39 -111t-115 -42q-96 0 -148 55l38 42q44 -44 106 -44
q45 0 69 23.5t24 68.5q0 86 -77 86q-39 0 -81 -34l-46 19l15 228h232v-52z" />
    <glyph glyph-name="twofifths" horiz-adv-x="855" 
d="M320 281h-292v41l125 151q34 41 46 57.5t23.5 41t11.5 46.5q0 30 -17 45.5t-59 15.5q-36 0 -52 -14.5t-16 -51.5l-59 7q0 108 132 108q136 0 136 -105q0 -42 -20.5 -78t-62.5 -85l-111 -133h149q8 0 10 7l10 54h46v-107zM295 -12h-64l356 736h63zM801 384h-181l-11 -139
q39 28 89 28q57 0 91 -33.5t34 -94.5q0 -69 -39 -111t-115 -42q-96 0 -148 55l38 42q44 -44 106 -44q45 0 69 23.5t24 68.5q0 86 -77 86q-39 0 -81 -34l-46 19l15 228h232v-52z" />
    <glyph glyph-name="threefifths" horiz-adv-x="855" 
d="M226 517v-3q85 -19 85 -109q0 -63 -41.5 -97.5t-109.5 -34.5q-93 0 -145 57l38 42q44 -46 106 -46q39 0 63.5 20t24.5 61q0 79 -92 79q-24 0 -45 -4v49l39 4q89 7 89 81q0 63 -76 63q-35 0 -51.5 -15t-16.5 -51l-60 7q0 108 132 108q136 0 136 -106q0 -80 -76 -105z
M272 -12h-64l356 736h63zM785 384h-181l-11 -139q39 28 89 28q57 0 91 -33.5t34 -94.5q0 -69 -39 -111t-115 -42q-96 0 -148 55l38 42q44 -44 106 -44q45 0 69 23.5t24 68.5q0 86 -77 86q-39 0 -81 -34l-46 19l15 228h232v-52z" />
    <glyph glyph-name="fourfifths" horiz-adv-x="855" 
d="M281 384v-103h-60v104h-196v49l178 282h79v-280h57v-52h-58zM221 436v210l-132 -210h132zM301 -12h-64l356 736h63zM798 384h-181l-11 -139q38 28 89 28q57 0 91 -33.5t34 -94.5q0 -69 -39 -111t-115 -42q-96 0 -148 55l38 42q44 -44 106 -44q45 0 69 23.5t24 68.5
q0 86 -77 86q-39 0 -81 -34l-46 19l15 228h232v-52z" />
    <glyph glyph-name="onesixth" horiz-adv-x="855" 
d="M262 281h-205v38l61 4q7 1 8.5 3t1.5 10v319q0 11 -9 14l-62 11l5 38h130v-382q0 -8 1.5 -10t8.5 -3l60 -4v-38zM247 -12h-64l356 736h63zM790 351l-60 -7q0 31 -14 43t-45 12q-102 0 -102 -166q48 39 107 39q58 0 89.5 -36.5t31.5 -96.5q0 -67 -38 -107t-105 -40
q-149 0 -149 223q0 41 7 78t24.5 73.5t53.5 58.5t86 22q114 0 114 -96zM570 184q6 -143 86 -143q37 0 56.5 25.5t19.5 67.5q0 89 -68 89q-25 0 -52.5 -13t-41.5 -26z" />
    <glyph glyph-name="fivesixths" horiz-adv-x="855" 
d="M296 665h-181l-11 -139q38 28 89 28q57 0 91 -33.5t34 -94.5q0 -69 -39 -111t-115 -42q-96 0 -148 55l38 42q44 -44 106 -44q45 0 69 23.5t24 68.5q0 86 -77 86q-39 0 -81 -34l-46 19l15 228h232v-52zM279 -12h-64l356 736h63zM811 351l-60 -7q0 31 -14 43t-45 12
q-102 0 -102 -166q48 39 107 39q58 0 89.5 -36.5t31.5 -96.5q0 -67 -38 -107t-105 -40q-149 0 -149 223q0 41 7 78t24.5 73.5t53.5 58.5t86 22q114 0 114 -96zM591 184q6 -143 86 -143q37 0 56.5 25.5t19.5 67.5q0 89 -68 89q-25 0 -52.5 -13t-41.5 -26z" />
    <glyph glyph-name="oneseventh" horiz-adv-x="855" 
d="M246 281h-205v38l61 4q7 1 8.5 3t1.5 10v319q0 11 -9 14l-62 11l5 38h130v-382q0 -8 1.5 -10t8.5 -3l60 -4v-38zM245 -12h-64l356 736h63zM665 0h-68q11 119 56 224.5t93 159.5h-157q-9 0 -10 -7l-11 -56l-44 -3v118h295v-46q-57 -56 -104 -174.5t-50 -215.5z" />
    <glyph glyph-name="twosevenths" horiz-adv-x="855" 
d="M320 281h-292v41l125 151q34 41 46 57.5t23.5 41t11.5 46.5q0 30 -17 45.5t-59 15.5q-36 0 -52 -14.5t-16 -51.5l-59 7q0 108 132 108q136 0 136 -105q0 -42 -20.5 -78t-62.5 -85l-111 -133h149q8 0 10 7l10 54h46v-107zM285 -12h-64l356 736h63zM683 0h-68
q11 119 56 224.5t93 159.5h-157q-9 0 -10 -7l-11 -56l-44 -3v118h295v-46q-57 -56 -104 -174.5t-50 -215.5z" />
    <glyph glyph-name="threesevenths" horiz-adv-x="855" 
d="M226 517v-3q85 -19 85 -109q0 -63 -41.5 -97.5t-109.5 -34.5q-93 0 -145 57l38 42q44 -46 106 -46q39 0 63.5 20t24.5 61q0 79 -92 79q-24 0 -45 -4v49l39 4q89 7 89 81q0 63 -76 63q-35 0 -51.5 -15t-16.5 -51l-60 7q0 108 132 108q136 0 136 -106q0 -80 -76 -105z
M265 -12h-64l356 736h63zM687 0h-68q11 119 56 224.5t93 159.5h-157q-9 0 -10 -7l-11 -56l-44 -3v118h295v-46q-57 -56 -104 -174.5t-50 -215.5z" />
    <glyph glyph-name="foursevenths" horiz-adv-x="855" 
d="M264 384v-103h-60v104h-196v49l178 282h79v-280h57v-52h-58zM204 436v210l-132 -210h132zM287 -12h-64l356 736h63zM682 0h-68q11 119 56 224.5t93 159.5h-157q-9 0 -10 -7l-11 -56l-44 -3v118h295v-46q-57 -56 -104 -174.5t-50 -215.5z" />
    <glyph glyph-name="fivesevenths" horiz-adv-x="855" 
d="M296 665h-181l-11 -139q38 28 89 28q57 0 91 -33.5t34 -94.5q0 -69 -39 -111t-115 -42q-96 0 -148 55l38 42q44 -44 106 -44q45 0 69 23.5t24 68.5q0 86 -77 86q-39 0 -81 -34l-46 19l15 228h232v-52zM262 -12h-64l356 736h63zM669 0h-68q11 119 56 224.5t93 159.5h-157
q-9 0 -10 -7l-11 -56l-44 -3v118h295v-46q-57 -56 -104 -174.5t-50 -215.5z" />
    <glyph glyph-name="sixsevenths" horiz-adv-x="855" 
d="M329 632l-60 -7q0 31 -14 43t-45 12q-102 0 -102 -166q48 39 107 39q58 0 89.5 -36.5t31.5 -96.5q0 -67 -38 -107t-105 -40q-149 0 -149 223q0 41 7 78t24.5 73.5t53.5 58.5t86 22q114 0 114 -96zM109 465q6 -143 86 -143q37 0 56.5 25.5t19.5 67.5q0 89 -68 89
q-25 0 -52.5 -13t-41.5 -26zM275 -12h-64l356 736h63zM691 0h-68q11 119 56 224.5t93 159.5h-157q-9 0 -10 -7l-11 -56l-44 -3v118h295v-46q-57 -56 -104 -174.5t-50 -215.5z" />
    <glyph glyph-name="oneninth" horiz-adv-x="855" 
d="M252 281h-205v38l61 4q7 1 8.5 3t1.5 10v319q0 11 -9 14l-62 11l5 38h130v-382q0 -8 1.5 -10t8.5 -3l60 -4v-38zM252 -12h-64l356 736h63zM518 34l30 44q41 -35 95 -35q93 0 95 151q-45 -39 -104 -39q-60 0 -92 39.5t-32 104.5q0 67 38.5 107.5t106.5 40.5
q44 0 74.5 -17.5t46 -50t21.5 -69.5t6 -86q0 -232 -159 -232q-80 0 -126 42zM738 245q0 20 -1 31q-8 122 -85 122q-38 0 -57.5 -26t-19.5 -69q0 -100 69 -100q52 0 94 42z" />
    <glyph glyph-name="twoninths" horiz-adv-x="855" 
d="M320 281h-292v41l125 151q34 41 46 57.5t23.5 41t11.5 46.5q0 30 -17 45.5t-59 15.5q-36 0 -52 -14.5t-16 -51.5l-59 7q0 108 132 108q136 0 136 -105q0 -42 -20.5 -78t-62.5 -85l-111 -133h149q8 0 10 7l10 54h46v-107zM294 -12h-64l356 736h63zM538 34l30 44
q41 -35 95 -35q93 0 95 151q-45 -39 -104 -39q-60 0 -92 39.5t-32 104.5q0 67 38.5 107.5t106.5 40.5q44 0 74.5 -17.5t46 -50t21.5 -69.5t6 -86q0 -232 -159 -232q-79 0 -126 42zM758 245q0 20 -1 31q-8 122 -85 122q-38 0 -57.5 -26t-19.5 -69q0 -100 69 -100q52 0 94 42z
" />
    <glyph glyph-name="fourninths" horiz-adv-x="855" 
d="M284 384v-103h-60v104h-196v49l178 282h79v-280h57v-52h-58zM224 436v210l-132 -210h132zM307 -12h-64l356 736h63zM542 34l30 44q41 -35 95 -35q93 0 95 151q-45 -39 -104 -39q-60 0 -92 39.5t-32 104.5q0 67 38.5 107.5t106.5 40.5q44 0 74.5 -17.5t46 -50t21.5 -69.5
t6 -86q0 -232 -159 -232q-80 0 -126 42zM762 245q0 20 -1 31q-8 122 -85 122q-38 0 -57.5 -26t-19.5 -69q0 -100 69 -100q52 0 94 42z" />
    <glyph glyph-name="fiveninths" horiz-adv-x="855" 
d="M296 665h-181l-11 -139q38 28 89 28q57 0 91 -33.5t34 -94.5q0 -69 -39 -111t-115 -42q-96 0 -148 55l38 42q44 -44 106 -44q45 0 69 23.5t24 68.5q0 86 -77 86q-39 0 -81 -34l-46 19l15 228h232v-52zM270 -12h-64l356 736h63zM521 34l30 44q41 -35 95 -35q93 0 95 151
q-45 -39 -104 -39q-60 0 -92 39.5t-32 104.5q0 67 38.5 107.5t106.5 40.5q44 0 74.5 -17.5t46 -50t21.5 -69.5t6 -86q0 -232 -159 -232q-80 0 -126 42zM741 245q0 20 -1 31q-8 122 -85 122q-38 0 -57.5 -26t-19.5 -69q0 -100 69 -100q52 0 94 42z" />
    <glyph glyph-name="sevenninths" horiz-adv-x="855" 
d="M184 281h-68q11 119 56 224.5t93 159.5h-157q-9 0 -10 -7l-11 -56l-44 -3v118h295v-46q-57 -56 -104 -174.5t-50 -215.5zM232 -12h-64l356 736h63zM521 34l30 44q41 -35 95 -35q93 0 95 151q-45 -39 -104 -39q-60 0 -92 39.5t-32 104.5q0 67 38.5 107.5t106.5 40.5
q44 0 74.5 -17.5t46 -50t21.5 -69.5t6 -86q0 -232 -159 -232q-80 0 -126 42zM741 245q0 20 -1 31q-8 122 -85 122q-38 0 -57.5 -26t-19.5 -69q0 -100 69 -100q52 0 94 42z" />
    <glyph glyph-name="eightninths" horiz-adv-x="855" 
d="M234 508q39 -21 60.5 -46.5t21.5 -64.5q0 -57 -41.5 -90.5t-105.5 -33.5q-62 0 -100.5 30.5t-38.5 83.5q0 67 79 125q-62 39 -62 103q0 51 37 82t92 31q59 0 92.5 -29.5t33.5 -73.5q0 -60 -68 -117zM152 488q-64 -48 -64 -97q0 -32 23 -51.5t62 -19.5q35 0 57.5 21.5
t22.5 50.5q0 8 -1.5 15.5t-5.5 14.5t-7.5 12t-11.5 11t-12 9.5t-15 9t-15 8t-16.5 8.5t-16.5 8zM190 531q54 47 54 91q0 28 -20 43.5t-49 15.5t-48 -17.5t-19 -44.5q0 -30 20 -48t62 -40zM268 -12h-64l356 736h63zM522 34l30 44q41 -35 95 -35q93 0 95 151q-45 -39 -104 -39
q-60 0 -92 39.5t-32 104.5q0 67 38.5 107.5t106.5 40.5q44 0 74.5 -17.5t46 -50t21.5 -69.5t6 -86q0 -232 -159 -232q-80 0 -126 42zM742 245q0 20 -1 31q-8 122 -85 122q-38 0 -57.5 -26t-19.5 -69q0 -100 69 -100q52 0 94 42z" />
    <glyph glyph-name="commaaccent" horiz-adv-x="500" 
d="M245 -258l-36 14l25 92q1 7 -5 10l-34 15l19 65q49 -4 70.5 -16t21.5 -43q0 -23 -16 -53z" />
    <glyph glyph-name="revcommaaccent" horiz-adv-x="500" 
d="M255 764l36 -14l-25 -92q-1 -7 5 -10l34 -15l-19 -65q-49 4 -70.5 16t-21.5 43q0 23 16 53z" />
    <glyph glyph-name="tilde.cap" horiz-adv-x="500" 
d="M197 880l134 -35q10 -3 16 3l39 39l36 -27l-23 -32q-33 -46 -62 -46q-16 0 -29 4l-137 36q-10 3 -16 -3l-42 -41l-36 27l29 41q27 39 58 39q11 0 33 -5z" />
    <glyph glyph-name="ring.cap" horiz-adv-x="500" 
d="M332 839q0 -37 -22 -59t-60 -22t-60 21t-22 58q0 39 23 60.5t59 21.5t59 -21t23 -59zM250 799q36 0 36 40q0 38 -36 38q-37 0 -37 -40q0 -38 37 -38z" />
    <glyph glyph-name="circumflex.cap" horiz-adv-x="500" 
d="M369 766l-119 84l-119 -84l-35 34l116 99h76l116 -99z" />
    <glyph glyph-name="acute.cap" horiz-adv-x="500" 
d="M360 872l-197 -106l-24 38l181 131z" />
    <glyph glyph-name="grave.cap" horiz-adv-x="500" 
d="M336 765l-197 106l40 63l181 -131z" />
    <glyph glyph-name="dieresis.cap" horiz-adv-x="500" 
d="M200 831q0 -22 -13.5 -35.5t-36.5 -13.5t-36.5 13.5t-13.5 35.5t13.5 35.5t36.5 13.5t36.5 -13.5t13.5 -35.5zM399 831q0 -22 -13.5 -35.5t-36.5 -13.5t-36.5 13.5t-13.5 35.5t13.5 35.5t36.5 13.5t36.5 -13.5t13.5 -35.5z" />
    <glyph glyph-name="caron.cap" horiz-adv-x="500" 
d="M404 875l-116 -99h-76l-116 99l35 34l119 -84l119 84z" />
    <glyph glyph-name="macron.cap" horiz-adv-x="500" 
d="M401 797h-303v57h303v-57z" />
    <glyph glyph-name="dotaccent.cap" horiz-adv-x="500" 
d="M304 835q0 -53 -54 -53t-54 53t54 53t54 -53z" />
    <glyph glyph-name="cedilla.cap" horiz-adv-x="500" 
d="M162 -224l6 46q15 -3 33 -3q75 0 75 55q0 46 -72 47l15 109l52 -8l-9 -66q32 -6 52 -26t20 -53q0 -42 -31 -73.5t-97 -31.5q-25 0 -44 4z" />
    <glyph glyph-name="hungarumlaut.cap" horiz-adv-x="500" 
d="M286 909l-170 -144l-31 32l149 166zM455 898l-177 -135l-30 34l158 157z" />
    <glyph glyph-name="commaaccent.cap" horiz-adv-x="500" 
d="M245 -258l-36 14l25 92q1 7 -5 10l-34 15l19 65q49 -4 70.5 -16t21.5 -43q0 -23 -16 -53z" />
    <glyph glyph-name="breve.cap" horiz-adv-x="500" 
d="M349 913l51 -19q-32 -112 -150 -112q-122 0 -150 112l55 19q14 -38 35.5 -57t61.5 -19t61 19.5t36 56.5z" />
    <glyph glyph-name="caron.alt" horiz-adv-x="500" 
d="M246 560l-40 12q19 59 19 96q0 35 -15 65l58 28q26 -26 26 -53q0 -19 -8 -46q-13 -42 -40 -102z" />
    <glyph glyph-name="ogonek.cap" horiz-adv-x="500" 
d="M310 -143l18 -49q-42 -20 -83 -20q-39 0 -61.5 18.5t-22.5 56.5q0 70 109 156l53 -15q-92 -74 -92 -126q0 -33 32 -33q20 0 47 12z" />
    <glyph glyph-name="zero.lf" horiz-adv-x="553" 
d="M274 -12q-57 0 -98.5 19t-65.5 48.5t-37.5 77.5t-18 95t-4.5 111q0 80 9.5 139t33.5 111.5t72 80.5t119 28q57 0 97.5 -19.5t64 -49.5t36.5 -78t17 -92.5t4 -105.5q0 -67 -5 -117t-19.5 -99t-39.5 -80t-66.5 -50t-98.5 -19zM277 44q41 0 70 15.5t46 40.5t26 66.5t12 82
t3 97.5q0 58 -2.5 95.5t-11 78.5t-24.5 64.5t-44.5 39t-69.5 15.5q-51 0 -84.5 -21.5t-50 -65.5t-22.5 -93.5t-6 -122.5q0 -53 3 -91.5t12.5 -79t26 -65t46 -40.5t70.5 -16z" />
    <glyph glyph-name="one.lf" horiz-adv-x="340" 
d="M321 0h-291v45l97 6q10 1 13 5t3 15v528q0 17 -15 21l-97 17l5 46h174v-612q0 -12 2.5 -15.5t13.5 -4.5l95 -7v-44z" />
    <glyph glyph-name="two.lf" horiz-adv-x="485" 
d="M455 0h-424v46l191 241q4 5 20.5 26t20.5 26t17.5 23t17.5 24t14.5 22t13.5 23.5t9.5 21.5t8.5 24t4 22.5t2 24.5q0 60 -30 88.5t-98 28.5q-67 0 -95.5 -22t-28.5 -88l-64 8q0 49 16 82t45 49t59 22t69 6q197 0 197 -166q0 -36 -11 -71t-35 -73t-40.5 -60t-49.5 -63
l-169 -209h258q14 0 16 11l16 87h50v-154z" />
    <glyph glyph-name="three.lf" horiz-adv-x="485" 
d="M311 370v-4q129 -32 129 -173q0 -90 -56 -147.5t-157 -57.5q-135 0 -212 86l45 50q69 -74 170 -74q58 0 99 34.5t41 103.5q0 144 -150 144q-30 0 -72 -6v59l65 6q73 6 108 41.5t35 90.5q0 118 -120 118q-68 0 -98.5 -22.5t-30.5 -87.5l-64 8q0 40 12 69t30 46t45 27.5
t52 13.5t55 3q97 0 143 -46t46 -123q0 -115 -115 -159z" />
    <glyph glyph-name="four.lf" horiz-adv-x="517" 
d="M476 0h-251v45l87 6q10 1 13 4.5t3 15.5v121h-298v47l270 440h96v-428h89v-63h-90v-117q0 -12 2.5 -15.5t13.5 -4.5l65 -7v-44zM329 251v360l-223 -360h223z" />
    <glyph glyph-name="five.lf" horiz-adv-x="497" 
d="M420 623h-279l-18 -248q57 49 138 49q88 0 138 -54t50 -154q0 -101 -58 -164.5t-161 -63.5q-140 0 -217 82l45 50q65 -70 173 -70q61 0 104.5 39.5t43.5 124.5q0 78 -37 114.5t-94 36.5q-71 0 -137 -58l-52 24l21 351h340v-59z" />
    <glyph glyph-name="six.lf" horiz-adv-x="535" 
d="M476 559l-64 -8q0 50 -25 70t-80 20q-170 0 -175 -293q85 76 178 76q88 0 130.5 -58.5t42.5 -151.5q0 -100 -53 -163t-152 -63q-64 0 -108 29t-66 81.5t-30.5 109.5t-8.5 129q0 49 5.5 94.5t22 96t43 86.5t72.5 60t106 24q162 0 162 -139zM134 285q1 -28 3.5 -53
t11.5 -62t24 -63t43 -45t65 -19q63 0 98 44.5t35 120.5q0 79 -26.5 118.5t-90.5 39.5q-45 0 -90 -25.5t-73 -55.5z" />
    <glyph glyph-name="seven.lf" horiz-adv-x="474" 
d="M225 0h-71q16 188 85.5 359.5t146.5 263.5h-266q-14 0 -16 -11l-19 -93l-46 -3v166h427v-51q-86 -84 -161.5 -281.5t-79.5 -349.5z" />
    <glyph glyph-name="eight.lf" horiz-adv-x="492" 
d="M328 353q61 -33 94.5 -72.5t33.5 -102.5q0 -86 -59.5 -138t-152.5 -52q-90 0 -145.5 47.5t-55.5 128.5q0 59 32 107t92 96q-97 59 -97 160q0 76 54.5 123.5t130.5 47.5q88 0 135 -46t47 -111q0 -94 -109 -188zM222 337q-110 -81 -110 -173q0 -54 38 -86.5t103 -32.5
q58 0 96 38.5t38 90.5q0 15 -2.5 28t-9.5 25t-12.5 20.5t-18.5 19t-19.5 16t-24.5 15t-24 13t-27.5 13.5t-26.5 13zM273 380q95 87 95 158q0 51 -32 77t-85 26q-48 0 -80.5 -30.5t-32.5 -79.5q0 -53 34 -85t101 -66z" />
    <glyph glyph-name="nine.lf" horiz-adv-x="538" 
d="M66 49l37 53q61 -54 148 -54q31 0 55.5 10t41 25.5t28.5 39.5t18.5 45.5t10.5 51t5 49.5t2 46q-73 -73 -176 -73q-91 0 -134.5 60.5t-43.5 157.5q0 109 53 173.5t156 64.5q46 0 81 -14t57.5 -40.5t37.5 -57.5t22.5 -74t10 -81.5t2.5 -86.5q0 -42 -3 -78t-10.5 -79
t-24 -76.5t-40.5 -62.5t-62.5 -44.5t-87.5 -15.5q-119 0 -184 61zM408 383q-1 33 -2.5 54.5t-6.5 56t-15 57.5t-25 46t-40 34.5t-58 11.5q-134 0 -134 -177q0 -166 118 -166q49 0 92.5 25.5t70.5 57.5z" />
    <glyph glyph-name="dollar.lf" horiz-adv-x="512" 
d="M290 -80h-55v80h-3q-56 0 -110 12t-81 25v135h49l19 -75q2 -11 5 -14.5t12 -7.5q40 -18 109 -19v260q-40 15 -63.5 26t-52 32.5t-42 52.5t-13.5 73q0 77 47 123t124 56v74h55v-71q77 -3 160 -33v-147l-51 5l-17 76q-3 15 -6 19.5t-15 8.5q-27 9 -71 12v-260
q31 -12 49.5 -20.5t43.5 -24.5t39 -33t24 -44t10 -60q0 -72 -43.5 -118t-122.5 -59v-84zM128 508q0 -48 28 -75.5t79 -48.5v237q-51 -8 -79 -37.5t-28 -75.5zM391 173q0 46 -26 73.5t-75 48.5v-235q52 10 76.5 40.5t24.5 72.5z" />
    <glyph glyph-name="Euro.lf" horiz-adv-x="550" 
d="M27 373l10 56h47q17 132 87.5 200.5t172.5 68.5q81 0 146 -30v-135l-48 4l-13 73q-2 12 -13 17q-28 11 -79 11q-75 0 -124.5 -52t-61.5 -157h223l-10 -56h-217v-16q0 -36 1 -53h206l-10 -56h-190q30 -202 180 -202q53 0 80 11q12 4 14 18l12 72l48 4v-134
q-68 -29 -154 -29q-106 0 -169 66.5t-80 193.5h-78l10 56h63q-1 14 -1 44v25h-52z" />
    <glyph glyph-name="cent.lf" horiz-adv-x="531" 
d="M64 345q0 111 52.5 172.5t142.5 74.5v103h55v-99q74 -1 136 -27v-123l-47 3l-12 66q-2 10 -11 13q-28 9 -66 10v-381q47 2 69 10q9 3 11 13l12 66l47 3v-123q-58 -26 -139 -27v-99h-55v102q-93 12 -144 72.5t-51 170.5zM134 351q0 -166 125 -190v373q-125 -25 -125 -183z
" />
    <glyph glyph-name="sterling.lf" horiz-adv-x="550" 
d="M511 0h-445l-12 47q38 31 55.5 67t20 64.5t2.5 94.5v55h-84v56h84v100q0 214 216 214q75 0 118.5 -30t43.5 -110l-63 -9q0 55 -26 73.5t-76 18.5q-79 0 -112 -38t-33 -137v-82h205v-56h-205v-64q0 -78 -11.5 -121.5t-54.5 -86.5h295q14 0 16 11l16 87h50v-154z" />
    <glyph glyph-name="yen.lf" horiz-adv-x="572" 
d="M123 330v56h104l-138 224q-8 13 -24 17l-45 11l10 44h196v-44l-74 -9l141 -238l138 238l-72 9l10 44h183v-44l-42 -11q-16 -4 -25 -19l-132 -222h107v-56h-135v-75h135v-56h-135v-127q0 -12 2.5 -15.5t13.5 -4.5l97 -8v-44h-289v44l93 7q10 1 13 5t3 15v128h-135v56h135
v75h-135z" />
    <glyph glyph-name="florin.lf" horiz-adv-x="531" 
d="M415 367h-155l-51 -288q-14 -83 -48.5 -122.5t-107.5 -39.5q-32 0 -67 10t-52 23l23 50q44 -28 101 -28q65 0 79 82l54 303q2 10 -6 10h-94l10 56h102l20 112q15 83 53.5 123t116.5 40q63 0 117 -29l-21 -121l-47 3l-1 70q0 10 -8 13q-22 8 -46 8q-47 0 -67.5 -27.5
t-30.5 -83.5l-18 -98q-1 -10 7 -10h147z" />
    <glyph glyph-name="zero.slash" 
d="M282 -12q-57 0 -98.5 19t-65.5 48.5t-37.5 77.5t-18 95t-4.5 111q0 80 9.5 139t33.5 111.5t72 80.5t119 28q57 0 97.5 -19.5t64 -49.5t36.5 -78t17 -92.5t4 -105.5q0 -67 -5 -117t-19.5 -99t-39.5 -80t-66.5 -50t-98.5 -19zM127 336q0 -95 11.5 -157.5t45.5 -97.5
l149 553q-22 5 -43 5q-51 0 -84.5 -21.5t-50 -65.5t-22.5 -93.5t-6 -122.5zM285 44q41 0 70 15.5t46 40.5t26 66.5t12 82t3 97.5q0 101 -10.5 163t-44.5 95l-150 -554q21 -6 48 -6z" />
    <glyph glyph-name="zero.tf" 
d="M282 -12q-57 0 -98.5 19t-65.5 48.5t-37.5 77.5t-18 95t-4.5 111q0 80 9.5 139t33.5 111.5t72 80.5t119 28q57 0 97.5 -19.5t64 -49.5t36.5 -78t17 -92.5t4 -105.5q0 -67 -5 -117t-19.5 -99t-39.5 -80t-66.5 -50t-98.5 -19zM285 44q41 0 70 15.5t46 40.5t26 66.5t12 82
t3 97.5q0 58 -2.5 95.5t-11 78.5t-24.5 64.5t-44.5 39t-69.5 15.5q-51 0 -84.5 -21.5t-50 -65.5t-22.5 -93.5t-6 -122.5q0 -53 3 -91.5t12.5 -79t26 -65t46 -40.5t70.5 -16z" />
    <glyph glyph-name="one.tf" 
d="M450 0h-336v45l122 6q10 1 13 4.5t3 15.5v528q0 11 -3 15t-12 6l-97 17l5 46h174v-612q0 -12 2.5 -15.5t13.5 -4.5l115 -7v-44z" />
    <glyph glyph-name="two.tf" 
d="M497 0h-424v46l191 241q4 5 20.5 26t20.5 26t17.5 23t17.5 24t14.5 22t13.5 23.5t9.5 21.5t8.5 24t4 22.5t2 24.5q0 60 -30 88.5t-98 28.5q-67 0 -95.5 -22t-28.5 -88l-64 8q0 49 16 82t45 49t59 22t69 6q197 0 197 -166q0 -36 -11 -71t-35 -73t-40.5 -60t-49.5 -63
l-169 -209h258q14 0 16 11l16 87h50v-154z" />
    <glyph glyph-name="three.tf" 
d="M354 370v-4q129 -32 129 -173q0 -90 -56 -147.5t-157 -57.5q-135 0 -212 86l45 50q69 -74 170 -74q58 0 99 34.5t41 103.5q0 144 -150 144q-30 0 -72 -6v59l65 6q73 6 108 41.5t35 90.5q0 118 -120 118q-68 0 -98.5 -22.5t-30.5 -87.5l-64 8q0 40 12 69t30 46t45 27.5
t52 13.5t55 3q97 0 143 -46t46 -123q0 -115 -115 -159z" />
    <glyph glyph-name="four.tf" 
d="M502 0h-251v45l87 6q10 1 13 4.5t3 15.5v121h-298v47l270 440h96v-428h89v-63h-90v-117q0 -12 2.5 -15.5t13.5 -4.5l65 -7v-44zM355 251v360l-223 -360h223z" />
    <glyph glyph-name="five.tf" 
d="M459 623h-279l-18 -248q57 49 138 49q88 0 138 -54t50 -154q0 -101 -58 -164.5t-161 -63.5q-140 0 -217 82l45 50q65 -70 173 -70q61 0 104.5 39.5t43.5 124.5q0 78 -37 114.5t-94 36.5q-71 0 -137 -58l-52 24l21 351h340v-59z" />
    <glyph glyph-name="six.tf" 
d="M490 559l-64 -8q0 50 -25 70t-80 20q-170 0 -175 -293q85 76 178 76q88 0 130.5 -58.5t42.5 -151.5q0 -100 -53 -163t-152 -63q-64 0 -108 29t-66 81.5t-30.5 109.5t-8.5 129q0 49 5.5 94.5t22 96t43 86.5t72.5 60t106 24q162 0 162 -139zM148 285q1 -28 3.5 -53
t11.5 -62t24 -63t43 -45t65 -19q63 0 98 44.5t35 120.5q0 79 -26.5 118.5t-90.5 39.5q-45 0 -90 -25.5t-73 -55.5z" />
    <glyph glyph-name="seven.tf" 
d="M280 0h-71q16 188 85.5 361.5t146.5 264.5h-286q-14 0 -16 -11l-19 -93l-46 -3v163h447v-48q-85 -84 -160.5 -283t-80.5 -351z" />
    <glyph glyph-name="eight.tf" 
d="M363 353q61 -33 94.5 -72.5t33.5 -102.5q0 -86 -59.5 -138t-152.5 -52q-90 0 -145.5 47.5t-55.5 128.5q0 59 32 107t92 96q-97 59 -97 160q0 76 54.5 123.5t130.5 47.5q88 0 135 -46t47 -111q0 -94 -109 -188zM257 337q-110 -81 -110 -173q0 -54 38 -86.5t103 -32.5
q58 0 96 38.5t38 90.5q0 15 -2.5 28t-9.5 25t-12.5 20.5t-18.5 19t-19.5 16t-24.5 15t-24 13t-27.5 13.5t-26.5 13zM308 380q95 87 95 158q0 51 -32 77t-85 26q-48 0 -80.5 -30.5t-32.5 -79.5q0 -53 34 -85t101 -66z" />
    <glyph glyph-name="nine.tf" 
d="M80 49l37 53q61 -54 148 -54q31 0 55.5 10t41 25.5t28.5 39.5t18.5 45.5t10.5 51t5 49.5t2 46q-73 -73 -176 -73q-91 0 -134.5 60.5t-43.5 157.5q0 109 53 173.5t156 64.5q46 0 81 -14t57.5 -40.5t37.5 -57.5t22.5 -74t10 -81.5t2.5 -86.5q0 -42 -3 -78t-10.5 -79
t-24 -76.5t-40.5 -62.5t-62.5 -44.5t-87.5 -15.5q-119 0 -184 61zM422 383q-1 33 -2.5 54.5t-6.5 56t-15 57.5t-25 46t-40 34.5t-58 11.5q-134 0 -134 -177q0 -166 118 -166q49 0 92.5 25.5t70.5 57.5z" />
    <glyph glyph-name="dollar.tf" 
d="M303 -80h-55v80h-3q-56 0 -110 12t-81 25v135h49l19 -75q2 -11 5 -14.5t12 -7.5q40 -18 109 -19v260q-40 15 -63.5 26t-52 32.5t-42 52.5t-13.5 73q0 77 47 123t124 56v74h55v-71q77 -3 160 -33v-147l-51 5l-17 76q-3 15 -6 19.5t-15 8.5q-27 9 -71 12v-260
q31 -12 49.5 -20.5t43.5 -24.5t39 -33t24 -44t10 -60q0 -72 -43.5 -118t-122.5 -59v-84zM141 508q0 -48 28 -75.5t79 -48.5v237q-51 -8 -79 -37.5t-28 -75.5zM404 173q0 46 -26 73.5t-75 48.5v-235q52 10 76.5 40.5t24.5 72.5z" />
    <glyph glyph-name="Euro.tf" 
d="M49 373l10 56h47q17 132 87.5 200.5t172.5 68.5q81 0 146 -30v-135l-48 4l-13 73q-2 12 -13 17q-27 11 -79 11q-75 0 -124.5 -52t-61.5 -157h223l-10 -56h-217v-16q0 -36 1 -53h206l-10 -56h-190q30 -202 180 -202q52 0 80 11q12 4 14 18l12 72l48 4v-134
q-68 -29 -154 -29q-106 0 -169 66.5t-80 193.5h-78l10 56h63q-1 14 -1 44v25h-52z" />
    <glyph glyph-name="cent.tf" 
d="M92 359q0 111 52.5 172.5t142.5 74.5v103h55v-99q74 -1 136 -27v-123l-47 3l-12 66q-2 10 -11 13q-28 9 -66 10v-381q47 2 69 10q9 3 11 13l12 66l47 3v-123q-58 -26 -139 -27v-99h-55v102q-93 12 -144 72.5t-51 170.5zM162 365q0 -166 125 -190v373q-125 -25 -125 -183z
" />
    <glyph glyph-name="sterling.tf" 
d="M516 0h-445l-12 47q38 31 55.5 67t20 64.5t2.5 94.5v55h-84v56h84v100q0 214 216 214q75 0 118.5 -30t43.5 -110l-63 -9q0 55 -26 73.5t-76 18.5q-79 0 -112 -38t-33 -137v-82h205v-56h-205v-64q0 -78 -11.5 -121.5t-54.5 -86.5h295q14 0 16 11l16 87h50v-154z" />
    <glyph glyph-name="yen.tf" 
d="M458 219h-135v-147q0 -12 2.5 -15.5t13.5 -4.5l97 -8v-44h-289v44l93 7q11 1 13.5 5t2.5 17v146h-135v56h135v59h-135v56h103l-137 220q-8 13 -24 17l-45 11l10 44h196v-44l-74 -9l141 -234l138 234l-72 9l10 44h183v-44l-42 -11q-15 -4 -25 -19l-132 -218h107v-56h-135
v-59h135v-56z" />
    <glyph glyph-name="florin.tf" 
d="M478 367h-155l-51 -288q-14 -83 -48.5 -122.5t-107.5 -39.5q-32 0 -67 10t-52 23l23 50q44 -28 101 -28q65 0 79 82l54 303q2 10 -6 10h-94l10 56h102l20 112q15 83 53.5 123t116.5 40q63 0 117 -29l-21 -121l-47 3l-1 70q0 10 -8 13q-22 8 -46 8q-47 0 -67.5 -27.5
t-30.5 -83.5l-18 -98q-1 -10 7 -10h147z" />
    <glyph glyph-name="zeroslash.tosf" 
d="M282 -12q-57 0 -99.5 17t-67.5 43.5t-40.5 66.5t-21 79.5t-5.5 87.5q0 62 11.5 112t38 94t76 68.5t118.5 24.5q55 0 96 -15.5t66 -41.5t40.5 -64t21 -77t5.5 -87q0 -308 -239 -308zM117 276q0 -151 70 -204l151 444q-22 6 -48 6q-94 0 -133.5 -63.5t-39.5 -182.5zM285 44
q91 0 129 65t38 180q0 151 -61 202l-151 -443q19 -4 45 -4z" />
    <glyph glyph-name="zero.tosf" 
d="M282 -12q-57 0 -99.5 17t-67.5 43.5t-40.5 66.5t-21 79.5t-5.5 87.5q0 62 11.5 112t38 94t76 68.5t118.5 24.5q55 0 96 -15.5t66 -41.5t40.5 -64t21 -77t5.5 -87q0 -308 -239 -308zM285 44q91 0 129 65t38 180q0 113 -35.5 173t-126.5 60q-94 0 -133.5 -63.5
t-39.5 -182.5q0 -232 168 -232z" />
    <glyph glyph-name="one.tosf" 
d="M453 0h-336v45l127 6q10 1 13 4.5t3 15.5v411q0 8 -2 12t-4.5 5.5t-8.5 3.5l-98 17l5 46h175v-495q0 -12 2.5 -15.5t13.5 -4.5l110 -7v-44z" />
    <glyph glyph-name="two.tosf" 
d="M491 0h-404v50l135 132q15 14 45 43t43 41.5t33.5 35.5t29 38.5t15.5 35.5t7 40q0 108 -128 108q-67 0 -95.5 -22t-28.5 -88l-64 8q0 49 16 82t45 49t59 22t69 6q101 0 149 -42t48 -115q0 -26 -8.5 -52.5t-18 -45t-33 -45.5t-35 -38.5t-43 -41t-39.5 -37.5l-113 -108h234
q14 0 16 11l16 87h50v-154z" />
    <glyph glyph-name="three.tosf" 
d="M354 265v-4q131 -25 131 -155q0 -86 -55 -137.5t-157 -51.5q-66 0 -120.5 23t-85.5 60l44 47q66 -69 165 -69q61 0 100 29t39 97q0 62 -39.5 93.5t-112.5 31.5q-30 0 -69 -6v57l62 6q70 7 106.5 41.5t36.5 87.5q0 109 -121 109q-65 0 -95.5 -23t-30.5 -87l-64 8
q0 159 194 159q96 0 141.5 -43t45.5 -113q0 -119 -115 -160z" />
    <glyph glyph-name="four.tosf" 
d="M416 -67h-65v151h-302v53l240 433l55 -32l-216 -395h224v218h65v-218h103v-59h-104v-151z" />
    <glyph glyph-name="five.tosf" 
d="M456 508h-282l-14 -214q58 39 133 39q89 0 141.5 -53.5t52.5 -148.5q0 -93 -58.5 -153.5t-160.5 -60.5q-140 0 -217 82l45 50q65 -70 173 -70q60 0 104 37t44 112q0 77 -40.5 111.5t-94.5 34.5q-68 0 -134 -48l-52 24l20 316h267q13 0 16 11l14 54l43 3v-126z" />
    <glyph glyph-name="six.tosf" 
d="M483 506l-64 -8q0 52 -24 71t-77 19t-89.5 -26t-53.5 -69t-24 -83t-7 -83q73 67 173 67q88 0 132.5 -53t44.5 -137q0 -99 -52.5 -157.5t-152.5 -58.5q-52 0 -90.5 18.5t-61.5 48.5t-37 74t-19 88.5t-5 99.5q0 35 4 69t14 73t28.5 71t45 58.5t67 41.5t90.5 15
q158 0 158 -139zM146 263q6 -220 146 -220q64 0 98.5 40.5t34.5 114.5q0 138 -117 138q-46 0 -91 -23t-71 -50z" />
    <glyph glyph-name="seven.tosf" 
d="M257 -67h-71q8 97 33.5 188t61.5 163.5t70.5 125t72.5 98.5h-272q-14 0 -16 -11l-19 -91l-46 -3v163h437v-50q-90 -89 -168.5 -263t-82.5 -320z" />
    <glyph glyph-name="eight.tosf" 
d="M368 331q57 -32 89.5 -71t32.5 -99q0 -82 -58.5 -127.5t-153.5 -45.5q-89 0 -145 43t-56 120q0 58 33.5 103.5t92.5 88.5q-99 56 -99 149q0 72 53.5 112.5t131.5 40.5q86 0 134 -40.5t48 -103.5q0 -86 -103 -170zM260 315q-114 -81 -114 -159q0 -52 38.5 -81.5
t102.5 -29.5q59 0 96.5 32t37.5 81q0 30 -11 53t-36.5 41.5t-44 29t-56.5 27.5q-9 4 -13 6zM313 358q89 74 89 140q0 90 -117 90q-49 0 -81 -23.5t-32 -66.5q0 -26 10.5 -46.5t34 -38t42 -28t54.5 -27.5z" />
    </font>
</defs>
</svg>
