<?xml version="1.0" standalone="no"?>
<!DOCTYPE svg PUBLIC "-//W3C//DTD SVG 1.1//EN" "http://www.w3.org/Graphics/SVG/1.1/DTD/svg11.dtd" >
<svg xmlns="http://www.w3.org/2000/svg" xmlns:xlink="http://www.w3.org/1999/xlink" version="1.1">
<metadata>
Created by FontForge 20170731 at Thu May  7 16:20:42 2009
 By Aleksey,,,
Copyright (c) 2009 by TypeTogether. All rights reserved.
</metadata>
<defs>
<font id="Adelle-Italic" horiz-adv-x="570" >
  <font-face 
    font-family="Adelle Rg"
    font-weight="400"
    font-style="italic"
    font-stretch="normal"
    units-per-em="1000"
    panose-1="2 0 5 3 0 0 0 9 0 4"
    ascent="755"
    descent="-245"
    x-height="514"
    cap-height="724"
    bbox="-143 -291 1235 973"
    underline-thickness="50"
    underline-position="-200"
    unicode-range="U+0020-FB06"
  />
<missing-glyph horiz-adv-x="500" 
 />
    <glyph glyph-name="ff" unicode="ff" horiz-adv-x="719" 
d="M467 -212h-89l92 647q2 10 -7 10h-234l-94 -657h-89l92 647q2 10 -7 10h-70l10 69h78l11 76q24 161 173 161q91 0 150 -49l-39 -60q-52 37 -104 37q-43 0 -63.5 -24t-28.5 -75l-9 -56q-1 -10 7 -10h235l12 91q21 161 175 161q90 0 148 -48l-39 -61q-52 37 -104 37
q-43 0 -64 -24t-28 -75l-10 -71q-1 -10 7 -10h161l-10 -69h-169z" />
    <glyph glyph-name="fi" unicode="fi" horiz-adv-x="628" 
d="M575 0h-169l-2 4l21 115l44 310q3 15 -9 16h-231l-94 -657h-89l92 647q2 10 -7 10h-70l10 69h78l13 91q23 161 199 161q56 0 107.5 -17.5t83.5 -38.5l-38 -62q-77 46 -148 46q-54 0 -81.5 -25t-35.5 -76l-10 -69q-1 -10 7 -10h324l-62 -437q-2 -12 0.5 -15.5t13.5 -4.5
l60 -8z" />
    <glyph glyph-name="fl" unicode="fl" horiz-adv-x="630" 
d="M575 0h-169l-2 4l21 115l73 535q-72 40 -135 40q-53 0 -80 -24.5t-34 -74.5l-10 -71q-1 -10 7 -10h147l-10 -69h-154l-94 -657h-89l92 647q2 10 -7 10h-70l10 69h78l13 91q23 161 197 161q83 0 161 -42l62 31h22l-96 -678q-2 -12 0.5 -15.5t13.5 -4.5l60 -8z" />
    <glyph glyph-name="ffi" unicode="ffi" horiz-adv-x="958" 
d="M467 -212h-90l92 647q2 10 -5 10h-235l-94 -657h-89l92 647q2 10 -7 10h-70l10 69h78l11 76q24 161 173 161q91 0 150 -49l-39 -60q-52 37 -104 37q-43 0 -63.5 -24t-28.5 -75l-9 -56q-1 -10 7 -10h234l13 91q23 161 199 161q56 0 107.5 -17.5t83.5 -38.5l-37 -62
q-79 46 -149 46q-54 0 -82 -25t-35 -76l-9 -69q-1 -10 7 -10h323l-61 -437q-2 -12 0 -15.5t13 -4.5l60 -8l-7 -49h-169l-2 4l21 115l44 310q3 16 -12 16h-228z" />
    <glyph glyph-name="ffl" unicode="ffl" horiz-adv-x="963" 
d="M468 -212h-90l93 647q2 10 -7 10h-235l-94 -657h-89l92 647q2 10 -7 10h-70l10 69h78l11 76q24 161 173 161q91 0 150 -49l-39 -60q-52 37 -104 37q-43 0 -63.5 -24t-28.5 -75l-9 -56q-1 -7 0.5 -8.5t7.5 -1.5h235l12 91q23 161 198 161q83 0 161 -42l10 6l52 25h22
l-96 -678q-2 -12 0.5 -15.5t13.5 -4.5l59 -8l-7 -49h-169l-2 4l21 115l74 535q-72 40 -136 40q-52 0 -79 -24.5t-34 -74.5l-10 -71q-1 -10 7 -10h146l-10 -69h-154z" />
    <glyph glyph-name="fk" unicode="fk" horiz-adv-x="912" 
d="M872 0h-142l-3 3l-35 100l-70 169l-100 -95l-14 -100q-2 -12 0 -15.5t13 -4.5l64 -8l-7 -49h-234l7 50l50 7q10 2 13.5 5t4.5 15l81 574q-76 43 -137 43q-53 0 -80 -24.5t-34 -74.5l-10 -71q-1 -10 7 -10h147l-10 -69h-154l-94 -657h-89l92 647q2 10 -7 10h-70l10 69h78
l13 91q23 161 197 161q85 0 163 -43l58 32h24l-68 -476l204 195q29 27 54 38.5t59 11.5q23 0 44 -4l-8 -60q-31 1 -54 -8.5t-53 -37.5l-86 -83l102 -257q3 -8 7 -10.5t20 -5.5l54 -9z" />
    <glyph glyph-name="fb" unicode="fb" horiz-adv-x="922" 
d="M486 0h-89q22 74 32 143l72 508q-76 43 -138 43q-53 0 -80 -24.5t-34 -74.5l-10 -71q-1 -10 7 -10h147l-10 -69h-154l-94 -657h-89l92 647q2 10 -7 10h-70l10 69h78l13 91q23 161 197 161q86 0 162 -43l59 32h23l-47 -334q55 48 100.5 75t93.5 27q144 0 144 -192
q0 -58 -13 -114.5t-39.5 -109t-76 -85t-114.5 -32.5q-89 0 -150 64l-3 -1zM544 333l-29 -206q58 -66 124 -66q43 0 75.5 24.5t50.5 63.5t27 82t9 86q0 126 -77 126q-64 0 -180 -110z" />
    <glyph glyph-name="fh" unicode="fh" horiz-adv-x="949" 
d="M897 0h-164l-2 2l18 103l30 209q6 46 6 69q0 63 -47 63q-68 0 -195 -115l-35 -254q-2 -12 0.5 -15.5t13.5 -4.5l63 -8l-7 -49h-233l7 50l48 7q10 1 13.5 5t5.5 15l81 574q-74 43 -137 43q-53 0 -80 -24.5t-34 -74.5l-10 -71q-1 -10 7 -10h147l-10 -69h-154l-94 -657h-89
l92 647q2 10 -7 10h-70l10 69h78l13 91q23 161 197 161q84 0 162 -43l56 32h25l-49 -339q38 31 54.5 44t46 31.5t55 25.5t54.5 7q114 0 114 -121q0 -23 -5 -58l-37 -268q-2 -12 0 -15.5t13 -4.5l56 -8z" />
    <glyph glyph-name="ft" unicode="ft" horiz-adv-x="736" 
d="M670 82l16 -63q-67 -31 -140 -31q-122 0 -122 95q0 32 7 83l38 269q1 5 -2 7.5t-11 2.5h-227l-94 -657h-89l92 647q2 10 -7 10h-70l10 69h78l13 91q23 161 199 161q56 0 107.5 -17.5t83.5 -38.5l-38 -62q-77 46 -148 46q-55 0 -82 -24.5t-35 -76.5l-10 -69q-1 -6 0.5 -8
t8.5 -2h232l11 75h89l-8 -62q-1 -9 0.5 -11t8.5 -2h140l-9 -69h-152l-40 -295q-3 -21 -3 -36q0 -28 13.5 -40.5t46.5 -12.5q41 0 93 21z" />
    <glyph glyph-name="fj" unicode="fj" horiz-adv-x="619" 
d="M401 -47l69 481q1 11 -10 11h-231l-93 -657h-89l91 647q2 10 -7 10h-70l10 69h78l13 91q23 161 199 161q56 0 107.5 -17.5t83.5 -38.5l-38 -62q-77 46 -148 46q-54 0 -81.5 -25t-35.5 -76l-10 -69q-1 -10 7 -10h324l-81 -579q-11 -83 -49.5 -120.5t-112.5 -37.5
q-40 0 -73 12.5t-47 26.5l38 57q34 -24 74 -24t57 23.5t25 80.5z" />
    <glyph glyph-name="ffj" unicode="ffj" horiz-adv-x="950" 
d="M467 -212h-89l91 647q2 10 -7 10h-233l-93 -657h-89l91 647q2 10 -7 10h-70l10 69h78l11 76q24 161 173 161q91 0 150 -49l-39 -60q-52 37 -104 37q-43 0 -63.5 -24t-28.5 -75l-9 -56q-1 -10 7 -10h234l12 91q21 161 200 161q56 0 107.5 -17.5t83.5 -38.5l-38 -62
q-79 46 -149 46q-54 0 -81 -25t-35 -76l-10 -69q-1 -10 7 -10h323l-80 -579q-12 -83 -50.5 -120.5t-111.5 -37.5q-41 0 -73.5 12.5t-46.5 26.5l38 57q34 -24 74 -24t57 23.5t25 80.5l68 475q1 7 0.5 10.5t-3 5t-8.5 1.5h-230z" />
    <glyph glyph-name="ffk" unicode="ffk" horiz-adv-x="1244" 
d="M467 -212h-89l92 647q2 10 -7 10h-234l-94 -657h-89l92 647q2 10 -7 10h-70l10 69h78l11 76q24 161 173 161q91 0 150 -49l-39 -60q-52 37 -104 37q-43 0 -63.5 -24t-28.5 -75l-9 -56q-1 -6 0.5 -8t8.5 -2h233l12 91q21 161 198 161q85 0 163 -43l58 32h23l-67 -476
l204 195q29 27 54 38.5t59 11.5q23 0 44 -4l-8 -60q-31 1 -54 -8t-53 -38l-86 -83l102 -257q4 -9 8 -11.5t19 -4.5l54 -9l-7 -49h-142l-3 3l-35 100l-70 169l-100 -95l-14 -100q-2 -12 0 -15.5t13 -4.5l63 -8l-7 -49h-233l7 50l50 7q8 1 11 2.5t4.5 5t2.5 12.5l80 575
q-74 42 -137 42q-52 0 -79 -24.5t-34 -74.5l-10 -71q-1 -10 7 -10h146l-9 -69h-155z" />
    <glyph glyph-name="ffb" unicode="ffb" horiz-adv-x="1254" 
d="M467 -212h-89l92 647q2 10 -7 10h-234l-94 -657h-89l92 647q2 10 -7 10h-70l10 69h78l11 76q24 161 173 161q91 0 150 -49l-39 -60q-52 37 -104 37q-43 0 -63.5 -24t-28.5 -75l-9 -56q-1 -6 0.5 -8t8.5 -2h233l12 91q21 161 198 161q86 0 162 -43l59 32h22l-47 -334
q35 31 57 48t62.5 35t78.5 18q140 0 140 -191q0 -45 -7 -90.5t-25 -91.5t-44.5 -80.5t-69 -56.5t-94.5 -22q-85 0 -152 64l-3 -1l-12 -53h-89q22 82 31 143l72 508q-76 43 -138 43q-52 0 -79 -24.5t-34 -74.5l-10 -71q-1 -10 7 -10h146l-9 -69h-155zM876 333l-29 -206
q24 -28 59.5 -47t71.5 -19q40 0 71 24.5t48.5 63.5t26.5 82t9 86q0 126 -77 126q-64 0 -180 -110z" />
    <glyph glyph-name="ffh" unicode="ffh" horiz-adv-x="1281" 
d="M1228 0h-164l-2 2l18 103l30 209q6 46 6 69q0 63 -47 63q-68 0 -195 -115l-35 -254q-2 -12 0.5 -15.5t13.5 -4.5l63 -8l-7 -49h-233l7 50l48 7q10 1 13.5 5t5.5 15l81 574q-74 43 -137 43q-53 0 -80 -24.5t-34 -74.5l-10 -71q-1 -10 7 -10h147l-10 -69h-154l-94 -657h-88
l91 647q2 10 -7 10h-233l-94 -657h-89l92 647q2 10 -7 10h-70l10 69h78l11 76q24 161 173 161q91 0 150 -49l-39 -60q-52 37 -104 37q-43 0 -63.5 -24t-28.5 -75l-9 -56q-1 -6 1 -8t10 -2h230l13 91q23 161 197 161q84 0 162 -43l56 32h25l-49 -339q38 31 54.5 44t46 31.5
t55 25.5t54.5 7q114 0 114 -121q0 -23 -5 -58l-37 -268q-2 -12 0 -15.5t13 -4.5l56 -8z" />
    <glyph glyph-name="fft" unicode="fft" horiz-adv-x="1067" 
d="M1002 82l16 -63q-67 -31 -140 -31q-122 0 -122 95q0 32 7 83l38 269q1 5 -2 7.5t-11 2.5h-227l-94 -657h-89l92 647q2 10 -7 10h-234l-94 -657h-89l92 647q2 10 -7 10h-70l10 69h78l11 76q24 161 173 161q91 0 150 -49l-39 -60q-52 37 -104 37q-43 0 -63.5 -24t-28.5 -75
l-9 -56q0 -4 2.5 -6.5t8 -3t10 -1t12.5 0t10 0.5h199l13 91q23 161 199 161q56 0 107.5 -17.5t83.5 -38.5l-38 -62q-77 46 -148 46q-55 0 -82 -24.5t-35 -76.5l-10 -69q-1 -6 0.5 -8t8.5 -2h232l11 75h89l-8 -62q-1 -9 0.5 -11t8.5 -2h140l-9 -69h-152l-40 -295
q-3 -21 -3 -36q0 -28 13.5 -40.5t46.5 -12.5q41 0 93 21z" />
    <glyph glyph-name="f_iacute" unicode="f&#xed;" horiz-adv-x="629" 
d="M135 -212h-89l92 647q2 10 -7 10h-70l10 69h78l13 91q23 161 173 161q86 0 138 -45l-37 -60q-46 33 -95 33q-43 0 -63.5 -24t-28.5 -75l-10 -66q-2 -8 0 -11.5t11 -3.5h320l-62 -437q-2 -12 0.5 -15.5t13.5 -4.5l60 -8l-7 -49h-169l-2 4l25 144l40 281q3 16 -13 16h-227z
M679 707l-195 -140l-34 38l175 163z" />
    <glyph glyph-name="tt" unicode="tt" horiz-adv-x="714" 
d="M649 83l16 -62q-65 -31 -140 -31q-123 0 -123 102q0 16 3 32l43 311q2 10 -6 10h-215l-40 -295q-3 -21 -3 -36q0 -28 13.5 -40.5t47.5 -12.5q40 0 93 21l15 -63q-67 -31 -140 -31q-122 0 -122 103q0 10 2 32l43 311q2 10 -6 10h-72l9 60q55 8 83.5 38t46.5 104h59
l-18 -122q-1 -10 7 -10h156q73 0 107 133h59l-17 -122q-1 -6 0 -8t6 -2h144l-10 -68h-151l-41 -296q-3 -20 -3 -35q0 -28 13.5 -40.5t47.5 -12.5q39 0 93 20z" />
    <glyph glyph-name=".notdef" horiz-adv-x="500" 
 />
    <glyph glyph-name=".null" horiz-adv-x="0" 
 />
    <glyph glyph-name="nonmarkingreturn" horiz-adv-x="333" 
 />
    <glyph glyph-name="space" unicode=" " horiz-adv-x="222" 
 />
    <glyph glyph-name="exclam" unicode="!" horiz-adv-x="264" 
d="M174 187h-76l39 371l23 166h101l-23 -166zM184 62q0 -74 -76 -74q-58 0 -58 52q0 74 76 74q58 0 58 -52z" />
    <glyph glyph-name="quotedbl" unicode="&#x22;" horiz-adv-x="373" 
d="M343 447h-90l37 259h90zM173 447h-90l37 259h90z" />
    <glyph glyph-name="numbersign" unicode="#" horiz-adv-x="607" 
d="M518 139h-110l-40 -139h-72l40 139h-121l-40 -139h-72l39 139h-114l24 66h111l43 148h-115l25 67h110l35 123h73l-36 -123h120l35 123h72l-36 -123h116l-24 -67h-111l-43 -148h114zM356 205l42 148h-120l-44 -148h122z" />
    <glyph glyph-name="dollar" unicode="$" horiz-adv-x="513" 
d="M361 700l-10 -73q83 -4 152 -31l-20 -152l-65 5l-3 73q-1 22 -14 27q-22 9 -59 11l-30 -216q66 -24 104.5 -57t38.5 -95q0 -80 -52 -128.5t-141 -60.5l-11 -83h-69l10 80q-115 5 -176 39l20 138h65l7 -72q2 -15 5 -20t13 -8q30 -10 75 -11l30 219q-32 11 -53 21.5
t-43.5 28t-34 43.5t-11.5 61q0 82 52.5 129t137.5 57l11 75h71zM177 458q0 -33 16 -53.5t51 -36.5l25 188q-44 -9 -68 -35t-24 -63zM368 173q0 32 -16.5 52.5t-54.5 34.5l-26 -193q48 9 72.5 37.5t24.5 68.5z" />
    <glyph glyph-name="percent" unicode="%" horiz-adv-x="879" 
d="M221 257q-74 0 -107 40.5t-33 105.5q0 97 50 157t143 60q70 0 104.5 -38.5t34.5 -106.5q0 -98 -50.5 -158t-141.5 -60zM262 -17h-87l466 638h86zM230 318q103 0 103 154q0 86 -68 86q-56 0 -80.5 -43t-24.5 -105q0 -92 70 -92zM634 -12q-74 0 -107.5 40.5t-33.5 105.5
q0 97 50.5 157t143.5 60q70 0 104.5 -38.5t34.5 -106.5q0 -98 -50.5 -158t-141.5 -60zM643 49q103 0 103 154q0 86 -68 86q-56 0 -80.5 -43t-24.5 -105q0 -92 70 -92z" />
    <glyph glyph-name="ampersand" unicode="&#x26;" horiz-adv-x="692" 
d="M643 325l-41 -4q-17 -1 -18 -14l-37 -268q-33 -24 -96.5 -37.5t-132.5 -13.5q-241 0 -241 170q0 76 43 123.5t110 65.5q-41 15 -66 51t-25 82q0 88 65 141.5t172 53.5q59 0 114 -13.5t82 -31.5l-23 -137l-66 5l-4 71q-1 17 -12 21q-31 11 -87 11q-27 0 -50 -5t-46.5 -17
t-37.5 -36.5t-14 -60.5q0 -47 31 -74t86 -27h56l-10 -72q-104 0 -163 -29.5t-59 -105.5q0 -63 39.5 -88t110.5 -25q76 0 117 16q15 6 20 12.5t7 21.5l37 257l23 12h124z" />
    <glyph glyph-name="quotesingle" unicode="'" horiz-adv-x="203" 
d="M173 447h-90l37 259h90z" />
    <glyph glyph-name="parenleft" unicode="(" horiz-adv-x="315" 
d="M231 -119l-76 -39q-93 173 -93 362q0 259 227 525l62 -42q-103 -137 -149 -245.5t-46 -240.5q0 -146 75 -320z" />
    <glyph glyph-name="parenright" unicode=")" horiz-adv-x="311" 
d="M43 -158l-62 42q103 137 149 245.5t46 240.5q0 146 -75 320l76 39q93 -173 93 -362q0 -259 -227 -525z" />
    <glyph glyph-name="asterisk" unicode="*" horiz-adv-x="471" 
d="M172 395l-55 48l48 50l90 65l-101 13l-59 22l35 71l59 -22l80 -54l-7 102l10 65h75l-10 -65l-35 -102h-33l-14 -30l27 -20l-62 -92zM413 441l-63 -44l-34 49l-34 92l26 19l-6 31l96 54l64 22l16 -71l-65 -22l-105 -14l70 -66z" />
    <glyph glyph-name="plus" unicode="+" 
d="M308 128h-83l22 153h-147l11 81h147l21 150h83l-21 -150h147l-11 -81h-147z" />
    <glyph glyph-name="comma" unicode="," horiz-adv-x="205" 
d="M58 -118l-45 17l45 105q3 8 -4 10l-32 14l33 83q51 -2 76 -12.5t25 -40.5q0 -26 -24 -64z" />
    <glyph glyph-name="hyphen" unicode="-" horiz-adv-x="311" 
d="M304 247h-271l13 89h271z" />
    <glyph glyph-name="period" unicode="." horiz-adv-x="232" 
d="M172 64q0 -34 -19.5 -55t-56.5 -21q-58 0 -58 49q0 35 19 56t57 21q58 0 58 -50z" />
    <glyph glyph-name="slash" unicode="/" horiz-adv-x="387" 
d="M56 -92h-87l398 847h86z" />
    <glyph glyph-name="zero" unicode="0" horiz-adv-x="552" 
d="M526 288q-9 -67 -26.5 -118t-48.5 -93.5t-82 -65.5t-120 -23q-203 0 -203 214q0 42 6 86q40 296 282 296q104 0 150.5 -58.5t46.5 -154.5q0 -48 -5 -83zM256 58q79 0 121 58t56 169q6 45 6 82q0 144 -115 144q-80 0 -122 -57t-58 -171q-5 -35 -5 -76q0 -149 117 -149z
" />
    <glyph glyph-name="one" unicode="1" horiz-adv-x="347" 
d="M300 0h-300l7 51l98 6q9 1 11.5 4.5t4.5 15.5l56 402q2 17 -12 21l-89 18l9 51h193l-68 -492q-2 -12 1 -15.5t13 -4.5l83 -7z" />
    <glyph glyph-name="two" unicode="2" horiz-adv-x="490" 
d="M425 0h-412l9 62l196 174q41 36 55.5 49.5t39 38.5t32.5 38.5t15 33t7 39.5q0 39 -24.5 58t-82.5 19q-56 0 -81.5 -22t-32.5 -82l-84 10q5 41 20 72t34.5 48.5t46.5 28t52 14t55 3.5q185 0 185 -139q0 -22 -5 -42.5t-10.5 -36.5t-20 -36t-23 -31.5t-30.5 -32t-31.5 -29
t-37 -31.5t-36.5 -31l-126 -107h205q13 0 16 11l28 85h64z" />
    <glyph glyph-name="three" unicode="3" horiz-adv-x="487" 
d="M322 266v-4q108 -27 108 -138q0 -94 -62.5 -150.5t-174.5 -56.5q-68 0 -123.5 25.5t-81.5 62.5l59 56q57 -68 149 -68q62 0 102 30t40 99q0 103 -121 103q-29 0 -69 -6l9 69l58 6q72 7 111 43.5t39 93.5q0 81 -93 81q-62 0 -89 -21t-34 -83l-85 10q15 166 217 166
q176 0 176 -144q0 -62 -35.5 -107t-99.5 -67z" />
    <glyph glyph-name="four" unicode="4" horiz-adv-x="501" 
d="M370 -67h-85l20 146h-282l10 66l281 432l66 -39l-251 -385h187l27 197l86 11l-29 -208h87l-11 -74h-88z" />
    <glyph glyph-name="five" unicode="5" horiz-adv-x="495" 
d="M467 491h-269l-42 -194q61 40 134 40q76 0 120 -45t44 -129q0 -106 -69 -176t-185 -70q-140 0 -210 87l60 58q60 -70 150 -70q66 0 113.5 40.5t47.5 120.5q0 58 -28 84t-71 26q-69 0 -132 -46l-60 29l65 323h342z" />
    <glyph glyph-name="six" unicode="6" horiz-adv-x="533" 
d="M527 585l-51 -58q-49 46 -114 46q-46 0 -83 -23t-59.5 -60.5t-35.5 -74.5t-18 -75q82 63 172 63q75 0 115.5 -43.5t40.5 -119.5q0 -116 -63.5 -184t-174.5 -68q-190 0 -190 247q0 62 15 128t46.5 132.5t92.5 109.5t143 43q102 0 164 -63zM161 269q-3 -48 -3 -51
q0 -159 107 -159q65 0 100.5 46.5t35.5 124.5q0 102 -89 102q-78 0 -151 -63z" />
    <glyph glyph-name="seven" unicode="7" horiz-adv-x="494" 
d="M211 -67h-96q26 127 81.5 244.5t106 186.5t106.5 127h-239q-13 0 -17 -11l-29 -91l-61 -4l23 184h437l-9 -68q-98 -91 -188.5 -256t-114.5 -312z" />
    <glyph glyph-name="eight" unicode="8" horiz-adv-x="485" 
d="M362 329q45 -28 69 -60.5t24 -83.5q0 -93 -68.5 -145t-175.5 -52q-84 0 -134 37.5t-50 107.5q0 65 38.5 115.5t105.5 96.5q-74 48 -74 125q0 83 61.5 130.5t150.5 47.5q82 0 126.5 -36.5t44.5 -95.5q0 -53 -34.5 -102t-83.5 -85zM232 309q-120 -80 -120 -162
q0 -43 30.5 -66.5t84.5 -23.5q59 0 97 33t38 83q0 43 -32 73t-98 63zM299 362q96 76 96 145q0 72 -94 72q-49 0 -81.5 -25t-32.5 -69q0 -39 29 -66.5t83 -56.5z" />
    <glyph glyph-name="nine" unicode="9" horiz-adv-x="526" 
d="M27 -13l50 60q58 -55 126 -55q48 0 84.5 22.5t57 61.5t31 73.5t16.5 74.5q-81 -62 -173 -62q-75 0 -115.5 44t-40.5 118q0 118 63 189t175 71q189 0 189 -248q0 -39 -5 -80t-16 -90.5t-32.5 -92t-52 -78.5t-77.5 -57t-105 -21q-48 0 -96 18t-79 52zM396 297q2 30 2 59
q0 157 -106 157q-63 0 -99.5 -47.5t-36.5 -126.5q0 -106 88 -106q76 0 152 64z" />
    <glyph glyph-name="colon" unicode=":" horiz-adv-x="232" 
d="M228 454q0 -34 -19.5 -55t-56.5 -21q-58 0 -58 49q0 35 19 56t57 21q58 0 58 -50zM172 64q0 -34 -19.5 -55t-56.5 -21q-58 0 -58 49q0 35 19 56t57 21q58 0 58 -50z" />
    <glyph glyph-name="semicolon" unicode=";" horiz-adv-x="205" 
d="M58 -118l-45 17l45 105q3 8 -4 10l-32 14l33 83q51 -2 76 -12.5t25 -40.5q0 -26 -24 -64zM219 454q0 -34 -19.5 -55t-56.5 -21q-58 0 -58 49q0 35 19 56t57 21q58 0 58 -50z" />
    <glyph glyph-name="less" unicode="&#x3c;" 
d="M467 94l-357 145l14 100l393 154l16 -78l-333 -125l302 -121z" />
    <glyph glyph-name="equal" unicode="=" 
d="M468 159h-374l11 83h374zM490 321h-374l12 83h374z" />
    <glyph glyph-name="greater" unicode="&#x3e;" 
d="M481 239l-398 -145l-10 80l336 120l-298 126l34 73l350 -154z" />
    <glyph glyph-name="question" unicode="?" horiz-adv-x="477" 
d="M240 186h-91l25 177q235 23 235 191q0 95 -113 95q-50 0 -80 -7q-17 -4 -21 -20l-21 -67l-72 -4l19 137q97 36 185 36q200 0 200 -170q0 -107 -67 -169t-183 -82zM243 62q0 -74 -76 -74q-58 0 -58 52q0 74 76 74q58 0 58 -52z" />
    <glyph glyph-name="at" unicode="@" horiz-adv-x="829" 
d="M556 -81l11 -62q-79 -35 -204 -35q-148 0 -231.5 74.5t-83.5 221.5q0 194 131 322t318 128q137 0 217.5 -69.5t80.5 -193.5q0 -55 -12.5 -107.5t-38.5 -101t-74 -78.5t-111 -30q-91 0 -93 74q-88 -74 -145 -74q-91 0 -91 104q0 69 30 137.5t90.5 118t135.5 49.5
q71 0 129 -32l-36 -121q-32 -102 -39 -138q-2 -14 -2 -19q0 -38 44 -38q56 0 96.5 73t40.5 167q0 213 -237 213q-156 0 -256 -111t-100 -270q0 -112 65 -172.5t190 -60.5q87 0 175 31zM472 129l57 192q-22 17 -59 17q-57 0 -109.5 -67.5t-52.5 -154.5q0 -29 7.5 -43.5
t31.5 -14.5q26 0 61.5 21.5t63.5 49.5z" />
    <glyph glyph-name="A" unicode="A" horiz-adv-x="699" 
d="M669 0h-241l7 47l85 9l-31 165h-274l-75 -165l77 -9l-8 -47h-223l7 47l43 11q20 5 29 23l302 643h113l132 -649q3 -13 21 -17l43 -11zM477 294l-68 349l-162 -349h230z" />
    <glyph glyph-name="B" unicode="B" horiz-adv-x="646" 
d="M324 0h-289l7 48l62 7q11 2 14.5 5.5t4.5 14.5l79 572q2 11 -0.5 15t-12.5 5l-61 8l7 49h292q192 0 192 -153q0 -80 -42 -127t-104 -65l-1 -4q70 -7 107 -47.5t37 -104.5q0 -223 -292 -223zM212 73h111q98 0 149 30.5t51 118.5q0 58 -39 85.5t-105 27.5h-132zM258 405h86
q183 0 183 152q0 53 -32.5 73.5t-102.5 20.5h-101z" />
    <glyph glyph-name="C" unicode="C" horiz-adv-x="662" 
d="M616 192l-21 -151q-85 -53 -243 -53q-147 0 -218 83.5t-71 227.5q0 196 107 317t302 121q136 0 210 -54l-22 -160l-66 4l-4 96q0 15 -11 19q-52 20 -117 20q-135 0 -219 -94t-84 -261q0 -120 53 -182.5t157 -62.5q91 0 141 22q10 4 14 17l29 91h63z" />
    <glyph glyph-name="D" unicode="D" horiz-adv-x="752" 
d="M314 0h-279l8 50l62 7q9 1 12.5 4.5t4.5 13.5l80 573q2 11 -0.5 15t-12.5 5l-61 7l7 49h293q156 0 232.5 -78t76.5 -217q0 -195 -106.5 -312t-316.5 -117zM213 71h107q155 0 239 95t84 260q0 122 -61.5 174.5t-179.5 52.5h-109z" />
    <glyph glyph-name="E" unicode="E" horiz-adv-x="616" 
d="M549 0h-513l6 49l63 7q10 1 13 5t5 15l79 571q2 12 -0.5 15.5t-12.5 4.5l-60 7l6 50h492l-23 -165l-62 4l-3 77q-1 13 -16 13h-230l-34 -252h261l-10 -72h-262l-35 -258h252q14 0 17 11l28 87h62z" />
    <glyph glyph-name="F" unicode="F" horiz-adv-x="591" 
d="M364 0h-327l6 49l62 7q11 2 14.5 5.5t4.5 14.5l78 571q2 12 -0.5 15.5t-12.5 4.5l-60 7l7 50h488l-23 -165l-63 4l-3 77q-1 13 -15 13h-227l-34 -249h258l-10 -72h-258l-35 -255q-2 -12 0.5 -15.5t12.5 -4.5l143 -8z" />
    <glyph glyph-name="G" unicode="G" horiz-adv-x="715" 
d="M711 282l-41 -4q-17 -1 -18 -14l-32 -235q-89 -41 -242 -41q-163 0 -239.5 85t-76.5 228q0 192 107 314t302 122q63 0 120.5 -14.5t90.5 -39.5l-21 -159l-66 5l-4 92q0 15 -11 19q-57 22 -124 22q-134 0 -216.5 -95t-82.5 -257q0 -122 59 -184.5t172 -62.5q80 0 137 16
q13 4 15 17l24 176h-133l20 65h268z" />
    <glyph glyph-name="H" unicode="H" horiz-adv-x="792" 
d="M712 0h-249l8 49l62 7q10 1 13 5t5 15l36 261h-336l-38 -260q-2 -12 0.5 -15.5t12.5 -4.5l65 -8l-7 -49h-249l7 49l63 7q10 1 13 5t5 15l80 572q2 12 -0.5 15.5t-12.5 4.5l-60 7l6 49h249l-7 -49l-67 -8q-11 -2 -14 -5t-4 -14l-32 -239h336l34 239q2 12 -0.5 15.5
t-11.5 4.5l-61 7l5 49h249l-6 -49l-66 -8q-11 -1 -14.5 -4.5t-4.5 -14.5l-79 -571q-2 -12 0 -15.5t12 -4.5l65 -8z" />
    <glyph glyph-name="I" unicode="I" horiz-adv-x="364" 
d="M295 0h-268l5 49l73 7q10 1 13 4.5t5 15.5l80 572q2 12 -0.5 15.5t-12.5 4.5l-70 7l6 49h268l-6 -49l-76 -8q-11 -1 -13.5 -4t-4.5 -15l-81 -571q-2 -12 0 -15.5t13 -4.5l74 -8z" />
    <glyph glyph-name="J" unicode="J" horiz-adv-x="484" 
d="M273 153l69 496q2 11 -0.5 14.5t-12.5 4.5l-83 7l7 49h271l-7 -49l-67 -8q-7 -1 -10 -2.5t-4.5 -4.5t-2.5 -11l-71 -502q-11 -83 -53.5 -121t-129.5 -38q-51 0 -95 11.5t-61 23.5l18 138l64 -4v-72q0 -9 9 -14q25 -11 70 -11q44 0 63 22t26 71z" />
    <glyph glyph-name="K" unicode="K" horiz-adv-x="716" 
d="M674 0h-144l-4 4l-54 99l-142 239l-91 -88l-26 -177q-2 -12 0.5 -15.5t12.5 -4.5l67 -8l-7 -49h-248l6 49l61 7q7 1 10 2.5t5 5.5t3 13l80 571q2 12 -0.5 15.5t-12.5 4.5l-60 7l7 49h248l-6 -49l-68 -8q-10 -1 -13 -4.5t-5 -14.5l-41 -289l314 307l-57 8l7 50h220l-7 -49
l-50 -9q-19 -3 -32 -17l-245 -239l195 -334q8 -13 26 -17l58 -10z" />
    <glyph glyph-name="L" unicode="L" horiz-adv-x="600" 
d="M550 0h-513l6 49l62 7q10 1 13 5t5 15l80 571q2 12 -0.5 15.5t-12.5 4.5l-60 7l6 50h265l-7 -50l-83 -8q-10 -1 -13 -4.5t-5 -14.5l-81 -576h253q14 0 17 11l29 90h62z" />
    <glyph glyph-name="M" unicode="M" horiz-adv-x="923" 
d="M844 0h-266l5 49l85 7q9 1 12 5t5 15l69 498l-250 -404h-89l-141 406l-70 -499q-2 -13 0 -16t12 -4l86 -8l-6 -49h-259l5 49l63 7q11 2 14.5 5.5t4.5 15.5l79 570q2 12 -0.5 15.5t-12.5 4.5l-60 7l6 50h179l158 -469l282 469h189l-7 -49l-66 -8q-11 -1 -14 -5t-5 -18
l-80 -568q-1 -10 1.5 -13.5t12.5 -5.5l65 -8z" />
    <glyph glyph-name="N" unicode="N" horiz-adv-x="815" 
d="M656 0h-105l-274 611l-75 -534q-2 -12 0.5 -15.5t12.5 -4.5l65 -8l-5 -49h-238l5 49l63 7q10 1 13 5t5 15l80 571q2 12 -0.5 15.5t-12.5 4.5l-60 7l6 50h191l268 -608l73 532q2 11 -0.5 15t-12.5 5l-61 7l6 49h238l-7 -49l-67 -8q-11 -1 -13.5 -4t-4.5 -15z" />
    <glyph glyph-name="O" unicode="O" horiz-adv-x="752" 
d="M348 -12q-144 0 -215.5 80.5t-71.5 217.5q0 201 103.5 326t292.5 125q141 0 211 -81.5t70 -216.5q0 -209 -104.5 -330t-285.5 -121zM360 65q123 0 202 93t81 268q0 49 -11 91q-37 143 -186 143q-125 0 -205.5 -93t-83.5 -264q0 -50 11 -92q35 -146 192 -146z" />
    <glyph glyph-name="P" unicode="P" horiz-adv-x="639" 
d="M358 0h-323l7 49l63 7q11 2 14.5 5.5t4.5 14.5l79 572q2 11 -1 15t-13 5l-60 7l6 49h298q112 0 163 -49.5t51 -133.5q0 -137 -79 -202.5t-224 -65.5h-105l-27 -196q-1 -12 1 -15.5t12 -4.5l139 -8zM249 345h93q47 0 81.5 7.5t65.5 26.5t47.5 58t16.5 96q0 63 -38 91.5
t-115 28.5h-108z" />
    <glyph glyph-name="Q" unicode="Q" horiz-adv-x="752" 
d="M658 -66l-4 -74q-31 -4 -64 -4q-60 0 -112.5 15t-81.5 33t-60 33t-53 15q-43 0 -105 -34l-32 57q36 25 78 35v3q-82 32 -122.5 103.5t-40.5 169.5q0 201 103.5 326t292.5 125q141 0 211 -81.5t70 -215.5q0 -202 -95 -318.5t-268 -121.5v-3q126 -68 219 -68q26 0 64 5z
M356 65q123 0 204 92t83 262q0 56 -11 98q-37 143 -186 143q-125 0 -205.5 -93t-83.5 -264q0 -50 11 -92q35 -146 188 -146z" />
    <glyph glyph-name="R" unicode="R" horiz-adv-x="660" 
d="M634 0h-148l-6 7l-69 260q-5 22 -18 32t-38 10h-109l-34 -232q-2 -12 0.5 -15.5t12.5 -4.5l66 -8l-7 -49h-247l6 49l62 7q11 1 13.5 4.5t4.5 16.5l80 570q2 12 -0.5 15.5t-12.5 4.5l-60 7l6 50h295q108 0 155 -48t47 -126q0 -159 -166 -217q19 -10 28.5 -31t22.5 -74
l37 -150q4 -16 26 -19l60 -10zM256 381h88q87 0 140.5 39t53.5 121q0 63 -40 86.5t-129 23.5h-76z" />
    <glyph glyph-name="S" unicode="S" horiz-adv-x="567" 
d="M547 532l-66 6l-3 86q-2 37 -93 37q-73 0 -123 -32.5t-50 -96.5q0 -26 9.5 -45.5t30.5 -34t39.5 -23t50.5 -20.5q36 -13 52.5 -20t46 -24t43.5 -34t26 -46.5t12 -65.5q0 -118 -79 -174.5t-206 -56.5q-62 0 -122 12.5t-85 25.5l22 164h66l6 -90q3 -38 124 -38q85 0 132 36
t47 107q0 29 -10.5 50t-33.5 36t-41.5 23.5t-52.5 20.5t-51 18.5t-44.5 22.5t-41 33t-24.5 45.5t-11 63.5q0 107 78 163t195 56q95 0 181 -35z" />
    <glyph glyph-name="T" unicode="T" horiz-adv-x="636" 
d="M464 0h-330l7 51l100 7q10 1 13 5t5 15l80 575h-154q-14 0 -17 -11l-27 -87h-63l23 169h588l-23 -169h-63l-4 87q-1 7 -3.5 9t-10.5 2h-155l-81 -575q-2 -11 0 -14.5t13 -4.5l109 -8z" />
    <glyph glyph-name="U" unicode="U" horiz-adv-x="770" 
d="M568 252l54 396q1 12 -1 15.5t-12 4.5l-61 7l7 49h243l-7 -49l-67 -8q-11 -1 -13.5 -4t-4.5 -15l-56 -408q-18 -131 -88.5 -191.5t-200.5 -60.5q-118 0 -173.5 49t-55.5 148q0 31 4 59l54 404q2 12 -0.5 15.5t-11.5 4.5l-61 7l7 49h249l-7 -49l-67 -8q-11 -1 -13.5 -4
t-4.5 -15l-55 -394q-4 -28 -4 -58q0 -70 37 -100.5t112 -30.5q89 0 136 42.5t61 144.5z" />
    <glyph glyph-name="V" unicode="V" horiz-adv-x="677" 
d="M382 0h-121l-124 647q-2 12 -21 17l-43 11l8 49h238l-7 -49l-82 -9l104 -584l258 584l-77 9l8 49h224l-8 -49l-42 -11q-22 -6 -31 -27z" />
    <glyph glyph-name="W" unicode="W" horiz-adv-x="958" 
d="M704 0h-118l-65 457l-193 -457h-111l-74 644q-1 11 -4.5 15t-13.5 6l-56 10l9 49h252l-7 -49l-88 -10l57 -563l199 476h100l67 -486l212 573l-85 10l7 49h240l-8 -49l-52 -9q-17 -3 -26 -25z" />
    <glyph glyph-name="X" unicode="X" horiz-adv-x="685" 
d="M640 0h-241l8 49l75 9l-131 248l-193 -248l70 -9l-7 -49h-225l5 47l52 11q16 4 28 19l228 293l-146 277q-6 13 -21 17l-42 11l8 49h229l-7 -49l-74 -9l118 -236l185 236l-70 9l9 49h214l-7 -49l-44 -11q-17 -4 -28 -19l-218 -274l161 -294q8 -14 22 -18l49 -10z" />
    <glyph glyph-name="Y" unicode="Y" horiz-adv-x="607" 
d="M445 0h-312l6 49l95 7q9 1 12 5t5 16l28 203l-146 367q-6 11 -21 17l-43 11l8 49h229l-8 -49l-74 -9l113 -303l194 303l-72 9l8 49h214l-7 -49l-42 -11q-20 -6 -28 -20l-234 -361l-28 -206q-2 -13 0 -16t13 -4l96 -8z" />
    <glyph glyph-name="Z" unicode="Z" horiz-adv-x="631" 
d="M560 0h-535l8 61l485 592h-293q-14 0 -17 -11l-31 -93l-66 -3l25 178h505l-8 -63l-484 -590h321q14 0 18 11l33 107h64z" />
    <glyph glyph-name="bracketleft" unicode="[" horiz-adv-x="270" 
d="M209 -143h-167l122 867h167l-6 -48l-67 -9q-11 -1 -14 -4.5t-5 -14.5l-100 -713q-2 -11 0 -15t13 -5l65 -9z" />
    <glyph glyph-name="backslash" unicode="\" horiz-adv-x="377" 
d="M342 -92h-83l-161 847h82z" />
    <glyph glyph-name="bracketright" unicode="]" horiz-adv-x="262" 
d="M137 -143h-168l6 48l67 9q11 1 14 4.5t5 14.5l100 713q2 11 0 15t-13 5l-65 9l8 49h168z" />
    <glyph glyph-name="asciicircum" unicode="^" horiz-adv-x="550" 
d="M533 299h-86l-119 285l-194 -285h-90l248 365h93z" />
    <glyph glyph-name="underscore" unicode="_" horiz-adv-x="500" 
d="M456 -181h-499l9 68h499z" />
    <glyph glyph-name="grave" unicode="`" horiz-adv-x="500" 
d="M443 604l-45 -37l-156 141l69 60z" />
    <glyph glyph-name="a" unicode="a" horiz-adv-x="580" 
d="M522 0h-146l12 90l-3 1q-50 -50 -94.5 -76.5t-96.5 -26.5q-150 0 -150 191q0 62 13.5 119.5t41.5 110t78.5 84t117.5 31.5q78 0 142 -56l16 46h84q-20 -79 -26 -123l-44 -315q-2 -12 0.5 -15.5t13.5 -4.5l49 -7zM394 181l30 215q-22 22 -56 38t-70 16q-44 0 -77.5 -26
t-51 -67.5t-26 -84t-8.5 -85.5q0 -121 86 -121q67 0 173 115z" />
    <glyph glyph-name="b" unicode="b" horiz-adv-x="580" 
d="M144 0h-88q22 82 31 143l75 528q3 17 -10 21l-54 15l7 48h156l-47 -334q114 103 198 103q65 0 102.5 -47t37.5 -146q0 -58 -13 -114.5t-39.5 -109t-76 -85t-114.5 -32.5q-86 0 -150 64l-3 -1zM203 333l-30 -206q58 -66 125 -66q56 0 94 43t52.5 98t14.5 115
q0 126 -77 126q-66 0 -179 -110z" />
    <glyph glyph-name="c" unicode="c" horiz-adv-x="488" 
d="M409 96l22 -64q-31 -19 -82 -31.5t-99 -12.5q-105 0 -155.5 55.5t-50.5 153.5q0 164 83.5 245.5t212.5 81.5q85 0 144 -31l-19 -133l-63 3l-3 66q0 11 -12 15q-22 8 -62 8q-78 0 -133 -60t-55 -184q0 -148 126 -148q80 0 146 36z" />
    <glyph glyph-name="d" unicode="d" horiz-adv-x="584" 
d="M523 0h-147l12 89l-3 2q-50 -49 -93.5 -76t-95.5 -27q-73 0 -112.5 47.5t-39.5 142.5q0 59 13 116.5t40 110.5t78 86t118 33q79 0 143 -52l27 201q1 16 -10 20l-54 14l7 48h156l-95 -679q-2 -12 0.5 -15.5t13.5 -4.5l49 -7zM395 182l30 214q-21 22 -56 38t-70 16
q-45 0 -78.5 -26t-51.5 -68t-26 -85.5t-8 -87.5q0 -117 85 -117q68 0 175 116z" />
    <glyph glyph-name="e" unicode="e" horiz-adv-x="482" 
d="M403 98l17 -68q-82 -42 -180 -42q-196 0 -196 206q0 138 79 234t201 96q73 0 107 -33t34 -87q0 -164 -329 -200q0 -72 26.5 -107.5t97.5 -35.5q63 0 143 37zM142 272q237 29 237 127q0 52 -66 52q-64 0 -109.5 -51t-61.5 -128z" />
    <glyph glyph-name="f" unicode="f" horiz-adv-x="387" 
d="M135 -212h-89l92 647q2 10 -7 10h-70l10 69h78l13 91q23 161 174 161q47 0 87 -15t61 -33l-38 -61q-56 37 -105 37q-43 0 -64 -24t-28 -75l-10 -71q-1 -10 7 -10h161l-10 -69h-168z" />
    <glyph glyph-name="g" unicode="g" 
d="M369 -28l18 122q-48 -48 -93.5 -76t-97.5 -28q-152 0 -152 189q0 60 13 117t40 110t78 85.5t118 32.5q81 0 145 -56l16 46h84q-22 -88 -28 -131l-56 -417q-13 -95 -70.5 -142t-148.5 -47q-62 0 -114.5 13.5t-80.5 30.5l33 65q19 -12 62 -25.5t90 -13.5q126 0 144 125z
M395 182l30 213q-21 23 -56 39t-71 16q-45 0 -78.5 -26t-51 -68t-25.5 -85t-8 -86q0 -117 85 -117q70 0 175 114z" />
    <glyph glyph-name="h" unicode="h" horiz-adv-x="618" 
d="M565 0h-163l-2 3l18 99l31 222q5 30 5 59q0 63 -47 63q-64 0 -195 -115l-35 -254q-2 -12 0.5 -15.5t13.5 -4.5l62 -8l-7 -49h-233l7 50l49 7q11 2 14.5 5t4.5 15l83 594q3 18 -9 21l-54 15l7 48h155l-48 -338q41 34 65.5 52.5t65.5 36.5t78 18q113 0 115 -117
q0 -29 -5 -62l-38 -268q-2 -12 0.5 -15.5t13.5 -4.5l55 -8z" />
    <glyph glyph-name="i" unicode="i" horiz-adv-x="295" 
d="M192 625q-26 0 -41 14t-15 39q0 33 20 53.5t54 20.5q27 0 41.5 -14t14.5 -39q0 -32 -20 -53t-54 -21zM242 0h-169l-2 4l21 115l45 312q3 17 -11 21l-53 14l7 48h157l-61 -437q-2 -12 0.5 -15.5t13.5 -4.5l59 -8z" />
    <glyph glyph-name="j" unicode="j" horiz-adv-x="286" 
d="M68 -47l67 477q3 17 -9 21l-57 15l7 48h160l-80 -579q-12 -83 -50.5 -120.5t-111.5 -37.5q-42 0 -79 14.5t-52 29.5l37 57q41 -29 85 -29q40 0 57.5 24t25.5 80zM193 625q-27 0 -42 14t-15 39q0 33 20.5 53.5t54.5 20.5q26 0 41 -14t15 -39q0 -32 -20.5 -53t-53.5 -21z
" />
    <glyph glyph-name="k" unicode="k" horiz-adv-x="581" 
d="M541 0h-142l-3 3l-35 100l-70 169l-100 -95l-14 -100q-2 -12 0 -15.5t13 -4.5l63 -8l-7 -49h-233l7 50l50 7q10 2 13.5 5.5t4.5 14.5l83 595q3 16 -10 20l-53 15l6 48h158l-67 -476l204 195q29 27 54 38.5t59 11.5q23 0 44 -4l-8 -60q-31 1 -54 -8t-53 -38l-86 -83
l102 -257q4 -8 8.5 -11t18.5 -5l54 -9z" />
    <glyph glyph-name="l" unicode="l" horiz-adv-x="294" 
d="M238 0h-169l-2 4l21 115l78 553q3 17 -10 21l-53 14l7 48h158l-96 -678q-2 -12 0.5 -15.5t13.5 -4.5l59 -8z" />
    <glyph glyph-name="m" unicode="m" horiz-adv-x="895" 
d="M843 0h-161l-2 2l21 132l26 190q7 49 7 72q0 24 -9.5 35t-31.5 11q-34 0 -74.5 -27.5t-100.5 -83.5l-36 -254q-2 -12 0.5 -15.5t13.5 -4.5l56 -8l-8 -49h-162l-1 2l20 128l27 194q8 62 8 71q0 48 -39 48q-20 0 -39.5 -7t-47.5 -27.5t-42 -32t-54 -45.5l-35 -254
q-2 -12 0.5 -15.5t13.5 -4.5l62 -8l-7 -49h-233l7 50l48 7q11 2 14.5 5.5t4.5 14.5l48 352q3 17 -9 21l-53 16l7 48h151l-14 -99q74 62 113.5 85t89.5 23q107 0 100 -110q37 34 60.5 52.5t63 38.5t73.5 20q57 0 81 -26.5t25 -78.5q0 -27 -7 -72l-37 -270q-2 -12 0.5 -15.5
t13.5 -4.5l55 -8z" />
    <glyph glyph-name="n" unicode="n" horiz-adv-x="619" 
d="M567 0h-161l-2 2l19 121l28 201q6 44 6 62q0 59 -51 59q-40 0 -83 -27.5t-109 -86.5l-35 -254q-2 -12 0.5 -15.5t13.5 -4.5l62 -8l-7 -49h-233l7 50l48 7q11 2 14.5 5.5t4.5 14.5l48 352q3 18 -9 21l-53 16l7 48h151l-14 -99q41 35 66 53.5t66.5 37t78.5 18.5
q116 0 118 -120q0 -27 -5 -59l-38 -268q-2 -12 0.5 -15.5t12.5 -4.5l56 -8z" />
    <glyph glyph-name="o" unicode="o" horiz-adv-x="559" 
d="M253 -12q-105 0 -156.5 55.5t-51.5 153.5q0 146 74.5 236.5t209.5 90.5q106 0 154.5 -57t48.5 -152q0 -152 -73 -239.5t-206 -87.5zM261 57q81 0 129.5 66t48.5 193q0 135 -120 135q-83 0 -132.5 -63.5t-49.5 -186.5q0 -144 124 -144z" />
    <glyph glyph-name="p" unicode="p" horiz-adv-x="585" 
d="M240 -212h-198l-4 4l29 169l64 468q3 18 -9 21l-53 16l6 48h154l-14 -93q115 103 203 103q63 0 100.5 -48t37.5 -148q0 -61 -14.5 -119.5t-42 -108.5t-75.5 -81t-108 -31q-88 0 -149 61l-24 -181q-2 -12 0 -15t12 -4l92 -8zM207 333l-29 -206q58 -66 127 -66
q54 0 92 43.5t52.5 99t14.5 115.5q0 124 -75 124q-67 0 -182 -110z" />
    <glyph glyph-name="q" unicode="q" horiz-adv-x="571" 
d="M495 -212h-240l7 53l75 7q10 1 13.5 5t5.5 15l32 224q-107 -103 -191 -103q-152 0 -152 190q0 164 75 260q65 84 180 84q75 0 138 -55l16 46h84q-20 -79 -27 -131l-71 -515q-2 -12 0.5 -15.5t12.5 -4.5l49 -6zM395 182l30 213q-21 23 -55.5 39t-70.5 16t-65.5 -18
t-47.5 -45.5t-30 -63.5t-16.5 -70t-4.5 -68q0 -119 83 -119q72 0 177 116z" />
    <glyph glyph-name="r" unicode="r" horiz-adv-x="437" 
d="M275 0h-260l7 50l50 6q9 1 12 5t5 15l49 353q3 18 -9 21l-54 16l7 48h148l-13 -101q33 44 77.5 77.5t90.5 33.5q33 0 64 -9l-20 -151l-70 3l-2 68q0 6 -1.5 8t-8.5 2q-40 0 -132 -107l-36 -262q-2 -12 0.5 -15.5t13.5 -4.5l89 -7z" />
    <glyph glyph-name="s" unicode="s" horiz-adv-x="451" 
d="M418 368l-63 4l-3 62q-1 14 -14 19q-21 7 -66 7q-47 0 -77.5 -19.5t-30.5 -57.5q0 -32 23.5 -50.5t72.5 -35.5q32 -11 50.5 -19.5t43 -25.5t36.5 -42t12 -59q0 -77 -56 -120t-145 -43q-62 0 -112.5 11t-67.5 22l19 127l62 -4l3 -65q0 -11 10 -15q32 -14 91 -14
q50 0 80 22.5t30 63.5q0 37 -23.5 55.5t-78.5 36.5q-30 10 -49.5 18.5t-41.5 24.5t-33 40t-11 56q0 78 56 117.5t148 39.5q93 0 153 -27z" />
    <glyph glyph-name="t" unicode="t" horiz-adv-x="400" 
d="M338 82l15 -63q-67 -31 -140 -31q-122 0 -122 103q0 10 2 32l43 312q2 10 -6 10h-72l9 59q55 8 83.5 38t46.5 104h59l-18 -122q-1 -10 7 -10h143l-9 -69h-152l-40 -295q-3 -21 -3 -36q0 -28 13.5 -40.5t47.5 -12.5q40 0 93 21z" />
    <glyph glyph-name="u" unicode="u" horiz-adv-x="617" 
d="M558 0h-153l15 99q-37 -32 -62.5 -51t-66 -39t-73.5 -20q-64 0 -95 28t-31 93q0 21 4 57l39 270q2 12 -0.5 15.5t-13.5 4.5l-52 8l8 49h154l3 -4l-45 -321q-5 -30 -5 -61t11.5 -44t41.5 -13q29 0 63 17.5t59 37t67 56.5l34 255q2 12 -0.5 15.5t-13.5 4.5l-58 8l7 49h163
l3 -4l-61 -434q-3 -17 9 -19l55 -9z" />
    <glyph glyph-name="v" unicode="v" horiz-adv-x="544" 
d="M297 0h-106l-95 439q-3 13 -18 17l-41 9l7 49h135l5 -6l16 -102l61 -319l182 368l-64 11l6 48h161l7 -14z" />
    <glyph glyph-name="w" unicode="w" horiz-adv-x="812" 
d="M595 0h-106l-54 400l-164 -400h-108l-68 439q-1 14 -15 17l-43 9l8 49h132l5 -6l8 -85l43 -331l171 419h100l56 -425l161 371l-61 8l8 49h146l6 -12z" />
    <glyph glyph-name="x" unicode="x" horiz-adv-x="560" 
d="M520 0h-133l-7 7l-38 74l-68 126l-125 -149l62 -9l-5 -49h-215l6 48l53 11q12 2 25 16l161 189l-96 177q-8 14 -20 17l-39 6l7 50h115l6 -5l39 -82l55 -104l119 134l-56 8l8 49h196l-7 -49l-42 -10q-14 -3 -27 -19l-153 -169l104 -190q8 -15 23 -18l60 -10z" />
    <glyph glyph-name="y" unicode="y" horiz-adv-x="528" 
d="M161 -56l38 71l-108 425q-3 13 -17 17l-41 9l9 48h130l5 -6l23 -126l60 -259l166 333l-62 10l6 48h159l7 -14l-296 -577q-41 -79 -80.5 -112.5t-106.5 -33.5q-41 0 -77.5 14.5t-51.5 29.5l37 57q42 -29 90 -29q38 0 60.5 22.5t49.5 72.5z" />
    <glyph glyph-name="z" unicode="z" horiz-adv-x="498" 
d="M429 0h-409l7 54l344 393h-194q-9 0 -13 -13l-20 -63l-64 -3l19 146h394l-8 -56l-341 -391h207q7 0 13 13l22 74l65 3z" />
    <glyph glyph-name="braceleft" unicode="{" horiz-adv-x="287" 
d="M228 -89l-18 -58q-80 6 -115.5 28t-35.5 72q0 34 25 134q18 72 18 106q0 37 -19 50.5t-55 15.5l9 59q67 4 87 50q21 48 21 202q0 85 35 117t143 40l5 -58q-66 -8 -80.5 -30t-14.5 -90q0 -83 -6 -135q-6 -50 -27 -77.5t-60 -48.5q54 -22 54 -87q0 -38 -20 -120
q-23 -89 -23 -115q0 -25 16.5 -35t60.5 -20z" />
    <glyph glyph-name="bar" unicode="|" horiz-adv-x="281" 
d="M141 -143h-82l127 899h82z" />
    <glyph glyph-name="braceright" unicode="}" horiz-adv-x="298" 
d="M92 669l18 58q80 -6 115.5 -28t35.5 -72q0 -34 -25 -134q-18 -72 -18 -106q0 -37 19 -50.5t55 -15.5l-9 -59q-67 -4 -87 -50q-21 -48 -21 -202q0 -85 -35 -117t-143 -40l-5 58q66 8 80.5 30t14.5 90q0 83 6 135q6 50 27 77.5t60 48.5q-54 22 -54 87q0 38 20 120
q23 89 23 115q0 25 -16.5 35t-60.5 20z" />
    <glyph glyph-name="asciitilde" unicode="~" horiz-adv-x="482" 
d="M452 425l51 -18q-19 -56 -44.5 -84t-69.5 -28q-38 0 -114.5 23t-104.5 23q-23 0 -40 -12t-39 -41l-47 23q27 51 57.5 78.5t72.5 27.5q40 0 112 -23t103 -23q23 0 35.5 12t27.5 42z" />
    <glyph glyph-name="exclamdown" unicode="&#xa1;" horiz-adv-x="262" 
d="M136 325h76l-39 -371l-23 -166h-101l23 166zM126 450q0 74 76 74q58 0 58 -52q0 -74 -76 -74q-58 0 -58 52z" />
    <glyph glyph-name="cent" unicode="&#xa2;" horiz-adv-x="490" 
d="M270 -67h-74l14 103q-155 27 -155 203q0 127 60.5 200.5t164.5 87.5l15 104h72l-14 -101q78 -4 131 -29l-19 -131l-60 3l-3 65q0 12 -11 15q-22 6 -48 7l-49 -357q28 1 51 9q13 5 16 14l21 65l62 3l-18 -131q-59 -27 -142 -31zM151 246q0 -109 70 -135l48 342
q-118 -35 -118 -207z" />
    <glyph glyph-name="sterling" unicode="&#xa3;" horiz-adv-x="541" 
d="M478 0h-439l-5 59q56 40 74.5 81t29.5 125l4 32h-79l9 71h79l8 63q13 105 63.5 161t159.5 56q54 0 97.5 -16t64.5 -36l-44 -59q-49 39 -115 39q-63 0 -94 -32t-40 -98l-11 -78h178l-10 -71h-177q-13 -97 -29.5 -141t-65.5 -88h256q13 0 17 11l26 85h65z" />
    <glyph glyph-name="currency" unicode="&#xa4;" 
d="M566 66l-62 -59l-90 88q-52 -36 -130 -36q-80 0 -134 38l-90 -90l-57 59l93 93q-30 57 -30 124q0 58 32 117l-92 91l61 61l88 -87q55 41 135 41t135 -39l84 84l58 -59l-88 -88q29 -53 29 -117q0 -73 -35 -129zM289 136q60 0 93.5 41.5t33.5 105.5q0 68 -33 106t-97 38
q-61 0 -94 -39.5t-33 -104.5q0 -66 32 -106.5t98 -40.5z" />
    <glyph glyph-name="yen" unicode="&#xa5;" horiz-adv-x="522" 
d="M435 175h-130l-13 -94q-2 -12 0 -15.5t13 -4.5l96 -8l-7 -53h-312l7 53l94 7q7 0 10.5 2.5t4.5 5t2 9.5l14 98h-129l9 62h129l8 57h-130l8 62h95l-102 196q-7 13 -21 17l-42 11l7 49h225l-7 -49l-74 -9l99 -197l153 197l-60 9l6 49h201l-7 -49l-42 -10q-11 -2 -23 -18
l-157 -196h98l-7 -62h-130l-8 -57h130z" />
    <glyph glyph-name="brokenbar" unicode="&#xa6;" horiz-adv-x="281" 
d="M141 -143h-82l55 388h82zM219 408h-82l48 348h82z" />
    <glyph glyph-name="section" unicode="&#xa7;" horiz-adv-x="548" 
d="M115 15l2 -63q0 -11 9 -15q35 -15 92 -15q54 0 83 22t29 63q0 16 -7.5 29t-15 20.5t-27.5 16t-29 11t-36 10.5q-26 7 -41.5 12.5t-36.5 16.5t-33 23.5t-20.5 33t-8.5 46.5q0 32 15.5 62t33.5 47.5t47 41.5q-41 34 -41 93q0 78 61.5 118t151.5 40q92 0 157 -28l-18 -129
l-65 4l-3 62q0 12 -13 17q-22 8 -72 8q-57 0 -84.5 -22.5t-27.5 -56.5q0 -24 16 -41t35.5 -25t53.5 -18q32 -10 44.5 -13.5t39 -16t37.5 -25t21.5 -34.5t10.5 -50q0 -45 -27 -83t-68 -64q39 -39 39 -96q0 -80 -60.5 -119.5t-151.5 -39.5q-52 0 -106 13t-69 23l17 125z
M242 170l78 -25q69 45 69 100q0 30 -21.5 47t-74.5 32l-67 19q-27 -18 -47 -44.5t-20 -51.5q0 -31 21 -47.5t62 -29.5z" />
    <glyph glyph-name="dieresis" unicode="&#xa8;" horiz-adv-x="500" 
d="M297 668q0 -28 -17.5 -45.5t-46.5 -17.5q-23 0 -36 12.5t-13 33.5q0 27 17.5 45t46.5 18q23 0 36 -12.5t13 -33.5zM499 668q0 -28 -17.5 -45.5t-46.5 -17.5q-23 0 -36 12.5t-13 33.5q0 27 17.5 45t46.5 18q23 0 36 -12.5t13 -33.5z" />
    <glyph glyph-name="copyright" unicode="&#xa9;" horiz-adv-x="762" 
d="M722 319q0 -149 -92 -240.5t-240 -91.5q-159 0 -245 88.5t-86 229.5q0 152 95 241.5t238 89.5q153 0 241.5 -86t88.5 -231zM392 38q127 0 200 73.5t73 201.5q0 129 -75 200.5t-198 71.5q-121 0 -197.5 -74.5t-76.5 -204.5q0 -125 73 -196.5t201 -71.5zM516 244v-100
q-40 -24 -114 -24q-97 0 -142.5 52.5t-45.5 142.5q0 88 49.5 141t141.5 53q59 0 112 -20v-105l-43 2l-9 49q-2 8 -8 12q-28 11 -60 11q-51 0 -82.5 -35t-31.5 -110q0 -64 29.5 -103.5t91.5 -39.5q32 0 50 8q6 2 10 15l14 51h38z" />
    <glyph glyph-name="ordfeminine" unicode="&#xaa;" horiz-adv-x="403" 
d="M398 281h-108l7 56l-2 1q-67 -65 -125 -65q-101 0 -101 125q0 54 15 102t54.5 84t97.5 36q54 0 94 -36l12 30h67q-15 -67 -17 -81l-29 -197q-1 -7 0 -9t9 -3l32 -5zM300 401l20 131q-32 30 -75 30q-36 0 -59.5 -28t-32 -61.5t-8.5 -67.5q0 -70 51 -70q40 0 104 66z" />
    <glyph glyph-name="guillemotleft" unicode="&#xab;" horiz-adv-x="436" 
d="M368 103h-82l-65 156l110 149h83l-96 -139q-8 -10 -4 -19zM210 103h-82l-65 156l110 149h83l-96 -139q-8 -10 -4 -19z" />
    <glyph glyph-name="logicalnot" unicode="&#xac;" 
d="M468 191h-81l14 94h-296l11 81h377z" />
    <glyph glyph-name="registered" unicode="&#xae;" horiz-adv-x="449" 
d="M456 480q0 -82 -51.5 -133t-133.5 -51q-88 0 -135.5 49.5t-47.5 127.5q0 84 52.5 134.5t131.5 50.5q85 0 134.5 -48.5t49.5 -129.5zM415 477q0 68 -39.5 105t-103.5 37q-61 0 -101.5 -39t-40.5 -106q0 -65 38 -102t104 -37t104.5 38t38.5 104zM368 384h-80v21l18 2
l-24 42q-6 10 -17 10h-15v-46q0 -5 6 -6l15 -2v-21h-80v21l14 2q6 1 6 7v131q0 6 -7 7l-13 2v21h87q66 0 66 -54q0 -39 -37 -52q8 -2 17 -19l19 -36q2 -5 8 -6l17 -3v-21zM250 489h13q41 0 41 30q0 26 -35 26h-19v-56z" />
    <glyph glyph-name="macron" unicode="&#xaf;" horiz-adv-x="500" 
d="M489 611h-307l10 69h307z" />
    <glyph glyph-name="degree" unicode="&#xb0;" horiz-adv-x="287" 
d="M201 612q27 0 43 18t16 47q0 44 -44 44q-26 0 -42 -17.5t-16 -47.5q0 -44 43 -44zM314 683q0 -54 -33.5 -87t-86.5 -33q-43 0 -67.5 23.5t-24.5 63.5q0 57 35 88.5t86 31.5q41 0 66 -23t25 -64z" />
    <glyph glyph-name="plusminus" unicode="&#xb1;" 
d="M438 0h-377l11 80h377zM477 281h-147l-21 -149h-83l21 149h-147l11 81h147l21 150h84l-22 -150h147z" />
    <glyph glyph-name="twosuperior" unicode="&#xb2;" horiz-adv-x="347" 
d="M347 350h-308l7 51l148 151q6 6 19 19.5t18 18.5t15 16t14 16.5t11.5 14.5t10 15t6.5 13.5t5 15t1 14.5q0 45 -55 45q-38 0 -56 -13.5t-24 -49.5l-78 8q6 36 21.5 59.5t40 35t49 16t57.5 4.5q130 0 130 -98q0 -28 -17 -59.5t-33 -50t-51 -53.5l-131 -134h130q8 0 11 8
l16 51h60z" />
    <glyph glyph-name="threesuperior" unicode="&#xb3;" horiz-adv-x="354" 
d="M290 586l-1 -3q34 -8 53 -31.5t19 -60.5q0 -67 -48 -108t-127 -41q-100 0 -150 60l51 50q40 -45 102 -45q37 0 62 20.5t25 61.5q0 62 -69 62q-22 0 -49 -4l8 58l38 4q93 9 93 83q0 47 -54 47q-33 0 -49 -12.5t-21 -49.5l-80 8q9 67 52 91t107 24q129 0 129 -97
q0 -44 -25.5 -74t-65.5 -43z" />
    <glyph glyph-name="acute" unicode="&#xb4;" horiz-adv-x="500" 
d="M446 700l-185 -133l-36 41l165 156z" />
    <glyph glyph-name="mu" unicode="&#xb5;" horiz-adv-x="632" 
d="M566 0h-148l9 68h-4q-96 -77 -174 -77q-56 0 -82 40l-3 -1l-19 -206h-93l97 690h91l-48 -340q-3 -28 -3.5 -52.5t17.5 -41t55 -16.5q79 0 167 85l51 365h91l-60 -435q-3 -19 10 -20l53 -7z" />
    <glyph glyph-name="paragraph" unicode="&#xb6;" horiz-adv-x="613" 
d="M405 42l75 537h-77l-74 -523h-39q-107 0 -170 69t-63 182q0 157 93 247.5t257 90.5h247l-7 -53l-68 -8q-11 -2 -14 -5t-5 -14l-75 -532q-13 -93 -69 -139t-145 -46q-115 0 -192 45l32 63q19 -12 61.5 -25.5t89.5 -13.5q125 0 143 125z" />
    <glyph glyph-name="periodcentered" unicode="&#xb7;" horiz-adv-x="194" 
d="M196 321q0 -34 -19.5 -55t-56.5 -21q-58 0 -58 49q0 35 19 56t57 21q58 0 58 -50z" />
    <glyph glyph-name="cedilla" unicode="&#xb8;" horiz-adv-x="500" 
d="M124 -229l12 52q14 -4 38 -4q29 0 51.5 13.5t22.5 41.5q0 42 -65 42l32 114l56 -8l-18 -66q64 -17 64 -77q0 -55 -40 -85t-97 -30q-32 0 -56 7z" />
    <glyph glyph-name="onesuperior" unicode="&#xb9;" horiz-adv-x="277" 
d="M271 350h-221l6 45l58 5q12 1 13 13l45 307q3 12 -7 14l-59 11l9 45h151l-55 -378q-1 -8 0 -10t9 -3l57 -5z" />
    <glyph glyph-name="ordmasculine" unicode="&#xba;" horiz-adv-x="396" 
d="M211 273q-74 0 -110 38t-36 100q0 94 50.5 151.5t141.5 57.5q142 0 142 -142q0 -94 -49 -149.5t-139 -55.5zM219 329q47 0 74.5 38t28.5 112q0 85 -73 85q-48 0 -77.5 -37.5t-29.5 -109.5q0 -88 77 -88z" />
    <glyph glyph-name="guillemotright" unicode="&#xbb;" horiz-adv-x="436" 
d="M290 103h-85l96 145q6 10 3 19l-55 141h82l66 -153zM132 103h-85l96 145q6 10 3 19l-55 141h82l66 -153z" />
    <glyph glyph-name="onequarter" unicode="&#xbc;" horiz-adv-x="895" 
d="M300 281h-221l6 45l58 5q12 1 13 13l45 307q3 12 -7 14l-59 11l9 45h151l-55 -378q-1 -8 0 -10t9 -3l57 -5zM269 -12h-85l459 736h84zM732 0h-77l12 84h-198l7 56l214 298h104l-41 -290h56l-8 -65h-57zM675 148l29 203l-147 -203h118z" />
    <glyph glyph-name="onehalf" unicode="&#xbd;" horiz-adv-x="895" 
d="M301 281h-221l6 45l58 5q12 1 13 13l45 307q3 12 -7 14l-59 11l9 45h151l-55 -378q-1 -8 0 -10t9 -3l57 -5zM247 -12h-85l459 736h84zM806 0h-308l7 51l148 151q6 6 19 19.5t18 18.5t15 16t14 16.5t11.5 14.5t10 15t6.5 13.5t5 15t1 14.5q0 45 -55 45q-38 0 -56 -13.5
t-24 -49.5l-78 8q6 36 21.5 59.5t40 35t49 16t57.5 4.5q130 0 130 -98q0 -28 -17 -59.5t-33 -50t-51 -53.5l-131 -134h130q8 0 11 8l16 51h60z" />
    <glyph glyph-name="threequarters" unicode="&#xbe;" horiz-adv-x="895" 
d="M307 517l-1 -3q34 -8 53 -31.5t19 -60.5q0 -67 -48 -108t-127 -41q-100 0 -150 60l51 50q40 -45 102 -45q37 0 62 20.5t25 61.5q0 62 -69 62q-22 0 -49 -4l8 58l38 4q93 9 93 83q0 47 -54 47q-33 0 -49 -12.5t-21 -49.5l-80 8q9 67 52 91t107 24q129 0 129 -97
q0 -44 -25.5 -74t-65.5 -43zM303 -12h-85l459 736h84zM764 0h-77l12 84h-198l7 56l214 298h104l-41 -290h56l-8 -65h-57zM707 148l29 203l-147 -203h118z" />
    <glyph glyph-name="questiondown" unicode="&#xbf;" horiz-adv-x="480" 
d="M290 326h91l-25 -177q-235 -23 -235 -191q0 -95 113 -95q50 0 80 7q17 4 21 20l21 67l72 4l-19 -137q-97 -36 -185 -36q-200 0 -200 170q0 107 67 169t183 82zM287 450q0 74 76 74q58 0 58 -52q0 -74 -76 -74q-58 0 -58 52z" />
    <glyph glyph-name="Agrave" unicode="&#xc0;" horiz-adv-x="699" 
d="M669 0h-241l7 47l85 9l-31 165h-274l-75 -165l77 -9l-8 -47h-223l7 47l43 11q20 5 29 23l302 643h113l132 -649q3 -13 21 -17l43 -11zM477 294l-68 349l-162 -349h230zM500 765l-190 102l53 73l171 -128z" />
    <glyph glyph-name="Aacute" unicode="&#xc1;" horiz-adv-x="699" 
d="M669 0h-241l7 47l85 9l-31 165h-274l-75 -165l77 -9l-8 -47h-223l7 47l43 11q20 5 29 23l302 643h113l132 -649q3 -13 21 -17l43 -11zM477 294l-68 349l-162 -349h230zM567 866l-216 -100l-25 48l204 127z" />
    <glyph glyph-name="Acircumflex" unicode="&#xc2;" horiz-adv-x="699" 
d="M669 0h-241l7 47l85 9l-31 165h-274l-75 -165l77 -9l-8 -47h-223l7 47l43 11q20 5 29 23l302 643h113l132 -649q3 -13 21 -17l43 -11zM477 294l-68 349l-162 -349h230zM591 807l-46 -41l-107 83l-131 -83l-35 41l131 102h84z" />
    <glyph glyph-name="Atilde" unicode="&#xc3;" horiz-adv-x="699" 
d="M669 0h-241l7 47l85 9l-31 165h-274l-75 -165l77 -9l-8 -47h-223l7 47l43 11q20 5 29 23l302 643h113l132 -649q3 -13 21 -17l43 -11zM477 294l-68 349l-162 -349h230zM616 866l-28 -34q-40 -50 -71 -50q-15 0 -43 7l-116 31q-10 3 -16 -3l-45 -39l-39 31l35 44
q32 41 67 41q15 0 31 -4l123 -33q14 -4 22 3l39 37z" />
    <glyph glyph-name="Adieresis" unicode="&#xc4;" horiz-adv-x="699" 
d="M669 0h-241l7 47l85 9l-31 165h-274l-75 -165l77 -9l-8 -47h-223l7 47l43 11q20 5 29 23l302 643h113l132 -649q3 -13 21 -17l43 -11zM477 294l-68 349l-162 -349h230zM393 845q0 -28 -17.5 -45.5t-46.5 -17.5q-23 0 -36 12.5t-13 33.5q0 27 17.5 45t46.5 18
q23 0 36 -12.5t13 -33.5zM595 845q0 -28 -17.5 -45.5t-46.5 -17.5q-23 0 -36 12.5t-13 33.5q0 27 17.5 45t46.5 18q23 0 36 -12.5t13 -33.5z" />
    <glyph glyph-name="Aring" unicode="&#xc5;" horiz-adv-x="699" 
d="M444 872q33 0 53.5 -18t20.5 -50q0 -52 -38 -81l132 -648q3 -13 21 -17l43 -11l-7 -47h-241l7 47l85 9l-31 165h-274l-75 -165l77 -9l-8 -47h-223l7 47l43 11q20 5 29 23l301 641q-21 19 -21 54q0 42 28 69t71 27zM477 294l-68 349l-162 -349h230zM427 749q20 0 31 14
t11 34q0 30 -32 30q-20 0 -31 -14t-11 -34q0 -30 32 -30z" />
    <glyph glyph-name="AE" unicode="&#xc6;" horiz-adv-x="1000" 
d="M932 0h-521l6 49l71 8q10 1 11 12l35 252h-216l-178 -263l72 -9l-7 -49h-219l7 49l43 11q21 4 31 19l395 584l-76 9l8 52h617l-23 -165l-66 4l-3 77q-1 13 -16 13h-232l-37 -261h267l-8 -71h-268l-36 -250h254q15 0 18 11l28 87h66zM544 392l37 261h-40l-178 -261h181z
" />
    <glyph glyph-name="Ccedilla" unicode="&#xc7;" horiz-adv-x="662" 
d="M234 -230l13 51q20 -4 32 -4q40 0 60 16t20 42q0 40 -64 41l20 74q-128 10 -190 92t-62 217q0 196 107 317t302 121q136 0 210 -54l-22 -160l-66 4l-4 96q0 15 -11 19q-52 20 -117 20q-135 0 -219 -94t-84 -261q0 -120 53 -182.5t157 -62.5q91 0 141 22q10 4 14 17l29 91
h63l-21 -151q-79 -49 -222 -52l-9 -34q64 -18 64 -76q0 -45 -36.5 -80t-109.5 -35q-26 0 -48 6z" />
    <glyph glyph-name="Egrave" unicode="&#xc8;" horiz-adv-x="616" 
d="M549 0h-513l6 49l63 7q10 1 13 5t5 15l79 571q2 12 -0.5 15.5t-12.5 4.5l-60 7l6 50h492l-23 -165l-62 4l-3 77q-1 13 -16 13h-230l-34 -252h261l-10 -72h-262l-35 -258h252q14 0 17 11l28 87h62zM474 765l-190 102l53 73l171 -128z" />
    <glyph glyph-name="Eacute" unicode="&#xc9;" horiz-adv-x="616" 
d="M549 0h-513l6 49l63 7q10 1 13 5t5 15l79 571q2 12 -0.5 15.5t-12.5 4.5l-60 7l6 50h492l-23 -165l-62 4l-3 77q-1 13 -16 13h-230l-34 -252h261l-10 -72h-262l-35 -258h252q14 0 17 11l28 87h62zM541 866l-216 -100l-25 48l204 127z" />
    <glyph glyph-name="Ecircumflex" unicode="&#xca;" horiz-adv-x="616" 
d="M549 0h-513l6 49l63 7q10 1 13 5t5 15l79 571q2 12 -0.5 15.5t-12.5 4.5l-60 7l6 50h492l-23 -165l-62 4l-3 77q-1 13 -16 13h-230l-34 -252h261l-10 -72h-262l-35 -258h252q14 0 17 11l28 87h62zM565 807l-46 -41l-107 83l-131 -83l-35 41l131 102h84z" />
    <glyph glyph-name="Edieresis" unicode="&#xcb;" horiz-adv-x="616" 
d="M549 0h-513l6 49l63 7q10 1 13 5t5 15l79 571q2 12 -0.5 15.5t-12.5 4.5l-60 7l6 50h492l-23 -165l-62 4l-3 77q-1 13 -16 13h-230l-34 -252h261l-10 -72h-262l-35 -258h252q14 0 17 11l28 87h62zM367 845q0 -28 -17.5 -45.5t-46.5 -17.5q-23 0 -36 12.5t-13 33.5
q0 27 17.5 45t46.5 18q23 0 36 -12.5t13 -33.5zM569 845q0 -28 -17.5 -45.5t-46.5 -17.5q-23 0 -36 12.5t-13 33.5q0 27 17.5 45t46.5 18q23 0 36 -12.5t13 -33.5z" />
    <glyph glyph-name="Igrave" unicode="&#xcc;" horiz-adv-x="364" 
d="M295 0h-268l5 49l73 7q10 1 13 4.5t5 15.5l80 572q2 12 -0.5 15.5t-12.5 4.5l-70 7l6 49h268l-6 -49l-76 -8q-11 -1 -13.5 -4t-4.5 -15l-81 -571q-2 -12 0 -15.5t13 -4.5l74 -8zM336 765l-190 102l53 73l171 -128z" />
    <glyph glyph-name="Iacute" unicode="&#xcd;" horiz-adv-x="364" 
d="M295 0h-268l5 49l73 7q10 1 13 4.5t5 15.5l80 572q2 12 -0.5 15.5t-12.5 4.5l-70 7l6 49h268l-6 -49l-76 -8q-11 -1 -13.5 -4t-4.5 -15l-81 -571q-2 -12 0 -15.5t13 -4.5l74 -8zM403 866l-216 -100l-25 48l204 127z" />
    <glyph glyph-name="Icircumflex" unicode="&#xce;" horiz-adv-x="364" 
d="M295 0h-268l5 49l73 7q10 1 13 4.5t5 15.5l80 572q2 12 -0.5 15.5t-12.5 4.5l-70 7l6 49h268l-6 -49l-76 -8q-11 -1 -13.5 -4t-4.5 -15l-81 -571q-2 -12 0 -15.5t13 -4.5l74 -8zM427 807l-46 -41l-107 83l-131 -83l-35 41l131 102h84z" />
    <glyph glyph-name="Idieresis" unicode="&#xcf;" horiz-adv-x="364" 
d="M295 0h-268l5 49l73 7q10 1 13 4.5t5 15.5l80 572q2 12 -0.5 15.5t-12.5 4.5l-70 7l6 49h268l-6 -49l-76 -8q-11 -1 -13.5 -4t-4.5 -15l-81 -571q-2 -12 0 -15.5t13 -4.5l74 -8zM229 845q0 -28 -17.5 -45.5t-46.5 -17.5q-23 0 -36 12.5t-13 33.5q0 27 17.5 45t46.5 18
q23 0 36 -12.5t13 -33.5zM431 845q0 -28 -17.5 -45.5t-46.5 -17.5q-23 0 -36 12.5t-13 33.5q0 27 17.5 45t46.5 18q23 0 36 -12.5t13 -33.5z" />
    <glyph glyph-name="Eth" unicode="&#xd0;" horiz-adv-x="752" 
d="M314 0h-279l8 50l62 7q9 1 12.5 4.5t4.5 13.5l36 257h-94l9 71h95l34 245q2 11 -0.5 15t-12.5 5l-61 7l7 49h293q156 0 232.5 -78t76.5 -217q0 -195 -106.5 -312t-316.5 -117zM213 71h107q155 0 239 95t84 260q0 122 -61.5 174.5t-179.5 52.5h-109l-35 -250h188l-10 -71
h-187z" />
    <glyph glyph-name="Ntilde" unicode="&#xd1;" horiz-adv-x="815" 
d="M656 0h-105l-274 611l-75 -534q-2 -12 0.5 -15.5t12.5 -4.5l65 -8l-5 -49h-238l5 49l63 7q10 1 13 5t5 15l80 571q2 12 -0.5 15.5t-12.5 4.5l-60 7l6 50h191l268 -608l73 532q2 11 -0.5 15t-12.5 5l-61 7l6 49h238l-7 -49l-67 -8q-11 -1 -13.5 -4t-4.5 -15zM676 866
l-28 -34q-40 -50 -71 -50q-15 0 -43 7l-116 31q-10 3 -16 -3l-45 -39l-39 31l35 44q32 41 67 41q15 0 31 -4l123 -33q14 -4 22 3l39 37z" />
    <glyph glyph-name="Ograve" unicode="&#xd2;" horiz-adv-x="752" 
d="M348 -12q-144 0 -215.5 80.5t-71.5 217.5q0 201 103.5 326t292.5 125q141 0 211 -81.5t70 -216.5q0 -209 -104.5 -330t-285.5 -121zM360 65q123 0 202 93t81 268q0 49 -11 91q-37 143 -186 143q-125 0 -205.5 -93t-83.5 -264q0 -50 11 -92q35 -146 192 -146zM531 765
l-190 102l53 73l171 -128z" />
    <glyph glyph-name="Oacute" unicode="&#xd3;" horiz-adv-x="752" 
d="M348 -12q-144 0 -215.5 80.5t-71.5 217.5q0 201 103.5 326t292.5 125q141 0 211 -81.5t70 -216.5q0 -209 -104.5 -330t-285.5 -121zM360 65q123 0 202 93t81 268q0 49 -11 91q-37 143 -186 143q-125 0 -205.5 -93t-83.5 -264q0 -50 11 -92q35 -146 192 -146zM598 866
l-216 -100l-25 48l204 127z" />
    <glyph glyph-name="Ocircumflex" unicode="&#xd4;" horiz-adv-x="752" 
d="M348 -12q-144 0 -215.5 80.5t-71.5 217.5q0 201 103.5 326t292.5 125q141 0 211 -81.5t70 -216.5q0 -209 -104.5 -330t-285.5 -121zM360 65q123 0 202 93t81 268q0 49 -11 91q-37 143 -186 143q-125 0 -205.5 -93t-83.5 -264q0 -50 11 -92q35 -146 192 -146zM622 807
l-46 -41l-107 83l-131 -83l-35 41l131 102h84z" />
    <glyph glyph-name="Otilde" unicode="&#xd5;" horiz-adv-x="752" 
d="M348 -12q-144 0 -215.5 80.5t-71.5 217.5q0 201 103.5 326t292.5 125q141 0 211 -81.5t70 -216.5q0 -209 -104.5 -330t-285.5 -121zM360 65q123 0 202 93t81 268q0 49 -11 91q-37 143 -186 143q-125 0 -205.5 -93t-83.5 -264q0 -50 11 -92q35 -146 192 -146zM647 866
l-28 -34q-40 -50 -71 -50q-15 0 -43 7l-116 31q-10 3 -16 -3l-45 -39l-39 31l35 44q32 41 67 41q15 0 31 -4l123 -33q14 -4 22 3l39 37z" />
    <glyph glyph-name="Odieresis" unicode="&#xd6;" horiz-adv-x="752" 
d="M348 -12q-144 0 -215.5 80.5t-71.5 217.5q0 201 103.5 326t292.5 125q141 0 211 -81.5t70 -216.5q0 -209 -104.5 -330t-285.5 -121zM360 65q123 0 202 93t81 268q0 49 -11 91q-37 143 -186 143q-125 0 -205.5 -93t-83.5 -264q0 -50 11 -92q35 -146 192 -146zM424 845
q0 -28 -17.5 -45.5t-46.5 -17.5q-23 0 -36 12.5t-13 33.5q0 27 17.5 45t46.5 18q23 0 36 -12.5t13 -33.5zM626 845q0 -28 -17.5 -45.5t-46.5 -17.5q-23 0 -36 12.5t-13 33.5q0 27 17.5 45t46.5 18q23 0 36 -12.5t13 -33.5z" />
    <glyph glyph-name="multiply" unicode="&#xd7;" 
d="M385 156l-91 106l-119 -106l-50 58l120 106l-90 107l67 59l89 -106l121 106l50 -59l-121 -107l91 -106z" />
    <glyph glyph-name="Oslash" unicode="&#xd8;" horiz-adv-x="752" 
d="M199 -78h-91l63 113q-110 76 -110 251q0 201 103.5 326t292.5 125q52 0 99 -13l37 66h91l-56 -100q110 -75 110 -251q0 -209 -104.5 -330t-285.5 -121q-57 0 -105 14zM360 65q123 0 202 93t81 268q0 49 -11 91q-15 56 -49 92l-299 -534q31 -10 76 -10zM168 211
q13 -59 48 -95l299 534q-30 10 -69 10q-125 0 -205.5 -93t-83.5 -264q0 -50 11 -92z" />
    <glyph glyph-name="Ugrave" unicode="&#xd9;" horiz-adv-x="770" 
d="M568 252l54 396q1 12 -1 15.5t-12 4.5l-61 7l7 49h243l-7 -49l-67 -8q-11 -1 -13.5 -4t-4.5 -15l-56 -408q-18 -131 -88.5 -191.5t-200.5 -60.5q-118 0 -173.5 49t-55.5 148q0 31 4 59l54 404q2 12 -0.5 15.5t-11.5 4.5l-61 7l7 49h249l-7 -49l-67 -8q-11 -1 -13.5 -4
t-4.5 -15l-55 -394q-4 -28 -4 -58q0 -70 37 -100.5t112 -30.5q89 0 136 42.5t61 144.5zM527 765l-190 102l53 73l171 -128z" />
    <glyph glyph-name="Uacute" unicode="&#xda;" horiz-adv-x="770" 
d="M568 252l54 396q1 12 -1 15.5t-12 4.5l-61 7l7 49h243l-7 -49l-67 -8q-11 -1 -13.5 -4t-4.5 -15l-56 -408q-18 -131 -88.5 -191.5t-200.5 -60.5q-118 0 -173.5 49t-55.5 148q0 31 4 59l54 404q2 12 -0.5 15.5t-11.5 4.5l-61 7l7 49h249l-7 -49l-67 -8q-11 -1 -13.5 -4
t-4.5 -15l-55 -394q-4 -28 -4 -58q0 -70 37 -100.5t112 -30.5q89 0 136 42.5t61 144.5zM608 866l-216 -100l-25 48l204 127z" />
    <glyph glyph-name="Ucircumflex" unicode="&#xdb;" horiz-adv-x="770" 
d="M568 252l54 396q1 12 -1 15.5t-12 4.5l-61 7l7 49h243l-7 -49l-67 -8q-11 -1 -13.5 -4t-4.5 -15l-56 -408q-18 -131 -88.5 -191.5t-200.5 -60.5q-118 0 -173.5 49t-55.5 148q0 31 4 59l54 404q2 12 -0.5 15.5t-11.5 4.5l-61 7l7 49h249l-7 -49l-67 -8q-11 -1 -13.5 -4
t-4.5 -15l-55 -394q-4 -28 -4 -58q0 -70 37 -100.5t112 -30.5q89 0 136 42.5t61 144.5zM632 807l-46 -41l-107 83l-131 -83l-35 41l131 102h84z" />
    <glyph glyph-name="Udieresis" unicode="&#xdc;" horiz-adv-x="770" 
d="M568 252l54 396q1 12 -1 15.5t-12 4.5l-61 7l7 49h243l-7 -49l-67 -8q-11 -1 -13.5 -4t-4.5 -15l-56 -408q-18 -131 -88.5 -191.5t-200.5 -60.5q-118 0 -173.5 49t-55.5 148q0 31 4 59l54 404q2 12 -0.5 15.5t-11.5 4.5l-61 7l7 49h249l-7 -49l-67 -8q-11 -1 -13.5 -4
t-4.5 -15l-55 -394q-4 -28 -4 -58q0 -70 37 -100.5t112 -30.5q89 0 136 42.5t61 144.5zM434 845q0 -28 -17.5 -45.5t-46.5 -17.5q-23 0 -36 12.5t-13 33.5q0 27 17.5 45t46.5 18q23 0 36 -12.5t13 -33.5zM636 845q0 -28 -17.5 -45.5t-46.5 -17.5q-23 0 -36 12.5t-13 33.5
q0 27 17.5 45t46.5 18q23 0 36 -12.5t13 -33.5z" />
    <glyph glyph-name="Yacute" unicode="&#xdd;" horiz-adv-x="607" 
d="M445 0h-312l6 49l95 7q9 1 12 5t5 16l28 203l-146 367q-6 11 -21 17l-43 11l8 49h229l-8 -49l-74 -9l113 -303l194 303l-72 9l8 49h214l-7 -49l-42 -11q-20 -6 -28 -20l-234 -361l-28 -206q-2 -13 0 -16t13 -4l96 -8zM535 866l-216 -100l-25 48l204 127z" />
    <glyph glyph-name="Thorn" unicode="&#xde;" horiz-adv-x="641" 
d="M357 0h-323l7 50l63 7q11 2 14.5 5.5t4.5 14.5l79 571q2 11 -1 15t-13 5l-60 7l6 49h255l-6 -49l-76 -8q-9 -2 -12.5 -5t-4.5 -13l-7 -52h132q112 0 163 -50t51 -135q0 -133 -79 -196.5t-224 -63.5h-104l-10 -74q-2 -12 0 -15.5t12 -4.5l140 -8zM232 222h90q47 0 82 7.5
t66.5 26.5t48 57t16.5 95q0 118 -153 118h-109z" />
    <glyph glyph-name="germandbls" unicode="&#xdf;" horiz-adv-x="635" 
d="M122 -212h-89l112 779q8 59 30.5 99.5t56 61.5t70 29.5t82.5 8.5q50 0 88.5 -11.5t59 -27.5t33.5 -37t16.5 -36.5t3.5 -30.5q0 -41 -23.5 -77t-51 -57t-51 -46t-23.5 -47t16.5 -41t40 -35t46.5 -35t39.5 -51.5t16.5 -74.5q0 -80 -56 -125.5t-142 -45.5q-54 0 -100 10
t-64 20l18 129l63 -4l3 -68q0 -12 10 -15q33 -10 76 -10q48 0 76 25.5t28 68.5q0 28 -12 50.5t-30 35.5t-38.5 28t-38.5 28.5t-30 37t-12 53.5q0 31 15 58t37 47.5t44 39.5t37 42t15 48q0 37 -30 59.5t-86 22.5q-67 0 -101.5 -32.5t-44.5 -103.5z" />
    <glyph glyph-name="agrave" unicode="&#xe0;" horiz-adv-x="580" 
d="M522 0h-146l12 90l-3 1q-50 -50 -94.5 -76.5t-96.5 -26.5q-150 0 -150 191q0 62 13.5 119.5t41.5 110t78.5 84t117.5 31.5q78 0 142 -56l16 46h84q-20 -79 -26 -123l-44 -315q-2 -12 0.5 -15.5t13.5 -4.5l49 -7zM394 181l30 215q-22 22 -56 38t-70 16q-44 0 -77.5 -26
t-51 -67.5t-26 -84t-8.5 -85.5q0 -121 86 -121q67 0 173 115zM434 604l-45 -37l-156 141l69 60z" />
    <glyph glyph-name="aacute" unicode="&#xe1;" horiz-adv-x="580" 
d="M522 0h-146l12 90l-3 1q-50 -50 -94.5 -76.5t-96.5 -26.5q-150 0 -150 191q0 62 13.5 119.5t41.5 110t78.5 84t117.5 31.5q78 0 142 -56l16 46h84q-20 -79 -26 -123l-44 -315q-2 -12 0.5 -15.5t13.5 -4.5l49 -7zM394 181l30 215q-22 22 -56 38t-70 16q-44 0 -77.5 -26
t-51 -67.5t-26 -84t-8.5 -85.5q0 -121 86 -121q67 0 173 115zM470 700l-185 -133l-36 41l165 156z" />
    <glyph glyph-name="acircumflex" unicode="&#xe2;" horiz-adv-x="580" 
d="M522 0h-146l12 90l-3 1q-50 -50 -94.5 -76.5t-96.5 -26.5q-150 0 -150 191q0 62 13.5 119.5t41.5 110t78.5 84t117.5 31.5q78 0 142 -56l16 46h84q-20 -79 -26 -123l-44 -315q-2 -12 0.5 -15.5t13.5 -4.5l49 -7zM394 181l30 215q-22 22 -56 38t-70 16q-44 0 -77.5 -26
t-51 -67.5t-26 -84t-8.5 -85.5q0 -121 86 -121q67 0 173 115zM506 610l-50 -38l-110 101l-140 -101l-39 38l145 123h84z" />
    <glyph glyph-name="atilde" unicode="&#xe3;" horiz-adv-x="580" 
d="M522 0h-146l12 90l-3 1q-50 -50 -94.5 -76.5t-96.5 -26.5q-150 0 -150 191q0 62 13.5 119.5t41.5 110t78.5 84t117.5 31.5q78 0 142 -56l16 46h84q-20 -79 -26 -123l-44 -315q-2 -12 0.5 -15.5t13.5 -4.5l49 -7zM394 181l30 215q-22 22 -56 38t-70 16q-44 0 -77.5 -26
t-51 -67.5t-26 -84t-8.5 -85.5q0 -121 86 -121q67 0 173 115zM516 673l-28 -35q-40 -50 -70 -50q-17 0 -43 8q-25 6 -68 18t-50 14q-9 3 -17 -4l-44 -39l-38 30l35 44q34 42 66 42q17 0 41 -7q108 -30 119 -32q8 -3 16 4l40 37z" />
    <glyph glyph-name="adieresis" unicode="&#xe4;" horiz-adv-x="580" 
d="M522 0h-146l12 90l-3 1q-50 -50 -94.5 -76.5t-96.5 -26.5q-150 0 -150 191q0 62 13.5 119.5t41.5 110t78.5 84t117.5 31.5q78 0 142 -56l16 46h84q-20 -79 -26 -123l-44 -315q-2 -12 0.5 -15.5t13.5 -4.5l49 -7zM394 181l30 215q-22 22 -56 38t-70 16q-44 0 -77.5 -26
t-51 -67.5t-26 -84t-8.5 -85.5q0 -121 86 -121q67 0 173 115zM300 668q0 -28 -17.5 -45.5t-46.5 -17.5q-23 0 -36 12.5t-13 33.5q0 27 17.5 45t46.5 18q23 0 36 -12.5t13 -33.5zM502 668q0 -28 -17.5 -45.5t-46.5 -17.5q-23 0 -36 12.5t-13 33.5q0 27 17.5 45t46.5 18
q23 0 36 -12.5t13 -33.5z" />
    <glyph glyph-name="aring" unicode="&#xe5;" horiz-adv-x="580" 
d="M522 0h-146l12 90l-3 1q-50 -50 -94.5 -76.5t-96.5 -26.5q-150 0 -150 191q0 62 13.5 119.5t41.5 110t78.5 84t117.5 31.5q78 0 142 -56l16 46h84q-20 -79 -26 -123l-44 -315q-2 -12 0.5 -15.5t13.5 -4.5l49 -7zM394 181l30 215q-22 22 -56 38t-70 16q-44 0 -77.5 -26
t-51 -67.5t-26 -84t-8.5 -85.5q0 -121 86 -121q67 0 173 115zM371 745q33 0 53.5 -18t20.5 -50q0 -42 -27 -71t-71 -29q-34 0 -54.5 18.5t-20.5 53.5q0 42 28 69t71 27zM354 622q20 0 31 14t11 34q0 30 -32 30q-20 0 -31 -14t-11 -34q0 -30 32 -30z" />
    <glyph glyph-name="ae" unicode="&#xe6;" horiz-adv-x="800" 
d="M721 98l18 -68q-84 -42 -182 -42q-132 0 -176 96q-99 -96 -187 -96q-150 0 -150 191q0 62 13.5 119.5t41.5 110t78.5 84t117.5 31.5q93 0 170 -75q83 75 182 75q68 0 101.5 -33t33.5 -87q0 -65 -47 -106q-74 -65 -282 -91q1 -73 26.5 -109.5t96.5 -36.5q67 0 145 37z
M419 397q-62 53 -121 53q-44 0 -77.5 -26t-51 -67.5t-26 -84t-8.5 -85.5q0 -121 86 -121q58 0 143 83q-3 21 -3 45q2 120 58 203zM460 271q24 4 32 5t35 6t40.5 9.5t37 11.5t36.5 16t27.5 20t21 25.5t6.5 31.5q0 55 -66 55q-64 0 -109.5 -52t-60.5 -128z" />
    <glyph glyph-name="ccedilla" unicode="&#xe7;" horiz-adv-x="488" 
d="M142 -229l12 52q14 -4 38 -4q29 0 51.5 13.5t22.5 41.5q0 42 -65 42l20 73q-177 16 -177 208q0 164 83.5 245.5t212.5 81.5q85 0 144 -31l-19 -133l-63 3l-3 66q0 11 -12 15q-22 8 -62 8q-78 0 -133 -60t-55 -184q0 -148 126 -148q80 0 146 36l22 -64q-58 -35 -151 -43
l-9 -33q64 -17 64 -77q0 -55 -40 -85t-97 -30q-32 0 -56 7z" />
    <glyph glyph-name="egrave" unicode="&#xe8;" horiz-adv-x="482" 
d="M403 98l17 -68q-82 -42 -180 -42q-196 0 -196 206q0 138 79 234t201 96q73 0 107 -33t34 -87q0 -164 -329 -200q0 -72 26.5 -107.5t97.5 -35.5q63 0 143 37zM142 272q237 29 237 127q0 52 -66 52q-64 0 -109.5 -51t-61.5 -128zM420 604l-45 -37l-156 141l69 60z" />
    <glyph glyph-name="eacute" unicode="&#xe9;" horiz-adv-x="482" 
d="M403 98l17 -68q-82 -42 -180 -42q-196 0 -196 206q0 138 79 234t201 96q73 0 107 -33t34 -87q0 -164 -329 -200q0 -72 26.5 -107.5t97.5 -35.5q63 0 143 37zM142 272q237 29 237 127q0 52 -66 52q-64 0 -109.5 -51t-61.5 -128zM456 700l-185 -133l-36 41l165 156z" />
    <glyph glyph-name="ecircumflex" unicode="&#xea;" horiz-adv-x="482" 
d="M403 98l17 -68q-82 -42 -180 -42q-196 0 -196 206q0 138 79 234t201 96q73 0 107 -33t34 -87q0 -164 -329 -200q0 -72 26.5 -107.5t97.5 -35.5q63 0 143 37zM142 272q237 29 237 127q0 52 -66 52q-64 0 -109.5 -51t-61.5 -128zM492 610l-50 -38l-110 101l-140 -101
l-39 38l145 123h84z" />
    <glyph glyph-name="edieresis" unicode="&#xeb;" horiz-adv-x="482" 
d="M403 98l17 -68q-82 -42 -180 -42q-196 0 -196 206q0 138 79 234t201 96q73 0 107 -33t34 -87q0 -164 -329 -200q0 -72 26.5 -107.5t97.5 -35.5q63 0 143 37zM142 272q237 29 237 127q0 52 -66 52q-64 0 -109.5 -51t-61.5 -128zM286 668q0 -28 -17.5 -45.5t-46.5 -17.5
q-23 0 -36 12.5t-13 33.5q0 27 17.5 45t46.5 18q23 0 36 -12.5t13 -33.5zM488 668q0 -28 -17.5 -45.5t-46.5 -17.5q-23 0 -36 12.5t-13 33.5q0 27 17.5 45t46.5 18q23 0 36 -12.5t13 -33.5z" />
    <glyph glyph-name="igrave" unicode="&#xec;" horiz-adv-x="295" 
d="M242 0h-169l-2 4l21 115l45 312q3 17 -11 21l-53 14l7 48h158l-62 -437q-2 -12 0.5 -15.5t13.5 -4.5l59 -8zM273 596l-45 -37l-156 141l69 60z" />
    <glyph glyph-name="iacute" unicode="&#xed;" horiz-adv-x="295" 
d="M242 0h-169l-2 4l21 115l45 312q3 17 -11 21l-53 14l7 48h158l-62 -437q-2 -12 0.5 -15.5t13.5 -4.5l59 -8zM295 692l-185 -133l-36 41l165 156z" />
    <glyph glyph-name="icircumflex" unicode="&#xee;" horiz-adv-x="295" 
d="M322 604l-50 -38l-100 101l-130 -101l-39 38l135 123h84zM242 0h-169l-2 4l21 115l45 312q3 17 -11 21l-53 14l7 48h158l-62 -437q-2 -12 0.5 -15.5t13.5 -4.5l59 -8z" />
    <glyph glyph-name="idieresis" unicode="&#xef;" horiz-adv-x="295" 
d="M140 646q0 -28 -17.5 -45.5t-46.5 -17.5q-23 0 -36 12.5t-13 33.5q0 27 17.5 45t46.5 18q23 0 36 -12.5t13 -33.5zM322 646q0 -28 -17.5 -45.5t-46.5 -17.5q-23 0 -36 12.5t-13 33.5q0 27 17.5 45t46.5 18q23 0 36 -12.5t13 -33.5zM242 0h-169l-2 4l21 115l45 312
q3 17 -11 21l-53 14l7 48h158l-62 -437q-2 -12 0.5 -15.5t13.5 -4.5l59 -8z" />
    <glyph glyph-name="eth" unicode="&#xf0;" horiz-adv-x="566" 
d="M560 699l-92 -48q74 -97 74 -256q0 -38 -4 -75.5t-14 -86.5t-31.5 -90.5t-52 -77.5t-79.5 -56.5t-111 -20.5q-103 0 -154.5 57.5t-51.5 159.5q0 128 72.5 212.5t197.5 84.5q79 0 138 -42q-16 94 -65 149l-108 -57l-32 59l85 45q-48 29 -119 43l37 68q101 -13 168 -66
l111 59zM451 373q-16 23 -53 40.5t-78 17.5q-88 0 -134 -63t-46 -163q0 -148 118 -148q50 0 87.5 26.5t59 73.5t32.5 100t14 116z" />
    <glyph glyph-name="ntilde" unicode="&#xf1;" horiz-adv-x="619" 
d="M567 0h-161l-2 2l19 121l28 201q6 44 6 62q0 59 -51 59q-40 0 -83 -27.5t-109 -86.5l-35 -254q-2 -12 0.5 -15.5t13.5 -4.5l62 -8l-7 -49h-233l7 50l48 7q11 2 14.5 5.5t4.5 14.5l48 352q3 18 -9 21l-53 16l7 48h151l-14 -99q41 35 66 53.5t66.5 37t78.5 18.5
q116 0 118 -120q0 -27 -5 -59l-38 -268q-2 -12 0.5 -15.5t12.5 -4.5l56 -8zM541 673l-28 -35q-40 -50 -70 -50q-17 0 -43 8q-25 6 -68 18t-50 14q-9 3 -17 -4l-44 -39l-38 30l35 44q34 42 66 42q17 0 41 -7q108 -30 119 -32q8 -3 16 4l40 37z" />
    <glyph glyph-name="ograve" unicode="&#xf2;" horiz-adv-x="559" 
d="M252 -12q-105 0 -156.5 55.5t-51.5 153.5q0 146 74.5 236.5t209.5 90.5q106 0 154.5 -57t48.5 -152q0 -152 -73 -239.5t-206 -87.5zM260 57q81 0 129.5 66t48.5 193q0 135 -120 135q-83 0 -132.5 -63.5t-49.5 -186.5q0 -144 124 -144zM432 604l-45 -37l-156 141l69 60z
" />
    <glyph glyph-name="oacute" unicode="&#xf3;" horiz-adv-x="559" 
d="M252 -12q-105 0 -156.5 55.5t-51.5 153.5q0 146 74.5 236.5t209.5 90.5q106 0 154.5 -57t48.5 -152q0 -152 -73 -239.5t-206 -87.5zM260 57q81 0 129.5 66t48.5 193q0 135 -120 135q-83 0 -132.5 -63.5t-49.5 -186.5q0 -144 124 -144zM468 700l-185 -133l-36 41l165 156z
" />
    <glyph glyph-name="ocircumflex" unicode="&#xf4;" horiz-adv-x="559" 
d="M252 -12q-105 0 -156.5 55.5t-51.5 153.5q0 146 74.5 236.5t209.5 90.5q106 0 154.5 -57t48.5 -152q0 -152 -73 -239.5t-206 -87.5zM260 57q81 0 129.5 66t48.5 193q0 135 -120 135q-83 0 -132.5 -63.5t-49.5 -186.5q0 -144 124 -144zM504 610l-50 -38l-110 101
l-140 -101l-39 38l145 123h84z" />
    <glyph glyph-name="otilde" unicode="&#xf5;" horiz-adv-x="559" 
d="M252 -12q-105 0 -156.5 55.5t-51.5 153.5q0 146 74.5 236.5t209.5 90.5q106 0 154.5 -57t48.5 -152q0 -152 -73 -239.5t-206 -87.5zM260 57q81 0 129.5 66t48.5 193q0 135 -120 135q-83 0 -132.5 -63.5t-49.5 -186.5q0 -144 124 -144zM514 673l-28 -35q-40 -50 -70 -50
q-17 0 -43 8q-25 6 -68 18t-50 14q-9 3 -17 -4l-44 -39l-38 30l35 44q34 42 66 42q17 0 41 -7q108 -30 119 -32q8 -3 16 4l40 37z" />
    <glyph glyph-name="odieresis" unicode="&#xf6;" horiz-adv-x="559" 
d="M252 -12q-105 0 -156.5 55.5t-51.5 153.5q0 146 74.5 236.5t209.5 90.5q106 0 154.5 -57t48.5 -152q0 -152 -73 -239.5t-206 -87.5zM260 57q81 0 129.5 66t48.5 193q0 135 -120 135q-83 0 -132.5 -63.5t-49.5 -186.5q0 -144 124 -144zM298 668q0 -28 -17.5 -45.5
t-46.5 -17.5q-23 0 -36 12.5t-13 33.5q0 27 17.5 45t46.5 18q23 0 36 -12.5t13 -33.5zM500 668q0 -28 -17.5 -45.5t-46.5 -17.5q-23 0 -36 12.5t-13 33.5q0 27 17.5 45t46.5 18q23 0 36 -12.5t13 -33.5z" />
    <glyph glyph-name="divide" unicode="&#xf7;" 
d="M337 177q0 -35 -19 -53.5t-54 -18.5q-57 0 -57 51q0 34 19.5 53t54.5 19q56 0 56 -51zM482 281h-377l12 80h377zM380 487q0 -72 -73 -72q-56 0 -56 51q0 35 19 53.5t54 18.5q56 0 56 -51z" />
    <glyph glyph-name="oslash" unicode="&#xf8;" horiz-adv-x="559" 
d="M125 -90h-83l69 119q-67 52 -67 168q0 146 74.5 236.5t209.5 90.5q35 0 67 -8l41 70h82l-58 -100q71 -53 71 -171q0 -152 -73 -239.5t-206 -87.5q-39 0 -76 10zM260 57q81 0 129.5 66t48.5 193q0 59 -24 92l-200 -345q21 -6 46 -6zM136 201q0 -58 21 -94l198 340
q-24 4 -37 4q-83 0 -132.5 -63.5t-49.5 -186.5z" />
    <glyph glyph-name="ugrave" unicode="&#xf9;" horiz-adv-x="617" 
d="M558 0h-153l15 99q-37 -32 -62.5 -51t-66 -39t-73.5 -20q-64 0 -95 28t-31 93q0 21 4 57l39 270q2 12 -0.5 15.5t-13.5 4.5l-52 8l8 49h154l3 -4l-45 -321q-5 -30 -5 -61t11.5 -44t41.5 -13q29 0 63 17.5t59 37t67 56.5l34 255q2 12 -0.5 15.5t-13.5 4.5l-58 8l7 49h163
l3 -4l-61 -434q-3 -17 9 -19l55 -9zM435 604l-45 -37l-156 141l69 60z" />
    <glyph glyph-name="uacute" unicode="&#xfa;" horiz-adv-x="617" 
d="M558 0h-153l15 99q-37 -32 -62.5 -51t-66 -39t-73.5 -20q-64 0 -95 28t-31 93q0 21 4 57l39 270q2 12 -0.5 15.5t-13.5 4.5l-52 8l8 49h154l3 -4l-45 -321q-5 -30 -5 -61t11.5 -44t41.5 -13q29 0 63 17.5t59 37t67 56.5l34 255q2 12 -0.5 15.5t-13.5 4.5l-58 8l7 49h163
l3 -4l-61 -434q-3 -17 9 -19l55 -9zM481 700l-185 -133l-36 41l165 156z" />
    <glyph glyph-name="ucircumflex" unicode="&#xfb;" horiz-adv-x="617" 
d="M558 0h-153l15 99q-37 -32 -62.5 -51t-66 -39t-73.5 -20q-64 0 -95 28t-31 93q0 21 4 57l39 270q2 12 -0.5 15.5t-13.5 4.5l-52 8l8 49h154l3 -4l-45 -321q-5 -30 -5 -61t11.5 -44t41.5 -13q29 0 63 17.5t59 37t67 56.5l34 255q2 12 -0.5 15.5t-13.5 4.5l-58 8l7 49h163
l3 -4l-61 -434q-3 -17 9 -19l55 -9zM517 610l-50 -38l-110 101l-140 -101l-39 38l145 123h84z" />
    <glyph glyph-name="udieresis" unicode="&#xfc;" horiz-adv-x="617" 
d="M558 0h-153l15 99q-37 -32 -62.5 -51t-66 -39t-73.5 -20q-64 0 -95 28t-31 93q0 21 4 57l39 270q2 12 -0.5 15.5t-13.5 4.5l-52 8l8 49h154l3 -4l-45 -321q-5 -30 -5 -61t11.5 -44t41.5 -13q29 0 63 17.5t59 37t67 56.5l34 255q2 12 -0.5 15.5t-13.5 4.5l-58 8l7 49h163
l3 -4l-61 -434q-3 -17 9 -19l55 -9zM311 668q0 -28 -17.5 -45.5t-46.5 -17.5q-23 0 -36 12.5t-13 33.5q0 27 17.5 45t46.5 18q23 0 36 -12.5t13 -33.5zM513 668q0 -28 -17.5 -45.5t-46.5 -17.5q-23 0 -36 12.5t-13 33.5q0 27 17.5 45t46.5 18q23 0 36 -12.5t13 -33.5z" />
    <glyph glyph-name="yacute" unicode="&#xfd;" horiz-adv-x="528" 
d="M161 -56l38 71l-108 425q-3 13 -17 17l-41 9l9 48h130l5 -6l23 -126l60 -259l166 333l-62 10l6 48h159l7 -14l-296 -577q-41 -79 -80.5 -112.5t-106.5 -33.5q-41 0 -77.5 14.5t-51.5 29.5l37 57q42 -29 90 -29q38 0 60.5 22.5t49.5 72.5zM437 700l-185 -133l-36 41
l165 156z" />
    <glyph glyph-name="thorn" unicode="&#xfe;" horiz-adv-x="579" 
d="M234 -212h-198l-3 4l15 78l114 800q2 18 -10 21l-53 16l7 48h155l-48 -334q114 103 197 103q65 0 103 -47t38 -148q0 -49 -8 -96t-27 -92t-46 -78.5t-69.5 -54t-93.5 -20.5q-83 0 -142 59h-4l-24 -179q-1 -12 1 -15t12 -4l92 -8zM202 333l-29 -206q58 -66 124 -66
q56 0 94 43t52.5 98t14.5 115q0 126 -77 126q-66 0 -179 -110z" />
    <glyph glyph-name="ydieresis" unicode="&#xff;" horiz-adv-x="528" 
d="M161 -56l38 71l-108 425q-3 13 -17 17l-41 9l9 48h130l5 -6l23 -126l60 -259l166 333l-62 10l6 48h159l7 -14l-296 -577q-41 -79 -80.5 -112.5t-106.5 -33.5q-41 0 -77.5 14.5t-51.5 29.5l37 57q42 -29 90 -29q38 0 60.5 22.5t49.5 72.5zM267 668q0 -28 -17.5 -45.5
t-46.5 -17.5q-23 0 -36 12.5t-13 33.5q0 27 17.5 45t46.5 18q23 0 36 -12.5t13 -33.5zM469 668q0 -28 -17.5 -45.5t-46.5 -17.5q-23 0 -36 12.5t-13 33.5q0 27 17.5 45t46.5 18q23 0 36 -12.5t13 -33.5z" />
    <glyph glyph-name="Amacron" unicode="&#x100;" horiz-adv-x="699" 
d="M669 0h-241l7 47l85 9l-31 165h-274l-75 -165l77 -9l-8 -47h-223l7 47l43 11q20 5 29 23l302 643h113l132 -649q3 -13 21 -17l43 -11zM477 294l-68 349l-162 -349h230zM589 794h-307l9 69h307z" />
    <glyph glyph-name="amacron" unicode="&#x101;" horiz-adv-x="580" 
d="M522 0h-146l12 90l-3 1q-50 -50 -94.5 -76.5t-96.5 -26.5q-150 0 -150 191q0 62 13.5 119.5t41.5 110t78.5 84t117.5 31.5q78 0 142 -56l16 46h84q-20 -79 -26 -123l-44 -315q-2 -12 0.5 -15.5t13.5 -4.5l49 -7zM394 181l30 215q-22 22 -56 38t-70 16q-44 0 -77.5 -26
t-51 -67.5t-26 -84t-8.5 -85.5q0 -121 86 -121q67 0 173 115zM499 611h-307l10 69h307z" />
    <glyph glyph-name="Abreve" unicode="&#x102;" horiz-adv-x="699" 
d="M669 0h-241l7 47l85 9l-31 165h-274l-75 -165l77 -9l-8 -47h-223l7 47l43 11q20 5 29 23l302 643h113l132 -649q3 -13 21 -17l43 -11zM477 294l-68 349l-162 -349h230zM545 920l55 -21q-47 -117 -167 -117q-128 0 -144 117l58 20q16 -72 89 -72q35 0 61.5 15t47.5 58z
" />
    <glyph glyph-name="abreve" unicode="&#x103;" horiz-adv-x="580" 
d="M522 0h-146l12 90l-3 1q-50 -50 -94.5 -76.5t-96.5 -26.5q-150 0 -150 191q0 62 13.5 119.5t41.5 110t78.5 84t117.5 31.5q78 0 142 -56l16 46h84q-20 -79 -26 -123l-44 -315q-2 -12 0.5 -15.5t13.5 -4.5l49 -7zM394 181l30 215q-22 22 -56 38t-70 16q-44 0 -77.5 -26
t-51 -67.5t-26 -84t-8.5 -85.5q0 -121 86 -121q67 0 173 115zM471 728l54 -22q-55 -133 -185 -133q-133 0 -149 133l58 22q17 -90 99 -90q42 0 71 21.5t52 68.5z" />
    <glyph glyph-name="Aogonek" unicode="&#x104;" horiz-adv-x="699" 
d="M572 -140l12 -56q-49 -22 -96 -22q-80 0 -80 64q0 74 109 154h-89l7 47l85 9l-31 165h-274l-75 -165l77 -9l-8 -47h-223l7 47l43 11q20 5 29 23l302 643h113l132 -649q3 -13 21 -17l43 -11l-7 -47h-74q-100 -76 -100 -126q0 -26 26 -26q20 0 51 12zM477 294l-68 349
l-162 -349h230z" />
    <glyph glyph-name="aogonek" unicode="&#x105;" horiz-adv-x="580" 
d="M478 -140l12 -56q-49 -22 -96 -22q-80 0 -80 64q0 79 115 154h-53l12 90l-3 1q-50 -50 -94.5 -76.5t-96.5 -26.5q-150 0 -150 191q0 62 13.5 119.5t41.5 110t78.5 84t117.5 31.5q78 0 142 -56l16 46h84q-20 -79 -26 -123l-44 -315q-2 -12 0.5 -15.5t13.5 -4.5l49 -7
l-8 -49q-46 -21 -83.5 -57t-37.5 -69q0 -26 26 -26q20 0 51 12zM394 181l30 215q-22 22 -56 38t-70 16q-44 0 -77.5 -26t-51 -67.5t-26 -84t-8.5 -85.5q0 -121 86 -121q67 0 173 115z" />
    <glyph glyph-name="Cacute" unicode="&#x106;" horiz-adv-x="662" 
d="M616 192l-21 -151q-85 -53 -243 -53q-147 0 -218 83.5t-71 227.5q0 196 107 317t302 121q136 0 210 -54l-22 -160l-66 4l-4 96q0 15 -11 19q-52 20 -117 20q-135 0 -219 -94t-84 -261q0 -120 53 -182.5t157 -62.5q91 0 141 22q10 4 14 17l29 91h63zM600 866l-216 -100
l-25 48l204 127z" />
    <glyph glyph-name="cacute" unicode="&#x107;" horiz-adv-x="488" 
d="M409 96l22 -64q-31 -19 -82 -31.5t-99 -12.5q-105 0 -155.5 55.5t-50.5 153.5q0 164 83.5 245.5t212.5 81.5q85 0 144 -31l-19 -133l-63 3l-3 66q0 11 -12 15q-22 8 -62 8q-78 0 -133 -60t-55 -184q0 -148 126 -148q80 0 146 36zM474 700l-185 -133l-36 41l165 156z" />
    <glyph glyph-name="Ccircumflex" unicode="&#x108;" horiz-adv-x="662" 
d="M616 192l-21 -151q-85 -53 -243 -53q-147 0 -218 83.5t-71 227.5q0 196 107 317t302 121q136 0 210 -54l-22 -160l-66 4l-4 96q0 15 -11 19q-52 20 -117 20q-135 0 -219 -94t-84 -261q0 -120 53 -182.5t157 -62.5q91 0 141 22q10 4 14 17l29 91h63zM624 807l-46 -41
l-107 83l-131 -83l-35 41l131 102h84z" />
    <glyph glyph-name="ccircumflex" unicode="&#x109;" horiz-adv-x="488" 
d="M409 96l22 -64q-31 -19 -82 -31.5t-99 -12.5q-105 0 -155.5 55.5t-50.5 153.5q0 164 83.5 245.5t212.5 81.5q85 0 144 -31l-19 -133l-63 3l-3 66q0 11 -12 15q-22 8 -62 8q-78 0 -133 -60t-55 -184q0 -148 126 -148q80 0 146 36zM505 610l-50 -38l-110 101l-140 -101
l-39 38l145 123h84z" />
    <glyph glyph-name="Cdotaccent" unicode="&#x10a;" horiz-adv-x="662" 
d="M616 192l-21 -151q-85 -53 -243 -53q-147 0 -218 83.5t-71 227.5q0 196 107 317t302 121q136 0 210 -54l-22 -160l-66 4l-4 96q0 15 -11 19q-52 20 -117 20q-135 0 -219 -94t-84 -261q0 -120 53 -182.5t157 -62.5q91 0 141 22q10 4 14 17l29 91h63zM536 856
q0 -33 -20 -53.5t-54 -20.5q-27 0 -42 14t-15 39q0 33 20 53t55 20q56 0 56 -52z" />
    <glyph glyph-name="cdotaccent" unicode="&#x10b;" horiz-adv-x="488" 
d="M409 96l22 -64q-31 -19 -82 -31.5t-99 -12.5q-105 0 -155.5 55.5t-50.5 153.5q0 164 83.5 245.5t212.5 81.5q85 0 144 -31l-19 -133l-63 3l-3 66q0 11 -12 15q-22 8 -62 8q-78 0 -133 -60t-55 -184q0 -148 126 -148q80 0 146 36zM416 702q0 -32 -19.5 -54t-54.5 -22
q-56 0 -56 51q0 34 18.5 55t55.5 21q56 0 56 -51z" />
    <glyph glyph-name="Ccaron" unicode="&#x10c;" horiz-adv-x="662" 
d="M616 192l-21 -151q-85 -53 -243 -53q-147 0 -218 83.5t-71 227.5q0 196 107 317t302 121q136 0 210 -54l-22 -160l-66 4l-4 96q0 15 -11 19q-52 20 -117 20q-135 0 -219 -94t-84 -261q0 -120 53 -182.5t157 -62.5q91 0 141 22q10 4 14 17l29 91h63zM632 879l-131 -102
h-84l-104 102l46 41l107 -83l130 83z" />
    <glyph glyph-name="ccaron" unicode="&#x10d;" horiz-adv-x="488" 
d="M409 96l22 -64q-31 -19 -82 -31.5t-99 -12.5q-105 0 -155.5 55.5t-50.5 153.5q0 164 83.5 245.5t212.5 81.5q85 0 144 -31l-19 -133l-63 3l-3 66q0 11 -12 15q-22 8 -62 8q-78 0 -133 -60t-55 -184q0 -148 126 -148q80 0 146 36zM520 702l-146 -123h-84l-108 122l49 39
l109 -101l141 101z" />
    <glyph glyph-name="Dcaron" unicode="&#x10e;" horiz-adv-x="752" 
d="M314 0h-279l8 50l62 7q9 1 12.5 4.5t4.5 13.5l80 573q2 11 -0.5 15t-12.5 5l-61 7l7 49h293q156 0 232.5 -78t76.5 -217q0 -195 -106.5 -312t-316.5 -117zM213 71h107q155 0 239 95t84 260q0 122 -61.5 174.5t-179.5 52.5h-109zM589 879l-131 -102h-84l-104 102l46 41
l107 -83l130 83z" />
    <glyph glyph-name="dcaron" unicode="&#x10f;" horiz-adv-x="648" 
d="M523 0h-147l12 89l-3 2q-50 -49 -93.5 -76t-95.5 -27q-73 0 -112.5 47.5t-39.5 142.5q0 59 13 116.5t40 110.5t78 86t118 33q79 0 143 -52l27 201q1 16 -10 20l-54 14l7 48h156l-95 -679q-2 -12 0.5 -15.5t13.5 -4.5l49 -7zM395 182l30 214q-21 22 -56 38t-70 16
q-45 0 -78.5 -26t-51.5 -68t-26 -85.5t-8 -87.5q0 -117 85 -117q68 0 175 116zM639 552l-44 18q35 74 35 121q0 18 -8 42l69 32q22 -25 22 -45q0 -25 -14 -58q-16 -36 -60 -110z" />
    <glyph glyph-name="Dcroat" unicode="&#x110;" horiz-adv-x="757" 
d="M319 0h-279l8 50l62 7q9 1 12.5 4.5t4.5 13.5l36 257h-94l9 71h95l34 245q2 11 -0.5 15t-12.5 5l-61 7l7 49h293q156 0 232.5 -78t76.5 -217q0 -195 -106.5 -312t-316.5 -117zM218 71h107q155 0 239 95t84 260q0 122 -61.5 174.5t-179.5 52.5h-109l-35 -250h188l-10 -71
h-187z" />
    <glyph glyph-name="dcroat" unicode="&#x111;" horiz-adv-x="584" 
d="M523 0h-147l12 89l-3 2q-50 -49 -93.5 -76t-95.5 -27q-73 0 -112.5 47.5t-39.5 142.5q0 46 7 90t25 87.5t45.5 76t70.5 52.5t98 20q79 0 143 -52l15 115h-186l8 62h187l6 44q1 16 -10 20l-54 14l7 48h156l-18 -126h67l-8 -62h-68l-68 -491q-2 -12 0.5 -15.5t13.5 -4.5
l49 -7zM395 182l27 194q-21 22 -56 38t-70 16q-45 0 -78 -23t-50.5 -61t-25 -78.5t-7.5 -84.5q0 -117 85 -117q68 0 175 116z" />
    <glyph glyph-name="Emacron" unicode="&#x112;" horiz-adv-x="616" 
d="M549 0h-513l6 49l63 7q10 1 13 5t5 15l79 571q2 12 -0.5 15.5t-12.5 4.5l-60 7l6 50h492l-23 -165l-62 4l-3 77q-1 13 -16 13h-230l-34 -252h261l-10 -72h-262l-35 -258h252q14 0 17 11l28 87h62zM563 794h-307l9 69h307z" />
    <glyph glyph-name="emacron" unicode="&#x113;" horiz-adv-x="482" 
d="M403 98l17 -68q-82 -42 -180 -42q-196 0 -196 206q0 138 79 234t201 96q73 0 107 -33t34 -87q0 -164 -329 -200q0 -72 26.5 -107.5t97.5 -35.5q63 0 143 37zM142 272q237 29 237 127q0 52 -66 52q-64 0 -109.5 -51t-61.5 -128zM485 611h-307l10 69h307z" />
    <glyph glyph-name="Ebreve" unicode="&#x114;" horiz-adv-x="616" 
d="M549 0h-513l6 49l63 7q10 1 13 5t5 15l79 571q2 12 -0.5 15.5t-12.5 4.5l-60 7l6 50h492l-23 -165l-62 4l-3 77q-1 13 -16 13h-230l-34 -252h261l-10 -72h-262l-35 -258h252q14 0 17 11l28 87h62zM519 920l55 -21q-47 -117 -167 -117q-128 0 -144 117l58 20
q16 -72 89 -72q35 0 61.5 15t47.5 58z" />
    <glyph glyph-name="ebreve" unicode="&#x115;" horiz-adv-x="482" 
d="M403 98l17 -68q-82 -42 -180 -42q-196 0 -196 206q0 138 79 234t201 96q73 0 107 -33t34 -87q0 -164 -329 -200q0 -72 26.5 -107.5t97.5 -35.5q63 0 143 37zM142 272q237 29 237 127q0 52 -66 52q-64 0 -109.5 -51t-61.5 -128zM457 728l54 -22q-55 -133 -185 -133
q-133 0 -149 133l58 22q17 -90 99 -90q42 0 71 21.5t52 68.5z" />
    <glyph glyph-name="Edotaccent" unicode="&#x116;" horiz-adv-x="616" 
d="M549 0h-513l6 49l63 7q10 1 13 5t5 15l79 571q2 12 -0.5 15.5t-12.5 4.5l-60 7l6 50h492l-23 -165l-62 4l-3 77q-1 13 -16 13h-230l-34 -252h261l-10 -72h-262l-35 -258h252q14 0 17 11l28 87h62zM481 856q0 -33 -20 -53.5t-54 -20.5q-27 0 -42 14t-15 39q0 33 20 53
t55 20q56 0 56 -52z" />
    <glyph glyph-name="edotaccent" unicode="&#x117;" horiz-adv-x="482" 
d="M403 98l17 -68q-82 -42 -180 -42q-196 0 -196 206q0 138 79 234t201 96q73 0 107 -33t34 -87q0 -164 -329 -200q0 -72 26.5 -107.5t97.5 -35.5q63 0 143 37zM142 272q237 29 237 127q0 52 -66 52q-64 0 -109.5 -51t-61.5 -128zM404 702q0 -32 -19.5 -54t-54.5 -22
q-56 0 -56 51q0 34 18.5 55t55.5 21q56 0 56 -51z" />
    <glyph glyph-name="Eogonek" unicode="&#x118;" horiz-adv-x="616" 
d="M505 -140l12 -56q-49 -22 -96 -22q-80 0 -80 64q0 77 113 154h-418l6 49l63 7q10 1 13 5t5 15l79 571q2 12 -0.5 15.5t-12.5 4.5l-60 7l6 50h492l-23 -165l-62 4l-3 77q-1 13 -16 13h-230l-34 -252h261l-10 -72h-262l-35 -258h252q14 0 17 11l28 87h62l-23 -169
q-46 -21 -83.5 -57t-37.5 -69q0 -26 26 -26q20 0 51 12z" />
    <glyph glyph-name="eogonek" unicode="&#x119;" horiz-adv-x="482" 
d="M322 -140l12 -56q-49 -22 -96 -22q-80 0 -80 64q0 71 93 142h-11q-196 0 -196 206q0 138 79 234t201 96q73 0 107 -33t34 -87q0 -164 -329 -200q0 -72 26.5 -107.5t97.5 -35.5q63 0 143 37l17 -68q-9 -5 -32.5 -16.5t-35.5 -18.5q-40 -23 -73.5 -55.5t-33.5 -65.5
q0 -26 26 -26q20 0 51 12zM142 272q237 29 237 127q0 52 -66 52q-64 0 -109.5 -51t-61.5 -128z" />
    <glyph glyph-name="Ecaron" unicode="&#x11a;" horiz-adv-x="616" 
d="M549 0h-513l6 49l63 7q10 1 13 5t5 15l79 571q2 12 -0.5 15.5t-12.5 4.5l-60 7l6 50h492l-23 -165l-62 4l-3 77q-1 13 -16 13h-230l-34 -252h261l-10 -72h-262l-35 -258h252q14 0 17 11l28 87h62zM573 879l-131 -102h-84l-104 102l46 41l107 -83l130 83z" />
    <glyph glyph-name="ecaron" unicode="&#x11b;" horiz-adv-x="482" 
d="M403 98l17 -68q-82 -42 -180 -42q-196 0 -196 206q0 138 79 234t201 96q73 0 107 -33t34 -87q0 -164 -329 -200q0 -72 26.5 -107.5t97.5 -35.5q63 0 143 37zM142 272q237 29 237 127q0 52 -66 52q-64 0 -109.5 -51t-61.5 -128zM512 702l-146 -123h-84l-108 122l49 39
l109 -101l141 101z" />
    <glyph glyph-name="Gcircumflex" unicode="&#x11c;" horiz-adv-x="715" 
d="M711 282l-41 -4q-17 -1 -18 -14l-32 -235q-89 -41 -242 -41q-163 0 -239.5 85t-76.5 228q0 192 107 314t302 122q63 0 120.5 -14.5t90.5 -39.5l-21 -159l-66 5l-4 92q0 15 -11 19q-57 22 -124 22q-134 0 -216.5 -95t-82.5 -257q0 -122 59 -184.5t172 -62.5q80 0 137 16
q13 4 15 17l24 176h-133l20 65h268zM624 807l-46 -41l-107 83l-131 -83l-35 41l131 102h84z" />
    <glyph glyph-name="gcircumflex" unicode="&#x11d;" 
d="M369 -28l18 122q-48 -48 -93.5 -76t-97.5 -28q-152 0 -152 189q0 60 13 117t40 110t78 85.5t118 32.5q81 0 145 -56l16 46h84q-22 -88 -28 -131l-56 -417q-13 -95 -70.5 -142t-148.5 -47q-62 0 -114.5 13.5t-80.5 30.5l33 65q19 -12 62 -25.5t90 -13.5q126 0 144 125z
M395 182l30 213q-21 23 -56 39t-71 16q-45 0 -78.5 -26t-51 -68t-25.5 -85t-8 -86q0 -117 85 -117q70 0 175 114zM499 610l-50 -38l-110 101l-140 -101l-39 38l145 123h84z" />
    <glyph glyph-name="Gbreve" unicode="&#x11e;" horiz-adv-x="715" 
d="M711 282l-41 -4q-17 -1 -18 -14l-32 -235q-89 -41 -242 -41q-163 0 -239.5 85t-76.5 228q0 192 107 314t302 122q63 0 120.5 -14.5t90.5 -39.5l-21 -159l-66 5l-4 92q0 15 -11 19q-57 22 -124 22q-134 0 -216.5 -95t-82.5 -257q0 -122 59 -184.5t172 -62.5q80 0 137 16
q13 4 15 17l24 176h-133l20 65h268zM578 920l55 -21q-47 -117 -167 -117q-128 0 -144 117l58 20q16 -72 89 -72t109 73z" />
    <glyph glyph-name="gbreve" unicode="&#x11f;" 
d="M369 -28l18 122q-48 -48 -93.5 -76t-97.5 -28q-152 0 -152 189q0 60 13 117t40 110t78 85.5t118 32.5q81 0 145 -56l16 46h84q-22 -88 -28 -131l-56 -417q-13 -95 -70.5 -142t-148.5 -47q-62 0 -114.5 13.5t-80.5 30.5l33 65q19 -12 62 -25.5t90 -13.5q126 0 144 125z
M395 182l30 213q-21 23 -56 39t-71 16q-45 0 -78.5 -26t-51 -68t-25.5 -85t-8 -86q0 -117 85 -117q70 0 175 114zM453 728l54 -22q-55 -133 -185 -133q-133 0 -149 133l58 22q17 -90 99 -90q42 0 71 21.5t52 68.5z" />
    <glyph glyph-name="Gdotaccent" unicode="&#x120;" horiz-adv-x="715" 
d="M711 282l-41 -4q-17 -1 -18 -14l-32 -235q-89 -41 -242 -41q-163 0 -239.5 85t-76.5 228q0 192 107 314t302 122q63 0 120.5 -14.5t90.5 -39.5l-21 -159l-66 5l-4 92q0 15 -11 19q-57 22 -124 22q-134 0 -216.5 -95t-82.5 -257q0 -122 59 -184.5t172 -62.5q80 0 137 16
q13 4 15 17l24 176h-133l20 65h268zM540 856q0 -33 -20 -53.5t-54 -20.5q-27 0 -42 14t-15 39q0 33 20 53t55 20q56 0 56 -52z" />
    <glyph glyph-name="gdotaccent" unicode="&#x121;" 
d="M369 -28l18 122q-48 -48 -93.5 -76t-97.5 -28q-152 0 -152 189q0 60 13 117t40 110t78 85.5t118 32.5q81 0 145 -56l16 46h84q-22 -88 -28 -131l-56 -417q-13 -95 -70.5 -142t-148.5 -47q-62 0 -114.5 13.5t-80.5 30.5l33 65q19 -12 62 -25.5t90 -13.5q126 0 144 125z
M395 182l30 213q-21 23 -56 39t-71 16q-45 0 -78.5 -26t-51 -68t-25.5 -85t-8 -86q0 -117 85 -117q70 0 175 114zM402 702q0 -32 -19.5 -54t-54.5 -22q-56 0 -56 51q0 34 18.5 55t55.5 21q56 0 56 -51z" />
    <glyph glyph-name="Gcommaaccent" unicode="&#x122;" horiz-adv-x="715" 
d="M711 282l-41 -4q-17 -1 -18 -14l-32 -235q-89 -41 -242 -41q-163 0 -239.5 85t-76.5 228q0 192 107 314t302 122q63 0 120.5 -14.5t90.5 -39.5l-21 -159l-66 5l-4 92q0 15 -11 19q-57 22 -124 22q-134 0 -216.5 -95t-82.5 -257q0 -122 59 -184.5t172 -62.5q80 0 137 16
q13 4 15 17l24 176h-133l20 65h268zM334 -268l-43 16l34 88q3 7 -3 10l-32 14l32 80q50 -2 74 -12.5t24 -41.5q0 -26 -25 -63z" />
    <glyph glyph-name="gcommaaccent" unicode="&#x123;" 
d="M369 -28l18 122q-48 -48 -93.5 -76t-97.5 -28q-152 0 -152 189q0 60 13 117t40 110t78 85.5t118 32.5q81 0 145 -56l16 46h84q-22 -88 -28 -131l-56 -417q-13 -95 -70.5 -142t-148.5 -47q-62 0 -114.5 13.5t-80.5 30.5l33 65q19 -12 62 -25.5t90 -13.5q126 0 144 125z
M395 182l30 213q-21 23 -56 39t-71 16q-45 0 -78.5 -26t-51 -68t-25.5 -85t-8 -86q0 -117 85 -117q70 0 175 114zM397 646l-32 -80q-50 2 -74 12.5t-24 41.5q0 26 25 63l61 91l43 -16l-34 -88q-3 -7 3 -10z" />
    <glyph glyph-name="Hcircumflex" unicode="&#x124;" horiz-adv-x="792" 
d="M712 0h-249l8 49l62 7q10 1 13 5t5 15l36 261h-336l-38 -260q-2 -12 0.5 -15.5t12.5 -4.5l65 -8l-7 -49h-249l7 49l63 7q10 1 13 5t5 15l80 572q2 12 -0.5 15.5t-12.5 4.5l-60 7l6 49h249l-7 -49l-67 -8q-11 -2 -14 -5t-4 -14l-32 -239h336l34 239q2 12 -0.5 15.5
t-11.5 4.5l-61 7l5 49h249l-6 -49l-66 -8q-11 -1 -14.5 -4.5t-4.5 -14.5l-79 -571q-2 -12 0 -15.5t12 -4.5l65 -8zM644 807l-46 -41l-107 83l-131 -83l-35 41l131 102h84z" />
    <glyph glyph-name="hcircumflex" unicode="&#x125;" horiz-adv-x="618" 
d="M565 0h-163l-2 3l18 99l31 222q5 30 5 59q0 63 -47 63q-64 0 -195 -115l-35 -254q-2 -12 0.5 -15.5t13.5 -4.5l62 -8l-7 -49h-233l7 50l49 7q11 2 14.5 5t4.5 15l83 594q3 18 -9 21l-54 15l7 48h155l-48 -338q41 34 65.5 52.5t65.5 36.5t78 18q113 0 115 -117
q0 -29 -5 -62l-38 -268q-2 -12 0.5 -15.5t13.5 -4.5l55 -8zM370 827l-46 -41l-107 83l-131 -83l-35 41l131 102h84z" />
    <glyph glyph-name="Hbar" unicode="&#x126;" horiz-adv-x="792" 
d="M712 0h-249l8 49l62 7q10 1 13 5t5 15l36 261h-336l-38 -260q-2 -12 0.5 -15.5t12.5 -4.5l65 -8l-7 -49h-249l7 49l63 7q10 1 13 5t5 15l62 443h-73l9 58h72l10 71q2 12 -0.5 15.5t-12.5 4.5l-60 7l6 49h249l-7 -49l-67 -8q-11 -2 -14 -5t-4 -14l-10 -71h338l10 71
q2 12 -0.5 15.5t-11.5 4.5l-61 7l5 49h249l-6 -49l-66 -8q-11 -1 -14.5 -4.5t-4.5 -14.5l-10 -71h71l-9 -58h-70l-61 -442q-2 -12 0 -15.5t12 -4.5l65 -8zM261 409h336l15 110h-337z" />
    <glyph glyph-name="hbar" unicode="&#x127;" horiz-adv-x="617" 
d="M565 0h-163l-2 2l18 100l28 202q5 30 5 59q0 58 -47 58q-34 0 -70.5 -18t-58 -35t-66.5 -57l-32 -234q-2 -12 0.5 -15.5t13.5 -4.5l62 -8l-7 -49h-233l7 50l49 7q11 2 14.5 5t4.5 15l68 490h-67l9 65h67l6 39q3 18 -9 21l-54 15l7 48h155l-18 -123h187l-9 -65h-187
l-24 -171q36 30 53.5 43.5t46 32t54.5 25.5t55 7q113 0 115 -117q0 -29 -5 -62l-35 -248q-2 -12 0.5 -15.5t13.5 -4.5l55 -8z" />
    <glyph glyph-name="Itilde" unicode="&#x128;" horiz-adv-x="364" 
d="M295 0h-268l5 49l73 7q10 1 13 4.5t5 15.5l80 572q2 12 -0.5 15.5t-12.5 4.5l-70 7l6 49h268l-6 -49l-76 -8q-11 -1 -13.5 -4t-4.5 -15l-81 -571q-2 -12 0 -15.5t13 -4.5l74 -8zM452 866l-28 -34q-40 -50 -71 -50q-15 0 -43 7l-116 31q-10 3 -16 -3l-45 -39l-39 31l35 44
q32 41 67 41q15 0 31 -4l123 -33q14 -4 22 3l39 37z" />
    <glyph glyph-name="itilde" unicode="&#x129;" horiz-adv-x="295" 
d="M339 661l-28 -35q-40 -50 -70 -50q-17 0 -43 8q-24 8 -53.5 18.5t-38.5 13.5t-17 -4l-44 -39l-38 30l35 44q34 42 66 42q17 0 41 -7q22 -7 53.5 -18t39.5 -14t16 4l40 37zM242 0h-169l-2 4l21 115l45 312q3 17 -11 21l-53 14l7 48h158l-62 -437q-2 -12 0.5 -15.5
t13.5 -4.5l59 -8z" />
    <glyph glyph-name="Imacron" unicode="&#x12a;" horiz-adv-x="364" 
d="M295 0h-268l5 49l73 7q10 1 13 4.5t5 15.5l80 572q2 12 -0.5 15.5t-12.5 4.5l-70 7l6 49h268l-6 -49l-76 -8q-11 -1 -13.5 -4t-4.5 -15l-81 -571q-2 -12 0 -15.5t13 -4.5l74 -8zM425 794h-307l9 69h307z" />
    <glyph glyph-name="imacron" unicode="&#x12b;" horiz-adv-x="295" 
d="M308 596h-277l10 69h277zM242 0h-169l-2 4l21 115l45 312q3 17 -11 21l-53 14l7 48h158l-62 -437q-2 -12 0.5 -15.5t13.5 -4.5l59 -8z" />
    <glyph glyph-name="Ibreve" unicode="&#x12c;" horiz-adv-x="364" 
d="M295 0h-268l5 49l73 7q10 1 13 4.5t5 15.5l80 572q2 12 -0.5 15.5t-12.5 4.5l-70 7l6 49h268l-6 -49l-76 -8q-11 -1 -13.5 -4t-4.5 -15l-81 -571q-2 -12 0 -15.5t13 -4.5l74 -8zM381 920l55 -21q-47 -117 -167 -117q-128 0 -144 117l58 20q16 -72 89 -72q35 0 61.5 15
t47.5 58z" />
    <glyph glyph-name="ibreve" unicode="&#x12d;" horiz-adv-x="295" 
d="M284 723l54 -22q-52 -133 -172 -133q-121 0 -136 133l58 22q8 -47 28.5 -68.5t57.5 -21.5q38 0 63.5 21.5t46.5 68.5zM242 0h-169l-2 4l21 115l45 312q3 17 -11 21l-53 14l7 48h158l-62 -437q-2 -12 0.5 -15.5t13.5 -4.5l59 -8z" />
    <glyph glyph-name="Iogonek" unicode="&#x12e;" horiz-adv-x="364" 
d="M211 -140l12 -56q-49 -22 -96 -22q-80 0 -80 64q0 74 109 154h-129l5 49l73 7q10 1 13 4.5t5 15.5l80 572q2 12 -0.5 15.5t-12.5 4.5l-70 7l6 49h268l-6 -49l-76 -8q-11 -1 -13.5 -4t-4.5 -15l-81 -571q-2 -12 0 -15.5t13 -4.5l74 -8l-5 -49h-61q-100 -76 -100 -126
q0 -26 26 -26q20 0 51 12z" />
    <glyph glyph-name="iogonek" unicode="&#x12f;" horiz-adv-x="295" 
d="M194 -140l12 -56q-49 -22 -96 -22q-80 0 -80 64q0 83 114 154h-71l-2 4l21 115l45 312q3 17 -11 21l-53 14l7 48h157l-61 -437q-2 -12 0.5 -15.5t13.5 -4.5l59 -8l-7 -49q-47 -21 -86 -58t-39 -68q0 -26 26 -26q20 0 51 12zM192 625q-26 0 -41 14t-15 39q0 33 20 53.5
t54 20.5q27 0 41.5 -14t14.5 -39q0 -32 -20 -53t-54 -21z" />
    <glyph glyph-name="Idotaccent" unicode="&#x130;" horiz-adv-x="364" 
d="M295 0h-268l5 49l73 7q10 1 13 4.5t5 15.5l80 572q2 12 -0.5 15.5t-12.5 4.5l-70 7l6 49h268l-6 -49l-76 -8q-11 -1 -13.5 -4t-4.5 -15l-81 -571q-2 -12 0 -15.5t13 -4.5l74 -8zM343 856q0 -33 -20 -53.5t-54 -20.5q-27 0 -42 14t-15 39q0 33 20 53t55 20q56 0 56 -52z
" />
    <glyph glyph-name="dotlessi" unicode="&#x131;" horiz-adv-x="295" 
d="M242 0h-169l-2 4l21 115l45 312q3 17 -11 21l-53 14l7 48h158l-62 -437q-2 -12 0.5 -15.5t13.5 -4.5l59 -8z" />
    <glyph glyph-name="IJ" unicode="&#x132;" horiz-adv-x="848" 
d="M295 0h-268l5 49l73 7q10 1 13 4.5t5 15.5l80 572q2 12 -0.5 15.5t-12.5 4.5l-70 7l6 49h268l-6 -49l-76 -8q-11 -1 -13.5 -4t-4.5 -15l-81 -571q-2 -12 0 -15.5t13 -4.5l74 -8zM637 153l69 496q2 11 -0.5 14.5t-12.5 4.5l-83 7l7 49h271l-7 -49l-67 -8q-7 -1 -10 -2.5
t-4.5 -4.5t-2.5 -11l-71 -502q-11 -83 -53.5 -121t-129.5 -38q-51 0 -95 11.5t-61 23.5l18 138l64 -4v-72q0 -9 9 -14q25 -11 70 -11q44 0 63 22t26 71z" />
    <glyph glyph-name="ij" unicode="&#x133;" horiz-adv-x="581" 
d="M192 625q-26 0 -41 14t-15 39q0 33 20 53.5t54 20.5q27 0 41.5 -14t14.5 -39q0 -32 -20 -53t-54 -21zM242 0h-169l-2 4l21 115l45 312q3 17 -11 21l-53 14l7 48h157l-61 -437q-2 -12 0.5 -15.5t13.5 -4.5l59 -8zM363 -47l67 477q3 17 -9 21l-57 15l7 48h160l-80 -579
q-12 -83 -50.5 -120.5t-111.5 -37.5q-42 0 -79 14.5t-52 29.5l37 57q41 -29 85 -29q40 0 57.5 24t25.5 80zM488 625q-27 0 -42 14t-15 39q0 33 20.5 53.5t54.5 20.5q26 0 41 -14t15 -39q0 -32 -20.5 -53t-53.5 -21z" />
    <glyph glyph-name="Jcircumflex" unicode="&#x134;" horiz-adv-x="484" 
d="M273 153l69 496q2 11 -0.5 14.5t-12.5 4.5l-83 7l7 49h271l-7 -49l-67 -8q-7 -1 -10 -2.5t-4.5 -4.5t-2.5 -11l-71 -502q-11 -83 -53.5 -121t-129.5 -38q-51 0 -95 11.5t-61 23.5l18 138l64 -4v-72q0 -9 9 -14q25 -11 70 -11q44 0 63 22t26 71zM565 807l-46 -41l-107 83
l-131 -83l-35 41l131 102h84z" />
    <glyph glyph-name="jcircumflex" unicode="&#x135;" horiz-adv-x="286" 
d="M68 -47l68 477q3 17 -9 21l-58 15l7 48h160l-80 -579q-12 -83 -50.5 -120.5t-111.5 -37.5q-42 0 -79 14.5t-52 29.5l38 57q41 -29 85 -29q40 0 57 23.5t25 80.5zM340 604l-50 -38l-110 101l-140 -101l-39 38l145 123h84z" />
    <glyph glyph-name="Kcommaaccent" unicode="&#x136;" horiz-adv-x="716" 
d="M674 0h-144l-4 4l-54 99l-142 239l-91 -88l-26 -177q-2 -12 0.5 -15.5t12.5 -4.5l67 -8l-7 -49h-248l6 49l61 7q7 1 10 2.5t5 5.5t3 13l80 571q2 12 -0.5 15.5t-12.5 4.5l-60 7l7 49h248l-6 -49l-68 -8q-10 -1 -13 -4.5t-5 -14.5l-41 -289l314 307l-57 8l7 50h220l-7 -49
l-50 -9q-19 -3 -32 -17l-245 -239l195 -334q8 -13 26 -17l58 -10zM318 -268l-43 16l34 88q3 7 -3 10l-32 14l32 80q50 -2 74 -12.5t24 -41.5q0 -26 -25 -63z" />
    <glyph glyph-name="kcommaaccent" unicode="&#x137;" horiz-adv-x="581" 
d="M541 0h-142l-3 3l-35 100l-70 169l-100 -95l-14 -100q-2 -12 0 -15.5t13 -4.5l63 -8l-7 -49h-233l7 50l50 7q10 2 13.5 5.5t4.5 14.5l83 595q3 16 -10 20l-53 15l6 48h158l-67 -476l204 195q29 27 54 38.5t59 11.5q23 0 44 -4l-8 -60q-31 1 -54 -8t-53 -38l-86 -83
l102 -257q4 -8 8.5 -11t18.5 -5l54 -9zM248 -268l-43 16l34 88q3 7 -3 10l-32 14l32 80q50 -2 74 -12.5t24 -41.5q0 -26 -25 -63z" />
    <glyph glyph-name="kgreenlandic" unicode="&#x138;" horiz-adv-x="581" 
d="M541 0h-142l-3 3l-35 100l-70 169l-100 -95l-14 -100q-2 -12 0 -15.5t13 -4.5l63 -8l-7 -49h-233l7 50l50 7q10 2 13.5 5.5t4.5 14.5l55 393q3 16 -10 20l-53 15l6 48h158l-39 -274l204 195q29 27 54 38.5t59 11.5q23 0 44 -4l-8 -60q-31 1 -54 -8t-53 -38l-86 -83
l102 -257q4 -8 8.5 -11t18.5 -5l54 -9z" />
    <glyph glyph-name="Lacute" unicode="&#x139;" horiz-adv-x="600" 
d="M550 0h-513l6 49l62 7q10 1 13 5t5 15l80 571q2 12 -0.5 15.5t-12.5 4.5l-60 7l6 50h265l-7 -50l-83 -8q-10 -1 -13 -4.5t-5 -14.5l-81 -576h253q14 0 17 11l29 90h62zM405 866l-216 -100l-25 48l204 127z" />
    <glyph glyph-name="lacute" unicode="&#x13a;" horiz-adv-x="294" 
d="M238 0h-169l-2 4l21 115l78 553q3 17 -10 21l-53 14l7 48h158l-96 -678q-2 -12 0.5 -15.5t13.5 -4.5l59 -8zM336 886l-216 -100l-25 48l204 127z" />
    <glyph glyph-name="Lcommaaccent" unicode="&#x13b;" horiz-adv-x="600" 
d="M550 0h-513l6 49l62 7q10 1 13 5t5 15l80 571q2 12 -0.5 15.5t-12.5 4.5l-60 7l6 50h265l-7 -50l-83 -8q-10 -1 -13 -4.5t-5 -14.5l-81 -576h253q14 0 17 11l29 90h62zM263 -268l-43 16l34 88q3 7 -3 10l-32 14l32 80q50 -2 74 -12.5t24 -41.5q0 -26 -25 -63z" />
    <glyph glyph-name="lcommaaccent" unicode="&#x13c;" horiz-adv-x="294" 
d="M238 0h-169l-2 4l21 115l78 553q3 17 -10 21l-53 14l7 48h158l-96 -678q-2 -12 0.5 -15.5t13.5 -4.5l59 -8zM106 -268l-43 16l34 88q3 7 -3 10l-32 14l32 80q50 -2 74 -12.5t24 -41.5q0 -26 -25 -63z" />
    <glyph glyph-name="Lcaron" unicode="&#x13d;" horiz-adv-x="600" 
d="M550 0h-513l6 49l62 7q10 1 13 5t5 15l80 571q2 12 -0.5 15.5t-12.5 4.5l-60 7l6 50h265l-7 -50l-83 -8q-10 -1 -13 -4.5t-5 -14.5l-81 -576h253q14 0 17 11l29 90h62zM499 520l-44 18q35 74 35 121q0 18 -8 42l69 32q22 -25 22 -45q0 -25 -14 -58q-16 -36 -60 -110z" />
    <glyph glyph-name="lcaron" unicode="&#x13e;" horiz-adv-x="353" 
d="M238 0h-169l-2 4l21 115l78 553q3 17 -10 21l-53 14l7 48h158l-96 -678q-2 -12 0.5 -15.5t13.5 -4.5l59 -8zM344 550l-44 18q35 74 35 121q0 18 -8 42l69 32q22 -25 22 -45q0 -25 -14 -58q-16 -36 -60 -110z" />
    <glyph glyph-name="Ldot" unicode="&#x13f;" horiz-adv-x="600" 
d="M550 0h-513l6 49l62 7q10 1 13 5t5 15l80 571q2 12 -0.5 15.5t-12.5 4.5l-60 7l6 50h265l-7 -50l-83 -8q-10 -1 -13 -4.5t-5 -14.5l-81 -576h253q14 0 17 11l29 90h62zM568 405q0 -33 -20 -53.5t-54 -20.5q-27 0 -42 14t-15 39q0 33 20 53t55 20q56 0 56 -52z" />
    <glyph glyph-name="ldot" unicode="&#x140;" horiz-adv-x="357" 
d="M238 0h-169l-2 4l21 115l78 553q3 17 -10 21l-53 14l7 48h158l-96 -678q-2 -12 0.5 -15.5t13.5 -4.5l59 -8zM415 391q0 -32 -19.5 -54t-54.5 -22q-56 0 -56 51q0 34 18.5 55t55.5 21q56 0 56 -51z" />
    <glyph glyph-name="Lslash" unicode="&#x141;" horiz-adv-x="597" 
d="M550 0h-513l6 49l62 7q10 1 13 5t5 15l32 223l-108 -42l10 73l108 43l38 274q2 12 -0.5 15.5t-12.5 4.5l-60 7l6 50h265l-7 -50l-83 -8q-10 -1 -13 -4.5t-5 -14.5l-35 -248l230 92l-11 -74l-229 -91l-36 -255h253q14 0 17 11l29 90h62z" />
    <glyph glyph-name="lslash" unicode="&#x142;" horiz-adv-x="303" 
d="M238 0h-169l-2 4l21 115l32 228l-85 -38l10 76l86 38l35 249q3 17 -10 21l-53 14l7 48h158l-43 -301l94 42l-10 -76l-95 -42l-42 -301q-2 -12 0.5 -15.5t13.5 -4.5l59 -8z" />
    <glyph glyph-name="Nacute" unicode="&#x143;" horiz-adv-x="815" 
d="M656 0h-105l-274 611l-75 -534q-2 -12 0.5 -15.5t12.5 -4.5l65 -8l-5 -49h-238l5 49l63 7q10 1 13 5t5 15l80 571q2 12 -0.5 15.5t-12.5 4.5l-60 7l6 50h191l268 -608l73 532q2 11 -0.5 15t-12.5 5l-61 7l6 49h238l-7 -49l-67 -8q-11 -1 -13.5 -4t-4.5 -15zM648 866
l-216 -100l-25 48l204 127z" />
    <glyph glyph-name="nacute" unicode="&#x144;" horiz-adv-x="619" 
d="M567 0h-161l-2 2l19 121l28 201q6 44 6 62q0 59 -51 59q-40 0 -83 -27.5t-109 -86.5l-35 -254q-2 -12 0.5 -15.5t13.5 -4.5l62 -8l-7 -49h-233l7 50l48 7q11 2 14.5 5.5t4.5 14.5l48 352q3 18 -9 21l-53 16l7 48h151l-14 -99q41 35 66 53.5t66.5 37t78.5 18.5
q116 0 118 -120q0 -27 -5 -59l-38 -268q-2 -12 0.5 -15.5t12.5 -4.5l56 -8zM519 700l-185 -133l-36 41l165 156z" />
    <glyph glyph-name="Ncommaaccent" unicode="&#x145;" horiz-adv-x="815" 
d="M656 0h-105l-274 611l-75 -534q-2 -12 0.5 -15.5t12.5 -4.5l65 -8l-5 -49h-238l5 49l63 7q10 1 13 5t5 15l80 571q2 12 -0.5 15.5t-12.5 4.5l-60 7l6 50h191l268 -608l73 532q2 11 -0.5 15t-12.5 5l-61 7l6 49h238l-7 -49l-67 -8q-11 -1 -13.5 -4t-4.5 -15zM358 -268
l-43 16l34 88q3 7 -3 10l-32 14l32 80q50 -2 74 -12.5t24 -41.5q0 -26 -25 -63z" />
    <glyph glyph-name="ncommaaccent" unicode="&#x146;" horiz-adv-x="619" 
d="M567 0h-161l-2 2l19 121l28 201q6 44 6 62q0 59 -51 59q-40 0 -83 -27.5t-109 -86.5l-35 -254q-2 -12 0.5 -15.5t13.5 -4.5l62 -8l-7 -49h-233l7 50l48 7q11 2 14.5 5.5t4.5 14.5l48 352q3 18 -9 21l-53 16l7 48h151l-14 -99q41 35 66 53.5t66.5 37t78.5 18.5
q116 0 118 -120q0 -27 -5 -59l-38 -268q-2 -12 0.5 -15.5t12.5 -4.5l56 -8zM260 -268l-43 16l34 88q3 7 -3 10l-32 14l32 80q50 -2 74 -12.5t24 -41.5q0 -26 -25 -63z" />
    <glyph glyph-name="Ncaron" unicode="&#x147;" horiz-adv-x="815" 
d="M656 0h-105l-274 611l-75 -534q-2 -12 0.5 -15.5t12.5 -4.5l65 -8l-5 -49h-238l5 49l63 7q10 1 13 5t5 15l80 571q2 12 -0.5 15.5t-12.5 4.5l-60 7l6 50h191l268 -608l73 532q2 11 -0.5 15t-12.5 5l-61 7l6 49h238l-7 -49l-67 -8q-11 -1 -13.5 -4t-4.5 -15zM665 879
l-131 -102h-84l-104 102l46 41l107 -83l130 83z" />
    <glyph glyph-name="ncaron" unicode="&#x148;" horiz-adv-x="619" 
d="M567 0h-161l-2 2l19 121l28 201q6 44 6 62q0 59 -51 59q-40 0 -83 -27.5t-109 -86.5l-35 -254q-2 -12 0.5 -15.5t13.5 -4.5l62 -8l-7 -49h-233l7 50l48 7q11 2 14.5 5.5t4.5 14.5l48 352q3 18 -9 21l-53 16l7 48h151l-14 -99q41 35 66 53.5t66.5 37t78.5 18.5
q116 0 118 -120q0 -27 -5 -59l-38 -268q-2 -12 0.5 -15.5t12.5 -4.5l56 -8zM548 702l-146 -123h-84l-108 122l49 39l109 -101l141 101z" />
    <glyph glyph-name="napostrophe" unicode="&#x149;" horiz-adv-x="658" 
d="M606 0h-161l-2 2l19 121l28 201q6 44 6 62q0 59 -51 59q-40 0 -83 -27.5t-109 -86.5l-35 -254q-2 -12 0.5 -15.5t13.5 -4.5l62 -8l-7 -49h-233l7 50l48 7q11 2 14.5 5.5t4.5 14.5l48 352q3 18 -9 21l-53 16l7 48h151l-14 -99q41 35 66 53.5t66.5 37t78.5 18.5
q116 0 118 -120q0 -27 -5 -59l-38 -268q-2 -12 0.5 -15.5t12.5 -4.5l56 -8zM77 499l-38 18l33 73q3 7 -2 10l-26 10l25 68q82 -2 82 -47q0 -20 -18 -47z" />
    <glyph glyph-name="Eng" unicode="&#x14a;" horiz-adv-x="816" 
d="M648 -56q-6 -37 -18 -64q-37 -103 -157 -103q-48 0 -91.5 16t-57.5 30l37 58q13 -10 44 -21t59 -11q81 0 95 104l6 48l-288 610l-75 -534q-2 -12 0.5 -15.5t12.5 -4.5l65 -8l-5 -49h-238l5 49l63 7q9 1 12.5 4.5t5.5 16.5l80 570q2 12 -0.5 15.5t-12.5 4.5l-60 7l6 50
h191l271 -589l70 513q1 11 -1 14.5t-12 5.5l-61 7l6 49h238l-7 -49l-67 -8q-7 -1 -10 -2.5t-5 -5t-3 -11.5z" />
    <glyph glyph-name="eng" unicode="&#x14b;" horiz-adv-x="619" 
d="M397 -47l52 371q5 33 5 54q1 34 -9.5 49t-42.5 15q-69 0 -189 -111l-35 -254q-2 -12 0.5 -15.5t13.5 -4.5l62 -8l-8 -49h-231l7 50l48 7q11 2 14.5 5.5t4.5 14.5l48 352q3 18 -9 21l-53 16l7 48h151l-14 -99q40 34 66 53.5t67 37.5t78 18q116 0 118 -120q0 -27 -5 -59
l-58 -410q-11 -82 -48.5 -119.5t-110.5 -37.5q-83 0 -134 43l38 57q41 -29 85 -29q40 0 57 23.5t25 80.5z" />
    <glyph glyph-name="Omacron" unicode="&#x14c;" horiz-adv-x="752" 
d="M348 -12q-144 0 -215.5 80.5t-71.5 217.5q0 201 103.5 326t292.5 125q141 0 211 -81.5t70 -216.5q0 -209 -104.5 -330t-285.5 -121zM360 65q123 0 202 93t81 268q0 49 -11 91q-37 143 -186 143q-125 0 -205.5 -93t-83.5 -264q0 -50 11 -92q35 -146 192 -146zM620 794
h-307l9 69h307z" />
    <glyph glyph-name="omacron" unicode="&#x14d;" horiz-adv-x="559" 
d="M252 -12q-105 0 -156.5 55.5t-51.5 153.5q0 146 74.5 236.5t209.5 90.5q106 0 154.5 -57t48.5 -152q0 -152 -73 -239.5t-206 -87.5zM260 57q81 0 129.5 66t48.5 193q0 135 -120 135q-83 0 -132.5 -63.5t-49.5 -186.5q0 -144 124 -144zM497 611h-307l10 69h307z" />
    <glyph glyph-name="Obreve" unicode="&#x14e;" horiz-adv-x="752" 
d="M348 -12q-144 0 -215.5 80.5t-71.5 217.5q0 201 103.5 326t292.5 125q141 0 211 -81.5t70 -216.5q0 -209 -104.5 -330t-285.5 -121zM360 65q123 0 202 93t81 268q0 49 -11 91q-37 143 -186 143q-125 0 -205.5 -93t-83.5 -264q0 -50 11 -92q35 -146 192 -146zM576 920
l55 -21q-47 -117 -167 -117q-128 0 -144 117l58 20q16 -72 89 -72t109 73z" />
    <glyph glyph-name="obreve" unicode="&#x14f;" horiz-adv-x="559" 
d="M252 -12q-105 0 -156.5 55.5t-51.5 153.5q0 146 74.5 236.5t209.5 90.5q106 0 154.5 -57t48.5 -152q0 -152 -73 -239.5t-206 -87.5zM260 57q81 0 129.5 66t48.5 193q0 135 -120 135q-83 0 -132.5 -63.5t-49.5 -186.5q0 -144 124 -144zM469 728l54 -22q-55 -133 -185 -133
q-133 0 -149 133l58 22q17 -90 99 -90q42 0 71 21.5t52 68.5z" />
    <glyph glyph-name="Ohungarumlaut" unicode="&#x150;" horiz-adv-x="752" 
d="M348 -12q-144 0 -215.5 80.5t-71.5 217.5q0 201 103.5 326t292.5 125q141 0 211 -81.5t70 -216.5q0 -209 -104.5 -330t-285.5 -121zM360 65q123 0 202 93t81 268q0 49 -11 91q-37 143 -186 143q-125 0 -205.5 -93t-83.5 -264q0 -50 11 -92q35 -146 192 -146zM545 914
l-183 -150l-37 37l165 172zM716 910l-187 -146l-34 37l167 168z" />
    <glyph glyph-name="ohungarumlaut" unicode="&#x151;" horiz-adv-x="559" 
d="M252 -12q-105 0 -156.5 55.5t-51.5 153.5q0 146 74.5 236.5t209.5 90.5q106 0 154.5 -57t48.5 -152q0 -152 -73 -239.5t-206 -87.5zM260 57q81 0 129.5 66t48.5 193q0 135 -120 135q-83 0 -132.5 -63.5t-49.5 -186.5q0 -144 124 -144zM408 724l-178 -156l-38 34l157 177z
M579 724l-178 -156l-39 34l158 176z" />
    <glyph glyph-name="OE" unicode="&#x152;" horiz-adv-x="987" 
d="M920 0h-490q-46 -12 -95 -12q-134 0 -204.5 85t-70.5 230q0 190 100 312t269 122q51 0 100 -13h469l-23 -165l-62 4l-3 77q0 8 -3.5 10.5t-12.5 2.5h-273q68 -76 68 -208v-44h202l-10 -72h-198q-24 -171 -128 -258h281q14 0 17 11l28 87h62zM348 65q117 0 184 92t67 267
q0 236 -181 236q-114 0 -188.5 -94t-74.5 -260q0 -118 50 -179.5t143 -61.5z" />
    <glyph glyph-name="oe" unicode="&#x153;" horiz-adv-x="860" 
d="M781 98l17 -68q-82 -42 -180 -42q-124 0 -165 101q-72 -101 -205 -101q-103 0 -153.5 56t-50.5 154q0 145 72.5 235.5t203.5 90.5q70 0 116.5 -32.5t62.5 -85.5q75 118 204 118q72 0 106 -33t34 -87q0 -64 -48 -106q-74 -65 -282 -92q1 -73 27 -109t97 -36q65 0 144 37z
M260 57q82 0 130 65.5t48 191.5q0 67 -33.5 102t-90.5 35q-83 0 -131 -63.5t-48 -184.5q0 -146 125 -146zM520 272q236 29 236 124q0 55 -65 55t-110.5 -51.5t-60.5 -127.5z" />
    <glyph glyph-name="Racute" unicode="&#x154;" horiz-adv-x="660" 
d="M634 0h-148l-6 7l-69 260q-5 22 -18 32t-38 10h-109l-34 -232q-2 -12 0.5 -15.5t12.5 -4.5l66 -8l-7 -49h-247l6 49l62 7q11 1 13.5 4.5t4.5 16.5l80 570q2 12 -0.5 15.5t-12.5 4.5l-60 7l6 50h295q108 0 155 -48t47 -126q0 -159 -166 -217q19 -10 28.5 -31t22.5 -74
l37 -150q4 -16 26 -19l60 -10zM256 381h88q87 0 140.5 39t53.5 121q0 63 -40 86.5t-129 23.5h-76zM525 866l-216 -100l-25 48l204 127z" />
    <glyph glyph-name="racute" unicode="&#x155;" horiz-adv-x="437" 
d="M275 0h-260l7 50l50 6q9 1 12 5t5 15l49 353q3 18 -9 21l-54 16l7 48h148l-13 -101q33 44 77.5 77.5t90.5 33.5q33 0 64 -9l-20 -151l-70 3l-2 68q0 6 -1.5 8t-8.5 2q-40 0 -132 -107l-36 -262q-2 -12 0.5 -15.5t13.5 -4.5l89 -7zM426 700l-185 -133l-36 41l165 156z" />
    <glyph glyph-name="Rcommaaccent" unicode="&#x156;" horiz-adv-x="660" 
d="M634 0h-148l-6 7l-69 260q-5 22 -18 32t-38 10h-109l-34 -232q-2 -12 0.5 -15.5t12.5 -4.5l66 -8l-7 -49h-247l6 49l62 7q11 1 13.5 4.5t4.5 16.5l80 570q2 12 -0.5 15.5t-12.5 4.5l-60 7l6 50h295q108 0 155 -48t47 -126q0 -159 -166 -217q19 -10 28.5 -31t22.5 -74
l37 -150q4 -16 26 -19l60 -10zM256 381h88q87 0 140.5 39t53.5 121q0 63 -40 86.5t-129 23.5h-76zM299 -268l-43 16l34 88q3 7 -3 10l-32 14l32 80q50 -2 74 -12.5t24 -41.5q0 -26 -25 -63z" />
    <glyph glyph-name="rcommaaccent" unicode="&#x157;" horiz-adv-x="437" 
d="M275 0h-260l7 50l50 6q9 1 12 5t5 15l49 353q3 18 -9 21l-54 16l7 48h148l-13 -101q33 44 77.5 77.5t90.5 33.5q33 0 64 -9l-20 -151l-70 3l-2 68q0 6 -1.5 8t-8.5 2q-40 0 -132 -107l-36 -262q-2 -12 0.5 -15.5t13.5 -4.5l89 -7zM96 -268l-43 16l34 88q3 7 -3 10l-32 14
l32 80q50 -2 74 -12.5t24 -41.5q0 -26 -25 -63z" />
    <glyph glyph-name="Rcaron" unicode="&#x158;" horiz-adv-x="660" 
d="M634 0h-148l-6 7l-69 260q-5 22 -18 32t-38 10h-109l-34 -232q-2 -12 0.5 -15.5t12.5 -4.5l66 -8l-7 -49h-247l6 49l62 7q11 1 13.5 4.5t4.5 16.5l80 570q2 12 -0.5 15.5t-12.5 4.5l-60 7l6 50h295q108 0 155 -48t47 -126q0 -159 -166 -217q19 -10 28.5 -31t22.5 -74
l37 -150q4 -16 26 -19l60 -10zM256 381h88q87 0 140.5 39t53.5 121q0 63 -40 86.5t-129 23.5h-76zM557 879l-131 -102h-84l-104 102l46 41l107 -83l130 83z" />
    <glyph glyph-name="rcaron" unicode="&#x159;" horiz-adv-x="437" 
d="M275 0h-260l7 50l50 6q9 1 12 5t5 15l49 353q3 18 -9 21l-54 16l7 48h148l-13 -101q33 44 77.5 77.5t90.5 33.5q33 0 64 -9l-20 -151l-70 3l-2 68q0 6 -1.5 8t-8.5 2q-40 0 -132 -107l-36 -262q-2 -12 0.5 -15.5t13.5 -4.5l89 -7zM462 702l-146 -123h-84l-108 122l49 39
l109 -101l141 101z" />
    <glyph glyph-name="Sacute" unicode="&#x15a;" horiz-adv-x="567" 
d="M547 532l-66 6l-3 86q-2 37 -93 37q-73 0 -123 -32.5t-50 -96.5q0 -26 9.5 -45.5t30.5 -34t39.5 -23t50.5 -20.5q36 -13 52.5 -20t46 -24t43.5 -34t26 -46.5t12 -65.5q0 -118 -79 -174.5t-206 -56.5q-62 0 -122 12.5t-85 25.5l22 164h66l6 -90q3 -38 124 -38q85 0 132 36
t47 107q0 29 -10.5 50t-33.5 36t-41.5 23.5t-52.5 20.5t-51 18.5t-44.5 22.5t-41 33t-24.5 45.5t-11 63.5q0 107 78 163t195 56q95 0 181 -35zM528 866l-216 -100l-25 48l204 127z" />
    <glyph glyph-name="sacute" unicode="&#x15b;" horiz-adv-x="451" 
d="M418 368l-63 4l-3 62q-1 14 -14 19q-21 7 -66 7q-47 0 -77.5 -19.5t-30.5 -57.5q0 -32 23.5 -50.5t72.5 -35.5q32 -11 50.5 -19.5t43 -25.5t36.5 -42t12 -59q0 -77 -56 -120t-145 -43q-62 0 -112.5 11t-67.5 22l19 127l62 -4l3 -65q0 -11 10 -15q32 -14 91 -14
q50 0 80 22.5t30 63.5q0 37 -23.5 55.5t-78.5 36.5q-30 10 -49.5 18.5t-41.5 24.5t-33 40t-11 56q0 78 56 117.5t148 39.5q93 0 153 -27zM420 700l-185 -133l-36 41l165 156z" />
    <glyph glyph-name="Scircumflex" unicode="&#x15c;" horiz-adv-x="567" 
d="M547 532l-66 6l-3 86q-2 37 -93 37q-73 0 -123 -32.5t-50 -96.5q0 -26 9.5 -45.5t30.5 -34t39.5 -23t50.5 -20.5q36 -13 52.5 -20t46 -24t43.5 -34t26 -46.5t12 -65.5q0 -118 -79 -174.5t-206 -56.5q-62 0 -122 12.5t-85 25.5l22 164h66l6 -90q3 -38 124 -38q85 0 132 36
t47 107q0 29 -10.5 50t-33.5 36t-41.5 23.5t-52.5 20.5t-51 18.5t-44.5 22.5t-41 33t-24.5 45.5t-11 63.5q0 107 78 163t195 56q95 0 181 -35zM552 807l-46 -41l-107 83l-131 -83l-35 41l131 102h84z" />
    <glyph glyph-name="scircumflex" unicode="&#x15d;" horiz-adv-x="451" 
d="M418 368l-63 4l-3 62q-1 14 -14 19q-21 7 -66 7q-47 0 -77.5 -19.5t-30.5 -57.5q0 -32 23.5 -50.5t72.5 -35.5q32 -11 50.5 -19.5t43 -25.5t36.5 -42t12 -59q0 -77 -56 -120t-145 -43q-62 0 -112.5 11t-67.5 22l19 127l62 -4l3 -65q0 -11 10 -15q32 -14 91 -14
q50 0 80 22.5t30 63.5q0 37 -23.5 55.5t-78.5 36.5q-30 10 -49.5 18.5t-41.5 24.5t-33 40t-11 56q0 78 56 117.5t148 39.5q93 0 153 -27zM456 610l-50 -38l-110 101l-140 -101l-39 38l145 123h84z" />
    <glyph glyph-name="Scedilla" unicode="&#x15e;" horiz-adv-x="567" 
d="M146 -230l13 51q20 -4 32 -4q40 0 60 16t20 42q0 40 -64 41l19 72q-60 1 -116.5 13t-79.5 25l22 164h66l6 -90q3 -38 124 -38q85 0 132 36t47 107q0 29 -10.5 50t-33.5 36t-41.5 23.5t-52.5 20.5t-51 18.5t-44.5 22.5t-41 33t-24.5 45.5t-11 63.5q0 107 78 163t195 56
q95 0 181 -35l-24 -170l-66 6l-3 86q-2 37 -93 37q-73 0 -123 -32.5t-50 -96.5q0 -26 9.5 -45.5t30.5 -34t39.5 -23t50.5 -20.5q36 -13 52.5 -20t46 -24t43.5 -34t26 -46.5t12 -65.5q0 -106 -64.5 -162.5t-172.5 -66.5l-9 -35q64 -18 64 -76q0 -45 -36.5 -80t-109.5 -35
q-26 0 -48 6z" />
    <glyph glyph-name="scedilla" unicode="&#x15f;" horiz-adv-x="451" 
d="M82 -229l12 52q14 -4 38 -4q29 0 51.5 13.5t22.5 41.5q0 42 -65 42l20 74q-50 3 -89 12.5t-51 18.5l19 127l62 -4l3 -65q0 -11 10 -15q32 -14 91 -14q50 0 80 22.5t30 63.5q0 37 -23.5 55.5t-78.5 36.5q-30 10 -49.5 18.5t-41.5 24.5t-33 40t-11 56q0 78 56 117.5
t148 39.5q93 0 153 -27l-18 -129l-63 4l-3 62q-1 14 -14 19q-21 7 -66 7q-47 0 -77.5 -19.5t-30.5 -57.5q0 -32 23.5 -50.5t72.5 -35.5q32 -11 50.5 -19.5t43 -25.5t36.5 -42t12 -59q0 -73 -50.5 -115t-131.5 -47l-9 -33q64 -17 64 -77q0 -55 -40 -85t-97 -30q-32 0 -56 7z
" />
    <glyph glyph-name="Scaron" unicode="&#x160;" horiz-adv-x="567" 
d="M547 532l-66 6l-3 86q-2 37 -93 37q-73 0 -123 -32.5t-50 -96.5q0 -26 9.5 -45.5t30.5 -34t39.5 -23t50.5 -20.5q36 -13 52.5 -20t46 -24t43.5 -34t26 -46.5t12 -65.5q0 -118 -79 -174.5t-206 -56.5q-62 0 -122 12.5t-85 25.5l22 164h66l6 -90q3 -38 124 -38q85 0 132 36
t47 107q0 29 -10.5 50t-33.5 36t-41.5 23.5t-52.5 20.5t-51 18.5t-44.5 22.5t-41 33t-24.5 45.5t-11 63.5q0 107 78 163t195 56q95 0 181 -35zM560 879l-131 -102h-84l-104 102l46 41l107 -83l130 83z" />
    <glyph glyph-name="scaron" unicode="&#x161;" horiz-adv-x="451" 
d="M418 368l-63 4l-3 62q-1 14 -14 19q-21 7 -66 7q-47 0 -77.5 -19.5t-30.5 -57.5q0 -32 23.5 -50.5t72.5 -35.5q32 -11 50.5 -19.5t43 -25.5t36.5 -42t12 -59q0 -77 -56 -120t-145 -43q-62 0 -112.5 11t-67.5 22l19 127l62 -4l3 -65q0 -11 10 -15q32 -14 91 -14
q50 0 80 22.5t30 63.5q0 37 -23.5 55.5t-78.5 36.5q-30 10 -49.5 18.5t-41.5 24.5t-33 40t-11 56q0 78 56 117.5t148 39.5q93 0 153 -27zM476 702l-146 -123h-84l-108 122l49 39l109 -101l141 101z" />
    <glyph glyph-name="uni0162" unicode="&#x162;" horiz-adv-x="636" 
d="M182 -230l13 51q20 -4 32 -4q40 0 60 16t20 42q0 40 -64 41l23 84h-132l7 51l100 7q10 1 13 5t5 15l80 575h-154q-14 0 -17 -11l-27 -87h-63l23 169h588l-23 -169h-63l-4 87q-1 7 -3.5 9t-10.5 2h-155l-81 -575q-2 -11 0 -14.5t13 -4.5l109 -8l-7 -51h-140l-12 -45
q64 -18 64 -76q0 -45 -36.5 -80t-109.5 -35q-26 0 -48 6z" />
    <glyph glyph-name="uni0163" unicode="&#x163;" horiz-adv-x="400" 
d="M86 -229l12 52q14 -4 38 -4q29 0 51.5 13.5t22.5 41.5q0 42 -65 42l21 77q-75 15 -75 98q0 10 2 32l43 312q2 10 -6 10h-72l9 59q55 8 83.5 38t46.5 104h59l-18 -122q-1 -10 7 -10h143l-9 -69h-152l-40 -295q-3 -21 -3 -36q0 -28 13.5 -40.5t47.5 -12.5q40 0 93 21
l15 -63q-59 -28 -130 -31l-8 -32q64 -17 64 -77q0 -55 -40 -85t-97 -30q-32 0 -56 7z" />
    <glyph glyph-name="Tcaron" unicode="&#x164;" horiz-adv-x="636" 
d="M464 0h-330l7 51l100 7q10 1 13 5t5 15l80 575h-154q-14 0 -17 -11l-27 -87h-63l23 169h588l-23 -169h-63l-4 87q-1 7 -3.5 9t-10.5 2h-155l-81 -575q-2 -11 0 -14.5t13 -4.5l109 -8zM566 879l-131 -102h-84l-104 102l46 41l107 -83l130 83z" />
    <glyph glyph-name="tcaron" unicode="&#x165;" horiz-adv-x="400" 
d="M338 82l15 -63q-67 -31 -140 -31q-122 0 -122 103q0 10 2 32l43 312q2 10 -6 10h-72l9 59q55 8 83.5 38t46.5 104h59l-18 -122q-1 -10 7 -10h143l-9 -69h-152l-40 -295q-3 -21 -3 -36q0 -28 13.5 -40.5t47.5 -12.5q40 0 93 21zM349 552l-44 18q35 74 35 121q0 18 -8 42
l69 32q22 -25 22 -45q0 -25 -14 -58q-16 -36 -60 -110z" />
    <glyph glyph-name="Tbar" unicode="&#x166;" horiz-adv-x="636" 
d="M464 0h-330l7 51l100 7q10 1 13 5t5 15l34 245h-118l9 67h118l37 263h-154q-14 0 -17 -11l-27 -87h-63l23 169h588l-23 -169h-63l-4 87q-1 7 -3.5 9t-10.5 2h-155l-37 -263h130l-9 -67h-131l-34 -245q-2 -11 0 -14.5t13 -4.5l109 -8z" />
    <glyph glyph-name="tbar" unicode="&#x167;" horiz-adv-x="400" 
d="M338 82l15 -63q-67 -31 -140 -31q-122 0 -122 103q0 10 2 32l16 116h-76l9 67h76l18 129q2 10 -6 10h-72l9 59q55 8 83.5 38t46.5 104h59l-18 -122q-1 -10 7 -10h143l-9 -69h-152l-19 -139h150l-9 -67h-150l-12 -89q-3 -21 -3 -36q0 -28 13.5 -40.5t47.5 -12.5
q40 0 93 21z" />
    <glyph glyph-name="Utilde" unicode="&#x168;" horiz-adv-x="770" 
d="M568 252l54 396q1 12 -1 15.5t-12 4.5l-61 7l7 49h243l-7 -49l-67 -8q-11 -1 -13.5 -4t-4.5 -15l-56 -408q-18 -131 -88.5 -191.5t-200.5 -60.5q-118 0 -173.5 49t-55.5 148q0 31 4 59l54 404q2 12 -0.5 15.5t-11.5 4.5l-61 7l7 49h249l-7 -49l-67 -8q-11 -1 -13.5 -4
t-4.5 -15l-55 -394q-4 -28 -4 -58q0 -70 37 -100.5t112 -30.5q89 0 136 42.5t61 144.5zM657 866l-28 -34q-40 -50 -71 -50q-15 0 -43 7l-116 31q-10 3 -16 -3l-45 -39l-39 31l35 44q32 41 67 41q15 0 31 -4l123 -33q14 -4 22 3l39 37z" />
    <glyph glyph-name="utilde" unicode="&#x169;" horiz-adv-x="617" 
d="M558 0h-153l15 99q-37 -32 -62.5 -51t-66 -39t-73.5 -20q-64 0 -95 28t-31 93q0 21 4 57l39 270q2 12 -0.5 15.5t-13.5 4.5l-52 8l8 49h154l3 -4l-45 -321q-5 -30 -5 -61t11.5 -44t41.5 -13q29 0 63 17.5t59 37t67 56.5l34 255q2 12 -0.5 15.5t-13.5 4.5l-58 8l7 49h163
l3 -4l-61 -434q-3 -17 9 -19l55 -9zM527 673l-28 -35q-40 -50 -70 -50q-17 0 -43 8q-25 6 -68 18t-50 14q-9 3 -17 -4l-44 -39l-38 30l35 44q34 42 66 42q17 0 41 -7q108 -30 119 -32q8 -3 16 4l40 37z" />
    <glyph glyph-name="Umacron" unicode="&#x16a;" horiz-adv-x="770" 
d="M568 252l54 396q1 12 -1 15.5t-12 4.5l-61 7l7 49h243l-7 -49l-67 -8q-11 -1 -13.5 -4t-4.5 -15l-56 -408q-18 -131 -88.5 -191.5t-200.5 -60.5q-118 0 -173.5 49t-55.5 148q0 31 4 59l54 404q2 12 -0.5 15.5t-11.5 4.5l-61 7l7 49h249l-7 -49l-67 -8q-11 -1 -13.5 -4
t-4.5 -15l-55 -394q-4 -28 -4 -58q0 -70 37 -100.5t112 -30.5q89 0 136 42.5t61 144.5zM630 794h-307l9 69h307z" />
    <glyph glyph-name="umacron" unicode="&#x16b;" horiz-adv-x="617" 
d="M558 0h-153l15 99q-37 -32 -62.5 -51t-66 -39t-73.5 -20q-64 0 -95 28t-31 93q0 21 4 57l39 270q2 12 -0.5 15.5t-13.5 4.5l-52 8l8 49h154l3 -4l-45 -321q-5 -30 -5 -61t11.5 -44t41.5 -13q29 0 63 17.5t59 37t67 56.5l34 255q2 12 -0.5 15.5t-13.5 4.5l-58 8l7 49h163
l3 -4l-61 -434q-3 -17 9 -19l55 -9zM510 611h-307l10 69h307z" />
    <glyph glyph-name="Ubreve" unicode="&#x16c;" horiz-adv-x="770" 
d="M568 252l54 396q1 12 -1 15.5t-12 4.5l-61 7l7 49h243l-7 -49l-67 -8q-11 -1 -13.5 -4t-4.5 -15l-56 -408q-18 -131 -88.5 -191.5t-200.5 -60.5q-118 0 -173.5 49t-55.5 148q0 31 4 59l54 404q2 12 -0.5 15.5t-11.5 4.5l-61 7l7 49h249l-7 -49l-67 -8q-11 -1 -13.5 -4
t-4.5 -15l-55 -394q-4 -28 -4 -58q0 -70 37 -100.5t112 -30.5q89 0 136 42.5t61 144.5zM575 920l55 -21q-47 -117 -167 -117q-128 0 -144 117l58 20q16 -72 89 -72q35 0 61.5 15t47.5 58z" />
    <glyph glyph-name="ubreve" unicode="&#x16d;" horiz-adv-x="617" 
d="M558 0h-153l15 99q-37 -32 -62.5 -51t-66 -39t-73.5 -20q-64 0 -95 28t-31 93q0 21 4 57l39 270q2 12 -0.5 15.5t-13.5 4.5l-52 8l8 49h154l3 -4l-45 -321q-5 -30 -5 -61t11.5 -44t41.5 -13q29 0 63 17.5t59 37t67 56.5l34 255q2 12 -0.5 15.5t-13.5 4.5l-58 8l7 49h163
l3 -4l-61 -434q-3 -17 9 -19l55 -9zM472 728l54 -22q-55 -133 -185 -133q-133 0 -149 133l58 22q17 -90 99 -90q42 0 71 21.5t52 68.5z" />
    <glyph glyph-name="Uring" unicode="&#x16e;" horiz-adv-x="770" 
d="M568 252l54 396q1 12 -1 15.5t-12 4.5l-61 7l7 49h243l-7 -49l-67 -8q-11 -1 -13.5 -4t-4.5 -15l-56 -408q-18 -131 -88.5 -191.5t-200.5 -60.5q-118 0 -173.5 49t-55.5 148q0 31 4 59l54 404q2 12 -0.5 15.5t-11.5 4.5l-61 7l7 49h249l-7 -49l-67 -8q-11 -1 -13.5 -4
t-4.5 -15l-55 -394q-4 -28 -4 -58q0 -70 37 -100.5t112 -30.5q89 0 136 42.5t61 144.5zM497 908q33 0 53.5 -18t20.5 -50q0 -42 -27 -71t-71 -29q-34 0 -54.5 18.5t-20.5 53.5q0 42 28 69t71 27zM480 785q20 0 31 14t11 34q0 30 -32 30q-20 0 -31 -14t-11 -34q0 -30 32 -30z
" />
    <glyph glyph-name="uring" unicode="&#x16f;" horiz-adv-x="617" 
d="M558 0h-153l15 99q-37 -32 -62.5 -51t-66 -39t-73.5 -20q-64 0 -95 28t-31 93q0 21 4 57l39 270q2 12 -0.5 15.5t-13.5 4.5l-52 8l8 49h154l3 -4l-45 -321q-5 -30 -5 -61t11.5 -44t41.5 -13q29 0 63 17.5t59 37t67 56.5l34 255q2 12 -0.5 15.5t-13.5 4.5l-58 8l7 49h163
l3 -4l-61 -434q-3 -17 9 -19l55 -9zM375 748q33 0 53.5 -18t20.5 -50q0 -42 -27 -71t-71 -29q-34 0 -54.5 18.5t-20.5 53.5q0 42 28 69t71 27zM358 625q20 0 31 14t11 34q0 30 -32 30q-20 0 -31 -14t-11 -34q0 -30 32 -30z" />
    <glyph glyph-name="Uhungarumlaut" unicode="&#x170;" horiz-adv-x="770" 
d="M568 252l54 396q1 12 -1 15.5t-12 4.5l-61 7l7 49h243l-7 -49l-67 -8q-11 -1 -13.5 -4t-4.5 -15l-56 -408q-18 -131 -88.5 -191.5t-200.5 -60.5q-118 0 -173.5 49t-55.5 148q0 31 4 59l54 404q2 12 -0.5 15.5t-11.5 4.5l-61 7l7 49h249l-7 -49l-67 -8q-11 -1 -13.5 -4
t-4.5 -15l-55 -394q-4 -28 -4 -58q0 -70 37 -100.5t112 -30.5q89 0 136 42.5t61 144.5zM555 914l-183 -150l-37 37l165 172zM726 910l-187 -146l-34 37l167 168z" />
    <glyph glyph-name="uhungarumlaut" unicode="&#x171;" horiz-adv-x="617" 
d="M558 0h-153l15 99q-37 -32 -62.5 -51t-66 -39t-73.5 -20q-64 0 -95 28t-31 93q0 21 4 57l39 270q2 12 -0.5 15.5t-13.5 4.5l-52 8l8 49h154l3 -4l-45 -321q-5 -30 -5 -61t11.5 -44t41.5 -13q29 0 63 17.5t59 37t67 56.5l34 255q2 12 -0.5 15.5t-13.5 4.5l-58 8l7 49h163
l3 -4l-61 -434q-3 -17 9 -19l55 -9zM421 724l-178 -156l-38 34l157 177zM592 724l-178 -156l-39 34l158 176z" />
    <glyph glyph-name="Uogonek" unicode="&#x172;" horiz-adv-x="770" 
d="M452 -140l12 -56q-49 -22 -96 -22q-80 0 -80 64q0 70 93 143q-3 0 -9.5 -0.5t-10.5 -0.5q-118 0 -173.5 49t-55.5 148q0 31 4 59l54 404q2 12 -0.5 15.5t-11.5 4.5l-61 7l7 49h249l-7 -49l-67 -8q-11 -1 -13.5 -4t-4.5 -15l-55 -394q-4 -28 -4 -58q0 -70 37 -100.5
t112 -30.5q89 0 136 42.5t61 144.5l54 396q1 12 -1 15.5t-12 4.5l-61 7l7 49h243l-7 -49l-67 -8q-11 -1 -13.5 -4t-4.5 -15l-56 -408q-13 -93 -53 -147t-112 -91q-35 -18 -72.5 -56t-37.5 -72q0 -26 26 -26q20 0 51 12z" />
    <glyph glyph-name="uogonek" unicode="&#x173;" horiz-adv-x="617" 
d="M515 -140l12 -56q-49 -22 -96 -22q-80 0 -80 64q0 43 30 79.5t82 74.5h-58l15 99q-37 -32 -62.5 -51t-66 -39t-73.5 -20q-64 0 -95 28t-31 93q0 21 4 57l39 270q2 12 -0.5 15.5t-13.5 4.5l-52 8l8 49h154l3 -4l-45 -321q-5 -30 -5 -61t11.5 -44t41.5 -13q29 0 63 17.5
t59 37t67 56.5l34 255q2 12 -0.5 15.5t-13.5 4.5l-58 8l7 49h163l3 -4l-61 -434q-3 -17 9 -19l55 -9l-6 -48q-45 -21 -82.5 -57t-37.5 -69q0 -26 26 -26q20 0 51 12z" />
    <glyph glyph-name="Wcircumflex" unicode="&#x174;" horiz-adv-x="958" 
d="M704 0h-118l-65 457l-193 -457h-111l-74 644q-1 11 -4.5 15t-13.5 6l-56 10l9 49h252l-7 -49l-88 -10l57 -563l199 476h100l67 -486l212 573l-85 10l7 49h240l-8 -49l-52 -9q-17 -3 -26 -25zM727 807l-46 -41l-107 83l-131 -83l-35 41l131 102h84z" />
    <glyph glyph-name="wcircumflex" unicode="&#x175;" horiz-adv-x="812" 
d="M595 0h-106l-54 400l-164 -400h-108l-68 439q-1 14 -15 17l-43 9l8 49h132l5 -6l8 -85l43 -331l171 419h100l56 -425l161 371l-61 8l8 49h146l6 -12zM623 610l-50 -38l-110 101l-140 -101l-39 38l145 123h84z" />
    <glyph glyph-name="Ycircumflex" unicode="&#x176;" horiz-adv-x="607" 
d="M445 0h-312l6 49l95 7q9 1 12 5t5 16l28 203l-146 367q-6 11 -21 17l-43 11l8 49h229l-8 -49l-74 -9l113 -303l194 303l-72 9l8 49h214l-7 -49l-42 -11q-20 -6 -28 -20l-234 -361l-28 -206q-2 -13 0 -16t13 -4l96 -8zM551 807l-46 -41l-107 83l-131 -83l-35 41l131 102
h84z" />
    <glyph glyph-name="ycircumflex" unicode="&#x177;" horiz-adv-x="528" 
d="M161 -56l38 71l-108 425q-3 13 -17 17l-41 9l9 48h130l5 -6l23 -126l60 -259l166 333l-62 10l6 48h159l7 -14l-296 -577q-41 -79 -80.5 -112.5t-106.5 -33.5q-41 0 -77.5 14.5t-51.5 29.5l37 57q42 -29 90 -29q38 0 60.5 22.5t49.5 72.5zM473 610l-50 -38l-110 101
l-140 -101l-39 38l145 123h84z" />
    <glyph glyph-name="Ydieresis" unicode="&#x178;" horiz-adv-x="607" 
d="M445 0h-312l6 49l95 7q9 1 12 5t5 16l28 203l-146 367q-6 11 -21 17l-43 11l8 49h229l-8 -49l-74 -9l113 -303l194 303l-72 9l8 49h214l-7 -49l-42 -11q-20 -6 -28 -20l-234 -361l-28 -206q-2 -13 0 -16t13 -4l96 -8zM361 845q0 -28 -17.5 -45.5t-46.5 -17.5
q-23 0 -36 12.5t-13 33.5q0 27 17.5 45t46.5 18q23 0 36 -12.5t13 -33.5zM563 845q0 -28 -17.5 -45.5t-46.5 -17.5q-23 0 -36 12.5t-13 33.5q0 27 17.5 45t46.5 18q23 0 36 -12.5t13 -33.5z" />
    <glyph glyph-name="Zacute" unicode="&#x179;" horiz-adv-x="631" 
d="M560 0h-535l8 61l485 592h-293q-14 0 -17 -11l-31 -93l-66 -3l25 178h505l-8 -63l-484 -590h321q14 0 18 11l33 107h64zM526 866l-216 -100l-25 48l204 127z" />
    <glyph glyph-name="zacute" unicode="&#x17a;" horiz-adv-x="498" 
d="M429 0h-409l7 54l344 393h-194q-9 0 -13 -13l-20 -63l-64 -3l19 146h394l-8 -56l-341 -391h207q7 0 13 13l22 74l65 3zM431 700l-185 -133l-36 41l165 156z" />
    <glyph glyph-name="Zdotaccent" unicode="&#x17b;" horiz-adv-x="631" 
d="M560 0h-535l8 61l485 592h-293q-14 0 -17 -11l-31 -93l-66 -3l25 178h505l-8 -63l-484 -590h321q14 0 18 11l33 107h64zM466 856q0 -33 -20 -53.5t-54 -20.5q-27 0 -42 14t-15 39q0 33 20 53t55 20q56 0 56 -52z" />
    <glyph glyph-name="zdotaccent" unicode="&#x17c;" horiz-adv-x="498" 
d="M429 0h-409l7 54l344 393h-194q-9 0 -13 -13l-20 -63l-64 -3l19 146h394l-8 -56l-341 -391h207q7 0 13 13l22 74l65 3zM383 702q0 -32 -19.5 -54t-54.5 -22q-56 0 -56 51q0 34 18.5 55t55.5 21q56 0 56 -51z" />
    <glyph glyph-name="Zcaron" unicode="&#x17d;" horiz-adv-x="631" 
d="M560 0h-535l8 61l485 592h-293q-14 0 -17 -11l-31 -93l-66 -3l25 178h505l-8 -63l-484 -590h321q14 0 18 11l33 107h64zM558 879l-131 -102h-84l-104 102l46 41l107 -83l130 83z" />
    <glyph glyph-name="zcaron" unicode="&#x17e;" horiz-adv-x="498" 
d="M429 0h-409l7 54l344 393h-194q-9 0 -13 -13l-20 -63l-64 -3l19 146h394l-8 -56l-341 -391h207q7 0 13 13l22 74l65 3zM487 702l-146 -123h-84l-108 122l49 39l109 -101l141 101z" />
    <glyph glyph-name="longs" unicode="&#x17f;" horiz-adv-x="393" 
d="M166 -212h-90l116 817q23 161 174 161q91 0 149 -48l-39 -61q-56 37 -105 37q-42 0 -63.5 -24.5t-28.5 -74.5z" />
    <glyph glyph-name="florin" unicode="&#x192;" horiz-adv-x="514" 
d="M427 311h-147l-73 -238q-28 -91 -68 -127.5t-115 -36.5q-36 0 -73.5 12.5t-55.5 27.5l35 60q44 -31 98 -31q32 0 53.5 19.5t35.5 64.5l75 239q2 10 -7 10h-89l20 67h101l34 110q27 86 70 123t125 37q72 0 125 -33l-39 -128l-57 5l9 68q1 10 -7 13q-18 7 -43 7
q-42 0 -63.5 -25t-38.5 -77l-28 -90q-3 -10 5 -10h138z" />
    <glyph glyph-name="Scommaaccent" unicode="&#x218;" horiz-adv-x="567" 
d="M547 532l-66 6l-3 86q-2 37 -93 37q-73 0 -123 -32.5t-50 -96.5q0 -26 9.5 -45.5t30.5 -34t39.5 -23t50.5 -20.5q36 -13 52.5 -20t46 -24t43.5 -34t26 -46.5t12 -65.5q0 -118 -79 -174.5t-206 -56.5q-62 0 -122 12.5t-85 25.5l22 164h66l6 -90q3 -38 124 -38q85 0 132 36
t47 107q0 29 -10.5 50t-33.5 36t-41.5 23.5t-52.5 20.5t-51 18.5t-44.5 22.5t-41 33t-24.5 45.5t-11 63.5q0 107 78 163t195 56q95 0 181 -35zM227 -268l-43 16l34 88q3 7 -3 10l-32 14l32 80q50 -2 74 -12.5t24 -41.5q0 -26 -25 -63z" />
    <glyph glyph-name="scommaaccent" unicode="&#x219;" horiz-adv-x="451" 
d="M418 368l-63 4l-3 62q-1 14 -14 19q-21 7 -66 7q-47 0 -77.5 -19.5t-30.5 -57.5q0 -32 23.5 -50.5t72.5 -35.5q32 -11 50.5 -19.5t43 -25.5t36.5 -42t12 -59q0 -77 -56 -120t-145 -43q-62 0 -112.5 11t-67.5 22l19 127l62 -4l3 -65q0 -11 10 -15q32 -14 91 -14
q50 0 80 22.5t30 63.5q0 37 -23.5 55.5t-78.5 36.5q-30 10 -49.5 18.5t-41.5 24.5t-33 40t-11 56q0 78 56 117.5t148 39.5q93 0 153 -27zM159 -268l-43 16l34 88q3 7 -3 10l-32 14l32 80q50 -2 74 -12.5t24 -41.5q0 -26 -25 -63z" />
    <glyph glyph-name="uni021A" unicode="&#x21a;" horiz-adv-x="636" 
d="M464 0h-330l7 51l100 7q10 1 13 5t5 15l80 575h-154q-14 0 -17 -11l-27 -87h-63l23 169h588l-23 -169h-63l-4 87q-1 7 -3.5 9t-10.5 2h-155l-81 -575q-2 -11 0 -14.5t13 -4.5l109 -8zM265 -268l-43 16l34 88q3 7 -3 10l-32 14l32 80q50 -2 74 -12.5t24 -41.5
q0 -26 -25 -63z" />
    <glyph glyph-name="uni021B" unicode="&#x21b;" horiz-adv-x="400" 
d="M338 82l15 -63q-67 -31 -140 -31q-122 0 -122 103q0 10 2 32l43 312q2 10 -6 10h-72l9 59q55 8 83.5 38t46.5 104h59l-18 -122q-1 -10 7 -10h143l-9 -69h-152l-40 -295q-3 -21 -3 -36q0 -28 13.5 -40.5t47.5 -12.5q40 0 93 21zM173 -268l-43 16l34 88q3 7 -3 10l-32 14
l32 80q50 -2 74 -12.5t24 -41.5q0 -26 -25 -63z" />
    <glyph glyph-name="dotlessj" unicode="&#x237;" horiz-adv-x="286" 
d="M68 -47l68 477q3 17 -9 21l-58 15l7 48h160l-80 -579q-12 -83 -50.5 -120.5t-111.5 -37.5q-42 0 -79 14.5t-52 29.5l38 57q41 -29 85 -29q40 0 57 23.5t25 80.5z" />
    <glyph glyph-name="apostrophe" unicode="&#x2bc;" horiz-adv-x="500" 
d="M317 509l-38 18l33 73q3 7 -2 10l-26 10l25 68q82 -2 82 -47q0 -20 -18 -47z" />
    <glyph glyph-name="circumflex" unicode="&#x2c6;" horiz-adv-x="500" 
d="M505 610l-50 -38l-110 101l-140 -101l-39 38l145 123h84z" />
    <glyph glyph-name="caron" unicode="&#x2c7;" horiz-adv-x="500" 
d="M516 702l-146 -123h-84l-108 122l49 39l109 -101l141 101z" />
    <glyph glyph-name="uni02C9" unicode="&#x2c9;" horiz-adv-x="500" 
d="M489 611h-307l9 69h307z" />
    <glyph glyph-name="breve" unicode="&#x2d8;" horiz-adv-x="500" 
d="M462 728l54 -22q-55 -133 -185 -133q-133 0 -149 133l58 22q17 -90 99 -90q42 0 71 21.5t52 68.5z" />
    <glyph glyph-name="dotaccent" unicode="&#x2d9;" horiz-adv-x="500" 
d="M412 702q0 -32 -19.5 -54t-54.5 -22q-56 0 -56 51q0 34 18.5 55t55.5 21q56 0 56 -51z" />
    <glyph glyph-name="ring" unicode="&#x2da;" horiz-adv-x="500" 
d="M361 753q33 0 53.5 -18t20.5 -50q0 -42 -27 -71t-71 -29q-34 0 -54.5 18.5t-20.5 53.5q0 42 28 69t71 27zM344 630q20 0 31 14t11 34q0 30 -32 30q-20 0 -31 -14t-11 -34q0 -30 32 -30z" />
    <glyph glyph-name="ogonek" unicode="&#x2db;" horiz-adv-x="500" 
d="M311 -140l12 -56q-49 -22 -96 -22q-80 0 -80 64q0 50 36.5 90t100.5 84l56 -16q-106 -79 -106 -130q0 -26 26 -26q20 0 51 12z" />
    <glyph glyph-name="tilde" unicode="&#x2dc;" horiz-adv-x="500" 
d="M519 673l-28 -35q-40 -50 -70 -50q-17 0 -43 8q-25 6 -68 18t-50 14q-9 3 -17 -4l-44 -39l-38 30l35 44q34 42 66 42q17 0 41 -7q108 -30 119 -32q8 -3 16 4l40 37z" />
    <glyph glyph-name="hungarumlaut" unicode="&#x2dd;" horiz-adv-x="500" 
d="M367 724l-178 -156l-38 34l157 177zM538 724l-178 -156l-39 34l158 176z" />
    <glyph glyph-name="uni0394" unicode="&#x394;" horiz-adv-x="670" 
d="M632 0h-622l352 724h116zM514 76l-106 565l-271 -565h377z" />
    <glyph glyph-name="uni03A9" unicode="&#x3a9;" horiz-adv-x="845" 
d="M749 0h-284l22 150q35 13 69 36t68.5 59t56 91t21.5 119q0 99 -55 152t-150 53q-130 0 -209 -76t-79 -216q0 -83 37 -138t100 -80l-22 -150h-290l23 160h65l4 -79q0 -7 2.5 -9t11.5 -2h120l8 50q-74 32 -114 98t-40 149q0 163 107.5 266.5t283.5 103.5q144 0 218 -74.5
t74 -198.5q0 -121 -67.5 -210.5t-174.5 -134.5l-7 -49h114q14 0 18 11l26 79h66z" />
    <glyph glyph-name="uni03BC" unicode="&#x3bc;" horiz-adv-x="629" 
d="M566 0h-148l9 68h-4q-96 -77 -174 -77q-56 0 -82 40l-3 -1l-19 -206h-93l97 690h91l-48 -340q-3 -28 -3.5 -52.5t17.5 -41t55 -16.5q79 0 167 85l51 365h91l-60 -435q-3 -19 10 -20l53 -7z" />
    <glyph glyph-name="pi" unicode="&#x3c0;" horiz-adv-x="695" 
d="M593 0h-157l62 443h-234l-62 -443h-157l7 53l51 7q16 1 17 13l51 360q1 11 -1 14.5t-12 5.5l-58 7l7 54h570l-7 -54l-63 -8q-11 -2 -14 -5t-5 -14l-50 -353q-2 -12 0.5 -15.5t13.5 -4.5l48 -7z" />
    <glyph glyph-name="Wgrave" unicode="&#x1e80;" horiz-adv-x="958" 
d="M704 0h-118l-65 457l-193 -457h-111l-74 644q-1 11 -4.5 15t-13.5 6l-56 10l9 49h252l-7 -49l-88 -10l57 -563l199 476h100l67 -486l212 573l-85 10l7 49h240l-8 -49l-52 -9q-17 -3 -26 -25zM636 765l-190 102l53 73l171 -128z" />
    <glyph glyph-name="wgrave" unicode="&#x1e81;" horiz-adv-x="812" 
d="M595 0h-106l-54 400l-164 -400h-108l-68 439q-1 14 -15 17l-43 9l8 49h132l5 -6l8 -85l43 -331l171 419h100l56 -425l161 371l-61 8l8 49h146l6 -12zM551 604l-45 -37l-156 141l69 60z" />
    <glyph glyph-name="Wacute" unicode="&#x1e82;" horiz-adv-x="958" 
d="M704 0h-118l-65 457l-193 -457h-111l-74 644q-1 11 -4.5 15t-13.5 6l-56 10l9 49h252l-7 -49l-88 -10l57 -563l199 476h100l67 -486l212 573l-85 10l7 49h240l-8 -49l-52 -9q-17 -3 -26 -25zM703 866l-216 -100l-25 48l204 127z" />
    <glyph glyph-name="wacute" unicode="&#x1e83;" horiz-adv-x="812" 
d="M595 0h-106l-54 400l-164 -400h-108l-68 439q-1 14 -15 17l-43 9l8 49h132l5 -6l8 -85l43 -331l171 419h100l56 -425l161 371l-61 8l8 49h146l6 -12zM587 700l-185 -133l-36 41l165 156z" />
    <glyph glyph-name="Wdieresis" unicode="&#x1e84;" horiz-adv-x="958" 
d="M704 0h-118l-65 457l-193 -457h-111l-74 644q-1 11 -4.5 15t-13.5 6l-56 10l9 49h252l-7 -49l-88 -10l57 -563l199 476h100l67 -486l212 573l-85 10l7 49h240l-8 -49l-52 -9q-17 -3 -26 -25zM529 845q0 -28 -17.5 -45.5t-46.5 -17.5q-23 0 -36 12.5t-13 33.5
q0 27 17.5 45t46.5 18q23 0 36 -12.5t13 -33.5zM731 845q0 -28 -17.5 -45.5t-46.5 -17.5q-23 0 -36 12.5t-13 33.5q0 27 17.5 45t46.5 18q23 0 36 -12.5t13 -33.5z" />
    <glyph glyph-name="wdieresis" unicode="&#x1e85;" horiz-adv-x="812" 
d="M595 0h-106l-54 400l-164 -400h-108l-68 439q-1 14 -15 17l-43 9l8 49h132l5 -6l8 -85l43 -331l171 419h100l56 -425l161 371l-61 8l8 49h146l6 -12zM417 668q0 -28 -17.5 -45.5t-46.5 -17.5q-23 0 -36 12.5t-13 33.5q0 27 17.5 45t46.5 18q23 0 36 -12.5t13 -33.5z
M619 668q0 -28 -17.5 -45.5t-46.5 -17.5q-23 0 -36 12.5t-13 33.5q0 27 17.5 45t46.5 18q23 0 36 -12.5t13 -33.5z" />
    <glyph glyph-name="Ygrave" unicode="&#x1ef2;" horiz-adv-x="607" 
d="M445 0h-312l6 49l95 7q9 1 12 5t5 16l28 203l-146 367q-6 11 -21 17l-43 11l8 49h229l-8 -49l-74 -9l113 -303l194 303l-72 9l8 49h214l-7 -49l-42 -11q-20 -6 -28 -20l-234 -361l-28 -206q-2 -13 0 -16t13 -4l96 -8zM448 765l-190 102l53 73l171 -128z" />
    <glyph glyph-name="ygrave" unicode="&#x1ef3;" horiz-adv-x="528" 
d="M161 -56l38 71l-108 425q-3 13 -17 17l-41 9l9 48h130l5 -6l23 -126l60 -259l166 333l-62 10l6 48h159l7 -14l-296 -577q-41 -79 -80.5 -112.5t-106.5 -33.5q-41 0 -77.5 14.5t-51.5 29.5l37 57q42 -29 90 -29q38 0 60.5 22.5t49.5 72.5zM378 604l-45 -37l-156 141l69 60
z" />
    <glyph glyph-name="endash" unicode="&#x2013;" horiz-adv-x="500" 
d="M511 247h-499l10 69h499z" />
    <glyph glyph-name="emdash" unicode="&#x2014;" horiz-adv-x="1000" 
d="M1006 247h-999l10 69h999z" />
    <glyph glyph-name="quoteleft" unicode="&#x2018;" horiz-adv-x="185" 
d="M221 627l-30 -74q-29 2 -47.5 6.5t-31.5 16t-13 31.5q0 22 22 54l66 101l41 -17l-41 -95q-3 -7 5 -10z" />
    <glyph glyph-name="quoteright" unicode="&#x2019;" horiz-adv-x="189" 
d="M139 551l-41 17l41 95q3 6 -5 9l-29 14l30 74q44 -3 68 -14t24 -39q0 -23 -22 -55z" />
    <glyph glyph-name="quotesinglbase" unicode="&#x201a;" horiz-adv-x="180" 
d="M49 -123l-42 17l41 95q3 6 -4 9l-29 14l30 74q44 -3 68 -14t24 -39q0 -23 -22 -55z" />
    <glyph glyph-name="quotedblleft" unicode="&#x201c;" horiz-adv-x="338" 
d="M374 627l-30 -74q-29 2 -47.5 6.5t-31.5 16t-13 31.5q0 22 22 54l66 101l41 -17l-41 -95q-3 -7 5 -10zM221 627l-30 -74q-29 2 -47.5 6.5t-31.5 16t-13 31.5q0 22 22 54l66 101l41 -17l-41 -95q-3 -7 5 -10z" />
    <glyph glyph-name="quotedblright" unicode="&#x201d;" horiz-adv-x="342" 
d="M292 551l-41 17l41 95q3 6 -5 9l-29 14l30 74q44 -3 68 -14t24 -39q0 -23 -22 -55zM139 551l-41 17l41 95q3 6 -5 9l-29 14l30 74q44 -3 68 -14t24 -39q0 -23 -22 -55z" />
    <glyph glyph-name="quotedblbase" unicode="&#x201e;" horiz-adv-x="333" 
d="M202 -123l-42 17l41 95q3 6 -4 9l-29 14l30 74q44 -3 68 -14t24 -39q0 -23 -22 -55zM49 -123l-42 17l41 95q3 6 -4 9l-29 14l30 74q44 -3 68 -14t24 -39q0 -23 -22 -55z" />
    <glyph glyph-name="dagger" unicode="&#x2020;" horiz-adv-x="393" 
d="M191 -83h-69l27 191l14 212l48 112h34l17 -112l-44 -213zM211 432l-86 -21h-74l10 75h74l81 -21zM249 465h-33l-8 96l12 84h75l-12 -84zM399 411h-73l-81 21l4 33l87 21h74z" />
    <glyph glyph-name="daggerdbl" unicode="&#x2021;" horiz-adv-x="410" 
d="M367 76h-74l-81 21l5 33h-33l-5 -33h33l8 -96l-12 -84h-75l12 84l34 96l-87 -21h-74l11 75h74l81 -21l-17 116l11 77l48 109h33l18 -109l-11 -77l-49 -116l87 21h74zM226 432l-87 -21h-74l11 75h74l81 -21l-8 96l12 84h75l-12 -84l-34 -96l87 21h74l-11 -75h-74l-81 21
l5 33h-33z" />
    <glyph glyph-name="bullet" unicode="&#x2022;" horiz-adv-x="371" 
d="M338 280q0 -66 -35.5 -100t-102.5 -34q-66 0 -101.5 34t-35.5 100t35.5 100t101.5 34q67 0 102.5 -34t35.5 -100z" />
    <glyph glyph-name="ellipsis" unicode="&#x2026;" horiz-adv-x="618" 
d="M365 64q0 -34 -19.5 -55t-56.5 -21q-58 0 -58 49q0 35 19 56t57 21q58 0 58 -50zM558 64q0 -34 -19.5 -55t-56.5 -21q-58 0 -58 49q0 35 19 56t57 21q58 0 58 -50zM172 64q0 -34 -19.5 -55t-56.5 -21q-58 0 -58 49q0 35 19 56t57 21q58 0 58 -50z" />
    <glyph glyph-name="perthousand" unicode="&#x2030;" horiz-adv-x="1088" 
d="M204 295q-63 0 -93 35.5t-30 93.5q0 88 45.5 142t126.5 54q62 0 92.5 -33.5t30.5 -92.5q0 -90 -45 -144.5t-127 -54.5zM203 -17h-87l466 638h86zM213 352q89 0 89 136q0 74 -57 74q-47 0 -68.5 -40t-21.5 -94q0 -76 58 -76zM534 -12q-64 0 -93.5 34.5t-29.5 92.5
q0 89 46 143.5t128 54.5q62 0 92 -34t30 -94q0 -90 -45.5 -143.5t-127.5 -53.5zM543 45q89 0 89 134q0 76 -57 76q-47 0 -68.5 -40t-21.5 -94q0 -76 58 -76zM862 -12q-64 0 -93.5 34.5t-29.5 92.5q0 89 45.5 143.5t126.5 54.5q62 0 93 -34.5t31 -93.5q0 -90 -45.5 -143.5
t-127.5 -53.5zM871 45q89 0 89 134q0 76 -57 76q-47 0 -68.5 -40t-21.5 -94q0 -76 58 -76z" />
    <glyph glyph-name="guilsinglleft" unicode="&#x2039;" horiz-adv-x="278" 
d="M210 103h-82l-65 156l110 149h83l-96 -139q-8 -10 -4 -19z" />
    <glyph glyph-name="guilsinglright" unicode="&#x203a;" horiz-adv-x="278" 
d="M132 103h-85l96 145q6 10 3 19l-55 141h82l66 -153z" />
    <glyph glyph-name="fraction" unicode="&#x2044;" horiz-adv-x="205" 
d="M-58 -12h-85l459 736h84z" />
    <glyph glyph-name="zerosuperior" unicode="&#x2070;" horiz-adv-x="414" 
d="M227 342q-141 0 -141 151q0 32 7 83q15 110 62.5 167t142.5 57q137 0 137 -148q0 -29 -7 -80q-16 -116 -61 -173t-140 -57zM236 403q48 0 70 39.5t35 128.5q8 54 8 87q0 79 -60 79q-48 0 -70.5 -38.5t-37.5 -126.5q-8 -51 -8 -85q0 -42 14 -63t49 -21z" />
    <glyph glyph-name="foursuperior" unicode="&#x2074;" horiz-adv-x="389" 
d="M321 350h-77l12 84h-198l7 56l214 298h104l-41 -290h56l-8 -65h-57zM264 498l29 203l-147 -203h118z" />
    <glyph glyph-name="fivesuperior" unicode="&#x2075;" horiz-adv-x="355" 
d="M378 724h-180l-29 -124q42 27 90 27q53 0 82 -30t29 -85q0 -74 -48 -122t-132 -48q-102 0 -153 58l51 50q40 -43 103 -43q39 0 67 24t28 71q0 64 -59 64q-43 0 -79 -32l-53 23l48 232h244z" />
    <glyph glyph-name="sixsuperior" unicode="&#x2076;" horiz-adv-x="393" 
d="M434 755l-43 -48q-34 30 -77 30q-51 0 -83.5 -44t-42.5 -101q57 32 109 32q50 0 79 -30t29 -84q0 -78 -47 -123t-123 -45q-72 0 -104 46.5t-32 120.5q0 45 11.5 92t35.5 93t68 75.5t101 29.5q74 0 119 -44zM183 537q-2 -18 -2 -38q0 -96 63 -96q37 0 57.5 28t20.5 72
q0 63 -52 63q-41 0 -87 -29z" />
    <glyph glyph-name="sevensuperior" unicode="&#x2077;" horiz-adv-x="364" 
d="M209 350h-89q27 119 86.5 220.5t113.5 153.5h-147q-7 0 -10 -8l-17 -53l-57 -4l19 130h315l-8 -58q-67 -58 -128 -170t-78 -211z" />
    <glyph glyph-name="eightsuperior" unicode="&#x2078;" horiz-adv-x="363" 
d="M311 579q65 -40 65 -100q0 -63 -51.5 -100t-125.5 -37q-63 0 -98 26.5t-35 74.5q0 44 25.5 76t72.5 66q-50 34 -50 86q0 58 45.5 93.5t112.5 35.5q56 0 88.5 -25t32.5 -67q0 -37 -20.5 -66.5t-61.5 -62.5zM212 553q-73 -54 -73 -101q0 -22 17 -38t51 -16q40 0 62.5 21.5
t22.5 50.5q0 25 -19 43.5t-61 39.5zM258 607q64 54 64 91q0 46 -56 46q-33 0 -52 -18t-19 -43q0 -23 14.5 -40t48.5 -36z" />
    <glyph glyph-name="ninesuperior" unicode="&#x2079;" horiz-adv-x="401" 
d="M77 389l43 50q40 -35 87 -35q91 0 112 132q-47 -31 -99 -31q-53 0 -84.5 30.5t-31.5 88.5q0 81 48 128.5t124 47.5q136 0 136 -171q0 -45 -8.5 -89.5t-29.5 -91.5t-63.5 -76.5t-102.5 -29.5q-38 0 -74 13t-57 34zM325 595q3 21 3 44q0 20 -2 35t-7.5 31.5t-18.5 25.5
t-33 9q-37 0 -57 -30t-20 -75q0 -70 55 -70q41 0 80 30z" />
    <glyph glyph-name="plussuperior" unicode="&#x207a;" horiz-adv-x="314" 
d="M227 443h-69l13 96h-93l10 65h93l12 93h70l-13 -93h93l-9 -65h-93z" />
    <glyph glyph-name="minussuperior" unicode="&#x207b;" horiz-adv-x="314" 
d="M334 539h-256l10 65h255z" />
    <glyph glyph-name="equalsuperior" unicode="&#x207c;" horiz-adv-x="314" 
d="M322 458h-254l10 66h254zM339 574h-254l9 66h254z" />
    <glyph glyph-name="parenleftsuperior" unicode="&#x207d;" horiz-adv-x="253" 
d="M238 298l-69 -36q-67 110 -67 241q0 170 158 343l57 -37q-67 -84 -97 -155.5t-30 -156.5q0 -100 48 -199z" />
    <glyph glyph-name="parenrightsuperior" unicode="&#x207e;" horiz-adv-x="244" 
d="M78 262l-56 38q67 82 97 153.5t30 157.5q0 97 -49 198l70 37q66 -110 66 -240q0 -171 -158 -344z" />
    <glyph glyph-name="zeroinferior" unicode="&#x2080;" horiz-adv-x="414" 
d="M162 -155q-141 0 -141 151q0 32 7 83q15 110 62.5 167t142.5 57q137 0 137 -148q0 -29 -7 -80q-16 -116 -61 -173t-140 -57zM171 -94q48 0 70 39.5t35 128.5q8 54 8 87q0 79 -60 79q-48 0 -70.5 -38.5t-37.5 -126.5q-8 -51 -8 -85q0 -42 14 -63t49 -21z" />
    <glyph glyph-name="oneinferior" unicode="&#x2081;" horiz-adv-x="277" 
d="M228 -147h-221l6 45l58 5q12 1 13 13l45 307q3 12 -7 14l-59 11l9 45h151l-55 -378q-1 -8 0 -10t9 -3l57 -5z" />
    <glyph glyph-name="twoinferior" unicode="&#x2082;" horiz-adv-x="347" 
d="M282 -147h-308l7 51l148 151q6 6 19 19.5t18 18.5t15 16t14 16.5t11.5 14.5t10 15t6.5 13.5t5 15t1 14.5q0 45 -55 45q-38 0 -56 -13.5t-24 -49.5l-78 8q6 36 21.5 59.5t40 35t49 16t57.5 4.5q130 0 130 -98q0 -28 -17 -59.5t-33 -50t-51 -53.5l-131 -134h130q8 0 11 8
l16 51h60z" />
    <glyph glyph-name="threeinferior" unicode="&#x2083;" horiz-adv-x="354" 
d="M225 89l-1 -3q34 -8 53 -31.5t19 -60.5q0 -67 -48 -108t-127 -41q-100 0 -150 60l51 50q40 -45 102 -45q37 0 62 20.5t25 61.5q0 62 -69 62q-22 0 -49 -4l8 58l38 4q93 9 93 83q0 47 -54 47q-33 0 -49 -12.5t-21 -49.5l-80 8q9 67 52 91t107 24q129 0 129 -97
q0 -44 -25.5 -74t-65.5 -43z" />
    <glyph glyph-name="fourinferior" unicode="&#x2084;" horiz-adv-x="389" 
d="M256 -147h-77l12 84h-198l7 56l214 298h104l-41 -290h56l-8 -65h-57zM199 1l29 203l-147 -203h118z" />
    <glyph glyph-name="fiveinferior" unicode="&#x2085;" horiz-adv-x="355" 
d="M313 227h-180l-29 -124q42 27 90 27q53 0 82 -30t29 -85q0 -75 -47.5 -122.5t-132.5 -47.5q-102 0 -153 58l51 50q40 -43 103 -43q39 0 67 24t28 71q0 64 -59 64q-43 0 -79 -32l-53 23l48 232h244z" />
    <glyph glyph-name="sixinferior" unicode="&#x2086;" horiz-adv-x="393" 
d="M369 258l-43 -48q-34 30 -77 30q-51 0 -83.5 -44t-42.5 -101q57 32 109 32q50 0 79 -30t29 -84q0 -78 -47 -123t-123 -45q-72 0 -104 46.5t-32 120.5q0 45 11.5 92t35.5 93t68 75.5t101 29.5q74 0 119 -44zM118 40q-2 -18 -2 -38q0 -96 63 -96q37 0 57.5 28t20.5 72
q0 63 -52 63q-41 0 -87 -29z" />
    <glyph glyph-name="seveninferior" unicode="&#x2087;" horiz-adv-x="364" 
d="M144 -147h-89q27 119 86.5 220.5t113.5 153.5h-147q-7 0 -10 -8l-17 -53l-57 -4l19 130h315l-8 -58q-67 -58 -128 -170t-78 -211z" />
    <glyph glyph-name="eightinferior" unicode="&#x2088;" horiz-adv-x="363" 
d="M246 82q65 -40 65 -100q0 -63 -51.5 -100t-125.5 -37q-63 0 -98 26.5t-35 74.5q0 44 25.5 76t72.5 66q-50 34 -50 86q0 58 45.5 93.5t112.5 35.5q56 0 88.5 -25t32.5 -67q0 -37 -20.5 -66.5t-61.5 -62.5zM147 56q-73 -54 -73 -101q0 -22 17 -38t51 -16q40 0 62.5 21.5
t22.5 50.5q0 25 -19 43.5t-61 39.5zM193 110q64 54 64 91q0 46 -56 46q-33 0 -52 -18t-19 -43q0 -23 14.5 -40t48.5 -36z" />
    <glyph glyph-name="nineinferior" unicode="&#x2089;" horiz-adv-x="401" 
d="M12 -108l43 50q40 -35 87 -35q91 0 112 132q-47 -31 -99 -31q-53 0 -84.5 30.5t-31.5 88.5q0 81 48 128.5t124 47.5q136 0 136 -171q0 -45 -8.5 -89.5t-29.5 -91.5t-63.5 -76.5t-102.5 -29.5q-38 0 -74 13t-57 34zM260 98q3 21 3 44q0 20 -2 35t-7.5 31.5t-18.5 25.5
t-33 9q-37 0 -57 -30t-20 -75q0 -70 55 -70q41 0 80 30z" />
    <glyph glyph-name="parenleftinferior" unicode="&#x208d;" horiz-adv-x="253" 
d="M173 -199l-69 -36q-67 110 -67 241q0 170 158 343l57 -37q-67 -84 -97 -155.5t-30 -156.5q0 -100 48 -199z" />
    <glyph glyph-name="parenrightinferior" unicode="&#x208e;" horiz-adv-x="244" 
d="M13 -235l-56 38q67 82 97 153.5t30 157.5q0 96 -49 198l70 37q66 -110 66 -240q0 -171 -158 -344z" />
    <glyph glyph-name="Euro" unicode="&#x20ac;" horiz-adv-x="522" 
d="M343 217h-163q14 -158 134 -158q47 0 74 10q10 4 13 16l23 77l62 4l-19 -145q-71 -33 -167 -33q-99 0 -152.5 58.5t-60.5 170.5h-85l19 62h65q2 36 6 69h-54l19 62h48q33 119 112.5 178.5t183.5 59.5q91 0 149 -34l-21 -145l-60 5l-3 77q0 12 -12 16q-26 8 -67 8
q-64 0 -113.5 -41.5t-74.5 -123.5h198l-18 -62h-194q-5 -33 -6 -69h182z" />
    <glyph glyph-name="afii61352" unicode="&#x2116;" horiz-adv-x="1120" 
d="M606 0h-100l-242 527l-62 -445q-2 -12 0 -15.5t13 -4.5l66 -8l-7 -54h-240l7 54l64 7q11 2 14.5 5.5t4.5 14.5l65 466q2 12 -0.5 15.5t-12.5 4.5l-62 7l8 55h193l231 -512l59 431q2 12 -0.5 15.5t-12.5 4.5l-62 7l8 54h239l-8 -54l-68 -8q-11 -1 -14 -4.5t-5 -14.5z
M711 110l10 73h308l-10 -73h-308zM882 224q-74 0 -110 38t-36 100q0 94 50.5 151.5t141.5 57.5q142 0 142 -142q0 -94 -49 -149.5t-139 -55.5zM890 281q47 0 74.5 37.5t28.5 111.5q0 83 -73 83q-48 0 -77.5 -37t-29.5 -108q0 -87 77 -87z" />
    <glyph glyph-name="trademark" unicode="&#x2122;" horiz-adv-x="830" 
d="M349 348h-183v37l60 5v287h-85l-9 -54h-36v101h320v-101h-37l-8 54h-86v-287l64 -5v-37zM880 348h-146v36l47 5v223l-96 -183h-46l-94 184v-224l50 -5v-36h-146v36l40 5v291l-40 5v39h99l116 -233l119 233h95v-39l-42 -5v-291l44 -5v-36z" />
    <glyph glyph-name="Omega" unicode="&#x2126;" horiz-adv-x="845" 
d="M749 0h-284l22 150q35 13 69 36t68.5 59t56 91t21.5 119q0 99 -55 152t-150 53q-130 0 -209 -76t-79 -216q0 -83 37 -138t100 -80l-22 -150h-290l23 160h65l4 -79q0 -7 2.5 -9t11.5 -2h120l8 50q-74 32 -114 98t-40 149q0 163 107.5 266.5t283.5 103.5q144 0 218 -74.5
t74 -198.5q0 -121 -67.5 -210.5t-174.5 -134.5l-7 -49h114q14 0 18 11l26 79h66z" />
    <glyph glyph-name="onethird" unicode="&#x2153;" horiz-adv-x="895" 
d="M295 281h-221l6 45l58 5q12 1 13 13l45 307q3 12 -7 14l-59 11l9 45h151l-55 -378q-1 -8 0 -10t9 -3l57 -5zM241 -12h-85l459 736h84zM735 236l-1 -3q34 -8 53 -31.5t19 -60.5q0 -67 -48 -108t-127 -41q-100 0 -150 60l51 50q40 -45 102 -45q37 0 62 20.5t25 61.5
q0 62 -69 62q-22 0 -49 -4l8 58l38 4q93 9 93 83q0 47 -54 47q-33 0 -49 -12.5t-21 -49.5l-80 8q9 67 52 91t107 24q129 0 129 -97q0 -44 -25.5 -74t-65.5 -43z" />
    <glyph glyph-name="twothirds" unicode="&#x2154;" horiz-adv-x="895" 
d="M350 281h-308l7 51l148 151q6 6 19 19.5t18 18.5t15 16t14 16.5t11.5 14.5t10 15t6.5 13.5t5 15t1 14.5q0 45 -55 45q-38 0 -56 -13.5t-24 -49.5l-78 8q6 36 21.5 59.5t40 35t49 16t57.5 4.5q130 0 130 -98q0 -28 -17 -59.5t-33 -50t-51 -53.5l-131 -134h130q8 0 11 8
l16 51h60zM288 -12h-85l459 736h84zM770 236l-1 -3q34 -8 53 -31.5t19 -60.5q0 -67 -48 -108t-127 -41q-100 0 -150 60l51 50q40 -45 102 -45q37 0 62 20.5t25 61.5q0 62 -69 62q-22 0 -49 -4l8 58l38 4q93 9 93 83q0 47 -54 47q-33 0 -49 -12.5t-21 -49.5l-80 8q9 67 52 91
t107 24q129 0 129 -97q0 -44 -25.5 -74t-65.5 -43z" />
    <glyph glyph-name="oneeighth" unicode="&#x215b;" horiz-adv-x="895" 
d="M300 281h-221l6 45l58 5q12 1 13 13l45 307q3 12 -7 14l-59 11l9 45h151l-55 -378q-1 -8 0 -10t9 -3l57 -5zM256 -12h-85l459 736h84zM757 229q65 -40 65 -100q0 -63 -51.5 -100t-125.5 -37q-63 0 -98 26.5t-35 74.5q0 44 25.5 76t72.5 66q-50 34 -50 86q0 58 45.5 93.5
t112.5 35.5q56 0 88.5 -25t32.5 -67q0 -37 -20.5 -66.5t-61.5 -62.5zM658 203q-73 -54 -73 -101q0 -22 17 -38t51 -16q40 0 62.5 21.5t22.5 50.5q0 25 -19 43.5t-61 39.5zM704 257q64 54 64 91q0 46 -56 46q-33 0 -52 -18t-19 -43q0 -23 14.5 -40t48.5 -36z" />
    <glyph glyph-name="threeeighths" unicode="&#x215c;" horiz-adv-x="895" 
d="M306 517l-1 -3q34 -8 53 -31.5t19 -60.5q0 -67 -48 -108t-127 -41q-100 0 -150 60l51 50q40 -45 102 -45q37 0 62 20.5t25 61.5q0 62 -69 62q-22 0 -49 -4l8 58l38 4q93 9 93 83q0 47 -54 47q-33 0 -49 -12.5t-21 -49.5l-80 8q9 67 52 91t107 24q129 0 129 -97
q0 -44 -25.5 -74t-65.5 -43zM294 -12h-85l459 736h84zM787 229q65 -40 65 -100q0 -63 -51.5 -100t-125.5 -37q-63 0 -98 26.5t-35 74.5q0 44 25.5 76t72.5 66q-50 34 -50 86q0 58 45.5 93.5t112.5 35.5q56 0 88.5 -25t32.5 -67q0 -37 -20.5 -66.5t-61.5 -62.5zM688 203
q-73 -54 -73 -101q0 -22 17 -38t51 -16q40 0 62.5 21.5t22.5 50.5q0 25 -19 43.5t-61 39.5zM734 257q64 54 64 91q0 46 -56 46q-33 0 -52 -18t-19 -43q0 -23 14.5 -40t48.5 -36z" />
    <glyph glyph-name="fiveeighths" unicode="&#x215d;" horiz-adv-x="895" 
d="M381 655h-180l-29 -124q42 27 90 27q53 0 82 -30t29 -85q0 -75 -47.5 -122.5t-132.5 -47.5q-102 0 -153 58l51 50q40 -43 103 -43q39 0 67 24t28 71q0 64 -59 64q-43 0 -79 -32l-53 23l48 232h244zM279 -12h-85l459 736h84zM768 229q65 -40 65 -100q0 -63 -51.5 -100
t-125.5 -37q-63 0 -98 26.5t-35 74.5q0 44 25.5 76t72.5 66q-50 34 -50 86q0 58 45.5 93.5t112.5 35.5q56 0 88.5 -25t32.5 -67q0 -37 -20.5 -66.5t-61.5 -62.5zM669 203q-73 -54 -73 -101q0 -22 17 -38t51 -16q40 0 62.5 21.5t22.5 50.5q0 25 -19 43.5t-61 39.5zM715 257
q64 54 64 91q0 46 -56 46q-33 0 -52 -18t-19 -43q0 -23 14.5 -40t48.5 -36z" />
    <glyph glyph-name="seveneighths" unicode="&#x215e;" horiz-adv-x="895" 
d="M204 281h-89q27 119 86.5 220.5t113.5 153.5h-147q-7 0 -10 -8l-17 -53l-57 -4l19 130h315l-8 -58q-67 -58 -128 -170t-78 -211zM222 -12h-85l459 736h84zM738 229q65 -40 65 -100q0 -63 -51.5 -100t-125.5 -37q-63 0 -98 26.5t-35 74.5q0 44 25.5 76t72.5 66
q-50 34 -50 86q0 58 45.5 93.5t112.5 35.5q56 0 88.5 -25t32.5 -67q0 -37 -20.5 -66.5t-61.5 -62.5zM639 203q-73 -54 -73 -101q0 -22 17 -38t51 -16q40 0 62.5 21.5t22.5 50.5q0 25 -19 43.5t-61 39.5zM685 257q64 54 64 91q0 46 -56 46q-33 0 -52 -18t-19 -43
q0 -23 14.5 -40t48.5 -36z" />
    <glyph glyph-name="partialdiff" unicode="&#x2202;" horiz-adv-x="575" 
d="M444 349q11 41 11 118q0 59 -25 96t-81 37q-78 0 -158 -51l-31 61q100 63 207 63q91 0 133 -58.5t42 -158.5q0 -58 -8.5 -117t-30.5 -123.5t-56 -114t-90.5 -81.5t-128.5 -32q-85 0 -129 44.5t-44 121.5q0 111 65.5 184.5t170.5 73.5q90 0 153 -63zM429 276
q-60 65 -134 65q-50 0 -84.5 -29.5t-48 -68t-13.5 -81.5q0 -46 22.5 -74.5t66.5 -28.5q42 0 77 21t57 55.5t35.5 69t21.5 71.5z" />
    <glyph glyph-name="Delta" unicode="&#x2206;" horiz-adv-x="670" 
d="M632 0h-622l352 724h116zM514 76l-106 565l-271 -565h377z" />
    <glyph glyph-name="product" unicode="&#x220f;" horiz-adv-x="776" 
d="M684 -176h-254l7 50l64 7q11 2 14.5 5.5t4.5 14.5l105 752h-344l-105 -751q-2 -12 0 -15.5t13 -4.5l66 -8l-7 -50h-254l7 50l64 7q11 2 14.5 5.5t4.5 14.5l104 743q2 11 -1 15t-13 5l-62 7l8 53h690l-8 -53l-68 -8q-11 -1 -13.5 -4t-4.5 -15l-104 -742q-2 -12 0 -15.5
t13 -4.5l66 -8z" />
    <glyph glyph-name="summation" unicode="&#x2211;" horiz-adv-x="627" 
d="M528 -176h-554l8 59l290 396l-162 389l8 56h528l-23 -165l-67 4l-3 77q-1 13 -16 13h-321l151 -371l-277 -381h349q14 0 18 11l28 87h67z" />
    <glyph glyph-name="minus" unicode="&#x2212;" 
d="M489 281h-377l11 81h377z" />
    <glyph glyph-name="uni2215" unicode="&#x2215;" horiz-adv-x="454" 
d="M110 -17h-83l404 648h82z" />
    <glyph glyph-name="uni2219" unicode="&#x2219;" horiz-adv-x="194" 
d="M196 321q0 -34 -19.5 -55t-56.5 -21q-58 0 -58 49q0 35 19 56t57 21q58 0 58 -50z" />
    <glyph glyph-name="radical" unicode="&#x221a;" horiz-adv-x="563" 
d="M339 0h-95l-97 227q-5 12 -17 8l-65 -18l-17 56l144 65l100 -244l265 650l77 -19z" />
    <glyph glyph-name="infinity" unicode="&#x221e;" horiz-adv-x="671" 
d="M212 457q83 0 146 -78q74 78 153 78q56 0 93 -34t37 -99q0 -60 -39.5 -100t-102.5 -40q-82 0 -149 78q-68 -78 -145 -78q-61 0 -100 33.5t-39 98.5q0 60 41.5 100.5t104.5 40.5zM206 244q50 0 107 72q-56 79 -111 79q-30 0 -48.5 -22t-18.5 -52q0 -32 17 -54.5t54 -22.5z
M503 398q-31 0 -55 -18.5t-53 -54.5q59 -76 111 -76q30 0 48.5 21t18.5 52t-17.5 53.5t-52.5 22.5z" />
    <glyph glyph-name="integral" unicode="&#x222b;" horiz-adv-x="508" 
d="M109 -168l21 69q33 -18 73 -18q64 0 58 70l-54 633q-6 73 33.5 107t100.5 34q50 0 102 -20l-20 -71q-35 18 -73 18q-63 0 -58 -67l54 -635q6 -74 -33 -107.5t-100 -33.5q-53 0 -104 21z" />
    <glyph glyph-name="approxequal" unicode="&#x2248;" horiz-adv-x="530" 
d="M441 338l50 -16q-19 -52 -43 -80t-67 -28q-38 0 -114.5 22t-104.5 22q-21 0 -36.5 -11.5t-37.5 -39.5l-47 22q31 52 58.5 76.5t68.5 24.5q40 0 113 -22t103 -22q21 0 31.5 11.5t25.5 40.5zM466 513l51 -16q-20 -52 -44 -79.5t-66 -27.5q-38 0 -115.5 21.5t-105.5 21.5
q-21 0 -36 -11t-37 -40l-48 22q31 51 59 76t69 25q39 0 112 -22t103 -22q21 0 32.5 11.5t25.5 40.5z" />
    <glyph glyph-name="notequal" unicode="&#x2260;" 
d="M463 159h-201l-64 -109h-80l65 109h-94l12 83h132l47 79h-168l11 83h207l57 95h76l-56 -95h90l-11 -83h-128l-47 -79h164z" />
    <glyph glyph-name="lessequal" unicode="&#x2264;" 
d="M465 106l-357 145l14 100l392 154l8 -79l-326 -123l296 -120zM451 0h-377l11 80h377z" />
    <glyph glyph-name="greaterequal" unicode="&#x2265;" 
d="M481 251l-397 -145l-3 80l328 120l-291 122l28 77l350 -154zM446 0h-377l11 80h377z" />
    <glyph glyph-name="triangle" unicode="&#x25b3;" horiz-adv-x="425" 
d="M352 320l-185 -117v231z" />
    <glyph glyph-name="lozenge" unicode="&#x25ca;" horiz-adv-x="538" 
d="M278 -17h-74l-111 324l202 324h74l111 -324zM253 68l148 239l-81 236l-147 -236z" />
    <glyph glyph-name="circle" unicode="&#x25cb;" horiz-adv-x="610" 
d="M325 119q-85 0 -145 60t-60 145t60 145t145 60t145 -60t60 -145t-60 -145t-145 -60z" />
    <glyph glyph-name="tbar.smcp" unicode="&#xf629;" horiz-adv-x="520" 
d="M385 0h-278l7 46l79 6q4 0 6 1t4 3t2.5 4.5t1.5 6.5l23 167h-102l7 57h103l27 197h-107q-11 0 -13 -8l-23 -68h-61l19 141h476l-19 -141h-62l-3 68q0 8 -11 8h-107l-27 -197h103l-7 -57h-104l-22 -167q-2 -7 -0.5 -10t9.5 -4l85 -7z" />
    <glyph glyph-name="st" unicode="&#xfb06;" horiz-adv-x="831" 
d="M766 82l16 -63q-69 -31 -141 -31q-121 0 -121 99q0 33 6 71l68 474q-41 13 -78 13q-32 0 -46.5 -14t-21.5 -51q-13 -79 -30 -212l-63 4l-3 62q-1 16 -15 19q-25 7 -65 7q-47 0 -77.5 -19.5t-30.5 -57.5q0 -33 24.5 -51t79.5 -38q30 -11 49 -20.5t41 -26t33 -41t11 -56.5
q0 -81 -57.5 -121.5t-143.5 -40.5q-62 0 -112.5 11t-67.5 22l19 127l62 -4l3 -65q0 -11 12 -16q31 -13 89 -13q50 0 80 23t30 63q0 39 -26 57.5t-83 36.5q-59 18 -93.5 48.5t-34.5 86.5q0 80 57.5 119.5t146.5 39.5q32 0 82 -9q4 42 7.5 64t13 52t24 44t40.5 24.5t63 10.5
q73 0 175 -31l-21 -155q-1 -6 0.5 -8t7.5 -2h142l-10 -69h-152l-40 -295q-3 -21 -3 -36q0 -28 13.5 -40.5t47.5 -12.5q40 0 93 21z" />
    <glyph glyph-name="CR" horiz-adv-x="500" 
 />
    <glyph glyph-name="hyphen.case" horiz-adv-x="311" 
d="M315 307h-271l13 89h271z" />
    <glyph glyph-name="ct" horiz-adv-x="866" 
d="M801 82l16 -63q-69 -31 -141 -31q-122 0 -122 100q0 16 4 46l70 499q-43 12 -71 12q-35 0 -47.5 -23t-23.5 -96q-3 -16 -21 -166l-63 3l-3 66q0 12 -14 16q-23 7 -60 7q-79 0 -133.5 -60t-54.5 -184q0 -148 126 -148q76 0 140 35l20 -65q-69 -42 -173 -42
q-105 0 -155.5 55.5t-50.5 153.5q0 164 83.5 245.5t212.5 81.5q40 0 72 -8q4 41 7 63.5t12 51.5t22 43.5t37 25t58 10.5q74 0 175 -31l-21 -155q-1 -10 6 -10h144l-10 -69h-152l-40 -295q-3 -21 -3 -36q0 -28 13.5 -40.5t47.5 -12.5q40 0 93 21z" />
    <glyph glyph-name="ch" horiz-adv-x="1091" 
d="M403 95l20 -65q-69 -42 -173 -42q-105 0 -155.5 55.5t-50.5 153.5q0 164 83.5 245.5t212.5 81.5q40 0 68 -6q3 40 6 64t8.5 54.5t13 47.5t20.5 36t30.5 28t43 15.5t57.5 6.5q71 0 155 -20l-46 -333q41 34 65.5 52.5t65.5 36.5t78 18q113 0 115 -117q0 -29 -5 -62
l-38 -268q-2 -12 0.5 -15.5t13.5 -4.5l55 -8l-7 -49h-163l-2 3l18 99l31 222q5 30 5 59q0 63 -47 63q-64 0 -195 -115l-35 -254q-2 -12 0.5 -15.5t13.5 -4.5l62 -8l-7 -49h-233l7 50l49 7q11 2 14.5 5t4.5 15l86 619q-32 7 -66 7q-47 0 -64 -28t-27 -102q-4 -32 -8 -67.5
t-8.5 -78.5t-7.5 -67l-65 3l-3 64q0 13 -12 17q-22 8 -62 8q-78 0 -133 -60t-55 -184q0 -148 126 -148q76 0 140 35z" />
    <glyph glyph-name="ck" horiz-adv-x="1053" 
d="M1013 0h-142l-3 3l-35 100l-70 169l-100 -95l-14 -100q-2 -12 0 -15.5t13 -4.5l63 -8l-7 -49h-231l7 50l50 7q10 2 13.5 5.5t4.5 14.5l85 619q-31 7 -65 7q-48 0 -64.5 -28t-26.5 -102q-17 -135 -24 -213l-65 3l-3 64q-1 15 -9 17q-24 8 -65 8q-79 0 -133.5 -60
t-54.5 -184q0 -148 126 -148q76 0 140 35l20 -65q-69 -42 -173 -42q-105 0 -155.5 55.5t-50.5 153.5q0 164 83.5 245.5t212.5 81.5q36 0 68 -8q4 48 7 74.5t10.5 60.5t19 52t30 35.5t46.5 24.5t66 7q79 0 157 -21l-67 -470l204 195q29 27 54 38.5t59 11.5q23 0 44 -4l-8 -60
q-31 1 -54 -8t-53 -38l-86 -83l102 -257q4 -8 8.5 -11t18.5 -5l54 -9z" />
    <glyph glyph-name="Th" horiz-adv-x="1128" 
d="M1076 0h-163l-2 3l18 99l31 222q5 30 5 59q0 63 -47 63q-64 0 -195 -115l-35 -254q-2 -12 0.5 -15.5t13.5 -4.5l62 -8l-7 -49h-233l7 50l49 7q11 2 14.5 5t4.5 15l80 576h-247l-80 -574q-2 -11 0 -14.5t13 -4.5l110 -8l-7 -52h-337l7 52l104 7q11 1 14.5 4t4.5 16l80 574
h-154q-14 0 -17 -11l-28 -87h-64l24 169h574q13 0 17 11l7 20h81l-48 -338q41 34 65.5 52.5t65.5 36.5t78 18q113 0 115 -117q0 -29 -5 -62l-38 -268q-2 -12 0.5 -15.5t13.5 -4.5l55 -8z" />
    <glyph glyph-name="hyphensuperior" horiz-adv-x="220" 
d="M245 501h-181l10 72h182z" />
    <glyph glyph-name="commasuperior" horiz-adv-x="126" 
d="M80 274l-38 11l30 69q1 5 -3 8l-25 9l25 63q38 -1 57.5 -8.5t19.5 -31.5q0 -16 -18 -48z" />
    <glyph glyph-name="periodsuperior" horiz-adv-x="142" 
d="M159 397q0 -55 -58 -55q-45 0 -45 33q0 60 59 60q44 0 44 -38z" />
    <glyph glyph-name="a.sup" horiz-adv-x="393" 
d="M402 350h-108l7 56l-2 1q-67 -65 -125 -65q-101 0 -101 125q0 54 15 102t54.5 84t97.5 36q54 0 94 -36l12 30h67q-15 -67 -17 -81l-29 -197q-1 -7 0 -9t9 -3l32 -5zM304 470l20 131q-32 30 -75 30q-36 0 -59.5 -28t-32 -61.5t-8.5 -67.5q0 -70 51 -70q40 0 104 66z" />
    <glyph glyph-name="b.sup" horiz-adv-x="392" 
d="M151 350h-73q15 48 22 93l49 332q2 11 -6 13l-36 11l5 37h118l-31 -209l1 -1q72 63 127 63q94 0 94 -124q0 -57 -15.5 -105.5t-51.5 -82t-87 -33.5q-52 0 -105 39h-3zM192 563l-20 -127q43 -36 81 -36q45 0 68 47t23 105q0 74 -46 74q-40 0 -106 -63z" />
    <glyph glyph-name="c.sup" horiz-adv-x="329" 
d="M319 420l14 -48q-49 -30 -119 -30q-72 0 -106.5 36t-34.5 100q0 105 56 158t143 53q68 0 102 -23l-13 -91l-51 3l-2 42q0 7 -7 10q-15 5 -39 5q-47 0 -79.5 -36.5t-32.5 -111.5q0 -88 78 -88q45 0 91 21z" />
    <glyph glyph-name="d.sup" horiz-adv-x="395" 
d="M403 350h-109l7 54l-2 1q-33 -31 -61.5 -47t-62.5 -16q-102 0 -102 125q0 52 14 99.5t54 85t99 37.5q53 0 93 -31l16 118q2 11 -7 13l-35 10l6 37h117l-63 -431q-1 -7 0 -9t9 -3l32 -5zM304 470l21 131q-32 30 -76 30q-52 0 -76 -50.5t-24 -109.5q0 -67 46 -67
q45 0 109 66z" />
    <glyph glyph-name="e.sup" horiz-adv-x="327" 
d="M322 423l12 -51q-63 -30 -127 -30q-134 0 -134 134q0 93 54 153t136 60q51 0 76 -21.5t25 -57.5q0 -27 -15 -48.5t-36.5 -34.5t-53.5 -23t-56 -14t-54 -8q0 -41 16.5 -62t58.5 -21q40 0 98 24zM153 532q19 2 39 6t44.5 12t40.5 22t16 31q0 31 -39 31q-38 0 -65 -28.5
t-36 -73.5z" />
    <glyph glyph-name="f.sup" horiz-adv-x="267" 
d="M148 213h-75l61 411q1 7 -5 7h-46l8 52h51l8 51q17 109 123 109q64 0 105 -32l-30 -48q-33 24 -69 24q-26 0 -38.5 -12.5t-17.5 -42.5l-7 -43q0 -6 5 -6h106l-7 -52h-112z" />
    <glyph glyph-name="g.sup" horiz-adv-x="385" 
d="M290 338l11 67h-2q-69 -61 -124 -61q-101 0 -101 123q0 54 14 101t53.5 84t98.5 37q55 0 95 -36l12 30h67q-13 -51 -18 -85l-38 -265q-18 -127 -152 -127q-83 0 -136 32l25 48q45 -26 103 -26q81 0 92 78zM305 470l19 131q-28 30 -74 30q-37 0 -60.5 -28.5t-31.5 -62
t-8 -68.5q0 -36 11 -51t34 -15q48 0 110 64z" />
    <glyph glyph-name="h.sup" horiz-adv-x="413" 
d="M426 350h-120l-1 2l12 74l21 155q3 24 -2 35.5t-24 11.5q-32 0 -114 -65l-23 -157q-1 -8 0.5 -10t8.5 -3l38 -5l-5 -38h-165l6 39l31 4q7 1 9 3t4 10l53 369q1 12 -6 13l-35 11l5 37h116l-32 -210l2 -1q2 2 18.5 14t20 14t17 11t19.5 11t17 6.5t20.5 6t20.5 1.5
q74 0 77 -74q0 -19 -3 -40l-25 -169q-1 -8 0 -10t9 -3l35 -5z" />
    <glyph glyph-name="i.sup" horiz-adv-x="200" 
d="M176 746q-43 0 -43 40q0 25 15.5 40t41.5 15q43 0 43 -39q0 -24 -15.5 -40t-41.5 -16zM215 350h-125l-1 3l15 79l27 190q2 11 -7 13l-34 10l6 38h116l-38 -277q-1 -8 0.5 -10t8.5 -3l37 -5z" />
    <glyph glyph-name="j.sup" horiz-adv-x="197" 
d="M88 325l44 296q1 12 -6 14l-38 10l6 38h120l-54 -372q-8 -55 -36 -80t-80 -25q-30 0 -56 10t-37 20l28 44q26 -18 56 -18q25 0 36.5 14t16.5 49zM177 746q-43 0 -43 40q0 26 15 40.5t42 14.5q43 0 43 -39q0 -24 -15.5 -40t-41.5 -16z" />
    <glyph glyph-name="k.sup" horiz-adv-x="394" 
d="M416 350h-106l-2 2l-23 67l-43 102l-58 -52l-9 -63q-1 -8 0.5 -10t8.5 -3l38 -5l-4 -38h-166l5 39l32 4q11 1 12 13l54 369q2 11 -7 13l-35 11l6 37h119l-43 -294l124 113q39 35 79 35q16 0 34 -4l-5 -45q-41 0 -72 -28l-50 -47l64 -160q3 -12 16 -13l37 -6z" />
    <glyph glyph-name="l.sup" horiz-adv-x="202" 
d="M213 350h-125l-1 3l15 79l50 343q2 11 -7 14l-34 10l5 37h119l-63 -430q-1 -7 0 -9t9 -4l37 -5z" />
    <glyph glyph-name="m.sup" horiz-adv-x="594" 
d="M607 350h-122l-1 2l12 68l23 158q2 16 2 21q0 25 -24 25q-15 0 -33.5 -10t-29 -18.5t-38.5 -32.5l-23 -157q-1 -8 0.5 -10t8.5 -3l36 -5l-6 -38h-121l-2 1l13 75l23 153q2 12 2 19q0 26 -25 26q-28 0 -104 -61l-22 -157q-1 -8 0.5 -10t8.5 -3l39 -5l-6 -38h-165l5 39
l32 4q11 1 12 13l30 215q2 11 -6 13l-34 11l5 38h113l-9 -59l1 -1q28 22 44 33.5t40 22t46 10.5q68 0 67 -67q26 22 40.5 32.5t40.5 22.5t51 12q65 0 65 -68q0 -25 -3 -45l-25 -170q-1 -8 0.5 -10t8.5 -3l36 -5z" />
    <glyph glyph-name="n.sup" horiz-adv-x="413" 
d="M427 350h-122l-1 2l12 74l23 159q4 16 0 30t-22 14q-24 0 -59.5 -22t-59.5 -44l-22 -157q-1 -8 0.5 -10t8.5 -3l39 -5l-6 -38h-165l5 39l32 4q11 1 12 13l30 215q1 12 -6 13l-34 11l5 38h113l-9 -59l1 -1q82 66 139 66q73 0 75 -76q0 -20 -3 -38l-25 -169q-1 -8 0 -10
t9 -3l35 -5z" />
    <glyph glyph-name="o.sup" horiz-adv-x="376" 
d="M218 342q-74 0 -110 38t-36 100q0 94 50.5 151.5t141.5 57.5q142 0 142 -142q0 -94 -49 -149.5t-139 -55.5zM226 398q47 0 74.5 38t28.5 112q0 85 -73 85q-48 0 -77.5 -37.5t-29.5 -109.5q0 -88 77 -88z" />
    <glyph glyph-name="p.sup" horiz-adv-x="395" 
d="M218 213h-149l-2 3l20 108l42 297q2 12 -7 13l-34 11l5 38h114l-8 -57h1q73 63 129 63q96 0 96 -126q0 -93 -41.5 -156.5t-116.5 -63.5q-49 0 -99 37l-16 -110q-1 -10 9 -11l63 -6zM195 563l-19 -127q38 -36 80 -36q45 0 68 47.5t23 104.5q0 74 -43 74q-41 0 -109 -63z
" />
    <glyph glyph-name="q.sup" horiz-adv-x="385" 
d="M384 213h-175l6 40l53 5q12 1 13 13l21 135q-40 -33 -68 -48t-62 -15q-51 0 -75 34.5t-24 89.5q0 56 15.5 103.5t54 82.5t95.5 35q55 0 97 -35l11 30h68q-14 -47 -19 -85l-46 -328q-1 -7 0.5 -9t8.5 -3l32 -4zM305 470l20 131q-32 30 -76 30q-52 0 -76 -50.5t-24 -108.5
q0 -68 47 -68q45 0 109 66z" />
    <glyph glyph-name="r.sup" horiz-adv-x="299" 
d="M241 350h-188l5 39l33 4q10 1 11 13l31 215q1 11 -7 13l-34 11l5 38h112l-9 -63h1q50 69 109 69q30 0 46 -6l-14 -105l-58 3l-2 40q0 6 -7 6q-24 0 -75 -56l-24 -165q-1 -7 0.5 -9.5t9.5 -3.5l61 -5z" />
    <glyph glyph-name="s.sup" horiz-adv-x="307" 
d="M333 585l-51 3l-3 35q-2 11 -9 13q-15 5 -41 5q-28 0 -46.5 -11t-18.5 -32q0 -19 13 -28.5t43 -20.5t41.5 -16t30 -16.5t25.5 -28t7 -39.5q0 -52 -40 -79.5t-103 -27.5q-41 0 -76 8t-46 15l12 83l53 -3v-39q0 -9 9 -12q17 -6 54 -6q32 0 50 13.5t18 37.5q0 19 -14 29.5
t-47 21.5l-30 10t-25 11t-25 17t-13 23.5t-7 34.5q0 51 41.5 77t101.5 26q72 0 108 -18z" />
    <glyph glyph-name="t.sup" horiz-adv-x="274" 
d="M279 411l10 -47q-48 -22 -100 -22q-86 0 -86 70q0 7 2 23l27 189q2 7 -5 7h-47l8 46q39 6 59.5 26t32.5 68h48l-13 -82q0 -6 4 -6h95l-7 -52h-100l-25 -176q-2 -18 -2 -22q0 -34 39 -34q24 0 60 12z" />
    <glyph glyph-name="u.sup" horiz-adv-x="412" 
d="M422 350h-114l10 59l-1 1q-80 -67 -140 -67q-74 0 -74 79q0 16 3 36l25 169q1 7 0 9t-9 4l-34 5l6 38h116l2 -3l-31 -208q-3 -21 -3 -28q0 -12 1.5 -18.5t8.5 -12t20 -5.5q42 0 112 62l23 157q1 12 -9 13l-37 5l6 38h120l2 -3l-40 -275q-2 -11 6 -12l36 -5z" />
    <glyph glyph-name="v.sup" horiz-adv-x="376" 
d="M260 350h-87l-64 278q-2 8 -12 11l-27 6l6 38h103l5 -5l10 -68l37 -194l115 223l-44 6l5 38h117l5 -14z" />
    <glyph glyph-name="w.sup" horiz-adv-x="552" 
d="M460 350h-86l-33 243l-98 -243h-91l-43 278q-1 10 -12 11l-27 6l6 38h101l4 -5l5 -56l27 -202l105 259h79l37 -260l98 221l-39 5l6 38h103l5 -12z" />
    <glyph glyph-name="x.sup" horiz-adv-x="381" 
d="M402 350h-98l-6 4l-70 123l-75 -84l40 -6l-5 -37h-149l5 37l33 6q10 2 17 11l105 114l-64 111q-6 9 -14 11l-26 4l5 39h84l5 -4l66 -115l71 76l-34 5l6 38h138l-6 -38l-27 -7q-9 -2 -19 -12l-100 -103l69 -117q5 -11 16 -12l39 -6z" />
    <glyph glyph-name="y.sup" horiz-adv-x="365" 
d="M158 316l22 41l-75 271q-2 10 -11 11l-28 7l7 37h98l4 -5l17 -83l39 -156l105 200l-41 7l5 37h113l6 -14l-199 -369q-27 -51 -54.5 -72.5t-75.5 -21.5q-55 0 -91 30l29 44q28 -19 60 -19q23 0 38 13.5t32 41.5z" />
    <glyph glyph-name="z.sup" horiz-adv-x="336" 
d="M340 350h-283l5 42l220 241h-115q-7 0 -9 -8l-14 -40l-51 -2l13 100h273l-6 -44l-218 -239h123q7 0 9 8l15 46l53 2z" />
    <glyph glyph-name="hypheninferior" horiz-adv-x="220" 
d="M180 4h-181l10 72h182z" />
    <glyph glyph-name="commainferior" horiz-adv-x="126" 
d="M15 -223l-38 11l30 69q1 5 -3 8l-25 9l25 63q38 -1 57.5 -8.5t19.5 -31.5q0 -16 -18 -48z" />
    <glyph glyph-name="periodinferior" horiz-adv-x="142" 
d="M94 -100q0 -55 -58 -55q-45 0 -45 33q0 60 59 60q44 0 44 -38z" />
    <glyph glyph-name="minusinferior" horiz-adv-x="314" 
d="M269 42h-256l10 65h255z" />
    <glyph glyph-name="plusinferior" horiz-adv-x="314" 
d="M162 -54h-69l13 96h-93l10 65h93l12 93h70l-13 -93h93l-9 -65h-93z" />
    <glyph glyph-name="equalinferior" horiz-adv-x="314" 
d="M257 -39h-254l10 66h254zM274 77h-254l9 66h254z" />
    <glyph glyph-name="a.sinf" horiz-adv-x="393" 
d="M337 -147h-108l7 56l-2 1q-67 -65 -125 -65q-101 0 -101 125q0 54 15 102t54.5 84t97.5 36q54 0 94 -36l12 30h67q-15 -68 -17 -81l-29 -197q-1 -7 0 -9t9 -3l32 -5zM239 -27l20 131q-32 30 -75 30q-36 0 -59.5 -28t-32 -61.5t-8.5 -67.5q0 -70 51 -70q40 0 104 66z" />
    <glyph glyph-name="b.sinf" horiz-adv-x="392" 
d="M86 -147h-73q15 48 22 93l49 332q2 10 -6 13l-36 11l5 37h118l-31 -209l1 -1q72 63 127 63q94 0 94 -124q0 -57 -15.5 -105.5t-51.5 -82t-87 -33.5q-52 0 -105 39h-3zM127 66l-20 -127q43 -36 81 -36q45 0 68 47t23 105q0 74 -46 74q-40 0 -106 -63z" />
    <glyph glyph-name="c.sinf" horiz-adv-x="329" 
d="M254 -77l14 -48q-49 -30 -119 -30q-72 0 -106.5 36t-34.5 100q0 105 56 158t143 53q67 0 102 -23l-13 -91l-51 3l-2 42q0 7 -7 10q-15 5 -39 5q-47 0 -79.5 -36.5t-32.5 -111.5q0 -88 78 -88q45 0 91 21z" />
    <glyph glyph-name="d.sinf" horiz-adv-x="395" 
d="M338 -147h-109l7 54l-2 1q-33 -31 -61.5 -47t-62.5 -16q-102 0 -102 125q0 52 14 99.5t54 85t99 37.5q53 0 93 -31l16 118q2 11 -7 13l-35 10l6 37h117l-63 -431q-1 -7 0 -9t9 -3l32 -5zM239 -27l21 131q-32 30 -76 30q-52 0 -76 -50.5t-24 -109.5q0 -67 46 -67
q45 0 109 66z" />
    <glyph glyph-name="e.sinf" horiz-adv-x="327" 
d="M257 -74l12 -51q-63 -30 -127 -30q-134 0 -134 134q0 93 54 153t136 60q51 0 76 -21.5t25 -57.5q0 -27 -15 -48.5t-36.5 -34.5t-53.5 -23t-56 -14t-54 -8q0 -41 16.5 -62t58.5 -21q40 0 98 24zM88 35q19 2 39 6t44.5 12t40.5 22t16 31q0 31 -39 31q-38 0 -65 -28.5
t-36 -73.5z" />
    <glyph glyph-name="f.sinf" horiz-adv-x="267" 
d="M83 -284h-75l61 411q1 7 -5 7h-46l8 52h51l8 51q17 109 123 109q64 0 105 -32l-30 -48q-33 24 -69 24q-26 0 -38.5 -12.5t-17.5 -42.5l-7 -43q0 -6 5 -6h106l-7 -52h-112z" />
    <glyph glyph-name="g.sinf" horiz-adv-x="385" 
d="M225 -159l11 67h-2q-69 -61 -124 -61q-101 0 -101 123q0 54 14 101t53.5 84t98.5 37q55 0 95 -36l12 30h67q-13 -51 -18 -85l-38 -265q-18 -127 -152 -127q-83 0 -136 32l25 48q45 -26 103 -26q81 0 92 78zM240 -27l19 131q-28 30 -74 30q-37 0 -60.5 -28.5t-31.5 -62
t-8 -68.5q0 -36 11 -51t34 -15q48 0 110 64z" />
    <glyph glyph-name="h.sinf" horiz-adv-x="412" 
d="M361 -147h-120l-1 2l12 74l21 155q3 24 -2 35.5t-24 11.5q-32 0 -114 -65l-23 -157q-1 -8 0.5 -10t8.5 -3l38 -5l-5 -38h-165l6 39l31 4q7 1 9 3t4 10l53 369q1 12 -6 13l-35 11l5 37h116l-32 -210l2 -1q2 2 18.5 14t20 14t17 11t19.5 11t17 6.5t20.5 6t20.5 1.5
q74 0 77 -74q0 -19 -3 -40l-25 -169q-1 -8 0 -10t9 -3l35 -5z" />
    <glyph glyph-name="i.sinf" horiz-adv-x="200" 
d="M111 249q-43 0 -43 40q0 25 15.5 40t41.5 15q43 0 43 -39q0 -24 -15.5 -40t-41.5 -16zM150 -147h-125l-1 3l15 79l27 190q2 11 -7 13l-34 10l6 38h116l-38 -277q-1 -8 0.5 -10t8.5 -3l37 -5z" />
    <glyph glyph-name="j.sinf" horiz-adv-x="197" 
d="M23 -172l44 296q1 12 -6 14l-38 10l6 38h120l-54 -372q-8 -55 -36 -80t-80 -25q-30 0 -56 10t-37 20l28 44q26 -18 56 -18q25 0 36.5 14t16.5 49zM112 249q-43 0 -43 40q0 26 15 40.5t42 14.5q43 0 43 -39q0 -24 -15.5 -40t-41.5 -16z" />
    <glyph glyph-name="k.sinf" horiz-adv-x="394" 
d="M351 -147h-106l-2 2l-23 67l-43 102l-58 -52l-9 -63q-1 -8 0.5 -10t8.5 -3l38 -5l-4 -38h-166l5 39l32 4q11 1 12 13l54 369q2 11 -7 13l-35 11l6 37h119l-43 -294l124 113q39 35 79 35q16 0 34 -4l-5 -45q-41 0 -72 -28l-50 -47l64 -160q3 -12 16 -13l37 -6z" />
    <glyph glyph-name="l.sinf" horiz-adv-x="202" 
d="M148 -147h-125l-1 3l15 79l50 343q2 11 -7 14l-34 10l5 37h119l-63 -430q-1 -7 0 -9t9 -4l37 -5z" />
    <glyph glyph-name="m.sinf" horiz-adv-x="594" 
d="M542 -147h-122l-1 2l12 68l23 158q2 16 2 21q0 25 -24 25q-15 0 -33.5 -10t-29 -18.5t-38.5 -32.5l-23 -157q-1 -8 0.5 -10t8.5 -3l36 -5l-6 -38h-121l-2 1l13 75l23 153q2 12 2 19q0 26 -25 26q-28 0 -104 -61l-22 -157q-1 -8 0.5 -10t8.5 -3l39 -5l-6 -38h-165l5 39
l32 4q11 1 12 13l30 215q1 10 -6 13l-34 11l5 38h113l-9 -59l1 -1q28 22 44 33.5t40 22t46 10.5q68 0 67 -67q26 22 40.5 32.5t40.5 22.5t51 12q65 0 65 -68q0 -26 -3 -45l-25 -170q-1 -8 0.5 -10t8.5 -3l36 -5z" />
    <glyph glyph-name="n.sinf" horiz-adv-x="413" 
d="M362 -147h-122l-1 2l12 74l23 159q4 16 0 30t-22 14q-24 0 -59.5 -22t-59.5 -44l-22 -157q-1 -8 0.5 -10t8.5 -3l39 -5l-6 -38h-165l5 39l32 4q11 1 12 13l30 215q1 12 -6 13l-34 11l5 38h113l-9 -59l1 -1q82 66 139 66q73 0 75 -76q0 -20 -3 -38l-25 -169q-1 -8 0 -10
t9 -3l35 -5z" />
    <glyph glyph-name="o.sinf" horiz-adv-x="376" 
d="M151 -155q-74 0 -110 38t-36 100q0 94 50.5 151.5t141.5 57.5q142 0 142 -142q0 -94 -49 -149.5t-139 -55.5zM159 -99q47 0 74.5 38t28.5 112q0 85 -73 85q-48 0 -77.5 -37.5t-29.5 -109.5q0 -88 77 -88z" />
    <glyph glyph-name="p.sinf" horiz-adv-x="395" 
d="M153 -284h-149l-2 3l20 108l42 297q2 12 -7 13l-34 11l5 38h114l-8 -57h1q73 63 129 63q96 0 96 -126q0 -93 -41.5 -156.5t-116.5 -63.5q-49 0 -99 37l-16 -110q-1 -10 9 -11l63 -6zM130 66l-19 -127q38 -36 80 -36q45 0 68 47.5t23 104.5q0 74 -43 74q-41 0 -109 -63z
" />
    <glyph glyph-name="q.sinf" horiz-adv-x="385" 
d="M319 -284h-175l6 40l53 5q12 1 13 13l21 135q-40 -33 -68 -48t-62 -15q-51 0 -75 34.5t-24 89.5q0 56 15.5 103.5t54 82.5t95.5 35q55 0 97 -35l11 30h68q-13 -47 -19 -85l-46 -328q-1 -7 0.5 -9t8.5 -3l32 -4zM240 -27l20 131q-32 30 -76 30q-52 0 -76 -50.5t-24 -108.5
q0 -68 47 -68q45 0 109 66z" />
    <glyph glyph-name="r.sinf" horiz-adv-x="299" 
d="M176 -147h-188l5 39l33 4q10 1 11 13l31 215q1 11 -7 13l-34 11l5 38h112l-9 -63h1q50 69 109 69q29 0 46 -6l-14 -105l-58 3l-2 40q0 6 -7 6q-24 0 -75 -56l-24 -165q-1 -7 0.5 -9.5t9.5 -3.5l61 -5z" />
    <glyph glyph-name="s.sinf" horiz-adv-x="307" 
d="M268 88l-51 3l-3 35q-2 11 -9 13q-15 5 -41 5q-28 0 -46.5 -11t-18.5 -32q0 -19 13 -28.5t43 -20.5t41.5 -16t30 -16.5t25.5 -28t7 -39.5q0 -52 -40 -79.5t-103 -27.5q-41 0 -76 8t-46 15l12 83l53 -3v-39q0 -9 9 -12q16 -6 54 -6q32 0 50 13.5t18 37.5q0 19 -14 29.5
t-47 21.5l-30 10t-25 11t-25 17t-13 23.5t-7 34.5q0 51 41.5 77t101.5 26q72 0 108 -18z" />
    <glyph glyph-name="t.sinf" horiz-adv-x="274" 
d="M214 -86l10 -47q-48 -22 -100 -22q-86 0 -86 70q0 7 2 23l27 189q2 7 -5 7h-47l8 46q39 6 59.5 26t32.5 68h48l-13 -82q0 -6 4 -6h95l-7 -52h-100l-25 -176q-2 -18 -2 -22q0 -34 39 -34q24 0 60 12z" />
    <glyph glyph-name="u.sinf" horiz-adv-x="412" 
d="M357 -147h-114l10 59l-1 1q-80 -67 -140 -67q-74 0 -74 79q0 17 3 36l25 169q1 7 0 9t-9 4l-34 5l6 38h116l2 -3l-31 -208q-3 -21 -3 -28q0 -12 1.5 -18.5t8.5 -12t20 -5.5q42 0 112 62l23 157q1 12 -9 13l-37 5l6 38h120l2 -3l-40 -275q-2 -11 6 -12l36 -5z" />
    <glyph glyph-name="v.sinf" horiz-adv-x="376" 
d="M195 -147h-87l-64 278q-2 8 -12 11l-27 6l6 38h103l5 -5l10 -68l37 -194l115 223l-44 6l5 38h117l5 -14z" />
    <glyph glyph-name="w.sinf" horiz-adv-x="552" 
d="M395 -147h-86l-33 243l-98 -243h-91l-43 278q-1 10 -12 11l-27 6l6 38h101l4 -5l5 -56l27 -202l105 259h79l37 -260l98 221l-39 5l6 38h103l5 -12z" />
    <glyph glyph-name="x.sinf" horiz-adv-x="381" 
d="M337 -147h-98l-6 4l-70 123l-75 -84l40 -6l-5 -37h-149l5 37l33 6q10 2 17 11l105 114l-64 111q-6 9 -14 11l-26 4l5 39h84l5 -4l66 -115l71 76l-34 5l6 38h138l-6 -38l-27 -7q-9 -2 -19 -12l-100 -103l69 -117q5 -11 16 -12l39 -6z" />
    <glyph glyph-name="y.sinf" horiz-adv-x="365" 
d="M93 -181l22 41l-75 271q-2 10 -11 11l-28 7l7 37h98l4 -5l17 -83l39 -156l105 200l-41 7l5 37h113l6 -14l-199 -369q-27 -51 -54.5 -72.5t-75.5 -21.5q-55 0 -91 30l29 44q28 -19 60 -19q23 0 38 13.5t32 41.5z" />
    <glyph glyph-name="z.sinf" horiz-adv-x="336" 
d="M275 -147h-283l5 42l220 241h-115q-7 0 -9 -8l-14 -40l-51 -2l13 100h273l-6 -44l-218 -239h123q7 0 9 8l15 46l53 2z" />
    <glyph glyph-name="zero.num" horiz-adv-x="414" 
d="M217 273q-141 0 -141 151q0 32 7 83q15 110 62.5 167t142.5 57q137 0 137 -148q0 -29 -7 -80q-16 -116 -61 -173t-140 -57zM226 334q48 0 70 39.5t35 128.5q8 54 8 87q0 79 -60 79q-48 0 -70.5 -38.5t-37.5 -126.5q-8 -51 -8 -85q0 -42 14 -63t49 -21z" />
    <glyph glyph-name="one.num" horiz-adv-x="262" 
d="M254 281h-221l6 45l58 5q12 1 13 13l45 307q3 12 -7 14l-59 11l9 45h151l-55 -378q-1 -8 0 -10t9 -3l57 -5z" />
    <glyph glyph-name="two.num" horiz-adv-x="347" 
d="M337 281h-308l7 51l148 151q6 6 19 19.5t18 18.5t15 16t14 16.5t11.5 14.5t10 15t6.5 13.5t5 15t1 14.5q0 45 -55 45q-38 0 -56 -13.5t-24 -49.5l-78 8q6 36 21.5 59.5t40 35t49 16t57.5 4.5q130 0 130 -98q0 -28 -17 -59.5t-33 -50t-51 -53.5l-131 -134h130q8 0 11 8
l16 51h60z" />
    <glyph glyph-name="three.num" horiz-adv-x="354" 
d="M280 517l-1 -3q34 -8 53 -31.5t19 -60.5q0 -67 -48 -108t-127 -41q-100 0 -150 60l51 50q40 -45 102 -45q37 0 62 20.5t25 61.5q0 62 -69 62q-22 0 -49 -4l8 58l38 4q93 9 93 83q0 47 -54 47q-33 0 -49 -12.5t-21 -49.5l-80 8q9 67 52 91t107 24q129 0 129 -97
q0 -44 -25.5 -74t-65.5 -43z" />
    <glyph glyph-name="four.num" horiz-adv-x="389" 
d="M311 281h-77l12 84h-198l7 56l214 298h104l-41 -290h56l-8 -65h-57zM254 429l29 203l-147 -203h118z" />
    <glyph glyph-name="five.num" horiz-adv-x="355" 
d="M368 655h-180l-29 -124q42 27 90 27q53 0 82 -30t29 -85q0 -75 -48 -122.5t-132 -47.5q-102 0 -153 58l51 50q40 -43 103 -43q39 0 67 24t28 71q0 64 -59 64q-43 0 -79 -32l-53 23l48 232h244z" />
    <glyph glyph-name="six.num" horiz-adv-x="393" 
d="M424 686l-43 -48q-34 30 -77 30q-51 0 -83.5 -44t-42.5 -101q57 32 109 32q50 0 79 -30t29 -84q0 -78 -47 -123t-123 -45q-72 0 -104 46.5t-32 120.5q0 45 11.5 92t35.5 93t68 75.5t101 29.5q74 0 119 -44zM173 468q-2 -18 -2 -38q0 -96 63 -96q37 0 57.5 28t20.5 72
q0 63 -52 63q-41 0 -87 -29z" />
    <glyph glyph-name="seven.num" horiz-adv-x="364" 
d="M199 281h-89q27 119 86.5 220.5t113.5 153.5h-147q-7 0 -10 -8l-17 -53l-57 -4l19 130h315l-8 -58q-67 -58 -128 -170t-78 -211z" />
    <glyph glyph-name="eight.num" horiz-adv-x="363" 
d="M301 510q65 -40 65 -100q0 -63 -51.5 -100t-125.5 -37q-63 0 -98 26.5t-35 74.5q0 44 25.5 76t72.5 66q-50 34 -50 86q0 58 45.5 93.5t112.5 35.5q56 0 88.5 -25t32.5 -67q0 -37 -20.5 -66.5t-61.5 -62.5zM202 484q-73 -54 -73 -101q0 -22 17 -38t51 -16q40 0 62.5 21.5
t22.5 50.5q0 25 -19 43.5t-61 39.5zM248 538q64 54 64 91q0 46 -56 46q-33 0 -52 -18t-19 -43q0 -23 14.5 -40t48.5 -36z" />
    <glyph glyph-name="nine.num" horiz-adv-x="401" 
d="M67 320l43 50q40 -35 87 -35q91 0 112 132q-47 -31 -99 -31q-53 0 -84.5 30.5t-31.5 88.5q0 81 48 128.5t124 47.5q136 0 136 -171q0 -45 -8.5 -89.5t-29.5 -91.5t-63.5 -76.5t-102.5 -29.5q-38 0 -74 13t-57 34zM315 526q3 21 3 44q0 20 -2 35t-7.5 31.5t-18.5 25.5
t-33 9q-37 0 -57 -30t-20 -75q0 -70 55 -70q41 0 80 30z" />
    <glyph glyph-name="parenleft.ordn" horiz-adv-x="253" 
d="M228 229l-69 -36q-67 110 -67 241q0 170 158 343l57 -37q-67 -84 -97 -155.5t-30 -156.5q0 -100 48 -199z" />
    <glyph glyph-name="parenright.ordn" horiz-adv-x="244" 
d="M68 193l-56 38q67 82 97 153.5t30 157.5q0 96 -49 198l70 37q66 -110 66 -240q0 -171 -158 -344z" />
    <glyph glyph-name="hyphen.ordn" horiz-adv-x="220" 
d="M235 432h-181l10 72h182z" />
    <glyph glyph-name="comma.ordn" horiz-adv-x="126" 
d="M70 205l-38 11l30 69q1 5 -3 8l-25 9l25 63q38 -1 57.5 -8.5t19.5 -31.5q0 -17 -18 -48z" />
    <glyph glyph-name="period.ordn" horiz-adv-x="142" 
d="M149 328q0 -55 -58 -55q-45 0 -45 33q0 60 59 60q44 0 44 -38z" />
    <glyph glyph-name="minus.ordn" horiz-adv-x="314" 
d="M324 470h-256l10 65h255z" />
    <glyph glyph-name="plus.ordn" horiz-adv-x="314" 
d="M217 374h-69l13 96h-93l10 65h93l12 93h70l-13 -93h93l-9 -65h-93z" />
    <glyph glyph-name="equal.ordn" horiz-adv-x="314" 
d="M312 389h-254l10 66h254zM329 505h-254l9 66h254z" />
    <glyph glyph-name="a.ordn" horiz-adv-x="393" 
d="M402 281h-108l7 56l-2 1q-67 -65 -125 -65q-101 0 -101 125q0 54 15 102t54.5 84t97.5 36q54 0 94 -36l12 30h67q-15 -67 -17 -81l-29 -197q-1 -7 0 -9t9 -3l32 -5zM304 401l20 131q-32 30 -75 30q-36 0 -59.5 -28t-32 -61.5t-8.5 -67.5q0 -70 51 -70q40 0 104 66z" />
    <glyph glyph-name="b.ordn" horiz-adv-x="392" 
d="M151 281h-73q15 48 22 93l49 332q2 10 -6 13l-36 11l5 37h118l-31 -209l1 -1q72 63 127 63q94 0 94 -124q0 -57 -15.5 -105.5t-51.5 -82t-87 -33.5q-52 0 -105 39h-3zM192 494l-20 -127q43 -36 81 -36q45 0 68 47t23 105q0 74 -46 74q-40 0 -106 -63z" />
    <glyph glyph-name="c.ordn" horiz-adv-x="329" 
d="M319 351l14 -48q-49 -30 -119 -30q-72 0 -106.5 36t-34.5 100q0 105 56 158t143 53q68 0 102 -23l-13 -91l-51 3l-2 42q0 7 -7 10q-15 5 -39 5q-47 0 -79.5 -36.5t-32.5 -111.5q0 -88 78 -88q45 0 91 21z" />
    <glyph glyph-name="d.ordn" horiz-adv-x="395" 
d="M403 281h-109l7 54l-2 1q-33 -31 -61.5 -47t-62.5 -16q-102 0 -102 125q0 52 14 99.5t54 85t99 37.5q53 0 93 -31l16 118q2 11 -7 13l-35 10l6 37h117l-63 -431q-1 -7 0 -9t9 -3l32 -5zM304 401l21 131q-32 30 -76 30q-52 0 -76 -50.5t-24 -109.5q0 -67 46 -67
q45 0 109 66z" />
    <glyph glyph-name="e.ordn" horiz-adv-x="327" 
d="M322 354l12 -51q-63 -30 -127 -30q-134 0 -134 134q0 93 54 153t136 60q51 0 76 -21.5t25 -57.5q0 -27 -15 -48.5t-36.5 -34.5t-53.5 -23t-56 -14t-54 -8q0 -41 16.5 -62t58.5 -21q40 0 98 24zM153 463q19 2 39 6t44.5 12t40.5 22t16 31q0 31 -39 31q-38 0 -65 -28.5
t-36 -73.5z" />
    <glyph glyph-name="f.ordn" horiz-adv-x="267" 
d="M148 144h-75l61 411q1 7 -5 7h-46l8 52h51l8 51q17 109 123 109q64 0 105 -32l-30 -48q-33 24 -69 24q-26 0 -38.5 -12.5t-17.5 -42.5l-7 -43q0 -6 5 -6h106l-7 -52h-112z" />
    <glyph glyph-name="g.ordn" horiz-adv-x="385" 
d="M290 269l11 67h-2q-69 -61 -124 -61q-101 0 -101 123q0 54 14 101t53.5 84t98.5 37q55 0 95 -36l12 30h67q-13 -51 -18 -85l-38 -265q-18 -127 -152 -127q-83 0 -136 32l25 48q45 -26 103 -26q81 0 92 78zM305 401l19 131q-28 30 -74 30q-37 0 -60.5 -28.5t-31.5 -62
t-8 -68.5q0 -36 11 -51t34 -15q48 0 110 64z" />
    <glyph glyph-name="h.ordn" horiz-adv-x="412" 
d="M426 281h-120l-1 2l12 74l21 155q3 24 -2 35.5t-24 11.5q-32 0 -114 -65l-23 -157q-1 -8 0.5 -10t8.5 -3l38 -5l-5 -38h-165l6 39l31 4q7 1 9 3t4 10l53 369q1 12 -6 13l-35 11l5 37h116l-32 -210l2 -1q2 2 18.5 14t20 14t17 11t19.5 11t17 6.5t20.5 6t20.5 1.5
q74 0 77 -74q0 -19 -3 -40l-25 -169q-1 -8 0 -10t9 -3l35 -5z" />
    <glyph glyph-name="i.ordn" horiz-adv-x="200" 
d="M176 677q-43 0 -43 40q0 25 15.5 40t41.5 15q43 0 43 -39q0 -24 -15.5 -40t-41.5 -16zM215 281h-125l-1 3l15 79l27 190q2 11 -7 13l-34 10l6 38h116l-38 -277q-1 -8 0.5 -10t8.5 -3l37 -5z" />
    <glyph glyph-name="j.ordn" horiz-adv-x="197" 
d="M88 256l44 296q1 12 -6 14l-38 10l6 38h120l-54 -372q-8 -55 -36 -80t-80 -25q-30 0 -56 10t-37 20l28 44q26 -18 56 -18q25 0 36.5 14t16.5 49zM177 677q-43 0 -43 40q0 26 15 40.5t42 14.5q43 0 43 -39q0 -24 -15.5 -40t-41.5 -16z" />
    <glyph glyph-name="k.ordn" horiz-adv-x="394" 
d="M416 281h-106l-2 2l-23 67l-43 102l-58 -52l-9 -63q-1 -8 0.5 -10t8.5 -3l38 -5l-4 -38h-166l5 39l32 4q11 1 12 13l54 369q2 11 -7 13l-35 11l6 37h119l-43 -294l124 113q39 35 79 35q16 0 34 -4l-5 -45q-41 0 -72 -28l-50 -47l64 -160q3 -12 16 -13l37 -6z" />
    <glyph glyph-name="l.ordn" horiz-adv-x="202" 
d="M213 281h-125l-1 3l15 79l50 343q2 11 -7 14l-34 10l5 37h119l-63 -430q-1 -7 0 -9t9 -4l37 -5z" />
    <glyph glyph-name="m.ordn" horiz-adv-x="594" 
d="M607 281h-122l-1 2l12 68l23 158q2 16 2 21q0 25 -24 25q-15 0 -33.5 -10t-29 -18.5t-38.5 -32.5l-23 -157q-1 -8 0.5 -10t8.5 -3l36 -5l-6 -38h-121l-2 1l13 75l23 153q2 12 2 19q0 26 -25 26q-28 0 -104 -61l-22 -157q-1 -8 0.5 -10t8.5 -3l39 -5l-6 -38h-165l5 39
l32 4q11 1 12 13l30 215q2 10 -6 13l-34 11l5 38h113l-9 -59l1 -1q28 22 44 33.5t40 22t46 10.5q68 0 67 -67q26 22 40.5 32.5t40.5 22.5t51 12q65 0 65 -68q0 -26 -3 -45l-25 -170q-1 -8 0.5 -10t8.5 -3l36 -5z" />
    <glyph glyph-name="n.ordn" horiz-adv-x="413" 
d="M427 281h-122l-1 2l12 74l23 159q4 16 0 30t-22 14q-24 0 -59.5 -22t-59.5 -44l-22 -157q-1 -8 0.5 -10t8.5 -3l39 -5l-6 -38h-165l5 39l32 4q11 1 12 13l30 215q1 12 -6 13l-34 11l5 38h113l-9 -59l1 -1q82 66 139 66q73 0 75 -76q0 -20 -3 -38l-25 -169q-1 -8 0 -10
t9 -3l35 -5z" />
    <glyph glyph-name="o.ordn" horiz-adv-x="376" 
d="M218 273q-74 0 -110 38t-36 100q0 94 50.5 151.5t141.5 57.5q142 0 142 -142q0 -94 -49 -149.5t-139 -55.5zM226 329q47 0 74.5 38t28.5 112q0 85 -73 85q-48 0 -77.5 -37.5t-29.5 -109.5q0 -88 77 -88z" />
    <glyph glyph-name="p.ordn" horiz-adv-x="395" 
d="M218 144h-149l-2 3l20 108l42 297q2 12 -7 13l-34 11l5 38h114l-8 -57h1q73 63 129 63q96 0 96 -126q0 -93 -41.5 -156.5t-116.5 -63.5q-49 0 -99 37l-16 -110q-1 -10 9 -11l63 -6zM195 494l-19 -127q38 -36 80 -36q45 0 68 47.5t23 104.5q0 74 -43 74q-41 0 -109 -63z
" />
    <glyph glyph-name="q.ordn" horiz-adv-x="385" 
d="M384 144h-175l6 40l53 5q12 1 13 13l21 135q-40 -33 -68 -48t-62 -15q-51 0 -75 34.5t-24 89.5q0 56 15.5 103.5t54 82.5t95.5 35q55 0 97 -35l11 30h68q-14 -46 -19 -85l-46 -328q-1 -7 0.5 -9t8.5 -3l32 -4zM305 401l20 131q-32 30 -76 30q-52 0 -76 -50.5t-24 -108.5
q0 -68 47 -68q45 0 109 66z" />
    <glyph glyph-name="r.ordn" horiz-adv-x="299" 
d="M241 281h-188l5 39l33 4q10 1 11 13l31 215q1 11 -7 13l-34 11l5 38h112l-9 -63h1q50 69 109 69q30 0 46 -6l-14 -105l-58 3l-2 40q0 6 -7 6q-24 0 -75 -56l-24 -165q-1 -7 0.5 -9.5t9.5 -3.5l61 -5z" />
    <glyph glyph-name="s.ordn" horiz-adv-x="307" 
d="M333 516l-51 3l-3 35q-2 11 -9 13q-15 5 -41 5q-28 0 -46.5 -11t-18.5 -32q0 -19 13 -28.5t43 -20.5t41.5 -16t30 -16.5t25.5 -28t7 -39.5q0 -52 -40 -79.5t-103 -27.5q-41 0 -76 8t-46 15l12 83l53 -3v-39q0 -9 9 -12q17 -6 54 -6q32 0 50 13.5t18 37.5q0 19 -14 29.5
t-47 21.5l-30 10t-25 11t-25 17t-13 23.5t-7 34.5q0 51 41.5 77t101.5 26q72 0 108 -18z" />
    <glyph glyph-name="t.ordn" horiz-adv-x="274" 
d="M279 342l10 -47q-48 -22 -100 -22q-86 0 -86 70q0 7 2 23l27 189q2 7 -5 7h-47l8 46q39 6 59.5 26t32.5 68h48l-13 -82q0 -6 4 -6h95l-7 -52h-100l-25 -176q-2 -18 -2 -22q0 -34 39 -34q24 0 60 12z" />
    <glyph glyph-name="u.ordn" horiz-adv-x="412" 
d="M422 281h-114l10 59l-1 1q-80 -67 -140 -67q-74 0 -74 79q0 17 3 36l25 169q1 7 0 9t-9 4l-34 5l6 38h116l2 -3l-31 -208q-3 -21 -3 -28q0 -12 1.5 -18.5t8.5 -12t20 -5.5q42 0 112 62l23 157q1 12 -9 13l-37 5l6 38h120l2 -3l-40 -275q-2 -11 6 -12l36 -5z" />
    <glyph glyph-name="v.ordn" horiz-adv-x="376" 
d="M260 281h-87l-64 278q-2 8 -12 11l-27 6l6 38h103l5 -5l10 -68l37 -194l115 223l-44 6l5 38h117l5 -14z" />
    <glyph glyph-name="w.ordn" horiz-adv-x="552" 
d="M460 281h-86l-33 243l-98 -243h-91l-43 278q-1 10 -12 11l-27 6l6 38h101l4 -5l5 -56l27 -202l105 259h79l37 -260l98 221l-39 5l6 38h103l5 -12z" />
    <glyph glyph-name="x.ordn" horiz-adv-x="381" 
d="M402 281h-98l-6 4l-70 123l-75 -84l40 -6l-5 -37h-149l5 37l33 6q10 2 17 11l105 114l-64 111q-6 9 -14 11l-26 4l5 39h84l5 -4l66 -115l71 76l-34 5l6 38h138l-6 -38l-27 -7q-9 -2 -19 -12l-100 -103l69 -117q5 -11 16 -12l39 -6z" />
    <glyph glyph-name="y.ordn" horiz-adv-x="365" 
d="M158 247l22 41l-75 271q-2 10 -11 11l-28 7l7 37h98l4 -5l17 -83l39 -156l105 200l-41 7l5 37h113l6 -14l-199 -369q-27 -51 -54.5 -72.5t-75.5 -21.5q-55 0 -91 30l29 44q28 -19 60 -19q23 0 38 13.5t32 41.5z" />
    <glyph glyph-name="z.ordn" horiz-adv-x="336" 
d="M340 281h-283l5 42l220 241h-115q-7 0 -9 -8l-14 -40l-51 -2l13 100h273l-6 -44l-218 -239h123q7 0 9 8l15 46l53 2z" />
    <glyph glyph-name="zero.denom" horiz-adv-x="414" 
d="M182 -8q-141 0 -141 151q0 32 7 83q15 110 62.5 167t142.5 57q137 0 137 -148q0 -29 -7 -80q-16 -116 -61 -173t-140 -57zM191 53q48 0 70 39.5t35 128.5q8 54 8 87q0 79 -60 79q-48 0 -70.5 -38.5t-37.5 -126.5q-8 -51 -8 -85q0 -42 14 -63t49 -21z" />
    <glyph glyph-name="one.denom" horiz-adv-x="262" 
d="M219 0h-221l6 45l58 5q12 1 13 13l45 307q3 12 -7 14l-59 11l9 45h151l-55 -378q-1 -8 0 -10t9 -3l57 -5z" />
    <glyph glyph-name="two.denom" horiz-adv-x="347" 
d="M302 0h-308l7 51l148 151q6 6 19 19.5t18 18.5t15 16t14 16.5t11.5 14.5t10 15t6.5 13.5t5 15t1 14.5q0 45 -55 45q-38 0 -56 -13.5t-24 -49.5l-78 8q6 36 21.5 59.5t40 35t49 16t57.5 4.5q130 0 130 -98q0 -28 -17 -59.5t-33 -50t-51 -53.5l-131 -134h130q8 0 11 8
l16 51h60z" />
    <glyph glyph-name="three.denom" horiz-adv-x="354" 
d="M245 236l-1 -3q34 -8 53 -31.5t19 -60.5q0 -67 -48 -108t-127 -41q-100 0 -150 60l51 50q40 -45 102 -45q37 0 62 20.5t25 61.5q0 62 -69 62q-22 0 -49 -4l8 58l38 4q93 9 93 83q0 47 -54 47q-33 0 -49 -12.5t-21 -49.5l-80 8q9 67 52 91t107 24q129 0 129 -97
q0 -44 -25.5 -74t-65.5 -43z" />
    <glyph glyph-name="four.denom" horiz-adv-x="389" 
d="M276 0h-77l12 84h-198l7 56l214 298h104l-41 -290h56l-8 -65h-57zM219 148l29 203l-147 -203h118z" />
    <glyph glyph-name="five.denom" horiz-adv-x="355" 
d="M333 374h-180l-29 -124q42 27 90 27q53 0 82 -30t29 -85q0 -74 -47.5 -122t-132.5 -48q-102 0 -153 58l51 50q40 -43 103 -43q39 0 67 24t28 71q0 64 -59 64q-43 0 -79 -32l-53 23l48 232h244z" />
    <glyph glyph-name="six.denom" horiz-adv-x="393" 
d="M389 405l-43 -48q-34 30 -77 30q-51 0 -83.5 -44t-42.5 -101q57 32 109 32q50 0 79 -30t29 -84q0 -78 -47 -123t-123 -45q-72 0 -104 46.5t-32 120.5q0 45 11.5 92t35.5 93t68 75.5t101 29.5q74 0 119 -44zM138 187q-2 -18 -2 -38q0 -96 63 -96q37 0 57.5 28t20.5 72
q0 63 -52 63q-41 0 -87 -29z" />
    <glyph glyph-name="seven.denom" horiz-adv-x="364" 
d="M164 0h-89q27 119 86.5 220.5t113.5 153.5h-147q-7 0 -10 -8l-17 -53l-57 -4l19 130h315l-8 -58q-67 -58 -128 -170t-78 -211z" />
    <glyph glyph-name="eight.denom" horiz-adv-x="363" 
d="M266 229q65 -40 65 -100q0 -63 -51.5 -100t-125.5 -37q-63 0 -98 26.5t-35 74.5q0 44 25.5 76t72.5 66q-50 34 -50 86q0 58 45.5 93.5t112.5 35.5q56 0 88.5 -25t32.5 -67q0 -37 -20.5 -66.5t-61.5 -62.5zM167 203q-73 -54 -73 -101q0 -22 17 -38t51 -16q40 0 62.5 21.5
t22.5 50.5q0 25 -19 43.5t-61 39.5zM213 257q64 54 64 91q0 46 -56 46q-33 0 -52 -18t-19 -43q0 -23 14.5 -40t48.5 -36z" />
    <glyph glyph-name="nine.denom" horiz-adv-x="401" 
d="M32 39l43 50q40 -35 87 -35q91 0 112 132q-46 -31 -99 -31t-84.5 30.5t-31.5 88.5q0 81 48 128.5t124 47.5q136 0 136 -171q0 -45 -8.5 -89.5t-29.5 -91.5t-63.5 -76.5t-102.5 -29.5q-38 0 -74 13t-57 34zM280 245q3 21 3 44q0 20 -2 35t-7.5 31.5t-18.5 25.5t-33 9
q-37 0 -57 -30t-20 -75q0 -70 55 -70q41 0 80 30z" />
    <glyph glyph-name="onefifth" horiz-adv-x="895" 
d="M288 281h-221l6 45l58 5q12 1 13 13l45 307q3 12 -7 14l-59 11l9 45h151l-55 -378q-1 -8 0 -10t9 -3l57 -5zM257 -12h-85l459 736h84zM841 374h-180l-29 -124q42 27 90 27q53 0 82 -30t29 -85q0 -74 -47.5 -122t-132.5 -48q-102 0 -153 58l51 50q40 -43 103 -43
q39 0 67 24t28 71q0 64 -59 64q-43 0 -79 -32l-53 23l48 232h244z" />
    <glyph glyph-name="twofifths" horiz-adv-x="895" 
d="M361 281h-308l7 51l148 151q6 6 19 19.5t18 18.5t15 16t14 16.5t11.5 14.5t10 15t6.5 13.5t5 15t1 14.5q0 45 -55 45q-38 0 -56 -13.5t-24 -49.5l-78 8q6 36 21.5 59.5t40 35t49 16t57.5 4.5q130 0 130 -98q0 -28 -17 -59.5t-33 -50t-51 -53.5l-131 -134h130q8 0 11 8
l16 51h60zM298 -12h-85l459 736h84zM865 374h-180l-29 -124q42 27 90 27q53 0 82 -30t29 -85q0 -74 -47.5 -122t-132.5 -48q-102 0 -153 58l51 50q40 -43 103 -43q39 0 67 24t28 71q0 64 -59 64q-43 0 -79 -32l-53 23l48 232h244z" />
    <glyph glyph-name="threefifths" horiz-adv-x="895" 
d="M319 517l-1 -3q34 -8 53 -31.5t19 -60.5q0 -67 -48 -108t-127 -41q-100 0 -150 60l51 50q40 -45 102 -45q37 0 62 20.5t25 61.5q0 62 -69 62q-22 0 -49 -4l8 58l38 4q93 9 93 83q0 47 -54 47q-33 0 -49 -12.5t-21 -49.5l-80 8q9 67 52 91t107 24q129 0 129 -97
q0 -44 -25.5 -74t-65.5 -43zM307 -12h-85l459 736h84zM876 374h-180l-29 -124q42 27 90 27q53 0 82 -30t29 -85q0 -74 -48 -122t-132 -48q-102 0 -153 58l51 50q40 -43 103 -43q39 0 67 24t28 71q0 64 -59 64q-43 0 -79 -32l-53 23l48 232h244z" />
    <glyph glyph-name="fourfifths" horiz-adv-x="895" 
d="M320 281h-77l12 84h-198l7 56l214 298h104l-41 -290h56l-8 -65h-57zM263 429l29 203l-147 -203h118zM306 -12h-85l459 736h84zM871 374h-180l-29 -124q42 27 90 27q53 0 82 -30t29 -85q0 -74 -47.5 -122t-132.5 -48q-102 0 -153 58l51 50q40 -43 103 -43q39 0 67 24
t28 71q0 64 -59 64q-43 0 -79 -32l-53 23l48 232h244z" />
    <glyph glyph-name="onesixth" horiz-adv-x="895" 
d="M317 281h-221l6 45l58 5q12 1 13 13l45 307q3 12 -7 14l-59 11l9 45h151l-55 -378q-1 -8 0 -10t9 -3l57 -5zM299 -12h-85l459 736h84zM894 405l-43 -48q-34 30 -77 30q-51 0 -83.5 -44t-42.5 -101q57 32 109 32q50 0 79 -30t29 -84q0 -78 -47 -123t-123 -45
q-72 0 -104 46.5t-32 120.5q0 45 11.5 92t35.5 93t68 75.5t101 29.5q74 0 119 -44zM643 187q-2 -18 -2 -38q0 -96 63 -96q37 0 57.5 28t20.5 72q0 63 -52 63q-41 0 -87 -29z" />
    <glyph glyph-name="fivesixths" horiz-adv-x="895" 
d="M416 655h-180l-29 -124q42 27 90 27q53 0 82 -30t29 -85q0 -75 -48 -122.5t-132 -47.5q-102 0 -153 58l51 50q40 -43 103 -43q39 0 67 24t28 71q0 64 -59 64q-43 0 -79 -32l-53 23l48 232h244zM320 -12h-85l459 736h84zM903 405l-43 -48q-34 30 -77 30q-51 0 -83.5 -44
t-42.5 -101q57 32 109 32q50 0 79 -30t29 -84q0 -78 -47 -123t-123 -45q-72 0 -104 46.5t-32 120.5q0 45 11.5 92t35.5 93t68 75.5t101 29.5q74 0 119 -44zM652 187q-2 -18 -2 -38q0 -96 63 -96q37 0 57.5 28t20.5 72q0 63 -52 63q-41 0 -87 -29z" />
    <glyph glyph-name="oneseventh" horiz-adv-x="895" 
d="M315 281h-221l6 45l58 5q12 1 13 13l45 307q3 12 -7 14l-59 11l9 45h151l-55 -378q-1 -8 0 -10t9 -3l57 -5zM269 -12h-85l459 736h84zM697 0h-89q27 119 86.5 220.5t113.5 153.5h-147q-7 0 -10 -8l-17 -53l-57 -4l19 130h315l-8 -58q-67 -58 -128 -170t-78 -211z" />
    <glyph glyph-name="twosevenths" horiz-adv-x="895" 
d="M372 281h-308l7 51l148 151q6 6 19 19.5t18 18.5t15 16t14 16.5t11.5 14.5t10 15t6.5 13.5t5 15t1 14.5q0 45 -55 45q-38 0 -56 -13.5t-24 -49.5l-78 8q6 36 21.5 59.5t40 35t49 16t57.5 4.5q130 0 130 -98q0 -28 -17 -59.5t-33 -50t-51 -53.5l-131 -134h130q8 0 11 8
l16 51h60zM309 -12h-85l459 736h84zM722 0h-89q27 119 86.5 220.5t113.5 153.5h-147q-7 0 -10 -8l-17 -53l-57 -4l19 130h315l-8 -58q-67 -58 -128 -170t-78 -211z" />
    <glyph glyph-name="threesevenths" horiz-adv-x="895" 
d="M297 517l-1 -3q34 -8 53 -31.5t19 -60.5q0 -67 -48 -108t-127 -41q-100 0 -150 60l51 50q40 -45 102 -45q37 0 62 20.5t25 61.5q0 62 -69 62q-22 0 -49 -4l8 58l38 4q93 9 93 83q0 47 -54 47q-33 0 -49 -12.5t-21 -49.5l-80 8q9 67 52 91t107 24q129 0 129 -97
q0 -44 -25.5 -74t-65.5 -43zM262 -12h-85l459 736h84zM676 0h-89q27 119 86.5 220.5t113.5 153.5h-147q-7 0 -10 -8l-17 -53l-57 -4l19 130h315l-8 -58q-67 -58 -128 -170t-78 -211z" />
    <glyph glyph-name="foursevenths" horiz-adv-x="895" 
d="M303 281h-77l12 84h-198l7 56l214 298h104l-41 -290h56l-8 -65h-57zM246 429l29 203l-147 -203h118zM270 -12h-85l459 736h84zM687 0h-89q27 119 86.5 220.5t113.5 153.5h-147q-7 0 -10 -8l-17 -53l-57 -4l19 130h315l-8 -58q-67 -58 -128 -170t-78 -211z" />
    <glyph glyph-name="fivesevenths" horiz-adv-x="895" 
d="M384 655h-180l-29 -124q42 27 90 27q53 0 82 -30t29 -85q0 -75 -48 -122.5t-132 -47.5q-102 0 -153 58l51 50q40 -43 103 -43q39 0 67 24t28 71q0 64 -59 64q-43 0 -79 -32l-53 23l48 232h244zM263 -12h-85l459 736h84zM686 0h-89q27 119 86.5 220.5t113.5 153.5h-147
q-7 0 -10 -8l-17 -53l-57 -4l19 130h315l-8 -58q-67 -58 -128 -170t-78 -211z" />
    <glyph glyph-name="sixsevenths" horiz-adv-x="895" 
d="M402 686l-43 -48q-34 30 -77 30q-51 0 -83.5 -44t-42.5 -101q57 32 109 32q50 0 79 -30t29 -84q0 -78 -47 -123t-123 -45q-72 0 -104 46.5t-32 120.5q0 45 11.5 92t35.5 93t68 75.5t101 29.5q74 0 119 -44zM151 468q-2 -18 -2 -38q0 -96 63 -96q37 0 57.5 28t20.5 72
q0 63 -52 63q-41 0 -87 -29zM273 -12h-85l459 736h84zM692 0h-89q27 119 86.5 220.5t113.5 153.5h-147q-7 0 -10 -8l-17 -53l-57 -4l19 130h315l-8 -58q-67 -58 -128 -170t-78 -211z" />
    <glyph glyph-name="oneninth" horiz-adv-x="895" 
d="M285 281h-221l6 45l58 5q12 1 13 13l45 307q3 12 -7 14l-59 11l9 45h151l-55 -378q-1 -8 0 -10t9 -3l57 -5zM248 -12h-85l459 736h84zM507 39l43 50q40 -35 87 -35q91 0 112 132q-47 -31 -99 -31q-53 0 -84.5 30.5t-31.5 88.5q0 81 48 128.5t124 47.5q136 0 136 -171
q0 -45 -8.5 -89.5t-29.5 -91.5t-63.5 -76.5t-102.5 -29.5q-38 0 -74 13t-57 34zM755 245q3 21 3 44q0 20 -2 35t-7.5 31.5t-18.5 25.5t-33 9q-37 0 -57 -30t-20 -75q0 -70 55 -70q41 0 80 30z" />
    <glyph glyph-name="twoninths" horiz-adv-x="895" 
d="M354 281h-308l7 51l148 151q6 6 19 19.5t18 18.5t15 16t14 16.5t11.5 14.5t10 15t6.5 13.5t5 15t1 14.5q0 45 -55 45q-38 0 -56 -13.5t-24 -49.5l-78 8q6 36 21.5 59.5t40 35t49 16t57.5 4.5q130 0 130 -98q0 -28 -17 -59.5t-33 -50t-51 -53.5l-131 -134h130q8 0 11 8
l16 51h60zM288 -12h-85l459 736h84zM529 39l43 50q40 -35 87 -35q91 0 112 132q-47 -31 -99 -31q-53 0 -84.5 30.5t-31.5 88.5q0 81 48 128.5t124 47.5q136 0 136 -171q0 -45 -8.5 -89.5t-29.5 -91.5t-63.5 -76.5t-102.5 -29.5q-38 0 -74 13t-57 34zM777 245q3 21 3 44
q0 20 -2 35t-7.5 31.5t-18.5 25.5t-33 9q-37 0 -57 -30t-20 -75q0 -70 55 -70q41 0 80 30z" />
    <glyph glyph-name="fourninths" horiz-adv-x="895" 
d="M314 281h-77l12 84h-198l7 56l214 298h104l-41 -290h56l-8 -65h-57zM257 429l29 203l-147 -203h118zM286 -12h-85l459 736h84zM538 39l43 50q40 -35 87 -35q91 0 112 132q-46 -31 -99 -31t-84.5 30.5t-31.5 88.5q0 81 48 128.5t124 47.5q136 0 136 -171q0 -45 -8.5 -89.5
t-29.5 -91.5t-63.5 -76.5t-102.5 -29.5q-38 0 -74 13t-57 34zM786 245q3 21 3 44q0 20 -2 35t-7.5 31.5t-18.5 25.5t-33 9q-37 0 -57 -30t-20 -75q0 -70 55 -70q41 0 80 30z" />
    <glyph glyph-name="fiveninths" horiz-adv-x="895" 
d="M383 655h-180l-29 -124q42 27 90 27q53 0 82 -30t29 -85q0 -75 -47.5 -122.5t-132.5 -47.5q-102 0 -153 58l51 50q40 -43 103 -43q39 0 67 24t28 71q0 64 -59 64q-43 0 -79 -32l-53 23l48 232h244zM273 -12h-85l459 736h84zM518 39l43 50q40 -35 87 -35q91 0 112 132
q-46 -31 -99 -31t-84.5 30.5t-31.5 88.5q0 81 48 128.5t124 47.5q136 0 136 -171q0 -45 -8.5 -89.5t-29.5 -91.5t-63.5 -76.5t-102.5 -29.5q-38 0 -74 13t-57 34zM766 245q3 21 3 44q0 20 -2 35t-7.5 31.5t-18.5 25.5t-33 9q-37 0 -57 -30t-20 -75q0 -70 55 -70q41 0 80 30z
" />
    <glyph glyph-name="sevenninths" horiz-adv-x="895" 
d="M198 281h-89q27 119 86.5 220.5t113.5 153.5h-147q-7 0 -10 -8l-17 -53l-57 -4l19 130h315l-8 -58q-67 -58 -128 -170t-78 -211zM209 -12h-85l459 736h84zM486 39l43 50q40 -35 87 -35q91 0 112 132q-46 -31 -99 -31t-84.5 30.5t-31.5 88.5q0 81 48 128.5t124 47.5
q136 0 136 -171q0 -45 -8.5 -89.5t-29.5 -91.5t-63.5 -76.5t-102.5 -29.5q-38 0 -74 13t-57 34zM734 245q3 21 3 44q0 20 -2 35t-7.5 31.5t-18.5 25.5t-33 9q-37 0 -57 -30t-20 -75q0 -70 55 -70q41 0 80 30z" />
    <glyph glyph-name="eightninths" horiz-adv-x="895" 
d="M310 510q65 -40 65 -100q0 -63 -51.5 -100t-125.5 -37q-63 0 -98 26.5t-35 74.5q0 44 25.5 76t72.5 66q-50 34 -50 86q0 58 45.5 93.5t112.5 35.5q56 0 88.5 -25t32.5 -67q0 -37 -20.5 -66.5t-61.5 -62.5zM211 484q-73 -54 -73 -101q0 -22 17 -38t51 -16q40 0 62.5 21.5
t22.5 50.5q0 25 -19 43.5t-61 39.5zM257 538q64 54 64 91q0 46 -56 46q-33 0 -52 -18t-19 -43q0 -23 14.5 -40t48.5 -36zM274 -12h-85l459 736h84zM519 39l43 50q40 -35 87 -35q91 0 112 132q-47 -31 -99 -31q-53 0 -84.5 30.5t-31.5 88.5q0 81 48 128.5t124 47.5
q136 0 136 -171q0 -45 -8.5 -89.5t-29.5 -91.5t-63.5 -76.5t-102.5 -29.5q-38 0 -74 13t-57 34zM767 245q3 21 3 44q0 20 -2 35t-7.5 31.5t-18.5 25.5t-33 9q-37 0 -57 -30t-20 -75q0 -70 55 -70q41 0 80 30z" />
    <glyph glyph-name="commaaccent" horiz-adv-x="500" 
d="M211 -268l-43 16l34 88q3 7 -3 10l-32 14l32 80q50 -2 74 -12.5t24 -41.5q0 -26 -25 -63z" />
    <glyph glyph-name="revcommaaccent" horiz-adv-x="500" 
d="M404 646l-32 -80q-50 2 -74 12.5t-24 41.5q0 26 25 63l61 91l43 -16l-34 -88q-3 -7 3 -10z" />
    <glyph glyph-name="tilde.cap" horiz-adv-x="500" 
d="M544 866l-28 -34q-40 -50 -71 -50q-15 0 -43 7l-116 31q-10 3 -16 -3l-45 -39l-39 31l35 44q32 41 67 41q15 0 31 -4l123 -33q14 -4 22 3l39 37z" />
    <glyph glyph-name="ring.cap" horiz-adv-x="500" 
d="M376 898q33 0 53.5 -18t20.5 -50q0 -42 -27 -71t-71 -29q-34 0 -54.5 18.5t-20.5 53.5q0 42 28 69t71 27zM359 775q20 0 31 14t11 34q0 30 -32 30q-20 0 -31 -14t-11 -34q0 -30 32 -30z" />
    <glyph glyph-name="circumflex.cap" horiz-adv-x="500" 
d="M521 807l-46 -41l-107 83l-131 -83l-35 41l131 102h84z" />
    <glyph glyph-name="acute.cap" horiz-adv-x="500" 
d="M486 866l-216 -100l-25 48l204 127z" />
    <glyph glyph-name="grave.cap" horiz-adv-x="500" 
d="M439 765l-190 102l53 73l171 -128z" />
    <glyph glyph-name="dieresis.cap" horiz-adv-x="500" 
d="M330 845q0 -28 -17.5 -45.5t-46.5 -17.5q-23 0 -36 12.5t-13 33.5q0 27 17.5 45t46.5 18q23 0 36 -12.5t13 -33.5zM532 845q0 -28 -17.5 -45.5t-46.5 -17.5q-23 0 -36 12.5t-13 33.5q0 27 17.5 45t46.5 18q23 0 36 -12.5t13 -33.5z" />
    <glyph glyph-name="caron.cap" horiz-adv-x="500" 
d="M531 879l-131 -102h-84l-104 102l46 41l107 -83l130 83z" />
    <glyph glyph-name="macron.cap" horiz-adv-x="500" 
d="M515 794h-307l9 69h307z" />
    <glyph glyph-name="dotaccent.cap" horiz-adv-x="500" 
d="M434 856q0 -33 -20 -53.5t-54 -20.5q-27 0 -42 14t-15 39q0 33 20 53t55 20q56 0 56 -52z" />
    <glyph glyph-name="cedilla.cap" horiz-adv-x="500" 
d="M124 -230l13 51q20 -4 32 -4q40 0 60 16t20 42q0 40 -64 41l31 114l56 -8l-18 -67q64 -18 64 -76q0 -45 -36.5 -80t-109.5 -35q-26 0 -48 6z" />
    <glyph glyph-name="hungarumlaut.cap" horiz-adv-x="500" 
d="M439 914l-183 -150l-37 37l165 172zM610 910l-187 -146l-34 37l167 168z" />
    <glyph glyph-name="commaaccent.cap" horiz-adv-x="500" 
d="M211 -268l-43 16l34 88q3 7 -3 10l-32 14l32 80q50 -2 74 -12.5t24 -41.5q0 -26 -25 -63z" />
    <glyph glyph-name="breve.cap" horiz-adv-x="500" 
d="M477 920l55 -21q-47 -117 -167 -117q-128 0 -144 117l58 20q16 -72 89 -72q35 0 61.5 15t47.5 58z" />
    <glyph glyph-name="caron.alt" horiz-adv-x="500" 
d="M326 552l-44 18q35 74 35 121q0 18 -8 42l69 32q22 -25 22 -45q0 -25 -14 -58q-16 -36 -60 -110z" />
    <glyph glyph-name="ogonek.cap" horiz-adv-x="500" 
d="M311 -140l12 -56q-49 -22 -96 -22q-80 0 -80 64q0 50 36.5 90t100.5 84l56 -16q-106 -79 -106 -130q0 -26 26 -26q20 0 51 12z" />
    <glyph glyph-name="square" horiz-adv-x="610" 
d="M490 151h-349v349h349v-349z" />
    <glyph glyph-name="square.open" horiz-adv-x="610" 
d="M445 196v259h-259v-259h259zM490 151h-349v349h349v-349z" />
    <glyph glyph-name="circle.open" horiz-adv-x="610" 
d="M325 119q-85 0 -145 60t-60 145t60 145t145 60t145 -60t60 -145t-60 -145t-145 -60zM325 167q63 0 107 47.5t44 112.5q0 64 -43.5 108.5t-107.5 44.5t-107 -45.5t-43 -110.5t43 -111t107 -46z" />
    <glyph glyph-name="triangle.left" horiz-adv-x="425" 
d="M308 203l-185 117l185 114v-231z" />
    <glyph glyph-name="raute" horiz-adv-x="610" 
d="M541 325l-210 -209l-209 210l210 209z" />
    <glyph glyph-name="arrow.right" 
d="M54 236l11 78h357l-44 122h82l69 -162l-113 -160h-84l76 122h-354z" />
    <glyph glyph-name="arrow.left" 
d="M544 314l-11 -78h-358l45 -122h-83l-69 160l115 162h88l-81 -122h354z" />
    <glyph glyph-name="arrow.up" 
d="M309 40h-80l50 356l-129 -61l11 83l176 91l147 -91l-11 -83l-114 62z" />
    <glyph glyph-name="arrow.down" 
d="M295 510h78l-50 -357l133 62l-12 -83l-173 -91l-150 91l12 83l112 -61z" />
    <glyph glyph-name="arrow.leftup" 
d="M80 262l50 179l178 50l59 -60l-130 -42l253 -253l-56 -54l-252 252l-44 -131z" />
    <glyph glyph-name="arrow.rightup" 
d="M470 441l26 -179l-67 -59l-26 131l-267 -252l-50 56l268 253l-122 40l69 60z" />
    <glyph glyph-name="zero.lf" horiz-adv-x="562" 
d="M253 -12q-107 0 -152.5 59.5t-45.5 166.5q0 47 11 135q10 80 29.5 140t53 109t86.5 74.5t125 25.5q105 0 148 -58t43 -162q0 -47 -11 -131q-12 -87 -30 -148t-50 -111.5t-83.5 -75t-123.5 -24.5zM263 59q36 0 64 13.5t46.5 36t32.5 60.5t22.5 77.5t16.5 95.5
q12 89 12 138q0 71 -23.5 107.5t-83.5 36.5q-88 0 -128.5 -68.5t-60.5 -210.5q-11 -88 -11 -132q0 -74 25 -114t88 -40z" />
    <glyph glyph-name="one.lf" horiz-adv-x="380" 
d="M323 0h-308l7 54l94 6q10 1 13 5t5 15l73 508q1 17 -12 21l-92 18l12 55h195l-85 -602q-2 -12 0.5 -15.5t13.5 -4.5l91 -7z" />
    <glyph glyph-name="two.lf" horiz-adv-x="498" 
d="M444 0h-438l8 59l222 239q7 7 26.5 28t25.5 27.5t22 24t21.5 25t17.5 22.5t16.5 23.5t11.5 22t9.5 24t5 23t2.5 25.5q0 83 -100 83q-60 0 -88 -21t-37 -83l-85 10q7 51 27.5 85.5t52.5 51.5t65 23t76 6q183 0 183 -148q0 -37 -12.5 -72.5t-42 -75t-48.5 -61t-61 -65.5
l-197 -208h231q12 0 16 11l28 85h66z" />
    <glyph glyph-name="three.lf" horiz-adv-x="514" 
d="M357 369l-1 -4q107 -29 107 -147q0 -100 -66.5 -165t-181.5 -65q-137 0 -213 89l62 60q59 -72 156 -72q62 0 105.5 37.5t43.5 113.5q0 109 -120 109q-29 0 -73 -6l10 72l62 6q78 7 115.5 44.5t37.5 98.5q0 86 -96 86q-59 0 -87.5 -21.5t-37.5 -82.5l-87 9q7 52 28 86.5
t53.5 51.5t65 23t74.5 6q180 0 180 -148q0 -66 -37 -112t-100 -69z" />
    <glyph glyph-name="four.lf" horiz-adv-x="532" 
d="M472 0h-281l7 54l95 6q10 1 13 4.5t5 15.5l15 107h-297l9 56l333 439h113l-59 -426h87l-11 -72h-87l-16 -105q-1 -11 1 -14t13 -5l67 -7zM337 256l46 329l-250 -329h204z" />
    <glyph glyph-name="five.lf" horiz-adv-x="521" 
d="M501 603h-279l-45 -222q61 45 138 45q78 0 122 -46.5t44 -131.5q0 -115 -69 -187.5t-189 -72.5q-71 0 -128 23t-90 63l63 59q57 -69 159 -69q66 0 113.5 43.5t47.5 130.5q0 59 -30.5 86t-75.5 27q-64 0 -131 -55l-61 31l71 355h350z" />
    <glyph glyph-name="six.lf" horiz-adv-x="537" 
d="M545 633l-51 -58q-50 47 -115 47q-48 0 -87.5 -26.5t-64 -68.5t-39 -83t-20.5 -80q96 61 176 61q76 0 117 -48t41 -128q0 -117 -65 -189t-177 -72q-53 0 -91.5 21t-60 58.5t-31 82.5t-9.5 100q0 50 9.5 106t32.5 117.5t57 110.5t89.5 81t122.5 32q102 0 166 -64zM162 291
q-2 -30 -2 -56q0 -176 111 -176q65 0 101 50t36 129q0 118 -87 118q-71 0 -159 -65z" />
    <glyph glyph-name="seven.lf" horiz-adv-x="488" 
d="M223 0h-99q41 187 131.5 351.5t176.5 251.5h-245q-12 0 -16 -11l-30 -88l-64 -5l25 183h451l-8 -69q-99 -87 -198 -274t-124 -339z" />
    <glyph glyph-name="eight.lf" horiz-adv-x="503" 
d="M369 353q103 -64 103 -153q0 -97 -71 -154.5t-176 -57.5q-89 0 -139.5 41t-50.5 114q0 67 39.5 121t111.5 105q-76 52 -76 136q0 88 64 140.5t158 52.5q81 0 125 -40.5t44 -101.5q0 -103 -132 -203zM246 329q-125 -86 -125 -174q0 -44 31.5 -71t85.5 -27q60 0 100 39
t40 91q0 26 -10 47t-33.5 39.5t-38.5 27.5t-50 28zM306 387q109 86 109 160q0 40 -25.5 61t-69.5 21q-50 0 -84.5 -31t-34.5 -80q0 -43 28 -73t77 -58z" />
    <glyph glyph-name="nine.lf" horiz-adv-x="540" 
d="M38 57l52 60q57 -54 128 -54q154 0 192 240q-81 -62 -165 -62q-80 0 -122 51.5t-42 136.5q0 120 65 195t179 75q54 0 91 -19.5t57.5 -57.5t29.5 -85t9 -110q0 -47 -6 -97.5t-25.5 -114t-49.5 -112t-84.5 -82t-124.5 -33.5q-50 0 -101.5 17.5t-82.5 51.5zM416 382
q4 38 4 67q0 179 -105 179q-64 0 -102 -51t-38 -134q0 -131 87 -131q71 0 154 70z" />
    <glyph glyph-name="dollar.lf" horiz-adv-x="516" 
d="M260 -80h-78l11 80q-113 6 -179 39l20 139h66l8 -74q2 -20 17 -25q25 -10 78 -13l35 247q-67 31 -106 70.5t-39 103.5q0 84 55 133t140 59l11 74h78l-11 -72q70 -4 150 -31l-21 -153l-66 6l-4 74q-1 22 -17 28q-13 4 -51 8l-33 -242q42 -21 68 -38.5t48 -51.5t22 -78
q0 -81 -51.5 -135t-139.5 -67zM183 506q0 -60 68 -99l28 205q-96 -20 -96 -106zM372 184q0 54 -61 92l-30 -207q46 11 68.5 42.5t22.5 72.5z" />
    <glyph glyph-name="Euro.lf" horiz-adv-x="558" 
d="M375 247h-171q5 -88 40.5 -138t101.5 -50q43 0 69 9q11 4 14 15l24 79l64 4l-21 -147q-24 -11 -72 -21t-96 -10q-103 0 -159 70t-61 189h-78l18 61h61q2 36 7 65h-55l17 61h51q32 117 108.5 190t197.5 73q91 0 147 -33l-20 -145l-62 5l-3 74q0 15 -11 19q-21 8 -66 8
q-67 0 -120 -50t-78 -141h204l-17 -61h-199q-6 -42 -7 -65h190z" />
    <glyph glyph-name="cent.lf" horiz-adv-x="537" 
d="M305 0h-74l14 103q-155 27 -155 203q0 127 60.5 200.5t164.5 87.5l15 104h72l-14 -101q78 -4 131 -29l-19 -131l-60 3l-3 65q0 12 -11 15q-22 6 -48 7l-49 -357q28 1 51 9q13 5 16 14l21 65l62 3l-18 -131q-59 -27 -142 -31zM186 313q0 -109 70 -135l48 342
q-118 -35 -118 -207z" />
    <glyph glyph-name="sterling.lf" horiz-adv-x="550" 
d="M488 0h-448l-6 59q58 41 79 85t31 129l6 47h-83l10 72h80l11 81q15 113 65.5 169t161.5 56q56 0 100.5 -16t66.5 -37l-44 -59q-51 40 -122 40q-63 0 -94.5 -31t-40.5 -99l-13 -104h182l-10 -72h-180q-13 -105 -31.5 -155.5t-70.5 -96.5h262q15 0 18 11l27 85h66z" />
    <glyph glyph-name="yen.lf" horiz-adv-x="590" 
d="M482 196h-133l-16 -115q-2 -13 0 -16t13 -4l99 -8l-7 -53h-319l7 53l96 7q11 1 14 4.5t5 16.5l16 115h-132l8 62h133l10 72h-132l10 62h100l-107 213q-6 13 -21 17l-44 11l8 49h225l-6 -49l-71 -9l97 -213l158 213l-67 9l9 49h209l-6 -49l-44 -11q-12 -3 -17 -7t-17 -21
l-153 -202h104l-10 -62h-134l-9 -72h132z" />
    <glyph glyph-name="florin.lf" horiz-adv-x="548" 
d="M449 352h-149l-88 -281q-28 -90 -68.5 -126t-117.5 -36q-37 0 -75 12.5t-56 27.5l35 60q44 -31 99 -31q65 0 92 84l88 280q3 10 -6 10h-91l20 67h102l37 118q27 87 69.5 124t125.5 37q74 0 132 -33l-40 -128l-59 5l9 68q1 10 -7 13q-18 7 -44 7q-42 0 -64.5 -25
t-38.5 -77l-31 -99q-3 -10 6 -10h140z" />
    <glyph glyph-name="zero.slash" 
d="M259 -12q-107 0 -152.5 59.5t-45.5 166.5q0 55 10 135q21 166 89 257.5t206 91.5q104 0 147 -58t43 -162q0 -47 -11 -131q-12 -87 -30 -148t-50 -111.5t-83 -75t-123 -24.5zM269 59q36 0 63.5 13.5t46 36t32.5 60.5t22.5 77.5t16.5 95.5q12 89 12 138q0 73 -23 107
l-212 -523q20 -5 42 -5zM155 213q0 -77 24 -113l211 520q-20 4 -34 4q-87 0 -129 -69.5t-61 -209.5q-11 -88 -11 -132z" />
    <glyph glyph-name="zero.tf" 
d="M256 -12q-107 0 -152 59.5t-45 166.5q0 55 10 135t29.5 140t52.5 109t85 74.5t122 25.5q107 0 150.5 -58t43.5 -162q0 -47 -11 -131q-9 -69 -22 -120.5t-34.5 -98.5t-51.5 -76.5t-74.5 -46.5t-102.5 -17zM266 59q36 0 63.5 14t45.5 36t32 60.5t22 77t17 95.5
q12 78 12 138q0 71 -23.5 107.5t-86.5 36.5q-84 0 -124 -68.5t-60 -210.5q-11 -88 -11 -132q0 -75 24.5 -114.5t88.5 -39.5z" />
    <glyph glyph-name="one.tf" 
d="M432 0h-346l7 54l122 7q10 1 13.5 5t5.5 15l72 508q2 16 -12 21l-92 18l12 55h195l-84 -602q-2 -12 0 -15.5t13 -4.5l101 -8z" />
    <glyph glyph-name="two.tf" 
d="M473 0h-438l8 59l222 239q7 7 26.5 28t25.5 27.5t22 24t21.5 25t17.5 22.5t16.5 23.5t11.5 22t9.5 24t5 23t2.5 25.5q0 83 -100 83q-60 0 -88 -21t-37 -83l-85 10q7 51 27.5 85.5t52.5 51.5t65 23t76 6q183 0 183 -148q0 -37 -12.5 -72.5t-42 -75t-48.5 -61t-61 -65.5
l-197 -208h231q12 0 16 11l28 85h66z" />
    <glyph glyph-name="three.tf" 
d="M379 369l-1 -4q107 -29 107 -147q0 -100 -66.5 -165t-181.5 -65q-137 0 -213 89l62 60q59 -72 156 -72q62 0 105.5 37.5t43.5 113.5q0 109 -120 109q-29 0 -73 -6l10 72l62 6q78 7 115.5 44.5t37.5 98.5q0 86 -96 86q-59 0 -87.5 -21.5t-37.5 -82.5l-87 9q7 52 28 86.5
t53.5 51.5t65 23t74.5 6q180 0 180 -148q0 -66 -37 -112t-100 -69z" />
    <glyph glyph-name="four.tf" 
d="M494 0h-282l8 54l95 6q10 1 13 4.5t5 15.5l15 107h-295l8 56l334 437h111l-59 -424h87l-11 -72h-88l-15 -106q-1 -10 1 -13t13 -5l67 -7zM359 256l46 329l-251 -329h205z" />
    <glyph glyph-name="five.tf" 
d="M517 603h-279l-45 -222q61 45 138 45q78 0 122 -46.5t44 -131.5q0 -115 -69 -187.5t-189 -72.5q-71 0 -128 23t-90 63l63 59q57 -69 159 -69q66 0 113.5 43.5t47.5 130.5q0 59 -30.5 86t-75.5 27q-64 0 -131 -55l-61 31l71 355h350z" />
    <glyph glyph-name="six.tf" 
d="M559 633l-51 -58q-50 47 -115 47q-48 0 -87.5 -26.5t-64 -68.5t-39 -83t-20.5 -80q96 61 176 61q76 0 117 -48t41 -128q0 -117 -65 -189t-177 -72q-53 0 -91.5 21t-60 58.5t-31 82.5t-9.5 100q0 50 9.5 106t32.5 117.5t57 110.5t89.5 81t122.5 32q102 0 166 -64zM176 291
q-2 -30 -2 -56q0 -176 111 -176q65 0 101 50t36 129q0 118 -87 118q-71 0 -159 -65z" />
    <glyph glyph-name="seven.tf" 
d="M259 0h-96q41 187 133 356t178 255h-259q-12 0 -16 -11l-30 -88l-64 -5l25 175h459l-8 -61q-98 -87 -197 -277.5t-125 -343.5z" />
    <glyph glyph-name="eight.tf" 
d="M406 353q103 -64 103 -153q0 -97 -71 -154.5t-176 -57.5q-89 0 -139.5 41t-50.5 114q0 67 39.5 121t111.5 105q-76 52 -76 136q0 88 64 140.5t158 52.5q81 0 125 -40.5t44 -101.5q0 -103 -132 -203zM283 329q-125 -86 -125 -174q0 -44 31.5 -71t85.5 -27q60 0 100 39
t40 91q0 26 -10 47t-33.5 39.5t-38.5 27.5t-50 28zM343 387q109 86 109 160q0 40 -25.5 61t-69.5 21q-50 0 -84.5 -31t-34.5 -80q0 -43 28 -73t77 -58z" />
    <glyph glyph-name="nine.tf" 
d="M52 57l52 60q57 -54 128 -54q154 0 192 240q-81 -62 -165 -62q-80 0 -122 51.5t-42 136.5q0 120 65 195t179 75q54 0 91 -19.5t57.5 -57.5t29.5 -85t9 -110q0 -47 -6 -97.5t-25.5 -114t-49.5 -112t-84.5 -82t-124.5 -33.5q-50 0 -101.5 17.5t-82.5 51.5zM430 382
q4 38 4 67q0 179 -105 179q-64 0 -102 -51t-38 -134q0 -131 87 -131q71 0 154 70z" />
    <glyph glyph-name="dollar.tf" 
d="M284 -80h-78l11 80q-113 6 -179 39l20 139h66l8 -74q2 -20 17 -25q25 -10 78 -13l35 247q-67 31 -106 70.5t-39 103.5q0 84 55 133t140 59l11 74h78l-11 -72q70 -4 150 -31l-21 -153l-66 6l-4 74q-1 22 -17 28q-13 4 -51 8l-33 -242q42 -21 68 -38.5t48 -51.5t22 -78
q0 -81 -51.5 -135t-139.5 -67zM207 506q0 -60 68 -99l28 205q-96 -20 -96 -106zM396 184q0 54 -61 92l-30 -207q46 11 68.5 42.5t22.5 72.5z" />
    <glyph glyph-name="Euro.tf" 
d="M373 247h-170q5 -88 39 -138t96 -50q37 0 67 7q16 4 21 21l23 75l64 4l-20 -147q-73 -31 -166 -31q-103 0 -159 70t-61 189h-79l23 74h57l6 55h-54l23 74h48q33 112 107 179.5t191 67.5q81 0 150 -33l-21 -145l-61 5l-2 70q-1 12 -5 17t-16 8q-24 6 -60 6
q-62 0 -112 -45.5t-76 -129.5h205l-23 -74h-199q-5 -27 -6 -55h193z" />
    <glyph glyph-name="cent.tf" 
d="M322 0h-74l14 103q-155 27 -155 203q0 127 60.5 200.5t164.5 87.5l15 104h72l-14 -101q78 -4 131 -29l-19 -131l-60 3l-3 65q0 12 -11 15q-22 6 -48 7l-49 -357q28 1 51 9q13 5 16 14l21 65l62 3l-18 -131q-59 -27 -142 -31zM203 313q0 -109 70 -135l48 342
q-118 -35 -118 -207z" />
    </font>
</defs>
</svg>
