<svg xmlns="http://www.w3.org/2000/svg"><defs><font horiz-adv-x="570"><font-face ascent="755" bbox="-147 -291 1288 963" cap-height="724" descent="-245" panose-1="2 0 5 3 0 0 0 2 0 4" underline-position="-200" underline-thickness="50" unicode-range="U+0020-FB06" x-height="511"/><missing-glyph horiz-adv-x="500"/><glyph d="M195 455v-383q0-12 2.5-15.5t13.5-4.5l115-8v-44h-281v45l67 6q10 1 13 4.5t3 15.5v374q0 10-8 10h-74v56h82v70q0 85 40.5 127.5t127.5 42.5q62 0 96.5-23.5t34.5-86.5l-63-9q0 38-16 50t-55 12q-58 0-78-28t-20-88v-57q0-10 8-10h262v85q0 170 171 170 66 0 102-23.5t36-86.5l-63-9q0 38-18 50t-60 12q-59 0-80-28.5t-21-87.5v-72q0-10 8-10h167v-56h-175v-383q0-12 2.5-15.5t13.5-4.5l115-8v-44h-281v45l67 6q10 1 13 4.5t3 15.5v374q0 10-8 10h-262z" glyph-name="ff" horiz-adv-x="731" unicode="&#x66;&#x66;"/><glyph d="M617 0h-241v45l72 6q10 1 13 5t3 15v374q0 10-8 10h-261v-383q0-12 2.5-15.5t13.5-4.5l82-8v-44h-248v45l67 6q11 1 13.5 4.5t2.5 15.5v374q0 10-8 10h-74v56h82v85q0 91 47.5 130.5t172.5 39.5q38 0 56.5-1t45-6.5 39-16.5 23-32.5 11.5-53.5l-66-9q-2 43-21 52.5t-90 9.5q-93 0-122-25.5t-29-90.5v-72q0-10 8-10h328v-440q0-12 2.5-15.5t13.5-4.5l70-7v-44z" glyph-name="fi" horiz-adv-x="637" unicode="&#x66;&#x69;"/><glyph d="M128 511v85q0 91 48.5 130.5t176.5 39.5q32 0 48-.5t41-3.5 38-10 27-18.5 19.5-31 5.5-46.5v-585q0-12 2.5-15.5t13.5-4.5l65-7v-44h-231v45l67 6q10 1 13 5t3 15v576q0 44-20 53t-94 9q-96 0-126-25.5t-30-90.5v-72q0-7 1.5-8.5t6.5-1.5h167v-56h-175v-383q0-12 2.5-15.5t13.5-4.5l105-8v-44h-271v45l67 6q10 1 13 4.5t3 15.5v374q0 10-8 10h-74v56h82z" glyph-name="fl" horiz-adv-x="638" unicode="&#x66;&#x6c;"/><glyph d="M465 71v374q0 10-8 10h-262v-383q0-12 2.5-15.5t13.5-4.5l115-8v-44h-281v45l67 6q10 1 13 4.5t3 15.5v374q0 10-8 10h-74v56h82v70q0 85 40.5 127.5t127.5 42.5q62 0 96.5-23.5t34.5-86.5l-63-9q0 38-16 50t-55 12q-58 0-78-28t-20-88v-57q0-10 8-10h262v85q0 91 47.5 130.5t172.5 39.5q38 0 56.5-1t45-6.5 39-16.5 23-32.5 11.5-53.5l-66-9q-2 43-21 52.5t-90 9.5q-93 0-122-25.5t-29-90.5v-72q0-10 8-10h328v-440q0-12 2.5-15.5t13.5-4.5l70-7v-44h-241v45l72 6q10 1 13 5t3 15v374q0 10-8 10h-261v-383q0-12 2.5-15.5t13.5-4.5l82-8v-44h-248v45l67 6q11 1 13.5 4.5t2.5 15.5z" glyph-name="ffi" horiz-adv-x="974" unicode="&#x66;&#x66;&#x69;"/><glyph d="M465 71v374q0 10-8 10h-262v-383q0-12 2.5-15.5t13.5-4.5l115-8v-44h-281v45l67 6q10 1 13 4.5t3 15.5v374q0 10-8 10h-74v56h82v70q0 85 40.5 127.5t127.5 42.5q62 0 96.5-23.5t34.5-86.5l-63-9q0 38-16 50t-55 12q-58 0-78-28t-20-88v-57q0-10 8-10h262v85q0 91 48.5 130.5t176.5 39.5q32 0 48-.5t41-3.5 38-10 27-18.5 19.5-31 5.5-46.5v-585q0-12 2.5-15.5t13.5-4.5l65-7v-44h-231v45l67 6q10 1 13 5t3 15v576q0 44-20 53t-94 9q-96 0-126-25.5t-30-90.5v-72q0-7 1.5-8.5t6.5-1.5h167v-56h-175v-383q0-12 2.5-15.5t13.5-4.5l105-8v-44h-271v45l67 6q10 1 13 4.5t3 15.5z" glyph-name="ffl" horiz-adv-x="975" unicode="&#x66;&#x66;&#x6c;"/><glyph d="M532 656v-400l226 255h98v-44l-59-13q-14-2-25-15l-99-112 162-257q2-3 3.5-5t3.5-3.5 3.5-2.5 4-2 3.5-1 5-1 6-1l54-10v-44h-210v45l62 8-142 222-96-108v-96q0-12 2.5-15.5t13.5-4.5l65-7v-44h-231v45l67 6q10 1 13 4.5t3 15.5v576q0 43-20 52.5t-94 9.5q-96 0-126-25.5t-30-90.5v-72q0-7 1.5-8.5t6.5-1.5h167v-56h-175v-383q0-12 2.5-15.5t13.5-4.5l105-8v-44h-271v45l67 6q10 1 13 4.5t3 15.5v374q0 10-8 10h-74v56h82v85q0 91 48.5 130.5t176.5 39.5q32 0 48-.5t41-3.5 38-10 27-18.5 19.5-31 5.5-46.5z" glyph-name="fk" horiz-adv-x="928" unicode="&#x66;&#x6b;"/><glyph d="M521 0h-67q11 75 11 142v505q0 43-20 52.5t-94 9.5q-97 0-126.5-25.5t-29.5-90.5v-72q0-10 8-10h167v-56h-175v-383q0-12 2.5-15.5t13.5-4.5l105-8v-44h-271v45l67 6q10 1 13 4.5t3 15.5v374q0 10-8 10h-74v56h82v85q0 91 48.5 130.5t176.5 39.5q32 0 48-.5t41-3.5 38-10 27-18.5 19.5-31 5.5-46.5v-194l3-1q96 60 175 60 88 0 137.5-60t49.5-185q0-149-55.5-218.5t-154.5-69.5q-91 0-159 60l-2-1zM532 398v-278q30-32 70-53t79-21q80 0 115 57t35 165q0 194-132 194-78 0-167-64z" glyph-name="fb" horiz-adv-x="945" unicode="&#x66;&#x62;"/><glyph d="M128 511v85q0 91 48.5 130.5t176.5 39.5q32 0 48-.5t41-3.5 38-10 27-18.5 19.5-31 5.5-46.5v-202l3-1q92 68 183 68 80 0 118.5-45t38.5-145v-260q0-12 2.5-15.5t13.5-4.5l60-7v-44h-211v45l52 6q11 2 13.5 5t2.5 14v244q0 76-24 111t-78 35q-49 0-97-24t-77-51v-314q0-12 2.5-15.5t13.5-4.5l60-7v-44h-211v45q8 1 25.5 3t26.5 3q10 1 13 5t3 15v576q0 44-20 53t-94 9q-96 0-126-25.5t-30-90.5v-72q0-10 8-10h167v-56h-175v-383q0-13 2.5-16t13.5-4l105-8v-44h-271v45l67 6q11 1 13.5 5t2.5 15v374q0 10-8 10h-74v56h82z" glyph-name="fh" horiz-adv-x="981" unicode="&#x66;&#x68;"/><glyph d="M703 68l19-52q-69-28-127-28-131 0-131 124v333q0 10-8 10h-261v-383q0-12 2.5-15.5t13.5-4.5l115-8v-44h-281v45l67 6q10 1 13 4.5t3 15.5v374q0 10-8 10h-74v56h82v85q0 91 48.5 130.5t176.5 39.5q32 0 47.5-.5t40-3.5 36.5-10 26-18.5 20-31 7-46.5l-66-9q-2 43-21 52.5t-92 9.5q-96 0-126-25.5t-30-90.5v-72q0-10 8-10h261v72h67v-62q0-10 7-10h150v-56h-157v-318q0-49 16.5-69t59.5-20q45 0 96 20z" glyph-name="ft" horiz-adv-x="752" unicode="&#x66;&#x74;"/><glyph d="M464-55v500q0 10-8 10h-261v-383q0-12 2.5-15.5t13.5-4.5l115-8v-44h-281v45l67 6q10 1 13 4.5t3 15.5v374q0 10-8 10h-74v56h82v85q0 91 47.5 130.5t172.5 39.5q38 0 56.5-1t45-6.5 39-16.5 23-32.5 11.5-53.5l-66-9q-2 43-21 52.5t-90 9.5q-93 0-122-25.5t-29-90.5v-72q0-10 8-10h328v-581q0-79-32-116t-104-37q-36 0-71 11.5t-54 27.5l33 49q38-31 88-31 44 0 58.5 26t14.5 85z" glyph-name="fj" horiz-adv-x="628" unicode="&#x66;&#x6a;"/><glyph d="M465 71v374q0 10-8 10h-262v-383q0-12 2.5-15.5t13.5-4.5l115-8v-44h-281v45l67 6q10 1 13 4.5t3 15.5v374q0 10-8 10h-74v56h82v70q0 85 40.5 127.5t127.5 42.5q62 0 96.5-23.5t34.5-86.5l-63-9q0 38-16 50t-55 12q-58 0-78-28t-20-88v-57q0-10 8-10h262v85q0 91 47.5 130.5t172.5 39.5q38 0 56.5-1t45-6.5 39-16.5 23-32.5 11.5-53.5l-66-9q-2 43-21 52.5t-90 9.5q-93 0-122-25.5t-29-90.5v-72q0-10 8-10h328v-581q0-79-32-116t-104-37q-36 0-71 11.5t-54 27.5l33 49q38-31 88-31 44 0 58.5 26t14.5 85v500q0 10-8 10h-261v-383q0-12 2.5-15.5t13.5-4.5l115-8v-44h-281v45l67 6q10 1 13 4.5t3 15.5z" glyph-name="ffj" horiz-adv-x="965" unicode="&#x66;&#x66;&#x6a;"/><glyph d="M465 71v374q0 10-8 10h-262v-383q0-12 2.5-15.5t13.5-4.5l115-8v-44h-281v45l67 6q10 1 13 4.5t3 15.5v374q0 10-8 10h-74v56h82v70q0 85 40.5 127.5t127.5 42.5q62 0 96.5-23.5t34.5-86.5l-63-9q0 38-16 50t-55 12q-58 0-78-28t-20-88v-57q0-10 8-10h262v85q0 91 48.5 130.5t176.5 39.5q32 0 48-.5t41-3.5 38-10 27-18.5 19.5-31 5.5-46.5v-400l226 255h98v-44l-59-13q-14-2-25-15l-99-112 162-257q2-3 3.5-5t3.5-3.5 3.5-2.5 4-2 3.5-1 5-1 6-1l54-10v-44h-210v45l62 8-142 222-96-108v-96q0-12 2.5-15.5t13.5-4.5l65-7v-44h-231v45l67 6q10 1 13 4.5t3 15.5v576q0 43-20 52.5t-94 9.5q-96 0-126-25.5t-30-90.5v-72q0-7 1.5-8.5t6.5-1.5h167v-56h-175v-383q0-12 2.5-15.5t13.5-4.5l105-8v-44h-271v45l67 6q10 1 13 4.5t3 15.5z" glyph-name="ffk" horiz-adv-x="1265" unicode="&#x66;&#x66;&#x6b;"/><glyph d="M465 71v374q0 10-8 10h-262v-383q0-12 2.5-15.5t13.5-4.5l115-8v-44h-281v45l67 6q10 1 13 4.5t3 15.5v374q0 10-8 10h-74v56h82v70q0 85 40.5 127.5t127.5 42.5q62 0 96.5-23.5t34.5-86.5l-63-9q0 38-16 50t-55 12q-58 0-78-28t-20-88v-57q0-10 8-10h262v85q0 91 48.5 130.5t176.5 39.5q32 0 48-.5t41-3.5 38-10 27-18.5 19.5-31 5.5-46.5v-194l3-1q96 60 175 60 88 0 137.5-60t49.5-185q0-149-55.5-218.5t-154.5-69.5q-91 0-159 60l-2-1-5-47h-67q11 75 11 142v505q0 43-20 52.5t-94 9.5q-97 0-126.5-25.5t-29.5-90.5v-72q0-10 8-10h167v-56h-175v-383q0-12 2.5-15.5t13.5-4.5l105-8v-44h-271v45l67 6q10 1 13 4.5t3 15.5zM869 398v-278q30-32 70-53t79-21q80 0 115 57t35 165q0 194-132 194-78 0-167-64z" glyph-name="ffb" horiz-adv-x="1282" unicode="&#x66;&#x66;&#x62;"/><glyph d="M465 71v374q0 10-8 10h-262v-383q0-12 2.5-15.5t13.5-4.5l115-8v-44h-281v45l67 6q10 1 13 4.5t3 15.5v374q0 10-8 10h-74v56h82v70q0 85 40.5 127.5t127.5 42.5q62 0 96.5-23.5t34.5-86.5l-63-9q0 38-16 50t-55 12q-58 0-78-28t-20-88v-57q0-10 8-10h262v85q0 91 48.5 130.5t176.5 39.5q32 0 48-.5t41-3.5 38-10 27-18.5 19.5-31 5.5-46.5v-202l3-1q92 68 183 68 80 0 118.5-45t38.5-145v-260q0-12 2.5-15.5t13.5-4.5l60-7v-44h-211v45l52 6q11 2 13.5 5t2.5 14v244q0 76-24 111t-78 35q-49 0-97-24t-77-51v-314q0-12 2.5-15.5t13.5-4.5l60-7v-44h-211v45q9 1 26 3t26 3q10 1 13 5t3 15v576q0 44-20 53t-94 9q-96 0-126-25.5t-30-90.5v-72q0-10 8-10h167v-56h-175v-383q0-13 2.5-16t13.5-4l105-8v-44h-271v45l67 6q11 1 13.5 5t2.5 15z" glyph-name="ffh" horiz-adv-x="1318" unicode="&#x66;&#x66;&#x68;"/><glyph d="M1040 68l19-52q-69-28-127-28-131 0-131 124v333q0 10-8 10h-261v-383q0-12 2.5-15.5t13.5-4.5l115-8v-44h-281v45l67 6q10 1 13 4.5t3 15.5v374q0 10-8 10h-262v-383q0-12 2.5-15.5t13.5-4.5l115-8v-44h-281v45l67 6q10 1 13 4.5t3 15.5v374q0 10-8 10h-74v56h82v70q0 85 40.5 127.5t127.5 42.5q62 0 96.5-23.5t34.5-86.5l-63-9q0 38-16 50t-55 12q-58 0-78-28t-20-88v-57q0-10 8-10h262v85q0 91 48.5 130.5t176.5 39.5q32 0 47.5-.5t40-3.5 36.5-10 26-18.5 20-31 7-46.5l-66-9q-2 43-21 52.5t-92 9.5q-96 0-126-25.5t-30-90.5v-72q0-10 8-10h261v72h67v-62q0-10 7-10h150v-56h-157v-318q0-49 16.5-69t59.5-20q45 0 96 20z" glyph-name="fft" horiz-adv-x="1089" unicode="&#x66;&#x66;&#x74;"/><glyph d="M617 0h-241v45l72 6q10 1 13 5t3 15v374q0 10-8 10h-261v-383q0-12 2.5-15.5t13.5-4.5l82-8v-44h-248v45l67 6q16 1 16 21v373q0 10-8 10h-74v56h82v71q0 169 158 169 58 0 89-17.5t39-62.5q-10-3-30.5-9t-31.5-9q-5 24-19.5 32.5t-49.5 8.5q-51 0-69.5-28t-18.5-86v-59q0-10 11-10h325v-440q0-12 2.5-15.5t13.5-4.5l70-7v-44zM634 708l-175-139-32 32 155 160z" glyph-name="f_iacute" horiz-adv-x="637" unicode="&#x66;&#x26;&#x23;&#x78;&#x65;&#x64;&#x3b;"/><glyph d="M454 112v333q0 10-8 10h-262v-318q0-49 16.5-69t59.5-20 96 20l19-52q-71-28-129-28-129 0-129 124v333q0 10-8 10h-74v45q55 7 74.5 33.5t29.5 101.5h45v-114q0-10 8-10h201q41 0 57.5 30t25.5 94h45v-114q0-10 8-10h149v-56h-157v-318q0-49 16.5-69t59.5-20 96 20l19-52q-71-28-129-28-129 0-129 124z" glyph-name="tt" horiz-adv-x="742" unicode="&#x74;&#x74;"/><glyph glyph-name=".notdef" horiz-adv-x="500"/><glyph glyph-name=".null" horiz-adv-x="0"/><glyph glyph-name="nonmarkingreturn" horiz-adv-x="333"/><glyph glyph-name="space" horiz-adv-x="230" unicode="&#x20;"/><glyph d="M156 183h-55l-12 379v162h77v-162zM187 45q0-57-58-57t-58 57 58 57 58-57z" glyph-name="exclam" horiz-adv-x="256" unicode="&#x21;"/><glyph d="M295 447h-72v259h72v-259zM137 447h-72v259h72v-259z" glyph-name="quotedbl" horiz-adv-x="360" unicode="&#x22;"/><glyph d="M389 0h-59l22 146h-135l-22-146h-59l21 146h-121l13 52h117l25 162h-121l12 53h117l19 130h60l-20-130h133l19 130h60l-20-130h121l-11-53h-118l-23-162h119l-11-52h-116zM360 198l23 162h-133l-25-162h135z" glyph-name="numbersign" horiz-adv-x="607" unicode="&#x23;"/><glyph d="M456 168q0-71-43.5-113t-122.5-52v-83h-55v80q-59 0-113 12t-81 25v135h49l18-75q5-19 18-24 40-16 109-17v228q-40 11-63.5 21t-52 28.5-42 48.5-13.5 72q0 77 46.5 118.5t124.5 50.5v74h55v-71q80-3 160-33v-147l-51 5-17 82q-4 18-20 24-27 9-72 11v-232q38-11 62-21t51-29 40-48.5 13-69.5zM128 463q0-45 27.5-69t79.5-41v212q-51-7-79-33t-28-69zM391 158q0 44-26 68t-75 41v-208q101 14 101 99z" glyph-name="dollar" horiz-adv-x="521" unicode="&#x24;"/><glyph d="M206 257q-82 0-119 50t-37 126q0 84 43 135.5t121 51.5q79 0 117-46t38-128q0-86-42.5-137.5t-120.5-51.5zM271-17h-66l377 638h65zM209 309q95 0 95 133 0 125-92 125-52 0-74.5-38t-22.5-91q0-129 94-129zM643-12q-82 0-119 50t-37 126q0 84 43 135.5t121 51.5q79 0 117-46t38-128q0-86-42.5-137.5t-120.5-51.5zM646 40q95 0 95 133 0 125-92 125-52 0-74.5-38t-22.5-91q0-129 94-129z" glyph-name="percent" horiz-adv-x="856" unicode="&#x25;"/><glyph d="M675 0h-108l-86 104q-87-116-227-116-95 0-153 55t-58 147q0 81 47.5 135t138.5 75q-60 68-60 133 0 58 41 98.5t119 40.5q39 0 80.5-11t62.5-21v-126l-51 3-12 68q-3 15-16 20-25 9-64 9-46 0-70-19.5t-24-53.5q0-37 18-68.5t76-98.5l144-169 6 18q28 90 33 164h115v-44l-46-9q-9-2-12.5-4.5t-4.5-12.5q-14-90-46-158l74-89q10-12 29-16l54-10v-44zM440 150l-174 201q-157-24-157-160 0-59 38-102.5t113-43.5q112 0 180 105z" glyph-name="ampersand" horiz-adv-x="711" unicode="&#x26;"/><glyph d="M137 447h-72v259h72v-259z" glyph-name="quotesingle" horiz-adv-x="202" unicode="&#x27;"/><glyph d="M254-123l-53-29q-142 222-142 432 0 221 151 443l51-32q-68-114-101-209t-33-201q0-63 9.5-118.5t31-109 38-86.5 48.5-90z" glyph-name="parenleft" horiz-adv-x="278" unicode="&#x28;"/><glyph d="M77-152l-53 29q32 57 48.5 90t38 86.5 31 109 9.5 118.5q0 106-33 201t-101 209l51 32q151-222 151-443 0-210-142-432z" glyph-name="parenright" horiz-adv-x="278" unicode="&#x29;"/><glyph d="M218 588l-15 104v63h63v-63l-15-104h-33zM209 558l26-22-56-89-41-49-48 41 41 48zM209 558l-104 20-60 22 22 59 60-21 91-50zM261 557l77-70 41-48-48-41-41 49-55 89zM261 557l-10 31 92 50 59 21 22-59-60-22z" glyph-name="asterisk" horiz-adv-x="469" unicode="&#x2a;"/><glyph d="M319 131h-69v157h-152v66h152v154h69v-154h152v-66h-152v-157z" glyph-name="plus" unicode="&#x2b;"/><glyph d="M79-117l-39 15 31 104q1 7-5 10l-32 14 22 73q50-3 73-14.5t23-44.5q0-20-14-46z" glyph-name="comma" horiz-adv-x="175" unicode="&#x2c;"/><glyph d="M291 255h-271v74h271v-74z" glyph-name="hyphen" horiz-adv-x="311" unicode="&#x2d;"/><glyph d="M166 45q0-57-58-57t-58 57 58 57 58-57z" glyph-name="period" horiz-adv-x="206" unicode="&#x2e;"/><glyph d="M67-92h-61l281 847h60z" glyph-name="slash" horiz-adv-x="353" unicode="&#x2f;"/><glyph d="M279-12q-57 0-99.5 17t-67.5 43.5-40.5 66.5-21 79.5-5.5 87.5q0 62 11.5 112t38 94 76 68.5 118.5 24.5q55 0 96-15.5t66-41.5 40.5-64 21-77 5.5-87q0-308-239-308zM282 44q91 0 129 65t38 180q0 113-35.5 173t-126.5 60q-94 0-133.5-63.5t-39.5-182.5q0-232 168-232z" glyph-name="zero" horiz-adv-x="563" unicode="&#x30;"/><glyph d="M326 0h-296v45l107 6q10 1 13 4.5t3 15.5v411q0 8-2 12t-4.5 5.5-8.5 3.5l-98 17 5 46h175v-495q0-12 2.5-15.5t13.5-4.5l90-7v-44z" glyph-name="one" horiz-adv-x="351" unicode="&#x31;"/><glyph d="M438 0h-404v50l135 132q15 14 45 43t43 41.5 33.5 35.5 29 38.5 15.5 35.5 7 40q0 108-128 108-67 0-95.5-22t-28.5-88l-64 8q0 49 16 82t45 49 59 22 69 6q101 0 149-42t48-115q0-26-8.5-52.5t-18-45-33-45.5-35-38.5-43-41-39.5-37.5l-113-108h234q14 0 16 11l16 87h50v-154z" glyph-name="two" horiz-adv-x="461" unicode="&#x32;"/><glyph d="M301 265v-4q131-25 131-155 0-86-55-137.5t-157-51.5q-66 0-120.5 23t-85.5 60l44 47q66-69 165-69 61 0 100 29t39 97q0 62-39.5 93.5t-112.5 31.5q-30 0-69-6v57l62 6q70 7 106.5 41.5t36.5 87.5q0 109-121 109-65 0-95.5-23t-30.5-87l-64 8q0 159 194 159 96 0 141.5-43t45.5-113q0-119-115-160z" glyph-name="three" horiz-adv-x="476" unicode="&#x33;"/><glyph d="M382-67h-65v151h-292v53l240 433 55-32-216-395h214v218h65v-218h93v-59h-94v-151z" glyph-name="four" horiz-adv-x="491" unicode="&#x34;"/><glyph d="M425 508h-282l-14-214q58 39 133 39 89 0 141.5-53.5t52.5-148.5q0-93-58.5-153.5t-160.5-60.5q-140 0-217 82l45 50q65-70 173-70 60 0 104 37t44 112q0 77-40.5 111.5t-94.5 34.5q-68 0-134-48l-52 24 20 316h267q13 0 16 11l14 54 43 3v-126z" glyph-name="five" horiz-adv-x="501" unicode="&#x35;"/><glyph d="M459 506l-64-8q0 52-24 71t-77 19-89.5-26-53.5-69-24-83-7-83q73 67 173 67 88 0 132.5-53t44.5-137q0-99-52.5-157.5t-152.5-58.5q-52 0-90.5 18.5t-61.5 48.5-37 74-19 88.5-5 99.5q0 35 4 69t14 73 28.5 71 45 58.5 67 41.5 90.5 15q158 0 158-139zM122 263q6-220 146-220 64 0 98.5 40.5t34.5 114.5q0 138-117 138-46 0-91-23t-71-50z" glyph-name="six" horiz-adv-x="517" unicode="&#x36;"/><glyph d="M236-67h-71q16 184 82 329.5t150 245.5h-266q-14 0-16-11l-19-91-46-3v163h427v-50q-89-87-163-261t-78-322z" glyph-name="seven" horiz-adv-x="487" unicode="&#x37;"/><glyph d="M332 331q57-32 89.5-71t32.5-99q0-82-58.5-127.5t-153.5-45.5q-89 0-145 43t-56 120q0 58 33.5 103.5t92.5 88.5q-99 56-99 149 0 72 53.5 112.5t131.5 40.5q86 0 134-40.5t48-103.5q0-86-103-170zM224 315q-114-81-114-159 0-52 38.5-81.5t102.5-29.5q59 0 96.5 32t37.5 81q0 30-11 53t-36.5 41.5-44 29-56.5 27.5q-9 4-13 6zM277 358q89 74 89 140 0 90-117 90-49 0-81-23.5t-32-66.5q0-26 10.5-46.5t34-38 42-28 54.5-27.5z" glyph-name="eight" horiz-adv-x="496" unicode="&#x38;"/><glyph d="M73-22l37 53q61-54 145-54 159 0 159 253-76-70-174-70-90 0-134 55.5t-44 149.5q0 98 54 157t155 59q53 0 92-18.5t61.5-47.5 36-74 17.5-88.5 4-100.5q0-39-3-72.5t-10.5-74.5-24-72.5-40.5-58.5-62.5-42-87.5-15q-116 0-181 61zM412 294q-1 30-3 48t-6.5 49.5-14.5 51.5-25 41-40 31.5-58 10.5q-65 0-99.5-40t-34.5-115q0-153 118-153 49 0 92 23.5t71 52.5z" glyph-name="nine" horiz-adv-x="546" unicode="&#x39;"/><glyph d="M166 45q0-57-58-57t-58 57 58 57 58-57zM166 439q0-57-58-57t-58 57 58 57 58-57z" glyph-name="colon" horiz-adv-x="206" unicode="&#x3a;"/><glyph d="M79-117l-39 15q2 6 12 34.5t16 49.5 3 26q-1 2-5 4l-32 14 22 73q50-3 73-14.5t23-44.5q0-13-8-34t-17.5-38.5-25-45-22.5-39.5zM157 439q0-57-58-57t-58 57 58 57 58-57z" glyph-name="semicolon" horiz-adv-x="175" unicode="&#x3b;"/><glyph d="M462 98l-373 148v84l365 159 24-64-325-136 329-130z" glyph-name="less" unicode="&#x3c;"/><glyph d="M470 171h-369v69h369v-69zM470 323h-369v69h369v-69z" glyph-name="equal" unicode="&#x3d;"/><glyph d="M481 246l-373-148-20 61 329 130-325 136 24 64 365-159v-84z" glyph-name="greater" unicode="&#x3e;"/><glyph d="M208 182h-67v175q46 4 81 13.5t66 28.5 47.5 52 16.5 79q0 77-38.5 106.5t-108.5 29.5q-69 0-94-17-6-5-10-23l-10-54-51-3v123q76 32 168 32 102 0 158-43t56-145q0-188-214-227v-127zM233 45q0-57-58-57t-58 57 58 57 58-57z" glyph-name="question" horiz-adv-x="457" unicode="&#x3f;"/><glyph d="M589-86l17-53q-72-35-197-35-164 0-261.5 90.5t-97.5 264.5q0 171 108 279t280 108q152 0 244-83.5t92-232.5q0-137-52.5-200.5t-139.5-63.5q-94 0-101 76-39-37-71-56.5t-69-19.5q-105 0-105 137 0 114 58.5 193t155.5 79q69 0 131-32l-29-176q-12-69-12-97 0-52 55-52 47 0 80.5 51t33.5 145q0 135-70 205.5t-207 70.5q-142 0-228.5-93t-86.5-236q0-152 80-226t220-74q87 0 172 31zM479 130l31 195q-27 18-69 18-58 0-98-61t-40-147q0-42 10-63t39-21 65.5 24.5 61.5 54.5z" glyph-name="at" horiz-adv-x="824" unicode="&#x40;"/><glyph d="M685 0h-219v44l83 9-61 180h-292l-60-180 81-9v-44h-207v44l43 11q19 5 24 19l221 650h92l226-652q4-12 23-17l46-11v-44zM469 292l-126 377-127-377h253z" glyph-name="A" horiz-adv-x="695" unicode="&#x41;"/><glyph d="M352 0h-282v44l63 7q10 1 13 5t3 15v581q0 12-3 15.5t-13 4.5l-63 7v45h283q120 0 168.5-47t48.5-130q0-66-35-108.5t-87-59.5v-3q84-10 127-57t43-124q0-105-69.5-150t-196.5-45zM215 59h132q38 0 65 2.5t54 11 44 23.5 27.5 40.5 10.5 60.5q0 73-49 108.5t-130 35.5h-154v-282zM215 399h107q34 0 63 6t56.5 21 43 44 15.5 70q0 70-38.5 98t-124.5 28h-122v-267z" glyph-name="B" horiz-adv-x="668" unicode="&#x42;"/><glyph d="M629 177v-137q-75-52-236-52-174 0-256 102t-82 278q0 165 91 267t263 102q139 0 218-53v-146l-51 3-17 94q-2 14-13 18-68 25-142 25-129 0-204-81.5t-75-229.5q0-155 72-237.5t200-82.5q103 0 156 24 11 5 13 17l16 89h47z" glyph-name="C" horiz-adv-x="684" unicode="&#x43;"/><glyph d="M342 0h-272v44l63 7q10 1 13 5t3 15v581q0 12-3 15.5t-13 4.5l-63 7v45h289q183 0 271-91.5t88-259.5q0-173-94-273t-282-100zM216 59h131q147 0 224 77.5t77 221.5q0 171-74 239.5t-221 68.5h-137v-607z" glyph-name="D" horiz-adv-x="773" unicode="&#x44;"/><glyph d="M582 0h-512v44l63 7q10 1 13 5t3 15v581q0 12-3 15.5t-13 4.5l-63 7v45h490v-150l-51 3-14 78q-3 13-17 13h-262v-274h280v-56h-280v-282h284q14 0 16 11l16 87h50v-154z" glyph-name="E" horiz-adv-x="637" unicode="&#x45;"/><glyph d="M379 0h-309v44l63 7q10 1 13 5t3 15v581q0 12-3 15.5t-13 4.5l-63 7v45h486v-150l-51 3-14 78q-3 13-17 13h-258v-271h276v-56h-276v-269q0-12 2.5-15.5t13.5-4.5l147-8v-44z" glyph-name="F" horiz-adv-x="601" unicode="&#x46;"/><glyph d="M717 287l-42-4q-16-1-16-14v-243q-80-38-232-38-192 0-282 102.5t-90 277.5q0 165 91 267t263 102q141 0 221-53v-146l-51 3-17 94q-2 14-13 18-68 25-145 25-129 0-204-81.5t-75-229.5q0-155 80.5-237.5t225.5-82.5q84 0 149 18 13 4 13 17v195h-146l10 55h260v-45z" glyph-name="G" horiz-adv-x="747" unicode="&#x47;"/><glyph d="M738 0h-229v44l63 7q10 1 13 5t3 15v275h-372v-274q0-12 2.5-15.5t13.5-4.5l67-8v-44h-229v44l63 7q10 1 13 5t3 15v582q0 12-3 15.5t-13 4.5l-63 7v44h229v-44l-67-8q-11-1-13.5-4.5t-2.5-14.5v-251h372v251q0 12-3 15.5t-13 4.5l-63 7v44h229v-44l-67-8q-11-1-13.5-4.5t-2.5-14.5v-581q0-12 2.5-15.5t13.5-4.5l67-8v-44z" glyph-name="H" horiz-adv-x="804" unicode="&#x48;"/><glyph d="M320 0h-249v44l73 7q10 1 13 5t3 15v582q0 12-3 15.5t-13 4.5l-73 7v44h249v-44l-77-8q-11-1-13.5-4.5t-2.5-14.5v-581q0-12 2.5-15.5t13.5-4.5l77-8v-44z" glyph-name="I" horiz-adv-x="387" unicode="&#x49;"/><glyph d="M304 149v505q0 11-3 14.5t-13 4.5l-83 7v44h249v-44l-67-8q-11-1-13.5-4t-2.5-14v-513q0-79-37-116t-119-37q-51 0-94.5 11t-60.5 22v123l51-3 10-68q2-9 12-14 33-15 80-15 53 0 72 24.5t19 80.5z" glyph-name="J" horiz-adv-x="499" unicode="&#x4a;"/><glyph d="M698 0h-239v45q14 1 41.5 4t40.5 4l-241 308-84-90v-199q0-12 2.5-15.5t13.5-4.5l67-8v-44h-229v44l63 7q10 1 13 5t3 15v582q0 12-3 15.5t-13 4.5l-63 7v44h229v-44l-67-8q-11-1-13.5-4.5t-2.5-14.5v-300l295 318-62 8v45h210v-44l-54-10q-18-3-30-16l-230-245 264-339q7-9 11-11.5t18-4.5l60-10v-44z" glyph-name="K" horiz-adv-x="728" unicode="&#x4b;"/><glyph d="M582 0h-512v44l63 7q10 1 13 5t3 15v581q0 12-3 15.5t-13 4.5l-63 7v45h245v-45l-83-8q-11-1-13.5-4.5t-2.5-14.5v-596h284q14 0 16 11l16 87h50v-154z" glyph-name="L" horiz-adv-x="617" unicode="&#x4c;"/><glyph d="M878 0h-249v44l83 7q10 1 13 5t3 15v537l-225-427h-62l-225 433v-542q0-12 2.5-15.5t13.5-4.5l87-8v-44h-249v44l63 7q10 1 13 5t3 15v581q0 12-3 15.5t-13 4.5l-63 7v45h164l240-477 246 477h158v-44l-67-8q-11-1-13.5-4.5t-2.5-14.5v-582q0-17 16-19l67-8v-44z" glyph-name="M" horiz-adv-x="944" unicode="&#x4d;"/><glyph d="M684 0h-84l-384 638v-566q0-12 2.5-15.5t13.5-4.5l67-8v-44h-229v44l63 7q10 1 13 5t3 15v582q0 11-3 15t-13 5l-63 7v45h176l372-632v560q0 11-3 15t-13 5l-63 7v44h228v-44l-67-8q-11-1-13.5-4.5t-2.5-14.5v-653z" glyph-name="N" horiz-adv-x="828" unicode="&#x4e;"/><glyph d="M388-12q-165 0-248 102t-83 273q0 167 90.5 270.5t254.5 103.5q160 0 243-100t83-259q0-181-87.5-285.5t-252.5-104.5zM392 47q123 0 195 82t72 239q0 148-69.5 229t-189.5 81q-123 0-198-82.5t-75-232.5q0-151 71.5-233.5t193.5-82.5z" glyph-name="O" horiz-adv-x="783" unicode="&#x4f;"/><glyph d="M374 0h-304v44l63 7q10 1 13 5t3 15v581q0 12-3 15.5t-13 4.5l-63 7v45h297q129 0 185-58.5t56-154.5q0-235-274-235h-119v-204q0-12 2.5-15.5t13.5-4.5l143-8v-44zM215 335h117q38 0 66 3.5t55.5 14.5 45.5 30 28.5 51 10.5 75q0 82-45.5 119.5t-145.5 37.5h-132v-331z" glyph-name="P" horiz-adv-x="658" unicode="&#x50;"/><glyph d="M555-110l16-51q-30-17-84-17-69 0-98.5 29t-29.5 91q0 23 3 47-153 8-229.5 110t-76.5 269q0 164 90.5 266.5t254.5 102.5q160 0 242-99.5t82-259.5q0-169-76.5-272t-220.5-116q-3-21-3-46 0-67 65-67 37 0 65 13zM391 47q123 0 194 82t71 239q0 148-68.5 229t-188.5 81q-123 0-198-82t-75-229q0-154 71.5-237t193.5-83z" glyph-name="Q" horiz-adv-x="780" unicode="&#x51;"/><glyph d="M664 0h-238v45l82 8q-13 29-46 109t-46 111q-18 41-66 41h-135v-242q0-12 2.5-15.5t13.5-4.5l68-8v-44h-229v44l63 7q10 1 13 5t3 15v581q0 12-3 15.5t-13 4.5l-63 7v45h292q64 0 110-17t69.5-46 33.5-61 10-70q0-151-141-196 6-3 10.5-6t9-8.5 8-9 7.5-11.5 6.5-11.5 6.5-14.5 5.5-14.5 6.5-17 7-17.5l62-151q7-15 24-18l67-11v-44zM215 373h110q190 0 190 156 0 80-50.5 108.5t-160.5 28.5h-89v-293z" glyph-name="R" horiz-adv-x="689" unicode="&#x52;"/><glyph d="M500 544l-51 5-17 86q-3 16-6 19-6 8-36.5 15t-71.5 7q-84 0-127-33.5t-43-94.5q0-41 20.5-69t53.5-43 72.5-27 79.5-27 73-36 53.5-60 20.5-94q0-106-71.5-155t-186.5-49q-62 0-119.5 12t-83.5 25v151h49l19-85q2-11 5-14.5t12-7.5q56-21 127-21 178 0 178 139 0 43-20.5 72.5t-53.5 45.5-72.5 28-79.5 26-73 34-53.5 57.5-20.5 90.5q0 99 68 147.5t177 48.5q88 0 178-33v-160z" glyph-name="S" horiz-adv-x="581" unicode="&#x53;"/><glyph d="M481 0h-312v45l103 7q10 1 13 4.5t3 15.5v596h-175q-14 0-16-11l-16-87h-50v154h582v-154h-50l-16 87q-2 11-16 11h-176v-596q0-11 2.5-14.5t13.5-4.5l110-8v-45z" glyph-name="T" horiz-adv-x="643" unicode="&#x54;"/><glyph d="M582 238v415q0 12-3 15.5t-13 4.5l-63 7v44h229v-44l-67-8q-11-1-13.5-4.5t-2.5-14.5v-418q0-247-260-247-131 0-190 62t-59 186v417q0 12-3 15.5t-13 4.5l-63 7v44h229v-44l-67-8q-11-1-13.5-4.5t-2.5-14.5v-413q0-103 47.5-148t140.5-45q95 0 141 43.5t46 147.5z" glyph-name="U" horiz-adv-x="789" unicode="&#x55;"/><glyph d="M389 0h-92l-223 652q-4 12-24 17l-45 11 10 44h211v-44l-83-9 201-614 196 614-81 9 10 44h197v-44l-42-11q-20-5-25-19z" glyph-name="V" horiz-adv-x="676" unicode="&#x56;"/><glyph d="M719 0h-85l-144 493-149-493h-78l-171 651q-4 17-20 19l-62 10 10 44h229v-44l-91-10 148-590 147 493h77l146-503 151 600-93 10 10 44h219v-44l-54-9q-10-1-14-5t-7-15z" glyph-name="W" horiz-adv-x="973" unicode="&#x57;"/><glyph d="M649 0h-215v44l74 9-179 270-175-270 72-9v-44h-206v42l50 11q15 4 25 19l193 296-183 284q-8 13-24 17l-45 11 10 44h196v-44l-74-9 161-253 166 253-72 9 10 44h187v-44l-42-11q-15-4-25-19l-182-277 203-301q8-13 24-17l51-11v-44z" glyph-name="X" horiz-adv-x="669" unicode="&#x58;"/><glyph d="M450 0h-289v44l93 7q10 1 13 4.5t3 15.5v213l-201 368q-7 13-24 17l-45 11 10 44h198v-44l-74-9 171-325 167 325-72 9 10 44h186v-44l-42-11q-18-5-25-19l-192-363v-215q0-12 2.5-15.5t13.5-4.5l97-8v-44z" glyph-name="Y" horiz-adv-x="596" unicode="&#x59;"/><glyph d="M573 0h-523v46l433 622h-332q-14 0-16-11l-19-93-52-3v163h502v-48l-431-620h351q14 0 16 11l19 107h52v-174z" glyph-name="Z" horiz-adv-x="633" unicode="&#x5a;"/><glyph d="M213-143h-145v867h145v-44l-67-8q-11-1-13.5-4.5t-2.5-14.5v-723q0-12 2.5-15.5t13.5-4.5l67-8v-45z" glyph-name="bracketleft" horiz-adv-x="243" unicode="&#x5b;"/><glyph d="M347-92h-61l-280 847h60z" glyph-name="backslash" horiz-adv-x="353" unicode="&#x5c;"/><glyph d="M30 724h145v-867h-145v45l67 8q11 1 13.5 4.5t2.5 14.5v723q0 12-2.5 15.5t-13.5 4.5l-67 8v44z" glyph-name="bracketright" horiz-adv-x="243" unicode="&#x5d;"/><glyph d="M496 299h-68l-168 303-165-303h-65l197 365h69z" glyph-name="asciicircum" horiz-adv-x="526" unicode="&#x5e;"/><glyph d="M500-181h-500v52h500v-52z" glyph-name="underscore" horiz-adv-x="500" unicode="&#x5f;"/><glyph d="M353 601l-32-32-175 139 52 53z" glyph-name="grave" horiz-adv-x="500" unicode="&#x60;"/><glyph d="M509 0h-122l-9 67-3 1q-87-80-185-80-44 0-74 13.5t-43 36-17.5 42-4.5 41.5q0 73 44.5 108.5t135.5 44.5l143 13v56q0 67-22.5 94t-91.5 27q-26 0-38.5-.5t-31-4.5-27-12.5-15.5-24-7-39.5l-64 8q0 130 184 130 103 0 141.5-37t38.5-139v-274q0-12 2.5-15.5t13.5-4.5l52-7v-44zM374 138v96l-131-12q-70-7-96-28t-26-65q0-85 82-85 49 0 95 27t76 67z" glyph-name="a" horiz-adv-x="534" unicode="&#x61;"/><glyph d="M160 0h-67q11 75 11 142v531q0 17-13 21l-61 19 8 42h133v-295q101 61 178 61 88 0 137.5-60t49.5-185q0-149-55.5-218.5t-154.5-69.5q-92 0-159 60l-2-1zM171 398v-278q30-32 70-53t79-21q80 0 115 57t35 165q0 194-132 194-78 0-167-64z" glyph-name="b" horiz-adv-x="588" unicode="&#x62;"/><glyph d="M420 83l26-56q-59-39-164-39-120 0-178.5 70.5t-58.5 191.5q0 137 69.5 204t187.5 67q78 0 142-27v-123l-51 3-12 66q-2 10-11 13-28 10-76 10-81 0-130-50.5t-49-159.5q0-105 46.5-155t129.5-50q74 0 129 35z" glyph-name="c" horiz-adv-x="476" unicode="&#x63;"/><glyph d="M552 0h-122l-8 68-3 1q-86-81-180-81-187 0-187 255 0 141 55.5 209.5t152.5 68.5q89 0 157-49v202q0 16-13 20l-61 19 8 42h133v-684q0-12 2.5-15.5t13.5-4.5l52-7v-44zM417 141v258q-27 26-69.5 45t-86.5 19q-143 0-143-218 0-198 130-198 89 0 169 94z" glyph-name="d" horiz-adv-x="590" unicode="&#x64;"/><glyph d="M425 86l25-56q-73-42-172-42-233 0-233 270 0 129 61.5 196t158.5 67q94 0 147.5-56.5t53.5-179.5q0-13-2-43h-349q5-193 168-193 45 0 74.5 8t67.5 29zM117 296h280q-1 87-37 126.5t-94 39.5q-62 0-102.5-39.5t-46.5-126.5z" glyph-name="e" horiz-adv-x="506" unicode="&#x65;"/><glyph d="M326 0h-281v45l67 6q10 1 13 4.5t3 15.5v374q0 10-8 10h-74v56h82v85q0 170 171 170 66 0 102-23.5t36-86.5l-63-9q0 38-18 50t-60 12q-59 0-80-28.5t-21-87.5v-72q0-10 8-10h167v-56h-175v-383q0-12 2.5-15.5t13.5-4.5l115-8v-44z" glyph-name="f" horiz-adv-x="394" unicode="&#x66;"/><glyph d="M526 456l-93-7q37-47 37-106 0-88-57.5-137.5t-148.5-49.5q-53 0-87 14l-47-94 177-13q118-8 163-32.5t45-99.5q0-74-63.5-115t-190.5-41q-121 0-173.5 31.5t-52.5 91.5q0 36 16.5 63.5t51.5 60.5q-47 10-47 45 0 19 20 49l49 77q-70 43-70 140 0 85 57.5 136.5t153.5 51.5q51 0 86-10h174v-55zM404 339q0 61-35.5 94t-101.5 33-105-33-39-96q0-55 34-89.5t107-34.5q64 0 102 35t38 91zM332 1l-164 10q-62-55-62-101 0-42 43.5-58t131.5-16q21 0 55 4 107 16 107 90 0 35-27.5 51.5t-83.5 19.5z" glyph-name="g" horiz-adv-x="534" unicode="&#x67;"/><glyph d="M602 0h-211v45l52 6q11 2 13.5 5t2.5 14v244q0 76-24 111t-78 35q-49 0-97-24t-77-51v-314q0-12 2.5-15.5t13.5-4.5l60-7v-44h-211v45l52 6q10 1 13 5t3 15v602q0 17-13 21l-61 19 8 42h133v-304q95 70 186 70 80 0 118.5-45t38.5-145v-260q0-12 2.5-15.5t13.5-4.5l60-7v-44z" glyph-name="h" horiz-adv-x="632" unicode="&#x68;"/><glyph d="M190 688q0-53-54-53t-54 53 54 53 54-53zM269 0h-241v45l72 6q10 1 13 5t3 15v358q0 17-13 21l-58 19 8 42h130v-440q0-12 2.5-15.5t13.5-4.5l70-7v-44z" glyph-name="i" horiz-adv-x="289" unicode="&#x69;"/><glyph d="M114-55v484q0 17-12 21l-68 19 8 42h139v-581q0-78-31.5-115.5t-100.5-37.5q-83 0-129 39l33 49q37-31 91-31 42 0 56 26.5t14 84.5zM190 688q0-53-54-53t-54 53 54 53 54-53z" glyph-name="j" horiz-adv-x="275" unicode="&#x6a;"/><glyph d="M569 0h-210v45l62 8-142 222-96-108v-96q0-12 2.5-15.5t13.5-4.5l65-7v-44h-231v45l67 6q10 1 13 5t3 15v602q0 17-13 21l-61 19 8 42h133v-503l224 259h100v-44l-59-13q-15-4-25-15l-99-112 162-257q8-13 29-16l54-10v-44z" glyph-name="k" horiz-adv-x="579" unicode="&#x6b;"/><glyph d="M264 0h-231v45l67 6q10 1 13 4.5t3 15.5v602q0 17-13 21l-61 19 8 42h133v-684q0-12 2.5-15.5t13.5-4.5l65-7v-44z" glyph-name="l" horiz-adv-x="289" unicode="&#x6c;"/><glyph d="M891 0h-211v45l52 6q11 2 13.5 5t2.5 14v240q0 79-20 114.5t-76 35.5q-72 0-153-59 4-25 4-65v-265q0-12 2.5-15.5t13.5-4.5l52-7v-44h-200v45l49 6q11 2 13.5 5t2.5 14v245q0 80-16.5 112.5t-69.5 32.5q-86 0-167-75v-314q0-12 2.5-15.5t13.5-4.5l60-7v-44h-211v45l52 6q10 1 13 5t3 15v358q0 17-13 21l-58 19 8 42h113l8-62 3-1q94 73 188 73 90 0 119-65 92 65 183 65 83 0 115.5-48t32.5-142v-260q0-12 2.5-15.5t13.5-4.5l60-7v-44z" glyph-name="m" horiz-adv-x="921" unicode="&#x6d;"/><glyph d="M602 0h-211v45l52 6q11 2 13.5 5t2.5 14v240q0 78-23.5 114t-78.5 36q-49 0-97-24t-77-51v-314q0-12 2.5-15.5t13.5-4.5l60-7v-44h-211v45l52 6q10 1 13 5t3 15v358q0 17-13 21l-58 19 8 42h113l8-62 3-1q99 73 194 73 84 0 119.5-48.5t35.5-141.5v-260q0-12 2.5-15.5t13.5-4.5l60-7v-44z" glyph-name="n" horiz-adv-x="632" unicode="&#x6e;"/><glyph d="M279-12q-119 0-176.5 72.5t-57.5 196.5q0 121 61.5 192.5t182.5 71.5q118 0 173.5-69t55.5-188q0-130-59.5-203t-179.5-73zM282 43q167 0 167 214 0 205-162 205-84 0-128.5-52t-44.5-154q0-103 42.5-158t125.5-55z" glyph-name="o" horiz-adv-x="563" unicode="&#x6f;"/><glyph d="M289-212h-231v45l42 6q10 1 13 5t3 15v570q0 17-13 21l-58 19 8 42h114l8-60 2-1q93 71 184 71 88 0 137.5-60t49.5-185q0-257-170-285-20-3-40-3-93 0-153 59l-2-1v-187q0-12 2.5-15.5t13.5-4.5l90-7v-44zM183 389v-269q30-32 70-53t79-21q80 0 115 57t35 165q0 193-132 193-81 0-167-72z" glyph-name="p" horiz-adv-x="600" unicode="&#x70;"/><glyph d="M552-212h-221v44l70 7q11 1 13.5 4.5t2.5 15.5v207l-1 1q-82-79-175-79-189 0-189 254 0 140 55 209.5t150 69.5q87 0 160-53l10 43h67q-10-82-10-130v-522q0-11 3-15t13-5l52-6v-45zM417 141v258q-27 26-70 45t-86 19q-143 0-143-217 0-199 130-199 89 0 169 94z" glyph-name="q" horiz-adv-x="577" unicode="&#x71;"/><glyph d="M289 0h-241v45l52 6q10 1 13 5t3 15v358q0 17-13 21l-58 19 8 42h114l9-64q79 74 155 74 34 0 66-9v-139l-51 3-13 76q-1 9-12 9-64 0-138-74v-316q0-12 2.5-15.5t13.5-4.5l90-7v-44z" glyph-name="r" horiz-adv-x="417" unicode="&#x72;"/><glyph d="M393 371l-51 3-12 66q-2 10-11 13-34 12-83 12-59 0-88-23.5t-29-61.5q0-18 7.5-32.5t17-23 30-17 33-12 39.5-10.5q38-10 59-17.5t49-24 41-43 13-63.5q0-78-55-113.5t-138-35.5q-52 0-104.5 11.5t-70.5 21.5v123l51-3 12-66q2-10 11-13 50-18 108-18 121 0 121 87 0 23-9 39.5t-29 27.5-37 16.5-47 13.5q-34 8-49 12t-42.5 16-40 25-23.5 36.5-11 54.5q0 77 54.5 113t136.5 36q86 0 147-27v-123z" glyph-name="s" horiz-adv-x="449" unicode="&#x73;"/><glyph d="M351 68l19-52q-71-28-129-28-129 0-129 124v333q0 10-8 10h-74v45q55 7 74.5 33.5t29.5 101.5h45v-114q0-10 8-10h149v-56h-157v-318q0-49 16.5-69t59.5-20 96 20z" glyph-name="t" horiz-adv-x="400" unicode="&#x74;"/><glyph d="M591 0h-123l-9 73-2 1q-94-86-197-86-80 0-112 46.5t-32 137.5v258q0 13-2.5 17.5t-13.5 6.5l-53 15 7 42h129v-321q0-77 19-111t71-34q95 0 183 103v283q0 13-2.5 17t-13.5 6l-54 15 7 42h130v-439q0-20 13-21l55-7v-44z" glyph-name="u" horiz-adv-x="629" unicode="&#x75;"/><glyph d="M323 0h-76l-173 441q-4 13-21 17l-43 9 10 44h189v-44l-71-8 149-397 149 397-68 8 10 44h173v-44l-32-6q-20-4-25-17z" glyph-name="v" horiz-adv-x="561" unicode="&#x76;"/><glyph d="M613 0h-81l-109 421-122-421h-80l-147 441q-4 13-21 17l-43 9 10 44h185v-44l-67-8 125-391 123 428h77l111-426 120 389-68 8 10 44h179v-44l-36-6q-14-2-18.5-6t-7.5-14q-35-112-140-441z" glyph-name="w" horiz-adv-x="825" unicode="&#x77;"/><glyph d="M553 0h-219v44l68 9-125 163-126-163 69-9v-44h-210v44l56 11q12 2 23 16l147 189-137 179q-10 12-24 17l-45 11 10 44h188v-44l-67-8 118-153 121 153-67 8 10 44h185v-44l-47-10q-13-4-25-19l-136-174 147-191q13-16 26-18l60-11v-44z" glyph-name="x" horiz-adv-x="563" unicode="&#x78;"/><glyph d="M339-212h-246v45l70 8q8 1 12 5t9 16l64 148-176 430q-5 13-21 17l-41 10 10 44h190v-44l-68-8 143-369 149 369-69 8 10 44h182v-44l-34-5q-19-3-25-17l-253-604 94-9v-44z" glyph-name="y" horiz-adv-x="567" unicode="&#x79;"/><glyph d="M441 0h-401v42l312 413h-221q-9 0-11-13l-12-66-53-3v138h384v-44l-310-411h236q9 0 11 13l12 76 53 3v-148z" glyph-name="z" horiz-adv-x="476" unicode="&#x7a;"/><glyph d="M246-97l-10-49q-80 9-114 34.5t-34 86.5q0 27 6.5 95t6.5 99q0 55-24 74t-67 20v51q43 1 67 20t24 74q0 31-6.5 101t-6.5 97q0 61 34 86.5t114 34.5l10-49q-57-12-74.5-24t-17.5-48q0-25 6-94.5t6-105.5q0-55-18.5-80t-51.5-38q33-13 51.5-37.5t18.5-79.5q0-36-6-103.5t-6-92.5q0-36 17.5-48t74.5-24z" glyph-name="braceleft" horiz-adv-x="274" unicode="&#x7b;"/><glyph d="M170-143h-60v898h60v-898z" glyph-name="bar" horiz-adv-x="280" unicode="&#x7c;"/><glyph d="M38-146l-10 49q57 12 74.5 24t17.5 48q0 25-6 92.5t-6 103.5q0 55 18.5 79.5t51.5 37.5q-33 13-51.5 38t-18.5 80q0 36 6 105t6 95q0 36-17.5 48t-74.5 24l10 49q80-9 114-34.5t34-86.5q0-38-6.5-103t-6.5-95q0-55 24-74t67-20v-51q-67-2-84-46-7-17-7-48 0-37 6.5-104.5t6.5-89.5q0-61-34-86.5t-114-34.5z" glyph-name="braceright" horiz-adv-x="274" unicode="&#x7d;"/><glyph d="M407 411l44-14q-13-49-32-74.5t-61-25.5q-38 0-119 23t-109 23q-22 0-36.5-12t-34.5-43l-42 18q23 48 47 71.5t64 23.5 117-23 107-23q23 0 33.5 12.5t21.5 43.5z" glyph-name="asciitilde" horiz-adv-x="465" unicode="&#x7e;"/><glyph d="M194 464q0-57-58-57t-58 57 58 57 58-57zM173-53v-162h-77v162l12 379h55z" glyph-name="exclamdown" horiz-adv-x="256" unicode="&#xa1;"/><glyph d="M60 278q0 111 52.5 172.5t142.5 74.5v103h55v-99q74-1 136-27v-123l-47 3-11 64q-3 12-12 15-28 9-66 10v-381q49 2 69 9 10 3 11 14l12 66 47 3v-123q-58-26-139-27v-99h-55v102q-93 12-144 72.5t-51 170.5zM130 284q0-166 125-190v373q-125-25-125-183z" glyph-name="cent" horiz-adv-x="489" unicode="&#xa2;"/><glyph d="M485 0h-435l-12 47q54 45 66 88.5t12 137.5v15 16h-84v56h84v71q0 214 206 214 75 0 118.5-30t43.5-110l-63-9q0 52-24.5 72t-77.5 20q-72 0-103.5-38.5t-31.5-136.5v-53h195v-56h-195v-21q0-63-2-92t-17-66-47-69h285q14 0 16 11l16 87h50v-154z" glyph-name="sterling" horiz-adv-x="548" unicode="&#xa3;"/><glyph d="M563 57l-50-48-93 91q-55-41-136-41-86 0-140 43l-92-93-46 47 95 95q-33 53-33 131 0 67 35 123l-94 93 50 49 90-90q58 47 142 47 86 0 141-44l86 86 46-47-89-90q32-53 32-123 0-76-39-135zM289 119q68 0 105 46t37 117q0 76-37 118t-108 42q-68 0-105-44t-37-116q0-73 36-118t109-45z" glyph-name="currency" unicode="&#xa4;"/><glyph d="M430 179h-135v-107q0-12 2.5-15.5t13.5-4.5l97-8v-44h-289v44l93 7q10 1 13 5t3 15v108h-135v56h135v59h-135v56h102l-136 204q-8 13-24 17l-45 11 10 44h196v-44l-74-9 141-218q126 198 138 218l-72 9 10 44h183v-44l-42-11q-15-4-25-19l-130-202h105v-56h-135v-59h135v-56z" glyph-name="yen" horiz-adv-x="512" unicode="&#xa5;"/><glyph d="M170-143h-60v388h60v-388zM170 410h-60v345h60v-345z" glyph-name="brokenbar" horiz-adv-x="280" unicode="&#xa6;"/><glyph d="M85-109v123l51-3 12-66q2-11 11-14 48-17 100-17 109 0 109 90 0 38-29.5 59t-72 31-85 23-72 45-29.5 85q0 40 21 75t53 57q-49 37-49 103 0 73 51.5 108.5t130.5 35.5q84 0 148-27v-123l-51 3-12 66q-2 10-11 13-34 12-82 12-109 0-109-85 0-35 30-55.5t72.5-31 85-24 72.5-46 30-85.5q0-77-77-132 52-36 52-99 0-82-52-118t-129-36q-47 0-100 12t-69 21zM206 353q-29-14-45-41.5t-16-54.5q0-30 20-51t41-29.5 66-21.5 63-20q58 35 58 104 0 30-19.5 50t-41 27.5-64.5 18.5-62 18z" glyph-name="section" horiz-adv-x="540" unicode="&#xa7;"/><glyph d="M200 658q0-22-13.5-35.5t-36.5-13.5-36.5 13.5-13.5 35.5 13.5 35.5 36.5 13.5 36.5-13.5 13.5-35.5zM399 658q0-22-13.5-35.5t-36.5-13.5-36.5 13.5-13.5 35.5 13.5 35.5 36.5 13.5 36.5-13.5 13.5-35.5z" glyph-name="dieresis" horiz-adv-x="500" unicode="&#xa8;"/><glyph d="M710 319q0-148-92-239.5t-239-91.5q-159 0-244.5 88.5t-85.5 228.5q0 151 95 240.5t237 89.5q152 0 240.5-85.5t88.5-230.5zM381 31q130 0 205 75.5t75 206.5q0 133-77 206t-203 73q-124 0-202.5-76.5t-78.5-209.5q0-128 75-201.5t206-73.5zM505 242v-98q-41-24-114-24-97 0-142.5 52.5t-45.5 142.5q0 88 49.5 141t141.5 53q59 0 112-20v-103l-39 3-10 54q-1 6-9 9-27 11-63 11-53 0-87-36.5t-34-113.5q0-66 31.5-107t96.5-41q34 0 56 11 6 3 9 12l14 54h34z" glyph-name="copyright" horiz-adv-x="759" unicode="&#xa9;"/><glyph d="M347 281h-91l-6 41-2 1q-55-50-119-50-93 0-93 88 0 47 29.5 70t90.5 28l89 7v36q0 38-13 54t-54 16q-25 0-37.5-2t-23-13-10.5-34l-55 6q0 87 127 87 70 0 97-24t27-89v-170q0-8 2-10t9-3l33-5v-34zM245 368v60l-76-6q-42-4-57.5-16.5t-15.5-38.5q0-49 50-49 57 0 99 50z" glyph-name="ordfeminine" horiz-adv-x="369" unicode="&#xaa;"/><glyph d="M219 103h-66l-88 157 89 148h66l-73-136q-6-10-1-19zM365 103h-66l-88 157 89 148h66l-73-136q-6-10-1-19z" glyph-name="guillemotleft" horiz-adv-x="424" unicode="&#xab;"/><glyph d="M471 199h-69v94h-304v66h373v-160z" glyph-name="logicalnot" unicode="&#xac;"/><glyph d="M291 255h-271v74h271v-74z" glyph-name="uni00AD" horiz-adv-x="311" unicode="&#xad;"/><glyph d="M407 480q0-82-51-132.5t-133-50.5q-88 0-135.5 49t-47.5 127q0 83 52.5 133.5t131.5 50.5q84 0 133.5-48t49.5-129zM368 477q0 69-40 106.5t-104 37.5q-63 0-103.5-39.5t-40.5-107.5q0-66 38.5-103.5t105.5-37.5 105.5 38.5 38.5 105.5zM320 384h-78v19l18 2-26 45q-6 10-18 10h-16v-49q0-5 5-6l16-2v-19h-78v19l16 2q5 1 5 5v139q0 4-3 5t-10 1.5-8 .5v19h87q64 0 64-54 0-39-38-53 6-2 16-18l22-38q2-5 8-6l18-3v-19zM200 488h13q44 0 44 32 0 27-37 27h-20v-59z" glyph-name="registered" horiz-adv-x="447" unicode="&#xae;"/><glyph d="M401 616h-303v57h303v-57z" glyph-name="macron" horiz-adv-x="500" unicode="&#xaf;"/><glyph d="M151 609q51 0 51 57 0 55-51 55-53 0-53-59 0-53 53-53zM250 666q0-47-26.5-73.5t-72.5-26.5q-47 0-74 25.5t-27 70.5q0 48 28.5 75t72.5 27 71.5-25.5 27.5-72.5z" glyph-name="degree" horiz-adv-x="300" unicode="&#xb0;"/><glyph d="M471 0h-373v66h373v-66zM319 131h-69v157h-152v66h152v154h69v-154h152v-66h-152v-157z" glyph-name="plusminus" unicode="&#xb1;"/><glyph d="M320 350h-292v41l125 151q34 41 46 57.5t23.5 41 11.5 46.5q0 30-17 45.5t-59 15.5q-36 0-52-14.5t-16-51.5l-59 7q0 108 132 108 136 0 136-105 0-42-20.5-78t-62.5-85l-111-133h149q8 0 10 7l10 54h46v-107z" glyph-name="twosuperior" horiz-adv-x="344" unicode="&#xb2;"/><glyph d="M226 586v-3q85-19 85-109 0-63-41.5-97.5t-109.5-34.5q-93 0-145 57l38 42q44-46 106-46 39 0 63.5 20t24.5 61q0 79-92 79-24 0-45-4v49l39 4q89 7 89 81 0 63-76 63-35 0-51.5-15t-16.5-51l-60 7q0 108 132 108 136 0 136-106 0-80-76-105z" glyph-name="threesuperior" horiz-adv-x="346" unicode="&#xb3;"/><glyph d="M353 708l-175-139-32 32 155 160z" glyph-name="acute" horiz-adv-x="500" unicode="&#xb4;"/><glyph d="M108-176v687h67v-336q0-69 20.5-99.5t72.5-30.5q92 0 180 103v363h67v-439q0-20 13-21l55-7v-44h-124l-8 71-3 1q-99-84-189-84-59 0-86 35l-3-2 5-197h-67z" glyph-name="mu" horiz-adv-x="629" unicode="&#xb5;"/><glyph d="M522-133h-150v722h-89v-722h-147v44l68 8q12 1 12 15v238q-95 9-150.5 69.5t-55.5 158.5q0 126 77 185.5t198 59.5h237v-44l-67-8q-11-1-13.5-4.5t-2.5-14.5v-640q0-9 3-11t13-4l67-8v-44z" glyph-name="paragraph" horiz-adv-x="547" unicode="&#xb6;"/><glyph d="M146 302q0-57-58-57t-58 57 58 57 58-57z" glyph-name="periodcentered" horiz-adv-x="176" unicode="&#xb7;"/><glyph d="M143-224l6 46q15-3 33-3 75 0 75 55 0 46-72 47l15 109 52-8-9-66q32-6 52-26t20-53q0-42-31-73.5t-97-31.5q-25 0-44 4z" glyph-name="cedilla" horiz-adv-x="500" unicode="&#xb8;"/><glyph d="M230 350h-205v38l61 4q7 1 8.5 3t1.5 10v319q0 11-9 14l-62 11 5 38h130v-382q0-8 1.5-10t8.5-3l60-4v-38z" glyph-name="onesuperior" horiz-adv-x="247" unicode="&#xb9;"/><glyph d="M191 273q-81 0-120 46.5t-39 126.5q0 78 41.5 124t123.5 46q80 0 118-44.5t38-120.5q0-84-40-131t-122-47zM193 317q99 0 99 129 0 124-96 124-104 0-104-124 0-129 101-129z" glyph-name="ordmasculine" horiz-adv-x="385" unicode="&#xba;"/><glyph d="M124 103h-66l73 141q6 10 1 19l-73 145h66l88-153zM270 103h-66l73 141q6 10 1 19l-73 145h66l88-153z" glyph-name="guillemotright" horiz-adv-x="424" unicode="&#xbb;"/><glyph d="M280 281h-205v38l61 4q7 1 8.5 3t1.5 10v319q0 11-9 14l-62 11 5 38h130v-382q0-8 1.5-10t8.5-3l60-4v-38zM276-12h-64l356 736h63zM729 103v-103h-60v104h-196v49l178 282h79v-280h57v-52h-58zM669 155v210l-132-210h132z" glyph-name="onequarter" horiz-adv-x="855" unicode="&#xbc;"/><glyph d="M284 281h-205v38l61 4q7 1 8.5 3t1.5 10v319q0 11-9 14l-62 11 5 38h130v-382q0-8 1.5-10t8.5-3l60-4v-38zM245-12h-64l356 736h63zM800 0h-292v41l125 151q34 41 46 57.5t23.5 41 11.5 46.5q0 30-17 45.5t-59 15.5q-36 0-52-14.5t-16-51.5l-59 7q0 108 132 108 136 0 136-105 0-42-20.5-78t-62.5-85l-111-133h149q8 0 10 7l10 54h46v-107z" glyph-name="onehalf" horiz-adv-x="855" unicode="&#xbd;"/><glyph d="M245 517v-3q85-19 85-109 0-63-41.5-97.5t-109.5-34.5q-93 0-145 57l38 42q44-46 106-46 39 0 63.5 20t24.5 61q0 79-92 79-24 0-45-4v49l39 4q89 7 89 81 0 63-76 63-35 0-51.5-15t-16.5-51l-60 7q0 108 132 108 136 0 136-106 0-80-76-105zM305-12h-64l356 736h63zM760 103v-103h-60v104h-196v49l178 282h79v-280h57v-52h-58zM700 155v210l-132-210h132z" glyph-name="threequarters" horiz-adv-x="855" unicode="&#xbe;"/><glyph d="M430-60v-123q-76-32-168-32-102 0-158 43t-56 145q0 188 214 227v127h67v-175q-31-3-54-7t-54.5-15.5-52-29-35.5-49-15-72.5q0-77 38-106.5t109-29.5q33 0 56.5 4.5t34 10.5 11.5 13l12 66zM353 464q0-57-58-57t-58 57 58 57 58-57z" glyph-name="questiondown" horiz-adv-x="457" unicode="&#xbf;"/><glyph d="M685 0h-219v44l83 9-61 180h-292l-60-180 81-9v-44h-207v44l43 11q19 5 24 19l221 650h92l226-652q4-12 23-17l46-11v-44zM469 292l-126 377-127-377h253zM417 765l-197 106 40 63 181-131z" glyph-name="Agrave" horiz-adv-x="695" unicode="&#xc0;"/><glyph d="M685 0h-219v44l83 9-61 180h-292l-60-180 81-9v-44h-207v44l43 11q19 5 24 19l221 650h92l226-652q4-12 23-17l46-11v-44zM469 292l-126 377-127-377h253zM470 872l-197-106-24 38 181 131z" glyph-name="Aacute" horiz-adv-x="695" unicode="&#xc1;"/><glyph d="M685 0h-219v44l83 9-61 180h-292l-60-180 81-9v-44h-207v44l43 11q19 5 24 19l221 650h92l226-652q4-12 23-17l46-11v-44zM469 292l-126 377-127-377h253zM463 766l-119 84-119-84-35 34 116 99h76l116-99z" glyph-name="Acircumflex" horiz-adv-x="695" unicode="&#xc2;"/><glyph d="M685 0h-219v44l83 9-61 180h-292l-60-180 81-9v-44h-207v44l43 11q19 5 24 19l221 650h92l226-652q4-12 23-17l46-11v-44zM469 292l-126 377-127-377h253zM292 880l134-35q10-3 16 3l39 39 36-27-23-32q-33-46-62-46-16 0-29 4l-137 36q-10 3-16-3l-42-41-36 27 29 41q27 39 58 39 11 0 33-5z" glyph-name="Atilde" horiz-adv-x="695" unicode="&#xc3;"/><glyph d="M685 0h-219v44l83 9-61 180h-292l-60-180 81-9v-44h-207v44l43 11q19 5 24 19l221 650h92l226-652q4-12 23-17l46-11v-44zM469 292l-126 377-127-377h253zM295 831q0-22-13.5-35.5t-36.5-13.5-36.5 13.5-13.5 35.5 13.5 35.5 36.5 13.5 36.5-13.5 13.5-35.5zM494 831q0-22-13.5-35.5t-36.5-13.5-36.5 13.5-13.5 35.5 13.5 35.5 36.5 13.5 36.5-13.5 13.5-35.5z" glyph-name="Adieresis" horiz-adv-x="695" unicode="&#xc4;"/><glyph d="M431 797q0-53-41-75l226-650q4-12 23-17l46-11v-44h-219v44l83 9-61 180h-292l-60-180 81-9v-44h-207v44l43 11q19 5 24 19l220 647q-41 21-41 74 0 41 25 64.5t63 23.5 62.5-22.5 24.5-63.5zM469 292l-126 377-127-377h253zM344 755q38 0 38 42 0 41-38 41-40 0-40-43 0-40 40-40z" glyph-name="Aring" horiz-adv-x="695" unicode="&#xc5;"/><glyph d="M954 0h-512v44l61 7q12 1 15 5t3 16v256h-230l-155-275 71-9v-44h-197v44l42 11q20 5 28 19l335 598-76 7v45h593v-150l-51 3-14 78q-2 13-17 13h-262v-284h280v-56h-280v-272h284q14 0 16 11l16 87h50v-154zM521 387v281h-38l-159-281h197z" glyph-name="AE" horiz-adv-x="999" unicode="&#xc6;"/><glyph d="M297-224l6 46q15-3 33-3 75 0 75 55 0 46-72 47l9 69q-150 13-221.5 113.5t-71.5 264.5q0 165 91 267t263 102q139 0 218-53v-146l-51 3-17 94q-2 14-13 18-68 25-142 25-129 0-204-81.5t-75-229.5q0-155 72-237.5t200-82.5q103 0 156 24 11 5 13 17l16 89h47v-137q-73-50-228-52l-4-32q32-6 52-26t20-53q0-42-31-73.5t-97-31.5q-25 0-44 4z" glyph-name="Ccedilla" horiz-adv-x="684" unicode="&#xc7;"/><glyph d="M582 0h-512v44l63 7q10 1 13 5t3 15v581q0 12-3 15.5t-13 4.5l-63 7v45h490v-150l-51 3-14 78q-3 13-17 13h-262v-274h280v-56h-280v-282h284q14 0 16 11l16 87h50v-154zM395 765l-197 106 40 63 181-131z" glyph-name="Egrave" horiz-adv-x="637" unicode="&#xc8;"/><glyph d="M582 0h-512v44l63 7q10 1 13 5t3 15v581q0 12-3 15.5t-13 4.5l-63 7v45h490v-150l-51 3-14 78q-3 13-17 13h-262v-274h280v-56h-280v-282h284q14 0 16 11l16 87h50v-154zM448 872l-197-106-24 38 181 131z" glyph-name="Eacute" horiz-adv-x="637" unicode="&#xc9;"/><glyph d="M582 0h-512v44l63 7q10 1 13 5t3 15v581q0 12-3 15.5t-13 4.5l-63 7v45h490v-150l-51 3-14 78q-3 13-17 13h-262v-274h280v-56h-280v-282h284q14 0 16 11l16 87h50v-154zM441 766l-119 84-119-84-35 34 116 99h76l116-99z" glyph-name="Ecircumflex" horiz-adv-x="637" unicode="&#xca;"/><glyph d="M582 0h-512v44l63 7q10 1 13 5t3 15v581q0 12-3 15.5t-13 4.5l-63 7v45h490v-150l-51 3-14 78q-3 13-17 13h-262v-274h280v-56h-280v-282h284q14 0 16 11l16 87h50v-154zM273 831q0-22-13.5-35.5t-36.5-13.5-36.5 13.5-13.5 35.5 13.5 35.5 36.5 13.5 36.5-13.5 13.5-35.5zM472 831q0-22-13.5-35.5t-36.5-13.5-36.5 13.5-13.5 35.5 13.5 35.5 36.5 13.5 36.5-13.5 13.5-35.5z" glyph-name="Edieresis" horiz-adv-x="637" unicode="&#xcb;"/><glyph d="M320 0h-249v44l73 7q10 1 13 5t3 15v582q0 12-3 15.5t-13 4.5l-73 7v44h249v-44l-77-8q-11-1-13.5-4.5t-2.5-14.5v-581q0-12 2.5-15.5t13.5-4.5l77-8v-44zM268 765l-197 106 40 63 181-131z" glyph-name="Igrave" horiz-adv-x="387" unicode="&#xcc;"/><glyph d="M320 0h-249v44l73 7q10 1 13 5t3 15v582q0 12-3 15.5t-13 4.5l-73 7v44h249v-44l-77-8q-11-1-13.5-4.5t-2.5-14.5v-581q0-12 2.5-15.5t13.5-4.5l77-8v-44zM321 872l-197-106-24 38 181 131z" glyph-name="Iacute" horiz-adv-x="387" unicode="&#xcd;"/><glyph d="M320 0h-249v44l73 7q10 1 13 5t3 15v582q0 12-3 15.5t-13 4.5l-73 7v44h249v-44l-77-8q-11-1-13.5-4.5t-2.5-14.5v-581q0-12 2.5-15.5t13.5-4.5l77-8v-44zM314 766l-119 84-119-84-35 34 116 99h76l116-99z" glyph-name="Icircumflex" horiz-adv-x="387" unicode="&#xce;"/><glyph d="M320 0h-249v44l73 7q10 1 13 5t3 15v582q0 12-3 15.5t-13 4.5l-73 7v44h249v-44l-77-8q-11-1-13.5-4.5t-2.5-14.5v-581q0-12 2.5-15.5t13.5-4.5l77-8v-44zM146 831q0-22-13.5-35.5t-36.5-13.5-36.5 13.5-13.5 35.5 13.5 35.5 36.5 13.5 36.5-13.5 13.5-35.5zM345 831q0-22-13.5-35.5t-36.5-13.5-36.5 13.5-13.5 35.5 13.5 35.5 36.5 13.5 36.5-13.5 13.5-35.5z" glyph-name="Idieresis" horiz-adv-x="387" unicode="&#xcf;"/><glyph d="M353 0h-272v44l63 7q10 1 13 5t3 15v271h-96v56h96v254q0 12-3 15.5t-13 4.5l-63 7v45h289q183 0 271-91.5t88-259.5q0-173-94-273t-282-100zM227 59h131q147 0 224 77.5t77 221.5q0 171-74 239.5t-221 68.5h-137v-268h210v-56h-210v-283z" glyph-name="Eth" horiz-adv-x="784" unicode="&#xd0;"/><glyph d="M684 0h-84l-384 638v-566q0-12 2.5-15.5t13.5-4.5l67-8v-44h-229v44l63 7q10 1 13 5t3 15v582q0 11-3 15t-13 5l-63 7v45h176l372-632v560q0 11-3 15t-13 5l-63 7v44h228v-44l-67-8q-11-1-13.5-4.5t-2.5-14.5v-653zM355 880l134-35q10-3 16 3l39 39 36-27-23-32q-33-46-62-46-16 0-29 4l-137 36q-10 3-16-3l-42-41-36 27 29 41q27 39 58 39 11 0 33-5z" glyph-name="Ntilde" horiz-adv-x="828" unicode="&#xd1;"/><glyph d="M388-12q-165 0-248 102t-83 273q0 167 90.5 270.5t254.5 103.5q160 0 243-100t83-259q0-181-87.5-285.5t-252.5-104.5zM392 47q123 0 195 82t72 239q0 148-69.5 229t-189.5 81q-123 0-198-82.5t-75-232.5q0-151 71.5-233.5t193.5-82.5zM473 765l-197 106 40 63 181-131z" glyph-name="Ograve" horiz-adv-x="783" unicode="&#xd2;"/><glyph d="M388-12q-165 0-248 102t-83 273q0 167 90.5 270.5t254.5 103.5q160 0 243-100t83-259q0-181-87.5-285.5t-252.5-104.5zM392 47q123 0 195 82t72 239q0 148-69.5 229t-189.5 81q-123 0-198-82.5t-75-232.5q0-151 71.5-233.5t193.5-82.5zM526 872l-197-106-24 38 181 131z" glyph-name="Oacute" horiz-adv-x="783" unicode="&#xd3;"/><glyph d="M388-12q-165 0-248 102t-83 273q0 167 90.5 270.5t254.5 103.5q160 0 243-100t83-259q0-181-87.5-285.5t-252.5-104.5zM392 47q123 0 195 82t72 239q0 148-69.5 229t-189.5 81q-123 0-198-82.5t-75-232.5q0-151 71.5-233.5t193.5-82.5zM519 766l-119 84-119-84-35 34 116 99h76l116-99z" glyph-name="Ocircumflex" horiz-adv-x="783" unicode="&#xd4;"/><glyph d="M388-12q-165 0-248 102t-83 273q0 167 90.5 270.5t254.5 103.5q160 0 243-100t83-259q0-181-87.5-285.5t-252.5-104.5zM392 47q123 0 195 82t72 239q0 148-69.5 229t-189.5 81q-123 0-198-82.5t-75-232.5q0-151 71.5-233.5t193.5-82.5zM348 880l134-35q10-3 16 3l39 39 36-27-23-32q-33-46-62-46-16 0-29 4l-137 36q-10 3-16-3l-42-41-36 27 29 41q27 39 58 39 11 0 33-5z" glyph-name="Otilde" horiz-adv-x="783" unicode="&#xd5;"/><glyph d="M388-12q-165 0-248 102t-83 273q0 167 90.5 270.5t254.5 103.5q160 0 243-100t83-259q0-181-87.5-285.5t-252.5-104.5zM392 47q123 0 195 82t72 239q0 148-69.5 229t-189.5 81q-123 0-198-82.5t-75-232.5q0-151 71.5-233.5t193.5-82.5zM351 831q0-22-13.5-35.5t-36.5-13.5-36.5 13.5-13.5 35.5 13.5 35.5 36.5 13.5 36.5-13.5 13.5-35.5zM550 831q0-22-13.5-35.5t-36.5-13.5-36.5 13.5-13.5 35.5 13.5 35.5 36.5 13.5 36.5-13.5 13.5-35.5z" glyph-name="Odieresis" horiz-adv-x="783" unicode="&#xd6;"/><glyph d="M392 163l-108 109-107-109-48 48 108 109-108 110 48 48 107-109 108 109 48-48-108-110 108-109z" glyph-name="multiply" unicode="&#xd7;"/><glyph d="M240-78h-68l44 106q-159 88-159 340 0 164 90.5 266.5t254.5 102.5q57 0 105-14l28 66h67l-37-89q80-42 120.5-127t40.5-195q0-181-86.5-285.5t-251.5-104.5q-57 0-114 15zM392 47q123 0 194 82t71 239q0 196-117 272l-242-579q41-14 94-14zM127 367q0-197 115-277l241 576q-38 12-83 12-123 0-198-82t-75-229z" glyph-name="Oslash" horiz-adv-x="783" unicode="&#xd8;"/><glyph d="M582 238v415q0 12-3 15.5t-13 4.5l-63 7v44h229v-44l-67-8q-11-1-13.5-4.5t-2.5-14.5v-418q0-247-260-247-131 0-190 62t-59 186v417q0 12-3 15.5t-13 4.5l-63 7v44h229v-44l-67-8q-11-1-13.5-4.5t-2.5-14.5v-413q0-103 47.5-148t140.5-45q95 0 141 43.5t46 147.5zM472 765l-197 106 40 63 181-131z" glyph-name="Ugrave" horiz-adv-x="789" unicode="&#xd9;"/><glyph d="M582 238v415q0 12-3 15.5t-13 4.5l-63 7v44h229v-44l-67-8q-11-1-13.5-4.5t-2.5-14.5v-418q0-247-260-247-131 0-190 62t-59 186v417q0 12-3 15.5t-13 4.5l-63 7v44h229v-44l-67-8q-11-1-13.5-4.5t-2.5-14.5v-413q0-103 47.5-148t140.5-45q95 0 141 43.5t46 147.5zM525 872l-197-106-24 38 181 131z" glyph-name="Uacute" horiz-adv-x="789" unicode="&#xda;"/><glyph d="M582 238v415q0 12-3 15.5t-13 4.5l-63 7v44h229v-44l-67-8q-11-1-13.5-4.5t-2.5-14.5v-418q0-247-260-247-131 0-190 62t-59 186v417q0 12-3 15.5t-13 4.5l-63 7v44h229v-44l-67-8q-11-1-13.5-4.5t-2.5-14.5v-413q0-103 47.5-148t140.5-45q95 0 141 43.5t46 147.5zM518 766l-119 84-119-84-35 34 116 99h76l116-99z" glyph-name="Ucircumflex" horiz-adv-x="789" unicode="&#xdb;"/><glyph d="M582 238v415q0 12-3 15.5t-13 4.5l-63 7v44h229v-44l-67-8q-11-1-13.5-4.5t-2.5-14.5v-418q0-247-260-247-131 0-190 62t-59 186v417q0 12-3 15.5t-13 4.5l-63 7v44h229v-44l-67-8q-11-1-13.5-4.5t-2.5-14.5v-413q0-103 47.5-148t140.5-45q95 0 141 43.5t46 147.5zM350 831q0-22-13.5-35.5t-36.5-13.5-36.5 13.5-13.5 35.5 13.5 35.5 36.5 13.5 36.5-13.5 13.5-35.5zM549 831q0-22-13.5-35.5t-36.5-13.5-36.5 13.5-13.5 35.5 13.5 35.5 36.5 13.5 36.5-13.5 13.5-35.5z" glyph-name="Udieresis" horiz-adv-x="789" unicode="&#xdc;"/><glyph d="M450 0h-289v44l93 7q10 1 13 4.5t3 15.5v213l-201 368q-7 13-24 17l-45 11 10 44h198v-44l-74-9 171-325 167 325-72 9 10 44h186v-44l-42-11q-18-5-25-19l-192-363v-215q0-12 2.5-15.5t13.5-4.5l97-8v-44zM431 872l-197-106-24 38 181 131z" glyph-name="Yacute" horiz-adv-x="596" unicode="&#xdd;"/><glyph d="M374 0h-304v44l63 7q10 1 13 5t3 15v581q0 12-3 15.5t-13 4.5l-63 7v45h238v-44l-77-8q-11-1-13.5-4.5t-2.5-15.5v-49h152q241 0 241-211 0-227-274-227h-119v-93q0-12 2.5-15.5t13.5-4.5l143-8v-44zM215 224h117q48 0 81.5 6t64 23 45.5 51 15 86q0 82-45.5 118.5t-145.5 36.5h-132v-321z" glyph-name="Thorn" horiz-adv-x="663" unicode="&#xde;"/><glyph d="M180 0h-150v45l67 6q10 1 13 4.5t3 15.5v486q0 210 219 210 104 0 154.5-46.5t50.5-130.5q0-124-110-171v-3q76-17 114.5-65t38.5-142q0-99-54.5-158.5t-147.5-59.5q-88 0-151 36l22 52q69-32 124-32 65 0 101 40t36 122q0 87-46 130.5t-128 43.5q-35 0-62-3v56l66 7q62 6 95.5 46.5t33.5 96.5q0 124-138 124-80 0-115.5-35t-35.5-125v-550z" glyph-name="germandbls" horiz-adv-x="640" unicode="&#xdf;"/><glyph d="M509 0h-122l-9 67-3 1q-87-80-185-80-44 0-74 13.5t-43 36-17.5 42-4.5 41.5q0 73 44.5 108.5t135.5 44.5l143 13v56q0 67-22.5 94t-91.5 27q-26 0-38.5-.5t-31-4.5-27-12.5-15.5-24-7-39.5l-64 8q0 130 184 130 103 0 141.5-37t38.5-139v-274q0-12 2.5-15.5t13.5-4.5l52-7v-44zM374 138v96l-131-12q-70-7-96-28t-26-65q0-85 82-85 49 0 95 27t76 67zM356 601l-32-32-175 139 52 53z" glyph-name="agrave" horiz-adv-x="534" unicode="&#xe0;"/><glyph d="M509 0h-122l-9 67-3 1q-87-80-185-80-44 0-74 13.5t-43 36-17.5 42-4.5 41.5q0 73 44.5 108.5t135.5 44.5l143 13v56q0 67-22.5 94t-91.5 27q-26 0-38.5-.5t-31-4.5-27-12.5-15.5-24-7-39.5l-64 8q0 130 184 130 103 0 141.5-37t38.5-139v-274q0-12 2.5-15.5t13.5-4.5l52-7v-44zM374 138v96l-131-12q-70-7-96-28t-26-65q0-85 82-85 49 0 95 27t76 67zM375 708l-175-139-32 32 155 160z" glyph-name="aacute" horiz-adv-x="534" unicode="&#xe1;"/><glyph d="M509 0h-122l-9 67-3 1q-87-80-185-80-44 0-74 13.5t-43 36-17.5 42-4.5 41.5q0 73 44.5 108.5t135.5 44.5l143 13v56q0 67-22.5 94t-91.5 27q-26 0-38.5-.5t-31-4.5-27-12.5-15.5-24-7-39.5l-64 8q0 130 184 130 103 0 141.5-37t38.5-139v-274q0-12 2.5-15.5t13.5-4.5l52-7v-44zM374 138v96l-131-12q-70-7-96-28t-26-65q0-85 82-85 49 0 95 27t76 67zM423 609l-38-33-124 104-124-104-38 33 124 120h76z" glyph-name="acircumflex" horiz-adv-x="534" unicode="&#xe2;"/><glyph d="M509 0h-122l-9 67-3 1q-87-80-185-80-44 0-74 13.5t-43 36-17.5 42-4.5 41.5q0 73 44.5 108.5t135.5 44.5l143 13v56q0 67-22.5 94t-91.5 27q-26 0-38.5-.5t-31-4.5-27-12.5-15.5-24-7-39.5l-64 8q0 130 184 130 103 0 141.5-37t38.5-139v-274q0-12 2.5-15.5t13.5-4.5l52-7v-44zM374 138v96l-131-12q-70-7-96-28t-26-65q0-85 82-85 49 0 95 27t76 67zM434 669l-23-32q-33-46-62-46-16 0-29 4-28 7-77 20t-60 16q-10 3-16-3l-42-41-36 27 29 41q27 39 58 39 11 0 33-5 90-24 134-35 10-3 16 3l39 39z" glyph-name="atilde" horiz-adv-x="534" unicode="&#xe3;"/><glyph d="M509 0h-122l-9 67-3 1q-87-80-185-80-44 0-74 13.5t-43 36-17.5 42-4.5 41.5q0 73 44.5 108.5t135.5 44.5l143 13v56q0 67-22.5 94t-91.5 27q-26 0-38.5-.5t-31-4.5-27-12.5-15.5-24-7-39.5l-64 8q0 130 184 130 103 0 141.5-37t38.5-139v-274q0-12 2.5-15.5t13.5-4.5l52-7v-44zM374 138v96l-131-12q-70-7-96-28t-26-65q0-85 82-85 49 0 95 27t76 67zM212 658q0-22-13.5-35.5t-36.5-13.5-36.5 13.5-13.5 35.5 13.5 35.5 36.5 13.5 36.5-13.5 13.5-35.5zM411 658q0-22-13.5-35.5t-36.5-13.5-36.5 13.5-13.5 35.5 13.5 35.5 36.5 13.5 36.5-13.5 13.5-35.5z" glyph-name="adieresis" horiz-adv-x="534" unicode="&#xe4;"/><glyph d="M509 0h-122l-9 67-3 1q-87-80-185-80-44 0-74 13.5t-43 36-17.5 42-4.5 41.5q0 73 44.5 108.5t135.5 44.5l143 13v56q0 67-22.5 94t-91.5 27q-26 0-38.5-.5t-31-4.5-27-12.5-15.5-24-7-39.5l-64 8q0 130 184 130 103 0 141.5-37t38.5-139v-274q0-12 2.5-15.5t13.5-4.5l52-7v-44zM374 138v96l-131-12q-70-7-96-28t-26-65q0-85 82-85 49 0 95 27t76 67zM343 644q0-40-24-62t-66-22q-41 0-65 21.5t-24 60.5q0 42 25 64t64 22q40 0 65-21t25-63zM253 605q40 0 40 39 0 38-40 38t-40-40q0-37 40-37z" glyph-name="aring" horiz-adv-x="534" unicode="&#xe5;"/><glyph d="M752 86l25-56q-73-42-172-42-134 0-190 90-58-47-110.5-68.5t-115.5-21.5q-43 0-73 13.5t-43 36-17.5 42-4.5 40.5q0 74 44.5 109.5t135.5 44.5l143 13v56q0 67-22.5 94t-91.5 27q-26 0-38.5-.5t-31-4.5-27-12.5-15.5-24-7-39.5l-64 8q0 130 183 130 71 0 110-18.5t55-62.5q61 81 167 81 94 0 147.5-56.5t53.5-179.5q0-13-2-43h-350q5-193 169-193 45 0 74.5 8t67.5 29zM374 233l-131-11q-70-7-96-28.5t-26-66.5q0-83 84-83 48 0 102.5 27t82.5 63q-13 43-16 99zM441 298h283q-3 164-131 164-63 0-104.5-38.5t-47.5-125.5z" glyph-name="ae" horiz-adv-x="833" unicode="&#xe6;"/><glyph d="M185-224l6 46q15-3 33-3 75 0 75 55 0 46-72 47l9 70q-97 13-144 81.5t-47 177.5q0 137 69.5 204t187.5 67q78 0 142-27v-123l-51 3-12 66q-2 10-11 13-28 10-76 10-81 0-130-50.5t-49-159.5q0-105 46.5-155t129.5-50q74 0 129 35l26-56q-58-37-157-39l-4-32q32-6 52-26t20-53q0-42-31-73.5t-97-31.5q-25 0-44 4z" glyph-name="ccedilla" horiz-adv-x="476" unicode="&#xe7;"/><glyph d="M425 86l25-56q-73-42-172-42-233 0-233 270 0 129 61.5 196t158.5 67q94 0 147.5-56.5t53.5-179.5q0-13-2-43h-349q5-193 168-193 45 0 74.5 8t67.5 29zM117 296h280q-1 87-37 126.5t-94 39.5q-62 0-102.5-39.5t-46.5-126.5zM359 601l-32-32-175 139 52 53z" glyph-name="egrave" horiz-adv-x="506" unicode="&#xe8;"/><glyph d="M425 86l25-56q-73-42-172-42-233 0-233 270 0 129 61.5 196t158.5 67q94 0 147.5-56.5t53.5-179.5q0-13-2-43h-349q5-193 168-193 45 0 74.5 8t67.5 29zM117 296h280q-1 87-37 126.5t-94 39.5q-62 0-102.5-39.5t-46.5-126.5zM378 708l-175-139-32 32 155 160z" glyph-name="eacute" horiz-adv-x="506" unicode="&#xe9;"/><glyph d="M425 86l25-56q-73-42-172-42-233 0-233 270 0 129 61.5 196t158.5 67q94 0 147.5-56.5t53.5-179.5q0-13-2-43h-349q5-193 168-193 45 0 74.5 8t67.5 29zM117 296h280q-1 87-37 126.5t-94 39.5q-62 0-102.5-39.5t-46.5-126.5zM426 609l-38-33-124 104-124-104-38 33 124 120h76z" glyph-name="ecircumflex" horiz-adv-x="506" unicode="&#xea;"/><glyph d="M425 86l25-56q-73-42-172-42-233 0-233 270 0 129 61.5 196t158.5 67q94 0 147.5-56.5t53.5-179.5q0-13-2-43h-349q5-193 168-193 45 0 74.5 8t67.5 29zM117 296h280q-1 87-37 126.5t-94 39.5q-62 0-102.5-39.5t-46.5-126.5zM215 658q0-22-13.5-35.5t-36.5-13.5-36.5 13.5-13.5 35.5 13.5 35.5 36.5 13.5 36.5-13.5 13.5-35.5zM414 658q0-22-13.5-35.5t-36.5-13.5-36.5 13.5-13.5 35.5 13.5 35.5 36.5 13.5 36.5-13.5 13.5-35.5z" glyph-name="edieresis" horiz-adv-x="506" unicode="&#xeb;"/><glyph d="M269 0h-241v45l72 6q10 1 13 5t3 15v358q0 17-13 21l-58 19 8 42h130v-440q0-12 2.5-15.5t13.5-4.5l70-7v-44zM225 601l-32-32-175 139 52 53z" glyph-name="igrave" horiz-adv-x="289" unicode="&#xec;"/><glyph d="M269 0h-241v45l72 6q10 1 13 5t3 15v358q0 17-13 21l-58 19 8 42h130v-440q0-12 2.5-15.5t13.5-4.5l70-7v-44zM244 708l-175-139-32 32 155 160z" glyph-name="iacute" horiz-adv-x="289" unicode="&#xed;"/><glyph d="M272 609l-38-33-104 104-104-104-38 33 104 120h76zM269 0h-241v45l72 6q10 1 13 5t3 15v358q0 17-13 21l-58 19 8 42h130v-440q0-12 2.5-15.5t13.5-4.5l70-7v-44z" glyph-name="icircumflex" horiz-adv-x="289" unicode="&#xee;"/><glyph d="M94 658q0-22-13.5-35.5t-36.5-13.5-36.5 13.5-13.5 35.5 13.5 35.5 36.5 13.5 36.5-13.5 13.5-35.5zM263 658q0-22-13.5-35.5t-36.5-13.5-36.5 13.5-13.5 35.5 13.5 35.5 36.5 13.5 36.5-13.5 13.5-35.5zM269 0h-241v45l72 6q10 1 13 5t3 15v358q0 17-13 21l-58 19 8 42h130v-440q0-12 2.5-15.5t13.5-4.5l70-7v-44z" glyph-name="idieresis" horiz-adv-x="289" unicode="&#xef;"/><glyph d="M221 566l-28 47 91 49q-60 39-146 49l22 51q110-12 185-67l102 55 28-48-85-46q114-120 114-343 0-46-5-87t-20.5-86.5-39.5-77.5-66.5-53-98.5-21q-229 0-229 265 0 107 61 177.5t170 70.5q36 0 77-12.5t68-33.5l2 1q-28 107-92 169zM114 252q0-41 7.5-76t24.5-66 49.5-49 78.5-18q48 0 82 23t51.5 63 25 84 7.5 96q0 34-3 67-20 27-64 46.5t-90 19.5q-83 0-126-51.5t-43-138.5z" glyph-name="eth" horiz-adv-x="550" unicode="&#xf0;"/><glyph d="M602 0h-211v45l52 6q11 2 13.5 5t2.5 14v240q0 78-23.5 114t-78.5 36q-49 0-97-24t-77-51v-314q0-12 2.5-15.5t13.5-4.5l60-7v-44h-211v45l52 6q10 1 13 5t3 15v358q0 17-13 21l-58 19 8 42h113l8-62 3-1q99 73 194 73 84 0 119.5-48.5t35.5-141.5v-260q0-12 2.5-15.5t13.5-4.5l60-7v-44zM481 669l-23-32q-33-46-62-46-16 0-29 4-28 7-77 20t-60 16q-10 3-16-3l-42-41-36 27 29 41q27 39 58 39 11 0 33-5 90-24 134-35 10-3 16 3l39 39z" glyph-name="ntilde" horiz-adv-x="632" unicode="&#xf1;"/><glyph d="M279-12q-119 0-176.5 72.5t-57.5 196.5q0 121 61.5 192.5t182.5 71.5q118 0 173.5-69t55.5-188q0-130-59.5-203t-179.5-73zM282 43q167 0 167 214 0 205-162 205-84 0-128.5-52t-44.5-154q0-103 42.5-158t125.5-55zM384 601l-32-32-175 139 52 53z" glyph-name="ograve" horiz-adv-x="563" unicode="&#xf2;"/><glyph d="M279-12q-119 0-176.5 72.5t-57.5 196.5q0 121 61.5 192.5t182.5 71.5q118 0 173.5-69t55.5-188q0-130-59.5-203t-179.5-73zM282 43q167 0 167 214 0 205-162 205-84 0-128.5-52t-44.5-154q0-103 42.5-158t125.5-55zM403 708l-175-139-32 32 155 160z" glyph-name="oacute" horiz-adv-x="563" unicode="&#xf3;"/><glyph d="M279-12q-119 0-176.5 72.5t-57.5 196.5q0 121 61.5 192.5t182.5 71.5q118 0 173.5-69t55.5-188q0-130-59.5-203t-179.5-73zM282 43q167 0 167 214 0 205-162 205-84 0-128.5-52t-44.5-154q0-103 42.5-158t125.5-55zM451 609l-38-33-124 104-124-104-38 33 124 120h76z" glyph-name="ocircumflex" horiz-adv-x="563" unicode="&#xf4;"/><glyph d="M279-12q-119 0-176.5 72.5t-57.5 196.5q0 121 61.5 192.5t182.5 71.5q118 0 173.5-69t55.5-188q0-130-59.5-203t-179.5-73zM282 43q167 0 167 214 0 205-162 205-84 0-128.5-52t-44.5-154q0-103 42.5-158t125.5-55zM462 669l-23-32q-33-46-62-46-16 0-29 4-28 7-77 20t-60 16q-10 3-16-3l-42-41-36 27 29 41q27 39 58 39 11 0 33-5 90-24 134-35 10-3 16 3l39 39z" glyph-name="otilde" horiz-adv-x="563" unicode="&#xf5;"/><glyph d="M279-12q-119 0-176.5 72.5t-57.5 196.5q0 121 61.5 192.5t182.5 71.5q118 0 173.5-69t55.5-188q0-130-59.5-203t-179.5-73zM282 43q167 0 167 214 0 205-162 205-84 0-128.5-52t-44.5-154q0-103 42.5-158t125.5-55zM240 658q0-22-13.5-35.5t-36.5-13.5-36.5 13.5-13.5 35.5 13.5 35.5 36.5 13.5 36.5-13.5 13.5-35.5zM439 658q0-22-13.5-35.5t-36.5-13.5-36.5 13.5-13.5 35.5 13.5 35.5 36.5 13.5 36.5-13.5 13.5-35.5z" glyph-name="odieresis" horiz-adv-x="563" unicode="&#xf6;"/><glyph d="M336 171q0-57-58-57t-58 57 58 57 58-57zM471 288h-373v66h373v-66zM336 473q0-57-58-57t-58 57 58 57 58-57z" glyph-name="divide" unicode="&#xf7;"/><glyph d="M166-92h-67l49 112q-103 63-103 237 0 121 61.5 192.5t182.5 71.5q44 0 77-10l33 73h66l-43-97q96-62 96-223 0-130-59.5-203t-179.5-73q-34 0-74 9zM114 256q0-124 60-177l167 376q-28 7-54 7-84 0-128.5-52t-44.5-154zM282 43q167 0 167 214 0 119-54 169l-166-376q22-7 53-7z" glyph-name="oslash" horiz-adv-x="563" unicode="&#xf8;"/><glyph d="M591 0h-123l-9 73-2 1q-94-86-197-86-80 0-112 46.5t-32 137.5v258q0 13-2.5 17.5t-13.5 6.5l-53 15 7 42h129v-321q0-77 19-111t71-34q95 0 183 103v283q0 13-2.5 17t-13.5 6l-54 15 7 42h130v-439q0-20 13-21l55-7v-44zM402 601l-32-32-175 139 52 53z" glyph-name="ugrave" horiz-adv-x="629" unicode="&#xf9;"/><glyph d="M591 0h-123l-9 73-2 1q-94-86-197-86-80 0-112 46.5t-32 137.5v258q0 13-2.5 17.5t-13.5 6.5l-53 15 7 42h129v-321q0-77 19-111t71-34q95 0 183 103v283q0 13-2.5 17t-13.5 6l-54 15 7 42h130v-439q0-20 13-21l55-7v-44zM438 708l-175-139-32 32 155 160z" glyph-name="uacute" horiz-adv-x="629" unicode="&#xfa;"/><glyph d="M591 0h-123l-9 73-2 1q-94-86-197-86-80 0-112 46.5t-32 137.5v258q0 13-2.5 17.5t-13.5 6.5l-53 15 7 42h129v-321q0-77 19-111t71-34q95 0 183 103v283q0 13-2.5 17t-13.5 6l-54 15 7 42h130v-439q0-20 13-21l55-7v-44zM469 609l-38-33-124 104-124-104-38 33 124 120h76z" glyph-name="ucircumflex" horiz-adv-x="629" unicode="&#xfb;"/><glyph d="M591 0h-123l-9 73-2 1q-94-86-197-86-80 0-112 46.5t-32 137.5v258q0 13-2.5 17.5t-13.5 6.5l-53 15 7 42h129v-321q0-77 19-111t71-34q95 0 183 103v283q0 13-2.5 17t-13.5 6l-54 15 7 42h130v-439q0-20 13-21l55-7v-44zM258 658q0-22-13.5-35.5t-36.5-13.5-36.5 13.5-13.5 35.5 13.5 35.5 36.5 13.5 36.5-13.5 13.5-35.5zM457 658q0-22-13.5-35.5t-36.5-13.5-36.5 13.5-13.5 35.5 13.5 35.5 36.5 13.5 36.5-13.5 13.5-35.5z" glyph-name="udieresis" horiz-adv-x="629" unicode="&#xfc;"/><glyph d="M339-212h-246v45l70 8q8 1 12 5t9 16l64 148-176 430q-5 13-21 17l-41 10 10 44h190v-44l-68-8 143-369 149 369-69 8 10 44h182v-44l-34-5q-19-3-25-17l-253-604 94-9v-44zM430 708l-175-139-32 32 155 160z" glyph-name="yacute" horiz-adv-x="567" unicode="&#xfd;"/><glyph d="M274-212h-231v45l42 6q10 1 13 5t3 15v814q0 17-13 21l-58 19 8 42h130v-304q32 22 54 34.5t56 24 68 11.5q88 0 137.5-60t49.5-185q0-257-170-285-20-3-40-3-93 0-153 59l-2-1v-187q0-12 2.5-15.5t13.5-4.5l90-7v-44zM168 389v-269q30-32 70-53t79-21q80 0 115 57t35 165q0 193-132 193-81 0-167-72z" glyph-name="thorn" horiz-adv-x="578" unicode="&#xfe;"/><glyph d="M339-212h-246v45l70 8q8 1 12 5t9 16l64 148-176 430q-5 13-21 17l-41 10 10 44h190v-44l-68-8 143-369 149 369-69 8 10 44h182v-44l-34-5q-19-3-25-17l-253-604 94-9v-44zM234 658q0-22-13.5-35.5t-36.5-13.5-36.5 13.5-13.5 35.5 13.5 35.5 36.5 13.5 36.5-13.5 13.5-35.5zM433 658q0-22-13.5-35.5t-36.5-13.5-36.5 13.5-13.5 35.5 13.5 35.5 36.5 13.5 36.5-13.5 13.5-35.5z" glyph-name="ydieresis" horiz-adv-x="567" unicode="&#xff;"/><glyph d="M685 0h-219v44l83 9-61 180h-292l-60-180 81-9v-44h-207v44l43 11q19 5 24 19l221 650h92l226-652q4-12 23-17l46-11v-44zM469 292l-126 377-127-377h253zM496 797h-303v57h303v-57z" glyph-name="Amacron" horiz-adv-x="695" unicode="&#x100;"/><glyph d="M509 0h-122l-9 67-3 1q-87-80-185-80-44 0-74 13.5t-43 36-17.5 42-4.5 41.5q0 73 44.5 108.5t135.5 44.5l143 13v56q0 67-22.5 94t-91.5 27q-26 0-38.5-.5t-31-4.5-27-12.5-15.5-24-7-39.5l-64 8q0 130 184 130 103 0 141.5-37t38.5-139v-274q0-12 2.5-15.5t13.5-4.5l52-7v-44zM374 138v96l-131-12q-70-7-96-28t-26-65q0-85 82-85 49 0 95 27t76 67zM413 616h-303v57h303v-57z" glyph-name="amacron" horiz-adv-x="534" unicode="&#x101;"/><glyph d="M685 0h-219v44l83 9-61 180h-292l-60-180 81-9v-44h-207v44l43 11q19 5 24 19l221 650h92l226-652q4-12 23-17l46-11v-44zM469 292l-126 377-127-377h253zM443 913l51-19q-32-112-150-112-122 0-150 112l55 19q14-38 35.5-57t61.5-19 61 19.5 36 56.5z" glyph-name="Abreve" horiz-adv-x="695" unicode="&#x102;"/><glyph d="M509 0h-122l-9 67-3 1q-87-80-185-80-44 0-74 13.5t-43 36-17.5 42-4.5 41.5q0 73 44.5 108.5t135.5 44.5l143 13v56q0 67-22.5 94t-91.5 27q-26 0-38.5-.5t-31-4.5-27-12.5-15.5-24-7-39.5l-64 8q0 130 184 130 103 0 141.5-37t38.5-139v-274q0-12 2.5-15.5t13.5-4.5l52-7v-44zM374 138v96l-131-12q-70-7-96-28t-26-65q0-85 82-85 49 0 95 27t76 67zM366 724l50-19q-18-65-54.5-98.5t-102.5-33.5-102 34-51 98l54 19q15-48 37-72t64-24 65 24 40 72z" glyph-name="abreve" horiz-adv-x="534" unicode="&#x103;"/><glyph d="M620-143l18-49q-42-20-83-20-39 0-61.5 18.5t-22.5 56.5q0 65 85 137h-90v44l83 9-61 180h-292l-60-180 81-9v-44h-207v44l43 11q19 5 24 19l221 650h92l226-652q4-12 23-17l46-11v-44h-57q-87-70-87-122 0-33 32-33 20 0 47 12zM469 292l-126 377-127-377h253z" glyph-name="Aogonek" horiz-adv-x="695" unicode="&#x104;"/><glyph d="M509 0q-106-65-106-122 0-33 32-33 20 0 47 12l18-49q-42-20-83-20-39 0-61.5 18.5t-22.5 56.5q0 73 97 137h-43l-9 67-3 1q-87-80-185-80-44 0-74 13.5t-43 36-17.5 42-4.5 41.5q0 73 44.5 108.5t135.5 44.5l143 13v56q0 67-22.5 94t-91.5 27q-26 0-38.5-.5t-31-4.5-27-12.5-15.5-24-7-39.5l-64 8q0 130 184 130 103 0 141.5-37t38.5-139v-274q0-12 2.5-15.5t13.5-4.5l52-7v-44zM374 138v96l-131-12q-70-7-96-28t-26-65q0-85 82-85 49 0 95 27t76 67z" glyph-name="aogonek" horiz-adv-x="534" unicode="&#x105;"/><glyph d="M629 177v-137q-75-52-236-52-174 0-256 102t-82 278q0 165 91 267t263 102q139 0 218-53v-146l-51 3-17 94q-2 14-13 18-68 25-142 25-129 0-204-81.5t-75-229.5q0-155 72-237.5t200-82.5q103 0 156 24 11 5 13 17l16 89h47zM525 872l-197-106-24 38 181 131z" glyph-name="Cacute" horiz-adv-x="684" unicode="&#x106;"/><glyph d="M420 83l26-56q-59-39-164-39-120 0-178.5 70.5t-58.5 191.5q0 137 69.5 204t187.5 67q78 0 142-27v-123l-51 3-12 66q-2 10-11 13-28 10-76 10-81 0-130-50.5t-49-159.5q0-105 46.5-155t129.5-50q74 0 129 35zM395 708l-175-139-32 32 155 160z" glyph-name="cacute" horiz-adv-x="476" unicode="&#x107;"/><glyph d="M629 177v-137q-75-52-236-52-174 0-256 102t-82 278q0 165 91 267t263 102q139 0 218-53v-146l-51 3-17 94q-2 14-13 18-68 25-142 25-129 0-204-81.5t-75-229.5q0-155 72-237.5t200-82.5q103 0 156 24 11 5 13 17l16 89h47zM518 766l-119 84-119-84-35 34 116 99h76l116-99z" glyph-name="Ccircumflex" horiz-adv-x="684" unicode="&#x108;"/><glyph d="M420 83l26-56q-59-39-164-39-120 0-178.5 70.5t-58.5 191.5q0 137 69.5 204t187.5 67q78 0 142-27v-123l-51 3-12 66q-2 10-11 13-28 10-76 10-81 0-130-50.5t-49-159.5q0-105 46.5-155t129.5-50q74 0 129 35zM443 609l-38-33-124 104-124-104-38 33 124 120h76z" glyph-name="ccircumflex" horiz-adv-x="476" unicode="&#x109;"/><glyph d="M629 177v-137q-75-52-236-52-174 0-256 102t-82 278q0 165 91 267t263 102q139 0 218-53v-146l-51 3-17 94q-2 14-13 18-68 25-142 25-129 0-204-81.5t-75-229.5q0-155 72-237.5t200-82.5q103 0 156 24 11 5 13 17l16 89h47zM453 835q0-53-54-53t-54 53 54 53 54-53z" glyph-name="Cdotaccent" horiz-adv-x="684" unicode="&#x10a;"/><glyph d="M420 83l26-56q-59-39-164-39-120 0-178.5 70.5t-58.5 191.5q0 137 69.5 204t187.5 67q78 0 142-27v-123l-51 3-12 66q-2 10-11 13-28 10-76 10-81 0-130-50.5t-49-159.5q0-105 46.5-155t129.5-50q74 0 129 35zM343 688q0-53-54-53t-54 53 54 53 54-53z" glyph-name="cdotaccent" horiz-adv-x="476" unicode="&#x10b;"/><glyph d="M629 177v-137q-75-52-236-52-174 0-256 102t-82 278q0 165 91 267t263 102q139 0 218-53v-146l-51 3-17 94q-2 14-13 18-68 25-142 25-129 0-204-81.5t-75-229.5q0-155 72-237.5t200-82.5q103 0 156 24 11 5 13 17l16 89h47zM553 875l-116-99h-76l-116 99 35 34 119-84 119 84z" glyph-name="Ccaron" horiz-adv-x="684" unicode="&#x10c;"/><glyph d="M420 83l26-56q-59-39-164-39-120 0-178.5 70.5t-58.5 191.5q0 137 69.5 204t187.5 67q78 0 142-27v-123l-51 3-12 66q-2 10-11 13-28 10-76 10-81 0-130-50.5t-49-159.5q0-105 46.5-155t129.5-50q74 0 129 35zM319 576h-76l-121 119 37 34 122-104 126 104 38-33z" glyph-name="ccaron" horiz-adv-x="476" unicode="&#x10d;"/><glyph d="M342 0h-272v44l63 7q10 1 13 5t3 15v581q0 12-3 15.5t-13 4.5l-63 7v45h289q183 0 271-91.5t88-259.5q0-173-94-273t-282-100zM216 59h131q147 0 224 77.5t77 221.5q0 171-74 239.5t-221 68.5h-137v-607zM505 875l-116-99h-76l-116 99 35 34 119-84 119 84z" glyph-name="Dcaron" horiz-adv-x="773" unicode="&#x10e;"/><glyph d="M552 0h-122l-8 68-3 1q-86-81-180-81-187 0-187 255 0 141 55.5 209.5t152.5 68.5q89 0 157-49v202q0 16-13 20l-61 19 8 42h133v-684q0-12 2.5-15.5t13.5-4.5l52-7v-44zM417 141v258q-27 26-69.5 45t-86.5 19q-143 0-143-218 0-198 130-198 89 0 169 94zM586 571l-40 12q19 59 19 96 0 35-15 65l58 28q26-26 26-53 0-19-8-46-13-42-40-102z" glyph-name="dcaron" horiz-adv-x="627" unicode="&#x10f;"/><glyph d="M353 0h-272v44l63 7q10 1 13 5t3 15v271h-96v56h96v254q0 12-3 15.5t-13 4.5l-63 7v45h289q183 0 271-91.5t88-259.5q0-173-94-273t-282-100zM227 59h131q147 0 224 77.5t77 221.5q0 171-74 239.5t-221 68.5h-137v-268h210v-56h-210v-283z" glyph-name="Dcroat" horiz-adv-x="784" unicode="&#x110;"/><glyph d="M552 0h-122l-8 68-3 1q-86-81-180-81-187 0-187 245 0 137 55.5 202.5t152.5 65.5q89 0 157-49v124h-194v56h194v42q0 16-13 20l-61 19 8 42h133v-123h70v-56h-70v-505q0-12 2.5-15.5t13.5-4.5l52-7v-44zM417 141v238q-27 26-69.5 45t-86.5 19q-143 0-143-208 0-105 34.5-146.5t95.5-41.5q89 0 169 94z" glyph-name="dcroat" horiz-adv-x="590" unicode="&#x111;"/><glyph d="M582 0h-512v44l63 7q10 1 13 5t3 15v581q0 12-3 15.5t-13 4.5l-63 7v45h490v-150l-51 3-14 78q-3 13-17 13h-262v-274h280v-56h-280v-282h284q14 0 16 11l16 87h50v-154zM474 797h-303v57h303v-57z" glyph-name="Emacron" horiz-adv-x="637" unicode="&#x112;"/><glyph d="M425 86l25-56q-73-42-172-42-233 0-233 270 0 129 61.5 196t158.5 67q94 0 147.5-56.5t53.5-179.5q0-13-2-43h-349q5-193 168-193 45 0 74.5 8t67.5 29zM117 296h280q-1 87-37 126.5t-94 39.5q-62 0-102.5-39.5t-46.5-126.5zM416 616h-303v57h303v-57z" glyph-name="emacron" horiz-adv-x="506" unicode="&#x113;"/><glyph d="M582 0h-512v44l63 7q10 1 13 5t3 15v581q0 12-3 15.5t-13 4.5l-63 7v45h490v-150l-51 3-14 78q-3 13-17 13h-262v-274h280v-56h-280v-282h284q14 0 16 11l16 87h50v-154zM421 913l51-19q-32-112-150-112-122 0-150 112l55 19q14-38 35.5-57t61.5-19 61 19.5 36 56.5z" glyph-name="Ebreve" horiz-adv-x="637" unicode="&#x114;"/><glyph d="M425 86l25-56q-73-42-172-42-233 0-233 270 0 129 61.5 196t158.5 67q94 0 147.5-56.5t53.5-179.5q0-13-2-43h-349q5-193 168-193 45 0 74.5 8t67.5 29zM117 296h280q-1 87-37 126.5t-94 39.5q-62 0-102.5-39.5t-46.5-126.5zM369 724l50-19q-18-65-54.5-98.5t-102.5-33.5-102 34-51 98l54 19q15-48 37-72t64-24 65 24 40 72z" glyph-name="ebreve" horiz-adv-x="506" unicode="&#x115;"/><glyph d="M582 0h-512v44l63 7q10 1 13 5t3 15v581q0 12-3 15.5t-13 4.5l-63 7v45h490v-150l-51 3-14 78q-3 13-17 13h-262v-274h280v-56h-280v-282h284q14 0 16 11l16 87h50v-154zM376 835q0-53-54-53t-54 53 54 53 54-53z" glyph-name="Edotaccent" horiz-adv-x="637" unicode="&#x116;"/><glyph d="M425 86l25-56q-73-42-172-42-233 0-233 270 0 129 61.5 196t158.5 67q94 0 147.5-56.5t53.5-179.5q0-13-2-43h-349q5-193 168-193 45 0 74.5 8t67.5 29zM117 296h280q-1 87-37 126.5t-94 39.5q-62 0-102.5-39.5t-46.5-126.5zM318 688q0-53-54-53t-54 53 54 53 54-53z" glyph-name="edotaccent" horiz-adv-x="506" unicode="&#x117;"/><glyph d="M582 0q-48-22-83.5-54.5t-35.5-67.5q0-33 32-33 20 0 47 12l18-49q-42-20-83-20-39 0-61.5 18.5t-22.5 56.5q0 77 97 137h-420v44l63 7q10 1 13 5t3 15v581q0 12-3 15.5t-13 4.5l-63 7v45h490v-150l-51 3-14 78q-3 13-17 13h-262v-274h280v-56h-280v-282h284q14 0 16 11l16 87h50v-154z" glyph-name="Eogonek" horiz-adv-x="637" unicode="&#x118;"/><glyph d="M425 86l25-56q-9-5-26-13.5l-23-11.5q-44-23-74.5-58t-30.5-69q0-33 32-33 20 0 47 12l18-49q-42-20-83-20-39 0-61.5 18.5t-22.5 56.5q0 63 81 126-5 0-14.5-.5t-14.5-.5q-233 0-233 270 0 129 61.5 196t158.5 67q94 0 147.5-56.5t53.5-179.5q0-13-2-43h-349q5-193 168-193 45 0 74.5 8t67.5 29zM117 296h280q-1 87-37 126.5t-94 39.5q-62 0-102.5-39.5t-46.5-126.5z" glyph-name="eogonek" horiz-adv-x="506" unicode="&#x119;"/><glyph d="M582 0h-512v44l63 7q10 1 13 5t3 15v581q0 12-3 15.5t-13 4.5l-63 7v45h490v-150l-51 3-14 78q-3 13-17 13h-262v-274h280v-56h-280v-282h284q14 0 16 11l16 87h50v-154zM476 875l-116-99h-76l-116 99 35 34 119-84 119 84z" glyph-name="Ecaron" horiz-adv-x="637" unicode="&#x11a;"/><glyph d="M425 86l25-56q-73-42-172-42-233 0-233 270 0 129 61.5 196t158.5 67q94 0 147.5-56.5t53.5-179.5q0-13-2-43h-349q5-193 168-193 45 0 74.5 8t67.5 29zM117 296h280q-1 87-37 126.5t-94 39.5q-62 0-102.5-39.5t-46.5-126.5zM302 576h-76l-121 119 37 34 122-104 126 104 38-33z" glyph-name="ecaron" horiz-adv-x="506" unicode="&#x11b;"/><glyph d="M717 287l-42-4q-16-1-16-14v-243q-80-38-232-38-192 0-282 102.5t-90 277.5q0 165 91 267t263 102q141 0 221-53v-146l-51 3-17 94q-2 14-13 18-68 25-145 25-129 0-204-81.5t-75-229.5q0-155 80.5-237.5t225.5-82.5q84 0 149 18 13 4 13 17v195h-146l10 55h260v-45zM505 766l-119 84-119-84-35 34 116 99h76l116-99z" glyph-name="Gcircumflex" horiz-adv-x="747" unicode="&#x11c;"/><glyph d="M526 456l-93-7q37-47 37-106 0-88-57.5-137.5t-148.5-49.5q-53 0-87 14l-47-94 177-13q118-8 163-32.5t45-99.5q0-74-63.5-115t-190.5-41q-121 0-173.5 31.5t-52.5 91.5q0 36 16.5 63.5t51.5 60.5q-47 10-47 45 0 19 20 49l49 77q-70 43-70 140 0 85 57.5 136.5t153.5 51.5q51 0 86-10h174v-55zM404 339q0 61-35.5 94t-101.5 33-105-33-39-96q0-55 34-89.5t107-34.5q64 0 102 35t38 91zM332 1l-164 10q-62-55-62-101 0-42 43.5-58t131.5-16q21 0 55 4 107 16 107 90 0 35-27.5 51.5t-83.5 19.5zM428 609l-38-33-124 104-124-104-38 33 124 120h76z" glyph-name="gcircumflex" horiz-adv-x="534" unicode="&#x11d;"/><glyph d="M717 287l-42-4q-16-1-16-14v-243q-80-38-232-38-192 0-282 102.5t-90 277.5q0 165 91 267t263 102q141 0 221-53v-146l-51 3-17 94q-2 14-13 18-68 25-145 25-129 0-204-81.5t-75-229.5q0-155 80.5-237.5t225.5-82.5q84 0 149 18 13 4 13 17v195h-146l10 55h260v-45zM485 913l51-19q-32-112-150-112-122 0-150 112l55 19q14-38 35.5-57t61.5-19 61 19.5 36 56.5z" glyph-name="Gbreve" horiz-adv-x="747" unicode="&#x11e;"/><glyph d="M526 456l-93-7q37-47 37-106 0-88-57.5-137.5t-148.5-49.5q-53 0-87 14l-47-94 177-13q118-8 163-32.5t45-99.5q0-74-63.5-115t-190.5-41q-121 0-173.5 31.5t-52.5 91.5q0 36 16.5 63.5t51.5 60.5q-47 10-47 45 0 19 20 49l49 77q-70 43-70 140 0 85 57.5 136.5t153.5 51.5q51 0 86-10h174v-55zM404 339q0 61-35.5 94t-101.5 33-105-33-39-96q0-55 34-89.5t107-34.5q64 0 102 35t38 91zM332 1l-164 10q-62-55-62-101 0-42 43.5-58t131.5-16q21 0 55 4 107 16 107 90 0 35-27.5 51.5t-83.5 19.5zM375 724l50-19q-18-65-54.5-98.5t-102.5-33.5-102 34-51 98l54 19q15-48 37-72t64-24 65 24 40 72z" glyph-name="gbreve" horiz-adv-x="534" unicode="&#x11f;"/><glyph d="M717 287l-42-4q-16-1-16-14v-243q-80-38-232-38-192 0-282 102.5t-90 277.5q0 165 91 267t263 102q141 0 221-53v-146l-51 3-17 94q-2 14-13 18-68 25-145 25-129 0-204-81.5t-75-229.5q0-155 80.5-237.5t225.5-82.5q84 0 149 18 13 4 13 17v195h-146l10 55h260v-45zM440 835q0-53-54-53t-54 53 54 53 54-53z" glyph-name="Gdotaccent" horiz-adv-x="747" unicode="&#x120;"/><glyph d="M526 456l-93-7q37-47 37-106 0-88-57.5-137.5t-148.5-49.5q-53 0-87 14l-47-94 177-13q118-8 163-32.5t45-99.5q0-74-63.5-115t-190.5-41q-121 0-173.5 31.5t-52.5 91.5q0 36 16.5 63.5t51.5 60.5q-47 10-47 45 0 19 20 49l49 77q-70 43-70 140 0 85 57.5 136.5t153.5 51.5q51 0 86-10h174v-55zM404 339q0 61-35.5 94t-101.5 33-105-33-39-96q0-55 34-89.5t107-34.5q64 0 102 35t38 91zM332 1l-164 10q-62-55-62-101 0-42 43.5-58t131.5-16q21 0 55 4 107 16 107 90 0 35-27.5 51.5t-83.5 19.5zM328 688q0-53-54-53t-54 53 54 53 54-53z" glyph-name="gdotaccent" horiz-adv-x="534" unicode="&#x121;"/><glyph d="M717 287l-42-4q-16-1-16-14v-243q-80-38-232-38-192 0-282 102.5t-90 277.5q0 165 91 267t263 102q141 0 221-53v-146l-51 3-17 94q-2 14-13 18-68 25-145 25-129 0-204-81.5t-75-229.5q0-155 80.5-237.5t225.5-82.5q84 0 149 18 13 4 13 17v195h-146l10 55h260v-45zM392-258l-36 14 25 92q1 7-5 10l-34 15 19 65q49-4 70.5-16t21.5-43q0-23-16-53z" glyph-name="Gcommaaccent" horiz-adv-x="747" unicode="&#x122;"/><glyph d="M526 456l-93-7q37-47 37-106 0-88-57.5-137.5t-148.5-49.5q-53 0-87 14l-47-94 177-13q118-8 163-32.5t45-99.5q0-74-63.5-115t-190.5-41q-121 0-173.5 31.5t-52.5 91.5q0 36 16.5 63.5t51.5 60.5q-47 10-47 45 0 19 20 49l49 77q-70 43-70 140 0 85 57.5 136.5t153.5 51.5q51 0 86-10h174v-55zM404 339q0 61-35.5 94t-101.5 33-105-33-39-96q0-55 34-89.5t107-34.5q64 0 102 35t38 91zM332 1l-164 10q-62-55-62-101 0-42 43.5-58t131.5-16q21 0 55 4 107 16 107 90 0 35-27.5 51.5t-83.5 19.5zM272 764l36-14-25-92q-1-7 5-10l34-15-19-65q-49 4-70.5 16t-21.5 43q0 23 16 53z" glyph-name="gcommaaccent" horiz-adv-x="534" unicode="&#x123;"/><glyph d="M738 0h-229v44l63 7q10 1 13 5t3 15v275h-372v-274q0-12 2.5-15.5t13.5-4.5l67-8v-44h-229v44l63 7q10 1 13 5t3 15v582q0 12-3 15.5t-13 4.5l-63 7v44h229v-44l-67-8q-11-1-13.5-4.5t-2.5-14.5v-251h372v251q0 12-3 15.5t-13 4.5l-63 7v44h229v-44l-67-8q-11-1-13.5-4.5t-2.5-14.5v-581q0-12 2.5-15.5t13.5-4.5l67-8v-44zM526 766l-119 84-119-84-35 34 116 99h76l116-99z" glyph-name="Hcircumflex" horiz-adv-x="804" unicode="&#x124;"/><glyph d="M230 790l-107 84-107-84-33 34 102 99h76l102-99zM602 0h-211v45l52 6q11 2 13.5 5t2.5 14v244q0 76-24 111t-78 35q-49 0-97-24t-77-51v-314q0-12 2.5-15.5t13.5-4.5l60-7v-44h-211v45l52 6q10 1 13 5t3 15v602q0 17-13 21l-61 19 8 42h133v-304q95 70 186 70 80 0 118.5-45t38.5-145v-260q0-12 2.5-15.5t13.5-4.5l60-7v-44z" glyph-name="hcircumflex" horiz-adv-x="632" unicode="&#x125;"/><glyph d="M738 0h-229v44l63 7q10 1 13 5t3 15v275h-372v-274q0-12 2.5-15.5t13.5-4.5l67-8v-44h-229v44l63 7q10 1 13 5t3 15v448h-69v56h69v78q0 12-3 15.5t-13 4.5l-63 7v44h229v-44l-67-8q-11-1-13.5-4.5t-2.5-14.5v-78h372v78q0 12-3 15.5t-13 4.5l-63 7v44h229v-44l-67-8q-11-1-13.5-4.5t-2.5-14.5v-78h68v-56h-68v-447q0-12 2.5-15.5t13.5-4.5l67-8v-44zM216 402h372v117h-372v-117z" glyph-name="Hbar" horiz-adv-x="804" unicode="&#x126;"/><glyph d="M602 0h-211v45l52 6q11 2 13.5 5t2.5 14v224q0 76-24 111t-78 35q-49 0-97-24t-77-51v-294q0-12 2.5-15.5t13.5-4.5l60-7v-44h-211v45l52 6q10 1 13 5t3 15v505h-70v56h70v41q0 17-13 21l-61 19 8 42h133v-123h194v-56h-194v-145q95 70 186 70 80 0 118.5-45t38.5-145v-240q0-12 2.5-15.5t13.5-4.5l60-7v-44z" glyph-name="hbar" horiz-adv-x="632" unicode="&#x127;"/><glyph d="M144 880l126-35q9-3 15 3l37 39 34-27-22-32q-30-46-58-46-15 0-28 4l-128 36q-10 3-15-3l-40-41-34 27 28 41q25 39 54 39 11 0 31-5zM320 0h-249v44l73 7q10 1 13 5t3 15v582q0 12-3 15.5t-13 4.5l-73 7v44h249v-44l-77-8q-11-1-13.5-4.5t-2.5-14.5v-581q0-12 2.5-15.5t13.5-4.5l77-8v-44z" glyph-name="Itilde" horiz-adv-x="387" unicode="&#x128;"/><glyph d="M290 655l-22-32q-30-46-58-46-15 0-28 4-25 7-71.5 20t-56.5 16-15-3l-40-41-34 27 28 41q25 39 54 39 11 0 31-5 82-23 126-35 9-3 15 3l37 39zM269 0h-241v45l72 6q10 1 13 5t3 15v358q0 17-13 21l-58 19 8 42h130v-440q0-12 2.5-15.5t13.5-4.5l70-7v-44z" glyph-name="itilde" horiz-adv-x="289" unicode="&#x129;"/><glyph d="M333 797h-275v57h275v-57zM320 0h-249v44l73 7q10 1 13 5t3 15v582q0 12-3 15.5t-13 4.5l-73 7v44h249v-44l-77-8q-11-1-13.5-4.5t-2.5-14.5v-581q0-12 2.5-15.5t13.5-4.5l77-8v-44z" glyph-name="Imacron" horiz-adv-x="387" unicode="&#x12a;"/><glyph d="M251 596h-245v57h245v-57zM269 0h-241v45l72 6q10 1 13 5t3 15v358q0 17-13 21l-58 19 8 42h130v-440q0-12 2.5-15.5t13.5-4.5l70-7v-44z" glyph-name="imacron" horiz-adv-x="289" unicode="&#x12b;"/><glyph d="M320 0h-249v44l73 7q10 1 13 5t3 15v582q0 12-3 15.5t-13 4.5l-73 7v44h249v-44l-77-8q-11-1-13.5-4.5t-2.5-14.5v-581q0-12 2.5-15.5t13.5-4.5l77-8v-44zM294 913l51-19q-32-112-150-112-122 0-150 112l55 19q14-38 35.5-57t61.5-19 61 19.5 36 56.5z" glyph-name="Ibreve" horiz-adv-x="387" unicode="&#x12c;"/><glyph d="M237 719l48-19q-34-132-155-132t-155 132l48 19q15-50 40.5-73t66.5-23 66.5 23 40.5 73zM269 0h-241v45l72 6q10 1 13 5t3 15v358q0 17-13 21l-58 19 8 42h130v-440q0-12 2.5-15.5t13.5-4.5l70-7v-44z" glyph-name="ibreve" horiz-adv-x="289" unicode="&#x12d;"/><glyph d="M236-143l18-49q-42-20-83-20-39 0-61.5 18.5t-22.5 56.5q0 65 85 137h-101v44l73 7q10 1 13 5t3 15v582q0 12-3 15.5t-13 4.5l-73 7v44h249v-44l-77-8q-11-1-13.5-4.5t-2.5-14.5v-581q0-12 2.5-15.5t13.5-4.5l77-8v-44h-76q-87-70-87-122 0-33 32-33 20 0 47 12z" glyph-name="Iogonek" horiz-adv-x="387" unicode="&#x12e;"/><glyph d="M181-143l18-49q-42-20-83-20-39 0-61.5 18.5t-22.5 56.5q0 65 85 137h-89v45l72 6q10 1 13 5t3 15v358q0 17-13 21l-58 19 8 42h130v-440q0-12 2.5-15.5t13.5-4.5l70-7v-44h-80q-87-70-87-122 0-33 32-33 20 0 47 12zM190 688q0-53-54-53t-54 53 54 53 54-53z" glyph-name="iogonek" horiz-adv-x="289" unicode="&#x12f;"/><glyph d="M320 0h-249v44l73 7q10 1 13 5t3 15v582q0 12-3 15.5t-13 4.5l-73 7v44h249v-44l-77-8q-11-1-13.5-4.5t-2.5-14.5v-581q0-12 2.5-15.5t13.5-4.5l77-8v-44zM249 835q0-53-54-53t-54 53 54 53 54-53z" glyph-name="Idotaccent" horiz-adv-x="387" unicode="&#x130;"/><glyph d="M269 0h-241v45l72 6q10 1 13 5t3 15v358q0 17-13 21l-58 19 8 42h130v-440q0-12 2.5-15.5t13.5-4.5l70-7v-44z" glyph-name="dotlessi" horiz-adv-x="289" unicode="&#x131;"/><glyph d="M320 0h-249v44l73 7q10 1 13 5t3 15v582q0 12-3 15.5t-13 4.5l-73 7v44h249v-44l-77-8q-11-1-13.5-4.5t-2.5-14.5v-581q0-12 2.5-15.5t13.5-4.5l77-8v-44zM691 149v505q0 11-3 14.5t-13 4.5l-83 7v44h249v-44l-67-8q-11-1-13.5-4t-2.5-14v-513q0-79-37-116t-119-37q-51 0-94.5 11t-60.5 22v123l51-3 10-68q2-9 12-14 33-15 80-15 53 0 72 24.5t19 80.5z" glyph-name="IJ" horiz-adv-x="886" unicode="&#x132;"/><glyph d="M190 688q0-53-54-53t-54 53 54 53 54-53zM269 0h-241v45l72 6q10 1 13 5t3 15v358q0 17-13 21l-58 19 8 42h130v-440q0-12 2.5-15.5t13.5-4.5l70-7v-44zM403-55v484q0 17-12 21l-68 19 8 42h139v-581q0-78-31.5-115.5t-100.5-37.5q-83 0-129 39l33 49q37-31 91-31 42 0 56 26.5t14 84.5zM479 688q0-53-54-53t-54 53 54 53 54-53z" glyph-name="ij" horiz-adv-x="567" unicode="&#x133;"/><glyph d="M304 149v505q0 11-3 14.5t-13 4.5l-83 7v44h249v-44l-67-8q-11-1-13.5-4t-2.5-14v-513q0-79-37-116t-119-37q-51 0-94.5 11t-60.5 22v123l51-3 10-68q2-9 12-14 33-15 80-15 53 0 72 24.5t19 80.5zM458 766l-119 84-119-84-35 34 116 99h76l116-99z" glyph-name="Jcircumflex" horiz-adv-x="499" unicode="&#x134;"/><glyph d="M114-55v484q0 17-12 21l-68 19 8 42h139v-581q0-79-32-116t-104-37q-36 0-71 11.5t-54 27.5l33 49q38-31 88-31 44 0 58.5 26t14.5 85zM280 599l-38-33-124 104-124-104-38 33 124 120h76z" glyph-name="jcircumflex" horiz-adv-x="275" unicode="&#x135;"/><glyph d="M698 0h-239v45q14 1 41.5 4t40.5 4l-241 308-84-90v-199q0-12 2.5-15.5t13.5-4.5l67-8v-44h-229v44l63 7q10 1 13 5t3 15v582q0 12-3 15.5t-13 4.5l-63 7v44h229v-44l-67-8q-11-1-13.5-4.5t-2.5-14.5v-300l295 318-62 8v45h210v-44l-54-10q-18-3-30-16l-230-245 264-339q7-9 11-11.5t18-4.5l60-10v-44zM364-258l-36 14 25 92q1 7-5 10l-34 15 19 65q49-4 70.5-16t21.5-43q0-23-16-53z" glyph-name="Kcommaaccent" horiz-adv-x="728" unicode="&#x136;"/><glyph d="M569 0h-210v45l62 8-142 222-96-108v-96q0-12 2.5-15.5t13.5-4.5l65-7v-44h-231v45l67 6q10 1 13 5t3 15v602q0 17-13 21l-61 19 8 42h133v-503l224 259h100v-44l-59-13q-15-4-25-15l-99-112 162-257q8-13 29-16l54-10v-44zM284-258l-36 14 25 92q1 7-5 10l-34 15 19 65q49-4 70.5-16t21.5-43q0-23-16-53z" glyph-name="kcommaaccent" horiz-adv-x="579" unicode="&#x137;"/><glyph d="M569 0h-210v45l62 8-142 222-96-108v-96q0-12 2.5-15.5t13.5-4.5l65-7v-44h-231v45l67 6q10 1 13 5t3 15v358q0 17-13 21l-61 19 8 42h133v-259l224 259h100v-44l-59-13q-15-4-25-15l-99-112 162-257q8-13 29-16l54-10v-44z" glyph-name="kgreenlandic" horiz-adv-x="579" unicode="&#x138;"/><glyph d="M582 0h-512v44l63 7q10 1 13 5t3 15v581q0 12-3 15.5t-13 4.5l-63 7v45h245v-45l-83-8q-11-1-13.5-4.5t-2.5-14.5v-596h284q14 0 16 11l16 87h50v-154zM308 872l-197-106-24 38 181 131z" glyph-name="Lacute" horiz-adv-x="617" unicode="&#x139;"/><glyph d="M264 0h-231v45l67 6q10 1 13 4.5t3 15.5v602q0 17-13 21l-61 19 8 42h133v-684q0-12 2.5-15.5t13.5-4.5l65-7v-44zM247 897l-197-106-24 38 181 131z" glyph-name="lacute" horiz-adv-x="289" unicode="&#x13a;"/><glyph d="M582 0h-512v44l63 7q10 1 13 5t3 15v581q0 12-3 15.5t-13 4.5l-63 7v45h245v-45l-83-8q-11-1-13.5-4.5t-2.5-14.5v-596h284q14 0 16 11l16 87h50v-154zM339-258l-36 14 25 92q1 7-5 10l-34 15 19 65q49-4 70.5-16t21.5-43q0-23-16-53z" glyph-name="Lcommaaccent" horiz-adv-x="617" unicode="&#x13b;"/><glyph d="M264 0h-231v45l67 6q10 1 13 4.5t3 15.5v602q0 17-13 21l-61 19 8 42h133v-684q0-12 2.5-15.5t13.5-4.5l65-7v-44zM140-258l-36 14 25 92q1 7-5 10l-34 15 19 65q49-4 70.5-16t21.5-43q0-23-16-53z" glyph-name="lcommaaccent" horiz-adv-x="289" unicode="&#x13c;"/><glyph d="M582 0h-512v44l63 7q10 1 13 5t3 15v581q0 12-3 15.5t-13 4.5l-63 7v45h245v-45l-83-8q-11-1-13.5-4.5t-2.5-14.5v-596h284q14 0 16 11l16 87h50v-154zM422 569l-40 12q19 59 19 96 0 35-15 65l58 28q26-26 26-53 0-19-8-46-13-42-40-102z" glyph-name="Lcaron" horiz-adv-x="617" unicode="&#x13d;"/><glyph d="M264 0h-231v45l67 6q10 1 13 4.5t3 15.5v602q0 17-13 21l-61 19 8 42h133v-684q0-12 2.5-15.5t13.5-4.5l65-7v-44zM272 575l-40 12q19 59 19 96 0 35-15 65l58 28q26-26 26-53 0-19-8-46-13-42-40-102z" glyph-name="lcaron" horiz-adv-x="313" unicode="&#x13e;"/><glyph d="M582 0h-512v44l63 7q10 1 13 5t3 15v581q0 12-3 15.5t-13 4.5l-63 7v45h245v-45l-83-8q-11-1-13.5-4.5t-2.5-14.5v-596h284q14 0 16 11l16 87h50v-154zM537 357q0-53-54-53t-54 53 54 53 54-53z" glyph-name="Ldot" horiz-adv-x="617" unicode="&#x13f;"/><glyph d="M264 0h-231v45l67 6q10 1 13 4.5t3 15.5v602q0 17-13 21l-61 19 8 42h133v-684q0-12 2.5-15.5t13.5-4.5l65-7v-44zM353 367q0-53-54-53t-54 53 54 53 54-53z" glyph-name="ldot" horiz-adv-x="308" unicode="&#x140;"/><glyph d="M582 0h-512v44l63 7q10 1 13 5t3 15v223l-94-39v57l94 39v301q0 12-3 15.5t-13 4.5l-63 7v45h245v-45l-83-8q-11-1-13.5-4.5t-2.5-14.5v-273l251 105v-59l-251-104v-265h284q14 0 16 11l16 87h50v-154z" glyph-name="Lslash" horiz-adv-x="617" unicode="&#x141;"/><glyph d="M264 0h-231v45l67 6q10 1 13 4.5t3 15.5v275l-87-42v61l87 42v266q0 17-13 21l-61 19 8 42h133v-315l94 46v-61l-94-46v-308q0-12 2.5-15.5t13.5-4.5l65-7v-44z" glyph-name="lslash" horiz-adv-x="303" unicode="&#x142;"/><glyph d="M684 0h-84l-384 638v-566q0-12 2.5-15.5t13.5-4.5l67-8v-44h-229v44l63 7q10 1 13 5t3 15v582q0 11-3 15t-13 5l-63 7v45h176l372-632v560q0 11-3 15t-13 5l-63 7v44h228v-44l-67-8q-11-1-13.5-4.5t-2.5-14.5v-653zM547 872l-197-106-24 38 181 131z" glyph-name="Nacute" horiz-adv-x="828" unicode="&#x143;"/><glyph d="M602 0h-211v45l52 6q11 2 13.5 5t2.5 14v240q0 78-23.5 114t-78.5 36q-49 0-97-24t-77-51v-314q0-12 2.5-15.5t13.5-4.5l60-7v-44h-211v45l52 6q10 1 13 5t3 15v358q0 17-13 21l-58 19 8 42h113l8-62 3-1q99 73 194 73 84 0 119.5-48.5t35.5-141.5v-260q0-12 2.5-15.5t13.5-4.5l60-7v-44zM436 708l-175-139-32 32 155 160z" glyph-name="nacute" horiz-adv-x="632" unicode="&#x144;"/><glyph d="M684 0h-84l-384 638v-566q0-12 2.5-15.5t13.5-4.5l67-8v-44h-229v44l63 7q10 1 13 5t3 15v582q0 11-3 15t-13 5l-63 7v45h176l372-632v560q0 11-3 15t-13 5l-63 7v44h228v-44l-67-8q-11-1-13.5-4.5t-2.5-14.5v-653zM406-258l-36 14 25 92q1 7-5 10l-34 15 19 65q49-4 70.5-16t21.5-43q0-23-16-53z" glyph-name="Ncommaaccent" horiz-adv-x="828" unicode="&#x145;"/><glyph d="M602 0h-211v45l52 6q11 2 13.5 5t2.5 14v240q0 78-23.5 114t-78.5 36q-49 0-97-24t-77-51v-314q0-12 2.5-15.5t13.5-4.5l60-7v-44h-211v45l52 6q10 1 13 5t3 15v358q0 17-13 21l-58 19 8 42h113l8-62 3-1q99 73 194 73 84 0 119.5-48.5t35.5-141.5v-260q0-12 2.5-15.5t13.5-4.5l60-7v-44zM310-258l-36 14 25 92q1 7-5 10l-34 15 19 65q49-4 70.5-16t21.5-43q0-23-16-53z" glyph-name="ncommaaccent" horiz-adv-x="632" unicode="&#x146;"/><glyph d="M684 0h-84l-384 638v-566q0-12 2.5-15.5t13.5-4.5l67-8v-44h-229v44l63 7q10 1 13 5t3 15v582q0 11-3 15t-13 5l-63 7v45h176l372-632v560q0 11-3 15t-13 5l-63 7v44h228v-44l-67-8q-11-1-13.5-4.5t-2.5-14.5v-653zM572 875l-116-99h-76l-116 99 35 34 119-84 119 84z" glyph-name="Ncaron" horiz-adv-x="828" unicode="&#x147;"/><glyph d="M602 0h-211v45l52 6q11 2 13.5 5t2.5 14v240q0 78-23.5 114t-78.5 36q-49 0-97-24t-77-51v-314q0-12 2.5-15.5t13.5-4.5l60-7v-44h-211v45l52 6q10 1 13 5t3 15v358q0 17-13 21l-58 19 8 42h113l8-62 3-1q99 73 194 73 84 0 119.5-48.5t35.5-141.5v-260q0-12 2.5-15.5t13.5-4.5l60-7v-44zM359 576h-76l-121 119 37 34 122-104 126 104 38-33z" glyph-name="ncaron" horiz-adv-x="632" unicode="&#x148;"/><glyph d="M636 0h-211v45l52 6q11 2 13.5 5t2.5 14v240q0 78-23.5 114t-78.5 36q-49 0-97-24t-77-51v-314q0-12 2.5-15.5t13.5-4.5l60-7v-44h-211v45l52 6q10 1 13 5t3 15v358q0 17-13 21l-58 19 8 42h113l8-62 3-1q99 73 194 73 84 0 119.5-48.5t35.5-141.5v-260q0-12 2.5-15.5t13.5-4.5l60-7v-44zM54 505l-34 13 23 72q2 8-3 12l-27 11 18 60q41-2 60-11.5t19-37.5q0-14-12-36z" glyph-name="napostrophe" horiz-adv-x="666" unicode="&#x149;"/><glyph d="M618 653q0 11-3 15t-13 5l-63 7v44h228v-44l-67-8q-11-1-13.5-4.5t-2.5-14.5v-723q0-76-40.5-114.5t-114.5-38.5q-40 0-82 14.5t-63 31.5l32 51q49-40 112-40 51 0 70.5 27t19.5 84v58l-402 635v-566q0-12 2.5-15.5t13.5-4.5l67-8v-44h-229v44l63 7q10 1 13 5t3 15v582q0 11-3 15t-13 5l-63 7v45h176l372-606v534z" glyph-name="Eng" horiz-adv-x="833" unicode="&#x14a;"/><glyph d="M459-55v365q0 78-23.5 114t-78.5 36q-49 0-97-24t-77-51v-314q0-12 2.5-15.5t13.5-4.5l60-7v-44h-211v45l52 6q10 1 13 5t3 15v358q0 17-13 21l-58 19 8 42h113l8-62 3-1q99 73 194 73 84 0 119.5-48.5t35.5-141.5v-401q0-79-32-116t-104-37q-36 0-71 11.5t-54 27.5l33 49q38-31 88-31 44 0 58.5 26t14.5 85z" glyph-name="eng" horiz-adv-x="626" unicode="&#x14b;"/><glyph d="M388-12q-165 0-248 102t-83 273q0 167 90.5 270.5t254.5 103.5q160 0 243-100t83-259q0-181-87.5-285.5t-252.5-104.5zM392 47q123 0 195 82t72 239q0 148-69.5 229t-189.5 81q-123 0-198-82.5t-75-232.5q0-151 71.5-233.5t193.5-82.5zM552 797h-303v57h303v-57z" glyph-name="Omacron" horiz-adv-x="783" unicode="&#x14c;"/><glyph d="M279-12q-119 0-176.5 72.5t-57.5 196.5q0 121 61.5 192.5t182.5 71.5q118 0 173.5-69t55.5-188q0-130-59.5-203t-179.5-73zM282 43q167 0 167 214 0 205-162 205-84 0-128.5-52t-44.5-154q0-103 42.5-158t125.5-55zM441 616h-303v57h303v-57z" glyph-name="omacron" horiz-adv-x="563" unicode="&#x14d;"/><glyph d="M388-12q-165 0-248 102t-83 273q0 167 90.5 270.5t254.5 103.5q160 0 243-100t83-259q0-181-87.5-285.5t-252.5-104.5zM392 47q123 0 195 82t72 239q0 148-69.5 229t-189.5 81q-123 0-198-82.5t-75-232.5q0-151 71.5-233.5t193.5-82.5zM499 913l51-19q-32-112-150-112-122 0-150 112l55 19q14-38 35.5-57t61.5-19 61 19.5 36 56.5z" glyph-name="Obreve" horiz-adv-x="783" unicode="&#x14e;"/><glyph d="M279-12q-119 0-176.5 72.5t-57.5 196.5q0 121 61.5 192.5t182.5 71.5q118 0 173.5-69t55.5-188q0-130-59.5-203t-179.5-73zM282 43q167 0 167 214 0 205-162 205-84 0-128.5-52t-44.5-154q0-103 42.5-158t125.5-55zM394 724l50-19q-18-65-54.5-98.5t-102.5-33.5-102 34-51 98l54 19q15-48 37-72t64-24 65 24 40 72z" glyph-name="obreve" horiz-adv-x="563" unicode="&#x14f;"/><glyph d="M388-12q-165 0-248 102t-83 273q0 167 90.5 270.5t254.5 103.5q160 0 243-100t83-259q0-181-87.5-285.5t-252.5-104.5zM392 47q123 0 195 82t72 239q0 148-69.5 229t-189.5 81q-123 0-198-82.5t-75-232.5q0-151 71.5-233.5t193.5-82.5zM473 909l-170-144-31 32 149 166zM642 898l-177-135-30 34 158 157z" glyph-name="Ohungarumlaut" horiz-adv-x="783" unicode="&#x150;"/><glyph d="M279-12q-119 0-176.5 72.5t-57.5 196.5q0 121 61.5 192.5t182.5 71.5q118 0 173.5-69t55.5-188q0-130-59.5-203t-179.5-73zM282 43q167 0 167 214 0 205-162 205-84 0-128.5-52t-44.5-154q0-103 42.5-158t125.5-55zM338 730l-156-159-35 27 133 179zM500 730l-156-159-36 27 134 178z" glyph-name="ohungarumlaut" horiz-adv-x="563" unicode="&#x151;"/><glyph d="M939 0h-494q-43-12-98-12-83 0-141 27.5t-90 80-45.5 118.5-13.5 154q0 82 16 147t51 116 95 78.5 142 27.5q52 0 99-13h457v-150l-51 3-14 78q-3 13-17 13h-277q85-85 88-274h217v-56h-218q-8-199-97-282h309q14 0 16 11l16 87h50v-154zM351 47q118 0 172 79t54 242q0 310-218 310-112 0-172-80.5t-60-230.5q0-161 53.5-240.5t170.5-79.5z" glyph-name="OE" horiz-adv-x="984" unicode="&#x152;"/><glyph d="M827 86l25-56q-73-42-172-42-149 0-199 112-55-112-202-112-119 0-176.5 72.5t-57.5 196.5q0 121 61.5 192.5t182.5 71.5q143 0 196-107 55 107 182 107 94 0 147.5-56.5t53.5-179.5q0-13-2-43h-349q5-193 168-193 45 0 74.5 8t67.5 29zM282 43q167 0 167 214 0 205-162 205-84 0-128.5-52t-44.5-154q0-103 42.5-158t125.5-55zM519 298h280q-3 164-131 164-137 0-149-164z" glyph-name="oe" horiz-adv-x="908" unicode="&#x153;"/><glyph d="M664 0h-238v45l82 8q-13 29-46 109t-46 111q-18 41-66 41h-135v-242q0-12 2.5-15.5t13.5-4.5l68-8v-44h-229v44l63 7q10 1 13 5t3 15v581q0 12-3 15.5t-13 4.5l-63 7v45h292q64 0 110-17t69.5-46 33.5-61 10-70q0-151-141-196 6-3 10.5-6t9-8.5 8-9 7.5-11.5 6.5-11.5 6.5-14.5 5.5-14.5 6.5-17 7-17.5l62-151q7-15 24-18l67-11v-44zM215 373h110q190 0 190 156 0 80-50.5 108.5t-160.5 28.5h-89v-293zM455 872l-197-106-24 38 181 131z" glyph-name="Racute" horiz-adv-x="689" unicode="&#x154;"/><glyph d="M289 0h-241v45l52 6q10 1 13 5t3 15v358q0 17-13 21l-58 19 8 42h114l9-64q79 74 155 74 34 0 66-9v-139l-51 3-13 76q-1 9-12 9-64 0-138-74v-316q0-12 2.5-15.5t13.5-4.5l90-7v-44zM335 708l-175-139-32 32 155 160z" glyph-name="racute" horiz-adv-x="417" unicode="&#x155;"/><glyph d="M664 0h-238v45l82 8q-13 29-46 109t-46 111q-18 41-66 41h-135v-242q0-12 2.5-15.5t13.5-4.5l68-8v-44h-229v44l63 7q10 1 13 5t3 15v581q0 12-3 15.5t-13 4.5l-63 7v45h292q64 0 110-17t69.5-46 33.5-61 10-70q0-151-141-196 6-3 10.5-6t9-8.5 8-9 7.5-11.5 6.5-11.5 6.5-14.5 5.5-14.5 6.5-17 7-17.5l62-151q7-15 24-18l67-11v-44zM215 373h110q190 0 190 156 0 80-50.5 108.5t-160.5 28.5h-89v-293zM347-258l-36 14 25 92q1 7-5 10l-34 15 19 65q49-4 70.5-16t21.5-43q0-23-16-53z" glyph-name="Rcommaaccent" horiz-adv-x="689" unicode="&#x156;"/><glyph d="M289 0h-241v45l52 6q10 1 13 5t3 15v358q0 17-13 21l-58 19 8 42h114l9-64q79 74 155 74 34 0 66-9v-139l-51 3-13 76q-1 9-12 9-64 0-138-74v-316q0-12 2.5-15.5t13.5-4.5l90-7v-44zM152-258l-36 14 25 92q1 7-5 10l-34 15 19 65q49-4 70.5-16t21.5-43q0-23-16-53z" glyph-name="rcommaaccent" horiz-adv-x="417" unicode="&#x157;"/><glyph d="M664 0h-238v45l82 8q-13 29-46 109t-46 111q-18 41-66 41h-135v-242q0-12 2.5-15.5t13.5-4.5l68-8v-44h-229v44l63 7q10 1 13 5t3 15v581q0 12-3 15.5t-13 4.5l-63 7v45h292q64 0 110-17t69.5-46 33.5-61 10-70q0-151-141-196 6-3 10.5-6t9-8.5 8-9 7.5-11.5 6.5-11.5 6.5-14.5 5.5-14.5 6.5-17 7-17.5l62-151q7-15 24-18l67-11v-44zM215 373h110q190 0 190 156 0 80-50.5 108.5t-160.5 28.5h-89v-293zM472 875l-116-99h-76l-116 99 35 34 119-84 119 84z" glyph-name="Rcaron" horiz-adv-x="689" unicode="&#x158;"/><glyph d="M289 0h-241v45l52 6q10 1 13 5t3 15v358q0 17-13 21l-58 19 8 42h114l9-64q79 74 155 74 34 0 66-9v-139l-51 3-13 76q-1 9-12 9-64 0-138-74v-316q0-12 2.5-15.5t13.5-4.5l90-7v-44zM271 576h-76l-121 119 37 34 122-104 126 104 38-33z" glyph-name="rcaron" horiz-adv-x="417" unicode="&#x159;"/><glyph d="M500 544l-51 5-17 86q-3 16-6 19-6 8-36.5 15t-71.5 7q-84 0-127-33.5t-43-94.5q0-41 20.5-69t53.5-43 72.5-27 79.5-27 73-36 53.5-60 20.5-94q0-106-71.5-155t-186.5-49q-62 0-119.5 12t-83.5 25v151h49l19-85q2-11 5-14.5t12-7.5q56-21 127-21 178 0 178 139 0 43-20.5 72.5t-53.5 45.5-72.5 28-79.5 26-73 34-53.5 57.5-20.5 90.5q0 99 68 147.5t177 48.5q88 0 178-33v-160zM431 872l-197-106-24 38 181 131z" glyph-name="Sacute" horiz-adv-x="581" unicode="&#x15a;"/><glyph d="M393 371l-51 3-12 66q-2 10-11 13-34 12-83 12-59 0-88-23.5t-29-61.5q0-18 7.5-32.5t17-23 30-17 33-12 39.5-10.5q38-10 59-17.5t49-24 41-43 13-63.5q0-78-55-113.5t-138-35.5q-52 0-104.5 11.5t-70.5 21.5v123l51-3 12-66q2-10 11-13 50-18 108-18 121 0 121 87 0 23-9 39.5t-29 27.5-37 16.5-47 13.5q-34 8-49 12t-42.5 16-40 25-23.5 36.5-11 54.5q0 77 54.5 113t136.5 36q86 0 147-27v-123zM346 708l-175-139-32 32 155 160z" glyph-name="sacute" horiz-adv-x="449" unicode="&#x15b;"/><glyph d="M500 544l-51 5-17 86q-3 16-6 19-6 8-36.5 15t-71.5 7q-84 0-127-33.5t-43-94.5q0-41 20.5-69t53.5-43 72.5-27 79.5-27 73-36 53.5-60 20.5-94q0-106-71.5-155t-186.5-49q-62 0-119.5 12t-83.5 25v151h49l19-85q2-11 5-14.5t12-7.5q56-21 127-21 178 0 178 139 0 43-20.5 72.5t-53.5 45.5-72.5 28-79.5 26-73 34-53.5 57.5-20.5 90.5q0 99 68 147.5t177 48.5q88 0 178-33v-160zM424 766l-119 84-119-84-35 34 116 99h76l116-99z" glyph-name="Scircumflex" horiz-adv-x="581" unicode="&#x15c;"/><glyph d="M393 371l-51 3-12 66q-2 10-11 13-34 12-83 12-59 0-88-23.5t-29-61.5q0-18 7.5-32.5t17-23 30-17 33-12 39.5-10.5q38-10 59-17.5t49-24 41-43 13-63.5q0-78-55-113.5t-138-35.5q-52 0-104.5 11.5t-70.5 21.5v123l51-3 12-66q2-10 11-13 50-18 108-18 121 0 121 87 0 23-9 39.5t-29 27.5-37 16.5-47 13.5q-34 8-49 12t-42.5 16-40 25-23.5 36.5-11 54.5q0 77 54.5 113t136.5 36q86 0 147-27v-123zM394 609l-38-33-124 104-124-104-38 33 124 120h76z" glyph-name="scircumflex" horiz-adv-x="449" unicode="&#x15d;"/><glyph d="M204-224l6 46q15-3 33-3 75 0 75 55 0 46-72 47l9 67q-61 1-116 13t-79 24v151h49l19-85q2-11 5-14.5t12-7.5q56-21 127-21 178 0 178 139 0 43-20.5 72.5t-53.5 45.5-72.5 28-79.5 26-73 34-53.5 57.5-20.5 90.5q0 99 68 147.5t177 48.5q88 0 178-33v-160l-51 5-17 86q-3 16-6 19-6 8-36.5 15t-71.5 7q-84 0-127-33.5t-43-94.5q0-41 20.5-69t53.5-43 72.5-27 79.5-27 73-36 53.5-60 20.5-94q0-95-58-144t-155-58l-4-34q32-6 52-26t20-53q0-42-31-73.5t-97-31.5q-25 0-44 4z" glyph-name="Scedilla" horiz-adv-x="581" unicode="&#x15e;"/><glyph d="M393 371l-51 3-12 66q-2 10-11 13-34 12-83 12-59 0-88-23.5t-29-61.5q0-18 7.5-32.5t17-23 30-17 33-12 39.5-10.5q38-10 59-17.5t49-24 41-43 13-63.5q0-72-47-107.5t-121-40.5l-4-33q32-6 52-26t20-53q0-42-31-73.5t-97-31.5q-25 0-44 4l6 46q15-3 33-3 75 0 75 55 0 46-72 47l9 68q-46 3-89.5 13.5t-57.5 18.5v123l51-3 12-66q2-10 11-13 50-18 108-18 121 0 121 87 0 23-9 39.5t-29 27.5-37 16.5-47 13.5q-34 8-49 12t-42.5 16-40 25-23.5 36.5-11 54.5q0 77 54.5 113t136.5 36q86 0 147-27v-123z" glyph-name="scedilla" horiz-adv-x="449" unicode="&#x15f;"/><glyph d="M500 544l-51 5-17 86q-3 16-6 19-6 8-36.5 15t-71.5 7q-84 0-127-33.5t-43-94.5q0-41 20.5-69t53.5-43 72.5-27 79.5-27 73-36 53.5-60 20.5-94q0-106-71.5-155t-186.5-49q-62 0-119.5 12t-83.5 25v151h49l19-85q2-11 5-14.5t12-7.5q56-21 127-21 178 0 178 139 0 43-20.5 72.5t-53.5 45.5-72.5 28-79.5 26-73 34-53.5 57.5-20.5 90.5q0 99 68 147.5t177 48.5q88 0 178-33v-160zM459 875l-116-99h-76l-116 99 35 34 119-84 119 84z" glyph-name="Scaron" horiz-adv-x="581" unicode="&#x160;"/><glyph d="M393 371l-51 3-12 66q-2 10-11 13-34 12-83 12-59 0-88-23.5t-29-61.5q0-18 7.5-32.5t17-23 30-17 33-12 39.5-10.5q38-10 59-17.5t49-24 41-43 13-63.5q0-78-55-113.5t-138-35.5q-52 0-104.5 11.5t-70.5 21.5v123l51-3 12-66q2-10 11-13 50-18 108-18 121 0 121 87 0 23-9 39.5t-29 27.5-37 16.5-47 13.5q-34 8-49 12t-42.5 16-40 25-23.5 36.5-11 54.5q0 77 54.5 113t136.5 36q86 0 147-27v-123zM270 576h-76l-121 119 37 34 122-104 126 104 38-33z" glyph-name="scaron" horiz-adv-x="449" unicode="&#x161;"/><glyph d="M234-224l6 46q15-3 33-3 75 0 75 55 0 46-72 47l11 79h-119v45l103 7q10 1 13 4.5t3 15.5v596h-175q-14 0-16-11l-16-87h-50v154h582v-154h-50l-16 87q-2 11-16 11h-176v-596q0-11 2.5-14.5t13.5-4.5l110-8v-45h-140l-6-44q32-6 52-26t20-53q0-42-31-73.5t-97-31.5q-25 0-44 4z" glyph-name="uni0162" horiz-adv-x="642" unicode="&#x162;"/><glyph d="M356 68l19-52q-64-26-116-28l-4-32q32-6 52-26t20-53q0-42-31-73.5t-97-31.5q-25 0-44 4l6 46q15-3 33-3 75 0 75 55 0 46-72 47l9 71q-89 16-89 120v333q0 10-8 10h-74v45q55 7 74.5 33.5t29.5 101.5h45v-114q0-10 8-10h149v-56h-157v-318q0-49 16.5-69t59.5-20 96 20z" glyph-name="uni0163" horiz-adv-x="405" unicode="&#x163;"/><glyph d="M480 0h-312v45l103 7q10 1 13 4.5t3 15.5v596h-175q-14 0-16-11l-16-87h-50v154h582v-154h-50l-16 87q-2 11-16 11h-176v-596q0-11 2.5-14.5t13.5-4.5l110-8v-45zM475 875l-116-99h-76l-116 99 35 34 119-84 119 84z" glyph-name="Tcaron" horiz-adv-x="642" unicode="&#x164;"/><glyph d="M356 68l19-52q-71-28-129-28-129 0-129 124v333q0 10-8 10h-74v45q55 7 74.5 33.5t29.5 101.5h45v-114q0-10 8-10h149v-56h-157v-318q0-49 16.5-69t59.5-20 96 20zM293 558l-40 12q19 59 19 96 0 35-15 65l58 28q26-26 26-53 0-19-8-46-13-42-40-102z" glyph-name="tcaron" horiz-adv-x="405" unicode="&#x165;"/></font>
</defs>
</svg>
