<svg id="f24c9927-ecc5-4e87-9254-4f2b374a3400" data-name="Capa 2" xmlns="http://www.w3.org/2000/svg" width="1397" height="353" viewBox="0 0 1397 353">
  <title>git-head</title>
  <g id="ab76c0de-0f93-4624-8375-069557e0b503" data-name="Capa 3">
    <rect width="1397" height="353" fill="#fff"/>
  </g>
  <path d="M2066.55,121.83,1530.6-414a79,79,0,0,0-111.76,0l-111.29,111.3,141.16,141.16a93.83,93.83,0,0,1,96.58,22.5,94,94,0,0,1,22.3,97.17L1703.64,94.13a93.93,93.93,0,1,1-56.34,53L1520.42,20.28l0,333.89a93.83,93.83,0,1,1-77.33-2.74v-337a92.9,92.9,0,0,1-30.8-20.53A94,94,0,0,1,1392-108.91L1252.86-248.09,885.4,119.36a79.07,79.07,0,0,0,0,111.81l535.92,535.88a79.07,79.07,0,0,0,111.79,0L2066.54,233.7a79.08,79.08,0,0,0,0-111.82" fill="#fc6d26"/>
  <g>
    <g opacity="0.7">
      <path d="M495.49,212.62H448.17V201.37l9.09-1a2.6,2.6,0,0,0,1.87-.72,3.8,3.8,0,0,0,.44-2.16V123.61a3.78,3.78,0,0,0-.44-2.24,2.86,2.86,0,0,0-1.87-.65l-9.09-1V108.17h48.62q31.6,0,31.6,25.54,0,9.51-5,15.65a26.66,26.66,0,0,1-12.55,8.58v.44q24.09,2.75,24.09,25.53Q534.88,212.64,495.49,212.62ZM481.79,152h5.77q9.09,0,14.35-3.18t5.27-11.54q0-8.07-4.4-10.75t-13.06-2.67h-7.93Zm0,45h9.95q10,0,15-3.32t5.05-12.12q0-15.14-17.89-15.14H481.79Z" fill="#413000"/>
      <path d="M583.64,212.62H542.53V201.23l7.35-1a2.69,2.69,0,0,0,1.88-.72,3.85,3.85,0,0,0,.43-2.17V154.91c0-1.63-.62-2.64-1.87-3l-7.79-2.74,1.58-11.68H574v59.87a4.45,4.45,0,0,0,.36,2.24c.24.33.89.55,1.95.65l7.35,1ZM570.88,103.48q3.39,3.24,3.39,9.45t-3.47,9.59c-2.3,2.26-5.53,3.39-9.66,3.39s-7.34-1.13-9.6-3.39-3.39-5.45-3.39-9.59,1.13-7.29,3.39-9.45,5.46-3.25,9.6-3.25S568.62,101.32,570.88,103.48Z" fill="#413000"/>
      <path d="M614.81,212.62H594.18a148.46,148.46,0,0,0,2.16-21.06V121.15c0-1.63-.63-2.64-1.88-3l-7.93-2.74,1.59-11.69h29.72v40l.57.14A33.47,33.47,0,0,1,640.2,136q12.56,0,20.2,9t7.65,28q0,21.35-8.08,31.38t-22.22,10q-13.14,0-21.21-9.09l-.72.14ZM618,158.09v33.76q6.21,5.63,13.27,5.63,14,0,14-23.38,0-9.22-3.25-15.15A10.68,10.68,0,0,0,632,153Q625.62,153,618,158.09Z" fill="#413000"/>
      <path d="M716.81,212.62H676.12V201.23l7.22-1a2.66,2.66,0,0,0,1.87-.72,3.84,3.84,0,0,0,.44-2.17V121.15c0-1.63-.63-2.64-1.88-3l-7.93-2.74,1.58-11.69h30v93.64a4.45,4.45,0,0,0,.36,2.24c.24.33.89.55,2,.65l7.07,1Z" fill="#413000"/>
      <path d="M784.19,192.71,789.52,207q-15.13,7.35-29.57,7.36-19.77,0-28.57-10.75t-8.8-29.07q0-18.76,10-28.64T758.36,136q15,0,23.37,8.44t8.37,26.48c0,2.6-.09,5.82-.29,9.66H745.66q1.15,17,17,17Q770.91,197.62,784.19,192.71Zm-38.38-25.82h22.94q-.15-15.3-10.82-15.29Q747,151.6,745.81,166.89Z" fill="#413000"/>
    </g>
    <path d="M209.49,170.77,143.74,105A9.69,9.69,0,0,0,130,105l-13.65,13.65L133.69,136a11.52,11.52,0,0,1,14.59,14.68L165,167.37a11.53,11.53,0,1,1-6.91,6.51l-15.57-15.57v41a11.54,11.54,0,1,1-13.27,2.18,11.65,11.65,0,0,1,3.78-2.52V157.6a11.55,11.55,0,0,1-6.26-15.14l-17.07-17.07L64.59,170.47a9.7,9.7,0,0,0,0,13.72l65.74,65.74a9.72,9.72,0,0,0,13.72,0l65.44-65.43a9.7,9.7,0,0,0,0-13.72" fill="#fc6d26"/>
    <g>
      <path d="M291.65,153.36c-7.91,0-13.8,3.89-13.8,13.24,0,7,3.88,11.93,13.37,11.93,8,0,13.52-4.74,13.52-12.22,0-8.48-4.9-12.95-13.09-12.95Zm-15.82,66c-1.87,2.3-3.74,4.74-3.74,7.62,0,5.75,7.33,7.48,17.4,7.48,8.34,0,19.7-.59,19.7-8.34,0-4.61-5.47-4.9-12.37-5.33l-21-1.43Zm42.56-65.57a22.83,22.83,0,0,1,5.32,14.52c0,16-12.51,25.31-30.62,25.31a46.21,46.21,0,0,1-11.37-1.29L277,200l14.09.86c24.88,1.58,39.54,2.3,39.54,21.42,0,16.54-14.52,25.88-39.54,25.88-26,0-35.95-6.61-35.95-18,0-6.48,2.88-9.92,7.91-14.67A9.58,9.58,0,0,1,256.7,206c0-3.17,1.58-6,4.18-8.78s5.46-5.46,8.91-8.63c-7-3.45-12.37-10.92-12.37-21.57,0-16.53,10.93-27.88,32.93-27.88a49.73,49.73,0,0,1,13.23,1.43h28v12.22l-13.23,1" fill="#413000"/>
      <path d="M356.93,127.67c-8.2,0-12.94-4.75-12.94-13s4.74-12.65,12.94-12.65S370,106.53,370,114.72,365.27,127.67,356.93,127.67Zm-18.55,86.41V202.72l7.33-1c2-.29,2.3-.72,2.3-2.88V156.57c0-1.58-.43-2.59-1.87-3l-7.76-2.74L340,139.17h29.77v59.67c0,2.31.14,2.59,2.3,2.88l7.33,1v11.35h-41" fill="#413000"/>
      <path d="M436.22,208.51c-6.18,3-15.24,5.74-23.44,5.74-17.11,0-23.58-6.89-23.58-23.15V153.43c0-.86,0-1.43-1.15-1.43H378V139.2c12.66-1.44,17.69-7.77,19.27-23.44h13.66v20.42c0,1,0,1.44,1.15,1.44h20.28V152H410.91v34.36c0,8.48,2,11.79,9.78,11.79a34.12,34.12,0,0,0,11.65-2.3l3.88,12.66" fill="#413000"/>
    </g>
  </g>
</svg>
