<svg xmlns="http://www.w3.org/2000/svg"><defs><font horiz-adv-x="570"><font-face ascent="755" bbox="-143 -291 1235 973" cap-height="724" descent="-245" panose-1="2 0 5 3 0 0 0 9 0 4" underline-position="-200" underline-thickness="50" unicode-range="U+0020-FB06" x-height="514"/><missing-glyph horiz-adv-x="500"/><glyph d="M467-212h-89l92 647q2 10-7 10h-234l-94-657h-89l92 647q2 10-7 10h-70l10 69h78l11 76q24 161 173 161 91 0 150-49l-39-60q-52 37-104 37-43 0-63.5-24t-28.5-75l-9-56q-1-10 7-10h235l12 91q21 161 175 161 90 0 148-48l-39-61q-52 37-104 37-43 0-64-24t-28-75l-10-71q-1-10 7-10h161l-10-69h-169z" glyph-name="ff" horiz-adv-x="719" unicode="&#x66;&#x66;"/><glyph d="M575 0h-169l-2 4 21 115 44 310q3 15-9 16h-231l-94-657h-89l92 647q2 10-7 10h-70l10 69h78l13 91q23 161 199 161 56 0 107.5-17.5t83.5-38.5l-38-62q-77 46-148 46-54 0-81.5-25t-35.5-76l-10-69q-1-10 7-10h324l-62-437q-2-12 .5-15.5t13.5-4.5l60-8z" glyph-name="fi" horiz-adv-x="628" unicode="&#x66;&#x69;"/><glyph d="M575 0h-169l-2 4 21 115 73 535q-72 40-135 40-53 0-80-24.5t-34-74.5l-10-71q-1-10 7-10h147l-10-69h-154l-94-657h-89l92 647q2 10-7 10h-70l10 69h78l13 91q23 161 197 161 83 0 161-42l62 31h22l-96-678q-2-12 .5-15.5t13.5-4.5l60-8z" glyph-name="fl" horiz-adv-x="630" unicode="&#x66;&#x6c;"/><glyph d="M467-212h-90l92 647q2 10-5 10h-235l-94-657h-89l92 647q2 10-7 10h-70l10 69h78l11 76q24 161 173 161 91 0 150-49l-39-60q-52 37-104 37-43 0-63.5-24t-28.5-75l-9-56q-1-10 7-10h234l13 91q23 161 199 161 56 0 107.5-17.5t83.5-38.5l-37-62q-79 46-149 46-54 0-82-25t-35-76l-9-69q-1-10 7-10h323l-61-437q-2-12 0-15.5t13-4.5l60-8-7-49h-169l-2 4 21 115 44 310q3 16-12 16h-228z" glyph-name="ffi" horiz-adv-x="958" unicode="&#x66;&#x66;&#x69;"/><glyph d="M468-212h-90l93 647q2 10-7 10h-235l-94-657h-89l92 647q2 10-7 10h-70l10 69h78l11 76q24 161 173 161 91 0 150-49l-39-60q-52 37-104 37-43 0-63.5-24t-28.5-75l-9-56q-1-7 .5-8.5t7.5-1.5h235l12 91q23 161 198 161 83 0 161-42l10 6 52 25h22l-96-678q-2-12 .5-15.5t13.5-4.5l59-8-7-49h-169l-2 4 21 115 74 535q-72 40-136 40-52 0-79-24.5t-34-74.5l-10-71q-1-10 7-10h146l-10-69h-154z" glyph-name="ffl" horiz-adv-x="963" unicode="&#x66;&#x66;&#x6c;"/><glyph d="M872 0h-142l-3 3-35 100-70 169-100-95-14-100q-2-12 0-15.5t13-4.5l64-8-7-49h-234l7 50 50 7q10 2 13.5 5t4.5 15l81 574q-76 43-137 43-53 0-80-24.5t-34-74.5l-10-71q-1-10 7-10h147l-10-69h-154l-94-657h-89l92 647q2 10-7 10h-70l10 69h78l13 91q23 161 197 161 85 0 163-43l58 32h24l-68-476 204 195q29 27 54 38.5t59 11.5q23 0 44-4l-8-60q-31 1-54-8.5t-53-37.5l-86-83 102-257q3-8 7-10.5t20-5.5l54-9z" glyph-name="fk" horiz-adv-x="912" unicode="&#x66;&#x6b;"/><glyph d="M486 0h-89q22 74 32 143l72 508q-76 43-138 43-53 0-80-24.5t-34-74.5l-10-71q-1-10 7-10h147l-10-69h-154l-94-657h-89l92 647q2 10-7 10h-70l10 69h78l13 91q23 161 197 161 86 0 162-43l59 32h23l-47-334q55 48 100.5 75t93.5 27q144 0 144-192 0-58-13-114.5t-39.5-109-76-85-114.5-32.5q-89 0-150 64l-3-1zM544 333l-29-206q58-66 124-66 43 0 75.5 24.5t50.5 63.5 27 82 9 86q0 126-77 126-64 0-180-110z" glyph-name="fb" horiz-adv-x="922" unicode="&#x66;&#x62;"/><glyph d="M897 0h-164l-2 2 18 103 30 209q6 46 6 69 0 63-47 63-68 0-195-115l-35-254q-2-12 .5-15.5t13.5-4.5l63-8-7-49h-233l7 50 48 7q10 1 13.5 5t5.5 15l81 574q-74 43-137 43-53 0-80-24.5t-34-74.5l-10-71q-1-10 7-10h147l-10-69h-154l-94-657h-89l92 647q2 10-7 10h-70l10 69h78l13 91q23 161 197 161 84 0 162-43l56 32h25l-49-339q38 31 54.5 44t46 31.5 55 25.5 54.5 7q114 0 114-121 0-23-5-58l-37-268q-2-12 0-15.5t13-4.5l56-8z" glyph-name="fh" horiz-adv-x="949" unicode="&#x66;&#x68;"/><glyph d="M670 82l16-63q-67-31-140-31-122 0-122 95 0 32 7 83l38 269q1 5-2 7.5t-11 2.5h-227l-94-657h-89l92 647q2 10-7 10h-70l10 69h78l13 91q23 161 199 161 56 0 107.5-17.5t83.5-38.5l-38-62q-77 46-148 46-55 0-82-24.5t-35-76.5l-10-69q-1-6 .5-8t8.5-2h232l11 75h89l-8-62q-1-9 .5-11t8.5-2h140l-9-69h-152l-40-295q-3-21-3-36 0-28 13.5-40.5t46.5-12.5q41 0 93 21z" glyph-name="ft" horiz-adv-x="736" unicode="&#x66;&#x74;"/><glyph d="M401-47l69 481q1 11-10 11h-231l-93-657h-89l91 647q2 10-7 10h-70l10 69h78l13 91q23 161 199 161 56 0 107.5-17.5t83.5-38.5l-38-62q-77 46-148 46-54 0-81.5-25t-35.5-76l-10-69q-1-10 7-10h324l-81-579q-11-83-49.5-120.5t-112.5-37.5q-40 0-73 12.5t-47 26.5l38 57q34-24 74-24t57 23.5 25 80.5z" glyph-name="fj" horiz-adv-x="619" unicode="&#x66;&#x6a;"/><glyph d="M467-212h-89l91 647q2 10-7 10h-233l-93-657h-89l91 647q2 10-7 10h-70l10 69h78l11 76q24 161 173 161 91 0 150-49l-39-60q-52 37-104 37-43 0-63.5-24t-28.5-75l-9-56q-1-10 7-10h234l12 91q21 161 200 161 56 0 107.5-17.5t83.5-38.5l-38-62q-79 46-149 46-54 0-81-25t-35-76l-10-69q-1-10 7-10h323l-80-579q-12-83-50.5-120.5t-111.5-37.5q-41 0-73.5 12.5t-46.5 26.5l38 57q34-24 74-24t57 23.5 25 80.5l68 475q1 7 .5 10.5t-3 5-8.5 1.5h-230z" glyph-name="ffj" horiz-adv-x="950" unicode="&#x66;&#x66;&#x6a;"/><glyph d="M467-212h-89l92 647q2 10-7 10h-234l-94-657h-89l92 647q2 10-7 10h-70l10 69h78l11 76q24 161 173 161 91 0 150-49l-39-60q-52 37-104 37-43 0-63.5-24t-28.5-75l-9-56q-1-6 .5-8t8.5-2h233l12 91q21 161 198 161 85 0 163-43l58 32h23l-67-476 204 195q29 27 54 38.5t59 11.5q23 0 44-4l-8-60q-31 1-54-8t-53-38l-86-83 102-257q4-9 8-11.5t19-4.5l54-9-7-49h-142l-3 3-35 100-70 169-100-95-14-100q-2-12 0-15.5t13-4.5l63-8-7-49h-233l7 50 50 7q8 1 11 2.5t4.5 5 2.5 12.5l80 575q-74 42-137 42-52 0-79-24.5t-34-74.5l-10-71q-1-10 7-10h146l-9-69h-155z" glyph-name="ffk" horiz-adv-x="1244" unicode="&#x66;&#x66;&#x6b;"/><glyph d="M467-212h-89l92 647q2 10-7 10h-234l-94-657h-89l92 647q2 10-7 10h-70l10 69h78l11 76q24 161 173 161 91 0 150-49l-39-60q-52 37-104 37-43 0-63.5-24t-28.5-75l-9-56q-1-6 .5-8t8.5-2h233l12 91q21 161 198 161 86 0 162-43l59 32h22l-47-334q35 31 57 48t62.5 35 78.5 18q140 0 140-191 0-45-7-90.5t-25-91.5-44.5-80.5-69-56.5-94.5-22q-85 0-152 64l-3-1-12-53h-89q22 82 31 143l72 508q-76 43-138 43-52 0-79-24.5t-34-74.5l-10-71q-1-10 7-10h146l-9-69h-155zM876 333l-29-206q24-28 59.5-47t71.5-19q40 0 71 24.5t48.5 63.5 26.5 82 9 86q0 126-77 126-64 0-180-110z" glyph-name="ffb" horiz-adv-x="1254" unicode="&#x66;&#x66;&#x62;"/><glyph d="M1228 0h-164l-2 2 18 103 30 209q6 46 6 69 0 63-47 63-68 0-195-115l-35-254q-2-12 .5-15.5t13.5-4.5l63-8-7-49h-233l7 50 48 7q10 1 13.5 5t5.5 15l81 574q-74 43-137 43-53 0-80-24.5t-34-74.5l-10-71q-1-10 7-10h147l-10-69h-154l-94-657h-88l91 647q2 10-7 10h-233l-94-657h-89l92 647q2 10-7 10h-70l10 69h78l11 76q24 161 173 161 91 0 150-49l-39-60q-52 37-104 37-43 0-63.5-24t-28.5-75l-9-56q-1-6 1-8t10-2h230l13 91q23 161 197 161 84 0 162-43l56 32h25l-49-339q38 31 54.5 44t46 31.5 55 25.5 54.5 7q114 0 114-121 0-23-5-58l-37-268q-2-12 0-15.5t13-4.5l56-8z" glyph-name="ffh" horiz-adv-x="1281" unicode="&#x66;&#x66;&#x68;"/><glyph d="M1002 82l16-63q-67-31-140-31-122 0-122 95 0 32 7 83l38 269q1 5-2 7.5t-11 2.5h-227l-94-657h-89l92 647q2 10-7 10h-234l-94-657h-89l92 647q2 10-7 10h-70l10 69h78l11 76q24 161 173 161 91 0 150-49l-39-60q-52 37-104 37-43 0-63.5-24t-28.5-75l-9-56q0-4 2.5-6.5t8-3 10-1 12.5 0 10 .5h199l13 91q23 161 199 161 56 0 107.5-17.5t83.5-38.5l-38-62q-77 46-148 46-55 0-82-24.5t-35-76.5l-10-69q-1-6 .5-8t8.5-2h232l11 75h89l-8-62q-1-9 .5-11t8.5-2h140l-9-69h-152l-40-295q-3-21-3-36 0-28 13.5-40.5t46.5-12.5q41 0 93 21z" glyph-name="fft" horiz-adv-x="1067" unicode="&#x66;&#x66;&#x74;"/><glyph d="M135-212h-89l92 647q2 10-7 10h-70l10 69h78l13 91q23 161 173 161 86 0 138-45l-37-60q-46 33-95 33-43 0-63.5-24t-28.5-75l-10-66q-2-8 0-11.5t11-3.5h320l-62-437q-2-12 .5-15.5t13.5-4.5l60-8-7-49h-169l-2 4 25 144 40 281q3 16-13 16h-227zM679 707l-195-140-34 38 175 163z" glyph-name="f_iacute" horiz-adv-x="629" unicode="&#x66;&#x26;&#x23;&#x78;&#x65;&#x64;&#x3b;"/><glyph d="M649 83l16-62q-65-31-140-31-123 0-123 102 0 16 3 32l43 311q2 10-6 10h-215l-40-295q-3-21-3-36 0-28 13.5-40.5t47.5-12.5q40 0 93 21l15-63q-67-31-140-31-122 0-122 103 0 10 2 32l43 311q2 10-6 10h-72l9 60q55 8 83.5 38t46.5 104h59l-18-122q-1-10 7-10h156q73 0 107 133h59l-17-122q-1-6 0-8t6-2h144l-10-68h-151l-41-296q-3-20-3-35 0-28 13.5-40.5t47.5-12.5q39 0 93 20z" glyph-name="tt" horiz-adv-x="714" unicode="&#x74;&#x74;"/><glyph glyph-name=".notdef" horiz-adv-x="500"/><glyph glyph-name=".null" horiz-adv-x="0"/><glyph glyph-name="nonmarkingreturn" horiz-adv-x="333"/><glyph glyph-name="space" horiz-adv-x="222" unicode="&#x20;"/><glyph d="M174 187h-76l39 371 23 166h101l-23-166zM184 62q0-74-76-74-58 0-58 52 0 74 76 74 58 0 58-52z" glyph-name="exclam" horiz-adv-x="264" unicode="&#x21;"/><glyph d="M343 447h-90l37 259h90zM173 447h-90l37 259h90z" glyph-name="quotedbl" horiz-adv-x="373" unicode="&#x22;"/><glyph d="M518 139h-110l-40-139h-72l40 139h-121l-40-139h-72l39 139h-114l24 66h111l43 148h-115l25 67h110l35 123h73l-36-123h120l35 123h72l-36-123h116l-24-67h-111l-43-148h114zM356 205l42 148h-120l-44-148h122z" glyph-name="numbersign" horiz-adv-x="607" unicode="&#x23;"/><glyph d="M361 700l-10-73q83-4 152-31l-20-152-65 5-3 73q-1 22-14 27-22 9-59 11l-30-216q66-24 104.5-57t38.5-95q0-80-52-128.5t-141-60.5l-11-83h-69l10 80q-115 5-176 39l20 138h65l7-72q2-15 5-20t13-8q30-10 75-11l30 219q-32 11-53 21.5t-43.5 28-34 43.5-11.5 61q0 82 52.5 129t137.5 57l11 75h71zM177 458q0-33 16-53.5t51-36.5l25 188q-44-9-68-35t-24-63zM368 173q0 32-16.5 52.5t-54.5 34.5l-26-193q48 9 72.5 37.5t24.5 68.5z" glyph-name="dollar" horiz-adv-x="513" unicode="&#x24;"/><glyph d="M221 257q-74 0-107 40.5t-33 105.5q0 97 50 157t143 60q70 0 104.5-38.5t34.5-106.5q0-98-50.5-158t-141.5-60zM262-17h-87l466 638h86zM230 318q103 0 103 154 0 86-68 86-56 0-80.5-43t-24.5-105q0-92 70-92zM634-12q-74 0-107.5 40.5t-33.5 105.5q0 97 50.5 157t143.5 60q70 0 104.5-38.5t34.5-106.5q0-98-50.5-158t-141.5-60zM643 49q103 0 103 154 0 86-68 86-56 0-80.5-43t-24.5-105q0-92 70-92z" glyph-name="percent" horiz-adv-x="879" unicode="&#x25;"/><glyph d="M643 325l-41-4q-17-1-18-14l-37-268q-33-24-96.5-37.5t-132.5-13.5q-241 0-241 170 0 76 43 123.5t110 65.5q-41 15-66 51t-25 82q0 88 65 141.5t172 53.5q59 0 114-13.5t82-31.5l-23-137-66 5-4 71q-1 17-12 21-31 11-87 11-27 0-50-5t-46.5-17-37.5-36.5-14-60.5q0-47 31-74t86-27h56l-10-72q-104 0-163-29.5t-59-105.5q0-63 39.5-88t110.5-25q76 0 117 16 15 6 20 12.5t7 21.5l37 257 23 12h124z" glyph-name="ampersand" horiz-adv-x="692" unicode="&#x26;"/><glyph d="M173 447h-90l37 259h90z" glyph-name="quotesingle" horiz-adv-x="203" unicode="&#x27;"/><glyph d="M231-119l-76-39q-93 173-93 362 0 259 227 525l62-42q-103-137-149-245.5t-46-240.5q0-146 75-320z" glyph-name="parenleft" horiz-adv-x="315" unicode="&#x28;"/><glyph d="M43-158l-62 42q103 137 149 245.5t46 240.5q0 146-75 320l76 39q93-173 93-362 0-259-227-525z" glyph-name="parenright" horiz-adv-x="311" unicode="&#x29;"/><glyph d="M172 395l-55 48 48 50 90 65-101 13-59 22 35 71 59-22 80-54-7 102 10 65h75l-10-65-35-102h-33l-14-30 27-20-62-92zM413 441l-63-44-34 49-34 92 26 19-6 31 96 54 64 22 16-71-65-22-105-14 70-66z" glyph-name="asterisk" horiz-adv-x="471" unicode="&#x2a;"/><glyph d="M308 128h-83l22 153h-147l11 81h147l21 150h83l-21-150h147l-11-81h-147z" glyph-name="plus" unicode="&#x2b;"/><glyph d="M58-118l-45 17 45 105q3 8-4 10l-32 14 33 83q51-2 76-12.5t25-40.5q0-26-24-64z" glyph-name="comma" horiz-adv-x="205" unicode="&#x2c;"/><glyph d="M304 247h-271l13 89h271z" glyph-name="hyphen" horiz-adv-x="311" unicode="&#x2d;"/><glyph d="M172 64q0-34-19.5-55t-56.5-21q-58 0-58 49 0 35 19 56t57 21q58 0 58-50z" glyph-name="period" horiz-adv-x="232" unicode="&#x2e;"/><glyph d="M56-92h-87l398 847h86z" glyph-name="slash" horiz-adv-x="387" unicode="&#x2f;"/><glyph d="M526 288q-9-67-26.5-118t-48.5-93.5-82-65.5-120-23q-203 0-203 214 0 42 6 86 40 296 282 296 104 0 150.5-58.5t46.5-154.5q0-48-5-83zM256 58q79 0 121 58t56 169q6 45 6 82 0 144-115 144-80 0-122-57t-58-171q-5-35-5-76 0-149 117-149z" glyph-name="zero" horiz-adv-x="552" unicode="&#x30;"/><glyph d="M300 0h-300l7 51 98 6q9 1 11.5 4.5t4.5 15.5l56 402q2 17-12 21l-89 18 9 51h193l-68-492q-2-12 1-15.5t13-4.5l83-7z" glyph-name="one" horiz-adv-x="347" unicode="&#x31;"/><glyph d="M425 0h-412l9 62 196 174q41 36 55.5 49.5t39 38.5 32.5 38.5 15 33 7 39.5q0 39-24.5 58t-82.5 19q-56 0-81.5-22t-32.5-82l-84 10q5 41 20 72t34.5 48.5 46.5 28 52 14 55 3.5q185 0 185-139 0-22-5-42.5t-10.5-36.5-20-36-23-31.5-30.5-32-31.5-29-37-31.5-36.5-31l-126-107h205q13 0 16 11l28 85h64z" glyph-name="two" horiz-adv-x="490" unicode="&#x32;"/><glyph d="M322 266v-4q108-27 108-138 0-94-62.5-150.5t-174.5-56.5q-68 0-123.5 25.5t-81.5 62.5l59 56q57-68 149-68 62 0 102 30t40 99q0 103-121 103-29 0-69-6l9 69 58 6q72 7 111 43.5t39 93.5q0 81-93 81-62 0-89-21t-34-83l-85 10q15 166 217 166 176 0 176-144 0-62-35.5-107t-99.5-67z" glyph-name="three" horiz-adv-x="487" unicode="&#x33;"/><glyph d="M370-67h-85l20 146h-282l10 66 281 432 66-39-251-385h187l27 197 86 11-29-208h87l-11-74h-88z" glyph-name="four" horiz-adv-x="501" unicode="&#x34;"/><glyph d="M467 491h-269l-42-194q61 40 134 40 76 0 120-45t44-129q0-106-69-176t-185-70q-140 0-210 87l60 58q60-70 150-70 66 0 113.5 40.5t47.5 120.5q0 58-28 84t-71 26q-69 0-132-46l-60 29 65 323h342z" glyph-name="five" horiz-adv-x="495" unicode="&#x35;"/><glyph d="M527 585l-51-58q-49 46-114 46-46 0-83-23t-59.5-60.5-35.5-74.5-18-75q82 63 172 63 75 0 115.5-43.5t40.5-119.5q0-116-63.5-184t-174.5-68q-190 0-190 247 0 62 15 128t46.5 132.5 92.5 109.5 143 43q102 0 164-63zM161 269q-3-48-3-51 0-159 107-159 65 0 100.5 46.5t35.5 124.5q0 102-89 102-78 0-151-63z" glyph-name="six" horiz-adv-x="533" unicode="&#x36;"/><glyph d="M211-67h-96q26 127 81.5 244.5t106 186.5 106.5 127h-239q-13 0-17-11l-29-91-61-4 23 184h437l-9-68q-98-91-188.5-256t-114.5-312z" glyph-name="seven" horiz-adv-x="494" unicode="&#x37;"/><glyph d="M362 329q45-28 69-60.5t24-83.5q0-93-68.5-145t-175.5-52q-84 0-134 37.5t-50 107.5q0 65 38.5 115.5t105.5 96.5q-74 48-74 125 0 83 61.5 130.5t150.5 47.5q82 0 126.5-36.5t44.5-95.5q0-53-34.5-102t-83.5-85zM232 309q-120-80-120-162 0-43 30.5-66.5t84.5-23.5q59 0 97 33t38 83q0 43-32 73t-98 63zM299 362q96 76 96 145 0 72-94 72-49 0-81.5-25t-32.5-69q0-39 29-66.5t83-56.5z" glyph-name="eight" horiz-adv-x="485" unicode="&#x38;"/><glyph d="M27-13l50 60q58-55 126-55 48 0 84.5 22.5t57 61.5 31 73.5 16.5 74.5q-81-62-173-62-75 0-115.5 44t-40.5 118q0 118 63 189t175 71q189 0 189-248 0-39-5-80t-16-90.5-32.5-92-52-78.5-77.5-57-105-21q-48 0-96 18t-79 52zM396 297q2 30 2 59 0 157-106 157-63 0-99.5-47.5t-36.5-126.5q0-106 88-106 76 0 152 64z" glyph-name="nine" horiz-adv-x="526" unicode="&#x39;"/><glyph d="M228 454q0-34-19.5-55t-56.5-21q-58 0-58 49 0 35 19 56t57 21q58 0 58-50zM172 64q0-34-19.5-55t-56.5-21q-58 0-58 49 0 35 19 56t57 21q58 0 58-50z" glyph-name="colon" horiz-adv-x="232" unicode="&#x3a;"/><glyph d="M58-118l-45 17 45 105q3 8-4 10l-32 14 33 83q51-2 76-12.5t25-40.5q0-26-24-64zM219 454q0-34-19.5-55t-56.5-21q-58 0-58 49 0 35 19 56t57 21q58 0 58-50z" glyph-name="semicolon" horiz-adv-x="205" unicode="&#x3b;"/><glyph d="M467 94l-357 145 14 100 393 154 16-78-333-125 302-121z" glyph-name="less" unicode="&#x3c;"/><glyph d="M468 159h-374l11 83h374zM490 321h-374l12 83h374z" glyph-name="equal" unicode="&#x3d;"/><glyph d="M481 239l-398-145-10 80 336 120-298 126 34 73 350-154z" glyph-name="greater" unicode="&#x3e;"/><glyph d="M240 186h-91l25 177q235 23 235 191 0 95-113 95-50 0-80-7-17-4-21-20l-21-67-72-4 19 137q97 36 185 36 200 0 200-170 0-107-67-169t-183-82zM243 62q0-74-76-74-58 0-58 52 0 74 76 74 58 0 58-52z" glyph-name="question" horiz-adv-x="477" unicode="&#x3f;"/><glyph d="M556-81l11-62q-79-35-204-35-148 0-231.5 74.5t-83.5 221.5q0 194 131 322t318 128q137 0 217.5-69.5t80.5-193.5q0-55-12.5-107.5t-38.5-101-74-78.5-111-30q-91 0-93 74-88-74-145-74-91 0-91 104 0 69 30 137.5t90.5 118 135.5 49.5q71 0 129-32l-36-121q-32-102-39-138-2-14-2-19 0-38 44-38 56 0 96.5 73t40.5 167q0 213-237 213-156 0-256-111t-100-270q0-112 65-172.5t190-60.5q87 0 175 31zM472 129l57 192q-22 17-59 17-57 0-109.5-67.5t-52.5-154.5q0-29 7.5-43.5t31.5-14.5q26 0 61.5 21.5t63.5 49.5z" glyph-name="at" horiz-adv-x="829" unicode="&#x40;"/><glyph d="M669 0h-241l7 47 85 9-31 165h-274l-75-165 77-9-8-47h-223l7 47 43 11q20 5 29 23l302 643h113l132-649q3-13 21-17l43-11zM477 294l-68 349-162-349h230z" glyph-name="A" horiz-adv-x="699" unicode="&#x41;"/><glyph d="M324 0h-289l7 48 62 7q11 2 14.5 5.5t4.5 14.5l79 572q2 11-.5 15t-12.5 5l-61 8 7 49h292q192 0 192-153 0-80-42-127t-104-65l-1-4q70-7 107-47.5t37-104.5q0-223-292-223zM212 73h111q98 0 149 30.5t51 118.5q0 58-39 85.5t-105 27.5h-132zM258 405h86q183 0 183 152 0 53-32.5 73.5t-102.5 20.5h-101z" glyph-name="B" horiz-adv-x="646" unicode="&#x42;"/><glyph d="M616 192l-21-151q-85-53-243-53-147 0-218 83.5t-71 227.5q0 196 107 317t302 121q136 0 210-54l-22-160-66 4-4 96q0 15-11 19-52 20-117 20-135 0-219-94t-84-261q0-120 53-182.5t157-62.5q91 0 141 22 10 4 14 17l29 91h63z" glyph-name="C" horiz-adv-x="662" unicode="&#x43;"/><glyph d="M314 0h-279l8 50 62 7q9 1 12.5 4.5t4.5 13.5l80 573q2 11-.5 15t-12.5 5l-61 7 7 49h293q156 0 232.5-78t76.5-217q0-195-106.5-312t-316.5-117zM213 71h107q155 0 239 95t84 260q0 122-61.5 174.5t-179.5 52.5h-109z" glyph-name="D" horiz-adv-x="752" unicode="&#x44;"/><glyph d="M549 0h-513l6 49 63 7q10 1 13 5t5 15l79 571q2 12-.5 15.5t-12.5 4.5l-60 7 6 50h492l-23-165-62 4-3 77q-1 13-16 13h-230l-34-252h261l-10-72h-262l-35-258h252q14 0 17 11l28 87h62z" glyph-name="E" horiz-adv-x="616" unicode="&#x45;"/><glyph d="M364 0h-327l6 49 62 7q11 2 14.5 5.5t4.5 14.5l78 571q2 12-.5 15.5t-12.5 4.5l-60 7 7 50h488l-23-165-63 4-3 77q-1 13-15 13h-227l-34-249h258l-10-72h-258l-35-255q-2-12 .5-15.5t12.5-4.5l143-8z" glyph-name="F" horiz-adv-x="591" unicode="&#x46;"/><glyph d="M711 282l-41-4q-17-1-18-14l-32-235q-89-41-242-41-163 0-239.5 85t-76.5 228q0 192 107 314t302 122q63 0 120.5-14.5t90.5-39.5l-21-159-66 5-4 92q0 15-11 19-57 22-124 22-134 0-216.5-95t-82.5-257q0-122 59-184.5t172-62.5q80 0 137 16 13 4 15 17l24 176h-133l20 65h268z" glyph-name="G" horiz-adv-x="715" unicode="&#x47;"/><glyph d="M712 0h-249l8 49 62 7q10 1 13 5t5 15l36 261h-336l-38-260q-2-12 .5-15.5t12.5-4.5l65-8-7-49h-249l7 49 63 7q10 1 13 5t5 15l80 572q2 12-.5 15.5t-12.5 4.5l-60 7 6 49h249l-7-49-67-8q-11-2-14-5t-4-14l-32-239h336l34 239q2 12-.5 15.5t-11.5 4.5l-61 7 5 49h249l-6-49-66-8q-11-1-14.5-4.5t-4.5-14.5l-79-571q-2-12 0-15.5t12-4.5l65-8z" glyph-name="H" horiz-adv-x="792" unicode="&#x48;"/><glyph d="M295 0h-268l5 49 73 7q10 1 13 4.5t5 15.5l80 572q2 12-.5 15.5t-12.5 4.5l-70 7 6 49h268l-6-49-76-8q-11-1-13.5-4t-4.5-15l-81-571q-2-12 0-15.5t13-4.5l74-8z" glyph-name="I" horiz-adv-x="364" unicode="&#x49;"/><glyph d="M273 153l69 496q2 11-.5 14.5t-12.5 4.5l-83 7 7 49h271l-7-49-67-8q-7-1-10-2.5t-4.5-4.5-2.5-11l-71-502q-11-83-53.5-121t-129.5-38q-51 0-95 11.5t-61 23.5l18 138 64-4v-72q0-9 9-14 25-11 70-11 44 0 63 22t26 71z" glyph-name="J" horiz-adv-x="484" unicode="&#x4a;"/><glyph d="M674 0h-144l-4 4-54 99-142 239-91-88-26-177q-2-12 .5-15.5t12.5-4.5l67-8-7-49h-248l6 49 61 7q7 1 10 2.5t5 5.5 3 13l80 571q2 12-.5 15.5t-12.5 4.5l-60 7 7 49h248l-6-49-68-8q-10-1-13-4.5t-5-14.5l-41-289 314 307-57 8 7 50h220l-7-49-50-9q-19-3-32-17l-245-239 195-334q8-13 26-17l58-10z" glyph-name="K" horiz-adv-x="716" unicode="&#x4b;"/><glyph d="M550 0h-513l6 49 62 7q10 1 13 5t5 15l80 571q2 12-.5 15.5t-12.5 4.5l-60 7 6 50h265l-7-50-83-8q-10-1-13-4.5t-5-14.5l-81-576h253q14 0 17 11l29 90h62z" glyph-name="L" horiz-adv-x="600" unicode="&#x4c;"/><glyph d="M844 0h-266l5 49 85 7q9 1 12 5t5 15l69 498-250-404h-89l-141 406-70-499q-2-13 0-16t12-4l86-8-6-49h-259l5 49 63 7q11 2 14.5 5.5t4.5 15.5l79 570q2 12-.5 15.5t-12.5 4.5l-60 7 6 50h179l158-469 282 469h189l-7-49-66-8q-11-1-14-5t-5-18l-80-568q-1-10 1.5-13.5t12.5-5.5l65-8z" glyph-name="M" horiz-adv-x="923" unicode="&#x4d;"/><glyph d="M656 0h-105l-274 611-75-534q-2-12 .5-15.5t12.5-4.5l65-8-5-49h-238l5 49 63 7q10 1 13 5t5 15l80 571q2 12-.5 15.5t-12.5 4.5l-60 7 6 50h191l268-608 73 532q2 11-.5 15t-12.5 5l-61 7 6 49h238l-7-49-67-8q-11-1-13.5-4t-4.5-15z" glyph-name="N" horiz-adv-x="815" unicode="&#x4e;"/><glyph d="M348-12q-144 0-215.5 80.5t-71.5 217.5q0 201 103.5 326t292.5 125q141 0 211-81.5t70-216.5q0-209-104.5-330t-285.5-121zM360 65q123 0 202 93t81 268q0 49-11 91-37 143-186 143-125 0-205.5-93t-83.5-264q0-50 11-92 35-146 192-146z" glyph-name="O" horiz-adv-x="752" unicode="&#x4f;"/><glyph d="M358 0h-323l7 49 63 7q11 2 14.5 5.5t4.5 14.5l79 572q2 11-1 15t-13 5l-60 7 6 49h298q112 0 163-49.5t51-133.5q0-137-79-202.5t-224-65.5h-105l-27-196q-1-12 1-15.5t12-4.5l139-8zM249 345h93q47 0 81.5 7.5t65.5 26.5 47.5 58 16.5 96q0 63-38 91.5t-115 28.5h-108z" glyph-name="P" horiz-adv-x="639" unicode="&#x50;"/><glyph d="M658-66l-4-74q-31-4-64-4-60 0-112.5 15t-81.5 33-60 33-53 15q-43 0-105-34l-32 57q36 25 78 35v3q-82 32-122.5 103.5t-40.5 169.5q0 201 103.5 326t292.5 125q141 0 211-81.5t70-215.5q0-202-95-318.5t-268-121.5v-3q126-68 219-68 26 0 64 5zM356 65q123 0 204 92t83 262q0 56-11 98-37 143-186 143-125 0-205.5-93t-83.5-264q0-50 11-92 35-146 188-146z" glyph-name="Q" horiz-adv-x="752" unicode="&#x51;"/><glyph d="M634 0h-148l-6 7-69 260q-5 22-18 32t-38 10h-109l-34-232q-2-12 .5-15.5t12.5-4.5l66-8-7-49h-247l6 49 62 7q11 1 13.5 4.5t4.5 16.5l80 570q2 12-.5 15.5t-12.5 4.5l-60 7 6 50h295q108 0 155-48t47-126q0-159-166-217 19-10 28.5-31t22.5-74l37-150q4-16 26-19l60-10zM256 381h88q87 0 140.5 39t53.5 121q0 63-40 86.5t-129 23.5h-76z" glyph-name="R" horiz-adv-x="660" unicode="&#x52;"/><glyph d="M547 532l-66 6-3 86q-2 37-93 37-73 0-123-32.5t-50-96.5q0-26 9.5-45.5t30.5-34 39.5-23 50.5-20.5q36-13 52.5-20t46-24 43.5-34 26-46.5 12-65.5q0-118-79-174.5t-206-56.5q-62 0-122 12.5t-85 25.5l22 164h66l6-90q3-38 124-38 85 0 132 36t47 107q0 29-10.5 50t-33.5 36-41.5 23.5-52.5 20.5-51 18.5-44.5 22.5-41 33-24.5 45.5-11 63.5q0 107 78 163t195 56q95 0 181-35z" glyph-name="S" horiz-adv-x="567" unicode="&#x53;"/><glyph d="M464 0h-330l7 51 100 7q10 1 13 5t5 15l80 575h-154q-14 0-17-11l-27-87h-63l23 169h588l-23-169h-63l-4 87q-1 7-3.5 9t-10.5 2h-155l-81-575q-2-11 0-14.5t13-4.5l109-8z" glyph-name="T" horiz-adv-x="636" unicode="&#x54;"/><glyph d="M568 252l54 396q1 12-1 15.5t-12 4.5l-61 7 7 49h243l-7-49-67-8q-11-1-13.5-4t-4.5-15l-56-408q-18-131-88.5-191.5t-200.5-60.5q-118 0-173.5 49t-55.5 148q0 31 4 59l54 404q2 12-.5 15.5t-11.5 4.5l-61 7 7 49h249l-7-49-67-8q-11-1-13.5-4t-4.5-15l-55-394q-4-28-4-58 0-70 37-100.5t112-30.5q89 0 136 42.5t61 144.5z" glyph-name="U" horiz-adv-x="770" unicode="&#x55;"/><glyph d="M382 0h-121l-124 647q-2 12-21 17l-43 11 8 49h238l-7-49-82-9 104-584 258 584-77 9 8 49h224l-8-49-42-11q-22-6-31-27z" glyph-name="V" horiz-adv-x="677" unicode="&#x56;"/><glyph d="M704 0h-118l-65 457-193-457h-111l-74 644q-1 11-4.5 15t-13.5 6l-56 10 9 49h252l-7-49-88-10 57-563 199 476h100l67-486 212 573-85 10 7 49h240l-8-49-52-9q-17-3-26-25z" glyph-name="W" horiz-adv-x="958" unicode="&#x57;"/><glyph d="M640 0h-241l8 49 75 9-131 248-193-248 70-9-7-49h-225l5 47 52 11q16 4 28 19l228 293-146 277q-6 13-21 17l-42 11 8 49h229l-7-49-74-9 118-236 185 236-70 9 9 49h214l-7-49-44-11q-17-4-28-19l-218-274 161-294q8-14 22-18l49-10z" glyph-name="X" horiz-adv-x="685" unicode="&#x58;"/><glyph d="M445 0h-312l6 49 95 7q9 1 12 5t5 16l28 203-146 367q-6 11-21 17l-43 11 8 49h229l-8-49-74-9 113-303 194 303-72 9 8 49h214l-7-49-42-11q-20-6-28-20l-234-361-28-206q-2-13 0-16t13-4l96-8z" glyph-name="Y" horiz-adv-x="607" unicode="&#x59;"/><glyph d="M560 0h-535l8 61 485 592h-293q-14 0-17-11l-31-93-66-3 25 178h505l-8-63-484-590h321q14 0 18 11l33 107h64z" glyph-name="Z" horiz-adv-x="631" unicode="&#x5a;"/><glyph d="M209-143h-167l122 867h167l-6-48-67-9q-11-1-14-4.5t-5-14.5l-100-713q-2-11 0-15t13-5l65-9z" glyph-name="bracketleft" horiz-adv-x="270" unicode="&#x5b;"/><glyph d="M342-92h-83l-161 847h82z" glyph-name="backslash" horiz-adv-x="377" unicode="&#x5c;"/><glyph d="M137-143h-168l6 48 67 9q11 1 14 4.5t5 14.5l100 713q2 11 0 15t-13 5l-65 9 8 49h168z" glyph-name="bracketright" horiz-adv-x="262" unicode="&#x5d;"/><glyph d="M533 299h-86l-119 285-194-285h-90l248 365h93z" glyph-name="asciicircum" horiz-adv-x="550" unicode="&#x5e;"/><glyph d="M456-181h-499l9 68h499z" glyph-name="underscore" horiz-adv-x="500" unicode="&#x5f;"/><glyph d="M443 604l-45-37-156 141 69 60z" glyph-name="grave" horiz-adv-x="500" unicode="&#x60;"/><glyph d="M522 0h-146l12 90-3 1q-50-50-94.5-76.5t-96.5-26.5q-150 0-150 191 0 62 13.5 119.5t41.5 110 78.5 84 117.5 31.5q78 0 142-56l16 46h84q-20-79-26-123l-44-315q-2-12 .5-15.5t13.5-4.5l49-7zM394 181l30 215q-22 22-56 38t-70 16q-44 0-77.5-26t-51-67.5-26-84-8.5-85.5q0-121 86-121 67 0 173 115z" glyph-name="a" horiz-adv-x="580" unicode="&#x61;"/><glyph d="M144 0h-88q22 82 31 143l75 528q3 17-10 21l-54 15 7 48h156l-47-334q114 103 198 103 65 0 102.5-47t37.5-146q0-58-13-114.5t-39.5-109-76-85-114.5-32.5q-86 0-150 64l-3-1zM203 333l-30-206q58-66 125-66 56 0 94 43t52.5 98 14.5 115q0 126-77 126-66 0-179-110z" glyph-name="b" horiz-adv-x="580" unicode="&#x62;"/><glyph d="M409 96l22-64q-31-19-82-31.5t-99-12.5q-105 0-155.5 55.5t-50.5 153.5q0 164 83.5 245.5t212.5 81.5q85 0 144-31l-19-133-63 3-3 66q0 11-12 15-22 8-62 8-78 0-133-60t-55-184q0-148 126-148 80 0 146 36z" glyph-name="c" horiz-adv-x="488" unicode="&#x63;"/><glyph d="M523 0h-147l12 89-3 2q-50-49-93.5-76t-95.5-27q-73 0-112.5 47.5t-39.5 142.5q0 59 13 116.5t40 110.5 78 86 118 33q79 0 143-52l27 201q1 16-10 20l-54 14 7 48h156l-95-679q-2-12 .5-15.5t13.5-4.5l49-7zM395 182l30 214q-21 22-56 38t-70 16q-45 0-78.5-26t-51.5-68-26-85.5-8-87.5q0-117 85-117 68 0 175 116z" glyph-name="d" horiz-adv-x="584" unicode="&#x64;"/><glyph d="M403 98l17-68q-82-42-180-42-196 0-196 206 0 138 79 234t201 96q73 0 107-33t34-87q0-164-329-200 0-72 26.5-107.5t97.5-35.5q63 0 143 37zM142 272q237 29 237 127 0 52-66 52-64 0-109.5-51t-61.5-128z" glyph-name="e" horiz-adv-x="482" unicode="&#x65;"/><glyph d="M135-212h-89l92 647q2 10-7 10h-70l10 69h78l13 91q23 161 174 161 47 0 87-15t61-33l-38-61q-56 37-105 37-43 0-64-24t-28-75l-10-71q-1-10 7-10h161l-10-69h-168z" glyph-name="f" horiz-adv-x="387" unicode="&#x66;"/><glyph d="M369-28l18 122q-48-48-93.5-76t-97.5-28q-152 0-152 189 0 60 13 117t40 110 78 85.5 118 32.5q81 0 145-56l16 46h84q-22-88-28-131l-56-417q-13-95-70.5-142t-148.5-47q-62 0-114.5 13.5t-80.5 30.5l33 65q19-12 62-25.5t90-13.5q126 0 144 125zM395 182l30 213q-21 23-56 39t-71 16q-45 0-78.5-26t-51-68-25.5-85-8-86q0-117 85-117 70 0 175 114z" glyph-name="g" unicode="&#x67;"/><glyph d="M565 0h-163l-2 3 18 99 31 222q5 30 5 59 0 63-47 63-64 0-195-115l-35-254q-2-12 .5-15.5t13.5-4.5l62-8-7-49h-233l7 50 49 7q11 2 14.5 5t4.5 15l83 594q3 18-9 21l-54 15 7 48h155l-48-338q41 34 65.5 52.5t65.5 36.5 78 18q113 0 115-117 0-29-5-62l-38-268q-2-12 .5-15.5t13.5-4.5l55-8z" glyph-name="h" horiz-adv-x="618" unicode="&#x68;"/><glyph d="M192 625q-26 0-41 14t-15 39q0 33 20 53.5t54 20.5q27 0 41.5-14t14.5-39q0-32-20-53t-54-21zM242 0h-169l-2 4 21 115 45 312q3 17-11 21l-53 14 7 48h157l-61-437q-2-12 .5-15.5t13.5-4.5l59-8z" glyph-name="i" horiz-adv-x="295" unicode="&#x69;"/><glyph d="M68-47l67 477q3 17-9 21l-57 15 7 48h160l-80-579q-12-83-50.5-120.5t-111.5-37.5q-42 0-79 14.5t-52 29.5l37 57q41-29 85-29 40 0 57.5 24t25.5 80zM193 625q-27 0-42 14t-15 39q0 33 20.5 53.5t54.5 20.5q26 0 41-14t15-39q0-32-20.5-53t-53.5-21z" glyph-name="j" horiz-adv-x="286" unicode="&#x6a;"/><glyph d="M541 0h-142l-3 3-35 100-70 169-100-95-14-100q-2-12 0-15.5t13-4.5l63-8-7-49h-233l7 50 50 7q10 2 13.5 5.5t4.5 14.5l83 595q3 16-10 20l-53 15 6 48h158l-67-476 204 195q29 27 54 38.5t59 11.5q23 0 44-4l-8-60q-31 1-54-8t-53-38l-86-83 102-257q4-8 8.5-11t18.5-5l54-9z" glyph-name="k" horiz-adv-x="581" unicode="&#x6b;"/><glyph d="M238 0h-169l-2 4 21 115 78 553q3 17-10 21l-53 14 7 48h158l-96-678q-2-12 .5-15.5t13.5-4.5l59-8z" glyph-name="l" horiz-adv-x="294" unicode="&#x6c;"/><glyph d="M843 0h-161l-2 2 21 132 26 190q7 49 7 72 0 24-9.5 35t-31.5 11q-34 0-74.5-27.5t-100.5-83.5l-36-254q-2-12 .5-15.5t13.5-4.5l56-8-8-49h-162l-1 2 20 128 27 194q8 62 8 71 0 48-39 48-20 0-39.5-7t-47.5-27.5-42-32-54-45.5l-35-254q-2-12 .5-15.5t13.5-4.5l62-8-7-49h-233l7 50 48 7q11 2 14.5 5.5t4.5 14.5l48 352q3 17-9 21l-53 16 7 48h151l-14-99q74 62 113.5 85t89.5 23q107 0 100-110 37 34 60.5 52.5t63 38.5 73.5 20q57 0 81-26.5t25-78.5q0-27-7-72l-37-270q-2-12 .5-15.5t13.5-4.5l55-8z" glyph-name="m" horiz-adv-x="895" unicode="&#x6d;"/><glyph d="M567 0h-161l-2 2 19 121 28 201q6 44 6 62 0 59-51 59-40 0-83-27.5t-109-86.5l-35-254q-2-12 .5-15.5t13.5-4.5l62-8-7-49h-233l7 50 48 7q11 2 14.5 5.5t4.5 14.5l48 352q3 18-9 21l-53 16 7 48h151l-14-99q41 35 66 53.5t66.5 37 78.5 18.5q116 0 118-120 0-27-5-59l-38-268q-2-12 .5-15.5t12.5-4.5l56-8z" glyph-name="n" horiz-adv-x="619" unicode="&#x6e;"/><glyph d="M253-12q-105 0-156.5 55.5t-51.5 153.5q0 146 74.5 236.5t209.5 90.5q106 0 154.5-57t48.5-152q0-152-73-239.5t-206-87.5zM261 57q81 0 129.5 66t48.5 193q0 135-120 135-83 0-132.5-63.5t-49.5-186.5q0-144 124-144z" glyph-name="o" horiz-adv-x="559" unicode="&#x6f;"/><glyph d="M240-212h-198l-4 4 29 169 64 468q3 18-9 21l-53 16 6 48h154l-14-93q115 103 203 103 63 0 100.5-48t37.5-148q0-61-14.5-119.5t-42-108.5-75.5-81-108-31q-88 0-149 61l-24-181q-2-12 0-15t12-4l92-8zM207 333l-29-206q58-66 127-66 54 0 92 43.5t52.5 99 14.5 115.5q0 124-75 124-67 0-182-110z" glyph-name="p" horiz-adv-x="585" unicode="&#x70;"/><glyph d="M495-212h-240l7 53 75 7q10 1 13.5 5t5.5 15l32 224q-107-103-191-103-152 0-152 190 0 164 75 260 65 84 180 84 75 0 138-55l16 46h84q-20-79-27-131l-71-515q-2-12 .5-15.5t12.5-4.5l49-6zM395 182l30 213q-21 23-55.5 39t-70.5 16-65.5-18-47.5-45.5-30-63.5-16.5-70-4.5-68q0-119 83-119 72 0 177 116z" glyph-name="q" horiz-adv-x="571" unicode="&#x71;"/><glyph d="M275 0h-260l7 50 50 6q9 1 12 5t5 15l49 353q3 18-9 21l-54 16 7 48h148l-13-101q33 44 77.5 77.5t90.5 33.5q33 0 64-9l-20-151-70 3-2 68q0 6-1.5 8t-8.5 2q-40 0-132-107l-36-262q-2-12 .5-15.5t13.5-4.5l89-7z" glyph-name="r" horiz-adv-x="437" unicode="&#x72;"/><glyph d="M418 368l-63 4-3 62q-1 14-14 19-21 7-66 7-47 0-77.5-19.5t-30.5-57.5q0-32 23.5-50.5t72.5-35.5q32-11 50.5-19.5t43-25.5 36.5-42 12-59q0-77-56-120t-145-43q-62 0-112.5 11t-67.5 22l19 127 62-4 3-65q0-11 10-15 32-14 91-14 50 0 80 22.5t30 63.5q0 37-23.5 55.5t-78.5 36.5q-30 10-49.5 18.5t-41.5 24.5-33 40-11 56q0 78 56 117.5t148 39.5q93 0 153-27z" glyph-name="s" horiz-adv-x="451" unicode="&#x73;"/><glyph d="M338 82l15-63q-67-31-140-31-122 0-122 103 0 10 2 32l43 312q2 10-6 10h-72l9 59q55 8 83.5 38t46.5 104h59l-18-122q-1-10 7-10h143l-9-69h-152l-40-295q-3-21-3-36 0-28 13.5-40.5t47.5-12.5q40 0 93 21z" glyph-name="t" horiz-adv-x="400" unicode="&#x74;"/><glyph d="M558 0h-153l15 99q-37-32-62.5-51t-66-39-73.5-20q-64 0-95 28t-31 93q0 21 4 57l39 270q2 12-.5 15.5t-13.5 4.5l-52 8 8 49h154l3-4-45-321q-5-30-5-61t11.5-44 41.5-13q29 0 63 17.5t59 37 67 56.5l34 255q2 12-.5 15.5t-13.5 4.5l-58 8 7 49h163l3-4-61-434q-3-17 9-19l55-9z" glyph-name="u" horiz-adv-x="617" unicode="&#x75;"/><glyph d="M297 0h-106l-95 439q-3 13-18 17l-41 9 7 49h135l5-6 16-102 61-319 182 368-64 11 6 48h161l7-14z" glyph-name="v" horiz-adv-x="544" unicode="&#x76;"/><glyph d="M595 0h-106l-54 400-164-400h-108l-68 439q-1 14-15 17l-43 9 8 49h132l5-6 8-85 43-331 171 419h100l56-425 161 371-61 8 8 49h146l6-12z" glyph-name="w" horiz-adv-x="812" unicode="&#x77;"/><glyph d="M520 0h-133l-7 7-38 74-68 126-125-149 62-9-5-49h-215l6 48 53 11q12 2 25 16l161 189-96 177q-8 14-20 17l-39 6 7 50h115l6-5 39-82 55-104 119 134-56 8 8 49h196l-7-49-42-10q-14-3-27-19l-153-169 104-190q8-15 23-18l60-10z" glyph-name="x" horiz-adv-x="560" unicode="&#x78;"/><glyph d="M161-56l38 71-108 425q-3 13-17 17l-41 9 9 48h130l5-6 23-126 60-259 166 333-62 10 6 48h159l7-14-296-577q-41-79-80.5-112.5t-106.5-33.5q-41 0-77.5 14.5t-51.5 29.5l37 57q42-29 90-29 38 0 60.5 22.5t49.5 72.5z" glyph-name="y" horiz-adv-x="528" unicode="&#x79;"/><glyph d="M429 0h-409l7 54 344 393h-194q-9 0-13-13l-20-63-64-3 19 146h394l-8-56-341-391h207q7 0 13 13l22 74 65 3z" glyph-name="z" horiz-adv-x="498" unicode="&#x7a;"/><glyph d="M228-89l-18-58q-80 6-115.5 28t-35.5 72q0 34 25 134 18 72 18 106 0 37-19 50.5t-55 15.5l9 59q67 4 87 50 21 48 21 202 0 85 35 117t143 40l5-58q-66-8-80.5-30t-14.5-90q0-83-6-135-6-50-27-77.5t-60-48.5q54-22 54-87 0-38-20-120-23-89-23-115 0-25 16.5-35t60.5-20z" glyph-name="braceleft" horiz-adv-x="287" unicode="&#x7b;"/><glyph d="M141-143h-82l127 899h82z" glyph-name="bar" horiz-adv-x="281" unicode="&#x7c;"/><glyph d="M92 669l18 58q80-6 115.5-28t35.5-72q0-34-25-134-18-72-18-106 0-37 19-50.5t55-15.5l-9-59q-67-4-87-50-21-48-21-202 0-85-35-117t-143-40l-5 58q66 8 80.5 30t14.5 90q0 83 6 135 6 50 27 77.5t60 48.5q-54 22-54 87 0 38 20 120 23 89 23 115 0 25-16.5 35t-60.5 20z" glyph-name="braceright" horiz-adv-x="298" unicode="&#x7d;"/><glyph d="M452 425l51-18q-19-56-44.5-84t-69.5-28q-38 0-114.5 23t-104.5 23q-23 0-40-12t-39-41l-47 23q27 51 57.5 78.5t72.5 27.5q40 0 112-23t103-23q23 0 35.5 12t27.5 42z" glyph-name="asciitilde" horiz-adv-x="482" unicode="&#x7e;"/><glyph d="M136 325h76l-39-371-23-166h-101l23 166zM126 450q0 74 76 74 58 0 58-52 0-74-76-74-58 0-58 52z" glyph-name="exclamdown" horiz-adv-x="262" unicode="&#xa1;"/><glyph d="M270-67h-74l14 103q-155 27-155 203 0 127 60.5 200.5t164.5 87.5l15 104h72l-14-101q78-4 131-29l-19-131-60 3-3 65q0 12-11 15-22 6-48 7l-49-357q28 1 51 9 13 5 16 14l21 65 62 3-18-131q-59-27-142-31zM151 246q0-109 70-135l48 342q-118-35-118-207z" glyph-name="cent" horiz-adv-x="490" unicode="&#xa2;"/><glyph d="M478 0h-439l-5 59q56 40 74.5 81t29.5 125l4 32h-79l9 71h79l8 63q13 105 63.5 161t159.5 56q54 0 97.5-16t64.5-36l-44-59q-49 39-115 39-63 0-94-32t-40-98l-11-78h178l-10-71h-177q-13-97-29.5-141t-65.5-88h256q13 0 17 11l26 85h65z" glyph-name="sterling" horiz-adv-x="541" unicode="&#xa3;"/><glyph d="M566 66l-62-59-90 88q-52-36-130-36-80 0-134 38l-90-90-57 59 93 93q-30 57-30 124 0 58 32 117l-92 91 61 61 88-87q55 41 135 41t135-39l84 84 58-59-88-88q29-53 29-117 0-73-35-129zM289 136q60 0 93.5 41.5t33.5 105.5q0 68-33 106t-97 38q-61 0-94-39.5t-33-104.5q0-66 32-106.5t98-40.5z" glyph-name="currency" unicode="&#xa4;"/><glyph d="M435 175h-130l-13-94q-2-12 0-15.5t13-4.5l96-8-7-53h-312l7 53 94 7q7 0 10.5 2.5t4.5 5 2 9.5l14 98h-129l9 62h129l8 57h-130l8 62h95l-102 196q-7 13-21 17l-42 11 7 49h225l-7-49-74-9 99-197 153 197-60 9 6 49h201l-7-49-42-10q-11-2-23-18l-157-196h98l-7-62h-130l-8-57h130z" glyph-name="yen" horiz-adv-x="522" unicode="&#xa5;"/><glyph d="M141-143h-82l55 388h82zM219 408h-82l48 348h82z" glyph-name="brokenbar" horiz-adv-x="281" unicode="&#xa6;"/><glyph d="M115 15l2-63q0-11 9-15 35-15 92-15 54 0 83 22t29 63q0 16-7.5 29t-15 20.5-27.5 16-29 11-36 10.5q-26 7-41.5 12.5t-36.5 16.5-33 23.5-20.5 33-8.5 46.5q0 32 15.5 62t33.5 47.5 47 41.5q-41 34-41 93 0 78 61.5 118t151.5 40q92 0 157-28l-18-129-65 4-3 62q0 12-13 17-22 8-72 8-57 0-84.5-22.5t-27.5-56.5q0-24 16-41t35.5-25 53.5-18q32-10 44.5-13.5t39-16 37.5-25 21.5-34.5 10.5-50q0-45-27-83t-68-64q39-39 39-96 0-80-60.5-119.5t-151.5-39.5q-52 0-106 13t-69 23l17 125zM242 170l78-25q69 45 69 100 0 30-21.5 47t-74.5 32l-67 19q-27-18-47-44.5t-20-51.5q0-31 21-47.5t62-29.5z" glyph-name="section" horiz-adv-x="548" unicode="&#xa7;"/><glyph d="M297 668q0-28-17.5-45.5t-46.5-17.5q-23 0-36 12.5t-13 33.5q0 27 17.5 45t46.5 18q23 0 36-12.5t13-33.5zM499 668q0-28-17.5-45.5t-46.5-17.5q-23 0-36 12.5t-13 33.5q0 27 17.5 45t46.5 18q23 0 36-12.5t13-33.5z" glyph-name="dieresis" horiz-adv-x="500" unicode="&#xa8;"/><glyph d="M722 319q0-149-92-240.5t-240-91.5q-159 0-245 88.5t-86 229.5q0 152 95 241.5t238 89.5q153 0 241.5-86t88.5-231zM392 38q127 0 200 73.5t73 201.5q0 129-75 200.5t-198 71.5q-121 0-197.5-74.5t-76.5-204.5q0-125 73-196.5t201-71.5zM516 244v-100q-40-24-114-24-97 0-142.5 52.5t-45.5 142.5q0 88 49.5 141t141.5 53q59 0 112-20v-105l-43 2-9 49q-2 8-8 12-28 11-60 11-51 0-82.5-35t-31.5-110q0-64 29.5-103.5t91.5-39.5q32 0 50 8 6 2 10 15l14 51h38z" glyph-name="copyright" horiz-adv-x="762" unicode="&#xa9;"/><glyph d="M398 281h-108l7 56-2 1q-67-65-125-65-101 0-101 125 0 54 15 102t54.5 84 97.5 36q54 0 94-36l12 30h67q-15-67-17-81l-29-197q-1-7 0-9t9-3l32-5zM300 401l20 131q-32 30-75 30-36 0-59.5-28t-32-61.5-8.5-67.5q0-70 51-70 40 0 104 66z" glyph-name="ordfeminine" horiz-adv-x="403" unicode="&#xaa;"/><glyph d="M368 103h-82l-65 156 110 149h83l-96-139q-8-10-4-19zM210 103h-82l-65 156 110 149h83l-96-139q-8-10-4-19z" glyph-name="guillemotleft" horiz-adv-x="436" unicode="&#xab;"/><glyph d="M468 191h-81l14 94h-296l11 81h377z" glyph-name="logicalnot" unicode="&#xac;"/><glyph d="M456 480q0-82-51.5-133t-133.5-51q-88 0-135.5 49.5t-47.5 127.5q0 84 52.5 134.5t131.5 50.5q85 0 134.5-48.5t49.5-129.5zM415 477q0 68-39.5 105t-103.5 37q-61 0-101.5-39t-40.5-106q0-65 38-102t104-37 104.5 38 38.5 104zM368 384h-80v21l18 2-24 42q-6 10-17 10h-15v-46q0-5 6-6l15-2v-21h-80v21l14 2q6 1 6 7v131q0 6-7 7l-13 2v21h87q66 0 66-54 0-39-37-52 8-2 17-19l19-36q2-5 8-6l17-3v-21zM250 489h13q41 0 41 30 0 26-35 26h-19v-56z" glyph-name="registered" horiz-adv-x="449" unicode="&#xae;"/><glyph d="M489 611h-307l10 69h307z" glyph-name="macron" horiz-adv-x="500" unicode="&#xaf;"/><glyph d="M201 612q27 0 43 18t16 47q0 44-44 44-26 0-42-17.5t-16-47.5q0-44 43-44zM314 683q0-54-33.5-87t-86.5-33q-43 0-67.5 23.5t-24.5 63.5q0 57 35 88.5t86 31.5q41 0 66-23t25-64z" glyph-name="degree" horiz-adv-x="287" unicode="&#xb0;"/><glyph d="M438 0h-377l11 80h377zM477 281h-147l-21-149h-83l21 149h-147l11 81h147l21 150h84l-22-150h147z" glyph-name="plusminus" unicode="&#xb1;"/><glyph d="M347 350h-308l7 51 148 151q6 6 19 19.5t18 18.5 15 16 14 16.5 11.5 14.5 10 15 6.5 13.5 5 15 1 14.5q0 45-55 45-38 0-56-13.5t-24-49.5l-78 8q6 36 21.5 59.5t40 35 49 16 57.5 4.5q130 0 130-98 0-28-17-59.5t-33-50-51-53.5l-131-134h130q8 0 11 8l16 51h60z" glyph-name="twosuperior" horiz-adv-x="347" unicode="&#xb2;"/><glyph d="M290 586l-1-3q34-8 53-31.5t19-60.5q0-67-48-108t-127-41q-100 0-150 60l51 50q40-45 102-45 37 0 62 20.5t25 61.5q0 62-69 62-22 0-49-4l8 58 38 4q93 9 93 83 0 47-54 47-33 0-49-12.5t-21-49.5l-80 8q9 67 52 91t107 24q129 0 129-97 0-44-25.5-74t-65.5-43z" glyph-name="threesuperior" horiz-adv-x="354" unicode="&#xb3;"/><glyph d="M446 700l-185-133-36 41 165 156z" glyph-name="acute" horiz-adv-x="500" unicode="&#xb4;"/><glyph d="M566 0h-148l9 68h-4q-96-77-174-77-56 0-82 40l-3-1-19-206h-93l97 690h91l-48-340q-3-28-3.5-52.5t17.5-41 55-16.5q79 0 167 85l51 365h91l-60-435q-3-19 10-20l53-7z" glyph-name="mu" horiz-adv-x="632" unicode="&#xb5;"/><glyph d="M405 42l75 537h-77l-74-523h-39q-107 0-170 69t-63 182q0 157 93 247.5t257 90.5h247l-7-53-68-8q-11-2-14-5t-5-14l-75-532q-13-93-69-139t-145-46q-115 0-192 45l32 63q19-12 61.5-25.5t89.5-13.5q125 0 143 125z" glyph-name="paragraph" horiz-adv-x="613" unicode="&#xb6;"/><glyph d="M196 321q0-34-19.5-55t-56.5-21q-58 0-58 49 0 35 19 56t57 21q58 0 58-50z" glyph-name="periodcentered" horiz-adv-x="194" unicode="&#xb7;"/><glyph d="M124-229l12 52q14-4 38-4 29 0 51.5 13.5t22.5 41.5q0 42-65 42l32 114 56-8-18-66q64-17 64-77 0-55-40-85t-97-30q-32 0-56 7z" glyph-name="cedilla" horiz-adv-x="500" unicode="&#xb8;"/><glyph d="M271 350h-221l6 45 58 5q12 1 13 13l45 307q3 12-7 14l-59 11 9 45h151l-55-378q-1-8 0-10t9-3l57-5z" glyph-name="onesuperior" horiz-adv-x="277" unicode="&#xb9;"/><glyph d="M211 273q-74 0-110 38t-36 100q0 94 50.5 151.5t141.5 57.5q142 0 142-142 0-94-49-149.5t-139-55.5zM219 329q47 0 74.5 38t28.5 112q0 85-73 85-48 0-77.5-37.5t-29.5-109.5q0-88 77-88z" glyph-name="ordmasculine" horiz-adv-x="396" unicode="&#xba;"/><glyph d="M290 103h-85l96 145q6 10 3 19l-55 141h82l66-153zM132 103h-85l96 145q6 10 3 19l-55 141h82l66-153z" glyph-name="guillemotright" horiz-adv-x="436" unicode="&#xbb;"/><glyph d="M300 281h-221l6 45 58 5q12 1 13 13l45 307q3 12-7 14l-59 11 9 45h151l-55-378q-1-8 0-10t9-3l57-5zM269-12h-85l459 736h84zM732 0h-77l12 84h-198l7 56 214 298h104l-41-290h56l-8-65h-57zM675 148l29 203-147-203h118z" glyph-name="onequarter" horiz-adv-x="895" unicode="&#xbc;"/><glyph d="M301 281h-221l6 45 58 5q12 1 13 13l45 307q3 12-7 14l-59 11 9 45h151l-55-378q-1-8 0-10t9-3l57-5zM247-12h-85l459 736h84zM806 0h-308l7 51 148 151q6 6 19 19.5t18 18.5 15 16 14 16.5 11.5 14.5 10 15 6.5 13.5 5 15 1 14.5q0 45-55 45-38 0-56-13.5t-24-49.5l-78 8q6 36 21.5 59.5t40 35 49 16 57.5 4.5q130 0 130-98 0-28-17-59.5t-33-50-51-53.5l-131-134h130q8 0 11 8l16 51h60z" glyph-name="onehalf" horiz-adv-x="895" unicode="&#xbd;"/><glyph d="M307 517l-1-3q34-8 53-31.5t19-60.5q0-67-48-108t-127-41q-100 0-150 60l51 50q40-45 102-45 37 0 62 20.5t25 61.5q0 62-69 62-22 0-49-4l8 58 38 4q93 9 93 83 0 47-54 47-33 0-49-12.5t-21-49.5l-80 8q9 67 52 91t107 24q129 0 129-97 0-44-25.5-74t-65.5-43zM303-12h-85l459 736h84zM764 0h-77l12 84h-198l7 56 214 298h104l-41-290h56l-8-65h-57zM707 148l29 203-147-203h118z" glyph-name="threequarters" horiz-adv-x="895" unicode="&#xbe;"/><glyph d="M290 326h91l-25-177q-235-23-235-191 0-95 113-95 50 0 80 7 17 4 21 20l21 67 72 4-19-137q-97-36-185-36-200 0-200 170 0 107 67 169t183 82zM287 450q0 74 76 74 58 0 58-52 0-74-76-74-58 0-58 52z" glyph-name="questiondown" horiz-adv-x="480" unicode="&#xbf;"/><glyph d="M669 0h-241l7 47 85 9-31 165h-274l-75-165 77-9-8-47h-223l7 47 43 11q20 5 29 23l302 643h113l132-649q3-13 21-17l43-11zM477 294l-68 349-162-349h230zM500 765l-190 102 53 73 171-128z" glyph-name="Agrave" horiz-adv-x="699" unicode="&#xc0;"/><glyph d="M669 0h-241l7 47 85 9-31 165h-274l-75-165 77-9-8-47h-223l7 47 43 11q20 5 29 23l302 643h113l132-649q3-13 21-17l43-11zM477 294l-68 349-162-349h230zM567 866l-216-100-25 48 204 127z" glyph-name="Aacute" horiz-adv-x="699" unicode="&#xc1;"/><glyph d="M669 0h-241l7 47 85 9-31 165h-274l-75-165 77-9-8-47h-223l7 47 43 11q20 5 29 23l302 643h113l132-649q3-13 21-17l43-11zM477 294l-68 349-162-349h230zM591 807l-46-41-107 83-131-83-35 41 131 102h84z" glyph-name="Acircumflex" horiz-adv-x="699" unicode="&#xc2;"/><glyph d="M669 0h-241l7 47 85 9-31 165h-274l-75-165 77-9-8-47h-223l7 47 43 11q20 5 29 23l302 643h113l132-649q3-13 21-17l43-11zM477 294l-68 349-162-349h230zM616 866l-28-34q-40-50-71-50-15 0-43 7l-116 31q-10 3-16-3l-45-39-39 31 35 44q32 41 67 41 15 0 31-4l123-33q14-4 22 3l39 37z" glyph-name="Atilde" horiz-adv-x="699" unicode="&#xc3;"/><glyph d="M669 0h-241l7 47 85 9-31 165h-274l-75-165 77-9-8-47h-223l7 47 43 11q20 5 29 23l302 643h113l132-649q3-13 21-17l43-11zM477 294l-68 349-162-349h230zM393 845q0-28-17.5-45.5t-46.5-17.5q-23 0-36 12.5t-13 33.5q0 27 17.5 45t46.5 18q23 0 36-12.5t13-33.5zM595 845q0-28-17.5-45.5t-46.5-17.5q-23 0-36 12.5t-13 33.5q0 27 17.5 45t46.5 18q23 0 36-12.5t13-33.5z" glyph-name="Adieresis" horiz-adv-x="699" unicode="&#xc4;"/><glyph d="M444 872q33 0 53.5-18t20.5-50q0-52-38-81l132-648q3-13 21-17l43-11-7-47h-241l7 47 85 9-31 165h-274l-75-165 77-9-8-47h-223l7 47 43 11q20 5 29 23l301 641q-21 19-21 54 0 42 28 69t71 27zM477 294l-68 349-162-349h230zM427 749q20 0 31 14t11 34q0 30-32 30-20 0-31-14t-11-34q0-30 32-30z" glyph-name="Aring" horiz-adv-x="699" unicode="&#xc5;"/><glyph d="M932 0h-521l6 49 71 8q10 1 11 12l35 252h-216l-178-263 72-9-7-49h-219l7 49 43 11q21 4 31 19l395 584-76 9 8 52h617l-23-165-66 4-3 77q-1 13-16 13h-232l-37-261h267l-8-71h-268l-36-250h254q15 0 18 11l28 87h66zM544 392l37 261h-40l-178-261h181z" glyph-name="AE" horiz-adv-x="1000" unicode="&#xc6;"/><glyph d="M234-230l13 51q20-4 32-4 40 0 60 16t20 42q0 40-64 41l20 74q-128 10-190 92t-62 217q0 196 107 317t302 121q136 0 210-54l-22-160-66 4-4 96q0 15-11 19-52 20-117 20-135 0-219-94t-84-261q0-120 53-182.5t157-62.5q91 0 141 22 10 4 14 17l29 91h63l-21-151q-79-49-222-52l-9-34q64-18 64-76 0-45-36.5-80t-109.5-35q-26 0-48 6z" glyph-name="Ccedilla" horiz-adv-x="662" unicode="&#xc7;"/><glyph d="M549 0h-513l6 49 63 7q10 1 13 5t5 15l79 571q2 12-.5 15.5t-12.5 4.5l-60 7 6 50h492l-23-165-62 4-3 77q-1 13-16 13h-230l-34-252h261l-10-72h-262l-35-258h252q14 0 17 11l28 87h62zM474 765l-190 102 53 73 171-128z" glyph-name="Egrave" horiz-adv-x="616" unicode="&#xc8;"/><glyph d="M549 0h-513l6 49 63 7q10 1 13 5t5 15l79 571q2 12-.5 15.5t-12.5 4.5l-60 7 6 50h492l-23-165-62 4-3 77q-1 13-16 13h-230l-34-252h261l-10-72h-262l-35-258h252q14 0 17 11l28 87h62zM541 866l-216-100-25 48 204 127z" glyph-name="Eacute" horiz-adv-x="616" unicode="&#xc9;"/><glyph d="M549 0h-513l6 49 63 7q10 1 13 5t5 15l79 571q2 12-.5 15.5t-12.5 4.5l-60 7 6 50h492l-23-165-62 4-3 77q-1 13-16 13h-230l-34-252h261l-10-72h-262l-35-258h252q14 0 17 11l28 87h62zM565 807l-46-41-107 83-131-83-35 41 131 102h84z" glyph-name="Ecircumflex" horiz-adv-x="616" unicode="&#xca;"/><glyph d="M549 0h-513l6 49 63 7q10 1 13 5t5 15l79 571q2 12-.5 15.5t-12.5 4.5l-60 7 6 50h492l-23-165-62 4-3 77q-1 13-16 13h-230l-34-252h261l-10-72h-262l-35-258h252q14 0 17 11l28 87h62zM367 845q0-28-17.5-45.5t-46.5-17.5q-23 0-36 12.5t-13 33.5q0 27 17.5 45t46.5 18q23 0 36-12.5t13-33.5zM569 845q0-28-17.5-45.5t-46.5-17.5q-23 0-36 12.5t-13 33.5q0 27 17.5 45t46.5 18q23 0 36-12.5t13-33.5z" glyph-name="Edieresis" horiz-adv-x="616" unicode="&#xcb;"/><glyph d="M295 0h-268l5 49 73 7q10 1 13 4.5t5 15.5l80 572q2 12-.5 15.5t-12.5 4.5l-70 7 6 49h268l-6-49-76-8q-11-1-13.5-4t-4.5-15l-81-571q-2-12 0-15.5t13-4.5l74-8zM336 765l-190 102 53 73 171-128z" glyph-name="Igrave" horiz-adv-x="364" unicode="&#xcc;"/><glyph d="M295 0h-268l5 49 73 7q10 1 13 4.5t5 15.5l80 572q2 12-.5 15.5t-12.5 4.5l-70 7 6 49h268l-6-49-76-8q-11-1-13.5-4t-4.5-15l-81-571q-2-12 0-15.5t13-4.5l74-8zM403 866l-216-100-25 48 204 127z" glyph-name="Iacute" horiz-adv-x="364" unicode="&#xcd;"/><glyph d="M295 0h-268l5 49 73 7q10 1 13 4.5t5 15.5l80 572q2 12-.5 15.5t-12.5 4.5l-70 7 6 49h268l-6-49-76-8q-11-1-13.5-4t-4.5-15l-81-571q-2-12 0-15.5t13-4.5l74-8zM427 807l-46-41-107 83-131-83-35 41 131 102h84z" glyph-name="Icircumflex" horiz-adv-x="364" unicode="&#xce;"/><glyph d="M295 0h-268l5 49 73 7q10 1 13 4.5t5 15.5l80 572q2 12-.5 15.5t-12.5 4.5l-70 7 6 49h268l-6-49-76-8q-11-1-13.5-4t-4.5-15l-81-571q-2-12 0-15.5t13-4.5l74-8zM229 845q0-28-17.5-45.5t-46.5-17.5q-23 0-36 12.5t-13 33.5q0 27 17.5 45t46.5 18q23 0 36-12.5t13-33.5zM431 845q0-28-17.5-45.5t-46.5-17.5q-23 0-36 12.5t-13 33.5q0 27 17.5 45t46.5 18q23 0 36-12.5t13-33.5z" glyph-name="Idieresis" horiz-adv-x="364" unicode="&#xcf;"/><glyph d="M314 0h-279l8 50 62 7q9 1 12.5 4.5t4.5 13.5l36 257h-94l9 71h95l34 245q2 11-.5 15t-12.5 5l-61 7 7 49h293q156 0 232.5-78t76.5-217q0-195-106.5-312t-316.5-117zM213 71h107q155 0 239 95t84 260q0 122-61.5 174.5t-179.5 52.5h-109l-35-250h188l-10-71h-187z" glyph-name="Eth" horiz-adv-x="752" unicode="&#xd0;"/><glyph d="M656 0h-105l-274 611-75-534q-2-12 .5-15.5t12.5-4.5l65-8-5-49h-238l5 49 63 7q10 1 13 5t5 15l80 571q2 12-.5 15.5t-12.5 4.5l-60 7 6 50h191l268-608 73 532q2 11-.5 15t-12.5 5l-61 7 6 49h238l-7-49-67-8q-11-1-13.5-4t-4.5-15zM676 866l-28-34q-40-50-71-50-15 0-43 7l-116 31q-10 3-16-3l-45-39-39 31 35 44q32 41 67 41 15 0 31-4l123-33q14-4 22 3l39 37z" glyph-name="Ntilde" horiz-adv-x="815" unicode="&#xd1;"/><glyph d="M348-12q-144 0-215.5 80.5t-71.5 217.5q0 201 103.5 326t292.5 125q141 0 211-81.5t70-216.5q0-209-104.5-330t-285.5-121zM360 65q123 0 202 93t81 268q0 49-11 91-37 143-186 143-125 0-205.5-93t-83.5-264q0-50 11-92 35-146 192-146zM531 765l-190 102 53 73 171-128z" glyph-name="Ograve" horiz-adv-x="752" unicode="&#xd2;"/><glyph d="M348-12q-144 0-215.5 80.5t-71.5 217.5q0 201 103.5 326t292.5 125q141 0 211-81.5t70-216.5q0-209-104.5-330t-285.5-121zM360 65q123 0 202 93t81 268q0 49-11 91-37 143-186 143-125 0-205.5-93t-83.5-264q0-50 11-92 35-146 192-146zM598 866l-216-100-25 48 204 127z" glyph-name="Oacute" horiz-adv-x="752" unicode="&#xd3;"/><glyph d="M348-12q-144 0-215.5 80.5t-71.5 217.5q0 201 103.5 326t292.5 125q141 0 211-81.5t70-216.5q0-209-104.5-330t-285.5-121zM360 65q123 0 202 93t81 268q0 49-11 91-37 143-186 143-125 0-205.5-93t-83.5-264q0-50 11-92 35-146 192-146zM622 807l-46-41-107 83-131-83-35 41 131 102h84z" glyph-name="Ocircumflex" horiz-adv-x="752" unicode="&#xd4;"/><glyph d="M348-12q-144 0-215.5 80.5t-71.5 217.5q0 201 103.5 326t292.5 125q141 0 211-81.5t70-216.5q0-209-104.5-330t-285.5-121zM360 65q123 0 202 93t81 268q0 49-11 91-37 143-186 143-125 0-205.5-93t-83.5-264q0-50 11-92 35-146 192-146zM647 866l-28-34q-40-50-71-50-15 0-43 7l-116 31q-10 3-16-3l-45-39-39 31 35 44q32 41 67 41 15 0 31-4l123-33q14-4 22 3l39 37z" glyph-name="Otilde" horiz-adv-x="752" unicode="&#xd5;"/><glyph d="M348-12q-144 0-215.5 80.5t-71.5 217.5q0 201 103.5 326t292.5 125q141 0 211-81.5t70-216.5q0-209-104.5-330t-285.5-121zM360 65q123 0 202 93t81 268q0 49-11 91-37 143-186 143-125 0-205.5-93t-83.5-264q0-50 11-92 35-146 192-146zM424 845q0-28-17.5-45.5t-46.5-17.5q-23 0-36 12.5t-13 33.5q0 27 17.5 45t46.5 18q23 0 36-12.5t13-33.5zM626 845q0-28-17.5-45.5t-46.5-17.5q-23 0-36 12.5t-13 33.5q0 27 17.5 45t46.5 18q23 0 36-12.5t13-33.5z" glyph-name="Odieresis" horiz-adv-x="752" unicode="&#xd6;"/><glyph d="M385 156l-91 106-119-106-50 58 120 106-90 107 67 59 89-106 121 106 50-59-121-107 91-106z" glyph-name="multiply" unicode="&#xd7;"/><glyph d="M199-78h-91l63 113q-110 76-110 251 0 201 103.5 326t292.5 125q52 0 99-13l37 66h91l-56-100q110-75 110-251 0-209-104.5-330t-285.5-121q-57 0-105 14zM360 65q123 0 202 93t81 268q0 49-11 91-15 56-49 92l-299-534q31-10 76-10zM168 211q13-59 48-95l299 534q-30 10-69 10-125 0-205.5-93t-83.5-264q0-50 11-92z" glyph-name="Oslash" horiz-adv-x="752" unicode="&#xd8;"/><glyph d="M568 252l54 396q1 12-1 15.5t-12 4.5l-61 7 7 49h243l-7-49-67-8q-11-1-13.5-4t-4.5-15l-56-408q-18-131-88.5-191.5t-200.5-60.5q-118 0-173.5 49t-55.5 148q0 31 4 59l54 404q2 12-.5 15.5t-11.5 4.5l-61 7 7 49h249l-7-49-67-8q-11-1-13.5-4t-4.5-15l-55-394q-4-28-4-58 0-70 37-100.5t112-30.5q89 0 136 42.5t61 144.5zM527 765l-190 102 53 73 171-128z" glyph-name="Ugrave" horiz-adv-x="770" unicode="&#xd9;"/><glyph d="M568 252l54 396q1 12-1 15.5t-12 4.5l-61 7 7 49h243l-7-49-67-8q-11-1-13.5-4t-4.5-15l-56-408q-18-131-88.5-191.5t-200.5-60.5q-118 0-173.5 49t-55.5 148q0 31 4 59l54 404q2 12-.5 15.5t-11.5 4.5l-61 7 7 49h249l-7-49-67-8q-11-1-13.5-4t-4.5-15l-55-394q-4-28-4-58 0-70 37-100.5t112-30.5q89 0 136 42.5t61 144.5zM608 866l-216-100-25 48 204 127z" glyph-name="Uacute" horiz-adv-x="770" unicode="&#xda;"/><glyph d="M568 252l54 396q1 12-1 15.5t-12 4.5l-61 7 7 49h243l-7-49-67-8q-11-1-13.5-4t-4.5-15l-56-408q-18-131-88.5-191.5t-200.5-60.5q-118 0-173.5 49t-55.5 148q0 31 4 59l54 404q2 12-.5 15.5t-11.5 4.5l-61 7 7 49h249l-7-49-67-8q-11-1-13.5-4t-4.5-15l-55-394q-4-28-4-58 0-70 37-100.5t112-30.5q89 0 136 42.5t61 144.5zM632 807l-46-41-107 83-131-83-35 41 131 102h84z" glyph-name="Ucircumflex" horiz-adv-x="770" unicode="&#xdb;"/><glyph d="M568 252l54 396q1 12-1 15.5t-12 4.5l-61 7 7 49h243l-7-49-67-8q-11-1-13.5-4t-4.5-15l-56-408q-18-131-88.5-191.5t-200.5-60.5q-118 0-173.5 49t-55.5 148q0 31 4 59l54 404q2 12-.5 15.5t-11.5 4.5l-61 7 7 49h249l-7-49-67-8q-11-1-13.5-4t-4.5-15l-55-394q-4-28-4-58 0-70 37-100.5t112-30.5q89 0 136 42.5t61 144.5zM434 845q0-28-17.5-45.5t-46.5-17.5q-23 0-36 12.5t-13 33.5q0 27 17.5 45t46.5 18q23 0 36-12.5t13-33.5zM636 845q0-28-17.5-45.5t-46.5-17.5q-23 0-36 12.5t-13 33.5q0 27 17.5 45t46.5 18q23 0 36-12.5t13-33.5z" glyph-name="Udieresis" horiz-adv-x="770" unicode="&#xdc;"/><glyph d="M445 0h-312l6 49 95 7q9 1 12 5t5 16l28 203-146 367q-6 11-21 17l-43 11 8 49h229l-8-49-74-9 113-303 194 303-72 9 8 49h214l-7-49-42-11q-20-6-28-20l-234-361-28-206q-2-13 0-16t13-4l96-8zM535 866l-216-100-25 48 204 127z" glyph-name="Yacute" horiz-adv-x="607" unicode="&#xdd;"/><glyph d="M357 0h-323l7 50 63 7q11 2 14.5 5.5t4.5 14.5l79 571q2 11-1 15t-13 5l-60 7 6 49h255l-6-49-76-8q-9-2-12.5-5t-4.5-13l-7-52h132q112 0 163-50t51-135q0-133-79-196.5t-224-63.5h-104l-10-74q-2-12 0-15.5t12-4.5l140-8zM232 222h90q47 0 82 7.5t66.5 26.5 48 57 16.5 95q0 118-153 118h-109z" glyph-name="Thorn" horiz-adv-x="641" unicode="&#xde;"/><glyph d="M122-212h-89l112 779q8 59 30.5 99.5t56 61.5 70 29.5 82.5 8.5q50 0 88.5-11.5t59-27.5 33.5-37 16.5-36.5 3.5-30.5q0-41-23.5-77t-51-57-51-46-23.5-47 16.5-41 40-35 46.5-35 39.5-51.5 16.5-74.5q0-80-56-125.5t-142-45.5q-54 0-100 10t-64 20l18 129 63-4 3-68q0-12 10-15 33-10 76-10 48 0 76 25.5t28 68.5q0 28-12 50.5t-30 35.5-38.5 28-38.5 28.5-30 37-12 53.5q0 31 15 58t37 47.5 44 39.5 37 42 15 48q0 37-30 59.5t-86 22.5q-67 0-101.5-32.5t-44.5-103.5z" glyph-name="germandbls" horiz-adv-x="635" unicode="&#xdf;"/><glyph d="M522 0h-146l12 90-3 1q-50-50-94.5-76.5t-96.5-26.5q-150 0-150 191 0 62 13.5 119.5t41.5 110 78.5 84 117.5 31.5q78 0 142-56l16 46h84q-20-79-26-123l-44-315q-2-12 .5-15.5t13.5-4.5l49-7zM394 181l30 215q-22 22-56 38t-70 16q-44 0-77.5-26t-51-67.5-26-84-8.5-85.5q0-121 86-121 67 0 173 115zM434 604l-45-37-156 141 69 60z" glyph-name="agrave" horiz-adv-x="580" unicode="&#xe0;"/><glyph d="M522 0h-146l12 90-3 1q-50-50-94.5-76.5t-96.5-26.5q-150 0-150 191 0 62 13.5 119.5t41.5 110 78.5 84 117.5 31.5q78 0 142-56l16 46h84q-20-79-26-123l-44-315q-2-12 .5-15.5t13.5-4.5l49-7zM394 181l30 215q-22 22-56 38t-70 16q-44 0-77.5-26t-51-67.5-26-84-8.5-85.5q0-121 86-121 67 0 173 115zM470 700l-185-133-36 41 165 156z" glyph-name="aacute" horiz-adv-x="580" unicode="&#xe1;"/><glyph d="M522 0h-146l12 90-3 1q-50-50-94.5-76.5t-96.5-26.5q-150 0-150 191 0 62 13.5 119.5t41.5 110 78.5 84 117.5 31.5q78 0 142-56l16 46h84q-20-79-26-123l-44-315q-2-12 .5-15.5t13.5-4.5l49-7zM394 181l30 215q-22 22-56 38t-70 16q-44 0-77.5-26t-51-67.5-26-84-8.5-85.5q0-121 86-121 67 0 173 115zM506 610l-50-38-110 101-140-101-39 38 145 123h84z" glyph-name="acircumflex" horiz-adv-x="580" unicode="&#xe2;"/><glyph d="M522 0h-146l12 90-3 1q-50-50-94.5-76.5t-96.5-26.5q-150 0-150 191 0 62 13.5 119.5t41.5 110 78.5 84 117.5 31.5q78 0 142-56l16 46h84q-20-79-26-123l-44-315q-2-12 .5-15.5t13.5-4.5l49-7zM394 181l30 215q-22 22-56 38t-70 16q-44 0-77.5-26t-51-67.5-26-84-8.5-85.5q0-121 86-121 67 0 173 115zM516 673l-28-35q-40-50-70-50-17 0-43 8-25 6-68 18t-50 14q-9 3-17-4l-44-39-38 30 35 44q34 42 66 42 17 0 41-7 108-30 119-32 8-3 16 4l40 37z" glyph-name="atilde" horiz-adv-x="580" unicode="&#xe3;"/><glyph d="M522 0h-146l12 90-3 1q-50-50-94.5-76.5t-96.5-26.5q-150 0-150 191 0 62 13.5 119.5t41.5 110 78.5 84 117.5 31.5q78 0 142-56l16 46h84q-20-79-26-123l-44-315q-2-12 .5-15.5t13.5-4.5l49-7zM394 181l30 215q-22 22-56 38t-70 16q-44 0-77.5-26t-51-67.5-26-84-8.5-85.5q0-121 86-121 67 0 173 115zM300 668q0-28-17.5-45.5t-46.5-17.5q-23 0-36 12.5t-13 33.5q0 27 17.5 45t46.5 18q23 0 36-12.5t13-33.5zM502 668q0-28-17.5-45.5t-46.5-17.5q-23 0-36 12.5t-13 33.5q0 27 17.5 45t46.5 18q23 0 36-12.5t13-33.5z" glyph-name="adieresis" horiz-adv-x="580" unicode="&#xe4;"/><glyph d="M522 0h-146l12 90-3 1q-50-50-94.5-76.5t-96.5-26.5q-150 0-150 191 0 62 13.5 119.5t41.5 110 78.5 84 117.5 31.5q78 0 142-56l16 46h84q-20-79-26-123l-44-315q-2-12 .5-15.5t13.5-4.5l49-7zM394 181l30 215q-22 22-56 38t-70 16q-44 0-77.5-26t-51-67.5-26-84-8.5-85.5q0-121 86-121 67 0 173 115zM371 745q33 0 53.5-18t20.5-50q0-42-27-71t-71-29q-34 0-54.5 18.5t-20.5 53.5q0 42 28 69t71 27zM354 622q20 0 31 14t11 34q0 30-32 30-20 0-31-14t-11-34q0-30 32-30z" glyph-name="aring" horiz-adv-x="580" unicode="&#xe5;"/><glyph d="M721 98l18-68q-84-42-182-42-132 0-176 96-99-96-187-96-150 0-150 191 0 62 13.5 119.5t41.5 110 78.5 84 117.5 31.5q93 0 170-75 83 75 182 75 68 0 101.5-33t33.5-87q0-65-47-106-74-65-282-91 1-73 26.5-109.5t96.5-36.5q67 0 145 37zM419 397q-62 53-121 53-44 0-77.5-26t-51-67.5-26-84-8.5-85.5q0-121 86-121 58 0 143 83-3 21-3 45 2 120 58 203zM460 271q24 4 32 5t35 6 40.5 9.5 37 11.5 36.5 16 27.5 20 21 25.5 6.5 31.5q0 55-66 55-64 0-109.5-52t-60.5-128z" glyph-name="ae" horiz-adv-x="800" unicode="&#xe6;"/><glyph d="M142-229l12 52q14-4 38-4 29 0 51.5 13.5t22.5 41.5q0 42-65 42l20 73q-177 16-177 208 0 164 83.5 245.5t212.5 81.5q85 0 144-31l-19-133-63 3-3 66q0 11-12 15-22 8-62 8-78 0-133-60t-55-184q0-148 126-148 80 0 146 36l22-64q-58-35-151-43l-9-33q64-17 64-77 0-55-40-85t-97-30q-32 0-56 7z" glyph-name="ccedilla" horiz-adv-x="488" unicode="&#xe7;"/><glyph d="M403 98l17-68q-82-42-180-42-196 0-196 206 0 138 79 234t201 96q73 0 107-33t34-87q0-164-329-200 0-72 26.5-107.5t97.5-35.5q63 0 143 37zM142 272q237 29 237 127 0 52-66 52-64 0-109.5-51t-61.5-128zM420 604l-45-37-156 141 69 60z" glyph-name="egrave" horiz-adv-x="482" unicode="&#xe8;"/><glyph d="M403 98l17-68q-82-42-180-42-196 0-196 206 0 138 79 234t201 96q73 0 107-33t34-87q0-164-329-200 0-72 26.5-107.5t97.5-35.5q63 0 143 37zM142 272q237 29 237 127 0 52-66 52-64 0-109.5-51t-61.5-128zM456 700l-185-133-36 41 165 156z" glyph-name="eacute" horiz-adv-x="482" unicode="&#xe9;"/><glyph d="M403 98l17-68q-82-42-180-42-196 0-196 206 0 138 79 234t201 96q73 0 107-33t34-87q0-164-329-200 0-72 26.5-107.5t97.5-35.5q63 0 143 37zM142 272q237 29 237 127 0 52-66 52-64 0-109.5-51t-61.5-128zM492 610l-50-38-110 101-140-101-39 38 145 123h84z" glyph-name="ecircumflex" horiz-adv-x="482" unicode="&#xea;"/><glyph d="M403 98l17-68q-82-42-180-42-196 0-196 206 0 138 79 234t201 96q73 0 107-33t34-87q0-164-329-200 0-72 26.5-107.5t97.5-35.5q63 0 143 37zM142 272q237 29 237 127 0 52-66 52-64 0-109.5-51t-61.5-128zM286 668q0-28-17.5-45.5t-46.5-17.5q-23 0-36 12.5t-13 33.5q0 27 17.5 45t46.5 18q23 0 36-12.5t13-33.5zM488 668q0-28-17.5-45.5t-46.5-17.5q-23 0-36 12.5t-13 33.5q0 27 17.5 45t46.5 18q23 0 36-12.5t13-33.5z" glyph-name="edieresis" horiz-adv-x="482" unicode="&#xeb;"/><glyph d="M242 0h-169l-2 4 21 115 45 312q3 17-11 21l-53 14 7 48h158l-62-437q-2-12 .5-15.5t13.5-4.5l59-8zM273 596l-45-37-156 141 69 60z" glyph-name="igrave" horiz-adv-x="295" unicode="&#xec;"/><glyph d="M242 0h-169l-2 4 21 115 45 312q3 17-11 21l-53 14 7 48h158l-62-437q-2-12 .5-15.5t13.5-4.5l59-8zM295 692l-185-133-36 41 165 156z" glyph-name="iacute" horiz-adv-x="295" unicode="&#xed;"/><glyph d="M322 604l-50-38-100 101-130-101-39 38 135 123h84zM242 0h-169l-2 4 21 115 45 312q3 17-11 21l-53 14 7 48h158l-62-437q-2-12 .5-15.5t13.5-4.5l59-8z" glyph-name="icircumflex" horiz-adv-x="295" unicode="&#xee;"/><glyph d="M140 646q0-28-17.5-45.5t-46.5-17.5q-23 0-36 12.5t-13 33.5q0 27 17.5 45t46.5 18q23 0 36-12.5t13-33.5zM322 646q0-28-17.5-45.5t-46.5-17.5q-23 0-36 12.5t-13 33.5q0 27 17.5 45t46.5 18q23 0 36-12.5t13-33.5zM242 0h-169l-2 4 21 115 45 312q3 17-11 21l-53 14 7 48h158l-62-437q-2-12 .5-15.5t13.5-4.5l59-8z" glyph-name="idieresis" horiz-adv-x="295" unicode="&#xef;"/><glyph d="M560 699l-92-48q74-97 74-256 0-38-4-75.5t-14-86.5-31.5-90.5-52-77.5-79.5-56.5-111-20.5q-103 0-154.5 57.5t-51.5 159.5q0 128 72.5 212.5t197.5 84.5q79 0 138-42-16 94-65 149l-108-57-32 59 85 45q-48 29-119 43l37 68q101-13 168-66l111 59zM451 373q-16 23-53 40.5t-78 17.5q-88 0-134-63t-46-163q0-148 118-148 50 0 87.5 26.5t59 73.5 32.5 100 14 116z" glyph-name="eth" horiz-adv-x="566" unicode="&#xf0;"/><glyph d="M567 0h-161l-2 2 19 121 28 201q6 44 6 62 0 59-51 59-40 0-83-27.5t-109-86.5l-35-254q-2-12 .5-15.5t13.5-4.5l62-8-7-49h-233l7 50 48 7q11 2 14.5 5.5t4.5 14.5l48 352q3 18-9 21l-53 16 7 48h151l-14-99q41 35 66 53.5t66.5 37 78.5 18.5q116 0 118-120 0-27-5-59l-38-268q-2-12 .5-15.5t12.5-4.5l56-8zM541 673l-28-35q-40-50-70-50-17 0-43 8-25 6-68 18t-50 14q-9 3-17-4l-44-39-38 30 35 44q34 42 66 42 17 0 41-7 108-30 119-32 8-3 16 4l40 37z" glyph-name="ntilde" horiz-adv-x="619" unicode="&#xf1;"/><glyph d="M252-12q-105 0-156.5 55.5t-51.5 153.5q0 146 74.5 236.5t209.5 90.5q106 0 154.5-57t48.5-152q0-152-73-239.5t-206-87.5zM260 57q81 0 129.5 66t48.5 193q0 135-120 135-83 0-132.5-63.5t-49.5-186.5q0-144 124-144zM432 604l-45-37-156 141 69 60z" glyph-name="ograve" horiz-adv-x="559" unicode="&#xf2;"/><glyph d="M252-12q-105 0-156.5 55.5t-51.5 153.5q0 146 74.5 236.5t209.5 90.5q106 0 154.5-57t48.5-152q0-152-73-239.5t-206-87.5zM260 57q81 0 129.5 66t48.5 193q0 135-120 135-83 0-132.5-63.5t-49.5-186.5q0-144 124-144zM468 700l-185-133-36 41 165 156z" glyph-name="oacute" horiz-adv-x="559" unicode="&#xf3;"/><glyph d="M252-12q-105 0-156.5 55.5t-51.5 153.5q0 146 74.5 236.5t209.5 90.5q106 0 154.5-57t48.5-152q0-152-73-239.5t-206-87.5zM260 57q81 0 129.5 66t48.5 193q0 135-120 135-83 0-132.5-63.5t-49.5-186.5q0-144 124-144zM504 610l-50-38-110 101-140-101-39 38 145 123h84z" glyph-name="ocircumflex" horiz-adv-x="559" unicode="&#xf4;"/><glyph d="M252-12q-105 0-156.5 55.5t-51.5 153.5q0 146 74.5 236.5t209.5 90.5q106 0 154.5-57t48.5-152q0-152-73-239.5t-206-87.5zM260 57q81 0 129.5 66t48.5 193q0 135-120 135-83 0-132.5-63.5t-49.5-186.5q0-144 124-144zM514 673l-28-35q-40-50-70-50-17 0-43 8-25 6-68 18t-50 14q-9 3-17-4l-44-39-38 30 35 44q34 42 66 42 17 0 41-7 108-30 119-32 8-3 16 4l40 37z" glyph-name="otilde" horiz-adv-x="559" unicode="&#xf5;"/><glyph d="M252-12q-105 0-156.5 55.5t-51.5 153.5q0 146 74.5 236.5t209.5 90.5q106 0 154.5-57t48.5-152q0-152-73-239.5t-206-87.5zM260 57q81 0 129.5 66t48.5 193q0 135-120 135-83 0-132.5-63.5t-49.5-186.5q0-144 124-144zM298 668q0-28-17.5-45.5t-46.5-17.5q-23 0-36 12.5t-13 33.5q0 27 17.5 45t46.5 18q23 0 36-12.5t13-33.5zM500 668q0-28-17.5-45.5t-46.5-17.5q-23 0-36 12.5t-13 33.5q0 27 17.5 45t46.5 18q23 0 36-12.5t13-33.5z" glyph-name="odieresis" horiz-adv-x="559" unicode="&#xf6;"/><glyph d="M337 177q0-35-19-53.5t-54-18.5q-57 0-57 51 0 34 19.5 53t54.5 19q56 0 56-51zM482 281h-377l12 80h377zM380 487q0-72-73-72-56 0-56 51 0 35 19 53.5t54 18.5q56 0 56-51z" glyph-name="divide" unicode="&#xf7;"/><glyph d="M125-90h-83l69 119q-67 52-67 168 0 146 74.5 236.5t209.5 90.5q35 0 67-8l41 70h82l-58-100q71-53 71-171 0-152-73-239.5t-206-87.5q-39 0-76 10zM260 57q81 0 129.5 66t48.5 193q0 59-24 92l-200-345q21-6 46-6zM136 201q0-58 21-94l198 340q-24 4-37 4-83 0-132.5-63.5t-49.5-186.5z" glyph-name="oslash" horiz-adv-x="559" unicode="&#xf8;"/><glyph d="M558 0h-153l15 99q-37-32-62.5-51t-66-39-73.5-20q-64 0-95 28t-31 93q0 21 4 57l39 270q2 12-.5 15.5t-13.5 4.5l-52 8 8 49h154l3-4-45-321q-5-30-5-61t11.5-44 41.5-13q29 0 63 17.5t59 37 67 56.5l34 255q2 12-.5 15.5t-13.5 4.5l-58 8 7 49h163l3-4-61-434q-3-17 9-19l55-9zM435 604l-45-37-156 141 69 60z" glyph-name="ugrave" horiz-adv-x="617" unicode="&#xf9;"/><glyph d="M558 0h-153l15 99q-37-32-62.5-51t-66-39-73.5-20q-64 0-95 28t-31 93q0 21 4 57l39 270q2 12-.5 15.5t-13.5 4.5l-52 8 8 49h154l3-4-45-321q-5-30-5-61t11.5-44 41.5-13q29 0 63 17.5t59 37 67 56.5l34 255q2 12-.5 15.5t-13.5 4.5l-58 8 7 49h163l3-4-61-434q-3-17 9-19l55-9zM481 700l-185-133-36 41 165 156z" glyph-name="uacute" horiz-adv-x="617" unicode="&#xfa;"/><glyph d="M558 0h-153l15 99q-37-32-62.5-51t-66-39-73.5-20q-64 0-95 28t-31 93q0 21 4 57l39 270q2 12-.5 15.5t-13.5 4.5l-52 8 8 49h154l3-4-45-321q-5-30-5-61t11.5-44 41.5-13q29 0 63 17.5t59 37 67 56.5l34 255q2 12-.5 15.5t-13.5 4.5l-58 8 7 49h163l3-4-61-434q-3-17 9-19l55-9zM517 610l-50-38-110 101-140-101-39 38 145 123h84z" glyph-name="ucircumflex" horiz-adv-x="617" unicode="&#xfb;"/><glyph d="M558 0h-153l15 99q-37-32-62.5-51t-66-39-73.5-20q-64 0-95 28t-31 93q0 21 4 57l39 270q2 12-.5 15.5t-13.5 4.5l-52 8 8 49h154l3-4-45-321q-5-30-5-61t11.5-44 41.5-13q29 0 63 17.5t59 37 67 56.5l34 255q2 12-.5 15.5t-13.5 4.5l-58 8 7 49h163l3-4-61-434q-3-17 9-19l55-9zM311 668q0-28-17.5-45.5t-46.5-17.5q-23 0-36 12.5t-13 33.5q0 27 17.5 45t46.5 18q23 0 36-12.5t13-33.5zM513 668q0-28-17.5-45.5t-46.5-17.5q-23 0-36 12.5t-13 33.5q0 27 17.5 45t46.5 18q23 0 36-12.5t13-33.5z" glyph-name="udieresis" horiz-adv-x="617" unicode="&#xfc;"/><glyph d="M161-56l38 71-108 425q-3 13-17 17l-41 9 9 48h130l5-6 23-126 60-259 166 333-62 10 6 48h159l7-14-296-577q-41-79-80.5-112.5t-106.5-33.5q-41 0-77.5 14.5t-51.5 29.5l37 57q42-29 90-29 38 0 60.5 22.5t49.5 72.5zM437 700l-185-133-36 41 165 156z" glyph-name="yacute" horiz-adv-x="528" unicode="&#xfd;"/><glyph d="M234-212h-198l-3 4 15 78 114 800q2 18-10 21l-53 16 7 48h155l-48-334q114 103 197 103 65 0 103-47t38-148q0-49-8-96t-27-92-46-78.5-69.5-54-93.5-20.5q-83 0-142 59h-4l-24-179q-1-12 1-15t12-4l92-8zM202 333l-29-206q58-66 124-66 56 0 94 43t52.5 98 14.5 115q0 126-77 126-66 0-179-110z" glyph-name="thorn" horiz-adv-x="579" unicode="&#xfe;"/><glyph d="M161-56l38 71-108 425q-3 13-17 17l-41 9 9 48h130l5-6 23-126 60-259 166 333-62 10 6 48h159l7-14-296-577q-41-79-80.5-112.5t-106.5-33.5q-41 0-77.5 14.5t-51.5 29.5l37 57q42-29 90-29 38 0 60.5 22.5t49.5 72.5zM267 668q0-28-17.5-45.5t-46.5-17.5q-23 0-36 12.5t-13 33.5q0 27 17.5 45t46.5 18q23 0 36-12.5t13-33.5zM469 668q0-28-17.5-45.5t-46.5-17.5q-23 0-36 12.5t-13 33.5q0 27 17.5 45t46.5 18q23 0 36-12.5t13-33.5z" glyph-name="ydieresis" horiz-adv-x="528" unicode="&#xff;"/><glyph d="M669 0h-241l7 47 85 9-31 165h-274l-75-165 77-9-8-47h-223l7 47 43 11q20 5 29 23l302 643h113l132-649q3-13 21-17l43-11zM477 294l-68 349-162-349h230zM589 794h-307l9 69h307z" glyph-name="Amacron" horiz-adv-x="699" unicode="&#x100;"/><glyph d="M522 0h-146l12 90-3 1q-50-50-94.5-76.5t-96.5-26.5q-150 0-150 191 0 62 13.5 119.5t41.5 110 78.5 84 117.5 31.5q78 0 142-56l16 46h84q-20-79-26-123l-44-315q-2-12 .5-15.5t13.5-4.5l49-7zM394 181l30 215q-22 22-56 38t-70 16q-44 0-77.5-26t-51-67.5-26-84-8.5-85.5q0-121 86-121 67 0 173 115zM499 611h-307l10 69h307z" glyph-name="amacron" horiz-adv-x="580" unicode="&#x101;"/><glyph d="M669 0h-241l7 47 85 9-31 165h-274l-75-165 77-9-8-47h-223l7 47 43 11q20 5 29 23l302 643h113l132-649q3-13 21-17l43-11zM477 294l-68 349-162-349h230zM545 920l55-21q-47-117-167-117-128 0-144 117l58 20q16-72 89-72 35 0 61.5 15t47.5 58z" glyph-name="Abreve" horiz-adv-x="699" unicode="&#x102;"/><glyph d="M522 0h-146l12 90-3 1q-50-50-94.5-76.5t-96.5-26.5q-150 0-150 191 0 62 13.5 119.5t41.5 110 78.5 84 117.5 31.5q78 0 142-56l16 46h84q-20-79-26-123l-44-315q-2-12 .5-15.5t13.5-4.5l49-7zM394 181l30 215q-22 22-56 38t-70 16q-44 0-77.5-26t-51-67.5-26-84-8.5-85.5q0-121 86-121 67 0 173 115zM471 728l54-22q-55-133-185-133-133 0-149 133l58 22q17-90 99-90 42 0 71 21.5t52 68.5z" glyph-name="abreve" horiz-adv-x="580" unicode="&#x103;"/><glyph d="M572-140l12-56q-49-22-96-22-80 0-80 64 0 74 109 154h-89l7 47 85 9-31 165h-274l-75-165 77-9-8-47h-223l7 47 43 11q20 5 29 23l302 643h113l132-649q3-13 21-17l43-11-7-47h-74q-100-76-100-126 0-26 26-26 20 0 51 12zM477 294l-68 349-162-349h230z" glyph-name="Aogonek" horiz-adv-x="699" unicode="&#x104;"/><glyph d="M478-140l12-56q-49-22-96-22-80 0-80 64 0 79 115 154h-53l12 90-3 1q-50-50-94.5-76.5t-96.5-26.5q-150 0-150 191 0 62 13.5 119.5t41.5 110 78.5 84 117.5 31.5q78 0 142-56l16 46h84q-20-79-26-123l-44-315q-2-12 .5-15.5t13.5-4.5l49-7-8-49q-46-21-83.5-57t-37.5-69q0-26 26-26 20 0 51 12zM394 181l30 215q-22 22-56 38t-70 16q-44 0-77.5-26t-51-67.5-26-84-8.5-85.5q0-121 86-121 67 0 173 115z" glyph-name="aogonek" horiz-adv-x="580" unicode="&#x105;"/><glyph d="M616 192l-21-151q-85-53-243-53-147 0-218 83.5t-71 227.5q0 196 107 317t302 121q136 0 210-54l-22-160-66 4-4 96q0 15-11 19-52 20-117 20-135 0-219-94t-84-261q0-120 53-182.5t157-62.5q91 0 141 22 10 4 14 17l29 91h63zM600 866l-216-100-25 48 204 127z" glyph-name="Cacute" horiz-adv-x="662" unicode="&#x106;"/><glyph d="M409 96l22-64q-31-19-82-31.5t-99-12.5q-105 0-155.5 55.5t-50.5 153.5q0 164 83.5 245.5t212.5 81.5q85 0 144-31l-19-133-63 3-3 66q0 11-12 15-22 8-62 8-78 0-133-60t-55-184q0-148 126-148 80 0 146 36zM474 700l-185-133-36 41 165 156z" glyph-name="cacute" horiz-adv-x="488" unicode="&#x107;"/><glyph d="M616 192l-21-151q-85-53-243-53-147 0-218 83.5t-71 227.5q0 196 107 317t302 121q136 0 210-54l-22-160-66 4-4 96q0 15-11 19-52 20-117 20-135 0-219-94t-84-261q0-120 53-182.5t157-62.5q91 0 141 22 10 4 14 17l29 91h63zM624 807l-46-41-107 83-131-83-35 41 131 102h84z" glyph-name="Ccircumflex" horiz-adv-x="662" unicode="&#x108;"/><glyph d="M409 96l22-64q-31-19-82-31.5t-99-12.5q-105 0-155.5 55.5t-50.5 153.5q0 164 83.5 245.5t212.5 81.5q85 0 144-31l-19-133-63 3-3 66q0 11-12 15-22 8-62 8-78 0-133-60t-55-184q0-148 126-148 80 0 146 36zM505 610l-50-38-110 101-140-101-39 38 145 123h84z" glyph-name="ccircumflex" horiz-adv-x="488" unicode="&#x109;"/><glyph d="M616 192l-21-151q-85-53-243-53-147 0-218 83.5t-71 227.5q0 196 107 317t302 121q136 0 210-54l-22-160-66 4-4 96q0 15-11 19-52 20-117 20-135 0-219-94t-84-261q0-120 53-182.5t157-62.5q91 0 141 22 10 4 14 17l29 91h63zM536 856q0-33-20-53.5t-54-20.5q-27 0-42 14t-15 39q0 33 20 53t55 20q56 0 56-52z" glyph-name="Cdotaccent" horiz-adv-x="662" unicode="&#x10a;"/><glyph d="M409 96l22-64q-31-19-82-31.5t-99-12.5q-105 0-155.5 55.5t-50.5 153.5q0 164 83.5 245.5t212.5 81.5q85 0 144-31l-19-133-63 3-3 66q0 11-12 15-22 8-62 8-78 0-133-60t-55-184q0-148 126-148 80 0 146 36zM416 702q0-32-19.5-54t-54.5-22q-56 0-56 51 0 34 18.5 55t55.5 21q56 0 56-51z" glyph-name="cdotaccent" horiz-adv-x="488" unicode="&#x10b;"/><glyph d="M616 192l-21-151q-85-53-243-53-147 0-218 83.5t-71 227.5q0 196 107 317t302 121q136 0 210-54l-22-160-66 4-4 96q0 15-11 19-52 20-117 20-135 0-219-94t-84-261q0-120 53-182.5t157-62.5q91 0 141 22 10 4 14 17l29 91h63zM632 879l-131-102h-84l-104 102 46 41 107-83 130 83z" glyph-name="Ccaron" horiz-adv-x="662" unicode="&#x10c;"/><glyph d="M409 96l22-64q-31-19-82-31.5t-99-12.5q-105 0-155.5 55.5t-50.5 153.5q0 164 83.5 245.5t212.5 81.5q85 0 144-31l-19-133-63 3-3 66q0 11-12 15-22 8-62 8-78 0-133-60t-55-184q0-148 126-148 80 0 146 36zM520 702l-146-123h-84l-108 122 49 39 109-101 141 101z" glyph-name="ccaron" horiz-adv-x="488" unicode="&#x10d;"/><glyph d="M314 0h-279l8 50 62 7q9 1 12.5 4.5t4.5 13.5l80 573q2 11-.5 15t-12.5 5l-61 7 7 49h293q156 0 232.5-78t76.5-217q0-195-106.5-312t-316.5-117zM213 71h107q155 0 239 95t84 260q0 122-61.5 174.5t-179.5 52.5h-109zM589 879l-131-102h-84l-104 102 46 41 107-83 130 83z" glyph-name="Dcaron" horiz-adv-x="752" unicode="&#x10e;"/><glyph d="M523 0h-147l12 89-3 2q-50-49-93.5-76t-95.5-27q-73 0-112.5 47.5t-39.5 142.5q0 59 13 116.5t40 110.5 78 86 118 33q79 0 143-52l27 201q1 16-10 20l-54 14 7 48h156l-95-679q-2-12 .5-15.5t13.5-4.5l49-7zM395 182l30 214q-21 22-56 38t-70 16q-45 0-78.5-26t-51.5-68-26-85.5-8-87.5q0-117 85-117 68 0 175 116zM639 552l-44 18q35 74 35 121 0 18-8 42l69 32q22-25 22-45 0-25-14-58-16-36-60-110z" glyph-name="dcaron" horiz-adv-x="648" unicode="&#x10f;"/><glyph d="M319 0h-279l8 50 62 7q9 1 12.5 4.5t4.5 13.5l36 257h-94l9 71h95l34 245q2 11-.5 15t-12.5 5l-61 7 7 49h293q156 0 232.5-78t76.5-217q0-195-106.5-312t-316.5-117zM218 71h107q155 0 239 95t84 260q0 122-61.5 174.5t-179.5 52.5h-109l-35-250h188l-10-71h-187z" glyph-name="Dcroat" horiz-adv-x="757" unicode="&#x110;"/><glyph d="M523 0h-147l12 89-3 2q-50-49-93.5-76t-95.5-27q-73 0-112.5 47.5t-39.5 142.5q0 46 7 90t25 87.5 45.5 76 70.5 52.5 98 20q79 0 143-52l15 115h-186l8 62h187l6 44q1 16-10 20l-54 14 7 48h156l-18-126h67l-8-62h-68l-68-491q-2-12 .5-15.5t13.5-4.5l49-7zM395 182l27 194q-21 22-56 38t-70 16q-45 0-78-23t-50.5-61-25-78.5-7.5-84.5q0-117 85-117 68 0 175 116z" glyph-name="dcroat" horiz-adv-x="584" unicode="&#x111;"/><glyph d="M549 0h-513l6 49 63 7q10 1 13 5t5 15l79 571q2 12-.5 15.5t-12.5 4.5l-60 7 6 50h492l-23-165-62 4-3 77q-1 13-16 13h-230l-34-252h261l-10-72h-262l-35-258h252q14 0 17 11l28 87h62zM563 794h-307l9 69h307z" glyph-name="Emacron" horiz-adv-x="616" unicode="&#x112;"/><glyph d="M403 98l17-68q-82-42-180-42-196 0-196 206 0 138 79 234t201 96q73 0 107-33t34-87q0-164-329-200 0-72 26.5-107.5t97.5-35.5q63 0 143 37zM142 272q237 29 237 127 0 52-66 52-64 0-109.5-51t-61.5-128zM485 611h-307l10 69h307z" glyph-name="emacron" horiz-adv-x="482" unicode="&#x113;"/><glyph d="M549 0h-513l6 49 63 7q10 1 13 5t5 15l79 571q2 12-.5 15.5t-12.5 4.5l-60 7 6 50h492l-23-165-62 4-3 77q-1 13-16 13h-230l-34-252h261l-10-72h-262l-35-258h252q14 0 17 11l28 87h62zM519 920l55-21q-47-117-167-117-128 0-144 117l58 20q16-72 89-72 35 0 61.5 15t47.5 58z" glyph-name="Ebreve" horiz-adv-x="616" unicode="&#x114;"/><glyph d="M403 98l17-68q-82-42-180-42-196 0-196 206 0 138 79 234t201 96q73 0 107-33t34-87q0-164-329-200 0-72 26.5-107.5t97.5-35.5q63 0 143 37zM142 272q237 29 237 127 0 52-66 52-64 0-109.5-51t-61.5-128zM457 728l54-22q-55-133-185-133-133 0-149 133l58 22q17-90 99-90 42 0 71 21.5t52 68.5z" glyph-name="ebreve" horiz-adv-x="482" unicode="&#x115;"/><glyph d="M549 0h-513l6 49 63 7q10 1 13 5t5 15l79 571q2 12-.5 15.5t-12.5 4.5l-60 7 6 50h492l-23-165-62 4-3 77q-1 13-16 13h-230l-34-252h261l-10-72h-262l-35-258h252q14 0 17 11l28 87h62zM481 856q0-33-20-53.5t-54-20.5q-27 0-42 14t-15 39q0 33 20 53t55 20q56 0 56-52z" glyph-name="Edotaccent" horiz-adv-x="616" unicode="&#x116;"/><glyph d="M403 98l17-68q-82-42-180-42-196 0-196 206 0 138 79 234t201 96q73 0 107-33t34-87q0-164-329-200 0-72 26.5-107.5t97.5-35.5q63 0 143 37zM142 272q237 29 237 127 0 52-66 52-64 0-109.5-51t-61.5-128zM404 702q0-32-19.5-54t-54.5-22q-56 0-56 51 0 34 18.5 55t55.5 21q56 0 56-51z" glyph-name="edotaccent" horiz-adv-x="482" unicode="&#x117;"/><glyph d="M505-140l12-56q-49-22-96-22-80 0-80 64 0 77 113 154h-418l6 49 63 7q10 1 13 5t5 15l79 571q2 12-.5 15.5t-12.5 4.5l-60 7 6 50h492l-23-165-62 4-3 77q-1 13-16 13h-230l-34-252h261l-10-72h-262l-35-258h252q14 0 17 11l28 87h62l-23-169q-46-21-83.5-57t-37.5-69q0-26 26-26 20 0 51 12z" glyph-name="Eogonek" horiz-adv-x="616" unicode="&#x118;"/><glyph d="M322-140l12-56q-49-22-96-22-80 0-80 64 0 71 93 142h-11q-196 0-196 206 0 138 79 234t201 96q73 0 107-33t34-87q0-164-329-200 0-72 26.5-107.5t97.5-35.5q63 0 143 37l17-68q-9-5-32.5-16.5t-35.5-18.5q-40-23-73.5-55.5t-33.5-65.5q0-26 26-26 20 0 51 12zM142 272q237 29 237 127 0 52-66 52-64 0-109.5-51t-61.5-128z" glyph-name="eogonek" horiz-adv-x="482" unicode="&#x119;"/><glyph d="M549 0h-513l6 49 63 7q10 1 13 5t5 15l79 571q2 12-.5 15.5t-12.5 4.5l-60 7 6 50h492l-23-165-62 4-3 77q-1 13-16 13h-230l-34-252h261l-10-72h-262l-35-258h252q14 0 17 11l28 87h62zM573 879l-131-102h-84l-104 102 46 41 107-83 130 83z" glyph-name="Ecaron" horiz-adv-x="616" unicode="&#x11a;"/><glyph d="M403 98l17-68q-82-42-180-42-196 0-196 206 0 138 79 234t201 96q73 0 107-33t34-87q0-164-329-200 0-72 26.5-107.5t97.5-35.5q63 0 143 37zM142 272q237 29 237 127 0 52-66 52-64 0-109.5-51t-61.5-128zM512 702l-146-123h-84l-108 122 49 39 109-101 141 101z" glyph-name="ecaron" horiz-adv-x="482" unicode="&#x11b;"/><glyph d="M711 282l-41-4q-17-1-18-14l-32-235q-89-41-242-41-163 0-239.5 85t-76.5 228q0 192 107 314t302 122q63 0 120.5-14.5t90.5-39.5l-21-159-66 5-4 92q0 15-11 19-57 22-124 22-134 0-216.5-95t-82.5-257q0-122 59-184.5t172-62.5q80 0 137 16 13 4 15 17l24 176h-133l20 65h268zM624 807l-46-41-107 83-131-83-35 41 131 102h84z" glyph-name="Gcircumflex" horiz-adv-x="715" unicode="&#x11c;"/><glyph d="M369-28l18 122q-48-48-93.5-76t-97.5-28q-152 0-152 189 0 60 13 117t40 110 78 85.5 118 32.5q81 0 145-56l16 46h84q-22-88-28-131l-56-417q-13-95-70.5-142t-148.5-47q-62 0-114.5 13.5t-80.5 30.5l33 65q19-12 62-25.5t90-13.5q126 0 144 125zM395 182l30 213q-21 23-56 39t-71 16q-45 0-78.5-26t-51-68-25.5-85-8-86q0-117 85-117 70 0 175 114zM499 610l-50-38-110 101-140-101-39 38 145 123h84z" glyph-name="gcircumflex" unicode="&#x11d;"/><glyph d="M711 282l-41-4q-17-1-18-14l-32-235q-89-41-242-41-163 0-239.5 85t-76.5 228q0 192 107 314t302 122q63 0 120.5-14.5t90.5-39.5l-21-159-66 5-4 92q0 15-11 19-57 22-124 22-134 0-216.5-95t-82.5-257q0-122 59-184.5t172-62.5q80 0 137 16 13 4 15 17l24 176h-133l20 65h268zM578 920l55-21q-47-117-167-117-128 0-144 117l58 20q16-72 89-72t109 73z" glyph-name="Gbreve" horiz-adv-x="715" unicode="&#x11e;"/><glyph d="M369-28l18 122q-48-48-93.5-76t-97.5-28q-152 0-152 189 0 60 13 117t40 110 78 85.5 118 32.5q81 0 145-56l16 46h84q-22-88-28-131l-56-417q-13-95-70.5-142t-148.5-47q-62 0-114.5 13.5t-80.5 30.5l33 65q19-12 62-25.5t90-13.5q126 0 144 125zM395 182l30 213q-21 23-56 39t-71 16q-45 0-78.5-26t-51-68-25.5-85-8-86q0-117 85-117 70 0 175 114zM453 728l54-22q-55-133-185-133-133 0-149 133l58 22q17-90 99-90 42 0 71 21.5t52 68.5z" glyph-name="gbreve" unicode="&#x11f;"/><glyph d="M711 282l-41-4q-17-1-18-14l-32-235q-89-41-242-41-163 0-239.5 85t-76.5 228q0 192 107 314t302 122q63 0 120.5-14.5t90.5-39.5l-21-159-66 5-4 92q0 15-11 19-57 22-124 22-134 0-216.5-95t-82.5-257q0-122 59-184.5t172-62.5q80 0 137 16 13 4 15 17l24 176h-133l20 65h268zM540 856q0-33-20-53.5t-54-20.5q-27 0-42 14t-15 39q0 33 20 53t55 20q56 0 56-52z" glyph-name="Gdotaccent" horiz-adv-x="715" unicode="&#x120;"/><glyph d="M369-28l18 122q-48-48-93.5-76t-97.5-28q-152 0-152 189 0 60 13 117t40 110 78 85.5 118 32.5q81 0 145-56l16 46h84q-22-88-28-131l-56-417q-13-95-70.5-142t-148.5-47q-62 0-114.5 13.5t-80.5 30.5l33 65q19-12 62-25.5t90-13.5q126 0 144 125zM395 182l30 213q-21 23-56 39t-71 16q-45 0-78.5-26t-51-68-25.5-85-8-86q0-117 85-117 70 0 175 114zM402 702q0-32-19.5-54t-54.5-22q-56 0-56 51 0 34 18.5 55t55.5 21q56 0 56-51z" glyph-name="gdotaccent" unicode="&#x121;"/><glyph d="M711 282l-41-4q-17-1-18-14l-32-235q-89-41-242-41-163 0-239.5 85t-76.5 228q0 192 107 314t302 122q63 0 120.5-14.5t90.5-39.5l-21-159-66 5-4 92q0 15-11 19-57 22-124 22-134 0-216.5-95t-82.5-257q0-122 59-184.5t172-62.5q80 0 137 16 13 4 15 17l24 176h-133l20 65h268zM334-268l-43 16 34 88q3 7-3 10l-32 14 32 80q50-2 74-12.5t24-41.5q0-26-25-63z" glyph-name="Gcommaaccent" horiz-adv-x="715" unicode="&#x122;"/><glyph d="M369-28l18 122q-48-48-93.5-76t-97.5-28q-152 0-152 189 0 60 13 117t40 110 78 85.5 118 32.5q81 0 145-56l16 46h84q-22-88-28-131l-56-417q-13-95-70.5-142t-148.5-47q-62 0-114.5 13.5t-80.5 30.5l33 65q19-12 62-25.5t90-13.5q126 0 144 125zM395 182l30 213q-21 23-56 39t-71 16q-45 0-78.5-26t-51-68-25.5-85-8-86q0-117 85-117 70 0 175 114zM397 646l-32-80q-50 2-74 12.5t-24 41.5q0 26 25 63l61 91 43-16-34-88q-3-7 3-10z" glyph-name="gcommaaccent" unicode="&#x123;"/><glyph d="M712 0h-249l8 49 62 7q10 1 13 5t5 15l36 261h-336l-38-260q-2-12 .5-15.5t12.5-4.5l65-8-7-49h-249l7 49 63 7q10 1 13 5t5 15l80 572q2 12-.5 15.5t-12.5 4.5l-60 7 6 49h249l-7-49-67-8q-11-2-14-5t-4-14l-32-239h336l34 239q2 12-.5 15.5t-11.5 4.5l-61 7 5 49h249l-6-49-66-8q-11-1-14.5-4.5t-4.5-14.5l-79-571q-2-12 0-15.5t12-4.5l65-8zM644 807l-46-41-107 83-131-83-35 41 131 102h84z" glyph-name="Hcircumflex" horiz-adv-x="792" unicode="&#x124;"/><glyph d="M565 0h-163l-2 3 18 99 31 222q5 30 5 59 0 63-47 63-64 0-195-115l-35-254q-2-12 .5-15.5t13.5-4.5l62-8-7-49h-233l7 50 49 7q11 2 14.5 5t4.5 15l83 594q3 18-9 21l-54 15 7 48h155l-48-338q41 34 65.5 52.5t65.5 36.5 78 18q113 0 115-117 0-29-5-62l-38-268q-2-12 .5-15.5t13.5-4.5l55-8zM370 827l-46-41-107 83-131-83-35 41 131 102h84z" glyph-name="hcircumflex" horiz-adv-x="618" unicode="&#x125;"/><glyph d="M712 0h-249l8 49 62 7q10 1 13 5t5 15l36 261h-336l-38-260q-2-12 .5-15.5t12.5-4.5l65-8-7-49h-249l7 49 63 7q10 1 13 5t5 15l62 443h-73l9 58h72l10 71q2 12-.5 15.5t-12.5 4.5l-60 7 6 49h249l-7-49-67-8q-11-2-14-5t-4-14l-10-71h338l10 71q2 12-.5 15.5t-11.5 4.5l-61 7 5 49h249l-6-49-66-8q-11-1-14.5-4.5t-4.5-14.5l-10-71h71l-9-58h-70l-61-442q-2-12 0-15.5t12-4.5l65-8zM261 409h336l15 110h-337z" glyph-name="Hbar" horiz-adv-x="792" unicode="&#x126;"/><glyph d="M565 0h-163l-2 2 18 100 28 202q5 30 5 59 0 58-47 58-34 0-70.5-18t-58-35-66.5-57l-32-234q-2-12 .5-15.5t13.5-4.5l62-8-7-49h-233l7 50 49 7q11 2 14.5 5t4.5 15l68 490h-67l9 65h67l6 39q3 18-9 21l-54 15 7 48h155l-18-123h187l-9-65h-187l-24-171q36 30 53.5 43.5t46 32 54.5 25.5 55 7q113 0 115-117 0-29-5-62l-35-248q-2-12 .5-15.5t13.5-4.5l55-8z" glyph-name="hbar" horiz-adv-x="617" unicode="&#x127;"/><glyph d="M295 0h-268l5 49 73 7q10 1 13 4.5t5 15.5l80 572q2 12-.5 15.5t-12.5 4.5l-70 7 6 49h268l-6-49-76-8q-11-1-13.5-4t-4.5-15l-81-571q-2-12 0-15.5t13-4.5l74-8zM452 866l-28-34q-40-50-71-50-15 0-43 7l-116 31q-10 3-16-3l-45-39-39 31 35 44q32 41 67 41 15 0 31-4l123-33q14-4 22 3l39 37z" glyph-name="Itilde" horiz-adv-x="364" unicode="&#x128;"/><glyph d="M339 661l-28-35q-40-50-70-50-17 0-43 8-24 8-53.5 18.5t-38.5 13.5-17-4l-44-39-38 30 35 44q34 42 66 42 17 0 41-7 22-7 53.5-18t39.5-14 16 4l40 37zM242 0h-169l-2 4 21 115 45 312q3 17-11 21l-53 14 7 48h158l-62-437q-2-12 .5-15.5t13.5-4.5l59-8z" glyph-name="itilde" horiz-adv-x="295" unicode="&#x129;"/><glyph d="M295 0h-268l5 49 73 7q10 1 13 4.5t5 15.5l80 572q2 12-.5 15.5t-12.5 4.5l-70 7 6 49h268l-6-49-76-8q-11-1-13.5-4t-4.5-15l-81-571q-2-12 0-15.5t13-4.5l74-8zM425 794h-307l9 69h307z" glyph-name="Imacron" horiz-adv-x="364" unicode="&#x12a;"/><glyph d="M308 596h-277l10 69h277zM242 0h-169l-2 4 21 115 45 312q3 17-11 21l-53 14 7 48h158l-62-437q-2-12 .5-15.5t13.5-4.5l59-8z" glyph-name="imacron" horiz-adv-x="295" unicode="&#x12b;"/><glyph d="M295 0h-268l5 49 73 7q10 1 13 4.5t5 15.5l80 572q2 12-.5 15.5t-12.5 4.5l-70 7 6 49h268l-6-49-76-8q-11-1-13.5-4t-4.5-15l-81-571q-2-12 0-15.5t13-4.5l74-8zM381 920l55-21q-47-117-167-117-128 0-144 117l58 20q16-72 89-72 35 0 61.5 15t47.5 58z" glyph-name="Ibreve" horiz-adv-x="364" unicode="&#x12c;"/><glyph d="M284 723l54-22q-52-133-172-133-121 0-136 133l58 22q8-47 28.5-68.5t57.5-21.5q38 0 63.5 21.5t46.5 68.5zM242 0h-169l-2 4 21 115 45 312q3 17-11 21l-53 14 7 48h158l-62-437q-2-12 .5-15.5t13.5-4.5l59-8z" glyph-name="ibreve" horiz-adv-x="295" unicode="&#x12d;"/><glyph d="M211-140l12-56q-49-22-96-22-80 0-80 64 0 74 109 154h-129l5 49 73 7q10 1 13 4.5t5 15.5l80 572q2 12-.5 15.5t-12.5 4.5l-70 7 6 49h268l-6-49-76-8q-11-1-13.5-4t-4.5-15l-81-571q-2-12 0-15.5t13-4.5l74-8-5-49h-61q-100-76-100-126 0-26 26-26 20 0 51 12z" glyph-name="Iogonek" horiz-adv-x="364" unicode="&#x12e;"/><glyph d="M194-140l12-56q-49-22-96-22-80 0-80 64 0 83 114 154h-71l-2 4 21 115 45 312q3 17-11 21l-53 14 7 48h157l-61-437q-2-12 .5-15.5t13.5-4.5l59-8-7-49q-47-21-86-58t-39-68q0-26 26-26 20 0 51 12zM192 625q-26 0-41 14t-15 39q0 33 20 53.5t54 20.5q27 0 41.5-14t14.5-39q0-32-20-53t-54-21z" glyph-name="iogonek" horiz-adv-x="295" unicode="&#x12f;"/><glyph d="M295 0h-268l5 49 73 7q10 1 13 4.5t5 15.5l80 572q2 12-.5 15.5t-12.5 4.5l-70 7 6 49h268l-6-49-76-8q-11-1-13.5-4t-4.5-15l-81-571q-2-12 0-15.5t13-4.5l74-8zM343 856q0-33-20-53.5t-54-20.5q-27 0-42 14t-15 39q0 33 20 53t55 20q56 0 56-52z" glyph-name="Idotaccent" horiz-adv-x="364" unicode="&#x130;"/><glyph d="M242 0h-169l-2 4 21 115 45 312q3 17-11 21l-53 14 7 48h158l-62-437q-2-12 .5-15.5t13.5-4.5l59-8z" glyph-name="dotlessi" horiz-adv-x="295" unicode="&#x131;"/><glyph d="M295 0h-268l5 49 73 7q10 1 13 4.5t5 15.5l80 572q2 12-.5 15.5t-12.5 4.5l-70 7 6 49h268l-6-49-76-8q-11-1-13.5-4t-4.5-15l-81-571q-2-12 0-15.5t13-4.5l74-8zM637 153l69 496q2 11-.5 14.5t-12.5 4.5l-83 7 7 49h271l-7-49-67-8q-7-1-10-2.5t-4.5-4.5-2.5-11l-71-502q-11-83-53.5-121t-129.5-38q-51 0-95 11.5t-61 23.5l18 138 64-4v-72q0-9 9-14 25-11 70-11 44 0 63 22t26 71z" glyph-name="IJ" horiz-adv-x="848" unicode="&#x132;"/><glyph d="M192 625q-26 0-41 14t-15 39q0 33 20 53.5t54 20.5q27 0 41.5-14t14.5-39q0-32-20-53t-54-21zM242 0h-169l-2 4 21 115 45 312q3 17-11 21l-53 14 7 48h157l-61-437q-2-12 .5-15.5t13.5-4.5l59-8zM363-47l67 477q3 17-9 21l-57 15 7 48h160l-80-579q-12-83-50.5-120.5t-111.5-37.5q-42 0-79 14.5t-52 29.5l37 57q41-29 85-29 40 0 57.5 24t25.5 80zM488 625q-27 0-42 14t-15 39q0 33 20.5 53.5t54.5 20.5q26 0 41-14t15-39q0-32-20.5-53t-53.5-21z" glyph-name="ij" horiz-adv-x="581" unicode="&#x133;"/><glyph d="M273 153l69 496q2 11-.5 14.5t-12.5 4.5l-83 7 7 49h271l-7-49-67-8q-7-1-10-2.5t-4.5-4.5-2.5-11l-71-502q-11-83-53.5-121t-129.5-38q-51 0-95 11.5t-61 23.5l18 138 64-4v-72q0-9 9-14 25-11 70-11 44 0 63 22t26 71zM565 807l-46-41-107 83-131-83-35 41 131 102h84z" glyph-name="Jcircumflex" horiz-adv-x="484" unicode="&#x134;"/><glyph d="M68-47l68 477q3 17-9 21l-58 15 7 48h160l-80-579q-12-83-50.5-120.5t-111.5-37.5q-42 0-79 14.5t-52 29.5l38 57q41-29 85-29 40 0 57 23.5t25 80.5zM340 604l-50-38-110 101-140-101-39 38 145 123h84z" glyph-name="jcircumflex" horiz-adv-x="286" unicode="&#x135;"/><glyph d="M674 0h-144l-4 4-54 99-142 239-91-88-26-177q-2-12 .5-15.5t12.5-4.5l67-8-7-49h-248l6 49 61 7q7 1 10 2.5t5 5.5 3 13l80 571q2 12-.5 15.5t-12.5 4.5l-60 7 7 49h248l-6-49-68-8q-10-1-13-4.5t-5-14.5l-41-289 314 307-57 8 7 50h220l-7-49-50-9q-19-3-32-17l-245-239 195-334q8-13 26-17l58-10zM318-268l-43 16 34 88q3 7-3 10l-32 14 32 80q50-2 74-12.5t24-41.5q0-26-25-63z" glyph-name="Kcommaaccent" horiz-adv-x="716" unicode="&#x136;"/><glyph d="M541 0h-142l-3 3-35 100-70 169-100-95-14-100q-2-12 0-15.5t13-4.5l63-8-7-49h-233l7 50 50 7q10 2 13.5 5.5t4.5 14.5l83 595q3 16-10 20l-53 15 6 48h158l-67-476 204 195q29 27 54 38.5t59 11.5q23 0 44-4l-8-60q-31 1-54-8t-53-38l-86-83 102-257q4-8 8.5-11t18.5-5l54-9zM248-268l-43 16 34 88q3 7-3 10l-32 14 32 80q50-2 74-12.5t24-41.5q0-26-25-63z" glyph-name="kcommaaccent" horiz-adv-x="581" unicode="&#x137;"/><glyph d="M541 0h-142l-3 3-35 100-70 169-100-95-14-100q-2-12 0-15.5t13-4.5l63-8-7-49h-233l7 50 50 7q10 2 13.5 5.5t4.5 14.5l55 393q3 16-10 20l-53 15 6 48h158l-39-274 204 195q29 27 54 38.5t59 11.5q23 0 44-4l-8-60q-31 1-54-8t-53-38l-86-83 102-257q4-8 8.5-11t18.5-5l54-9z" glyph-name="kgreenlandic" horiz-adv-x="581" unicode="&#x138;"/><glyph d="M550 0h-513l6 49 62 7q10 1 13 5t5 15l80 571q2 12-.5 15.5t-12.5 4.5l-60 7 6 50h265l-7-50-83-8q-10-1-13-4.5t-5-14.5l-81-576h253q14 0 17 11l29 90h62zM405 866l-216-100-25 48 204 127z" glyph-name="Lacute" horiz-adv-x="600" unicode="&#x139;"/><glyph d="M238 0h-169l-2 4 21 115 78 553q3 17-10 21l-53 14 7 48h158l-96-678q-2-12 .5-15.5t13.5-4.5l59-8zM336 886l-216-100-25 48 204 127z" glyph-name="lacute" horiz-adv-x="294" unicode="&#x13a;"/><glyph d="M550 0h-513l6 49 62 7q10 1 13 5t5 15l80 571q2 12-.5 15.5t-12.5 4.5l-60 7 6 50h265l-7-50-83-8q-10-1-13-4.5t-5-14.5l-81-576h253q14 0 17 11l29 90h62zM263-268l-43 16 34 88q3 7-3 10l-32 14 32 80q50-2 74-12.5t24-41.5q0-26-25-63z" glyph-name="Lcommaaccent" horiz-adv-x="600" unicode="&#x13b;"/><glyph d="M238 0h-169l-2 4 21 115 78 553q3 17-10 21l-53 14 7 48h158l-96-678q-2-12 .5-15.5t13.5-4.5l59-8zM106-268l-43 16 34 88q3 7-3 10l-32 14 32 80q50-2 74-12.5t24-41.5q0-26-25-63z" glyph-name="lcommaaccent" horiz-adv-x="294" unicode="&#x13c;"/><glyph d="M550 0h-513l6 49 62 7q10 1 13 5t5 15l80 571q2 12-.5 15.5t-12.5 4.5l-60 7 6 50h265l-7-50-83-8q-10-1-13-4.5t-5-14.5l-81-576h253q14 0 17 11l29 90h62zM499 520l-44 18q35 74 35 121 0 18-8 42l69 32q22-25 22-45 0-25-14-58-16-36-60-110z" glyph-name="Lcaron" horiz-adv-x="600" unicode="&#x13d;"/><glyph d="M238 0h-169l-2 4 21 115 78 553q3 17-10 21l-53 14 7 48h158l-96-678q-2-12 .5-15.5t13.5-4.5l59-8zM344 550l-44 18q35 74 35 121 0 18-8 42l69 32q22-25 22-45 0-25-14-58-16-36-60-110z" glyph-name="lcaron" horiz-adv-x="353" unicode="&#x13e;"/><glyph d="M550 0h-513l6 49 62 7q10 1 13 5t5 15l80 571q2 12-.5 15.5t-12.5 4.5l-60 7 6 50h265l-7-50-83-8q-10-1-13-4.5t-5-14.5l-81-576h253q14 0 17 11l29 90h62zM568 405q0-33-20-53.5t-54-20.5q-27 0-42 14t-15 39q0 33 20 53t55 20q56 0 56-52z" glyph-name="Ldot" horiz-adv-x="600" unicode="&#x13f;"/><glyph d="M238 0h-169l-2 4 21 115 78 553q3 17-10 21l-53 14 7 48h158l-96-678q-2-12 .5-15.5t13.5-4.5l59-8zM415 391q0-32-19.5-54t-54.5-22q-56 0-56 51 0 34 18.5 55t55.5 21q56 0 56-51z" glyph-name="ldot" horiz-adv-x="357" unicode="&#x140;"/><glyph d="M550 0h-513l6 49 62 7q10 1 13 5t5 15l32 223-108-42 10 73 108 43 38 274q2 12-.5 15.5t-12.5 4.5l-60 7 6 50h265l-7-50-83-8q-10-1-13-4.5t-5-14.5l-35-248 230 92-11-74-229-91-36-255h253q14 0 17 11l29 90h62z" glyph-name="Lslash" horiz-adv-x="597" unicode="&#x141;"/><glyph d="M238 0h-169l-2 4 21 115 32 228-85-38 10 76 86 38 35 249q3 17-10 21l-53 14 7 48h158l-43-301 94 42-10-76-95-42-42-301q-2-12 .5-15.5t13.5-4.5l59-8z" glyph-name="lslash" horiz-adv-x="303" unicode="&#x142;"/><glyph d="M656 0h-105l-274 611-75-534q-2-12 .5-15.5t12.5-4.5l65-8-5-49h-238l5 49 63 7q10 1 13 5t5 15l80 571q2 12-.5 15.5t-12.5 4.5l-60 7 6 50h191l268-608 73 532q2 11-.5 15t-12.5 5l-61 7 6 49h238l-7-49-67-8q-11-1-13.5-4t-4.5-15zM648 866l-216-100-25 48 204 127z" glyph-name="Nacute" horiz-adv-x="815" unicode="&#x143;"/><glyph d="M567 0h-161l-2 2 19 121 28 201q6 44 6 62 0 59-51 59-40 0-83-27.5t-109-86.5l-35-254q-2-12 .5-15.5t13.5-4.5l62-8-7-49h-233l7 50 48 7q11 2 14.5 5.5t4.5 14.5l48 352q3 18-9 21l-53 16 7 48h151l-14-99q41 35 66 53.5t66.5 37 78.5 18.5q116 0 118-120 0-27-5-59l-38-268q-2-12 .5-15.5t12.5-4.5l56-8zM519 700l-185-133-36 41 165 156z" glyph-name="nacute" horiz-adv-x="619" unicode="&#x144;"/><glyph d="M656 0h-105l-274 611-75-534q-2-12 .5-15.5t12.5-4.5l65-8-5-49h-238l5 49 63 7q10 1 13 5t5 15l80 571q2 12-.5 15.5t-12.5 4.5l-60 7 6 50h191l268-608 73 532q2 11-.5 15t-12.5 5l-61 7 6 49h238l-7-49-67-8q-11-1-13.5-4t-4.5-15zM358-268l-43 16 34 88q3 7-3 10l-32 14 32 80q50-2 74-12.5t24-41.5q0-26-25-63z" glyph-name="Ncommaaccent" horiz-adv-x="815" unicode="&#x145;"/><glyph d="M567 0h-161l-2 2 19 121 28 201q6 44 6 62 0 59-51 59-40 0-83-27.5t-109-86.5l-35-254q-2-12 .5-15.5t13.5-4.5l62-8-7-49h-233l7 50 48 7q11 2 14.5 5.5t4.5 14.5l48 352q3 18-9 21l-53 16 7 48h151l-14-99q41 35 66 53.5t66.5 37 78.5 18.5q116 0 118-120 0-27-5-59l-38-268q-2-12 .5-15.5t12.5-4.5l56-8zM260-268l-43 16 34 88q3 7-3 10l-32 14 32 80q50-2 74-12.5t24-41.5q0-26-25-63z" glyph-name="ncommaaccent" horiz-adv-x="619" unicode="&#x146;"/><glyph d="M656 0h-105l-274 611-75-534q-2-12 .5-15.5t12.5-4.5l65-8-5-49h-238l5 49 63 7q10 1 13 5t5 15l80 571q2 12-.5 15.5t-12.5 4.5l-60 7 6 50h191l268-608 73 532q2 11-.5 15t-12.5 5l-61 7 6 49h238l-7-49-67-8q-11-1-13.5-4t-4.5-15zM665 879l-131-102h-84l-104 102 46 41 107-83 130 83z" glyph-name="Ncaron" horiz-adv-x="815" unicode="&#x147;"/><glyph d="M567 0h-161l-2 2 19 121 28 201q6 44 6 62 0 59-51 59-40 0-83-27.5t-109-86.5l-35-254q-2-12 .5-15.5t13.5-4.5l62-8-7-49h-233l7 50 48 7q11 2 14.5 5.5t4.5 14.5l48 352q3 18-9 21l-53 16 7 48h151l-14-99q41 35 66 53.5t66.5 37 78.5 18.5q116 0 118-120 0-27-5-59l-38-268q-2-12 .5-15.5t12.5-4.5l56-8zM548 702l-146-123h-84l-108 122 49 39 109-101 141 101z" glyph-name="ncaron" horiz-adv-x="619" unicode="&#x148;"/><glyph d="M606 0h-161l-2 2 19 121 28 201q6 44 6 62 0 59-51 59-40 0-83-27.5t-109-86.5l-35-254q-2-12 .5-15.5t13.5-4.5l62-8-7-49h-233l7 50 48 7q11 2 14.5 5.5t4.5 14.5l48 352q3 18-9 21l-53 16 7 48h151l-14-99q41 35 66 53.5t66.5 37 78.5 18.5q116 0 118-120 0-27-5-59l-38-268q-2-12 .5-15.5t12.5-4.5l56-8zM77 499l-38 18 33 73q3 7-2 10l-26 10 25 68q82-2 82-47 0-20-18-47z" glyph-name="napostrophe" horiz-adv-x="658" unicode="&#x149;"/><glyph d="M648-56q-6-37-18-64-37-103-157-103-48 0-91.5 16t-57.5 30l37 58q13-10 44-21t59-11q81 0 95 104l6 48-288 610-75-534q-2-12 .5-15.5t12.5-4.5l65-8-5-49h-238l5 49 63 7q9 1 12.5 4.5t5.5 16.5l80 570q2 12-.5 15.5t-12.5 4.5l-60 7 6 50h191l271-589 70 513q1 11-1 14.5t-12 5.5l-61 7 6 49h238l-7-49-67-8q-7-1-10-2.5t-5-5-3-11.5z" glyph-name="Eng" horiz-adv-x="816" unicode="&#x14a;"/><glyph d="M397-47l52 371q5 33 5 54 1 34-9.5 49t-42.5 15q-69 0-189-111l-35-254q-2-12 .5-15.5t13.5-4.5l62-8-8-49h-231l7 50 48 7q11 2 14.5 5.5t4.5 14.5l48 352q3 18-9 21l-53 16 7 48h151l-14-99q40 34 66 53.5t67 37.5 78 18q116 0 118-120 0-27-5-59l-58-410q-11-82-48.5-119.5t-110.5-37.5q-83 0-134 43l38 57q41-29 85-29 40 0 57 23.5t25 80.5z" glyph-name="eng" horiz-adv-x="619" unicode="&#x14b;"/><glyph d="M348-12q-144 0-215.5 80.5t-71.5 217.5q0 201 103.5 326t292.5 125q141 0 211-81.5t70-216.5q0-209-104.5-330t-285.5-121zM360 65q123 0 202 93t81 268q0 49-11 91-37 143-186 143-125 0-205.5-93t-83.5-264q0-50 11-92 35-146 192-146zM620 794h-307l9 69h307z" glyph-name="Omacron" horiz-adv-x="752" unicode="&#x14c;"/><glyph d="M252-12q-105 0-156.5 55.5t-51.5 153.5q0 146 74.5 236.5t209.5 90.5q106 0 154.5-57t48.5-152q0-152-73-239.5t-206-87.5zM260 57q81 0 129.5 66t48.5 193q0 135-120 135-83 0-132.5-63.5t-49.5-186.5q0-144 124-144zM497 611h-307l10 69h307z" glyph-name="omacron" horiz-adv-x="559" unicode="&#x14d;"/><glyph d="M348-12q-144 0-215.5 80.5t-71.5 217.5q0 201 103.5 326t292.5 125q141 0 211-81.5t70-216.5q0-209-104.5-330t-285.5-121zM360 65q123 0 202 93t81 268q0 49-11 91-37 143-186 143-125 0-205.5-93t-83.5-264q0-50 11-92 35-146 192-146zM576 920l55-21q-47-117-167-117-128 0-144 117l58 20q16-72 89-72t109 73z" glyph-name="Obreve" horiz-adv-x="752" unicode="&#x14e;"/><glyph d="M252-12q-105 0-156.5 55.5t-51.5 153.5q0 146 74.5 236.5t209.5 90.5q106 0 154.5-57t48.5-152q0-152-73-239.5t-206-87.5zM260 57q81 0 129.5 66t48.5 193q0 135-120 135-83 0-132.5-63.5t-49.5-186.5q0-144 124-144zM469 728l54-22q-55-133-185-133-133 0-149 133l58 22q17-90 99-90 42 0 71 21.5t52 68.5z" glyph-name="obreve" horiz-adv-x="559" unicode="&#x14f;"/><glyph d="M348-12q-144 0-215.5 80.5t-71.5 217.5q0 201 103.5 326t292.5 125q141 0 211-81.5t70-216.5q0-209-104.5-330t-285.5-121zM360 65q123 0 202 93t81 268q0 49-11 91-37 143-186 143-125 0-205.5-93t-83.5-264q0-50 11-92 35-146 192-146zM545 914l-183-150-37 37 165 172zM716 910l-187-146-34 37 167 168z" glyph-name="Ohungarumlaut" horiz-adv-x="752" unicode="&#x150;"/><glyph d="M252-12q-105 0-156.5 55.5t-51.5 153.5q0 146 74.5 236.5t209.5 90.5q106 0 154.5-57t48.5-152q0-152-73-239.5t-206-87.5zM260 57q81 0 129.5 66t48.5 193q0 135-120 135-83 0-132.5-63.5t-49.5-186.5q0-144 124-144zM408 724l-178-156-38 34 157 177zM579 724l-178-156-39 34 158 176z" glyph-name="ohungarumlaut" horiz-adv-x="559" unicode="&#x151;"/><glyph d="M920 0h-490q-46-12-95-12-134 0-204.5 85t-70.5 230q0 190 100 312t269 122q51 0 100-13h469l-23-165-62 4-3 77q0 8-3.5 10.5t-12.5 2.5h-273q68-76 68-208v-44h202l-10-72h-198q-24-171-128-258h281q14 0 17 11l28 87h62zM348 65q117 0 184 92t67 267q0 236-181 236-114 0-188.5-94t-74.5-260q0-118 50-179.5t143-61.5z" glyph-name="OE" horiz-adv-x="987" unicode="&#x152;"/><glyph d="M781 98l17-68q-82-42-180-42-124 0-165 101-72-101-205-101-103 0-153.5 56t-50.5 154q0 145 72.5 235.5t203.5 90.5q70 0 116.5-32.5t62.5-85.5q75 118 204 118 72 0 106-33t34-87q0-64-48-106-74-65-282-92 1-73 27-109t97-36q65 0 144 37zM260 57q82 0 130 65.5t48 191.5q0 67-33.5 102t-90.5 35q-83 0-131-63.5t-48-184.5q0-146 125-146zM520 272q236 29 236 124 0 55-65 55t-110.5-51.5-60.5-127.5z" glyph-name="oe" horiz-adv-x="860" unicode="&#x153;"/><glyph d="M634 0h-148l-6 7-69 260q-5 22-18 32t-38 10h-109l-34-232q-2-12 .5-15.5t12.5-4.5l66-8-7-49h-247l6 49 62 7q11 1 13.5 4.5t4.5 16.5l80 570q2 12-.5 15.5t-12.5 4.5l-60 7 6 50h295q108 0 155-48t47-126q0-159-166-217 19-10 28.5-31t22.5-74l37-150q4-16 26-19l60-10zM256 381h88q87 0 140.5 39t53.5 121q0 63-40 86.5t-129 23.5h-76zM525 866l-216-100-25 48 204 127z" glyph-name="Racute" horiz-adv-x="660" unicode="&#x154;"/><glyph d="M275 0h-260l7 50 50 6q9 1 12 5t5 15l49 353q3 18-9 21l-54 16 7 48h148l-13-101q33 44 77.5 77.5t90.5 33.5q33 0 64-9l-20-151-70 3-2 68q0 6-1.5 8t-8.5 2q-40 0-132-107l-36-262q-2-12 .5-15.5t13.5-4.5l89-7zM426 700l-185-133-36 41 165 156z" glyph-name="racute" horiz-adv-x="437" unicode="&#x155;"/><glyph d="M634 0h-148l-6 7-69 260q-5 22-18 32t-38 10h-109l-34-232q-2-12 .5-15.5t12.5-4.5l66-8-7-49h-247l6 49 62 7q11 1 13.5 4.5t4.5 16.5l80 570q2 12-.5 15.5t-12.5 4.5l-60 7 6 50h295q108 0 155-48t47-126q0-159-166-217 19-10 28.5-31t22.5-74l37-150q4-16 26-19l60-10zM256 381h88q87 0 140.5 39t53.5 121q0 63-40 86.5t-129 23.5h-76zM299-268l-43 16 34 88q3 7-3 10l-32 14 32 80q50-2 74-12.5t24-41.5q0-26-25-63z" glyph-name="Rcommaaccent" horiz-adv-x="660" unicode="&#x156;"/><glyph d="M275 0h-260l7 50 50 6q9 1 12 5t5 15l49 353q3 18-9 21l-54 16 7 48h148l-13-101q33 44 77.5 77.5t90.5 33.5q33 0 64-9l-20-151-70 3-2 68q0 6-1.5 8t-8.5 2q-40 0-132-107l-36-262q-2-12 .5-15.5t13.5-4.5l89-7zM96-268l-43 16 34 88q3 7-3 10l-32 14 32 80q50-2 74-12.5t24-41.5q0-26-25-63z" glyph-name="rcommaaccent" horiz-adv-x="437" unicode="&#x157;"/><glyph d="M634 0h-148l-6 7-69 260q-5 22-18 32t-38 10h-109l-34-232q-2-12 .5-15.5t12.5-4.5l66-8-7-49h-247l6 49 62 7q11 1 13.5 4.5t4.5 16.5l80 570q2 12-.5 15.5t-12.5 4.5l-60 7 6 50h295q108 0 155-48t47-126q0-159-166-217 19-10 28.5-31t22.5-74l37-150q4-16 26-19l60-10zM256 381h88q87 0 140.5 39t53.5 121q0 63-40 86.5t-129 23.5h-76zM557 879l-131-102h-84l-104 102 46 41 107-83 130 83z" glyph-name="Rcaron" horiz-adv-x="660" unicode="&#x158;"/><glyph d="M275 0h-260l7 50 50 6q9 1 12 5t5 15l49 353q3 18-9 21l-54 16 7 48h148l-13-101q33 44 77.5 77.5t90.5 33.5q33 0 64-9l-20-151-70 3-2 68q0 6-1.5 8t-8.5 2q-40 0-132-107l-36-262q-2-12 .5-15.5t13.5-4.5l89-7zM462 702l-146-123h-84l-108 122 49 39 109-101 141 101z" glyph-name="rcaron" horiz-adv-x="437" unicode="&#x159;"/><glyph d="M547 532l-66 6-3 86q-2 37-93 37-73 0-123-32.5t-50-96.5q0-26 9.5-45.5t30.5-34 39.5-23 50.5-20.5q36-13 52.5-20t46-24 43.5-34 26-46.5 12-65.5q0-118-79-174.5t-206-56.5q-62 0-122 12.5t-85 25.5l22 164h66l6-90q3-38 124-38 85 0 132 36t47 107q0 29-10.5 50t-33.5 36-41.5 23.5-52.5 20.5-51 18.5-44.5 22.5-41 33-24.5 45.5-11 63.5q0 107 78 163t195 56q95 0 181-35zM528 866l-216-100-25 48 204 127z" glyph-name="Sacute" horiz-adv-x="567" unicode="&#x15a;"/><glyph d="M418 368l-63 4-3 62q-1 14-14 19-21 7-66 7-47 0-77.5-19.5t-30.5-57.5q0-32 23.5-50.5t72.5-35.5q32-11 50.5-19.5t43-25.5 36.5-42 12-59q0-77-56-120t-145-43q-62 0-112.5 11t-67.5 22l19 127 62-4 3-65q0-11 10-15 32-14 91-14 50 0 80 22.5t30 63.5q0 37-23.5 55.5t-78.5 36.5q-30 10-49.5 18.5t-41.5 24.5-33 40-11 56q0 78 56 117.5t148 39.5q93 0 153-27zM420 700l-185-133-36 41 165 156z" glyph-name="sacute" horiz-adv-x="451" unicode="&#x15b;"/><glyph d="M547 532l-66 6-3 86q-2 37-93 37-73 0-123-32.5t-50-96.5q0-26 9.5-45.5t30.5-34 39.5-23 50.5-20.5q36-13 52.5-20t46-24 43.5-34 26-46.5 12-65.5q0-118-79-174.5t-206-56.5q-62 0-122 12.5t-85 25.5l22 164h66l6-90q3-38 124-38 85 0 132 36t47 107q0 29-10.5 50t-33.5 36-41.5 23.5-52.5 20.5-51 18.5-44.5 22.5-41 33-24.5 45.5-11 63.5q0 107 78 163t195 56q95 0 181-35zM552 807l-46-41-107 83-131-83-35 41 131 102h84z" glyph-name="Scircumflex" horiz-adv-x="567" unicode="&#x15c;"/><glyph d="M418 368l-63 4-3 62q-1 14-14 19-21 7-66 7-47 0-77.5-19.5t-30.5-57.5q0-32 23.5-50.5t72.5-35.5q32-11 50.5-19.5t43-25.5 36.5-42 12-59q0-77-56-120t-145-43q-62 0-112.5 11t-67.5 22l19 127 62-4 3-65q0-11 10-15 32-14 91-14 50 0 80 22.5t30 63.5q0 37-23.5 55.5t-78.5 36.5q-30 10-49.5 18.5t-41.5 24.5-33 40-11 56q0 78 56 117.5t148 39.5q93 0 153-27zM456 610l-50-38-110 101-140-101-39 38 145 123h84z" glyph-name="scircumflex" horiz-adv-x="451" unicode="&#x15d;"/><glyph d="M146-230l13 51q20-4 32-4 40 0 60 16t20 42q0 40-64 41l19 72q-60 1-116.5 13t-79.5 25l22 164h66l6-90q3-38 124-38 85 0 132 36t47 107q0 29-10.5 50t-33.5 36-41.5 23.5-52.5 20.5-51 18.5-44.5 22.5-41 33-24.5 45.5-11 63.5q0 107 78 163t195 56q95 0 181-35l-24-170-66 6-3 86q-2 37-93 37-73 0-123-32.5t-50-96.5q0-26 9.5-45.5t30.5-34 39.5-23 50.5-20.5q36-13 52.5-20t46-24 43.5-34 26-46.5 12-65.5q0-106-64.5-162.5t-172.5-66.5l-9-35q64-18 64-76 0-45-36.5-80t-109.5-35q-26 0-48 6z" glyph-name="Scedilla" horiz-adv-x="567" unicode="&#x15e;"/><glyph d="M82-229l12 52q14-4 38-4 29 0 51.5 13.5t22.5 41.5q0 42-65 42l20 74q-50 3-89 12.5t-51 18.5l19 127 62-4 3-65q0-11 10-15 32-14 91-14 50 0 80 22.5t30 63.5q0 37-23.5 55.5t-78.5 36.5q-30 10-49.5 18.5t-41.5 24.5-33 40-11 56q0 78 56 117.5t148 39.5q93 0 153-27l-18-129-63 4-3 62q-1 14-14 19-21 7-66 7-47 0-77.5-19.5t-30.5-57.5q0-32 23.5-50.5t72.5-35.5q32-11 50.5-19.5t43-25.5 36.5-42 12-59q0-73-50.5-115t-131.5-47l-9-33q64-17 64-77 0-55-40-85t-97-30q-32 0-56 7z" glyph-name="scedilla" horiz-adv-x="451" unicode="&#x15f;"/><glyph d="M547 532l-66 6-3 86q-2 37-93 37-73 0-123-32.5t-50-96.5q0-26 9.5-45.5t30.5-34 39.5-23 50.5-20.5q36-13 52.5-20t46-24 43.5-34 26-46.5 12-65.5q0-118-79-174.5t-206-56.5q-62 0-122 12.5t-85 25.5l22 164h66l6-90q3-38 124-38 85 0 132 36t47 107q0 29-10.5 50t-33.5 36-41.5 23.5-52.5 20.5-51 18.5-44.5 22.5-41 33-24.5 45.5-11 63.5q0 107 78 163t195 56q95 0 181-35zM560 879l-131-102h-84l-104 102 46 41 107-83 130 83z" glyph-name="Scaron" horiz-adv-x="567" unicode="&#x160;"/><glyph d="M418 368l-63 4-3 62q-1 14-14 19-21 7-66 7-47 0-77.5-19.5t-30.5-57.5q0-32 23.5-50.5t72.5-35.5q32-11 50.5-19.5t43-25.5 36.5-42 12-59q0-77-56-120t-145-43q-62 0-112.5 11t-67.5 22l19 127 62-4 3-65q0-11 10-15 32-14 91-14 50 0 80 22.5t30 63.5q0 37-23.5 55.5t-78.5 36.5q-30 10-49.5 18.5t-41.5 24.5-33 40-11 56q0 78 56 117.5t148 39.5q93 0 153-27zM476 702l-146-123h-84l-108 122 49 39 109-101 141 101z" glyph-name="scaron" horiz-adv-x="451" unicode="&#x161;"/><glyph d="M182-230l13 51q20-4 32-4 40 0 60 16t20 42q0 40-64 41l23 84h-132l7 51 100 7q10 1 13 5t5 15l80 575h-154q-14 0-17-11l-27-87h-63l23 169h588l-23-169h-63l-4 87q-1 7-3.5 9t-10.5 2h-155l-81-575q-2-11 0-14.5t13-4.5l109-8-7-51h-140l-12-45q64-18 64-76 0-45-36.5-80t-109.5-35q-26 0-48 6z" glyph-name="uni0162" horiz-adv-x="636" unicode="&#x162;"/><glyph d="M86-229l12 52q14-4 38-4 29 0 51.5 13.5t22.5 41.5q0 42-65 42l21 77q-75 15-75 98 0 10 2 32l43 312q2 10-6 10h-72l9 59q55 8 83.5 38t46.5 104h59l-18-122q-1-10 7-10h143l-9-69h-152l-40-295q-3-21-3-36 0-28 13.5-40.5t47.5-12.5q40 0 93 21l15-63q-59-28-130-31l-8-32q64-17 64-77 0-55-40-85t-97-30q-32 0-56 7z" glyph-name="uni0163" horiz-adv-x="400" unicode="&#x163;"/><glyph d="M464 0h-330l7 51 100 7q10 1 13 5t5 15l80 575h-154q-14 0-17-11l-27-87h-63l23 169h588l-23-169h-63l-4 87q-1 7-3.5 9t-10.5 2h-155l-81-575q-2-11 0-14.5t13-4.5l109-8zM566 879l-131-102h-84l-104 102 46 41 107-83 130 83z" glyph-name="Tcaron" horiz-adv-x="636" unicode="&#x164;"/><glyph d="M338 82l15-63q-67-31-140-31-122 0-122 103 0 10 2 32l43 312q2 10-6 10h-72l9 59q55 8 83.5 38t46.5 104h59l-18-122q-1-10 7-10h143l-9-69h-152l-40-295q-3-21-3-36 0-28 13.5-40.5t47.5-12.5q40 0 93 21zM349 552l-44 18q35 74 35 121 0 18-8 42l69 32q22-25 22-45 0-25-14-58-16-36-60-110z" glyph-name="tcaron" horiz-adv-x="400" unicode="&#x165;"/><glyph d="M464 0h-330l7 51 100 7q10 1 13 5t5 15l34 245h-118l9 67h118l37 263h-154q-14 0-17-11l-27-87h-63l23 169h588l-23-169h-63l-4 87q-1 7-3.5 9t-10.5 2h-155l-37-263h130l-9-67h-131l-34-245q-2-11 0-14.5t13-4.5l109-8z" glyph-name="Tbar" horiz-adv-x="636" unicode="&#x166;"/><glyph d="M338 82l15-63q-67-31-140-31-122 0-122 103 0 10 2 32l16 116h-76l9 67h76l18 129q2 10-6 10h-72l9 59q55 8 83.5 38t46.5 104h59l-18-122q-1-10 7-10h143l-9-69h-152l-19-139h150l-9-67h-150l-12-89q-3-21-3-36 0-28 13.5-40.5t47.5-12.5q40 0 93 21z" glyph-name="tbar" horiz-adv-x="400" unicode="&#x167;"/></font>
</defs>
</svg>
