<svg xmlns="http://www.w3.org/2000/svg"><defs><font horiz-adv-x="570"><font-face ascent="755" bbox="-183 -312 1248 1014" cap-height="724" descent="-245" panose-1="2 0 5 3 0 0 0 2 0 4" underline-position="-200" underline-thickness="50" unicode-range="U+0020-FB06" x-height="528"/><missing-glyph horiz-adv-x="500"/><glyph d="M582 625v-138l7-1q52 53 132 53 86 0 141.5-63.5t55.5-201.5q0-148-57.5-217t-159.5-69q-44 0-80.5 19t-51.5 43l-8-2-6-48h-181v597q0 24-8 34t-31 10q-45 0-45-65v-38q0-10 9-10h47v-132h-56v-264q0-12 3.5-15.5t15.5-5.5l43-7v-104h-338v105l49 6q16 1 16 20v255q0 10-8 10h-62v132h70v15q0 125 64.5 174.5t216.5 49.5q40 0 68.5-2.5t59.5-11 50-23.5 31.5-41.5 12.5-63.5zM584 364v-205q16-11 47-11 29 0 46.5 31.5t17.5 87.5q0 111-64 111-24 0-47-14z" glyph-name="fb" horiz-adv-x="939" unicode="&#x66;&#x62;"/><glyph d="M373-8l1 386q0 11-2.5 14.5t-12.5 3.5h-69v-262q0-14 3-18t15-6l38-6v-104h-332v105l49 6q16 2 16 23v252q0 10-8 10h-62v132h70v26q0 119 70 166t199 47q118 0 178-38t61-142l-196-23q1 45-10 61t-45 16q-46 0-46-49v-54q0-10 9-10h285v-568q0-183-204-183-66 0-119 20.5t-75 38.5l50 108q47-22 85-22 27 0 39.5 13t12.5 57z" glyph-name="fj" horiz-adv-x="641" unicode="&#x66;&#x6a;"/><glyph d="M953 0h-240l-104 240-24-24v-85q0-12 2.5-15.5t13.5-4.5l38-7v-104h-265v597q0 24-8 34t-31 10q-45 0-45-65v-38q0-10 9-10h47v-132h-56v-264q0-12 3.5-15.5t15.5-5.5l43-7v-104h-338v105l49 6q16 1 16 20v255q0 10-8 10h-62v132h70v15q0 125 64.5 174.5t216.5 49.5q40 0 69-2.5t60.5-11 51-23.5 32-41.5 12.5-63.5v-242l154 145h165v-104l-47-7q-13-2-25-15l-51-49 104-227q8-16 30-19l38-5v-102z" glyph-name="fk" horiz-adv-x="957" unicode="&#x66;&#x6b;"/><glyph d="M717 151l33-115q-90-48-187-48-104 0-146.5 44t-42.5 144v207q0 13-15 13h-69v-262q0-14 3-18t15-6l38-6v-104h-332v105l49 6q16 2 16 23v252q0 10-8 10h-62v132h70v26q0 119 70 166t199 47q118 0 178-38t61-142l-196-23q1 45-10 61t-45 16q-46 0-46-49v-54q0-10 9-10h420v-132h-134v-182q0-44 11-60t48-16q38 0 73 13z" glyph-name="ft" horiz-adv-x="768" unicode="&#x66;&#x74;"/><glyph d="M582 625v-140l6-2q53 56 136 56 74 0 109-41t35-127v-240q0-12 2.5-15.5t13.5-4.5l43-7v-104h-270v339q0 23-5 33t-20 10q-19 0-47-13v-239q0-12 2.5-16t12.5-5l34-5v-104h-260v597q0 24-8 34t-31 10q-45 0-45-65v-38q0-10 9-10h47v-132h-56v-264q0-12 3.5-15.5t15.5-5.5l43-7v-104h-338v105l49 6q16 1 16 20v255q0 10-8 10h-62v132h70v15q0 125 64.5 174.5t216.5 49.5q40 0 68.5-2.5t59.5-11 50-23.5 31.5-41.5 12.5-63.5z" glyph-name="fh" horiz-adv-x="927" unicode="&#x66;&#x68;"/><glyph d="M290 396v-267q0-17 12-19l36-6v-104h-324v105l49 6q10 1 13 5t3 16v254q0 10-8 10h-62v132h70v10q0 111 60 158.5t179 47.5q73 0 120-27 64 50 184 50 34 0 61-3.5t54.5-14.5 46.5-29 31-48.5 12-71.5l-195-23q1 37-4 50.5t-20 13.5q-14 0-18.5-11t-4.5-35v-57q0-10 8-10h151v-132h-159v-259q0-12 3.5-15.5t14.5-4.5l127-13v-104h-356v386q0 10-8 10h-76zM298 528h76v41q0 28-9.5 38t-32.5 10q-42 0-42-45v-34q0-10 8-10z" glyph-name="ff" horiz-adv-x="763" unicode="&#x66;&#x66;"/><glyph d="M639 0h-265v378q0 11-2.5 14.5t-12.5 3.5h-69v-262q0-14 3-18t15-6l38-6v-104h-332v105l49 6q16 2 16 23v252q0 10-8 10h-62v132h70v26q0 119 70 166t199 47q118 0 178-38t61-142l-196-23q1 45-10 61t-45 16q-46 0-46-49v-54q0-10 9-10h286v-397q0-12 2.5-15.5t13.5-4.5l38-7v-104z" glyph-name="fi" horiz-adv-x="644" unicode="&#x66;&#x69;"/><glyph d="M640 0h-266v597q0 24-8 34t-31 10q-45 0-45-65v-38q0-10 9-10h47v-132h-56v-264q0-12 3.5-15.5t15.5-5.5l43-7v-104h-338v105l49 6q16 1 16 20v255q0 10-8 10h-62v132h70v15q0 125 64.5 174.5t216.5 49.5q40 0 69-2.5t60.5-11 51-23.5 32-41.5 12.5-63.5v-494q0-12 2.5-15.5t13.5-4.5l39-7v-104z" glyph-name="fl" horiz-adv-x="645" unicode="&#x66;&#x6c;"/><glyph d="M934 0h-265v378q0 11-2.5 14.5t-12.5 3.5h-69v-262q0-14 3-18t15-6l38-6v-104h-267v386q0 10-8 10h-76v-267q0-17 12-19l36-6v-104h-324v105l49 6q10 1 13 5t3 16v254q0 10-8 10h-62v132h70v10q0 111 60 158.5t179 47.5q75 0 122-27 65 50 203 50 118 0 178-38t61-142l-196-23q1 45-10 61t-45 16q-46 0-46-49v-54q0-10 9-10h286v-397q0-12 2.5-15.5t13.5-4.5l38-7v-104zM298 528h76v38q0 31-9 41t-33 10q-42 0-42-45v-34q0-10 8-10z" glyph-name="ffi" horiz-adv-x="939" unicode="&#x66;&#x66;&#x69;"/><glyph d="M935 0h-266v597q0 24-8 34t-31 10q-45 0-45-65v-38q0-10 9-10h47v-132h-56v-264q0-12 3.5-15.5t15.5-5.5l43-7v-104h-273v386q0 10-8 10h-76v-267q0-17 12-19l36-6v-104h-324v105l49 6q10 1 13 5t3 16v254q0 10-8 10h-62v132h70v10q0 111 60 158.5t179 47.5q73 0 120-27 62 50 217 50 40 0 69-2.5t60.5-11 51-23.5 32-41.5 12.5-63.5v-494q0-12 2.5-15.5t13.5-4.5l39-7v-104zM290 538q0-10 8-10h76v31q0 35-8.5 46.5t-33.5 11.5q-42 0-42-45v-34z" glyph-name="ffl" horiz-adv-x="939" unicode="&#x66;&#x66;&#x6c;"/><glyph d="M668-8l1 386q0 11-2.5 14.5t-12.5 3.5h-69v-262q0-14 3-18t15-6l38-6v-104h-267v386q0 10-8 10h-76v-267q0-17 12-19l36-6v-104h-324v105l49 6q10 1 13 5t3 16v254q0 10-8 10h-62v132h70v10q0 111 60 158.5t179 47.5q75 0 122-27 65 50 203 50 118 0 178-38t61-142l-196-23q1 45-10 61t-45 16q-46 0-46-49v-54q0-10 9-10h285v-568q0-183-204-183-66 0-119 20.5t-75 38.5l50 108q47-22 85-22 27 0 39.5 13t12.5 57zM290 538q0-10 8-10h76v38q0 31-9 41t-33 10q-42 0-42-45v-34z" glyph-name="ffj" horiz-adv-x="936" unicode="&#x66;&#x66;&#x6a;"/><glyph d="M1248 0h-240l-104 240-24-24v-85q0-12 2.5-15.5t13.5-4.5l38-7v-104h-265v597q0 24-8 34t-31 10q-45 0-45-65v-38q0-10 9-10h47v-132h-56v-264q0-12 3.5-15.5t15.5-5.5l43-7v-104h-273v386q0 10-8 10h-76v-267q0-17 12-19l36-6v-104h-324v105l49 6q10 1 13 5t3 16v254q0 10-8 10h-62v132h70v10q0 111 60 158.5t179 47.5q73 0 120-27 62 50 217 50 40 0 69-2.5t60.5-11 51-23.5 32-41.5 12.5-63.5v-242l154 145h165v-104l-47-7q-13-2-25-15l-51-49 104-227q8-16 30-19l38-5v-102zM290 538q0-10 8-10h76v31q0 35-8.5 46.5t-33.5 11.5q-42 0-42-45v-34z" glyph-name="ffk" horiz-adv-x="1252" unicode="&#x66;&#x66;&#x6b;"/><glyph d="M877 625v-138l7-1q52 53 132 53 86 0 141.5-63.5t55.5-201.5q0-148-57.5-217t-159.5-69q-44 0-80.5 19t-51.5 43l-8-2-6-48h-181v597q0 24-8 34t-31 10q-45 0-45-65v-38q0-10 9-10h47v-132h-56v-264q0-12 3.5-15.5t15.5-5.5l43-7v-104h-273v386q0 10-8 10h-76v-267q0-17 12-19l36-6v-104h-324v105l49 6q10 1 13 5t3 16v254q0 10-8 10h-62v132h70v10q0 111 60 158.5t179 47.5q73 0 120-27 62 50 217 50 40 0 68.5-2.5t59.5-11 50-23.5 31.5-41.5 12.5-63.5zM879 364v-205q17-11 47-11 29 0 46.5 31.5t17.5 87.5q0 111-64 111-24 0-47-14zM290 538q0-10 8-10h76v31q0 35-8.5 46.5t-33.5 11.5q-42 0-42-45v-34z" glyph-name="ffb" horiz-adv-x="1234" unicode="&#x66;&#x66;&#x62;"/><glyph d="M877 625v-140l6-2q53 56 136 56 74 0 109-41t35-127v-240q0-12 2.5-15.5t13.5-4.5l43-7v-104h-270v339q0 23-5 33t-20 10q-19 0-47-13v-239q0-12 2.5-16t12.5-5l34-5v-104h-260v597q0 24-8 34t-31 10q-45 0-45-65v-38q0-10 9-10h47v-132h-56v-264q0-12 3.5-15.5t15.5-5.5l43-7v-104h-273v386q0 10-8 10h-76v-267q0-17 12-19l36-6v-104h-324v105l49 6q10 1 13 5t3 16v254q0 10-8 10h-62v132h70v10q0 111 60 158.5t179 47.5q73 0 120-27 62 50 217 50 40 0 68.5-2.5t59.5-11 50-23.5 31.5-41.5 12.5-63.5zM298 528h76v31q0 35-8.5 46.5t-33.5 11.5q-42 0-42-45v-34q0-10 8-10z" glyph-name="ffh" horiz-adv-x="1222" unicode="&#x66;&#x66;&#x68;"/><glyph d="M1012 151l33-115q-90-48-187-48-104 0-146.5 44t-42.5 144v207q0 13-15 13h-69v-262q0-14 3-18t15-6l38-6v-104h-267v386q0 10-8 10h-76v-267q0-17 12-19l36-6v-104h-324v105l49 6q10 1 13 5t3 16v254q0 10-8 10h-62v132h70v10q0 111 60 158.5t179 47.5q75 0 122-27 65 50 203 50 118 0 178-38t61-142l-196-23q1 45-10 61t-45 16q-46 0-46-49v-54q0-10 9-10h420v-132h-134v-182q0-44 11-60t48-16q38 0 73 13zM290 538q0-10 8-10h76v38q-1 31-9.5 41t-32.5 10q-42 0-42-45v-34z" glyph-name="fft" horiz-adv-x="1063" unicode="&#x66;&#x66;&#x74;"/><glyph d="M659 0h-265v375q0 13-3.5 17t-14.5 4h-66v-264q0-13 3.5-17.5t14.5-5.5l31-5v-104h-325v105l47 6q10 1 14 6t4 16v253q0 10-8 10h-62v132h70v40q0 110 49 154.5t146 44.5q62 0 104-14l-16-114q-22 8-39 8-19 0-26-10.5t-7-33.5v-60q0-9 2-12t11-3h282v-397q0-12 2.5-15.5t13.5-4.5l38-7v-104zM656 707l-181-152-74 64 152 183z" glyph-name="f_iacute" horiz-adv-x="641" unicode="&#x66;&#x26;&#x23;&#x78;&#x65;&#x64;&#x3b;"/><glyph d="M707 151l33-115q-90-48-187-48-92 0-136 34-82-34-159-34-104 0-146.5 44t-42.5 144v210q0 10-8 10h-68v122q74 7 111.5 51t45.5 131h130v-162q0-10 10-10h31q54 0 85.5 48t38.5 124h130v-162q0-10 10-10h134v-132h-144v-182q0-44 11-60t48-16q38 0 73 13zM332 136q15 0 33 4-1 11-1 36v210q0 10-8 10h-76v-182q0-26 1-36.5t5.5-22.5 15.5-15.5 30-3.5z" glyph-name="tt" horiz-adv-x="758" unicode="&#x74;&#x74;"/><glyph glyph-name=".notdef" horiz-adv-x="500"/><glyph glyph-name=".null" horiz-adv-x="0"/><glyph glyph-name="nonmarkingreturn" horiz-adv-x="333"/><glyph glyph-name="space" horiz-adv-x="182" unicode="&#x20;"/><glyph d="M251 206h-177l-22 331v187h221v-187zM268 81q0-93-105-93-106 0-106 93t106 93q105 0 105-93z" glyph-name="exclam" horiz-adv-x="321" unicode="&#x21;"/><glyph d="M203 447h-180v259h180v-259zM436 447h-180v259h180v-259z" glyph-name="quotedbl" horiz-adv-x="459" unicode="&#x22;"/><glyph d="M419 0h-136l15 103h-52l-15-103h-136l15 103h-84l28 137h77l12 78h-85l28 137h77l14 88h136l-14-88h52l15 88h135l-14-88h88l-27-137h-81l-12-78h88l-27-137h-82zM319 240l12 78h-52l-12-78h52z" glyph-name="numbersign" horiz-adv-x="607" unicode="&#x23;"/><glyph d="M511 214q0-82-41.5-132.5t-112.5-69.5v-92h-193v84q-80 7-135 33v176l152-10 10-63q1-15 14-18 17-6 47-6 31 0 50 15t19 41q0 23-22 38t-55 22.5-72 21.5-72 31.5-55 55.5-22 91q0 155 154 198v85h193v-76q49-6 124-26v-179l-151 7-11 62q-2 10-6 13.5t-14 5.5q-12 2-33 2-29 0-47.5-12t-18.5-35q0-20 22-34.5t55-22.5 72-23 72-34 55-57.5 22-91.5z" glyph-name="dollar" horiz-adv-x="534" unicode="&#x24;"/><glyph d="M196 257q-176 0-176 176 0 187 184 187 176 0 176-174 0-89-46.5-139t-137.5-50zM374-12h-192l374 632h191zM202 361q30 0 30 81 0 42-7.5 57.5t-23.5 15.5q-31 0-31-73 0-81 32-81zM729-12q-177 0-177 176 0 187 185 187 175 0 175-174 0-89-46-139t-137-50zM734 92q15 0 22.5 17t7.5 64q0 73-30 73-31 0-31-73 0-81 31-81z" glyph-name="percent" horiz-adv-x="932" unicode="&#x25;"/><glyph d="M703 0h-211l-36 40q-75-52-190-52-107 0-171.5 54t-64.5 154q0 121 126 199-32 47-32 103 0 92 59 139t162 47q59 0 115-15t89-37v-180l-147 5-13 67q-3 11-11 12-6 1-16 1-36 0-36-39 0-29 29-65l94-112 17 66h201v-100l-46-9q-9-2-12-4.5t-5-12.5q-10-39-29-82l54-60q8-8 19-9l55-8v-102zM349 156l-108 123q-29-27-29-68 0-35 20.5-55t54.5-20 62 20z" glyph-name="ampersand" horiz-adv-x="728" unicode="&#x26;"/><glyph d="M203 447h-180v259h180v-259z" glyph-name="quotesingle" horiz-adv-x="226" unicode="&#x27;"/><glyph d="M367-97l-159-91q-77 90-127.5 215t-50.5 253q0 249 187 479l157-92q-117-159-117-387 0-116 26.5-200.5t83.5-176.5z" glyph-name="parenleft" horiz-adv-x="412" unicode="&#x28;"/><glyph d="M192-188l-156 93q119 161 119 388 0 118-26.5 201.5t-82.5 173.5l159 91q76-90 126-214t50-252q0-251-189-481z" glyph-name="parenright" horiz-adv-x="412" unicode="&#x29;"/><glyph d="M187 370l-111 80 44 61 94 46-103-22-72 23 41 129 72-24 72-75-51 92v75h135v-75l-50-92h-34l-10-31 27-19-10-105zM407 450l-112-80-43 63-11 105 27 19-10 31 72 75 72 24 41-129-72-23-103 22 94-46z" glyph-name="asterisk" horiz-adv-x="482" unicode="&#x2a;"/><glyph d="M362 114h-156v134h-120v153h120v130h156v-130h121v-153h-121v-134z" glyph-name="plus" unicode="&#x2b;"/><glyph d="M166-121l-88 24 25 110q3 10-6 13l-47 13 22 134q39 0 65.5-2.5t53-11 39.5-28 13-49.5q0-26-25-86z" glyph-name="comma" horiz-adv-x="286" unicode="&#x2c;"/><glyph d="M296 207h-271v165h271v-165z" glyph-name="hyphen" horiz-adv-x="321" unicode="&#x2d;"/><glyph d="M256 81q0-93-105-93-106 0-106 93t106 93q105 0 105-93z" glyph-name="period" horiz-adv-x="301" unicode="&#x2e;"/><glyph d="M203-92h-193l283 847h192z" glyph-name="slash" horiz-adv-x="505" unicode="&#x2f;"/><glyph d="M300-12q-148 0-211.5 75.5t-63.5 232.5q0 152 69.5 227.5t218.5 75.5 212.5-74.5 63.5-224.5q0-160-69-236t-220-76zM308 130q29 0 42.5 33.5t13.5 131.5q0 95-13 127t-41 32q-30 0-44.5-32.5t-14.5-125.5q0-99 13-132.5t44-33.5z" glyph-name="zero" horiz-adv-x="614" unicode="&#x30;"/><glyph d="M422 0h-390v104l71 7q10 1 13 4.5t3 15.5v304q0 17-12 21l-79 20 15 107h287v-452q0-12 2.5-15.5t13.5-4.5l76-7v-104z" glyph-name="one" horiz-adv-x="427" unicode="&#x31;"/><glyph d="M534 0h-503v124l130 130q82 82 104.5 110.5t22.5 56.5q0 33-31 33-25 0-34.5-16t-9.5-59l-188 15q1 205 255 205 219 0 219-163 0-30-7.5-55.5t-28-53.5-33-42.5-47.5-50.5l-108-108h88q10 0 13 13l12 63h146v-202z" glyph-name="two" horiz-adv-x="564" unicode="&#x32;"/><glyph d="M394 272v-4q63-8 98-47t35-107q0-103-72.5-150t-191.5-47q-82 0-153 26t-115 73l106 117q33-31 63.5-47.5t75.5-16.5q79 0 79 65 0 58-62 58-35 0-78-9v132l39 5q89 10 89 93 0 41-39 41-27 0-37-15.5t-10-59.5l-190 15q0 63 21.5 106t60 63.5 77.5 28 88 7.5q124 0 177.5-41t53.5-133q0-62-34.5-101.5t-80.5-51.5z" glyph-name="three" horiz-adv-x="550" unicode="&#x33;"/><glyph d="M515-67h-190v111h-292v141l181 427 169-74-155-334h97v126l189 31v-157h77v-160h-76v-111z" glyph-name="four" horiz-adv-x="612" unicode="&#x34;"/><glyph d="M486 420h-257l-11-94 4-3q55 34 119 34 91 0 142-51.5t51-154.5q0-100-69.5-167t-196.5-67q-187 0-274 101l103 116q71-65 148-65 39 0 60 21t21 56q0 64-63 64-43 0-69-38l-134 53 24 358h253q11 0 14 13l13 55 122 9v-240z" glyph-name="five" horiz-adv-x="574" unicode="&#x35;"/><glyph d="M556 478l-196-23q0 43-9 57.5t-39 14.5q-33 0-50-32t-20-106q53 20 118 20 93 0 150.5-45t57.5-148q0-64-21.5-110t-59.5-71-83.5-36-101.5-11q-147 0-210.5 85t-63.5 244q0 48 8 94t28.5 92.5 51.5 81 81 56.5 114 22q245 0 245-185zM242 266q2-70 15.5-99t48.5-29q48 0 48 71 0 38-11.5 54t-41.5 16q-26 0-59-13z" glyph-name="six" horiz-adv-x="587" unicode="&#x36;"/><glyph d="M348-67h-222q8 95 35 181.5t63 147.5 63 97 53 61h-140q-11 0-14-12l-14-76-147-11v262h523v-143q-191-214-200-507z" glyph-name="seven" horiz-adv-x="548" unicode="&#x37;"/><glyph d="M432 345q49-30 75-64.5t26-90.5q0-102-74.5-152t-197.5-50q-246 0-246 180 0 83 86 155-69 55-69 140 0 94 66.5 147t176.5 53q108 0 167.5-44t59.5-128-70-146zM215 259q-35-36-35-78 0-63 78-63 67 0 67 50 0 9-3 17t-10 15-14 13-19 13-20 11-22.5 11-21.5 11zM307 404q32 41 32 75 0 23-15 38.5t-44 15.5q-53 0-53-47 0-44 80-82z" glyph-name="eight" horiz-adv-x="547" unicode="&#x38;"/><glyph d="M39 0l83 120q66-54 135-54 45 0 66 26t25 101q-57-21-113-21-54 0-99.5 17.5t-78.5 64-33 116.5q0 113 69.5 171t188.5 58q146 0 214-84t68-233q0-364-294-364-66 0-130.5 23t-100.5 59zM348 313q-3 69-17.5 103t-45.5 34q-47 0-47-71 0-80 55-80 24 0 55 14z" glyph-name="nine" horiz-adv-x="587" unicode="&#x39;"/><glyph d="M256 81q0-93-105-93-106 0-106 93t106 93q105 0 105-93zM256 446q0-93-105-93-106 0-106 93t106 93q105 0 105-93z" glyph-name="colon" horiz-adv-x="301" unicode="&#x3a;"/><glyph d="M166-121l-88 24 25 110q3 10-6 13l-47 13 22 134q39 0 65.5-2.5t53-11 39.5-28 13-49.5q0-26-25-86zM261 446q0-93-105-93-106 0-106 93t106 93q105 0 105-93z" glyph-name="semicolon" horiz-adv-x="286" unicode="&#x3b;"/><glyph d="M457 74l-402 130v180l404 129 41-148-268-71 269-75z" glyph-name="less" unicode="&#x3c;"/><glyph d="M483 100h-398v152h398v-152zM483 311h-398v152h398v-152z" glyph-name="equal" unicode="&#x3d;"/><glyph d="M501 204l-401-130-44 145 269 75-268 71 41 148 403-129v-180z" glyph-name="greater" unicode="&#x3e;"/><glyph d="M340 206h-211v187q31 2 50.5 4.5t47.5 7 46 13 35.5 20.5 26 31 8.5 43q0 34-17 50t-42 16q-24 0-41-5-14-4-15-19l-11-81-172-14v214q133 51 253 51 262 0 262-218 0-95-53-159t-167-74v-67zM340 81q0-93-105-93-106 0-106 93t106 93q105 0 105-93z" glyph-name="question" horiz-adv-x="580" unicode="&#x3f;"/><glyph d="M600-58l28-103q-79-35-207-35-168 0-263.5 92t-95.5 262q0 188 108.5 299t289.5 111q157 0 251.5-84t94.5-236q0-129-56-194.5t-156-65.5q-40 0-66.5 11.5t-44.5 44.5q-52-56-114-56-53 0-87 37.5t-34 106.5q0 110 60.5 187.5t163.5 77.5q73 0 145-32l-20-127q-12-74-12-109 0-21 7.5-30.5t29.5-9.5q25 0 39 24 23 48 23 136 0 96-57 153t-176 57q-71 0-124.5-27t-82.5-72-43-95.5-14-106.5q0-116 64-181.5t185-65.5q79 0 164 31zM463 126l29 177q-10 8-27 8-35 0-63.5-43t-28.5-116q0-55 29-55 28 0 61 29z" glyph-name="at" horiz-adv-x="853" unicode="&#x40;"/><glyph d="M807 0h-385v103l80 9-18 49h-216l-17-49 78-9v-103h-331v103l46 11q20 5 25 19l217 591h238l212-593q4-12 24-17l47-11v-103zM447 304l-65 210h-7l-68-210h140z" glyph-name="A" horiz-adv-x="805" unicode="&#x41;"/><glyph d="M376 0h-360v103l63 7q10 1 13 5t3 15v462q0 12-3 15.5t-13 4.5l-63 7v105h374q222 0 222-177 0-66-35-108.5t-87-59.5v-3q164-19 164-174 0-105-75.5-153.5t-202.5-48.5zM311 143h24q49 0 72 19.5t23 65.5-22.5 61.5-62.5 15.5h-34v-162zM311 435h-7q54 0 80 14.5t26 59.5q0 23-7 38t-21.5 21.5-26 8-29.5 1.5h-15v-143z" glyph-name="B" horiz-adv-x="667" unicode="&#x42;"/><glyph d="M636 266v-220q-46-27-118-42.5t-142-15.5q-361 0-361 375 0 168 99.5 271t286.5 103q61 0 125.5-15.5t108.5-43.5v-232l-153 12-15 98q-3 15-15 19-20 5-54 5-75 0-116.5-54t-41.5-163q0-112 39.5-166.5t111.5-54.5q37 0 60 5 12 2 15.5 5.5t5.5 17.5l15 96h149z" glyph-name="C" horiz-adv-x="681" unicode="&#x43;"/><glyph d="M348 0h-332v105l63 7q10 1 13 4.5t3 15.5v461q0 11-3 15t-13 5l-63 7v104h349q183 0 271-91.5t88-259.5q0-173-94-273t-282-100zM312 143h14q55 0 91.5 17t54.5 50 25 70 7 89q0 112-39.5 161.5t-141.5 49.5h-11v-437z" glyph-name="D" horiz-adv-x="738" unicode="&#x44;"/><glyph d="M600 0h-584v103l63 7q10 1 13 5t3 15v463q0 12-3 15.5t-13 4.5l-63 7v104h562v-239l-153 6-14 75q-3 13-17 13h-82v-142h202v-151h-202v-142h104q14 0 16 11l16 88h152v-243z" glyph-name="E" horiz-adv-x="627" unicode="&#x45;"/><glyph d="M475 0h-459v103l63 7q10 1 13 5t3 15v463q0 12-3 15.5t-13 4.5l-63 7v104h558v-239l-153 6-14 75q-3 13-17 13h-78v-142h198v-151h-198v-154q0-12 2.5-15.5t13.5-4.5l147-8v-104z" glyph-name="F" horiz-adv-x="608" unicode="&#x46;"/><glyph d="M713 257l-40-4q-16-1-16-14v-196q-115-55-279-55-363 0-363 373 0 169 100 272.5t290 103.5q54 0 118-15t112-46v-221l-154 13-14 86q-2 12-5 15.5t-12 5.5q-18 5-55 5-74 0-114-58.5t-40-155.5q0-223 147-223 23 0 36 1 17 1 17 21v82h-86l17 115h341v-105z" glyph-name="G" horiz-adv-x="723" unicode="&#x47;"/><glyph d="M816 0h-379v103l63 7q10 1 13 5t3 15v164h-204v-163q0-12 2.5-15.5t13.5-4.5l67-8v-103h-379v103l63 7q10 1 13 5t3 15v462q0 12-3 15.5t-13 4.5l-63 7v105h379v-105l-67-8q-11-1-13.5-4.5t-2.5-14.5v-146h204v146q0 12-3 15.5t-13 4.5l-63 7v105h379v-105l-67-8q-11-1-13.5-4.5t-2.5-14.5v-461q0-12 2.5-15.5t13.5-4.5l67-8v-103z" glyph-name="H" horiz-adv-x="828" unicode="&#x48;"/><glyph d="M410 0h-399v103l73 8q10 1 13 4.5t3 15.5v461q0 12-3 15.5t-13 4.5l-73 7v105h399v-105l-77-8q-11-1-13.5-4.5t-2.5-14.5v-461q0-12 2.5-15.5t13.5-4.5l77-8v-103z" glyph-name="I" horiz-adv-x="417" unicode="&#x49;"/><glyph d="M224 174v419q0 17-16 18l-95 8v105h411v-105l-67-8q-11-1-13.5-4.5t-2.5-14.5v-414q0-97-50.5-143.5t-161.5-46.5q-61 0-123 13t-88 30v217l154-11 10-71q1-10 6-12.5t17-2.5q10 0 14.5 4.5t4.5 18.5z" glyph-name="J" horiz-adv-x="529" unicode="&#x4a;"/><glyph d="M776 0h-284l-132 237-48-64v-41q0-12 2.5-15.5t13.5-4.5l67-8v-104h-379v104l63 7q10 1 13 4.5t3 15.5v462q0 11-3 15t-13 5l-63 7v104h379v-104l-67-8q-11-1-13.5-4.5t-2.5-14.5v-214l194 232-62 8v105h299v-105l-34-5q-20-3-31-18l-151-182 153-278q6-11 12.5-15.5t19.5-6.5l64-10v-104z" glyph-name="K" horiz-adv-x="770" unicode="&#x4b;"/><glyph d="M600 0h-584v104l63 7q10 1 13 5t3 15v462q0 12-3 15.5t-13 4.5l-63 7v104h395v-104l-83-8q-11-1-13.5-4.5t-2.5-14.5v-449h103q14 0 16 11l16 109h153v-264z" glyph-name="L" horiz-adv-x="629" unicode="&#x4c;"/><glyph d="M970 0h-387v103l82 7q10 1 13 5t3 15v260h-7l-90-263h-222l-97 257h-7v-253q0-12 2.5-15.5t13.5-4.5l85-8v-103h-343v103l63 7q10 1 13 4.5t3 15.5v463q0 11-3 15t-13 5l-63 7v104h324l151-426h8l146 426h325v-103l-67-8q-11-1-13.5-4.5t-2.5-14.5v-464q0-18 16-19l67-8v-103z" glyph-name="M" horiz-adv-x="982" unicode="&#x4d;"/><glyph d="M738 0h-220l-272 440v-309q0-12 2.5-15.5t13.5-4.5l67-8v-103h-313v103l63 7q10 1 13 5t3 15v464q0 12-3 15.5t-13 4.5l-63 7v103h298l274-445v313q0 12-3 15.5t-13 4.5l-63 7v105h312v-105l-67-8q-11-1-13.5-4.5t-2.5-14.5v-592z" glyph-name="N" horiz-adv-x="831" unicode="&#x4e;"/><glyph d="M367-12q-181 0-266.5 98.5t-85.5 268.5 94 276 272 106q176 0 263.5-102.5t87.5-264.5q0-180-91.5-281t-273.5-101zM376 156q64 0 98.5 45.5t34.5 159.5q0 111-33 159.5t-96 48.5q-142 0-142-209 0-113 35.5-158.5t102.5-45.5z" glyph-name="O" horiz-adv-x="747" unicode="&#x4f;"/><glyph d="M470 0h-454v104l63 7q10 1 13 5t3 15v461q0 12-3 15.5t-13 4.5l-63 7v105h369q129 0 185-58.5t56-154.5q0-128-71.5-189.5t-202.5-61.5h-41v-128q0-12 2.5-15.5t13.5-4.5l143-8v-104zM311 402h4q89 0 89 95 0 28-8 46t-23 25-25 8.5-24 1.5h-13v-176z" glyph-name="P" horiz-adv-x="641" unicode="&#x50;"/><glyph d="M601-66l38-113q-96-52-184-52-96 0-137.5 46.5t-41.5 120.5q0 31 4 59-136 22-200.5 117t-64.5 243q0 170 94 276t272 106q91 0 159.5-28.5t109.5-80 61.5-116 20.5-142.5q0-153-65.5-249.5t-195.5-122.5q-2-10-2-24 0-31 11.5-43.5t43.5-12.5 77 16zM376 156q64 0 98.5 45.5t34.5 159.5q0 111-32.5 159.5t-95.5 48.5q-143 0-143-209 0-113 35.5-158.5t102.5-45.5z" glyph-name="Q" horiz-adv-x="746" unicode="&#x51;"/><glyph d="M700 0h-274l-69 236q-8 28-18 38t-28 10v-151q0-12 3-15.5t15-5.5l39-7v-105h-352v105l63 7q10 1 13 4.5t3 15.5v461q0 11-3 15t-13 5l-63 7v104h376q127 0 183-55.5t56-149.5q0-136-118-186 40-19 58-78l35-117q7-19 32-23l62-10v-105zM311 420h5q21 0 34.5 2.5t28.5 10 22 25.5 7 47q0 39-17 56t-57 17h-23v-158z" glyph-name="R" horiz-adv-x="700" unicode="&#x52;"/><glyph d="M555 472l-158 13-8 78q-1 11-4.5 14t-11.5 5q-22 3-48 3-34 0-52.5-15t-18.5-39q0-15 7.5-26.5t27.5-20.5 32.5-13 45.5-14q37-11 59-18.5t55-25.5 51.5-39.5 32.5-58 14-82.5q0-123-83-184t-214-61q-64 0-138 13.5t-110 30.5v226h157l21-100q2-14 17-16 36-4 53-4 44 0 66.5 16t22.5 44q0 17-8 29t-29.5 21.5-34.5 13-47 12.5q-46 11-73.5 21.5t-62.5 34-52.5 64-17.5 98.5q0 119 78.5 182t205.5 63q120 0 225-45v-220z" glyph-name="S" horiz-adv-x="601" unicode="&#x53;"/><glyph d="M605 0h-462v104l103 8q10 1 13 4.5t3 15.5v446h-52q-14 0-16-11l-16-87h-153v244h688v-244h-151l-16 87q-2 11-16 11h-51v-446q0-11 2.5-14.5t13.5-4.5l110-9v-104z" glyph-name="T" horiz-adv-x="738" unicode="&#x54;"/><glyph d="M516 313v280q0 12-3 15.5t-13 4.5l-63 7v104h343v-104l-67-8q-11-1-13.5-4.5t-2.5-14.5v-316q0-289-302-289-161 0-235 70t-74 225v310q0 12-3 15.5t-13 4.5l-63 7v104h379v-104l-67-8q-11-1-13.5-4.5t-2.5-14.5v-275q0-35 1-53.5t6.5-41.5 16.5-34 32-19 51-8q64 0 85 33.5t21 117.5z" glyph-name="U" horiz-adv-x="783" unicode="&#x55;"/><glyph d="M544 0h-285l-185 593q-4 12-24 17l-45 11 10 103h369v-103l-79-9 111-403h13l111 403-79 9 10 103h303v-103l-42-11q-22-5-25-19z" glyph-name="V" horiz-adv-x="778" unicode="&#x56;"/><glyph d="M899 0h-285l-63 285h-10l-55-285h-279l-136 588q-4 16-16 19l-51 14 10 103h352v-103l-78-9 77-417h13l93 407h204l92-405h13l76 415-78 9 10 103h301v-103l-50-13q-15-4-19-19z" glyph-name="W" horiz-adv-x="1093" unicode="&#x57;"/><glyph d="M833 0h-409v103l82 9-107 126-107-126 80-9v-103h-339v102l62 12q17 3 30 19l185 211-211 249q-8 13-24 17l-57 11 10 103h396v-103l-81-9 111-133 118 133-81 9 10 103h313v-103l-51-11q-16-4-28-19l-191-216 209-244q13-15 28-18l52-10v-103z" glyph-name="X" horiz-adv-x="847" unicode="&#x58;"/><glyph d="M617 0h-467v104l105 8q10 1 13 4.5t3 15.5v128l-196 333q-8 13-21 16l-48 12 10 103h362v-103l-71-9 86-171h13l88 171-71 9 10 103h295v-103l-46-12q-13-3-22-20l-172-328v-129q0-11 2.5-14.5t13.5-4.5l113-9v-104z" glyph-name="Y" horiz-adv-x="734" unicode="&#x59;"/><glyph d="M665 0h-614v134l332 445h-142q-14 0-16-11l-19-92-149-5v253h582v-138l-324-442h167q14 0 16 11l19 107h148v-262z" glyph-name="Z" horiz-adv-x="700" unicode="&#x5a;"/><glyph d="M335-143h-285v867h285v-99l-63-13q-16-3-16-21v-601q0-18 16-21l63-13v-99z" glyph-name="bracketleft" horiz-adv-x="371" unicode="&#x5b;"/><glyph d="M493-92h-193l-280 847h192z" glyph-name="backslash" horiz-adv-x="503" unicode="&#x5c;"/><glyph d="M321-143h-285v99l63 13q16 3 16 21v601q0 18-16 21l-63 13v99h285v-867z" glyph-name="bracketright" horiz-adv-x="371" unicode="&#x5d;"/><glyph d="M639 299h-199l-108 195-105-195h-197l197 365h213z" glyph-name="asciicircum" horiz-adv-x="669" unicode="&#x5e;"/><glyph d="M500-181h-500v146h500v-146z" glyph-name="underscore" horiz-adv-x="500" unicode="&#x5f;"/><glyph d="M385 621l-74-64-181 152 104 95z" glyph-name="grave" horiz-adv-x="500" unicode="&#x60;"/><glyph d="M573 0h-228l-11 50-7 2q-60-64-155-64-152 0-152 159 0 73 46.5 108t145.5 42l95 7v56q0 16-1 24t-10 16.5-26 8.5q-22 0-29.5-11.5t-7.5-44.5l-196 14q0 172 238 172 126 0 181.5-40.5t55.5-145.5v-221q0-12 2.5-15.5t13.5-4.5l45-8v-104zM307 130v79l-23-2q-49-4-49-45 0-38 40-38 14 0 32 6z" glyph-name="a" horiz-adv-x="574" unicode="&#x61;"/><glyph d="M238 0h-198q17 100 17 149v458q0 16-13 21l-50 19 14 108h257v-268l7-1q52 53 132 53 86 0 141.5-63.5t55.5-201.5q0-148-57.5-217t-159.5-69q-44 0-80.5 19t-51.5 43l-8-2zM267 364v-205q17-11 47-11 29 0 46.5 31.5t17.5 87.5q0 111-64 111-24 0-47-14z" glyph-name="b" horiz-adv-x="622" unicode="&#x62;"/><glyph d="M455 163l47-118q-93-57-208-57-137 0-208 74t-71 193q0 135 78 209.5t207 74.5q59 0 116-15.5t88-37.5v-181l-147 5-12 67q-4 16-12 18-13 4-33 4-27 0-45.5-28.5t-18.5-92.5q0-81 27-110t70-29q47 0 122 24z" glyph-name="c" horiz-adv-x="534" unicode="&#x63;"/><glyph d="M626 0h-233l-10 50-8 2q-58-64-155-64-199 0-199 274 0 142 63.5 209.5t150.5 67.5q71 0 130-45v113q0 16-13 21l-51 19 14 108h250v-625q0-11 2.5-14.5t13.5-4.5l45-7v-104zM355 146v224q-18 10-36 10-38 0-56.5-33.5t-18.5-83.5q0-125 69-125 21 0 42 8z" glyph-name="d" horiz-adv-x="626" unicode="&#x64;"/><glyph d="M475 174l46-128q-128-58-230-58-145 0-210.5 75.5t-65.5 204.5q0 131 75.5 201t192.5 70q110 0 171.5-62.5t61.5-193.5q0-23-3-61h-276q6-79 83-79 53 0 155 31zM234 325h82q1 42-9.5 56.5t-30.5 14.5q-40 0-42-71z" glyph-name="e" horiz-adv-x="543" unicode="&#x65;"/><glyph d="M435 0h-421v105l49 6q10 1 13 5t3 16v254q0 10-8 10h-62v132h70v33q0 110 62.5 158t181.5 48q44 0 77.5-6.5t65-23.5 49-51.5 17.5-85.5l-195-23q1 37-4 50.5t-20 13.5q-23 0-23-46v-57q0-10 8-10h151v-132h-159v-259q0-12 3.5-15.5t14.5-4.5l127-13v-104z" glyph-name="f" horiz-adv-x="468" unicode="&#x66;"/><glyph d="M578 421l-87-1-5-5q34-43 34-97 0-75-63-119.5t-154-44.5q-33 0-70 5l-32-34 89-5q138-8 174-17 80-19 99-82 7-25 7-59 0-90-78.5-138.5t-218.5-48.5q-256 0-256 119 0 30 13.5 52t39.5 48q-46 20-46 69 0 31 23.5 56t80.5 67q-45 18-72 57.5t-27 96.5q0 85 64.5 142t186.5 57q62 0 100-11h198v-107zM346 339q0 32-17 50t-43 18q-27 0-44.5-17t-17.5-52q0-27 15.5-43t44.5-16q27 0 44.5 16.5t17.5 43.5zM309-45l-132 7q-15-18-15-34 0-39 123-39 85 0 85 35 0 27-61 31z" glyph-name="g" horiz-adv-x="594" unicode="&#x67;"/><glyph d="M619 0h-270v339q0 23-5 33t-20 10q-19 0-47-13v-239q0-12 2.5-16t12.5-5l34-5v-104h-316v104l40 7q10 1 13 5t3 15v476q0 17-13 21l-51 19 14 108h258v-270l6-2q53 56 136 56 74 0 109-41t35-127v-240q0-12 2.5-15.5t13.5-4.5l43-7v-104z" glyph-name="h" horiz-adv-x="619" unicode="&#x68;"/><glyph d="M276 693q0-56-30.5-86.5t-86.5-30.5q-55 0-86 31t-31 86 30.5 84.5 86.5 29.5 86.5-29.5 30.5-84.5zM330 0h-316v104l36 7q10 1 13 5t3 15v249q0 17-13 21l-51 19 14 108h261v-397q0-12 2.5-15.5t13.5-4.5l37-7v-104z" glyph-name="i" horiz-adv-x="336" unicode="&#x69;"/><glyph d="M64-8v388q0 15-14 21l-48 19 14 108h259v-568q0-183-204-183-66 0-119 20.5t-75 38.5l50 108q55-22 85-22 13 0 20 1.5t15.5 7.5 12.5 21 4 40zM274 693q0-56-31-86.5t-87-30.5q-55 0-85.5 31t-30.5 86 30.5 84.5 85.5 29.5q56 0 87-29.5t31-84.5z" glyph-name="j" horiz-adv-x="332" unicode="&#x6a;"/><glyph d="M645 0h-240l-104 240-24-24v-85q0-12 2.5-15.5t13.5-4.5l38-7v-104h-318v104l37 7q11 2 13.5 5.5t2.5 14.5v476q0 16-13 21l-51 19 14 108h261v-372l154 145h165v-104l-47-7q-13-2-25-15l-51-49 104-227q8-16 30-19l38-5v-102z" glyph-name="k" horiz-adv-x="649" unicode="&#x6b;"/><glyph d="M331 0h-318v104l37 7q11 2 13.5 5.5t2.5 14.5v476q0 16-13 21l-51 19 14 108h261v-624q0-12 2.5-15.5t13.5-4.5l38-7v-104z" glyph-name="l" horiz-adv-x="336" unicode="&#x6c;"/><glyph d="M866 0h-270v344q0 22-4.5 29.5t-16.5 7.5q-13 0-33-10v-240q0-13 2.5-17t13.5-6l18-4v-104h-245v342q0 38-22 38-14 0-32-9v-240q0-14 2-18t13-6l18-3v-104h-300v104l40 7q10 1 13 5t3 15v249q0 17-13 21l-51 19 14 108h220l8-44h7q62 55 138 55 92 0 126-57 66 57 146 57 75 0 110.5-40.5t35.5-127.5v-240q0-12 2.5-15.5t13.5-4.5l43-7v-104z" glyph-name="m" horiz-adv-x="866" unicode="&#x6d;"/><glyph d="M619 0h-270v336q0 25-6.5 35t-22.5 10q-18 0-43-12v-238q0-12 3-16t14-6l25-5v-104h-309v104l40 7q10 1 13 5t3 15v249q0 17-13 21l-50 19 14 108h219l8-44h7q76 55 163 55 75 0 110.5-40.5t35.5-127.5v-240q0-12 2.5-15.5t13.5-4.5l43-7v-104z" glyph-name="n" horiz-adv-x="619" unicode="&#x6e;"/><glyph d="M293-12q-278 0-278 276 0 129 72.5 202t215.5 73q142 0 209-72t67-196q0-134-71-208.5t-215-74.5zM298 128q61 0 61 139 0 73-15.5 101t-43.5 28q-64 0-64-130 0-77 16-107.5t46-30.5z" glyph-name="o" horiz-adv-x="594" unicode="&#x6f;"/><glyph d="M396-212h-394v105l38 6q11 2 15.5 6.5t4.5 15.5v459q0 16-13 21l-50 19 14 108h218l9-44 7-2q73 57 162 57 90 0 143-62.5t53-202.5q0-149-56-217.5t-146-69.5q-77 0-136 46v-110q0-12 3-15.5t14-4.5l114-11v-104zM269 366v-209q28-11 53-11 58 0 58 121 0 111-64 111-24 0-47-12z" glyph-name="p" horiz-adv-x="625" unicode="&#x70;"/><glyph d="M625-212h-364v105l98 8q23 1 23 17v128l-7 3q-61-61-147-61-96 0-151.5 66.5t-55.5 207.5q0 74 20 129.5t52.5 86.5 70 46 77.5 15q76 0 136-58l17 47h178q-8-124-8-185v-425q0-11 2.5-14.5t13.5-4.5l45-7v-104zM354 148v222q-23 10-43 10-33 0-50-34t-17-85q0-58 13-90t50-32q18 0 47 9z" glyph-name="q" horiz-adv-x="608" unicode="&#x71;"/><glyph d="M398 0h-388v105l40 7q10 1 13 5t3 15v248q0 16-13 21l-51 19 14 108h219l15-92h10q26 52 59 77.5t81 25.5q53 0 93-11v-211l-169 5-8 35q-4 14-13 14-10 0-26-8v-228q0-12 3-16t14-4l104-11v-104z" glyph-name="r" horiz-adv-x="513" unicode="&#x72;"/><glyph d="M482 367l-151 8-5 25q-2 10-11 13-18 6-48 6-51 0-51-27 0-10 6-17t22.5-12.5 26-8 36.5-7.5q33-6 52-11t49-17.5 46.5-29 29.5-45.5 13-67q0-94-67-141.5t-183-47.5q-142 0-214 38v128l147-9 6-30q2-14 15-17 17-5 55-5 56 0 56 35 0 18-20.5 26t-62.5 15q-3 0-5 .5t-5 1-5 .5q-31 5-51.5 10.5t-48.5 18-44.5 30-28.5 48-12 70.5q0 95 69.5 143t173.5 48q60 0 120-10t90-22v-140z" glyph-name="s" horiz-adv-x="515" unicode="&#x73;"/><glyph d="M412 151l33-115q-90-48-187-48-104 0-146.5 44t-42.5 144v210q0 10-8 10h-68v122q74 7 111.5 51t45.5 131h130v-162q0-10 10-10h134v-132h-144v-182q0-44 11-60t48-16q38 0 73 13z" glyph-name="t" horiz-adv-x="463" unicode="&#x74;"/><glyph d="M616 0h-230l-7 42-7 2q-70-56-165-56-75 0-110.5 41t-35.5 129v235q0 12-2.5 14.5t-13.5 4.5l-45 5 13 111h259v-338q0-27 6-37t23-10q21 0 43 12v238q0 12-2.5 14.5t-13.5 4.5l-26 5 13 111h240v-398q0-9 2.5-13t12.5-5l46-7v-105z" glyph-name="u" horiz-adv-x="619" unicode="&#x75;"/><glyph d="M455 0h-246l-149 394q-4 9-8 12t-13 5l-41 9 20 108h330v-108l-59-8 69-205h12l74 205-62 8 15 108h272v-108l-38-6q-20-3-25-17z" glyph-name="v" horiz-adv-x="667" unicode="&#x76;"/><glyph d="M757 0h-220l-56 273h-10l-49-273h-250l-111 392q-3 13-19 17l-44 11 20 108h305v-110l-47-6 47-202h12l64 306h201l68-307h10l44 203-49 6 15 110h231v-108l-36-7q-17-3-22-20z" glyph-name="w" horiz-adv-x="917" unicode="&#x77;"/><glyph d="M621 0h-326v103l29 9-41 55-58-54 40-9v-104h-249v103l34 7q15 3 31 17l121 116-135 150q-10 12-24 17l-37 11 10 107h314v-107l-32-8 46-53 58 53-42 8 10 107h238v-107l-44-10q-9-3-25-19l-113-108 133-154q14-18 29-20l33-6v-104z" glyph-name="x" horiz-adv-x="631" unicode="&#x78;"/><glyph d="M518-212h-395v107l78 10q23 2 33 22l27 57-201 410q-4 13-21 17l-41 9 20 108h319v-108l-59-8 87-189h12l76 189-62 8 15 108h253v-108l-32-6q-20-4-25-17l-195-490 111-13v-106z" glyph-name="y" horiz-adv-x="657" unicode="&#x79;"/><glyph d="M524 0h-492v114l236 293h-79q-11 0-14-13l-12-48-144-9v191h478v-116l-229-292h79q13 0 16 13l12 64 149 6v-203z" glyph-name="z" horiz-adv-x="547" unicode="&#x7a;"/><glyph d="M344-49l-10-102q-150-2-207 30t-57 121q0 26 7.5 81.5t7.5 98.5q0 30-11 42.5t-44 16.5v99q33 4 44 16.5t11 42.5q0 43-7.5 98t-7.5 81q0 89 57 121t207 30l10-102q-32-8-44-22.5t-12-49.5q0-25 9-75t9-79q0-86-58-111 58-25 58-110 0-28-9-79t-9-76q0-35 12-49.5t44-22.5z" glyph-name="braceleft" horiz-adv-x="384" unicode="&#x7b;"/><glyph d="M252-143h-192v898h192v-898z" glyph-name="bar" horiz-adv-x="312" unicode="&#x7c;"/><glyph d="M50-151l-10 102q32 8 44 22.5t12 49.5q0 25-9 76t-9 79q0 85 58 110-58 25-58 111 0 29 9 79t9 75q0 35-12 49.5t-44 22.5l10 102q150 2 207-30t57-121q0-26-7.5-81t-7.5-98q0-30 11-42.5t44-16.5v-99q-33-4-44-16.5t-11-42.5q0-43 7.5-98.5t7.5-81.5q0-89-57-121t-207-30z" glyph-name="braceright" horiz-adv-x="384" unicode="&#x7d;"/><glyph d="M436 495l103-40q-13-90-44.5-130t-83.5-40q-38 0-113 23t-103 23q-27 0-42.5-8t-28.5-35l-97 49q12 67 51.5 113.5t90.5 46.5q39 0 110-23t102-23q23 0 34.5 8.5t20.5 35.5z" glyph-name="asciitilde" horiz-adv-x="566" unicode="&#x7e;"/><glyph d="M75 310h177l22-331v-187h-221v187zM269 435q0-93-105-93-106 0-106 93t106 93q105 0 105-93z" glyph-name="exclamdown" horiz-adv-x="321" unicode="&#xa1;"/><glyph d="M30 288q0 92 43 155.5t124 88.5v114h193v-108q65-11 122-44v-169l-144 5-10 58q-3 14-11 17-11 5-30 5-31 0-45.5-27.5t-14.5-88.5q0-70 11.5-97.5t46.5-27.5q20 0 31 4 8 3 10 17l11 59 144 5v-169q-59-37-134-47v-105h-193v114q-154 43-154 241z" glyph-name="cent" horiz-adv-x="539" unicode="&#xa2;"/><glyph d="M552 0h-529l-19 121q26 7 39 17t21 37 8 78v9h-60v148h60v20q0 46 9.5 82.5t35 73 79.5 57 133 20.5q229 0 229-184l-190-24q0 41-7 55t-33 14q-47 0-47-80v-34h110v-148h-110q0-38-15.5-75t-39.5-61h151q11 0 14 13l15 73h146v-212z" glyph-name="sterling" horiz-adv-x="574" unicode="&#xa3;"/><glyph d="M554 93l-107-106-83 83q-49-22-106-22-60 0-108 23l-83-84-104 105 83 88q-17 44-17 98t18 93l-81 86 107 106 80-80q48 25 111 25t110-22l77 76 103-104-77-82q16-37 16-94 0-56-21-103zM262 191q33 0 51.5 24.5t18.5 62.5q0 85-72 85-34 0-52-23t-18-62q0-38 18-62.5t54-24.5z" glyph-name="currency" unicode="&#xa4;"/><glyph d="M572 197h-124v-66q0-11 2.5-14.5t13.5-4.5l112-8v-104h-466v104l105 7q16 1 16 17v69h-116v160h60l-106 156q-9 13-24 17l-45 11 10 103h332v-103l-49-9 68-116h6l73 116-50 9 10 103h275v-103l-42-11q-14-3-25-19l-104-154h68v-160z" glyph-name="yen" horiz-adv-x="675" unicode="&#xa5;"/><glyph d="M252-143h-192v388h192v-388zM252 420h-192v335h192v-335z" glyph-name="brokenbar" horiz-adv-x="312" unicode="&#xa6;"/><glyph d="M60-104v140l147-9 9-45q1-9 12-14 18-8 57-8 58 0 58 34 0 11-7 19t-25.5 14.5-30 9.5-41.5 9q-31 7-50.5 12.5t-47 18-43 27.5-27 41-11.5 59q0 80 72 141-51 41-51 114 0 86 66.5 132.5t167.5 46.5q59 0 119.5-10t89.5-22v-150l-147 8-6 36q-1 11-13 15-20 7-49 7-21 0-36.5-9t-15.5-24q0-17 20.5-26t62.5-19q9-2 14-3 39-10 64-19t56-27.5 47-48.5 16-72q0-89-61-133 40-37 40-95 0-94-62.5-141t-177.5-47q-70 0-134.5 13t-81.5 25zM301 277l-59 18q-19-19-19-39 0-16 18-25t56-19l50-14q25 15 25 37 0 14-16 22t-55 20z" glyph-name="section" horiz-adv-x="597" unicode="&#xa7;"/><glyph d="M226 672q0-38-23.5-61.5t-62.5-23.5q-38 0-62.5 23.5t-24.5 61.5q0 39 24 61.5t63 22.5 62.5-22.5 23.5-61.5zM441 672q0-38-23.5-61.5t-62.5-23.5-63 23.5-24 61.5q0 39 24 61.5t63 22.5 62.5-22.5 23.5-61.5z" glyph-name="dieresis" horiz-adv-x="500" unicode="&#xa8;"/><glyph d="M728 326q0-152-94-245t-245-93q-162 0-250.5 90.5t-88.5 233.5q0 155 97.5 246t243.5 91q156 0 246.5-87.5t90.5-235.5zM391 81q110 0 173 63.5t63 175.5-65 174-171 62q-105 0-171.5-65t-66.5-178q0-109 63-170.5t175-61.5zM515 268v-112q-41-24-117-24-185 0-185 182 0 91 48 140.5t139 49.5q63 0 116-20v-117h-66l-4 52q-20 8-44 8-41 0-60-25.5t-19-84.5q0-108 82-108 25 0 41 8l8 51h61z" glyph-name="copyright" horiz-adv-x="778" unicode="&#xa9;"/><glyph d="M425 281h-169l-7 35-5 1q-44-44-109-44-108 0-108 104 0 52 32.5 74.5t104.5 27.5l63 4v38q0 27-20 27-14 0-17.5-7t-2.5-28l-149 10q0 117 173 117 91 0 131.5-27t40.5-97v-142q0-8 2-10t9-3l31-5v-75zM227 370v51l-14-1q-28-2-28-29 0-24 25-24 6 0 17 3z" glyph-name="ordfeminine" horiz-adv-x="435" unicode="&#xaa;"/><glyph d="M257 103h-160l-84 152 89 153h162l-85-141q-6-9-1-19zM468 103h-160l-84 152 89 153h162l-85-141q-6-9-1-19z" glyph-name="guillemotleft" horiz-adv-x="495" unicode="&#xab;"/><glyph d="M473 152h-141v95h-256v153h397v-248z" glyph-name="logicalnot" unicode="&#xac;"/><glyph d="M296 207h-271v165h271v-165z" glyph-name="uni00AD" horiz-adv-x="311" unicode="&#xad;"/><glyph d="M428 480q0-86-55.5-140.5t-141.5-54.5q-92 0-144 53t-52 135q0 88 56.5 142t140.5 54q89 0 142.5-52t53.5-137zM370 477q0 66-38.5 102t-99.5 36q-60 0-99-38t-39-103q0-63 37-99t101-36 101 37 37 101zM328 384h-68l-17 59q-4 13-16 13h-8v-33q0-6 6-7l13-2v-30h-90v30l13 2q5 1 5 7v111q0 6-5 7l-13 2v32h90q73 0 73-54 0-39-33-49 13-4 19-20l10-30q2-5 8-6l13-2v-30zM219 493h14q25 0 25 23 0 21-24 21h-15v-44z" glyph-name="registered" horiz-adv-x="463" unicode="&#xae;"/><glyph d="M413 587h-327v130h327v-130z" glyph-name="macron" horiz-adv-x="500" unicode="&#xaf;"/><glyph d="M152 623q17 0 30.5 14.5t13.5 32.5-13.5 31.5-30.5 13.5q-16 0-30-14t-14-33q0-18 13-31.5t31-13.5zM278 670q0-55-36-90.5t-90-35.5q-55 0-90.5 35t-35.5 88q0 56 37 91.5t89 35.5q53 0 89.5-35t36.5-89z" glyph-name="degree" horiz-adv-x="304" unicode="&#xb0;"/><glyph d="M483 0h-397v152h397v-152zM362 139h-156v109h-120v153h120v130h156v-130h121v-153h-121v-109z" glyph-name="plusminus" unicode="&#xb1;"/><glyph d="M408 350h-384v95l148 146q58 58 58 86 0 22-22 22-29 0-29-49l-155 13q1 152 193 152 89 0 131.5-34.5t42.5-92.5-58-119l-116-121h56q8 0 9 8l6 38h120v-144z" glyph-name="twosuperior" horiz-adv-x="433" unicode="&#xb2;"/><glyph d="M327 585v-2q96-17 96-102 0-64-59.5-101.5t-149.5-37.5q-62 0-115 17.5t-83 46.5l79 97q51-41 101-41 45 0 45 33 0 16-9.5 21t-29.5 5q-16 0-51-6v105l24 3q34 4 47.5 13.5t13.5 36.5-22 27q-14 0-19-10.5t-6-32.5l-154 13q0 44 16.5 74t46.5 44.5 61.5 20 72.5 5.5q91 0 134-29t43-93q0-38-23-68.5t-59-38.5z" glyph-name="threesuperior" horiz-adv-x="446" unicode="&#xb3;"/><glyph d="M385 709l-181-152-74 64 152 183z" glyph-name="acute" horiz-adv-x="500" unicode="&#xb4;"/><glyph d="M618 0h-230l-8 42-6 1q-37-43-108-55l16-164h-220v704h211v-335q0-29 7-39t23-10q15 0 43 11v373h211v-398q0-16 14-18l47-7v-105z" glyph-name="mu" horiz-adv-x="629" unicode="&#xb5;"/><glyph d="M677-133h-224v661h-56v-661h-221v87l63 7q17 2 17 20v181q-221 11-221 233 0 130 77.5 190t207.5 60h357v-104l-67-8q-11-1-13.5-4.5t-2.5-14.5v-533q0-12 3-15t13-5l67-8v-86z" glyph-name="paragraph" horiz-adv-x="727" unicode="&#xb6;"/><glyph d="M247 338q0-93-105-93-106 0-106 93t106 93q105 0 105-93z" glyph-name="periodcentered" horiz-adv-x="283" unicode="&#xb7;"/><glyph d="M132-273l7 83q7-1 19-1 64 0 64 47 0 35-61 37l17 137 86-8-9-68q84-19 84-97 0-56-42.5-94.5t-125.5-38.5z" glyph-name="cedilla" horiz-adv-x="500" unicode="&#xb8;"/><glyph d="M324 350h-301v86l47 4q11 1 11 14v234q0 11-9 14l-51 13 12 89h232v-350q0-8 1.5-10t9.5-4l48-4v-86z" glyph-name="onesuperior" horiz-adv-x="332" unicode="&#xb9;"/><glyph d="M224 273q-102 0-151.5 50t-49.5 136q0 84 52.5 132.5t155.5 48.5q102 0 150-47.5t48-130.5q0-89-51-139t-154-50zM227 373q35 0 35 86 0 80-33 80-38 0-38-81 0-85 36-85z" glyph-name="ordmasculine" horiz-adv-x="452" unicode="&#xba;"/><glyph d="M187 103h-160l79 147q5 10-1 19l-85 139h162l89-152zM398 103h-160l79 147q5 10-1 19l-85 139h162l89-152z" glyph-name="guillemotright" horiz-adv-x="495" unicode="&#xbb;"/><glyph d="M377 281h-301v86l47 4q11 1 11 14v234q0 11-9 14l-51 13 12 89h232v-350q0-8 1.5-10t9.5-4l48-4v-86zM453-17h-192l357 741h191zM976 0h-164v78h-205v90l209 286h159v-280h52v-94h-51v-80zM811 174v109h-5l-79-109h84z" glyph-name="onequarter" horiz-adv-x="1070" unicode="&#xbc;"/><glyph d="M347 281h-301v86l47 4q11 1 11 14v234q0 11-9 14l-51 13 12 89h232v-350q0-8 1.5-10t9.5-4l48-4v-86zM427-17h-192l357 741h191zM1026 0h-384v95l148 146q58 58 58 86 0 22-22 22-29 0-29-49l-155 13q1 152 193 152 89 0 131.5-34.5t42.5-92.5-58-119l-116-121h56q8 0 9 8l6 38h120v-144z" glyph-name="onehalf" horiz-adv-x="1070" unicode="&#xbd;"/><glyph d="M330 516v-2q96-16 96-102 0-64-59.5-101.5t-149.5-37.5q-61 0-114.5 17.5t-83.5 46.5l79 97q51-41 101-41 45 0 45 33 0 16-9.5 21t-29.5 5q-17 0-51-6v105l24 3q34 4 47.5 13.5t13.5 36.5-22 27q-14 0-19-10.5t-6-32.5l-154 13q0 44 16.5 74t46.5 44.5 61.5 20 72.5 5.5q91 0 134-29t43-93q0-38-23-68.5t-59-38.5zM460-17h-192l357 741h191zM964 0h-164v78h-205v90l209 286h159v-280h52v-94h-51v-80zM799 174v109h-5l-79-109h84z" glyph-name="threequarters" horiz-adv-x="1070" unicode="&#xbe;"/><glyph d="M247 310h211v-187q-31-2-50.5-4.5t-47.5-7-46-13-35.5-20.5-26-31-8.5-43q0-34 17-50t42-16q23 0 41 5 14 4 15 19l11 81 172 14v-214q-133-51-253-51-262 0-262 218 0 95 53 159t167 74v67zM247 435q0 93 105 93 106 0 106-93t-106-93q-105 0-105 93z" glyph-name="questiondown" horiz-adv-x="580" unicode="&#xbf;"/><glyph d="M807 0h-385v103l80 9-18 49h-216l-17-49 78-9v-103h-331v103l46 11q20 5 25 19l217 591h238l212-593q4-12 24-17l47-11v-103zM447 304l-65 210h-7l-68-210h140zM497 767l-240 78 59 125 224-115z" glyph-name="Agrave" horiz-adv-x="805" unicode="&#xc0;"/><glyph d="M807 0h-385v103l80 9-18 49h-216l-17-49 78-9v-103h-331v103l46 11q20 5 25 19l217 591h238l212-593q4-12 24-17l47-11v-103zM447 304l-65 210h-7l-68-210h140zM567 844l-240-77-43 87 224 116z" glyph-name="Aacute" horiz-adv-x="805" unicode="&#xc1;"/><glyph d="M807 0h-385v103l80 9-18 49h-216l-17-49 78-9v-103h-331v103l46 11q20 5 25 19l217 591h238l212-593q4-12 24-17l47-11v-103zM447 304l-65 210h-7l-68-210h140zM523 767l-118 79-118-79-68 73 124 120h124l124-120z" glyph-name="Acircumflex" horiz-adv-x="805" unicode="&#xc2;"/><glyph d="M807 0h-385v103l80 9-18 49h-216l-17-49 78-9v-103h-331v103l46 11q20 5 25 19l217 591h238l212-593q4-12 24-17l47-11v-103zM447 304l-65 210h-7l-68-210h140zM596 899l-23-49q-17-36-32-53t-38-17q-30 0-116 24-50 15-53 15-5 0-16-11l-23-25-75 44 30 59q28 57 72 57 26 0 85-17 64-18 73-18 6 0 12 7l21 26z" glyph-name="Atilde" horiz-adv-x="805" unicode="&#xc3;"/><glyph d="M807 0h-385v103l80 9-18 49h-216l-17-49 78-9v-103h-331v103l46 11q20 5 25 19l217 591h238l212-593q4-12 24-17l47-11v-103zM447 304l-65 210h-7l-68-210h140zM382 865q0-39-23.5-62t-62.5-23-63 23-24 62q0 38 24 60.5t63 22.5 62.5-22.5 23.5-60.5zM597 865q0-39-23.5-62t-62.5-23-63 23-24 62q0 38 24 60.5t63 22.5 62.5-22.5 23.5-60.5z" glyph-name="Adieresis" horiz-adv-x="805" unicode="&#xc4;"/><glyph d="M533 779q0-26-10-53l213-595q4-12 24-17l47-11v-103h-385v103l80 9-18 49h-216l-17-49 78-9v-103h-331v103l46 11q20 5 25 19l218 596q-8 22-8 47 0 58 37.5 93.5t90.5 35.5q54 0 90-35t36-91zM447 304l-65 210h-7l-68-210h140zM407 739q38 0 38 40 0 42-38 42-40 0-40-41t40-41z" glyph-name="Aring" horiz-adv-x="805" unicode="&#xc5;"/><glyph d="M960 0h-572v103l64 7q15 1 15 16v158h-166l-67-172 82-9v-103h-318v103l42 11q17 5 25 24l200 470-74 12v104h747v-239l-153 6-14 75q-1 3-1.5 5l-1 4t-2 2.5l-3 1t-4.5.5h-87v-145h202v-150h-202v-140h104q14 0 16 11l16 88h152v-243zM467 434v145h-57l-55-145h112z" glyph-name="AE" horiz-adv-x="987" unicode="&#xc6;"/><glyph d="M261-273l8 83q6-1 18-1 64 0 64 47 0 35-61 37l13 99q-288 34-288 371 0 168 99.5 271t286.5 103q61 0 125.5-15.5t108.5-43.5v-232l-153 12-15 98q-3 15-15 19-20 5-54 5-75 0-116.5-54t-41.5-163q0-112 39.5-166.5t111.5-54.5q37 0 60 5 12 2 15.5 5.5t5.5 17.5l15 96h149v-220q-93-54-248-58l-4-34q84-19 84-97 0-56-42.5-94.5t-124.5-38.5z" glyph-name="Ccedilla" horiz-adv-x="681" unicode="&#xc7;"/><glyph d="M600 0h-584v103l63 7q10 1 13 5t3 15v463q0 12-3 15.5t-13 4.5l-63 7v104h562v-239l-153 6-14 75q-3 13-17 13h-82v-142h202v-151h-202v-142h104q14 0 16 11l16 88h152v-243zM404 767l-240 78 59 125 224-115z" glyph-name="Egrave" horiz-adv-x="627" unicode="&#xc8;"/><glyph d="M600 0h-584v103l63 7q10 1 13 5t3 15v463q0 12-3 15.5t-13 4.5l-63 7v104h562v-239l-153 6-14 75q-3 13-17 13h-82v-142h202v-151h-202v-142h104q14 0 16 11l16 88h152v-243zM474 844l-240-77-43 87 224 116z" glyph-name="Eacute" horiz-adv-x="627" unicode="&#xc9;"/><glyph d="M600 0h-584v103l63 7q10 1 13 5t3 15v463q0 12-3 15.5t-13 4.5l-63 7v104h562v-239l-153 6-14 75q-3 13-17 13h-82v-142h202v-151h-202v-142h104q14 0 16 11l16 88h152v-243zM430 767l-118 79-118-79-68 73 124 120h124l124-120z" glyph-name="Ecircumflex" horiz-adv-x="627" unicode="&#xca;"/><glyph d="M600 0h-584v103l63 7q10 1 13 5t3 15v463q0 12-3 15.5t-13 4.5l-63 7v104h562v-239l-153 6-14 75q-3 13-17 13h-82v-142h202v-151h-202v-142h104q14 0 16 11l16 88h152v-243zM289 865q0-39-23.5-62t-62.5-23-63 23-24 62q0 38 24 60.5t63 22.5 62.5-22.5 23.5-60.5zM504 865q0-39-23.5-62t-62.5-23-63 23-24 62q0 38 24 60.5t63 22.5 62.5-22.5 23.5-60.5z" glyph-name="Edieresis" horiz-adv-x="627" unicode="&#xcb;"/><glyph d="M410 0h-399v103l73 8q10 1 13 4.5t3 15.5v461q0 12-3 15.5t-13 4.5l-73 7v105h399v-105l-77-8q-11-1-13.5-4.5t-2.5-14.5v-461q0-12 2.5-15.5t13.5-4.5l77-8v-103zM303 767l-240 78 59 125 224-115z" glyph-name="Igrave" horiz-adv-x="417" unicode="&#xcc;"/><glyph d="M410 0h-399v103l73 8q10 1 13 4.5t3 15.5v461q0 12-3 15.5t-13 4.5l-73 7v105h399v-105l-77-8q-11-1-13.5-4.5t-2.5-14.5v-461q0-12 2.5-15.5t13.5-4.5l77-8v-103zM373 844l-240-77-43 87 224 116z" glyph-name="Iacute" horiz-adv-x="417" unicode="&#xcd;"/><glyph d="M410 0h-399v103l73 8q10 1 13 4.5t3 15.5v461q0 12-3 15.5t-13 4.5l-73 7v105h399v-105l-77-8q-11-1-13.5-4.5t-2.5-14.5v-461q0-12 2.5-15.5t13.5-4.5l77-8v-103zM329 767l-118 79-118-79-68 73 124 120h124l124-120z" glyph-name="Icircumflex" horiz-adv-x="417" unicode="&#xce;"/><glyph d="M410 0h-399v103l73 8q10 1 13 4.5t3 15.5v461q0 12-3 15.5t-13 4.5l-73 7v105h399v-105l-77-8q-11-1-13.5-4.5t-2.5-14.5v-461q0-12 2.5-15.5t13.5-4.5l77-8v-103zM188 865q0-39-23.5-62t-62.5-23-63 23-24 62q0 38 24 60.5t63 22.5 62.5-22.5 23.5-60.5zM403 865q0-39-23.5-62t-62.5-23-63 23-24 62q0 38 24 60.5t63 22.5 62.5-22.5 23.5-60.5z" glyph-name="Idieresis" horiz-adv-x="417" unicode="&#xcf;"/><glyph d="M358 0h-332v105l63 7q10 1 13 4.5t3 15.5v156h-67v145h67v160q0 11-3 15t-13 5l-63 7v104h349q183 0 271-91.5t88-259.5q0-173-94-273t-282-100zM322 143h14q55 0 91.5 17t54.5 50 25 70 7 89q0 112-39.5 161.5t-141.5 49.5h-11v-147h107v-145h-107v-145z" glyph-name="Eth" horiz-adv-x="747" unicode="&#xd0;"/><glyph d="M738 0h-220l-272 440v-309q0-12 2.5-15.5t13.5-4.5l67-8v-103h-313v103l63 7q10 1 13 5t3 15v464q0 12-3 15.5t-13 4.5l-63 7v103h298l274-445v313q0 12-3 15.5t-13 4.5l-63 7v105h312v-105l-67-8q-11-1-13.5-4.5t-2.5-14.5v-592zM594 899l-23-49q-17-36-32-53t-38-17q-30 0-116 24-50 15-53 15-5 0-16-11l-23-25-75 44 30 59q28 57 72 57 26 0 85-17 64-18 73-18 6 0 12 7l21 26z" glyph-name="Ntilde" horiz-adv-x="831" unicode="&#xd1;"/><glyph d="M367-12q-181 0-266.5 98.5t-85.5 268.5 94 276 272 106q176 0 263.5-102.5t87.5-264.5q0-180-91.5-281t-273.5-101zM376 156q64 0 98.5 45.5t34.5 159.5q0 111-33 159.5t-96 48.5q-142 0-142-209 0-113 35.5-158.5t102.5-45.5zM472 774l-240 78 59 125 224-115z" glyph-name="Ograve" horiz-adv-x="747" unicode="&#xd2;"/><glyph d="M367-12q-181 0-266.5 98.5t-85.5 268.5 94 276 272 106q176 0 263.5-102.5t87.5-264.5q0-180-91.5-281t-273.5-101zM376 156q64 0 98.5 45.5t34.5 159.5q0 111-33 159.5t-96 48.5q-142 0-142-209 0-113 35.5-158.5t102.5-45.5zM542 851l-240-77-43 87 224 116z" glyph-name="Oacute" horiz-adv-x="747" unicode="&#xd3;"/><glyph d="M367-12q-181 0-266.5 98.5t-85.5 268.5 94 276 272 106q176 0 263.5-102.5t87.5-264.5q0-180-91.5-281t-273.5-101zM376 156q64 0 98.5 45.5t34.5 159.5q0 111-33 159.5t-96 48.5q-142 0-142-209 0-113 35.5-158.5t102.5-45.5zM498 774l-118 79-118-79-68 73 124 120h124l124-120z" glyph-name="Ocircumflex" horiz-adv-x="747" unicode="&#xd4;"/><glyph d="M367-12q-181 0-266.5 98.5t-85.5 268.5 94 276 272 106q176 0 263.5-102.5t87.5-264.5q0-180-91.5-281t-273.5-101zM376 156q64 0 98.5 45.5t34.5 159.5q0 111-33 159.5t-96 48.5q-142 0-142-209 0-113 35.5-158.5t102.5-45.5zM571 906l-23-49q-17-36-32-53t-38-17q-30 0-116 24-50 15-53 15-5 0-16-11l-23-25-75 44 30 59q29 57 72 57 26 0 85-17 64-18 73-18 6 0 12 7l21 26z" glyph-name="Otilde" horiz-adv-x="747" unicode="&#xd5;"/><glyph d="M367-12q-181 0-266.5 98.5t-85.5 268.5 94 276 272 106q176 0 263.5-102.5t87.5-264.5q0-180-91.5-281t-273.5-101zM376 156q64 0 98.5 45.5t34.5 159.5q0 111-33 159.5t-96 48.5q-142 0-142-209 0-113 35.5-158.5t102.5-45.5zM357 872q0-39-23.5-62t-62.5-23-63 23-24 62q0 38 24 60.5t63 22.5 62.5-22.5 23.5-60.5zM572 872q0-39-23.5-62t-62.5-23-63 23-24 62q0 38 24 60.5t63 22.5 62.5-22.5 23.5-60.5z" glyph-name="Odieresis" horiz-adv-x="747" unicode="&#xd6;"/><glyph d="M378 120l-93 92-92-92-111 110 93 92-93 92 111 111 92-92 93 92 110-111-92-92 92-92z" glyph-name="multiply" unicode="&#xd7;"/><glyph d="M367-12q-29 0-55 3l-29-70h-193l51 129q-126 92-126 305 0 170 94 276t272 106q27 0 52-3l26 61h193l-49-123q129-96 129-302 0-180-91.5-281t-273.5-101zM376 156q64 0 98.5 45.5t34.5 159.5q0 67-12 111l-132-316h11zM238 360q0-56 10-101l130 310q-140-2-140-209z" glyph-name="Oslash" horiz-adv-x="747" unicode="&#xd8;"/><glyph d="M516 313v280q0 12-3 15.5t-13 4.5l-63 7v104h343v-104l-67-8q-11-1-13.5-4.5t-2.5-14.5v-316q0-289-302-289-161 0-235 70t-74 225v310q0 12-3 15.5t-13 4.5l-63 7v104h379v-104l-67-8q-11-1-13.5-4.5t-2.5-14.5v-275q0-35 1-53.5t6.5-41.5 16.5-34 32-19 51-8q64 0 85 33.5t21 117.5zM504 767l-240 78 59 125 224-115z" glyph-name="Ugrave" horiz-adv-x="783" unicode="&#xd9;"/><glyph d="M516 313v280q0 12-3 15.5t-13 4.5l-63 7v104h343v-104l-67-8q-11-1-13.5-4.5t-2.5-14.5v-316q0-289-302-289-161 0-235 70t-74 225v310q0 12-3 15.5t-13 4.5l-63 7v104h379v-104l-67-8q-11-1-13.5-4.5t-2.5-14.5v-275q0-35 1-53.5t6.5-41.5 16.5-34 32-19 51-8q64 0 85 33.5t21 117.5zM574 844l-240-77-43 87 224 116z" glyph-name="Uacute" horiz-adv-x="783" unicode="&#xda;"/><glyph d="M516 313v280q0 12-3 15.5t-13 4.5l-63 7v104h343v-104l-67-8q-11-1-13.5-4.5t-2.5-14.5v-316q0-289-302-289-161 0-235 70t-74 225v310q0 12-3 15.5t-13 4.5l-63 7v104h379v-104l-67-8q-11-1-13.5-4.5t-2.5-14.5v-275q0-35 1-53.5t6.5-41.5 16.5-34 32-19 51-8q64 0 85 33.5t21 117.5zM530 767l-118 79-118-79-68 73 124 120h124l124-120z" glyph-name="Ucircumflex" horiz-adv-x="783" unicode="&#xdb;"/><glyph d="M516 313v280q0 12-3 15.5t-13 4.5l-63 7v104h343v-104l-67-8q-11-1-13.5-4.5t-2.5-14.5v-316q0-289-302-289-161 0-235 70t-74 225v310q0 12-3 15.5t-13 4.5l-63 7v104h379v-104l-67-8q-11-1-13.5-4.5t-2.5-14.5v-275q0-35 1-53.5t6.5-41.5 16.5-34 32-19 51-8q64 0 85 33.5t21 117.5zM389 865q0-39-23.5-62t-62.5-23-63 23-24 62q0 38 24 60.5t63 22.5 62.5-22.5 23.5-60.5zM604 865q0-39-23.5-62t-62.5-23-63 23-24 62q0 38 24 60.5t63 22.5 62.5-22.5 23.5-60.5z" glyph-name="Udieresis" horiz-adv-x="783" unicode="&#xdc;"/><glyph d="M617 0h-467v104l105 8q10 1 13 4.5t3 15.5v128l-196 333q-8 13-21 16l-48 12 10 103h362v-103l-71-9 86-171h13l88 171-71 9 10 103h295v-103l-46-12q-13-3-22-20l-172-328v-129q0-11 2.5-14.5t13.5-4.5l113-9v-104zM550 844l-240-77-43 87 224 116z" glyph-name="Yacute" horiz-adv-x="734" unicode="&#xdd;"/><glyph d="M470 0h-454v104l63 7q10 1 13 5t3 15v461q0 12-3 15.5t-13 4.5l-63 7v105h375v-105l-64-7q-16-2-16-19v-13h74q241 0 241-193 0-113-71.5-168.5t-202.5-55.5h-41v-31q0-12 2.5-15.5t13.5-4.5l143-8v-104zM311 304h7q86 0 86 69 0 22-8 35.5t-22.5 19-24 6.5-24.5 1h-14v-131z" glyph-name="Thorn" horiz-adv-x="639" unicode="&#xde;"/><glyph d="M276 0h-263v105l36 6q10 1 13 4.5t3 15.5v398q0 129 67 183.5t206 54.5q251 0 251-201 0-73-36-114.5t-74-52.5v-5q33-6 54-14t46-27.5 37.5-57 12.5-92.5q0-41-9-77.5t-29.5-68.5-58.5-50.5-90-18.5q-88 0-151 36l42 111q20-9 39-9 20 0 29 20t9 76q0 54-18 72t-51 18q-31-2-43-4v138l17 3q32 6 44 26t12 70q0 44-10.5 65.5t-36.5 21.5q-24 0-36-14.5t-12-62.5v-555z" glyph-name="germandbls" horiz-adv-x="650" unicode="&#xdf;"/><glyph d="M573 0h-228l-11 50-7 2q-60-64-155-64-152 0-152 159 0 73 46.5 108t145.5 42l95 7v56q0 16-1 24t-10 16.5-26 8.5q-22 0-29.5-11.5t-7.5-44.5l-196 14q0 172 238 172 126 0 181.5-40.5t55.5-145.5v-221q0-12 2.5-15.5t13.5-4.5l45-8v-104zM307 130v79l-23-2q-49-4-49-45 0-38 40-38 14 0 32 6zM408 621l-74-64-181 152 104 95z" glyph-name="agrave" horiz-adv-x="574" unicode="&#xe0;"/><glyph d="M573 0h-228l-11 50-7 2q-60-64-155-64-152 0-152 159 0 73 46.5 108t145.5 42l95 7v56q0 16-1 24t-10 16.5-26 8.5q-22 0-29.5-11.5t-7.5-44.5l-196 14q0 172 238 172 126 0 181.5-40.5t55.5-145.5v-221q0-12 2.5-15.5t13.5-4.5l45-8v-104zM307 130v79l-23-2q-49-4-49-45 0-38 40-38 14 0 32 6zM429 709l-181-152-74 64 152 183z" glyph-name="aacute" horiz-adv-x="574" unicode="&#xe1;"/><glyph d="M573 0h-228l-11 50-7 2q-60-64-155-64-152 0-152 159 0 73 46.5 108t145.5 42l95 7v56q0 16-1 24t-10 16.5-26 8.5q-22 0-29.5-11.5t-7.5-44.5l-196 14q0 172 238 172 126 0 181.5-40.5t55.5-145.5v-221q0-12 2.5-15.5t13.5-4.5l45-8v-104zM307 130v79l-23-2q-49-4-49-45 0-38 40-38 14 0 32 6zM454 621l-75-65-105 85-105-85-75 65 118 136h124z" glyph-name="acircumflex" horiz-adv-x="574" unicode="&#xe2;"/><glyph d="M573 0h-228l-11 50-7 2q-60-64-155-64-152 0-152 159 0 73 46.5 108t145.5 42l95 7v56q0 16-1 24t-10 16.5-26 8.5q-22 0-29.5-11.5t-7.5-44.5l-196 14q0 172 238 172 126 0 181.5-40.5t55.5-145.5v-221q0-12 2.5-15.5t13.5-4.5l45-8v-104zM307 130v79l-23-2q-49-4-49-45 0-38 40-38 14 0 32 6zM465 691l-23-49q-17-36-32-53t-38-17q-30 0-116 24-50 15-53 15-5 0-16-11l-23-25-75 44 30 59q29 57 72 57 26 0 85-17 64-18 73-18 6 0 12 7l21 26z" glyph-name="atilde" horiz-adv-x="574" unicode="&#xe3;"/><glyph d="M573 0h-228l-11 50-7 2q-60-64-155-64-152 0-152 159 0 73 46.5 108t145.5 42l95 7v56q0 16-1 24t-10 16.5-26 8.5q-22 0-29.5-11.5t-7.5-44.5l-196 14q0 172 238 172 126 0 181.5-40.5t55.5-145.5v-221q0-12 2.5-15.5t13.5-4.5l45-8v-104zM307 130v79l-23-2q-49-4-49-45 0-38 40-38 14 0 32 6zM251 672q0-38-23.5-61.5t-62.5-23.5q-38 0-62.5 23.5t-24.5 61.5q0 39 24 61.5t63 22.5 62.5-22.5 23.5-61.5zM466 672q0-38-23.5-61.5t-62.5-23.5-63 23.5-24 61.5q0 39 24 61.5t63 22.5 62.5-22.5 23.5-61.5z" glyph-name="adieresis" horiz-adv-x="574" unicode="&#xe4;"/><glyph d="M573 0h-228l-11 50-7 2q-60-64-155-64-152 0-152 159 0 73 46.5 108t145.5 42l95 7v56q0 16-1 24t-10 16.5-26 8.5q-22 0-29.5-11.5t-7.5-44.5l-196 14q0 172 238 172 126 0 181.5-40.5t55.5-145.5v-221q0-12 2.5-15.5t13.5-4.5l45-8v-104zM307 130v79l-23-2q-49-4-49-45 0-38 40-38 14 0 32 6zM395 681q0-52-32.5-83.5t-82.5-31.5q-51 0-83.5 31t-32.5 80q0 53 34 85t82 32q49 0 82-31t33-82zM280 643q35 0 35 38 0 37-35 37-36 0-36-37 0-38 36-38z" glyph-name="aring" horiz-adv-x="574" unicode="&#xe5;"/><glyph d="M760 174l46-128q-128-58-230-58-119 0-189 65-90-65-197-65-87 0-128.5 47.5t-41.5 111.5q0 73 46.5 108t145.5 42l95 7v56q0 16-1 24t-10 16.5-26 8.5q-22 0-29.5-11.5t-7.5-44.5l-196 14q0 172 225 172 119 0 167-66 60 66 163 66 209 0 209-252 0-23-3-61h-276q3-44 23.5-63.5t59.5-19.5q53 0 155 31zM275 124q25 0 53 13-11 28-18 72l-26-2q-49-4-49-45 0-38 40-38zM521 329h78q0 42-9.5 54.5t-28.5 12.5q-37 0-40-67z" glyph-name="ae" horiz-adv-x="828" unicode="&#xe6;"/><glyph d="M455 163l47-118q-85-53-191-57l-4-34q84-19 84-97 0-56-42.5-94.5t-125.5-38.5q-5 0-10.5.5t-10.5 1-9 .5h-7l-2 1 7 83q7-1 19-1 64 0 64 47 0 35-61 37l12 101q-104 17-157 87.5t-53 173.5q0 135 78 209.5t207 74.5q59 0 116-15.5t88-37.5v-181l-147 5-12 67q-4 16-12 18-13 4-33 4-27 0-45.5-28.5t-18.5-92.5q0-81 27-110t70-29q47 0 122 24z" glyph-name="ccedilla" horiz-adv-x="534" unicode="&#xe7;"/><glyph d="M475 174l46-128q-128-58-230-58-145 0-210.5 75.5t-65.5 204.5q0 131 75.5 201t192.5 70q110 0 171.5-62.5t61.5-193.5q0-23-3-61h-276q6-79 83-79 53 0 155 31zM234 325h82q1 42-9.5 56.5t-30.5 14.5q-40 0-42-71zM409 621l-74-64-181 152 104 95z" glyph-name="egrave" horiz-adv-x="543" unicode="&#xe8;"/><glyph d="M475 174l46-128q-128-58-230-58-145 0-210.5 75.5t-65.5 204.5q0 131 75.5 201t192.5 70q110 0 171.5-62.5t61.5-193.5q0-23-3-61h-276q6-79 83-79 53 0 155 31zM234 325h82q1 42-9.5 56.5t-30.5 14.5q-40 0-42-71zM405 709l-181-152-74 64 152 183z" glyph-name="eacute" horiz-adv-x="543" unicode="&#xe9;"/><glyph d="M475 174l46-128q-128-58-230-58-145 0-210.5 75.5t-65.5 204.5q0 131 75.5 201t192.5 70q110 0 171.5-62.5t61.5-193.5q0-23-3-61h-276q6-79 83-79 53 0 155 31zM234 325h82q1 42-9.5 56.5t-30.5 14.5q-40 0-42-71zM455 621l-75-65-105 85-105-85-75 65 118 136h124z" glyph-name="ecircumflex" horiz-adv-x="543" unicode="&#xea;"/><glyph d="M475 174l46-128q-128-58-230-58-145 0-210.5 75.5t-65.5 204.5q0 131 75.5 201t192.5 70q110 0 171.5-62.5t61.5-193.5q0-23-3-61h-276q6-79 83-79 53 0 155 31zM234 325h82q1 42-9.5 56.5t-30.5 14.5q-40 0-42-71zM252 672q0-38-23.5-61.5t-62.5-23.5q-38 0-62.5 23.5t-24.5 61.5q0 39 24 61.5t63 22.5 62.5-22.5 23.5-61.5zM467 672q0-38-23.5-61.5t-62.5-23.5-63 23.5-24 61.5q0 39 24 61.5t63 22.5 62.5-22.5 23.5-61.5z" glyph-name="edieresis" horiz-adv-x="543" unicode="&#xeb;"/><glyph d="M330 0h-316v104l36 7q10 1 13 5t3 15v249q0 17-13 21l-51 19 14 108h261v-397q0-12 2.5-15.5t13.5-4.5l37-7v-104zM281 622l-74-64-181 152 104 95z" glyph-name="igrave" horiz-adv-x="336" unicode="&#xec;"/><glyph d="M330 0h-316v104l36 7q10 1 13 5t3 15v249q0 17-13 21l-51 19 14 108h261v-397q0-12 2.5-15.5t13.5-4.5l37-7v-104zM277 710l-181-152-74 64 152 183z" glyph-name="iacute" horiz-adv-x="336" unicode="&#xed;"/><glyph d="M317 627l-75-65-95 85-95-85-75 65 108 136h124zM330 0h-316v104l36 7q10 1 13 5t3 15v249q0 17-13 21l-51 19 14 108h261v-397q0-12 2.5-15.5t13.5-4.5l37-7v-104z" glyph-name="icircumflex" horiz-adv-x="336" unicode="&#xee;"/><glyph d="M127 668q0-38-23.5-61.5t-62.5-23.5q-38 0-62.5 23.5t-24.5 61.5q0 39 24 61.5t63 22.5 62.5-22.5 23.5-61.5zM336 668q0-38-23.5-61.5t-62.5-23.5-63 23.5-24 61.5q0 39 24 61.5t63 22.5 62.5-22.5 23.5-61.5zM330 0h-316v104l36 7q10 1 13 5t3 15v249q0 17-13 21l-51 19 14 108h261v-397q0-12 2.5-15.5t13.5-4.5l37-7v-104z" glyph-name="idieresis" horiz-adv-x="336" unicode="&#xef;"/><glyph d="M20 253q0 110 57 183t168 73q85 0 146-46l4 5q-19 34-60 63t-73.5 43-78.5 30l-46 16 76 173q86-20 152-58l113 81 93-128-82-57q97-122 97-306 0-174-74-255.5t-222-81.5q-134 0-202 71t-68 194zM241 254q0-54 10.5-83.5t22-36 28.5-6.5q20 0 33.5 11t24 52 10.5 112q0 22-4 53-34 19-60 19-13 0-22.5-3t-20.5-14-16.5-37-5.5-67z" glyph-name="eth" horiz-adv-x="605" unicode="&#xf0;"/><glyph d="M619 0h-270v336q0 25-6.5 35t-22.5 10q-18 0-43-12v-238q0-12 3-16t14-6l25-5v-104h-309v104l40 7q10 1 13 5t3 15v249q0 17-13 21l-50 19 14 108h219l8-44h7q76 55 163 55 75 0 110.5-40.5t35.5-127.5v-240q0-12 2.5-15.5t13.5-4.5l43-7v-104zM487 691l-23-49q-17-36-32-53t-38-17q-30 0-116 24-50 15-53 15-5 0-16-11l-23-25-75 44 30 59q29 57 72 57 26 0 85-17 64-18 73-18 6 0 12 7l21 26z" glyph-name="ntilde" horiz-adv-x="619" unicode="&#xf1;"/><glyph d="M293-12q-278 0-278 276 0 129 72.5 202t215.5 73q142 0 209-72t67-196q0-134-71-208.5t-215-74.5zM298 128q61 0 61 139 0 73-15.5 101t-43.5 28q-64 0-64-130 0-77 16-107.5t46-30.5zM437 621l-74-64-181 152 104 95z" glyph-name="ograve" horiz-adv-x="594" unicode="&#xf2;"/><glyph d="M293-12q-278 0-278 276 0 129 72.5 202t215.5 73q142 0 209-72t67-196q0-134-71-208.5t-215-74.5zM298 128q61 0 61 139 0 73-15.5 101t-43.5 28q-64 0-64-130 0-77 16-107.5t46-30.5zM433 709l-181-152-74 64 152 183z" glyph-name="oacute" horiz-adv-x="594" unicode="&#xf3;"/><glyph d="M293-12q-278 0-278 276 0 129 72.5 202t215.5 73q142 0 209-72t67-196q0-134-71-208.5t-215-74.5zM298 128q61 0 61 139 0 73-15.5 101t-43.5 28q-64 0-64-130 0-77 16-107.5t46-30.5zM483 621l-75-65-105 85-105-85-75 65 118 136h124z" glyph-name="ocircumflex" horiz-adv-x="594" unicode="&#xf4;"/><glyph d="M293-12q-278 0-278 276 0 129 72.5 202t215.5 73q142 0 209-72t67-196q0-134-71-208.5t-215-74.5zM298 128q61 0 61 139 0 73-15.5 101t-43.5 28q-64 0-64-130 0-77 16-107.5t46-30.5zM494 691l-23-49q-17-36-32-53t-38-17q-30 0-116 24-50 15-53 15-5 0-16-11l-23-25-75 44 30 59q28 57 72 57 26 0 85-17 64-18 73-18 6 0 12 7l21 26z" glyph-name="otilde" horiz-adv-x="594" unicode="&#xf5;"/><glyph d="M293-12q-278 0-278 276 0 129 72.5 202t215.5 73q142 0 209-72t67-196q0-134-71-208.5t-215-74.5zM298 128q61 0 61 139 0 73-15.5 101t-43.5 28q-64 0-64-130 0-77 16-107.5t46-30.5zM280 672q0-38-23.5-61.5t-62.5-23.5q-38 0-62.5 23.5t-24.5 61.5q0 39 24 61.5t63 22.5 62.5-22.5 23.5-61.5zM495 672q0-38-23.5-61.5t-62.5-23.5-63 23.5-24 61.5q0 39 24 61.5t63 22.5 62.5-22.5 23.5-61.5z" glyph-name="odieresis" horiz-adv-x="594" unicode="&#xf6;"/><glyph d="M378 138q0-84-93-84-94 0-94 84 0 37 24 60.5t70 23.5 69.5-23.5 23.5-60.5zM483 245h-397v152h397v-152zM378 503q0-84-93-84-94 0-94 84 0 37 24 60.5t70 23.5 69.5-23.5 23.5-60.5z" glyph-name="divide" unicode="&#xf7;"/><glyph d="M223-76h-157l48 109q-99 68-99 231 0 129 70.5 202t212.5 73q14 0 40-2l28 63h156l-47-106q104-66 104-223 0-134-71-208.5t-215-74.5q-15 0-41 2zM298 115q72 0 72 152 0 17-2 41l-85-192q5-1 15-1zM225 266q0-27 1-39l81 181q-2 0-4 .5t-3 .5q-75 0-75-143z" glyph-name="oslash" horiz-adv-x="594" unicode="&#xf8;"/><glyph d="M616 0h-230l-7 42-7 2q-70-56-165-56-75 0-110.5 41t-35.5 129v235q0 12-2.5 14.5t-13.5 4.5l-45 5 13 111h259v-338q0-27 6-37t23-10q21 0 43 12v238q0 12-2.5 14.5t-13.5 4.5l-26 5 13 111h240v-398q0-9 2.5-13t12.5-5l46-7v-105zM427 621l-74-64-181 152 104 95z" glyph-name="ugrave" horiz-adv-x="619" unicode="&#xf9;"/><glyph d="M616 0h-230l-7 42-7 2q-70-56-165-56-75 0-110.5 41t-35.5 129v235q0 12-2.5 14.5t-13.5 4.5l-45 5 13 111h259v-338q0-27 6-37t23-10q21 0 43 12v238q0 12-2.5 14.5t-13.5 4.5l-26 5 13 111h240v-398q0-9 2.5-13t12.5-5l46-7v-105zM423 709l-181-152-74 64 152 183z" glyph-name="uacute" horiz-adv-x="619" unicode="&#xfa;"/><glyph d="M616 0h-230l-7 42-7 2q-70-56-165-56-75 0-110.5 41t-35.5 129v235q0 12-2.5 14.5t-13.5 4.5l-45 5 13 111h259v-338q0-27 6-37t23-10q21 0 43 12v238q0 12-2.5 14.5t-13.5 4.5l-26 5 13 111h240v-398q0-9 2.5-13t12.5-5l46-7v-105zM473 621l-75-65-105 85-105-85-75 65 118 136h124z" glyph-name="ucircumflex" horiz-adv-x="619" unicode="&#xfb;"/><glyph d="M616 0h-230l-7 42-7 2q-70-56-165-56-75 0-110.5 41t-35.5 129v235q0 12-2.5 14.5t-13.5 4.5l-45 5 13 111h259v-338q0-27 6-37t23-10q21 0 43 12v238q0 12-2.5 14.5t-13.5 4.5l-26 5 13 111h240v-398q0-9 2.5-13t12.5-5l46-7v-105zM270 672q0-38-23.5-61.5t-62.5-23.5q-38 0-62.5 23.5t-24.5 61.5q0 39 24 61.5t63 22.5 62.5-22.5 23.5-61.5zM485 672q0-38-23.5-61.5t-62.5-23.5-63 23.5-24 61.5q0 39 24 61.5t63 22.5 62.5-22.5 23.5-61.5z" glyph-name="udieresis" horiz-adv-x="619" unicode="&#xfc;"/><glyph d="M518-212h-395v107l78 10q23 2 33 22l27 57-201 410q-4 13-21 17l-41 9 20 108h319v-108l-59-8 87-189h12l76 189-62 8 15 108h253v-108l-32-6q-20-4-25-17l-195-490 111-13v-106zM475 709l-181-152-74 64 152 183z" glyph-name="yacute" horiz-adv-x="657" unicode="&#xfd;"/><glyph d="M396-212h-394v105l38 6q11 2 15.5 6.5t4.5 15.5v686q0 16-12 21l-52 19 13 108h256v-271l7-2q41 32 70.5 44.5t64.5 12.5q90 0 143-62.5t53-202.5q0-149-56-217.5t-146-69.5q-77 0-136 46v-110q0-12 3-15.5t14-4.5l114-11v-104zM269 366v-209q28-11 53-11 58 0 58 121 0 111-64 111-24 0-47-12z" glyph-name="thorn" horiz-adv-x="625" unicode="&#xfe;"/><glyph d="M518-212h-395v107l78 10q23 2 33 22l27 57-201 410q-4 13-21 17l-41 9 20 108h319v-108l-59-8 87-189h12l76 189-62 8 15 108h253v-108l-32-6q-20-4-25-17l-195-490 111-13v-106zM322 672q0-38-23.5-61.5t-62.5-23.5q-38 0-62.5 23.5t-24.5 61.5q0 39 24 61.5t63 22.5 62.5-22.5 23.5-61.5zM537 672q0-38-23.5-61.5t-62.5-23.5-63 23.5-24 61.5q0 39 24 61.5t63 22.5 62.5-22.5 23.5-61.5z" glyph-name="ydieresis" horiz-adv-x="657" unicode="&#xff;"/><glyph d="M807 0h-385v103l80 9-18 49h-216l-17-49 78-9v-103h-331v103l46 11q20 5 25 19l217 591h238l212-593q4-12 24-17l47-11v-103zM447 304l-65 210h-7l-68-210h140zM569 777h-327v130h327v-130z" glyph-name="Amacron" horiz-adv-x="805" unicode="&#x100;"/><glyph d="M573 0h-228l-11 50-7 2q-60-64-155-64-152 0-152 159 0 73 46.5 108t145.5 42l95 7v56q0 16-1 24t-10 16.5-26 8.5q-22 0-29.5-11.5t-7.5-44.5l-196 14q0 172 238 172 126 0 181.5-40.5t55.5-145.5v-221q0-12 2.5-15.5t13.5-4.5l45-8v-104zM307 130v79l-23-2q-49-4-49-45 0-38 40-38 14 0 32 6zM438 587h-327v130h327v-130z" glyph-name="amacron" horiz-adv-x="574" unicode="&#x101;"/><glyph d="M807 0h-385v103l80 9-18 49h-216l-17-49 78-9v-103h-331v103l46 11q20 5 25 19l217 591h238l212-593q4-12 24-17l47-11v-103zM447 304l-65 210h-7l-68-210h140zM489 961l96-35q-19-72-61-108t-119-36q-78 0-120.5 36.5t-59.5 107.5l96 35q22-64 84-64 54 0 84 64z" glyph-name="Abreve" horiz-adv-x="805" unicode="&#x102;"/><glyph d="M573 0h-228l-11 50-7 2q-60-64-155-64-152 0-152 159 0 73 46.5 108t145.5 42l95 7v56q0 16-1 24t-10 16.5-26 8.5q-22 0-29.5-11.5t-7.5-44.5l-196 14q0 172 238 172 126 0 181.5-40.5t55.5-145.5v-221q0-12 2.5-15.5t13.5-4.5l45-8v-104zM307 130v79l-23-2q-49-4-49-45 0-38 40-38 14 0 32 6zM355 738l96-35q-19-71-60-105.5t-117-34.5-118 35-59 105l96 35q21-60 81-60 54 0 81 60z" glyph-name="abreve" horiz-adv-x="574" unicode="&#x103;"/><glyph d="M692-123l34-92q-66-31-137-31-61 0-90 26.5t-29 71.5q0 80 96 148h-144v103l80 9-18 49h-216l-17-49 78-9v-103h-331v103l46 11q20 5 25 19l217 591h238l212-593q4-12 24-17l47-11v-103h-118q-76-68-76-111 0-23 22-23 21 0 57 11zM447 304l-65 210h-7l-68-210h140z" glyph-name="Aogonek" horiz-adv-x="805" unicode="&#x104;"/><glyph d="M573 0q-49-21-84.5-53t-35.5-58q0-23 22-23 21 0 57 11l34-92q-66-31-137-31-61 0-90 26.5t-29 71.5q0 80 117 148h-82l-11 50-7 2q-60-64-155-64-152 0-152 159 0 73 46.5 108t145.5 42l95 7v56q0 16-1 24t-10 16.5-26 8.5q-22 0-29.5-11.5t-7.5-44.5l-196 14q0 172 238 172 126 0 181.5-40.5t55.5-145.5v-221q0-12 2.5-15.5t13.5-4.5l45-8v-104zM307 130v79l-23-2q-49-4-49-45 0-38 40-38 14 0 32 6z" glyph-name="aogonek" horiz-adv-x="574" unicode="&#x105;"/><glyph d="M636 266v-220q-46-27-118-42.5t-142-15.5q-361 0-361 375 0 168 99.5 271t286.5 103q61 0 125.5-15.5t108.5-43.5v-232l-153 12-15 98q-3 15-15 19-20 5-54 5-75 0-116.5-54t-41.5-163q0-112 39.5-166.5t111.5-54.5q37 0 60 5 12 2 15.5 5.5t5.5 17.5l15 96h149zM541 844l-240-77-43 87 224 116z" glyph-name="Cacute" horiz-adv-x="681" unicode="&#x106;"/><glyph d="M455 163l47-118q-93-57-208-57-137 0-208 74t-71 193q0 135 78 209.5t207 74.5q59 0 116-15.5t88-37.5v-181l-147 5-12 67q-4 16-12 18-13 4-33 4-27 0-45.5-28.5t-18.5-92.5q0-81 27-110t70-29q47 0 122 24zM428 709l-181-152-74 64 152 183z" glyph-name="cacute" horiz-adv-x="534" unicode="&#x107;"/><glyph d="M636 266v-220q-46-27-118-42.5t-142-15.5q-361 0-361 375 0 168 99.5 271t286.5 103q61 0 125.5-15.5t108.5-43.5v-232l-153 12-15 98q-3 15-15 19-20 5-54 5-75 0-116.5-54t-41.5-163q0-112 39.5-166.5t111.5-54.5q37 0 60 5 12 2 15.5 5.5t5.5 17.5l15 96h149zM497 767l-118 79-118-79-68 73 124 120h124l124-120z" glyph-name="Ccircumflex" horiz-adv-x="681" unicode="&#x108;"/><glyph d="M455 163l47-118q-93-57-208-57-137 0-208 74t-71 193q0 135 78 209.5t207 74.5q59 0 116-15.5t88-37.5v-181l-147 5-12 67q-4 16-12 18-13 4-33 4-27 0-45.5-28.5t-18.5-92.5q0-81 27-110t70-29q47 0 122 24zM478 621l-75-65-105 85-105-85-75 65 118 136h124z" glyph-name="ccircumflex" horiz-adv-x="534" unicode="&#x109;"/><glyph d="M636 266v-220q-46-27-118-42.5t-142-15.5q-361 0-361 375 0 168 99.5 271t286.5 103q61 0 125.5-15.5t108.5-43.5v-232l-153 12-15 98q-3 15-15 19-20 5-54 5-75 0-116.5-54t-41.5-163q0-112 39.5-166.5t111.5-54.5q37 0 60 5 12 2 15.5 5.5t5.5 17.5l15 96h149zM497 896q0-55-31-85.5t-87-30.5q-55 0-85.5 30.5t-30.5 85.5 30 84.5 86 29.5q57 0 87.5-29.5t30.5-84.5z" glyph-name="Cdotaccent" horiz-adv-x="681" unicode="&#x10a;"/><glyph d="M455 163l47-118q-93-57-208-57-137 0-208 74t-71 193q0 135 78 209.5t207 74.5q59 0 116-15.5t88-37.5v-181l-147 5-12 67q-4 16-12 18-13 4-33 4-27 0-45.5-28.5t-18.5-92.5q0-81 27-110t70-29q47 0 122 24zM416 698q0-56-31-86.5t-87-30.5q-55 0-85.5 30.5t-30.5 86.5q0 55 30 84.5t86 29.5 87-29.5 31-84.5z" glyph-name="cdotaccent" horiz-adv-x="534" unicode="&#x10b;"/><glyph d="M636 266v-220q-46-27-118-42.5t-142-15.5q-361 0-361 375 0 168 99.5 271t286.5 103q61 0 125.5-15.5t108.5-43.5v-232l-153 12-15 98q-3 15-15 19-20 5-54 5-75 0-116.5-54t-41.5-163q0-112 39.5-166.5t111.5-54.5q37 0 60 5 12 2 15.5 5.5t5.5 17.5l15 96h149zM566 901l-125-120h-124l-124 120 68 73 118-79 118 79z" glyph-name="Ccaron" horiz-adv-x="681" unicode="&#x10c;"/><glyph d="M455 163l47-118q-93-57-208-57-137 0-208 74t-71 193q0 135 78 209.5t207 74.5q59 0 116-15.5t88-37.5v-181l-147 5-12 67q-4 16-12 18-13 4-33 4-27 0-45.5-28.5t-18.5-92.5q0-81 27-110t70-29q47 0 122 24zM360 574h-124l-119 135 75 66 106-85 104 85 75-66z" glyph-name="ccaron" horiz-adv-x="534" unicode="&#x10d;"/><glyph d="M348 0h-332v105l63 7q10 1 13 4.5t3 15.5v461q0 11-3 15t-13 5l-63 7v104h349q183 0 271-91.5t88-259.5q0-173-94-273t-282-100zM312 143h14q55 0 91.5 17t54.5 50 25 70 7 89q0 112-39.5 161.5t-141.5 49.5h-11v-437zM518 901l-125-120h-124l-124 120 68 73 118-79 118 79z" glyph-name="Dcaron" horiz-adv-x="737" unicode="&#x10e;"/><glyph d="M624 0h-233l-10 50-8 2q-58-64-155-64-199 0-199 274 0 142 63.5 209.5t150.5 67.5q71 0 130-45v113q0 16-13 21l-51 19 14 108h250v-625q0-11 2.5-14.5t13.5-4.5l45-7v-104zM353 146v224q-18 10-36 10-38 0-56.5-33.5t-18.5-83.5q0-125 69-125 21 0 42 8zM696 512l-94 26q23 94 23 136 0 44-11 64l136 39q16-30 16-71 0-20-7-44-19-62-63-150z" glyph-name="dcaron" horiz-adv-x="787" unicode="&#x10f;"/><glyph d="M358 0h-332v105l63 7q10 1 13 4.5t3 15.5v156h-67v145h67v160q0 11-3 15t-13 5l-63 7v104h349q183 0 271-91.5t88-259.5q0-173-94-273t-282-100zM322 143h14q55 0 91.5 17t54.5 50 25 70 7 89q0 112-39.5 161.5t-141.5 49.5h-11v-147h107v-145h-107v-145z" glyph-name="Dcroat" horiz-adv-x="747" unicode="&#x110;"/><glyph d="M624 0h-233l-10 50-8 2q-58-64-155-64-199 0-199 237 0 72 18.5 122.5t51 75.5 66.5 35.5 75 10.5q74 0 133-45v78h-133v108h133q-1 13-13 18l-51 19 14 108h250v-145h73v-108h-73v-372q0-11 2.5-14.5t13.5-4.5l45-7v-104zM353 146v154q-18 10-42 10-35 0-52-19t-17-70q0-83 69-83 21 0 42 8z" glyph-name="dcroat" horiz-adv-x="624" unicode="&#x111;"/><glyph d="M600 0h-584v103l63 7q10 1 13 5t3 15v463q0 12-3 15.5t-13 4.5l-63 7v104h562v-239l-153 6-14 75q-3 13-17 13h-82v-142h202v-151h-202v-142h104q14 0 16 11l16 88h152v-243zM476 777h-327v130h327v-130z" glyph-name="Emacron" horiz-adv-x="627" unicode="&#x112;"/><glyph d="M475 174l46-128q-128-58-230-58-145 0-210.5 75.5t-65.5 204.5q0 131 75.5 201t192.5 70q110 0 171.5-62.5t61.5-193.5q0-23-3-61h-276q6-79 83-79 53 0 155 31zM234 325h82q1 42-9.5 56.5t-30.5 14.5q-40 0-42-71zM439 587h-327v130h327v-130z" glyph-name="emacron" horiz-adv-x="543" unicode="&#x113;"/><glyph d="M600 0h-584v103l63 7q10 1 13 5t3 15v463q0 12-3 15.5t-13 4.5l-63 7v104h562v-239l-153 6-14 75q-3 13-17 13h-82v-142h202v-151h-202v-142h104q14 0 16 11l16 88h152v-243zM396 961l96-35q-19-72-61-108t-119-36q-78 0-120.5 36.5t-59.5 107.5l96 35q22-64 84-64 54 0 84 64z" glyph-name="Ebreve" horiz-adv-x="627" unicode="&#x114;"/><glyph d="M475 174l46-128q-128-58-230-58-145 0-210.5 75.5t-65.5 204.5q0 131 75.5 201t192.5 70q110 0 171.5-62.5t61.5-193.5q0-23-3-61h-276q6-79 83-79 53 0 155 31zM234 325h82q1 42-9.5 56.5t-30.5 14.5q-40 0-42-71zM356 738l96-35q-19-71-60-105.5t-117-34.5-118 35-59 105l96 35q21-60 81-60 54 0 81 60z" glyph-name="ebreve" horiz-adv-x="543" unicode="&#x115;"/><glyph d="M600 0h-584v103l63 7q10 1 13 5t3 15v463q0 12-3 15.5t-13 4.5l-63 7v104h562v-239l-153 6-14 75q-3 13-17 13h-82v-142h202v-151h-202v-142h104q14 0 16 11l16 88h152v-243zM430 896q0-55-31-85.5t-87-30.5q-55 0-85.5 30.5t-30.5 85.5 30 84.5 86 29.5q57 0 87.5-29.5t30.5-84.5z" glyph-name="Edotaccent" horiz-adv-x="627" unicode="&#x116;"/><glyph d="M475 174l46-128q-128-58-230-58-145 0-210.5 75.5t-65.5 204.5q0 131 75.5 201t192.5 70q110 0 171.5-62.5t61.5-193.5q0-23-3-61h-276q6-79 83-79 53 0 155 31zM234 325h82q1 42-9.5 56.5t-30.5 14.5q-40 0-42-71zM393 698q0-56-31-86.5t-87-30.5q-55 0-85.5 30.5t-30.5 86.5q0 55 30 84.5t86 29.5 87-29.5 31-84.5z" glyph-name="edotaccent" horiz-adv-x="543" unicode="&#x117;"/><glyph d="M563-123l34-92q-66-31-137-31-61 0-90 26t-29 70 33.5 84 78.5 66h-437v103l63 7q10 1 13 5t3 15v463q0 12-3 15.5t-13 4.5l-63 7v104h562v-239l-153 6-14 75q-3 13-17 13h-82v-142h202v-151h-202v-142h104q14 0 16 11l16 88h152v-244q-51-25-83.5-55t-32.5-55q0-23 22-23 21 0 57 11z" glyph-name="Eogonek" horiz-adv-x="627" unicode="&#x118;"/><glyph d="M409-123l34-92q-66-31-137-31-61 0-90 26.5t-29 71.5q0 70 81 137-132 6-192.5 80.5t-60.5 198.5q0 131 75.5 201t192.5 70q233 0 233-252 0-23-3-61h-276q3-44 23.5-63.5t59.5-19.5q53 0 155 31l46-128q-69-32-101-49-32-18-61-50.5t-29-57.5q0-23 22-23 21 0 57 11zM236 329h78q0 42-9.5 54.5t-28.5 12.5q-37 0-40-67z" glyph-name="eogonek" horiz-adv-x="543" unicode="&#x119;"/><glyph d="M600 0h-584v103l63 7q10 1 13 5t3 15v463q0 12-3 15.5t-13 4.5l-63 7v104h562v-239l-153 6-14 75q-3 13-17 13h-82v-142h202v-151h-202v-142h104q14 0 16 11l16 88h152v-243zM499 901l-125-120h-124l-124 120 68 73 118-79 118 79z" glyph-name="Ecaron" horiz-adv-x="627" unicode="&#x11a;"/><glyph d="M475 174l46-128q-128-58-230-58-145 0-210.5 75.5t-65.5 204.5q0 131 75.5 201t192.5 70q110 0 171.5-62.5t61.5-193.5q0-23-3-61h-276q6-79 83-79 53 0 155 31zM234 325h82q1 42-9.5 56.5t-30.5 14.5q-40 0-42-71zM337 574h-124l-119 135 75 66 106-85 104 85 75-66z" glyph-name="ecaron" horiz-adv-x="543" unicode="&#x11b;"/><glyph d="M713 257l-40-4q-16-1-16-14v-196q-115-55-279-55-363 0-363 373 0 169 100 272.5t290 103.5q54 0 118-15t112-46v-221l-154 13-14 86q-2 12-5 15.5t-12 5.5q-18 5-55 5-74 0-114-58.5t-40-155.5q0-223 147-223 23 0 36 1 17 1 17 21v82h-86l17 115h341v-105zM501 767l-118 79-118-79-68 73 124 120h124l124-120z" glyph-name="Gcircumflex" horiz-adv-x="723" unicode="&#x11c;"/><glyph d="M578 421l-87-1-5-5q34-43 34-97 0-75-63-119.5t-154-44.5q-33 0-70 5l-32-34 89-5q138-8 174-17 80-19 99-82 7-25 7-59 0-90-78.5-138.5t-218.5-48.5q-256 0-256 119 0 30 13.5 52t39.5 48q-46 20-46 69 0 31 23.5 56t80.5 67q-45 18-72 57.5t-27 96.5q0 85 64.5 142t186.5 57q62 0 100-11h198v-107zM346 339q0 32-17 50t-43 18q-27 0-44.5-17t-17.5-52q0-27 15.5-43t44.5-16q27 0 44.5 16.5t17.5 43.5zM309-45l-132 7q-15-18-15-34 0-39 123-39 85 0 85 35 0 27-61 31zM466 621l-75-65-105 85-105-85-75 65 118 136h124z" glyph-name="gcircumflex" horiz-adv-x="594" unicode="&#x11d;"/><glyph d="M713 257l-40-4q-16-1-16-14v-196q-115-55-279-55-363 0-363 373 0 169 100 272.5t290 103.5q54 0 118-15t112-46v-221l-154 13-14 86q-2 12-5 15.5t-12 5.5q-18 5-55 5-74 0-114-58.5t-40-155.5q0-223 147-223 23 0 36 1 17 1 17 21v82h-86l17 115h341v-105zM467 961l96-35q-19-72-61-108t-119-36q-78 0-120.5 36.5t-59.5 107.5l96 35q22-64 84-64 54 0 84 64z" glyph-name="Gbreve" horiz-adv-x="723" unicode="&#x11e;"/><glyph d="M578 421l-87-1-5-5q34-43 34-97 0-75-63-119.5t-154-44.5q-33 0-70 5l-32-34 89-5q138-8 174-17 80-19 99-82 7-25 7-59 0-90-78.5-138.5t-218.5-48.5q-256 0-256 119 0 30 13.5 52t39.5 48q-46 20-46 69 0 31 23.5 56t80.5 67q-45 18-72 57.5t-27 96.5q0 85 64.5 142t186.5 57q62 0 100-11h198v-107zM346 339q0 32-17 50t-43 18q-27 0-44.5-17t-17.5-52q0-27 15.5-43t44.5-16q27 0 44.5 16.5t17.5 43.5zM309-45l-132 7q-15-18-15-34 0-39 123-39 85 0 85 35 0 27-61 31zM367 738l96-35q-19-71-60-105.5t-117-34.5-118 35-59 105l96 35q21-60 81-60 54 0 81 60z" glyph-name="gbreve" horiz-adv-x="594" unicode="&#x11f;"/><glyph d="M713 257l-40-4q-16-1-16-14v-196q-115-55-279-55-363 0-363 373 0 169 100 272.5t290 103.5q54 0 118-15t112-46v-221l-154 13-14 86q-2 12-5 15.5t-12 5.5q-18 5-55 5-74 0-114-58.5t-40-155.5q0-223 147-223 23 0 36 1 17 1 17 21v82h-86l17 115h341v-105zM501 896q0-55-31-85.5t-87-30.5q-55 0-85.5 30.5t-30.5 85.5 30 84.5 86 29.5q57 0 87.5-29.5t30.5-84.5z" glyph-name="Gdotaccent" horiz-adv-x="723" unicode="&#x120;"/><glyph d="M578 421l-87-1-5-5q34-43 34-97 0-75-63-119.5t-154-44.5q-33 0-70 5l-32-34 89-5q138-8 174-17 80-19 99-82 7-25 7-59 0-90-78.5-138.5t-218.5-48.5q-256 0-256 119 0 30 13.5 52t39.5 48q-46 20-46 69 0 31 23.5 56t80.5 67q-45 18-72 57.5t-27 96.5q0 85 64.5 142t186.5 57q62 0 100-11h198v-107zM346 339q0 32-17 50t-43 18q-27 0-44.5-17t-17.5-52q0-27 15.5-43t44.5-16q27 0 44.5 16.5t17.5 43.5zM309-45l-132 7q-15-18-15-34 0-39 123-39 85 0 85 35 0 27-61 31zM404 698q0-56-31-86.5t-87-30.5q-55 0-85.5 30.5t-30.5 86.5q0 55 30 84.5t86 29.5 87-29.5 31-84.5z" glyph-name="gdotaccent" horiz-adv-x="594" unicode="&#x121;"/><glyph d="M713 257l-40-4q-16-1-16-14v-196q-115-55-279-55-363 0-363 373 0 169 100 272.5t290 103.5q54 0 118-15t112-46v-221l-154 13-14 86q-2 12-5 15.5t-12 5.5q-18 5-55 5-74 0-114-58.5t-40-155.5q0-223 147-223 23 0 36 1 17 1 17 21v82h-86l17 115h341v-105zM401-312l-82 22 19 103q3 13-8 16l-41 11 20 116q49 1 80-3.5t55.5-24.5 24.5-57q0-32-22-79z" glyph-name="Gcommaaccent" horiz-adv-x="723" unicode="&#x122;"/><glyph d="M578 421l-87-1-5-5q34-43 34-97 0-75-63-119.5t-154-44.5q-33 0-70 5l-32-34 89-5q138-8 174-17 80-19 99-82 7-25 7-59 0-90-78.5-138.5t-218.5-48.5q-256 0-256 119 0 30 13.5 52t39.5 48q-46 20-46 69 0 31 23.5 56t80.5 67q-45 18-72 57.5t-27 96.5q0 85 64.5 142t186.5 57q62 0 100-11h198v-107zM346 339q0 32-17 50t-43 18q-27 0-44.5-17t-17.5-52q0-27 15.5-43t44.5-16q27 0 44.5 16.5t17.5 43.5zM309-45l-132 7q-15-18-15-34 0-39 123-39 85 0 85 35 0 27-61 31zM269 832l82-22-19-103q-3-13 8-16l41-11-20-116q-49-1-80 3.5t-55.5 24.5-24.5 57q0 32 22 79z" glyph-name="gcommaaccent" horiz-adv-x="594" unicode="&#x123;"/><glyph d="M816 0h-379v103l63 7q10 1 13 5t3 15v164h-204v-163q0-12 2.5-15.5t13.5-4.5l67-8v-103h-379v103l63 7q10 1 13 5t3 15v462q0 12-3 15.5t-13 4.5l-63 7v105h379v-105l-67-8q-11-1-13.5-4.5t-2.5-14.5v-146h204v146q0 12-3 15.5t-13 4.5l-63 7v105h379v-105l-67-8q-11-1-13.5-4.5t-2.5-14.5v-461q0-12 2.5-15.5t13.5-4.5l67-8v-103zM536 767l-118 79-118-79-68 73 124 120h124l124-120z" glyph-name="Hcircumflex" horiz-adv-x="828" unicode="&#x124;"/><glyph d="M257 787l-108 79-108-79-68 73 114 120h124l114-120zM619 0h-270v339q0 23-5 33t-20 10q-19 0-47-13v-239q0-12 2.5-16t12.5-5l34-5v-104h-316v104l40 7q10 1 13 5t3 15v476q0 17-13 21l-51 19 14 108h258v-270l6-2q53 56 136 56 74 0 109-41t35-127v-240q0-12 2.5-15.5t13.5-4.5l43-7v-104z" glyph-name="hcircumflex" horiz-adv-x="619" unicode="&#x125;"/><glyph d="M25 421v155h80v16q0 12-3 15.5t-13 4.5l-63 7v105h379v-105l-67-8q-11-1-13.5-4.5t-2.5-14.5v-16h204v16q0 12-3 15.5t-13 4.5l-63 7v105h379v-105l-67-8q-11-1-13.5-4.5t-2.5-14.5v-16h78v-155h-78v-290q0-12 2.5-15.5t13.5-4.5l67-8v-103h-379v103l63 7q10 1 13 5t3 15v154h-204v-153q0-12 2.5-15.5t13.5-4.5l67-8v-103h-379v103l63 7q10 1 13 5t3 15v291h-80zM322 436h204v43h-204v-43z" glyph-name="Hbar" horiz-adv-x="848" unicode="&#x126;"/><glyph d="M412 502h-138v-92l6-2q53 56 136 56 74 0 109-41t35-127v-165q0-12 2.5-15.5t13.5-4.5l43-7v-104h-270v264q0 23-5 33t-20 10q-19 0-47-13v-164q0-12 2.5-16t12.5-5l34-5v-104h-316v104l40 7q10 1 13 5t3 15v371h-60v108h60q-2 14-13 18l-51 19 14 108h258v-145h138v-108z" glyph-name="hbar" horiz-adv-x="619" unicode="&#x127;"/><glyph d="M410 0h-399v103l73 8q10 1 13 4.5t3 15.5v461q0 12-3 15.5t-13 4.5l-73 7v105h399v-105l-77-8q-11-1-13.5-4.5t-2.5-14.5v-461q0-12 2.5-15.5t13.5-4.5l77-8v-103zM402 899l-23-49q-17-36-32-53t-38-17q-30 0-116 24-50 15-53 15-5 0-16-11l-23-25-75 44 30 59q28 57 72 57 26 0 85-17 64-18 73-18 6 0 12 7l21 26z" glyph-name="Itilde" horiz-adv-x="417" unicode="&#x128;"/><glyph d="M330 689l-22-49q-16-36-30-53t-37-17q-29 0-111 24-47 15-51 15-5 0-15-11l-22-25-72 44 28 59q28 57 69 57 26 0 82-17 62-18 70-18 6 0 12 7l20 26zM330 0h-316v104l36 7q10 1 13 5t3 15v249q0 17-13 21l-51 19 14 108h261v-397q0-12 2.5-15.5t13.5-4.5l37-7v-104z" glyph-name="itilde" horiz-adv-x="336" unicode="&#x129;"/><glyph d="M410 0h-399v103l73 8q10 1 13 4.5t3 15.5v461q0 12-3 15.5t-13 4.5l-73 7v105h399v-105l-77-8q-11-1-13.5-4.5t-2.5-14.5v-461q0-12 2.5-15.5t13.5-4.5l77-8v-103zM375 777h-327v130h327v-130z" glyph-name="Imacron" horiz-adv-x="417" unicode="&#x12a;"/><glyph d="M297 587h-297v130h297v-130zM330 0h-316v104l36 7q10 1 13 5t3 15v249q0 17-13 21l-51 19 14 108h261v-397q0-12 2.5-15.5t13.5-4.5l37-7v-104z" glyph-name="imacron" horiz-adv-x="336" unicode="&#x12b;"/><glyph d="M410 0h-399v103l73 8q10 1 13 4.5t3 15.5v461q0 12-3 15.5t-13 4.5l-73 7v105h399v-105l-77-8q-11-1-13.5-4.5t-2.5-14.5v-461q0-12 2.5-15.5t13.5-4.5l77-8v-103zM295 961l96-35q-19-72-61-108t-119-36q-78 0-120.5 36.5t-59.5 107.5l96 35q22-64 84-64 54 0 84 64z" glyph-name="Ibreve" horiz-adv-x="417" unicode="&#x12c;"/><glyph d="M218 744l96-35q-18-71-57-105.5t-110-34.5q-72 0-111.5 35t-55.5 105l96 35q19-60 71-60 24 0 41 14t30 46zM330 0h-316v104l36 7q10 1 13 5t3 15v249q0 17-13 21l-51 19 14 108h261v-397q0-12 2.5-15.5t13.5-4.5l37-7v-104z" glyph-name="ibreve" horiz-adv-x="336" unicode="&#x12d;"/><glyph d="M303-123l34-92q-66-31-137-31-61 0-90 26.5t-29 71.5q0 80 96 148h-166v103l73 8q10 1 13 4.5t3 15.5v461q0 12-3 15.5t-13 4.5l-73 7v105h399v-105l-77-8q-11-1-13.5-4.5t-2.5-14.5v-461q0-12 2.5-15.5t13.5-4.5l77-8v-103h-110q-76-68-76-111 0-23 22-23 21 0 57 11z" glyph-name="Iogonek" horiz-adv-x="417" unicode="&#x12e;"/><glyph d="M243-123l34-92q-66-31-137-31-61 0-90 26.5t-29 71.5q0 80 96 148h-103v104l36 7q10 1 13 5t3 15v249q0 17-13 21l-51 19 14 108h261v-397q0-12 2.5-15.5t13.5-4.5l37-7v-104h-90q-76-68-76-111 0-23 22-23 21 0 57 11zM276 693q0-56-30.5-86.5t-86.5-30.5q-55 0-86 31t-31 86 30.5 84.5 86.5 29.5 86.5-29.5 30.5-84.5z" glyph-name="iogonek" horiz-adv-x="336" unicode="&#x12f;"/><glyph d="M410 0h-399v103l73 8q10 1 13 4.5t3 15.5v461q0 12-3 15.5t-13 4.5l-73 7v105h399v-105l-77-8q-11-1-13.5-4.5t-2.5-14.5v-461q0-12 2.5-15.5t13.5-4.5l77-8v-103zM329 896q0-55-31-85.5t-87-30.5q-55 0-85.5 30.5t-30.5 85.5 30 84.5 86 29.5q57 0 87.5-29.5t30.5-84.5z" glyph-name="Idotaccent" horiz-adv-x="417" unicode="&#x130;"/><glyph d="M330 0h-316v104l36 7q10 1 13 5t3 15v249q0 17-13 21l-51 19 14 108h261v-397q0-12 2.5-15.5t13.5-4.5l37-7v-104z" glyph-name="dotlessi" horiz-adv-x="336" unicode="&#x131;"/><glyph d="M410 0h-399v103l73 8q10 1 13 4.5t3 15.5v461q0 12-3 15.5t-13 4.5l-73 7v105h399v-105l-77-8q-11-1-13.5-4.5t-2.5-14.5v-461q0-12 2.5-15.5t13.5-4.5l77-8v-103zM641 174v419q0 17-16 18l-95 8v105h411v-105l-67-8q-11-1-13.5-4.5t-2.5-14.5v-414q0-97-50.5-143.5t-161.5-46.5q-61 0-123 13t-88 30v217l154-11 10-71q1-10 6-12.5t17-2.5q10 0 14.5 4.5t4.5 18.5z" glyph-name="IJ" horiz-adv-x="946" unicode="&#x132;"/><glyph d="M276 693q0-56-30.5-86.5t-86.5-30.5q-55 0-86 31t-31 86 30.5 84.5 86.5 29.5 86.5-29.5 30.5-84.5zM330 0h-316v104l36 7q10 1 13 5t3 15v249q0 17-13 21l-51 19 14 108h261v-397q0-12 2.5-15.5t13.5-4.5l37-7v-104zM400-8v388q0 15-14 21l-48 19 14 108h259v-568q0-183-204-183-66 0-119 20.5t-75 38.5l50 108q55-22 85-22 13 0 20 1.5t15.5 7.5 12.5 21 4 40zM610 693q0-56-31-86.5t-87-30.5q-55 0-85.5 31t-30.5 86 30.5 84.5 85.5 29.5q56 0 87-29.5t31-84.5z" glyph-name="ij" horiz-adv-x="668" unicode="&#x133;"/><glyph d="M224 174v419q0 17-16 18l-95 8v105h411v-105l-67-8q-11-1-13.5-4.5t-2.5-14.5v-414q0-97-50.5-143.5t-161.5-46.5q-61 0-123 13t-88 30v217l154-11 10-71q1-10 6-12.5t17-2.5q10 0 14.5 4.5t4.5 18.5zM447 767l-118 79-118-79-68 73 124 120h124l124-120z" glyph-name="Jcircumflex" horiz-adv-x="529" unicode="&#x134;"/><glyph d="M64-8v388q0 15-14 21l-48 19 14 108h259v-568q0-183-204-183-66 0-119 20.5t-75 38.5l50 108q47-22 85-22 27 0 39.5 13t12.5 57zM332 627l-75-65-105 85-105-85-75 65 118 136h124z" glyph-name="jcircumflex" horiz-adv-x="332" unicode="&#x135;"/><glyph d="M776 0h-284l-132 237-48-64v-41q0-12 2.5-15.5t13.5-4.5l67-8v-104h-379v104l63 7q10 1 13 4.5t3 15.5v462q0 11-3 15t-13 5l-63 7v104h379v-104l-67-8q-11-1-13.5-4.5t-2.5-14.5v-214l194 232-62 8v105h299v-105l-34-5q-20-3-31-18l-151-182 153-278q6-11 12.5-15.5t19.5-6.5l64-10v-104zM407-312l-82 22 19 103q3 13-8 16l-41 11 20 116q49 1 80-3.5t55.5-24.5 24.5-57q0-32-22-79z" glyph-name="Kcommaaccent" horiz-adv-x="770" unicode="&#x136;"/><glyph d="M645 0h-240l-104 240-24-24v-85q0-12 2.5-15.5t13.5-4.5l38-7v-104h-318v104l37 7q11 2 13.5 5.5t2.5 14.5v476q0 16-13 21l-51 19 14 108h261v-372l154 145h165v-104l-47-7q-13-2-25-15l-51-49 104-227q8-16 30-19l38-5v-102zM346-312l-82 22 19 103q3 13-8 16l-41 11 20 116q49 1 80-3.5t55.5-24.5 24.5-57q0-32-22-79z" glyph-name="kcommaaccent" horiz-adv-x="649" unicode="&#x137;"/><glyph d="M645 0h-240l-104 240-24-24v-85q0-12 2.5-15.5t13.5-4.5l38-7v-104h-318v104l37 7q11 2 13.5 5.5t2.5 14.5v249q0 16-13 21l-51 19 14 108h261v-145l154 145h165v-104l-47-7q-13-2-25-15l-51-49 104-227q8-16 30-19l38-5v-102z" glyph-name="kgreenlandic" horiz-adv-x="649" unicode="&#x138;"/><glyph d="M600 0h-584v104l63 7q10 1 13 5t3 15v462q0 12-3 15.5t-13 4.5l-63 7v104h395v-104l-83-8q-11-1-13.5-4.5t-2.5-14.5v-449h103q14 0 16 11l16 109h153v-264zM364 844l-240-77-43 87 224 116z" glyph-name="Lacute" horiz-adv-x="629" unicode="&#x139;"/><glyph d="M331 0h-318v104l37 7q11 2 13.5 5.5t2.5 14.5v476q0 16-13 21l-51 19 14 108h261v-624q0-12 2.5-15.5t13.5-4.5l38-7v-104zM287 864l-240-77-43 87 224 116z" glyph-name="lacute" horiz-adv-x="336" unicode="&#x13a;"/><glyph d="M600 0h-584v104l63 7q10 1 13 5t3 15v462q0 12-3 15.5t-13 4.5l-63 7v104h395v-104l-83-8q-11-1-13.5-4.5t-2.5-14.5v-449h103q14 0 16 11l16 109h153v-264zM337-312l-82 22 19 103q3 13-8 16l-41 11 20 116q49 1 80-3.5t55.5-24.5 24.5-57q0-32-22-79z" glyph-name="Lcommaaccent" horiz-adv-x="629" unicode="&#x13b;"/><glyph d="M331 0h-318v104l37 7q11 2 13.5 5.5t2.5 14.5v476q0 16-13 21l-51 19 14 108h261v-624q0-12 2.5-15.5t13.5-4.5l38-7v-104zM190-312l-82 22 19 103q3 13-8 16l-41 11 20 116q49 1 80-3.5t55.5-24.5 24.5-57q0-32-22-79z" glyph-name="lcommaaccent" horiz-adv-x="336" unicode="&#x13c;"/><glyph d="M600 0h-584v104l63 7q10 1 13 5t3 15v462q0 12-3 15.5t-13 4.5l-63 7v104h395v-104l-83-8q-11-1-13.5-4.5t-2.5-14.5v-449h103q14 0 16 11l16 109h153v-264zM545 493l-94 26q23 94 23 136 0 44-11 64l136 39q16-30 16-71 0-19-7-44-19-62-63-150z" glyph-name="Lcaron" horiz-adv-x="629" unicode="&#x13d;"/><glyph d="M331 0h-318v104l37 7q11 2 13.5 5.5t2.5 14.5v476q0 16-13 21l-51 19 14 108h261v-624q0-12 2.5-15.5t13.5-4.5l38-7v-104zM408 512l-94 26q23 94 23 136 0 44-11 64l136 39q16-30 16-71 0-20-7-44-19-62-63-150z" glyph-name="lcaron" horiz-adv-x="504" unicode="&#x13e;"/><glyph d="M600 0h-584v104l63 7q10 1 13 5t3 15v462q0 12-3 15.5t-13 4.5l-63 7v104h395v-104l-83-8q-11-1-13.5-4.5t-2.5-14.5v-449h103q14 0 16 11l16 109h153v-264zM616 446q0-53-30-82.5t-84-29.5q-53 0-82 29.5t-29 82.5 29 81 82 28q54 0 84-28t30-81z" glyph-name="Ldot" horiz-adv-x="629" unicode="&#x13f;"/><glyph d="M331 0h-318v104l37 7q11 2 13.5 5.5t2.5 14.5v476q0 16-13 21l-51 19 14 108h261v-624q0-12 2.5-15.5t13.5-4.5l38-7v-104zM542 408q0-53-30-82.5t-84-29.5q-53 0-82 29.5t-29 82.5 29 81 82 28q54 0 84-28t30-81z" glyph-name="ldot" horiz-adv-x="518" unicode="&#x140;"/><glyph d="M600 0h-584v104l63 7q10 1 13 5t3 15v109l-70-25v144l70 25v209q0 12-3 15.5t-13 4.5l-63 7v104h395v-104l-83-8q-11-1-13.5-4.5t-2.5-14.5v-130l165 60v-146l-165-59v-174h103q14 0 16 11l16 109h153v-264z" glyph-name="Lslash" horiz-adv-x="629" unicode="&#x141;"/><glyph d="M331 0h-318v104l37 7q11 2 13.5 5.5t2.5 14.5v142l-54-22v141l54 22v193q0 16-13 21l-51 19 14 108h261v-253l51 21v-141l-51-21v-230q0-12 2.5-15.5t13.5-4.5l38-7v-104z" glyph-name="lslash" horiz-adv-x="342" unicode="&#x142;"/><glyph d="M738 0h-220l-272 440v-309q0-12 2.5-15.5t13.5-4.5l67-8v-103h-313v103l63 7q10 1 13 5t3 15v464q0 12-3 15.5t-13 4.5l-63 7v103h298l274-445v313q0 12-3 15.5t-13 4.5l-63 7v105h312v-105l-67-8q-11-1-13.5-4.5t-2.5-14.5v-592zM565 844l-240-77-43 87 224 116z" glyph-name="Nacute" horiz-adv-x="831" unicode="&#x143;"/><glyph d="M619 0h-270v336q0 25-6.5 35t-22.5 10q-18 0-43-12v-238q0-12 3-16t14-6l25-5v-104h-309v104l40 7q10 1 13 5t3 15v249q0 17-13 21l-50 19 14 108h219l8-44h7q76 55 163 55 75 0 110.5-40.5t35.5-127.5v-240q0-12 2.5-15.5t13.5-4.5l43-7v-104zM426 709l-181-152-74 64 152 183z" glyph-name="nacute" horiz-adv-x="619" unicode="&#x144;"/><glyph d="M738 0h-220l-272 440v-309q0-12 2.5-15.5t13.5-4.5l67-8v-103h-313v103l63 7q10 1 13 5t3 15v464q0 12-3 15.5t-13 4.5l-63 7v103h298l274-445v313q0 12-3 15.5t-13 4.5l-63 7v105h312v-105l-67-8q-11-1-13.5-4.5t-2.5-14.5v-592zM426-311l-82 22 19 103q3 13-8 16l-41 11 20 116q49 1 80-3.5t55.5-24.5 24.5-57q0-32-22-79z" glyph-name="Ncommaaccent" horiz-adv-x="831" unicode="&#x145;"/><glyph d="M619 0h-270v336q0 25-6.5 35t-22.5 10q-18 0-43-12v-238q0-12 3-16t14-6l25-5v-104h-309v104l40 7q10 1 13 5t3 15v249q0 17-13 21l-50 19 14 108h219l8-44h7q76 55 163 55 75 0 110.5-40.5t35.5-127.5v-240q0-12 2.5-15.5t13.5-4.5l43-7v-104zM331-312l-82 22 19 103q3 13-8 16l-41 11 20 116q49 1 80-3.5t55.5-24.5 24.5-57q0-32-22-79z" glyph-name="ncommaaccent" horiz-adv-x="619" unicode="&#x146;"/><glyph d="M738 0h-220l-272 440v-309q0-12 2.5-15.5t13.5-4.5l67-8v-103h-313v103l63 7q10 1 13 5t3 15v464q0 12-3 15.5t-13 4.5l-63 7v103h298l274-445v313q0 12-3 15.5t-13 4.5l-63 7v105h312v-105l-67-8q-11-1-13.5-4.5t-2.5-14.5v-592zM590 901l-125-120h-124l-124 120 68 73 118-79 118 79z" glyph-name="Ncaron" horiz-adv-x="831" unicode="&#x147;"/><glyph d="M619 0h-270v336q0 25-6.5 35t-22.5 10q-18 0-43-12v-238q0-12 3-16t14-6l25-5v-104h-309v104l40 7q10 1 13 5t3 15v249q0 17-13 21l-50 19 14 108h219l8-44h7q76 55 163 55 75 0 110.5-40.5t35.5-127.5v-240q0-12 2.5-15.5t13.5-4.5l43-7v-104zM358 574h-124l-119 135 75 66 106-85 104 85 75-66z" glyph-name="ncaron" horiz-adv-x="619" unicode="&#x148;"/><glyph d="M714 0h-270v336q0 25-6.5 35t-22.5 10q-17 0-43-12v-238q0-12 3-16t14-6l25-5v-104h-309v104l40 7q10 1 13 5t3 15v249q0 17-13 21l-50 19 14 108h219l8-44h7q76 55 163 55 75 0 110.5-40.5t35.5-127.5v-240q0-12 2.5-15.5t13.5-4.5l43-7v-104zM79 493l-73 19 17 84q2 11-8 13l-35 9 18 102q65 1 102-14t37-61q0-28-19-69z" glyph-name="napostrophe" horiz-adv-x="714" unicode="&#x149;"/><glyph d="M527-8v8l-281 440v-309q0-12 2.5-15.5t13.5-4.5l67-8v-103h-313v103l63 7q10 1 13 5t3 15v464q0 12-3 15.5t-13 4.5l-63 7v103h298l274-439v307q0 12-3 15.5t-13 4.5l-63 7v105h312v-105l-67-8q-11-1-13.5-4.5t-2.5-14.5v-626q0-99-61-144t-163-45q-66 0-124 22.5t-80 41.5l50 108q51-27 99-27 20 0 33 3.5t24 20 11 46.5z" glyph-name="Eng" horiz-adv-x="831" unicode="&#x14a;"/><glyph d="M349-8v344q0 25-6.5 35t-22.5 10q-18 0-43-12v-238q0-12 3-16t14-6l25-5v-104h-309v104l40 7q10 1 13 5t3 15v249q0 17-13 21l-50 19 14 108h219l8-44h7q76 55 163 55 75 0 110.5-40.5t35.5-127.5v-411q0-183-204-183-66 0-119 20.5t-75 38.5l50 108q47-22 85-22 27 0 39.5 13t12.5 57z" glyph-name="eng" horiz-adv-x="619" unicode="&#x14b;"/><glyph d="M367-12q-181 0-266.5 98.5t-85.5 268.5 94 276 272 106q176 0 263.5-102.5t87.5-264.5q0-180-91.5-281t-273.5-101zM376 156q64 0 98.5 45.5t34.5 159.5q0 111-33 159.5t-96 48.5q-142 0-142-209 0-113 35.5-158.5t102.5-45.5zM544 784h-327v130h327v-130z" glyph-name="Omacron" horiz-adv-x="747" unicode="&#x14c;"/><glyph d="M293-12q-278 0-278 276 0 129 72.5 202t215.5 73q142 0 209-72t67-196q0-134-71-208.5t-215-74.5zM298 128q61 0 61 139 0 73-15.5 101t-43.5 28q-64 0-64-130 0-77 16-107.5t46-30.5zM467 587h-327v130h327v-130z" glyph-name="omacron" horiz-adv-x="594" unicode="&#x14d;"/><glyph d="M367-12q-181 0-266.5 98.5t-85.5 268.5 94 276 272 106q176 0 263.5-102.5t87.5-264.5q0-180-91.5-281t-273.5-101zM376 156q64 0 98.5 45.5t34.5 159.5q0 111-33 159.5t-96 48.5q-142 0-142-209 0-113 35.5-158.5t102.5-45.5zM464 968l96-35q-19-72-61-108t-119-36q-78 0-120.5 36.5t-59.5 107.5l96 35q22-64 84-64 54 0 84 64z" glyph-name="Obreve" horiz-adv-x="747" unicode="&#x14e;"/><glyph d="M293-12q-278 0-278 276 0 129 72.5 202t215.5 73q142 0 209-72t67-196q0-134-71-208.5t-215-74.5zM298 128q61 0 61 139 0 73-15.5 101t-43.5 28q-64 0-64-130 0-77 16-107.5t46-30.5zM384 738l96-35q-19-71-60-105.5t-117-34.5-118 35-59 105l96 35q21-60 81-60 54 0 81 60z" glyph-name="obreve" horiz-adv-x="594" unicode="&#x14f;"/><glyph d="M367-12q-181 0-266.5 98.5t-85.5 268.5 94 276 272 106q176 0 263.5-102.5t87.5-264.5q0-180-91.5-281t-273.5-101zM376 156q64 0 98.5 45.5t34.5 159.5q0 111-33 159.5t-96 48.5q-142 0-142-209 0-113 35.5-158.5t102.5-45.5zM433 923l-179-149-67 67 157 173zM649 899l-201-124-51 63 172 157z" glyph-name="Ohungarumlaut" horiz-adv-x="747" unicode="&#x150;"/><glyph d="M293-12q-278 0-278 276 0 129 72.5 202t215.5 73q142 0 209-72t67-196q0-134-71-208.5t-215-74.5zM298 128q61 0 61 139 0 73-15.5 101t-43.5 28q-64 0-64-130 0-77 16-107.5t46-30.5zM361 710l-175-158-75 65 146 186zM577 710l-175-158-75 65 146 187z" glyph-name="ohungarumlaut" horiz-adv-x="594" unicode="&#x151;"/><glyph d="M981 0h-529q-50-12-113-12-324 0-324 367 0 170 87.5 276t256.5 106q55 0 105-13h495v-239l-153 6-14 75q-3 13-17 13h-136q37-70 45-142h209v-151h-210q-10-76-47-142h161q14 0 16 11l16 88h152v-243zM352 156q58 0 85.5 45.5t27.5 159.5q0 117-25 162.5t-81 45.5q-61 0-91-50t-30-159q0-113 28-158.5t86-45.5z" glyph-name="OE" horiz-adv-x="1008" unicode="&#x152;"/><glyph d="M274-12q-131 0-195 72t-64 204q0 128 70.5 201.5t204.5 73.5q120 0 176-76 64 76 170 76 105 0 157-59.5t52-192.5q0-23-3-61h-276q3-44 23.5-63.5t59.5-19.5q53 0 155 31l46-128q-128-58-221-58-53 0-97.5 20.5t-70.5 49.5q-78-70-187-70zM298 128q61 0 61 139 0 73-15.5 101t-43.5 28q-64 0-64-130 0-77 16-107.5t46-30.5zM565 329h78q0 42-9.5 54.5t-28.5 12.5q-37 0-40-67z" glyph-name="oe" horiz-adv-x="872" unicode="&#x153;"/><glyph d="M700 0h-274l-69 236q-8 28-18 38t-28 10v-151q0-12 3-15.5t15-5.5l39-7v-105h-352v105l63 7q10 1 13 4.5t3 15.5v461q0 11-3 15t-13 5l-63 7v104h376q127 0 183-55.5t56-149.5q0-136-118-186 40-19 58-78l35-117q7-19 32-23l62-10v-105zM311 420h5q21 0 34.5 2.5t28.5 10 22 25.5 7 47q0 39-17 56t-57 17h-23v-158zM490 844l-240-77-43 87 224 116z" glyph-name="Racute" horiz-adv-x="700" unicode="&#x154;"/><glyph d="M398 0h-388v105l40 7q10 1 13 5t3 15v248q0 16-13 21l-51 19 14 108h219l15-92h10q26 52 59 77.5t81 25.5q53 0 93-11v-211l-169 5-8 35q-4 14-13 14-10 0-26-8v-228q0-12 3-16t14-4l104-11v-104zM369 709l-181-152-74 64 152 183z" glyph-name="racute" horiz-adv-x="513" unicode="&#x155;"/><glyph d="M700 0h-274l-69 236q-8 28-18 38t-28 10v-151q0-12 3-15.5t15-5.5l39-7v-105h-352v105l63 7q10 1 13 4.5t3 15.5v461q0 11-3 15t-13 5l-63 7v104h376q127 0 183-55.5t56-149.5q0-136-118-186 40-19 58-78l35-117q7-19 32-23l62-10v-105zM311 420h5q21 0 34.5 2.5t28.5 10 22 25.5 7 47q0 39-17 56t-57 17h-23v-158zM380-311l-82 22 19 103q3 13-8 16l-41 11 20 116q49 1 80-3.5t55.5-24.5 24.5-57q0-32-22-79z" glyph-name="Rcommaaccent" horiz-adv-x="700" unicode="&#x156;"/><glyph d="M398 0h-388v105l40 7q10 1 13 5t3 15v248q0 16-13 21l-51 19 14 108h219l15-92h10q26 52 59 77.5t81 25.5q53 0 93-11v-211l-169 5-8 35q-4 14-13 14-10 0-26-8v-228q0-12 3-16t14-4l104-11v-104zM222-312l-82 22 19 103q3 13-8 16l-41 11 20 116q49 1 80-3.5t55.5-24.5 24.5-57q0-32-22-79z" glyph-name="rcommaaccent" horiz-adv-x="513" unicode="&#x157;"/><glyph d="M700 0h-274l-69 236q-8 28-18 38t-28 10v-151q0-12 3-15.5t15-5.5l39-7v-105h-352v105l63 7q10 1 13 4.5t3 15.5v461q0 11-3 15t-13 5l-63 7v104h376q127 0 183-55.5t56-149.5q0-136-118-186 40-19 58-78l35-117q7-19 32-23l62-10v-105zM311 420h5q21 0 34.5 2.5t28.5 10 22 25.5 7 47q0 39-17 56t-57 17h-23v-158zM515 901l-125-120h-124l-124 120 68 73 118-79 118 79z" glyph-name="Rcaron" horiz-adv-x="700" unicode="&#x158;"/><glyph d="M398 0h-388v105l40 7q10 1 13 5t3 15v248q0 16-13 21l-51 19 14 108h219l15-92h10q26 52 59 77.5t81 25.5q53 0 93-11v-211l-169 5-8 35q-4 14-13 14-10 0-26-8v-228q0-12 3-16t14-4l104-11v-104zM301 574h-124l-119 135 75 66 106-85 104 85 75-66z" glyph-name="rcaron" horiz-adv-x="513" unicode="&#x159;"/><glyph d="M555 472l-158 13-8 78q-1 11-4.5 14t-11.5 5q-22 3-48 3-34 0-52.5-15t-18.5-39q0-15 7.5-26.5t27.5-20.5 32.5-13 45.5-14q37-11 59-18.5t55-25.5 51.5-39.5 32.5-58 14-82.5q0-123-83-184t-214-61q-64 0-138 13.5t-110 30.5v226h157l21-100q2-14 17-16 36-4 53-4 44 0 66.5 16t22.5 44q0 17-8 29t-29.5 21.5-34.5 13-47 12.5q-46 11-73.5 21.5t-62.5 34-52.5 64-17.5 98.5q0 119 78.5 182t205.5 63q120 0 225-45v-220zM479 844l-240-77-43 87 224 116z" glyph-name="Sacute" horiz-adv-x="601" unicode="&#x15a;"/><glyph d="M482 367l-151 8-5 25q-2 10-11 13-18 6-48 6-51 0-51-27 0-10 6-17t22.5-12.5 26-8 36.5-7.5q33-6 52-11t49-17.5 46.5-29 29.5-45.5 13-67q0-94-67-141.5t-183-47.5q-142 0-214 38v128l147-9 6-30q2-14 15-17 17-5 55-5 56 0 56 35 0 18-20.5 26t-62.5 15q-3 0-5 .5t-5 1-5 .5q-31 5-51.5 10.5t-48.5 18-44.5 30-28.5 48-12 70.5q0 95 69.5 143t173.5 48q60 0 120-10t90-22v-140zM396 709l-181-152-74 64 152 183z" glyph-name="sacute" horiz-adv-x="515" unicode="&#x15b;"/><glyph d="M555 472l-158 13-8 78q-1 11-4.5 14t-11.5 5q-22 3-48 3-34 0-52.5-15t-18.5-39q0-15 7.5-26.5t27.5-20.5 32.5-13 45.5-14q37-11 59-18.5t55-25.5 51.5-39.5 32.5-58 14-82.5q0-123-83-184t-214-61q-64 0-138 13.5t-110 30.5v226h157l21-100q2-14 17-16 36-4 53-4 44 0 66.5 16t22.5 44q0 17-8 29t-29.5 21.5-34.5 13-47 12.5q-46 11-73.5 21.5t-62.5 34-52.5 64-17.5 98.5q0 119 78.5 182t205.5 63q120 0 225-45v-220zM435 767l-118 79-118-79-68 73 124 120h124l124-120z" glyph-name="Scircumflex" horiz-adv-x="601" unicode="&#x15c;"/><glyph d="M482 367l-151 8-5 25q-2 10-11 13-18 6-48 6-51 0-51-27 0-10 6-17t22.5-12.5 26-8 36.5-7.5q33-6 52-11t49-17.5 46.5-29 29.5-45.5 13-67q0-94-67-141.5t-183-47.5q-142 0-214 38v128l147-9 6-30q2-14 15-17 17-5 55-5 56 0 56 35 0 18-20.5 26t-62.5 15q-3 0-5 .5t-5 1-5 .5q-31 5-51.5 10.5t-48.5 18-44.5 30-28.5 48-12 70.5q0 95 69.5 143t173.5 48q60 0 120-10t90-22v-140zM452 621l-75-65-105 85-105-85-75 65 118 136h124z" glyph-name="scircumflex" horiz-adv-x="515" unicode="&#x15d;"/><glyph d="M198-273l8 83q6-1 18-1 64 0 64 47 0 35-61 37l12 97q-58 4-116.5 16t-88.5 26v226h157l21-100q2-14 17-16 36-4 53-4 44 0 66.5 16t22.5 44q0 17-8 29t-29.5 21.5-34.5 13-47 12.5q-46 11-73.5 21.5t-62.5 34-52.5 64-17.5 98.5q0 119 78.5 182t205.5 63q120 0 225-45v-220l-158 13-8 78q-1 11-4.5 14t-11.5 5q-22 3-48 3-34 0-52.5-15t-18.5-39q0-15 7.5-26.5t27.5-20.5 32.5-13 45.5-14q37-11 59-18.5t55-25.5 51.5-39.5 32.5-58 14-82.5q0-113-70-173.5t-184-69.5l-4-36q84-19 84-97 0-56-42.5-94.5t-124.5-38.5z" glyph-name="Scedilla" horiz-adv-x="601" unicode="&#x15e;"/><glyph d="M482 367l-151 8-5 25q-2 10-11 13-18 6-48 6-51 0-51-27 0-10 6-17t22.5-12.5 26-8 36.5-7.5q33-6 52-11t49-17.5 46.5-29 29.5-45.5 13-67q0-86-57-133t-158-54l-4-36q84-19 84-97 0-56-42.5-94.5t-125.5-38.5q-5 0-10.5.5t-10.5 1-9 .5h-6l-3 1 7 83q7-1 19-1 64 0 64 47 0 35-61 37l12 97q-111 7-163 36v128l147-9 6-30q2-14 15-17 17-5 55-5 56 0 56 35 0 18-20.5 26t-62.5 15q-3 0-5 .5t-5 1-5 .5q-31 5-51.5 10.5t-48.5 18-44.5 30-28.5 48-12 70.5q0 95 69.5 143t173.5 48q60 0 120-10t90-22v-140z" glyph-name="scedilla" horiz-adv-x="515" unicode="&#x15f;"/><glyph d="M555 472l-158 13-8 78q-1 11-4.5 14t-11.5 5q-22 3-48 3-34 0-52.5-15t-18.5-39q0-15 7.5-26.5t27.5-20.5 32.5-13 45.5-14q37-11 59-18.5t55-25.5 51.5-39.5 32.5-58 14-82.5q0-123-83-184t-214-61q-64 0-138 13.5t-110 30.5v226h157l21-100q2-14 17-16 36-4 53-4 44 0 66.5 16t22.5 44q0 17-8 29t-29.5 21.5-34.5 13-47 12.5q-46 11-73.5 21.5t-62.5 34-52.5 64-17.5 98.5q0 119 78.5 182t205.5 63q120 0 225-45v-220zM504 901l-125-120h-124l-124 120 68 73 118-79 118 79z" glyph-name="Scaron" horiz-adv-x="601" unicode="&#x160;"/><glyph d="M482 367l-151 8-5 25q-2 10-11 13-18 6-48 6-51 0-51-27 0-10 6-17t22.5-12.5 26-8 36.5-7.5q33-6 52-11t49-17.5 46.5-29 29.5-45.5 13-67q0-94-67-141.5t-183-47.5q-142 0-214 38v128l147-9 6-30q2-14 15-17 17-5 55-5 56 0 56 35 0 18-20.5 26t-62.5 15q-3 0-5 .5t-5 1-5 .5q-31 5-51.5 10.5t-48.5 18-44.5 30-28.5 48-12 70.5q0 95 69.5 143t173.5 48q60 0 120-10t90-22v-140zM328 574h-124l-119 135 75 66 106-85 104 85 75-66z" glyph-name="scaron" horiz-adv-x="515" unicode="&#x161;"/><glyph d="M266-273l8 83q6-1 18-1 64 0 64 47 0 35-61 37l14 107h-166v104l103 8q10 1 13 4.5t3 15.5v446h-52q-14 0-16-11l-16-87h-153v244h688v-244h-151l-16 87q-2 11-16 11h-51v-446q0-11 2.5-14.5t13.5-4.5l110-9v-104h-210l-6-46q84-19 84-97 0-56-42.5-94.5t-124.5-38.5z" glyph-name="uni0162" horiz-adv-x="738" unicode="&#x162;"/><glyph d="M412 151l33-115q-90-48-187-48h-1l-4-34q84-19 84-97 0-56-42.5-94.5t-125.5-38.5q-5 0-10.5.5t-10.5 1-9 .5h-7l-2 1 7 83q7-1 19-1 64 0 64 47 0 35-61 37l13 105q-55 15-79 58t-24 120v210q0 10-8 10h-68v122q74 7 111.5 51t45.5 131h130v-162q0-10 10-10h134v-132h-144v-182q0-44 11-60t48-16q38 0 73 13z" glyph-name="uni0163" horiz-adv-x="463" unicode="&#x163;"/><glyph d="M605 0h-462v104l103 8q10 1 13 4.5t3 15.5v446h-52q-14 0-16-11l-16-87h-153v244h688v-244h-151l-16 87q-2 11-16 11h-51v-446q0-11 2.5-14.5t13.5-4.5l110-9v-104zM558 901l-125-120h-124l-124 120 68 73 118-79 118 79z" glyph-name="Tcaron" horiz-adv-x="738" unicode="&#x164;"/><glyph d="M412 151l33-115q-90-48-187-48-104 0-146.5 44t-42.5 144v210q0 10-8 10h-68v122q74 7 111.5 51t45.5 131h130v-162q0-10 10-10h134v-132h-144v-182q0-44 11-60t48-16q38 0 73 13zM414 562l-94 26q23 94 23 136 0 44-11 64l136 39q16-30 16-71 0-20-7-44-19-62-63-150z" glyph-name="tcaron" horiz-adv-x="463" unicode="&#x165;"/><glyph d="M605 0h-462v104l103 8q10 1 13 4.5t3 15.5v134h-91v134h91v178h-52q-14 0-16-11l-16-87h-153v244h688v-244h-151l-16 87q-2 11-16 11h-51v-178h90v-134h-90v-134q0-11 2.5-14.5t13.5-4.5l110-9v-104z" glyph-name="Tbar" horiz-adv-x="738" unicode="&#x166;"/><glyph d="M412 151l33-115q-90-48-187-48-104 0-146.5 44t-42.5 144v39h-76v119h76v52q0 10-8 10h-68v122q74 7 111.5 51t45.5 131h130v-162q0-10 10-10h134v-132h-144v-62h144v-119h-144v-1q0-44 11-60t48-16q38 0 73 13z" glyph-name="tbar" horiz-adv-x="463" unicode="&#x167;"/><glyph d="M516 313v280q0 12-3 15.5t-13 4.5l-63 7v104h343v-104l-67-8q-11-1-13.5-4.5t-2.5-14.5v-316q0-289-302-289-161 0-235 70t-74 225v310q0 12-3 15.5t-13 4.5l-63 7v104h379v-104l-67-8q-11-1-13.5-4.5t-2.5-14.5v-275q0-35 1-53.5t6.5-41.5 16.5-34 32-19 51-8q64 0 85 33.5t21 117.5zM603 899l-23-49q-17-36-32-53t-38-17q-30 0-116 24-50 15-53 15-5 0-16-11l-23-25-75 44 30 59q29 57 72 57 26 0 85-17 64-18 73-18 6 0 12 7l21 26z" glyph-name="Utilde" horiz-adv-x="783" unicode="&#x168;"/><glyph d="M616 0h-230l-7 42-7 2q-70-56-165-56-75 0-110.5 41t-35.5 129v235q0 12-2.5 14.5t-13.5 4.5l-45 5 13 111h259v-338q0-27 6-37t23-10q21 0 43 12v238q0 12-2.5 14.5t-13.5 4.5l-26 5 13 111h240v-398q0-9 2.5-13t12.5-5l46-7v-105zM484 691l-23-49q-17-36-32-53t-38-17q-30 0-116 24-50 15-53 15-5 0-16-11l-23-25-75 44 30 59q28 57 72 57 26 0 85-17 64-18 73-18 6 0 12 7l21 26z" glyph-name="utilde" horiz-adv-x="619" unicode="&#x169;"/><glyph d="M516 313v280q0 12-3 15.5t-13 4.5l-63 7v104h343v-104l-67-8q-11-1-13.5-4.5t-2.5-14.5v-316q0-289-302-289-161 0-235 70t-74 225v310q0 12-3 15.5t-13 4.5l-63 7v104h379v-104l-67-8q-11-1-13.5-4.5t-2.5-14.5v-275q0-35 1-53.5t6.5-41.5 16.5-34 32-19 51-8q64 0 85 33.5t21 117.5zM576 777h-327v130h327v-130z" glyph-name="Umacron" horiz-adv-x="783" unicode="&#x16a;"/></font>
</defs>
</svg>
